<?xml version="1.0" encoding="utf-8"?>
<!-- Generator: Adobe Illustrator 28.1.0, SVG Export Plug-In . SVG Version: 6.00 Build 0)  -->
<svg version="1.1" xmlns="http://www.w3.org/2000/svg" xmlns:xlink="http://www.w3.org/1999/xlink" x="0px" y="0px"
	 viewBox="0 0 108 108" style="enable-background:new 0 0 108 108;" xml:space="preserve">
<style type="text/css">
	.st0{display:none;}
	.st1{display:inline;}
	.st2{fill:#E0E1E2;}
	.st3{fill:#C54536;}
	.st4{fill:#FFFFFF;}
</style>
<g id="Layer_2" class="st0">
	<g class="st1">
		<rect x="-18" y="-18" class="st2" width="144" height="144"/>
	</g>
</g>
<g id="Layer_1">
	<g>
		<circle class="st3" cx="54" cy="54" r="54"/>
	</g>
</g>
<g id="Layer_3">
	<g>
		<g>
			<g>
				<path class="st4" d="M14.79,62.18c0-0.67,0.12-1.33,0.36-1.98c0.24-0.65,0.59-1.24,1.06-1.75c0.46-0.51,1.03-0.93,1.7-1.25
					c0.67-0.32,1.43-0.48,2.28-0.48c1.01,0,1.88,0.22,2.61,0.66c0.73,0.44,1.28,1.02,1.64,1.73l-1.63,1.13
					c-0.14-0.31-0.32-0.57-0.52-0.78c-0.21-0.21-0.43-0.38-0.66-0.5c-0.24-0.12-0.48-0.21-0.74-0.27c-0.26-0.06-0.51-0.08-0.76-0.08
					c-0.53,0-1,0.11-1.4,0.32c-0.4,0.22-0.72,0.5-0.99,0.84c-0.26,0.34-0.46,0.74-0.59,1.17c-0.13,0.44-0.2,0.87-0.2,1.3
					c0,0.48,0.08,0.95,0.23,1.4c0.15,0.45,0.37,0.84,0.66,1.18c0.28,0.34,0.62,0.61,1.02,0.82c0.4,0.21,0.83,0.31,1.3,0.31
					c0.25,0,0.5-0.03,0.77-0.09c0.27-0.06,0.52-0.16,0.76-0.29c0.24-0.13,0.47-0.31,0.67-0.52c0.21-0.21,0.37-0.47,0.49-0.76l1.74,1
					c-0.17,0.41-0.42,0.77-0.75,1.09c-0.32,0.31-0.69,0.58-1.09,0.79c-0.41,0.22-0.84,0.38-1.3,0.49c-0.46,0.11-0.92,0.17-1.36,0.17
					c-0.78,0-1.5-0.16-2.14-0.49c-0.65-0.33-1.21-0.76-1.67-1.29c-0.47-0.53-0.83-1.13-1.09-1.8
					C14.92,63.56,14.79,62.88,14.79,62.18z"/>
				<path class="st4" d="M30.7,67.81c-0.8,0-1.53-0.16-2.18-0.47c-0.65-0.31-1.21-0.73-1.68-1.25c-0.47-0.52-0.83-1.11-1.09-1.78
					c-0.26-0.67-0.39-1.35-0.39-2.05c0-0.73,0.14-1.43,0.41-2.1c0.27-0.67,0.65-1.26,1.13-1.77c0.48-0.51,1.05-0.92,1.7-1.23
					c0.66-0.3,1.37-0.45,2.14-0.45c0.79,0,1.51,0.16,2.17,0.49c0.65,0.32,1.21,0.75,1.67,1.27c0.46,0.52,0.82,1.12,1.08,1.79
					c0.26,0.67,0.39,1.35,0.39,2.04c0,0.73-0.13,1.43-0.4,2.09c-0.27,0.66-0.64,1.25-1.11,1.76c-0.47,0.51-1.04,0.92-1.7,1.22
					C32.19,67.65,31.47,67.81,30.7,67.81z M27.53,62.25c0,0.47,0.07,0.93,0.22,1.37c0.14,0.44,0.35,0.83,0.62,1.17
					c0.27,0.34,0.61,0.61,1,0.82c0.4,0.21,0.85,0.31,1.35,0.31c0.51,0,0.97-0.11,1.36-0.32c0.4-0.21,0.73-0.49,1-0.84
					c0.27-0.35,0.48-0.74,0.62-1.18c0.14-0.44,0.21-0.88,0.21-1.33c0-0.47-0.07-0.93-0.22-1.37c-0.15-0.44-0.36-0.83-0.63-1.17
					c-0.27-0.34-0.61-0.61-1-0.81c-0.4-0.2-0.84-0.3-1.33-0.3c-0.51,0-0.97,0.11-1.37,0.32c-0.4,0.21-0.74,0.49-1,0.83
					c-0.27,0.34-0.47,0.74-0.61,1.17C27.59,61.36,27.53,61.8,27.53,62.25z"/>
				<path class="st4" d="M42.31,65.92c0.5,0,0.93-0.1,1.27-0.31c0.34-0.21,0.62-0.47,0.83-0.8c0.21-0.33,0.36-0.71,0.45-1.13
					c0.09-0.43,0.13-0.87,0.13-1.32v-5.58h2.11v5.58c0,0.75-0.09,1.45-0.27,2.11c-0.18,0.66-0.46,1.23-0.85,1.73
					c-0.39,0.49-0.88,0.88-1.49,1.17c-0.61,0.29-1.33,0.43-2.17,0.43c-0.87,0-1.62-0.15-2.23-0.45c-0.61-0.3-1.11-0.7-1.49-1.2
					c-0.38-0.5-0.66-1.08-0.83-1.73c-0.17-0.66-0.25-1.34-0.25-2.05v-5.58h2.13v5.58c0,0.46,0.04,0.91,0.13,1.33
					c0.09,0.43,0.24,0.8,0.45,1.13c0.21,0.33,0.49,0.59,0.83,0.79S41.82,65.92,42.31,65.92z"/>
				<path class="st4" d="M49.25,67.73V56.78h4.84c0.5,0,0.97,0.11,1.4,0.32c0.43,0.21,0.79,0.49,1.1,0.83
					c0.31,0.34,0.55,0.74,0.72,1.17c0.17,0.44,0.26,0.88,0.26,1.32c0,0.71-0.18,1.35-0.53,1.94c-0.35,0.58-0.84,1-1.44,1.26
					l2.5,4.12h-2.39l-2.24-3.67h-2.1v3.67H49.25z M51.38,62.19h2.67c0.2,0,0.38-0.05,0.55-0.14c0.17-0.09,0.32-0.22,0.44-0.38
					c0.12-0.16,0.22-0.35,0.29-0.56c0.07-0.22,0.11-0.45,0.11-0.69c0-0.26-0.04-0.49-0.12-0.71c-0.08-0.22-0.19-0.4-0.33-0.56
					c-0.14-0.16-0.3-0.28-0.48-0.37c-0.18-0.09-0.36-0.13-0.55-0.13h-2.58V62.19z"/>
			</g>
			<g>
				<path class="st4" d="M67.42,58.65h-3.5v9.08h-2.11v-9.08h-3.5v-1.87h9.11V58.65z"/>
			</g>
		</g>
		<g>
			<path class="st4" d="M28.7,81.77V70.82h1.08v9.99h6.32v0.96H28.7z"/>
			<path class="st4" d="M36.92,81.77V70.82h1.08v10.95H36.92z"/>
			<path class="st4" d="M46.37,72.87c-0.31-0.35-0.72-0.63-1.23-0.85c-0.51-0.22-1.1-0.32-1.76-0.32c-0.97,0-1.67,0.18-2.11,0.55
				c-0.44,0.37-0.66,0.86-0.66,1.49c0,0.33,0.06,0.6,0.18,0.81c0.12,0.21,0.3,0.39,0.55,0.55c0.25,0.15,0.56,0.29,0.95,0.4
				c0.39,0.11,0.84,0.23,1.36,0.34c0.59,0.12,1.11,0.26,1.58,0.42c0.47,0.15,0.87,0.35,1.2,0.58c0.33,0.23,0.58,0.51,0.76,0.84
				c0.17,0.33,0.26,0.74,0.26,1.23c0,0.5-0.1,0.94-0.29,1.31c-0.2,0.37-0.47,0.68-0.82,0.93c-0.35,0.25-0.77,0.43-1.25,0.55
				c-0.48,0.12-1.01,0.18-1.59,0.18c-1.7,0-3.16-0.53-4.4-1.59l0.54-0.88c0.2,0.21,0.43,0.4,0.7,0.59c0.27,0.19,0.58,0.35,0.91,0.49
				c0.33,0.14,0.69,0.25,1.07,0.32c0.38,0.08,0.78,0.12,1.2,0.12c0.87,0,1.55-0.16,2.04-0.47c0.49-0.31,0.73-0.79,0.73-1.43
				c0-0.34-0.07-0.62-0.21-0.86c-0.14-0.23-0.35-0.43-0.62-0.6c-0.28-0.17-0.62-0.32-1.03-0.44c-0.41-0.12-0.89-0.25-1.43-0.37
				c-0.58-0.13-1.08-0.27-1.51-0.42c-0.43-0.14-0.8-0.32-1.09-0.54c-0.3-0.22-0.52-0.48-0.67-0.78c-0.15-0.3-0.22-0.68-0.22-1.12
				c0-0.5,0.09-0.95,0.29-1.35c0.19-0.4,0.46-0.72,0.81-0.99c0.35-0.26,0.76-0.46,1.23-0.6c0.47-0.14,1-0.21,1.57-0.21
				c0.73,0,1.38,0.11,1.95,0.33c0.57,0.22,1.09,0.53,1.55,0.93L46.37,72.87z"/>
			<path class="st4" d="M56.33,71.78h-3.9v9.99h-1.08v-9.99h-3.9v-0.96h8.88V71.78z"/>
			<path class="st4" d="M64.55,80.81v0.96h-7.36V70.82h7.22v0.96h-6.14v3.95h5.35v0.91h-5.35v4.18H64.55z"/>
			<path class="st4" d="M66.89,72.82v8.94h-1.08V70.82h0.83l7.25,9.11v-9.1h1.08v10.93h-0.94L66.89,72.82z"/>
			<path class="st4" d="M84.3,80.81v0.96h-7.36V70.82h7.22v0.96h-6.14v3.95h5.35v0.91h-5.35v4.18H84.3z"/>
			<path class="st4" d="M85.57,81.77V70.82h4.63c0.47,0,0.91,0.1,1.3,0.3c0.4,0.2,0.74,0.46,1.03,0.79c0.29,0.32,0.51,0.69,0.67,1.1
				c0.16,0.41,0.24,0.83,0.24,1.25c0,0.4-0.06,0.78-0.18,1.15c-0.12,0.37-0.28,0.69-0.49,0.99c-0.21,0.29-0.47,0.54-0.76,0.74
				c-0.3,0.2-0.63,0.34-1,0.41l2.68,4.23h-1.22l-2.58-4.04h-3.24v4.04H85.57z M86.65,76.77h3.58c0.32,0,0.61-0.07,0.87-0.21
				c0.26-0.14,0.49-0.33,0.67-0.56c0.19-0.24,0.33-0.5,0.43-0.8c0.1-0.3,0.15-0.61,0.15-0.94c0-0.33-0.06-0.65-0.18-0.95
				c-0.12-0.3-0.28-0.57-0.48-0.79c-0.2-0.23-0.44-0.41-0.71-0.54c-0.27-0.13-0.56-0.2-0.86-0.2h-3.49V76.77z"/>
		</g>
	</g>
	<g>
		<g>
			<path class="st4" d="M32.15,90.24c0,0.17-0.03,0.33-0.1,0.48c-0.07,0.14-0.16,0.27-0.28,0.38c-0.12,0.11-0.25,0.19-0.41,0.25
				c-0.16,0.06-0.32,0.09-0.5,0.09H28.7v-4.59h2.21c0.16,0,0.3,0.03,0.43,0.1c0.13,0.07,0.24,0.16,0.33,0.27
				c0.09,0.11,0.16,0.24,0.21,0.38c0.05,0.14,0.07,0.28,0.07,0.42c0,0.23-0.06,0.45-0.17,0.64c-0.12,0.19-0.28,0.34-0.49,0.43
				c0.26,0.08,0.47,0.22,0.62,0.43C32.07,89.71,32.15,89.96,32.15,90.24z M29.15,87.23v1.69h1.58c0.11,0,0.22-0.02,0.31-0.07
				c0.1-0.05,0.18-0.11,0.25-0.19c0.07-0.08,0.12-0.17,0.16-0.27c0.04-0.1,0.06-0.21,0.06-0.32c0-0.12-0.02-0.23-0.05-0.33
				c-0.04-0.1-0.09-0.19-0.16-0.27c-0.07-0.08-0.15-0.14-0.24-0.18c-0.09-0.05-0.19-0.07-0.3-0.07H29.15z M31.7,90.16
				c0-0.11-0.02-0.22-0.06-0.33c-0.04-0.11-0.09-0.2-0.16-0.28c-0.07-0.08-0.16-0.14-0.25-0.19c-0.1-0.05-0.2-0.07-0.31-0.07h-1.76
				v1.74h1.71c0.12,0,0.23-0.02,0.33-0.07c0.1-0.05,0.19-0.11,0.27-0.19c0.08-0.08,0.13-0.17,0.18-0.28
				C31.67,90.38,31.7,90.27,31.7,90.16z"/>
			<path class="st4" d="M33.29,86.83l1.5,2.47l1.51-2.47h0.49l-1.78,2.88v1.71h-0.45V89.7l-1.77-2.87H33.29z"/>
		</g>
		<g>
			<path class="st4" d="M39.81,91.42v-4.59h3.01v0.4h-2.56v1.69h2.16v0.38h-2.16v2.13H39.81z"/>
			<path class="st4" d="M44.07,91.42v-4.59h1.94c0.2,0,0.38,0.04,0.55,0.13c0.17,0.08,0.31,0.19,0.43,0.33
				c0.12,0.14,0.21,0.29,0.28,0.46c0.07,0.17,0.1,0.35,0.1,0.52c0,0.17-0.02,0.33-0.07,0.48c-0.05,0.15-0.12,0.29-0.21,0.41
				c-0.09,0.12-0.2,0.23-0.32,0.31c-0.13,0.08-0.27,0.14-0.42,0.17l1.13,1.77h-0.51l-1.08-1.69h-1.36v1.69H44.07z M44.53,89.33h1.5
				c0.13,0,0.26-0.03,0.37-0.09c0.11-0.06,0.2-0.14,0.28-0.24c0.08-0.1,0.14-0.21,0.18-0.34c0.04-0.13,0.06-0.26,0.06-0.39
				c0-0.14-0.02-0.27-0.07-0.4c-0.05-0.13-0.12-0.24-0.2-0.33c-0.08-0.09-0.18-0.17-0.3-0.23c-0.11-0.06-0.23-0.08-0.36-0.08h-1.46
				V89.33z"/>
			<path class="st4" d="M51.83,91.02v0.4h-3.08v-4.59h3.03v0.4H49.2v1.66h2.24v0.38H49.2v1.75H51.83z"/>
			<path class="st4" d="M56.23,91.02v0.4h-3.08v-4.59h3.03v0.4h-2.57v1.66h2.24v0.38h-2.24v1.75H56.23z"/>
		</g>
		<g>
			<path class="st4" d="M57.85,91.49c-0.12,0-0.21-0.04-0.3-0.11c-0.08-0.07-0.13-0.18-0.13-0.31c0-0.11,0.04-0.21,0.12-0.29
				c0.08-0.08,0.18-0.12,0.3-0.12c0.12,0,0.22,0.04,0.3,0.12c0.08,0.08,0.12,0.18,0.12,0.29c0,0.13-0.04,0.24-0.12,0.31
				C58.06,91.46,57.97,91.49,57.85,91.49z"/>
		</g>
		<g>
			<path class="st4" d="M59.32,91.42v-4.59h0.45v4.19h2.65v0.4H59.32z"/>
			<path class="st4" d="M64.97,86.83h0.38l1.91,4.59h-0.48l-0.59-1.44h-2.06l-0.59,1.44h-0.49L64.97,86.83z M66.08,89.63l-0.92-2.27
				l-0.94,2.27H66.08z"/>
		</g>
		<g>
			<path class="st4" d="M68.86,86.86h0.43l0.65,1.63l0.65-1.63h0.43l-0.8,1.96l0.88,2.08l1.66-4.07h0.49l-1.95,4.59h-0.4l-0.96-2.27
				l-0.97,2.27h-0.39l-1.94-4.59h0.49l1.67,4.07l0.87-2.08L68.86,86.86z"/>
		</g>
	</g>
</g>
<g id="Layer_4">
	<g>
		<path class="st4" d="M63.28,42.27H51.34v0.99c0.01,1.19,0.73,1.92,1.92,1.92c2.6-0.01,5.2-0.01,7.8-0.02
			c0.24-0.01,0.48-0.01,0.71-0.07C63.21,44.71,63.47,43.52,63.28,42.27z"/>
		<path class="st4" d="M65.84,27.63c-0.43-0.44-0.97-0.66-1.61-0.66c-0.69,0-1.26,0.21-1.69,0.65c-0.21,0.21-0.37,0.45-0.48,0.72
			H47.63v23.43h1.87V30.21h7.25c0,0.84,0,1.67-0.01,2.51c-0.01,0.16-0.03,0.33-0.08,0.48c-0.86,2.43-1.72,4.85-2.57,7.27
			c-0.07,0.21-0.17,0.28-0.38,0.28c-0.75-0.01-1.49,0-2.24,0.01c-0.25,0-0.35,0.1-0.35,0.32c0,0.22,0.11,0.32,0.37,0.32
			c0.71,0,1.42-0.02,2.14-0.02c3.23-0.01,6.45-0.03,9.69-0.04c0.29,0,0.43-0.11,0.43-0.32c-0.01-0.21-0.13-0.31-0.41-0.31
			c-0.62,0-1.23,0-1.84,0.01c-0.18,0.01-0.26-0.05-0.33-0.22c-1.03-2.42-2.05-4.83-3.08-7.25c-0.03-0.07-0.05-0.16-0.05-0.24v-2.78
			h4.02c0.1,0.24,0.24,0.46,0.43,0.67c0.41,0.46,0.98,0.7,1.72,0.7c0.65,0,1.2-0.22,1.63-0.66c0.43-0.44,0.65-0.99,0.65-1.65
			C66.49,28.62,66.27,28.08,65.84,27.63z M60.07,40.7h-4.89c0.73-2.06,1.46-4.13,2.2-6.19h0.06C58.31,36.55,59.18,38.6,60.07,40.7z
			 M64.89,30.06c-0.2,0.22-0.43,0.33-0.69,0.33c-0.28,0-0.51-0.11-0.71-0.33c-0.2-0.22-0.29-0.5-0.29-0.81c0-0.29,0.1-0.54,0.3-0.75
			c0.2-0.21,0.43-0.32,0.7-0.32c0.27,0,0.5,0.12,0.69,0.33c0.2,0.22,0.29,0.48,0.29,0.78C65.18,29.59,65.09,29.84,64.89,30.06z"/>
		<path class="st4" d="M26.74,47.43H14.8c0,0.36-0.01,0.67,0,0.98c0,1.19,0.73,1.92,1.91,1.92c2.6-0.01,5.2-0.01,7.8-0.02
			c0.24,0,0.48-0.01,0.71-0.07C26.66,49.86,26.93,48.67,26.74,47.43z"/>
		<path class="st4" d="M15.66,33.53c-0.11-0.31-0.28-0.58-0.52-0.82c-0.44-0.44-0.97-0.66-1.61-0.66c-0.69,0-1.25,0.21-1.69,0.65
			c-0.44,0.43-0.66,0.99-0.66,1.67c0,0.6,0.2,1.13,0.61,1.6c0.41,0.46,0.98,0.7,1.72,0.7c0.65,0,1.19-0.22,1.63-0.66
			c0.18-0.18,0.32-0.38,0.43-0.6h4.64c0,0.82,0,1.64-0.01,2.46c0,0.16-0.03,0.33-0.08,0.48c-0.85,2.43-1.72,4.84-2.57,7.27
			c-0.07,0.21-0.16,0.28-0.38,0.28c-0.74-0.01-1.49,0-2.24,0.01c-0.24,0-0.35,0.1-0.35,0.32c0.01,0.22,0.12,0.32,0.38,0.32
			c0.71-0.01,1.42-0.02,2.13-0.02c3.23-0.02,6.46-0.03,9.69-0.04c0.3-0.01,0.43-0.11,0.43-0.33c0-0.21-0.12-0.3-0.41-0.3
			c-0.61,0-1.23-0.01-1.84,0.01c-0.17,0-0.26-0.05-0.33-0.22c-1.02-2.42-2.05-4.83-3.08-7.25c-0.03-0.07-0.05-0.16-0.05-0.24
			c0-0.9,0-1.82,0.01-2.73h7.24v16.37l1.87,0V33.53H15.66z M14.19,35.13c-0.2,0.22-0.43,0.33-0.69,0.33c-0.28,0-0.51-0.11-0.71-0.33
			c-0.2-0.22-0.29-0.5-0.29-0.81c0-0.29,0.1-0.54,0.3-0.75c0.2-0.21,0.43-0.32,0.7-0.32c0.27,0,0.49,0.12,0.69,0.33
			c0.2,0.22,0.29,0.48,0.29,0.78C14.48,34.66,14.38,34.92,14.19,35.13z M23.53,45.84h-4.89c0.73-2.06,1.46-4.13,2.2-6.19
			c0.02,0,0.04,0,0.06-0.01C21.77,41.69,22.64,43.75,23.53,45.84z"/>
		<path class="st4" d="M36.05,14.31c-0.43-0.44-0.97-0.66-1.61-0.66c-0.69,0-1.25,0.21-1.69,0.65c-0.44,0.43-0.66,0.99-0.66,1.67
			c0,0.6,0.21,1.13,0.62,1.6c0.21,0.24,0.46,0.41,0.75,0.52v33.68h1.87V18.09c0.27-0.11,0.5-0.27,0.71-0.49
			c0.44-0.44,0.65-0.99,0.65-1.65C36.7,15.3,36.49,14.75,36.05,14.31z"/>
		<path class="st4" d="M41.43,9.97c0-0.65-0.22-1.2-0.65-1.64c-0.44-0.44-0.97-0.66-1.61-0.66c-0.69,0-1.25,0.22-1.69,0.65
			c-0.44,0.43-0.66,0.99-0.66,1.67c0,0.61,0.2,1.14,0.61,1.6c0.22,0.25,0.49,0.43,0.81,0.55h-0.05v39.64h1.87V12.13H40
			c0.29-0.1,0.55-0.28,0.78-0.51C41.21,11.19,41.43,10.63,41.43,9.97z M39.83,10.76c-0.2,0.22-0.43,0.32-0.69,0.32
			c-0.28,0-0.51-0.11-0.71-0.33c-0.2-0.22-0.29-0.49-0.29-0.81c0-0.29,0.1-0.54,0.29-0.75c0.2-0.21,0.43-0.31,0.71-0.31
			c0.26,0,0.49,0.11,0.69,0.33c0.2,0.22,0.29,0.48,0.29,0.78C40.12,10.29,40.03,10.54,39.83,10.76z"/>
		<path class="st4" d="M45.53,19.69c-0.43-0.44-0.97-0.66-1.61-0.66c-0.69,0-1.25,0.22-1.69,0.65c-0.44,0.43-0.66,0.99-0.66,1.67
			c0,0.6,0.2,1.13,0.61,1.6c0.21,0.24,0.46,0.41,0.75,0.52v28.3h1.87v-28.3c0.27-0.11,0.51-0.28,0.72-0.49
			c0.43-0.44,0.65-0.99,0.65-1.65C46.19,20.68,45.97,20.13,45.53,19.69z M44.58,22.12c-0.2,0.22-0.43,0.33-0.69,0.33
			c-0.28,0-0.51-0.12-0.71-0.33c-0.2-0.22-0.29-0.5-0.29-0.81c0-0.29,0.1-0.54,0.3-0.75c0.2-0.21,0.43-0.32,0.7-0.32
			c0.27,0,0.5,0.11,0.69,0.33c0.2,0.22,0.29,0.48,0.29,0.78C44.88,21.65,44.78,21.9,44.58,22.12z"/>
	</g>
</g>
</svg>
