<?xml version="1.0" encoding="UTF-8" standalone="no"?>
<svg
   version="1.1"
   viewBox="0 0 635.32001 286.82123"
   id="svg2092"
   width="635.32001"
   height="286.82123"
   xmlns="http://www.w3.org/2000/svg"
   xmlns:svg="http://www.w3.org/2000/svg">
  <defs
     id="defs2002">
    <style
       id="style2000">
      .cls-1 {
        fill: #968f7f;
      }

      .cls-1, .cls-2, .cls-3 {
        stroke-width: 0px;
      }

      .cls-2 {
        fill: #b53c2c;
      }

      .cls-3 {
        fill: #848582;
      }
    </style>
  </defs>
  <g
     id="Layer_2"
     data-name="Layer 2"
     transform="translate(-12.33,-6.5887733)">
    <g
       id="g2014">
      <rect
         class="cls-3"
         x="157.03"
         y="266.64999"
         width="7.4400001"
         height="26.76"
         id="rect2004" />
      <rect
         class="cls-3"
         x="81.400002"
         y="266.64999"
         width="7.4400001"
         height="26.76"
         id="rect2006" />
      <rect
         class="cls-3"
         x="100.31"
         y="266.64999"
         width="7.4400001"
         height="26.76"
         id="rect2008" />
      <rect
         class="cls-2"
         x="119.21"
         y="266.64999"
         width="7.4400001"
         height="26.76"
         id="rect2010" />
      <rect
         class="cls-3"
         x="138.12"
         y="266.64999"
         width="7.4400001"
         height="26.76"
         id="rect2012" />
    </g>
    <g
       id="g2046">
      <g
         id="g2024">
        <path
           class="cls-2"
           d="m 75.68,223.52 c 0,-3.14 0.57,-6.24 1.7,-9.31 1.13,-3.07 2.79,-5.81 4.96,-8.23 2.17,-2.42 4.83,-4.37 7.97,-5.87 3.14,-1.5 6.72,-2.25 10.73,-2.25 4.73,0 8.83,1.04 12.28,3.12 3.45,2.08 6.03,4.78 7.72,8.12 l -7.68,5.29 c -0.68,-1.45 -1.5,-2.67 -2.46,-3.66 -0.97,-0.99 -2.01,-1.78 -3.12,-2.36 -1.11,-0.58 -2.27,-1 -3.48,-1.27 -1.21,-0.27 -2.39,-0.4 -3.55,-0.4 -2.51,0 -4.7,0.51 -6.56,1.52 -1.86,1.02 -3.41,2.33 -4.64,3.95 -1.23,1.62 -2.16,3.46 -2.79,5.51 -0.63,2.05 -0.94,4.1 -0.94,6.12 0,2.27 0.36,4.46 1.09,6.56 0.72,2.1 1.75,3.95 3.08,5.54 1.33,1.59 2.92,2.88 4.78,3.84 1.86,0.97 3.9,1.45 6.12,1.45 1.16,0 2.37,-0.15 3.62,-0.43 1.26,-0.29 2.45,-0.75 3.59,-1.38 1.13,-0.63 2.19,-1.44 3.15,-2.43 0.97,-0.99 1.74,-2.19 2.32,-3.59 l 8.19,4.71 c -0.82,1.93 -1.99,3.64 -3.52,5.11 -1.52,1.47 -3.24,2.72 -5.15,3.73 -1.91,1.01 -3.95,1.79 -6.12,2.32 -2.17,0.53 -4.3,0.8 -6.38,0.8 -3.67,0 -7.03,-0.77 -10.07,-2.32 -3.04,-1.55 -5.67,-3.56 -7.86,-6.05 -2.2,-2.49 -3.91,-5.31 -5.15,-8.48 -1.23,-3.16 -1.85,-6.39 -1.85,-9.68 z"
           id="path2016" />
        <path
           class="cls-2"
           d="m 150.48,249.97 c -3.77,0 -7.19,-0.74 -10.26,-2.21 -3.07,-1.47 -5.7,-3.43 -7.9,-5.87 -2.2,-2.44 -3.9,-5.23 -5.11,-8.37 -1.21,-3.14 -1.81,-6.35 -1.81,-9.64 0,-3.29 0.64,-6.72 1.92,-9.86 1.28,-3.14 3.04,-5.92 5.29,-8.33 2.25,-2.42 4.92,-4.34 8.01,-5.76 3.09,-1.42 6.45,-2.14 10.07,-2.14 3.62,0 7.11,0.76 10.18,2.28 3.07,1.52 5.69,3.52 7.86,5.98 2.17,2.46 3.87,5.27 5.07,8.41 1.21,3.14 1.81,6.33 1.81,9.57 0,3.43 -0.63,6.7 -1.88,9.82 -1.26,3.12 -3,5.87 -5.22,8.26 -2.22,2.39 -4.88,4.3 -7.97,5.73 -3.09,1.43 -6.45,2.14 -10.07,2.14 z m -14.93,-26.09 c 0,2.22 0.34,4.37 1.01,6.45 0.68,2.08 1.65,3.91 2.94,5.51 1.28,1.59 2.85,2.88 4.71,3.84 1.86,0.97 3.97,1.45 6.34,1.45 2.37,0 4.55,-0.49 6.41,-1.49 1.86,-0.99 3.43,-2.31 4.71,-3.95 1.28,-1.64 2.25,-3.49 2.9,-5.54 0.65,-2.05 0.98,-4.14 0.98,-6.27 0,-2.13 -0.35,-4.37 -1.05,-6.45 -0.7,-2.08 -1.69,-3.91 -2.97,-5.51 -1.28,-1.59 -2.85,-2.86 -4.71,-3.8 -1.86,-0.94 -3.95,-1.41 -6.27,-1.41 -2.32,0 -4.57,0.5 -6.45,1.49 -1.88,0.99 -3.46,2.3 -4.71,3.91 -1.26,1.62 -2.21,3.46 -2.86,5.51 -0.65,2.05 -0.98,4.14 -0.98,6.27 z"
           id="path2018" />
        <path
           class="cls-2"
           d="m 205.05,241.13 c 2.37,0 4.36,-0.48 5.98,-1.45 1.62,-0.97 2.92,-2.22 3.91,-3.77 0.99,-1.55 1.69,-3.32 2.1,-5.33 0.41,-2 0.62,-4.07 0.62,-6.2 v -26.24 h 9.93 v 26.24 c 0,3.53 -0.42,6.84 -1.27,9.93 -0.85,3.09 -2.17,5.8 -3.99,8.12 -1.82,2.32 -4.14,4.16 -6.99,5.51 -2.85,1.35 -6.26,2.03 -10.22,2.03 -3.96,0 -7.6,-0.71 -10.47,-2.14 -2.88,-1.42 -5.21,-3.31 -6.99,-5.65 -1.79,-2.34 -3.08,-5.06 -3.88,-8.15 -0.8,-3.09 -1.2,-6.31 -1.2,-9.64 v -26.24 h 10 v 26.24 c 0,2.17 0.21,4.26 0.62,6.27 0.41,2.01 1.11,3.78 2.1,5.33 0.99,1.55 2.28,2.79 3.88,3.73 1.6,0.94 3.55,1.41 5.87,1.41 z"
           id="path2020" />
        <path
           class="cls-2"
           d="m 237.67,249.61 v -51.46 h 22.76 c 2.37,0 4.55,0.5 6.56,1.49 2,0.99 3.73,2.3 5.18,3.91 1.45,1.62 2.58,3.46 3.41,5.51 0.82,2.05 1.23,4.12 1.23,6.2 0,3.33 -0.83,6.37 -2.5,9.1 -1.67,2.73 -3.93,4.7 -6.78,5.91 l 11.74,19.35 h -11.23 l -10.51,-17.25 h -9.86 v 17.25 h -10 z m 10,-26.02 h 12.54 c 0.92,0 1.78,-0.22 2.57,-0.65 0.8,-0.43 1.49,-1.03 2.07,-1.78 0.58,-0.75 1.04,-1.63 1.38,-2.65 0.34,-1.01 0.51,-2.1 0.51,-3.26 0,-1.16 -0.19,-2.32 -0.58,-3.33 -0.39,-1.01 -0.91,-1.9 -1.56,-2.65 -0.65,-0.75 -1.4,-1.33 -2.25,-1.74 -0.85,-0.41 -1.7,-0.62 -2.57,-0.62 h -12.1 v 16.67 z"
           id="path2022" />
      </g>
      <path
         class="cls-2"
         d="m 323.04,206.92 h -16.45 v 42.69 h -9.93 v -42.69 h -16.45 v -8.77 h 42.83 z"
         id="path2026" />
      <g
         id="g2044">
        <path
           class="cls-2"
           d="m 342.25,249.61 v -51.46 h 5.07 v 46.96 h 29.72 v 4.49 h -34.79 z"
           id="path2028" />
        <path
           class="cls-2"
           d="m 380.88,249.61 v -51.46 h 5.07 v 51.46 z"
           id="path2030" />
        <path
           class="cls-2"
           d="m 425.31,207.79 c -1.45,-1.64 -3.38,-2.97 -5.8,-3.99 -2.42,-1.01 -5.17,-1.52 -8.26,-1.52 -4.54,0 -7.85,0.86 -9.93,2.57 -2.08,1.72 -3.12,4.05 -3.12,6.99 0,1.55 0.28,2.82 0.83,3.81 0.55,0.99 1.41,1.85 2.57,2.57 1.16,0.73 2.65,1.35 4.46,1.88 1.81,0.53 3.95,1.06 6.41,1.59 2.75,0.58 5.23,1.23 7.43,1.96 2.2,0.72 4.07,1.63 5.62,2.72 1.55,1.09 2.73,2.4 3.55,3.95 0.82,1.55 1.23,3.48 1.23,5.8 0,2.32 -0.46,4.42 -1.38,6.16 -0.92,1.74 -2.2,3.19 -3.84,4.35 -1.64,1.16 -3.6,2.02 -5.87,2.57 -2.27,0.55 -4.76,0.83 -7.46,0.83 -7.97,0 -14.86,-2.49 -20.66,-7.46 l 2.54,-4.13 c 0.92,0.97 2.02,1.88 3.3,2.75 1.28,0.87 2.71,1.63 4.28,2.28 1.57,0.65 3.25,1.16 5.04,1.52 1.79,0.36 3.67,0.54 5.65,0.54 4.11,0 7.31,-0.74 9.6,-2.21 2.29,-1.47 3.44,-3.71 3.44,-6.7 0,-1.59 -0.33,-2.94 -0.98,-4.02 -0.65,-1.09 -1.63,-2.03 -2.94,-2.83 -1.3,-0.8 -2.92,-1.49 -4.86,-2.07 -1.93,-0.58 -4.18,-1.16 -6.74,-1.74 -2.71,-0.63 -5.07,-1.28 -7.1,-1.96 -2.03,-0.68 -3.74,-1.52 -5.15,-2.54 -1.4,-1.01 -2.45,-2.23 -3.15,-3.66 -0.7,-1.42 -1.05,-3.18 -1.05,-5.25 0,-2.37 0.45,-4.48 1.34,-6.34 0.89,-1.86 2.16,-3.41 3.81,-4.64 1.64,-1.23 3.58,-2.17 5.8,-2.83 2.22,-0.65 4.69,-0.98 7.39,-0.98 3.43,0 6.49,0.52 9.17,1.56 2.68,1.04 5.11,2.5 7.28,4.38 l -2.46,4.06 z"
           id="path2032" />
        <path
           class="cls-2"
           d="m 472.13,202.65 h -18.34 v 46.97 h -5.07 v -46.97 h -18.34 v -4.49 h 41.75 z"
           id="path2034" />
        <path
           class="cls-2"
           d="m 510.75,245.12 v 4.49 h -34.57 v -51.46 h 33.92 v 4.49 h -28.85 v 18.55 h 25.15 v 4.28 h -25.15 v 19.64 h 29.5 z"
           id="path2036" />
        <path
           class="cls-2"
           d="m 521.77,207.57 v 42.04 h -5.07 v -51.46 h 3.91 l 34.06,42.83 v -42.76 h 5.07 v 51.39 h -4.42 l -33.56,-42.04 z"
           id="path2038" />
        <path
           class="cls-2"
           d="m 603.6,245.12 v 4.49 h -34.57 v -51.46 h 33.92 v 4.49 H 574.1 v 18.55 h 25.15 v 4.28 H 574.1 v 19.64 h 29.5 z"
           id="path2040" />
        <path
           class="cls-2"
           d="m 609.54,249.61 v -51.46 h 21.74 c 2.22,0 4.26,0.47 6.12,1.41 1.86,0.94 3.47,2.17 4.82,3.7 1.35,1.52 2.4,3.25 3.15,5.18 0.75,1.93 1.12,3.89 1.12,5.87 0,1.98 -0.28,3.68 -0.83,5.4 -0.56,1.72 -1.33,3.26 -2.32,4.64 -0.99,1.38 -2.19,2.54 -3.59,3.48 -1.4,0.94 -2.97,1.58 -4.71,1.92 l 12.61,19.86 h -5.73 l -12.1,-18.99 H 614.6 v 18.99 h -5.07 z m 5.07,-23.48 h 16.81 c 1.5,0 2.86,-0.33 4.1,-0.98 1.23,-0.65 2.28,-1.53 3.15,-2.65 0.87,-1.11 1.55,-2.37 2.03,-3.77 0.48,-1.4 0.73,-2.87 0.73,-4.42 0,-1.55 -0.28,-3.03 -0.83,-4.46 -0.56,-1.42 -1.3,-2.67 -2.25,-3.73 -0.94,-1.06 -2.05,-1.91 -3.33,-2.54 -1.28,-0.63 -2.62,-0.94 -4.02,-0.94 h -16.38 v 23.48 z"
           id="path2042" />
      </g>
    </g>
    <g
       id="g2052">
      <path
         class="cls-1"
         d="m 205.66,285.69 c 0,1.01 -0.2,1.94 -0.61,2.79 -0.41,0.85 -0.95,1.58 -1.63,2.2 -0.68,0.62 -1.48,1.1 -2.39,1.44 -0.91,0.34 -1.89,0.51 -2.93,0.51 h -12.73 v -26.99 h 13 c 0.94,0 1.79,0.2 2.55,0.61 0.76,0.41 1.41,0.93 1.94,1.58 0.53,0.65 0.94,1.38 1.24,2.2 0.29,0.82 0.44,1.65 0.44,2.49 0,1.37 -0.34,2.62 -1.03,3.74 -0.68,1.13 -1.63,1.97 -2.85,2.53 1.55,0.46 2.77,1.31 3.67,2.55 0.9,1.24 1.35,2.69 1.35,4.33 z m -17.63,-17.71 v 9.96 h 9.27 c 0.66,0 1.27,-0.14 1.84,-0.42 0.57,-0.28 1.06,-0.65 1.46,-1.1 0.41,-0.46 0.72,-0.98 0.95,-1.58 0.23,-0.6 0.34,-1.22 0.34,-1.88 0,-0.66 -0.11,-1.33 -0.32,-1.94 -0.22,-0.61 -0.52,-1.13 -0.91,-1.58 -0.39,-0.44 -0.86,-0.8 -1.39,-1.06 -0.53,-0.27 -1.12,-0.4 -1.75,-0.4 h -9.5 z M 203,285.24 c 0,-0.66 -0.11,-1.3 -0.34,-1.92 -0.23,-0.62 -0.55,-1.16 -0.97,-1.63 -0.42,-0.47 -0.91,-0.85 -1.48,-1.14 -0.57,-0.29 -1.18,-0.44 -1.84,-0.44 h -10.34 v 10.22 h 10.07 c 0.68,0 1.32,-0.14 1.92,-0.42 0.59,-0.28 1.11,-0.65 1.56,-1.12 0.44,-0.47 0.79,-1.01 1.05,-1.63 0.25,-0.62 0.38,-1.26 0.38,-1.92 z"
         id="path2048" />
      <path
         class="cls-1"
         d="m 212.39,265.66 8.82,14.52 8.89,-14.52 h 2.89 l -10.45,16.95 v 10.03 h -2.66 v -10.11 l -10.41,-16.88 h 2.93 z"
         id="path2050" />
    </g>
    <g
       id="g2062">
      <path
         class="cls-1"
         d="m 250.7,292.65 v -26.99 h 17.71 v 2.36 h -15.05 v 9.92 h 12.69 v 2.2 h -12.69 v 12.5 h -2.66 z"
         id="path2054" />
      <path
         class="cls-1"
         d="m 275.74,292.65 v -26.99 h 11.4 c 1.17,0 2.24,0.25 3.21,0.74 0.97,0.49 1.82,1.14 2.53,1.94 0.71,0.8 1.26,1.7 1.65,2.72 0.39,1.01 0.59,2.04 0.59,3.08 0,1.04 -0.15,1.93 -0.44,2.83 -0.29,0.9 -0.7,1.71 -1.22,2.43 -0.52,0.72 -1.15,1.33 -1.88,1.82 -0.74,0.49 -1.56,0.83 -2.47,1.01 l 6.61,10.41 h -3 l -6.35,-9.96 h -7.98 v 9.96 h -2.66 z m 2.67,-12.32 h 8.82 c 0.79,0 1.5,-0.17 2.15,-0.51 0.65,-0.34 1.2,-0.8 1.65,-1.39 0.46,-0.58 0.81,-1.24 1.06,-1.98 0.25,-0.73 0.38,-1.51 0.38,-2.32 0,-0.81 -0.15,-1.59 -0.44,-2.34 -0.29,-0.75 -0.68,-1.4 -1.18,-1.96 -0.49,-0.56 -1.08,-1 -1.75,-1.33 -0.67,-0.33 -1.37,-0.49 -2.11,-0.49 h -8.59 v 12.31 z"
         id="path2056" />
      <path
         class="cls-1"
         d="m 321.36,290.29 v 2.36 h -18.13 v -26.99 h 17.79 v 2.36 h -15.13 v 9.73 h 13.19 v 2.24 h -13.19 v 10.3 z"
         id="path2058" />
      <path
         class="cls-1"
         d="m 347.16,290.29 v 2.36 h -18.13 v -26.99 h 17.79 v 2.36 h -15.13 v 9.73 h 13.19 v 2.24 h -13.19 v 10.3 z"
         id="path2060" />
    </g>
    <path
       class="cls-1"
       d="m 356.74,293.06 c -0.68,0 -1.26,-0.22 -1.75,-0.66 -0.49,-0.44 -0.74,-1.05 -0.74,-1.84 0,-0.67 0.24,-1.24 0.7,-1.72 0.47,-0.48 1.05,-0.72 1.74,-0.72 0.69,0 1.28,0.24 1.76,0.71 0.49,0.48 0.73,1.05 0.73,1.73 0,0.78 -0.24,1.39 -0.73,1.83 -0.49,0.44 -1.06,0.66 -1.71,0.66 z"
       id="path2064" />
    <g
       id="g2070">
      <path
         class="cls-1"
         d="m 365.35,292.65 v -26.99 h 2.66 v 24.63 h 15.58 v 2.36 z"
         id="path2066" />
      <path
         class="cls-1"
         d="m 398.53,265.66 h 2.24 l 11.21,26.99 h -2.81 l -3.5,-8.44 h -12.13 l -3.46,8.44 h -2.85 l 11.29,-26.99 z m 6.54,16.46 -5.44,-13.34 -5.51,13.34 z"
         id="path2068" />
    </g>
    <path
       class="cls-1"
       d="m 421.41,265.85 h 2.51 l 3.8,9.58 3.84,-9.58 h 2.55 l -4.71,11.52 5.17,12.2 9.77,-23.91 h 2.89 l -11.44,26.99 h -2.36 l -5.66,-13.34 -5.7,13.34 h -2.32 l -11.4,-26.99 h 2.85 l 9.81,23.91 5.13,-12.2 -4.71,-11.52 z"
       id="path2072" />
    <path
       class="cls-2"
       d="m 120.98,6.85 c -3.36,0.78 -6.07,3.5 -6.83,6.86 -1.03,4.57 1.38,8.74 5.17,10.47 v 157.28 h 7.7 V 24.18 c 3.2,-1.44 5.43,-4.64 5.43,-8.37 0,-5.79 -5.4,-10.36 -11.47,-8.97 z"
       id="path2074" />
  </g>
  <g
     id="Layer_3"
     data-name="Layer 3"
     transform="translate(-12.33,-6.5887733)">
    <g
       id="g2089">
      <path
         class="cls-3"
         d="m 221.13,145.28 h -47.85 v 3.95 c 0.02,4.78 2.93,7.71 7.69,7.71 10.42,-0.02 20.83,-0.05 31.27,-0.07 0.95,-0.02 1.94,-0.05 2.86,-0.3 5.75,-1.52 6.81,-6.28 6.03,-11.29 z"
         id="path2077" />
      <path
         class="cls-3"
         d="m 231.41,86.59 c -1.73,-1.76 -3.88,-2.63 -6.44,-2.63 -2.77,0 -5.03,0.85 -6.79,2.59 -0.85,0.83 -1.5,1.8 -1.92,2.89 h -57.83 v 92.79 h 7.51 c 0,0 0,-85.29 0,-85.29 h 29.05 c 0,3.35 0,6.7 -0.05,10.05 -0.02,0.65 -0.12,1.34 -0.32,1.94 -3.44,9.72 -6.91,19.42 -10.3,29.12 -0.3,0.85 -0.67,1.13 -1.52,1.11 -3,-0.05 -5.98,0 -8.96,0.02 -0.99,0 -1.39,0.39 -1.39,1.27 0,0.88 0.44,1.29 1.5,1.27 2.86,0 5.7,-0.07 8.57,-0.09 12.93,-0.05 25.87,-0.12 38.82,-0.16 1.18,0 1.73,-0.44 1.71,-1.29 -0.02,-0.85 -0.51,-1.22 -1.66,-1.22 -2.47,0 -4.92,0 -7.37,0.05 -0.72,0.02 -1.04,-0.21 -1.32,-0.88 -4.11,-9.7 -8.22,-19.38 -12.33,-29.08 -0.14,-0.3 -0.21,-0.62 -0.21,-0.95 V 96.95 h 16.12 c 0.39,0.95 0.97,1.85 1.71,2.7 1.64,1.85 3.93,2.79 6.88,2.79 2.61,0 4.8,-0.88 6.54,-2.66 1.73,-1.76 2.61,-3.95 2.61,-6.63 0,-2.68 -0.88,-4.78 -2.61,-6.56 z m -23.14,52.36 h -19.61 c 2.93,-8.27 5.87,-16.56 8.8,-24.83 h 0.25 c 3.51,8.22 7,16.44 10.55,24.83 z M 227.6,96.32 c -0.79,0.88 -1.71,1.32 -2.77,1.32 -1.06,0 -2.06,-0.44 -2.84,-1.34 -0.79,-0.9 -1.18,-1.99 -1.18,-3.26 0,-1.18 0.42,-2.17 1.2,-3 0.79,-0.85 1.73,-1.27 2.82,-1.27 1.09,0 1.99,0.46 2.77,1.34 0.79,0.9 1.18,1.94 1.18,3.14 0,1.2 -0.39,2.19 -1.18,3.07 z"
         id="path2079" />
      <path
         class="cls-3"
         d="M 74.69,165.92 H 26.84 c 0,1.43 -0.02,2.68 0,3.93 0,4.78 2.93,7.71 7.67,7.71 10.42,-0.02 20.85,-0.05 31.27,-0.07 0.95,0 1.94,-0.05 2.86,-0.3 5.75,-1.52 6.81,-6.28 6.05,-11.27 z"
         id="path2081" />
      <path
         class="cls-3"
         d="m 30.28,110.24 c -0.44,-1.22 -1.13,-2.33 -2.08,-3.3 -1.76,-1.76 -3.9,-2.63 -6.47,-2.63 -2.75,0 -5.01,0.85 -6.77,2.59 -1.76,1.74 -2.63,3.97 -2.63,6.7 0,2.4 0.81,4.53 2.45,6.4 1.64,1.85 3.93,2.79 6.88,2.79 2.61,0 4.78,-0.88 6.54,-2.63 0.72,-0.74 1.27,-1.52 1.71,-2.4 h 18.61 c 0,3.28 0,6.58 -0.05,9.86 0,0.65 -0.12,1.34 -0.32,1.94 -3.42,9.72 -6.88,19.4 -10.3,29.12 -0.3,0.85 -0.65,1.11 -1.52,1.11 -2.98,-0.05 -5.98,0 -8.96,0.02 -0.97,0 -1.39,0.39 -1.39,1.27 0.02,0.88 0.46,1.27 1.52,1.27 2.84,-0.02 5.7,-0.07 8.54,-0.09 12.93,-0.07 25.89,-0.12 38.82,-0.16 1.2,-0.02 1.73,-0.44 1.71,-1.32 0,-0.83 -0.49,-1.2 -1.66,-1.2 -2.45,0 -4.92,-0.02 -7.37,0.05 -0.69,0 -1.04,-0.21 -1.32,-0.88 -4.09,-9.7 -8.22,-19.38 -12.33,-29.08 -0.12,-0.3 -0.21,-0.65 -0.21,-0.97 0,-3.63 0,-7.3 0.02,-10.95 h 29.01 v 64.48 h 7.51 c 0,0 0,-71.98 0,-71.98 H 30.28 Z m -5.89,6.42 c -0.81,0.88 -1.71,1.32 -2.77,1.32 -1.06,0 -2.06,-0.44 -2.84,-1.34 -0.79,-0.9 -1.18,-1.99 -1.18,-3.26 0,-1.15 0.39,-2.17 1.2,-3 0.79,-0.83 1.73,-1.27 2.82,-1.27 1.09,0 1.96,0.46 2.77,1.34 0.79,0.9 1.18,1.94 1.18,3.14 0,1.2 -0.39,2.22 -1.18,3.07 z m 37.44,42.91 H 42.22 c 2.93,-8.27 5.87,-16.56 8.8,-24.83 0.07,0 0.16,0 0.25,-0.02 3.49,8.22 6.97,16.47 10.55,24.85 z"
         id="path2083" />
      <path
         class="cls-3"
         d="m 112.01,33.2 c -1.73,-1.76 -3.88,-2.63 -6.44,-2.63 -2.75,0 -5.01,0.85 -6.77,2.59 -1.78,1.73 -2.66,3.97 -2.66,6.7 0,2.4 0.83,4.53 2.47,6.4 0.83,0.95 1.85,1.66 3.03,2.1 v 133.88 h 7.51 V 48.35 c 1.06,-0.44 2.01,-1.09 2.86,-1.96 1.76,-1.76 2.61,-3.95 2.61,-6.63 0,-2.68 -0.85,-4.78 -2.61,-6.56 z m -3.81,9.72 c -0.79,0.88 -1.71,1.32 -2.75,1.32 -1.11,0 -2.06,-0.44 -2.84,-1.34 -0.79,-0.9 -1.18,-1.99 -1.18,-3.26 0,-1.18 0.39,-2.17 1.18,-3 0.79,-0.85 1.73,-1.27 2.84,-1.27 1.04,0 1.96,0.46 2.75,1.34 0.81,0.9 1.2,1.94 1.2,3.14 0,1.2 -0.39,2.19 -1.2,3.07 z"
         id="path2085" />
      <path
         class="cls-3"
         d="m 150.03,54.77 c -1.73,-1.76 -3.9,-2.66 -6.47,-2.66 -2.75,0 -5.01,0.88 -6.77,2.61 -1.76,1.73 -2.63,3.95 -2.63,6.7 0,2.4 0.81,4.53 2.45,6.4 0.83,0.95 1.85,1.64 3.03,2.1 v 112.31 h 7.51 V 69.92 c 1.06,-0.44 2.03,-1.11 2.89,-1.96 1.73,-1.76 2.61,-3.97 2.61,-6.63 0,-2.66 -0.88,-4.8 -2.61,-6.56 z m -3.81,9.72 c -0.79,0.88 -1.71,1.32 -2.77,1.32 -1.06,0 -2.06,-0.46 -2.84,-1.34 -0.79,-0.9 -1.18,-1.99 -1.18,-3.26 0,-1.18 0.39,-2.17 1.2,-3 0.79,-0.85 1.73,-1.27 2.82,-1.27 1.09,0 1.99,0.44 2.77,1.34 0.79,0.9 1.18,1.94 1.18,3.14 0,1.2 -0.39,2.19 -1.18,3.07 z"
         id="path2087" />
    </g>
  </g>
</svg>
