<?xml version="1.0" encoding="UTF-8"?>
<svg id="Layer_1" data-name="Layer 1" xmlns="http://www.w3.org/2000/svg" viewBox="0 0 1007.35 452.75">
  <defs>
    <style>
      .cls-1, .cls-2, .cls-3 {
        fill: #000;
      }

      .cls-1, .cls-3 {
        stroke: #000;
        stroke-miterlimit: 10;
      }

      .cls-2 {
        stroke-width: 0px;
      }

      .cls-3 {
        stroke-width: 7px;
      }
    </style>
  </defs>
  <g>
    <g>
      <path class="cls-2" d="M104.43,342.43c0-4.96.9-9.86,2.69-14.7,1.79-4.84,4.4-9.17,7.84-12.99,3.43-3.81,7.63-6.9,12.58-9.27,4.96-2.36,10.6-3.55,16.93-3.55,7.47,0,13.94,1.64,19.39,4.92,5.45,3.28,9.51,7.55,12.18,12.81l-12.13,8.35c-1.07-2.29-2.37-4.21-3.89-5.78-1.53-1.56-3.17-2.8-4.92-3.72-1.76-.92-3.59-1.58-5.49-2-1.91-.42-3.78-.63-5.61-.63-3.97,0-7.42.8-10.35,2.4-2.94,1.6-5.38,3.68-7.32,6.24-1.95,2.56-3.41,5.46-4.4,8.7-.99,3.24-1.49,6.46-1.49,9.67,0,3.59.57,7.04,1.72,10.35,1.14,3.32,2.76,6.24,4.86,8.75,2.1,2.52,4.61,4.54,7.55,6.06,2.94,1.53,6.16,2.29,9.67,2.29,1.83,0,3.74-.23,5.72-.69,1.98-.46,3.87-1.18,5.66-2.17,1.79-.99,3.45-2.27,4.98-3.83,1.52-1.56,2.75-3.45,3.66-5.66l12.93,7.44c-1.3,3.05-3.15,5.74-5.55,8.07-2.4,2.33-5.11,4.29-8.12,5.89-3.01,1.6-6.24,2.82-9.67,3.66-3.43.84-6.79,1.26-10.07,1.26-5.8,0-11.1-1.22-15.9-3.66-4.81-2.44-8.94-5.62-12.41-9.55-3.47-3.93-6.18-8.39-8.12-13.39-1.95-5-2.92-10.09-2.92-15.27Z"/>
      <path class="cls-2" d="M222.5,384.19c-5.95,0-11.35-1.16-16.19-3.49-4.84-2.33-9-5.41-12.47-9.27-3.47-3.85-6.16-8.26-8.07-13.21-1.91-4.96-2.86-10.03-2.86-15.22s1.01-10.6,3.03-15.56c2.02-4.96,4.81-9.34,8.35-13.16,3.55-3.81,7.76-6.84,12.64-9.1,4.88-2.25,10.18-3.38,15.9-3.38s11.23,1.2,16.07,3.6c4.84,2.4,8.98,5.55,12.41,9.44,3.43,3.89,6.1,8.31,8.01,13.27,1.91,4.96,2.86,9.99,2.86,15.1,0,5.42-.99,10.58-2.97,15.5-1.98,4.92-4.73,9.27-8.24,13.04-3.51,3.78-7.7,6.79-12.58,9.04-4.88,2.25-10.18,3.38-15.9,3.38ZM198.93,343.01c0,3.51.53,6.9,1.6,10.18,1.07,3.28,2.61,6.18,4.63,8.7,2.02,2.52,4.5,4.54,7.44,6.06,2.94,1.53,6.27,2.29,10.01,2.29s7.19-.78,10.12-2.35c2.94-1.56,5.42-3.64,7.44-6.24,2.02-2.59,3.55-5.51,4.58-8.75,1.03-3.24,1.54-6.54,1.54-9.9s-.55-6.9-1.66-10.18c-1.11-3.28-2.67-6.18-4.69-8.7-2.02-2.52-4.5-4.52-7.44-6.01-2.94-1.49-6.24-2.23-9.9-2.23s-7.21.78-10.18,2.35c-2.97,1.56-5.45,3.62-7.44,6.18-1.98,2.56-3.49,5.45-4.52,8.7-1.03,3.24-1.54,6.54-1.54,9.9Z"/>
      <path class="cls-2" d="M308.65,370.24c3.74,0,6.88-.76,9.44-2.29,2.55-1.53,4.61-3.51,6.18-5.95,1.56-2.44,2.67-5.24,3.32-8.41.65-3.16.97-6.42.97-9.78v-41.42h15.67v41.42c0,5.57-.67,10.79-2,15.67-1.33,4.88-3.43,9.15-6.29,12.81s-6.54,6.56-11.04,8.7c-4.5,2.14-9.88,3.2-16.13,3.2s-12-1.12-16.53-3.38c-4.54-2.25-8.22-5.22-11.04-8.92-2.82-3.7-4.86-7.99-6.12-12.87-1.26-4.88-1.89-9.95-1.89-15.22v-41.42h15.79v41.42c0,3.43.32,6.73.97,9.9.65,3.17,1.75,5.97,3.32,8.41,1.56,2.44,3.6,4.4,6.12,5.89s5.61,2.23,9.27,2.23Z"/>
      <path class="cls-2" d="M360.13,383.62v-81.23h35.93c3.74,0,7.19.78,10.35,2.34,3.16,1.56,5.89,3.62,8.18,6.18,2.29,2.56,4.08,5.45,5.38,8.7,1.3,3.24,1.95,6.5,1.95,9.78,0,5.26-1.32,10.05-3.95,14.36-2.63,4.31-6.2,7.42-10.7,9.32l18.53,30.55h-17.73l-16.59-27.23h-15.56v27.23h-15.79ZM375.92,342.55h19.79c1.45,0,2.8-.34,4.06-1.03,1.26-.69,2.35-1.62,3.26-2.8.92-1.18,1.64-2.57,2.17-4.18.53-1.6.8-3.32.8-5.15s-.31-3.66-.92-5.26c-.61-1.6-1.43-2.99-2.46-4.18-1.03-1.18-2.21-2.1-3.55-2.75-1.34-.65-2.69-.97-4.06-.97h-19.11v26.31Z"/>
    </g>
    <path class="cls-2" d="M494.91,316.23h-25.97v67.39h-15.67v-67.39h-25.97v-13.84h67.62v13.84Z"/>
    <g>
      <path class="cls-2" d="M525.23,383.62v-81.23h8.01v74.14h46.91v7.09h-54.92Z"/>
      <path class="cls-2" d="M586.21,383.62v-81.23h8.01v81.23h-8.01Z"/>
      <path class="cls-2" d="M656.34,317.61c-2.29-2.59-5.34-4.69-9.15-6.29-3.82-1.6-8.16-2.4-13.04-2.4-7.17,0-12.4,1.35-15.67,4.06-3.28,2.71-4.92,6.39-4.92,11.04,0,2.44.44,4.44,1.32,6.01.88,1.56,2.23,2.92,4.06,4.06,1.83,1.14,4.18,2.14,7.04,2.97,2.86.84,6.24,1.68,10.12,2.52,4.35.92,8.26,1.94,11.73,3.09,3.47,1.14,6.42,2.57,8.87,4.29,2.44,1.72,4.31,3.8,5.61,6.24,1.3,2.44,1.95,5.49,1.95,9.15s-.73,6.98-2.17,9.72c-1.45,2.75-3.47,5.03-6.06,6.87-2.59,1.83-5.68,3.19-9.27,4.06-3.59.88-7.51,1.32-11.78,1.32-12.59,0-23.45-3.93-32.61-11.78l4-6.52c1.45,1.53,3.18,2.97,5.21,4.35,2.02,1.37,4.27,2.57,6.75,3.6,2.48,1.03,5.13,1.83,7.95,2.4,2.82.57,5.8.86,8.92.86,6.48,0,11.54-1.16,15.16-3.49,3.62-2.33,5.43-5.85,5.43-10.58,0-2.52-.51-4.63-1.54-6.35-1.03-1.72-2.57-3.2-4.63-4.46-2.06-1.26-4.62-2.35-7.67-3.26-3.05-.92-6.6-1.83-10.64-2.75-4.27-.99-8.01-2.02-11.21-3.09-3.2-1.07-5.91-2.4-8.12-4-2.21-1.6-3.87-3.53-4.98-5.78-1.11-2.25-1.66-5.01-1.66-8.29,0-3.74.7-7.07,2.12-10.01,1.41-2.94,3.41-5.38,6.01-7.32,2.59-1.95,5.64-3.43,9.15-4.46,3.51-1.03,7.4-1.54,11.67-1.54,5.42,0,10.24.82,14.47,2.46,4.23,1.64,8.07,3.95,11.5,6.92l-3.89,6.41Z"/>
      <path class="cls-2" d="M730.25,309.48h-28.95v74.14h-8.01v-74.14h-28.95v-7.09h65.9v7.09Z"/>
      <path class="cls-2" d="M791.23,376.53v7.09h-54.57v-81.23h53.54v7.09h-45.54v29.29h39.7v6.75h-39.7v31h46.57Z"/>
      <path class="cls-2" d="M808.62,317.26v66.36h-8.01v-81.23h6.18l53.77,67.62v-67.5h8.01v81.12h-6.98l-52.97-66.36Z"/>
      <path class="cls-2" d="M937.79,376.53v7.09h-54.57v-81.23h53.54v7.09h-45.54v29.29h39.7v6.75h-39.7v31h46.57Z"/>
      <path class="cls-2" d="M947.17,383.62v-81.23h34.32c3.51,0,6.73.74,9.67,2.23,2.94,1.49,5.47,3.43,7.61,5.83,2.13,2.4,3.79,5.13,4.98,8.18,1.18,3.05,1.77,6.14,1.77,9.27s-.44,5.82-1.32,8.52c-.88,2.71-2.1,5.15-3.66,7.32-1.56,2.17-3.45,4-5.66,5.49-2.21,1.49-4.69,2.5-7.44,3.03l19.91,31.35h-9.04l-19.11-29.98h-24.03v29.98h-8.01ZM955.18,346.55h26.54c2.36,0,4.52-.51,6.46-1.54,1.94-1.03,3.6-2.42,4.98-4.18,1.37-1.75,2.44-3.74,3.2-5.95.76-2.21,1.14-4.54,1.14-6.98s-.44-4.79-1.32-7.04c-.88-2.25-2.06-4.21-3.55-5.89-1.49-1.68-3.24-3.01-5.26-4-2.02-.99-4.14-1.49-6.35-1.49h-25.86v37.07Z"/>
    </g>
  </g>
  <g>
    <path class="cls-2" d="M309.61,440.58c0,1.6-.32,3.07-.96,4.41-.64,1.34-1.5,2.5-2.58,3.48-1.08.98-2.34,1.74-3.78,2.28s-2.98.81-4.62.81h-20.1v-42.6h20.52c1.48,0,2.82.32,4.02.96,1.2.64,2.22,1.47,3.06,2.49.84,1.02,1.49,2.18,1.95,3.48.46,1.3.69,2.61.69,3.93,0,2.16-.54,4.13-1.62,5.91-1.08,1.78-2.58,3.11-4.5,3.99,2.44.72,4.37,2.06,5.79,4.02,1.42,1.96,2.13,4.24,2.13,6.84ZM281.77,412.62v15.72h14.64c1.04,0,2.01-.22,2.91-.66.9-.44,1.67-1.02,2.31-1.74.64-.72,1.14-1.55,1.5-2.49.36-.94.54-1.93.54-2.97s-.17-2.1-.51-3.06c-.34-.96-.82-1.79-1.44-2.49-.62-.7-1.35-1.26-2.19-1.68-.84-.42-1.76-.63-2.76-.63h-15ZM305.41,439.86c0-1.04-.18-2.05-.54-3.03-.36-.98-.87-1.84-1.53-2.58-.66-.74-1.44-1.34-2.34-1.8-.9-.46-1.87-.69-2.91-.69h-16.32v16.14h15.9c1.08,0,2.09-.22,3.03-.66.94-.44,1.76-1.03,2.46-1.77.7-.74,1.25-1.6,1.65-2.58.4-.98.6-1.99.6-3.03Z"/>
    <path class="cls-2" d="M320.23,408.96l13.92,22.92,14.04-22.92h4.56l-16.5,26.76v15.84h-4.2v-15.96l-16.44-26.64h4.62Z"/>
  </g>
  <g>
    <path class="cls-2" d="M380.7,451.56v-42.6h27.96v3.72h-23.76v15.66h20.04v3.48h-20.04v19.74h-4.2Z"/>
    <path class="cls-2" d="M420.24,451.56v-42.6h18c1.84,0,3.53.39,5.07,1.17,1.54.78,2.87,1.8,3.99,3.06,1.12,1.26,1.99,2.69,2.61,4.29.62,1.6.93,3.22.93,4.86s-.23,3.05-.69,4.47c-.46,1.42-1.1,2.7-1.92,3.84-.82,1.14-1.81,2.1-2.97,2.88-1.16.78-2.46,1.31-3.9,1.59l10.44,16.44h-4.74l-10.02-15.72h-12.6v15.72h-4.2ZM424.44,432.12h13.92c1.24,0,2.37-.27,3.39-.81s1.89-1.27,2.61-2.19c.72-.92,1.28-1.96,1.68-3.12.4-1.16.6-2.38.6-3.66s-.23-2.51-.69-3.69c-.46-1.18-1.08-2.21-1.86-3.09-.78-.88-1.7-1.58-2.76-2.1-1.06-.52-2.17-.78-3.33-.78h-13.56v19.44Z"/>
    <path class="cls-2" d="M492.24,447.84v3.72h-28.62v-42.6h28.08v3.72h-23.88v15.36h20.82v3.54h-20.82v16.26h24.42Z"/>
    <path class="cls-2" d="M532.98,447.84v3.72h-28.62v-42.6h28.08v3.72h-23.88v15.36h20.82v3.54h-20.82v16.26h24.42Z"/>
  </g>
  <path class="cls-2" d="M548.1,452.21c-1.07,0-1.99-.34-2.77-1.04-.78-.69-1.17-1.66-1.17-2.9,0-1.05.37-1.96,1.11-2.72.74-.76,1.66-1.14,2.74-1.14s2.01.38,2.78,1.13c.77.75,1.15,1.66,1.15,2.73,0,1.23-.38,2.19-1.15,2.89-.77.7-1.67,1.05-2.7,1.05Z"/>
  <g>
    <path class="cls-2" d="M561.69,451.56v-42.6h4.2v38.88h24.6v3.72h-28.8Z"/>
    <path class="cls-2" d="M614.07,408.96h3.54l17.7,42.6h-4.44l-5.52-13.32h-19.14l-5.46,13.32h-4.5l17.82-42.6ZM624.39,434.94l-8.58-21.06-8.7,21.06h17.28Z"/>
  </g>
  <path class="cls-2" d="M650.19,409.26h3.96l6,15.12,6.06-15.12h4.02l-7.44,18.18,8.16,19.26,15.42-37.74h4.56l-18.06,42.6h-3.72l-8.94-21.06-9,21.06h-3.66l-18-42.6h4.5l15.48,37.74,8.1-19.26-7.44-18.18Z"/>
  <path class="cls-2" d="M175.93.4c-5.3,1.23-9.58,5.52-10.78,10.83-1.63,7.22,2.18,13.79,8.17,16.54v248.28h12.16V27.77c5.05-2.27,8.57-7.33,8.57-13.21,0-9.13-8.53-16.35-18.11-14.15Z"/>
  <path class="cls-2" d="M206.35,71.88c-5.26,1.23-9.55,5.48-10.74,10.74-1.67,7.1,2,13.52,7.77,16.36v177.07h12.16V99.41c5.26-2.2,8.97-7.39,8.97-13.41,0-9.15-8.57-16.33-18.15-14.13ZM209.85,92.65c-3.6,0-6.53-2.93-6.53-6.53s2.93-6.53,6.53-6.53,6.53,2.93,6.53,6.53-2.93,6.53-6.53,6.53Z"/>
  <path class="cls-2" d="M349.92,132.72c-1.2-5.01-5.23-9.12-10.24-10.42-7.77-2.06-14.92,2.13-17.53,8.58h-91.26v145.26h12.2v-133.14h45.81l-.11,25.19,8.06-.22.14-24.98h25.77c2.43,4.65,7.3,7.86,12.96,7.86,9.22,0,16.52-8.55,14.19-18.14ZM335.71,142.94c-3.6,0-6.53-2.93-6.53-6.53s2.93-6.53,6.53-6.53,6.53,2.93,6.53,6.53-2.93,6.53-6.53,6.53Z"/>
  <g>
    <line class="cls-3" x1="62.26" y1="196.3" x2="82.26" y2="243.36"/>
    <line class="cls-3" x1="60.99" y1="196.52" x2="43.9" y2="244.71"/>
    <path class="cls-1" d="M24.26,251.92h75.26v4.47c0,7.53-6.11,13.64-13.64,13.64h-49.41c-6.73,0-12.2-5.47-12.2-12.2v-5.91h0Z" transform="translate(-1.25 .3) rotate(-.27)"/>
    <path class="cls-1" d="M100.53,245.87l-75.99.36c-.9,0-1.63-.85-1.64-1.92v-.09c0-1.06.72-1.93,1.62-1.93l75.99-.36c.9,0,1.63.85,1.64,1.92v.09c0,1.06-.72,1.93-1.62,1.93Z"/>
  </g>
  <g>
    <line class="cls-3" x1="293.35" y1="164.12" x2="313.35" y2="211.17"/>
    <line class="cls-3" x1="292.08" y1="164.33" x2="274.99" y2="212.52"/>
    <path class="cls-1" d="M255.35,219.73h75.26v4.47c0,7.53-6.11,13.64-13.64,13.64h-49.41c-6.73,0-12.2-5.47-12.2-12.2v-5.91h0Z" transform="translate(-1.09 1.41) rotate(-.27)"/>
    <path class="cls-1" d="M331.62,213.69l-75.99.36c-.9,0-1.63-.85-1.64-1.92v-.09c0-1.06.72-1.93,1.62-1.93l75.99-.36c.9,0,1.63.85,1.64,1.92v.09c0,1.06-.72,1.93-1.62,1.93Z"/>
  </g>
  <path class="cls-2" d="M28.67,163.48c-1.74-6.13-7.33-10.67-14.01-10.67-9.26,0-16.52,8.64-14.23,18.26,1.23,5.05,5.19,9.18,10.2,10.53,6.64,1.78,12.85-1.02,16.15-5.95h31.07l-.11,26.8,8.06-.22.15-26.58h45.52l-.42,100.49h12.2l.42-112.65H28.67ZM14.7,173.99c-3.61,0-6.53-2.92-6.53-6.53s2.92-6.53,6.53-6.53,6.53,2.92,6.53,6.53-2.92,6.53-6.53,6.53Z"/>
  <rect class="cls-2" x="141.62" y="410.54" width="12.07" height="42.21"/>
  <rect class="cls-2" x="111.68" y="410.54" width="12.07" height="42.21"/>
  <rect class="cls-2" x="173.35" y="410.54" width="12.07" height="42.21"/>
  <rect class="cls-2" x="203.74" y="410.54" width="12.07" height="42.21"/>
  <rect class="cls-2" x="230.56" y="410.54" width="12.07" height="42.21"/>
  <path class="cls-2" d="M143.58,41.46c-5.01,1.2-9.15,5.19-10.49,10.2-2.07,7.73,2.07,14.85,8.49,17.53v206.86h12.16V68.68c4.79-2.4,8.09-7.3,8.09-13,0-9.26-8.6-16.55-18.26-14.23ZM147.5,61.71c-3.61,0-6.53-2.92-6.53-6.53s2.93-6.53,6.53-6.53,6.53,2.92,6.53,6.53-2.92,6.53-6.53,6.53Z"/>
</svg>