<svg xmlns="http://www.w3.org/2000/svg" xmlns:svg="http://www.w3.org/2000/svg" version="1.1" viewBox="0 0 350 390.6"><defs><style>.cls-1,.cls-2{fill:#b53c2c;stroke-width:0}.cls-2{fill:#848582}</style></defs><g id="svg126"><path id="path76" d="M171.56,1.6c-5.3,1.24-9.58,5.53-10.78,10.83-1.63,7.22,2.19,13.79,8.17,16.55v361.62h12.16V28.98c5.05-2.28,8.57-7.33,8.57-13.22,0-9.14-8.54-16.36-18.12-14.16Z" class="cls-1"/><g id="g91"><path id="path79" d="M329.7,218.98h-75.56v6.24c.03,7.55,4.62,12.18,12.15,12.18,16.45-.03,32.89-.08,49.37-.11,1.49-.03,3.06-.08,4.53-.48,9.07-2.41,10.75-9.91,9.52-17.83Z" class="cls-2"/><path id="path81" d="M345.93,126.32c-2.74-2.77-6.13-4.16-10.18-4.16-4.37,0-7.95,1.35-10.72,4.09-1.35,1.31-2.38,2.85-3.02,4.56h-91.3v259.79h11.84v-247.94h45.87c0,5.29,0,10.58-.08,15.87-.03,1.01-.19,2.12-.51,3.06-5.43,15.36-10.91,30.67-16.26,45.98-.48,1.35-1.06,1.79-2.41,1.76-4.73-.08-9.44,0-14.16.03-1.57,0-2.19.62-2.19,2.01s.7,2.04,2.38,2.01c4.53,0,9.01-.11,13.52-.14,20.43-.08,40.84-.19,61.3-.25,1.85,0,2.74-.7,2.69-2.04-.05-1.35-.81-1.93-2.63-1.93-3.9,0-7.77,0-11.64.08-1.12.03-1.65-.33-2.07-1.39-6.49-15.31-12.98-30.59-19.48-45.91-.22-.48-.33-.98-.33-1.49v-17.61h25.45c.62,1.49,1.54,2.91,2.69,4.26,2.6,2.91,6.19,4.42,10.86,4.42,4.12,0,7.58-1.39,10.32-4.2,2.74-2.77,4.12-6.24,4.12-10.47s-1.39-7.55-4.12-10.36l.05-.02ZM309.38,208.99h-30.96c4.62-13.05,9.26-26.14,13.89-39.21h.4c5.54,12.98,11.05,25.97,16.66,39.21h.02ZM339.91,141.68c-1.24,1.39-2.69,2.07-4.37,2.07s-3.25-.7-4.48-2.12c-1.24-1.43-1.85-3.14-1.85-5.15,0-1.85.65-3.42,1.9-4.73,1.24-1.35,2.74-2.01,4.45-2.01s3.14.73,4.37,2.12c1.24,1.43,1.85,3.06,1.85,4.96s-.62,3.47-1.85,4.85l-.02.02Z" class="cls-2"/><path id="path83" d="M98.46,251.59H22.91c0,2.26-.03,4.23,0,6.19,0,7.55,4.62,12.18,12.11,12.18,16.45-.03,32.94-.08,49.37-.11,1.49,0,3.06-.08,4.53-.48,9.07-2.41,10.75-9.91,9.55-17.8l-.02.02Z" class="cls-2"/><path id="path85" d="M28.34,163.66c-.7-1.93-1.79-3.69-3.28-5.21-2.77-2.77-6.16-4.16-10.21-4.16-4.34,0-7.92,1.35-10.69,4.09S0,164.64,0,168.95C0,172.73,1.28,176.09,3.86,179.05c2.6,2.91,6.19,4.42,10.86,4.42,4.12,0,7.55-1.39,10.32-4.16,1.12-1.17,2.01-2.41,2.69-3.8h29.39c0,5.18,0,10.39-.08,15.57,0,1.01-.19,2.12-.51,3.06-5.4,15.36-10.86,30.62-16.26,45.98-.48,1.35-1.01,1.76-2.41,1.76-4.7-.08-9.44,0-14.16.03-1.54,0-2.19.62-2.19,2.01.03,1.39.73,2.01,2.41,2.01,4.48-.03,9.01-.11,13.49-.14,20.43-.11,40.89-.19,61.3-.25,1.9-.03,2.74-.7,2.69-2.07,0-1.31-.76-1.9-2.63-1.9-3.86,0-7.77-.03-11.64.08-1.09,0-1.65-.33-2.07-1.39-6.46-15.31-12.98-30.59-19.48-45.91-.19-.48-.33-1.01-.33-1.54,0-5.73,0-11.53.03-17.29h45.79v215.08h11.84v-226.93H28.34ZM19.05,173.81c-1.28,1.39-2.69,2.07-4.37,2.07s-3.25-.7-4.48-2.12c-1.24-1.43-1.85-3.14-1.85-5.15,0-1.82.62-3.42,1.9-4.73,1.24-1.31,2.74-2.01,4.45-2.01s3.1.73,4.37,2.12c1.24,1.43,1.85,3.06,1.85,4.96s-.62,3.5-1.85,4.85l-.02.02ZM78.16,241.55h-30.96c4.62-13.05,9.26-26.14,13.89-39.21.11,0,.25,0,.4-.03,5.51,12.98,11.01,26,16.66,39.24h.02Z" class="cls-2"/><path id="path87" d="M157.4,42.01c-2.74-2.77-6.13-4.16-10.18-4.16-4.34,0-7.92,1.35-10.69,4.09-2.8,2.74-4.2,6.27-4.2,10.58,0,3.78,1.31,7.14,3.9,10.1,1.31,1.49,2.91,2.63,4.78,3.33v324.66h11.84V65.94c1.68-.7,3.17-1.71,4.53-3.1,2.77-2.77,4.12-6.24,4.12-10.47s-1.35-7.55-4.12-10.36h.02ZM151.38,57.36c-1.24,1.39-2.69,2.07-4.34,2.07-1.76,0-3.25-.7-4.48-2.12s-1.85-3.14-1.85-5.15c0-1.85.62-3.42,1.85-4.73,1.24-1.35,2.74-2.01,4.48-2.01,1.65,0,3.1.73,4.34,2.12,1.28,1.43,1.9,3.06,1.9,4.96s-.62,3.47-1.9,4.85v.02Z" class="cls-2"/><path id="path89" d="M217.41,76.07c-2.74-2.77-6.16-4.2-10.21-4.2-4.34,0-7.92,1.39-10.69,4.12-2.77,2.74-4.16,6.24-4.16,10.58,0,3.78,1.28,7.14,3.86,10.1,1.31,1.49,2.91,2.6,4.78,3.33v290.6h11.84V100c1.68-.7,3.21-1.76,4.56-3.1,2.74-2.77,4.12-6.27,4.12-10.47s-1.39-7.58-4.12-10.36h.02ZM211.4,91.42c-1.24,1.39-2.69,2.07-4.37,2.07s-3.25-.73-4.48-2.12c-1.24-1.43-1.85-3.14-1.85-5.15,0-1.85.62-3.42,1.9-4.73,1.24-1.35,2.74-2.01,4.45-2.01s3.14.7,4.37,2.12,1.85,3.06,1.85,4.96-.62,3.47-1.85,4.85l-.02.02Z" class="cls-2"/></g></g></svg>