<?xml version="1.0" encoding="UTF-8"?>
<svg xmlns="http://www.w3.org/2000/svg" version="1.1" viewBox="0 0 460 300">
  <defs>
    <style>
      .cls-1 {
        fill: #ce1a6f;
      }

      .cls-1, .cls-2 {
        stroke-width: 0px;
      }

      .cls-2 {
        fill: #fff;
      }

      .cls-3 {
        display: none;
      }
    </style>
  </defs>
  <g id="Layer_3" data-name="Layer 3" class="cls-3">
    <rect class="cls-1" x="-57.3" y="165" width="754.3" height="467"/>
  </g>
  <g id="Layer_2" data-name="Layer 2">
    <g>
      <path class="cls-2" d="M212.46,145.29h-47.72v3.94c.02,4.77,2.92,7.69,7.67,7.69,10.39-.02,20.77-.05,31.18-.07.94-.02,1.93-.05,2.86-.3,5.73-1.52,6.79-6.26,6.01-11.26Z"/>
      <path class="cls-2" d="M222.71,86.77c-1.73-1.75-3.87-2.63-6.43-2.63-2.76,0-5.02.85-6.77,2.58-.85.83-1.5,1.8-1.91,2.88h-57.66v92.53h7.48s0-85.05,0-85.05h28.97c0,3.34,0,6.68-.05,10.02-.02.64-.12,1.34-.32,1.93-3.43,9.7-6.89,19.37-10.27,29.04-.3.85-.67,1.13-1.52,1.11-2.99-.05-5.96,0-8.94.02-.99,0-1.38.39-1.38,1.27s.44,1.29,1.5,1.27c2.86,0,5.69-.07,8.54-.09,12.9-.05,25.79-.12,38.71-.16,1.17,0,1.73-.44,1.7-1.29s-.51-1.22-1.66-1.22c-2.46,0-4.91,0-7.35.05-.71.02-1.04-.21-1.31-.88-4.1-9.67-8.2-19.32-12.3-28.99-.14-.3-.21-.62-.21-.94v-11.12h16.07c.39.94.97,1.84,1.7,2.69,1.64,1.84,3.91,2.79,6.86,2.79,2.6,0,4.79-.88,6.52-2.65,1.73-1.75,2.6-3.94,2.6-6.61s-.88-4.77-2.6-6.54ZM199.64,138.98h-19.55c2.92-8.24,5.85-16.51,8.77-24.76h.25c3.5,8.2,6.98,16.4,10.52,24.76ZM218.91,96.47c-.78.88-1.7,1.31-2.76,1.31s-2.05-.44-2.83-1.34c-.78-.9-1.17-1.98-1.17-3.25,0-1.17.41-2.16,1.2-2.99.78-.85,1.73-1.27,2.81-1.27s1.98.46,2.76,1.34c.78.9,1.17,1.93,1.17,3.13s-.39,2.19-1.17,3.06Z"/>
    </g>
    <g>
      <path class="cls-2" d="M66.44,165.88H18.72c0,1.43-.02,2.67,0,3.91,0,4.77,2.92,7.69,7.65,7.69,10.39-.02,20.8-.05,31.18-.07.94,0,1.93-.05,2.86-.3,5.73-1.52,6.79-6.26,6.03-11.24Z"/>
      <path class="cls-2" d="M22.15,110.35c-.44-1.22-1.13-2.33-2.07-3.29-1.75-1.75-3.89-2.63-6.45-2.63-2.74,0-5,.85-6.75,2.58s-2.63,3.96-2.63,6.68c0,2.39.81,4.51,2.44,6.38,1.64,1.84,3.91,2.79,6.86,2.79,2.6,0,4.77-.88,6.52-2.63.71-.74,1.27-1.52,1.7-2.4h18.56c0,3.27,0,6.56-.05,9.83,0,.64-.12,1.34-.32,1.93-3.41,9.7-6.86,19.34-10.27,29.04-.3.85-.64,1.11-1.52,1.11-2.97-.05-5.96,0-8.94.02-.97,0-1.38.39-1.38,1.27.02.88.46,1.27,1.52,1.27,2.83-.02,5.69-.07,8.52-.09,12.9-.07,25.82-.12,38.71-.16,1.2-.02,1.73-.44,1.7-1.31,0-.83-.48-1.2-1.66-1.2-2.44,0-4.91-.02-7.35.05-.69,0-1.04-.21-1.31-.88-4.08-9.67-8.2-19.32-12.3-28.99-.12-.3-.21-.64-.21-.97,0-3.62,0-7.28.02-10.92h28.92v64.3h7.48s0-71.78,0-71.78H22.15ZM16.28,116.76c-.81.88-1.7,1.31-2.76,1.31s-2.05-.44-2.83-1.34c-.78-.9-1.17-1.98-1.17-3.25,0-1.15.39-2.16,1.2-2.99.78-.83,1.73-1.27,2.81-1.27s1.96.46,2.76,1.34c.78.9,1.17,1.93,1.17,3.13s-.39,2.21-1.17,3.06ZM53.61,159.54h-19.55c2.92-8.24,5.85-16.51,8.77-24.76.07,0,.16,0,.25-.02,3.48,8.2,6.95,16.42,10.52,24.78Z"/>
    </g>
    <path class="cls-2" d="M103.65,33.53c-1.73-1.75-3.87-2.63-6.43-2.63-2.74,0-5,.85-6.75,2.58-1.77,1.73-2.65,3.96-2.65,6.68,0,2.39.83,4.51,2.46,6.38.83.94,1.84,1.66,3.02,2.1v133.5h7.48V48.64c1.06-.44,2-1.08,2.86-1.96,1.75-1.75,2.6-3.94,2.6-6.61s-.85-4.77-2.6-6.54ZM99.85,43.22c-.78.88-1.7,1.31-2.74,1.31-1.11,0-2.05-.44-2.83-1.34-.78-.9-1.17-1.98-1.17-3.25,0-1.17.39-2.16,1.17-2.99.78-.85,1.73-1.27,2.83-1.27,1.04,0,1.96.46,2.74,1.34.81.9,1.2,1.93,1.2,3.13s-.39,2.19-1.2,3.06Z"/>
    <path class="cls-2" d="M125.16,16.19c0-2.6-.88-4.79-2.6-6.54-1.75-1.77-3.89-2.65-6.45-2.65-2.74,0-5,.88-6.75,2.6s-2.63,3.94-2.63,6.66c0,2.42.81,4.54,2.44,6.38.88,1.01,1.96,1.73,3.22,2.19h-.21v157.31h7.48V24.82h-.25c1.17-.41,2.21-1.11,3.13-2.03,1.73-1.75,2.6-3.96,2.6-6.61ZM118.76,19.34c-.81.88-1.73,1.29-2.76,1.29-1.11,0-2.05-.44-2.83-1.34-.78-.88-1.17-1.96-1.17-3.22,0-1.17.39-2.16,1.17-3.02.81-.83,1.73-1.24,2.83-1.24,1.04,0,1.96.44,2.76,1.34.78.9,1.17,1.93,1.17,3.11s-.39,2.21-1.17,3.09Z"/>
    <rect class="cls-2" x="149.94" y="266.32" width="7.41" height="26.68"/>
    <rect class="cls-2" x="74.52" y="266.32" width="7.41" height="26.68"/>
    <rect class="cls-2" x="93.37" y="266.32" width="7.41" height="26.68"/>
    <rect class="cls-2" x="112.23" y="266.32" width="7.41" height="26.68"/>
    <path class="cls-2" d="M132.43,52.4c-3.32.77-6.03,3.46-6.79,6.78-1.05,4.49,1.26,8.54,4.91,10.34v111.85h7.68v-111.58c3.32-1.39,5.66-4.67,5.66-8.47,0-5.78-5.41-10.31-11.47-8.92Z"/>
    <rect class="cls-2" x="130.98" y="266.33" width="7.63" height="26.67"/>
    <path class="cls-2" d="M116,236.15c0,2.21-.44,4.15-1.33,5.82-.88,1.67-2.1,3.07-3.65,4.2-1.55,1.13-3.34,1.99-5.38,2.58-2.04.59-4.21.88-6.52.88h-25.26v-52.29h27.98c1.82,0,3.46.39,4.93,1.18,1.47.79,2.72,1.8,3.76,3.06,1.03,1.25,1.83,2.68,2.39,4.27.56,1.6.85,3.2.85,4.82,0,2.55-.64,4.95-1.91,7.18-1.28,2.23-3.14,3.89-5.6,4.97,2.99.88,5.36,2.47,7.11,4.75,1.74,2.28,2.61,5.14,2.61,8.58ZM84.04,206.03v13.18h13.55c1.72,0,3.18-.59,4.38-1.77,1.2-1.18,1.8-2.8,1.8-4.86s-.55-3.61-1.66-4.79c-1.1-1.18-2.47-1.77-4.09-1.77h-13.99ZM105.77,234.24c0-.93-.16-1.83-.48-2.69-.32-.86-.75-1.61-1.29-2.25-.54-.64-1.18-1.14-1.91-1.51-.74-.37-1.55-.55-2.43-.55h-15.61v13.77h15.1c.93,0,1.8-.17,2.61-.52.81-.34,1.51-.82,2.1-1.44.59-.61,1.05-1.34,1.4-2.17.34-.83.52-1.72.52-2.65Z"/>
    <path class="cls-2" d="M147.74,250c-3.83,0-7.3-.75-10.42-2.25-3.12-1.5-5.79-3.49-8.03-5.97-2.23-2.48-3.97-5.31-5.19-8.51-1.23-3.19-1.84-6.46-1.84-9.79s.65-6.82,1.95-10.02c1.3-3.19,3.09-6.01,5.38-8.47,2.28-2.45,4.99-4.41,8.14-5.85,3.14-1.45,6.55-2.17,10.24-2.17s7.23.77,10.35,2.32c3.12,1.55,5.78,3.57,7.99,6.08,2.21,2.5,3.93,5.35,5.16,8.54,1.23,3.19,1.84,6.43,1.84,9.72,0,3.49-.64,6.81-1.91,9.98-1.28,3.17-3.04,5.97-5.3,8.4-2.26,2.43-4.96,4.37-8.1,5.82-3.14,1.45-6.55,2.17-10.24,2.17ZM132.57,223.49c0,2.26.34,4.44,1.03,6.55.69,2.11,1.68,3.98,2.98,5.6,1.3,1.62,2.9,2.92,4.79,3.9,1.89.98,4.04,1.47,6.44,1.47s4.63-.5,6.52-1.51c1.89-1.01,3.49-2.34,4.79-4.01,1.3-1.67,2.28-3.55,2.95-5.63.66-2.09.99-4.21.99-6.37s-.36-4.44-1.07-6.55c-.71-2.11-1.72-3.98-3.02-5.6-1.3-1.62-2.9-2.91-4.79-3.87-1.89-.96-4.01-1.44-6.37-1.44s-4.64.5-6.55,1.51c-1.91,1.01-3.51,2.33-4.79,3.98-1.28,1.65-2.25,3.51-2.91,5.6-.66,2.09-.99,4.21-.99,6.37Z"/>
    <path class="cls-2" d="M219.25,206.25h-16.72v43.38h-10.09v-43.38h-16.72v-8.91h43.52v8.91Z"/>
    <path class="cls-2" d="M258.35,211.04c-.34-.34-.97-.81-1.88-1.4-.91-.59-2.01-1.17-3.31-1.73-1.3-.56-2.71-1.04-4.23-1.44-1.52-.39-3.07-.59-4.64-.59-2.8,0-4.89.52-6.26,1.55-1.38,1.03-2.06,2.48-2.06,4.35,0,1.08.26,1.98.77,2.69.52.71,1.26,1.34,2.25,1.88.98.54,2.22,1.03,3.72,1.47,1.5.44,3.23.91,5.19,1.4,2.55.69,4.87,1.42,6.96,2.21,2.09.79,3.85,1.77,5.3,2.95,1.45,1.18,2.56,2.59,3.35,4.23.78,1.65,1.18,3.67,1.18,6.08,0,2.8-.53,5.19-1.58,7.18-1.06,1.99-2.48,3.6-4.27,4.82-1.79,1.23-3.85,2.12-6.19,2.69-2.33.56-4.78.85-7.33.85-3.93,0-7.81-.59-11.64-1.77-3.83-1.18-7.27-2.85-10.31-5.01l4.49-8.76c.44.44,1.24,1.02,2.39,1.73,1.15.71,2.52,1.42,4.09,2.14,1.57.71,3.31,1.31,5.23,1.8,1.91.49,3.88.74,5.89.74,5.6,0,8.4-1.79,8.4-5.38,0-1.13-.32-2.09-.96-2.87-.64-.78-1.55-1.47-2.72-2.06s-2.6-1.13-4.27-1.62c-1.67-.49-3.53-1.03-5.6-1.62-2.5-.69-4.68-1.44-6.52-2.25-1.84-.81-3.38-1.77-4.6-2.87-1.23-1.1-2.15-2.38-2.76-3.83-.61-1.45-.92-3.18-.92-5.19,0-2.65.49-5.01,1.47-7.07.98-2.06,2.34-3.78,4.09-5.16,1.74-1.37,3.77-2.42,6.08-3.13,2.31-.71,4.79-1.07,7.44-1.07,3.68,0,7.07.58,10.16,1.73,3.09,1.15,5.79,2.52,8.1,4.09l-4.49,8.25Z"/>
    <path class="cls-2" d="M294.91,249.63v-52.29h5.15v47.72h30.19v4.57h-35.35Z"/>
    <path class="cls-2" d="M355.51,197.34h4.34l21.72,52.29h-5.45l-6.78-16.35h-23.49l-6.7,16.35h-5.52l21.87-52.29ZM368.18,229.23l-10.53-25.85-10.68,25.85h21.21Z"/>
    <path class="cls-2" d="M405.74,197.71h4.86l7.36,18.56,7.44-18.56h4.93l-9.13,22.31,10.02,23.64,18.93-46.32h5.6l-22.17,52.29h-4.57l-10.97-25.85-11.05,25.85h-4.49l-22.09-52.29h5.52l19,46.32,9.94-23.64-9.13-22.31Z"/>
    <path class="cls-2" d="M200.28,285.52c0,1.01-.2,1.94-.61,2.79-.4.85-.95,1.58-1.63,2.2-.68.62-1.48,1.1-2.39,1.44s-1.88.51-2.92.51h-12.7v-26.91h12.96c.93,0,1.78.2,2.54.61.76.4,1.4.93,1.93,1.57.53.64.94,1.38,1.23,2.2.29.82.44,1.65.44,2.48,0,1.36-.34,2.61-1.02,3.73-.68,1.12-1.63,1.96-2.84,2.52,1.54.45,2.76,1.3,3.66,2.54.9,1.24,1.35,2.68,1.35,4.32ZM182.69,267.86v9.93h9.25c.66,0,1.27-.14,1.84-.42.57-.28,1.05-.64,1.46-1.1.4-.45.72-.98.95-1.57.23-.59.34-1.22.34-1.88s-.11-1.33-.32-1.93c-.21-.61-.52-1.13-.91-1.57-.39-.44-.85-.8-1.38-1.06-.53-.27-1.11-.4-1.74-.4h-9.48ZM197.63,285.07c0-.66-.11-1.29-.34-1.91-.23-.62-.55-1.16-.97-1.63-.42-.47-.91-.85-1.48-1.14-.57-.29-1.18-.44-1.84-.44h-10.31v10.2h10.04c.68,0,1.32-.14,1.91-.42.59-.28,1.11-.65,1.55-1.12.44-.47.79-1.01,1.04-1.63.25-.62.38-1.26.38-1.91Z"/>
    <path class="cls-2" d="M206.99,265.55l8.79,14.48,8.87-14.48h2.88l-10.42,16.9v10.01h-2.65v-10.08l-10.38-16.83h2.92Z"/>
    <path class="cls-2" d="M245.19,292.46v-26.91h17.66v2.35h-15.01v9.89h12.66v2.2h-12.66v12.47h-2.65Z"/>
    <path class="cls-2" d="M270.16,292.46v-26.91h11.37c1.16,0,2.23.25,3.2.74.97.49,1.81,1.14,2.52,1.93.71.8,1.26,1.7,1.65,2.71.39,1.01.59,2.03.59,3.07s-.15,1.93-.44,2.82c-.29.9-.7,1.71-1.21,2.43-.52.72-1.14,1.33-1.88,1.82-.73.49-1.55.83-2.46,1l6.6,10.39h-2.99l-6.33-9.93h-7.96v9.93h-2.65ZM272.82,280.18h8.79c.78,0,1.5-.17,2.14-.51.64-.34,1.19-.8,1.65-1.38.45-.58.81-1.24,1.06-1.97.25-.73.38-1.5.38-2.31s-.15-1.59-.44-2.33c-.29-.75-.68-1.4-1.17-1.95-.49-.56-1.07-1-1.74-1.33s-1.37-.49-2.1-.49h-8.57v12.28Z"/>
    <path class="cls-2" d="M315.65,290.11v2.35h-18.08v-26.91h17.74v2.35h-15.08v9.7h13.15v2.24h-13.15v10.27h15.43Z"/>
    <path class="cls-2" d="M341.38,290.11v2.35h-18.08v-26.91h17.74v2.35h-15.08v9.7h13.15v2.24h-13.15v10.27h15.43Z"/>
    <path class="cls-2" d="M350.93,292.87c-.68,0-1.26-.22-1.75-.65-.49-.44-.74-1.05-.74-1.83,0-.66.23-1.24.7-1.72.47-.48,1.05-.72,1.73-.72s1.27.24,1.76.71c.48.47.73,1.05.73,1.72,0,.77-.24,1.38-.73,1.82-.48.44-1.05.66-1.71.66Z"/>
    <path class="cls-2" d="M359.52,292.46v-26.91h2.65v24.56h15.54v2.35h-18.19Z"/>
    <path class="cls-2" d="M277.8,250.36c-1.21,0-2.26-.39-3.14-1.17-.88-.78-1.32-1.88-1.32-3.28,0-1.19.42-2.22,1.26-3.08.84-.86,1.88-1.29,3.11-1.29s2.28.43,3.15,1.27c.87.85,1.3,1.88,1.3,3.09,0,1.39-.43,2.48-1.3,3.27-.87.79-1.89,1.19-3.06,1.19Z"/>
    <path class="cls-2" d="M392.61,265.55h2.24l11.18,26.91h-2.8l-3.49-8.41h-12.09l-3.45,8.41h-2.84l11.26-26.91ZM399.13,281.96l-5.42-13.3-5.5,13.3h10.92Z"/>
    <path class="cls-2" d="M415.42,265.74h2.5l3.79,9.55,3.83-9.55h2.54l-4.7,11.48,5.15,12.17,9.74-23.84h2.88l-11.41,26.91h-2.35l-5.65-13.3-5.69,13.3h-2.31l-11.37-26.91h2.84l9.78,23.84,5.12-12.17-4.7-11.48Z"/>
  </g>
</svg>