<?xml version="1.0" encoding="UTF-8"?>
<svg id="Layer_1" data-name="Layer 1" xmlns="http://www.w3.org/2000/svg" viewBox="0 0 715.14 452.75">
  <defs>
    <style>
      .cls-1 {
        stroke: #a5a5a5;
      }

      .cls-1, .cls-2 {
        fill: #000;
      }

      .cls-1, .cls-3 {
        stroke-miterlimit: 10;
      }

      .cls-2 {
        stroke-width: 0px;
      }

      .cls-3 {
        fill: none;
        stroke: #000;
        stroke-width: 7px;
      }
    </style>
  </defs>
  <path class="cls-2" d="M310.73,440.92c0,1.6-.32,3.07-.96,4.41-.64,1.34-1.5,2.5-2.58,3.48-1.08.98-2.34,1.74-3.78,2.28s-2.98.81-4.62.81h-20.1v-42.6h20.52c1.48,0,2.82.32,4.02.96,1.2.64,2.22,1.47,3.06,2.49.84,1.02,1.49,2.18,1.95,3.48.46,1.3.69,2.61.69,3.93,0,2.16-.54,4.13-1.62,5.91-1.08,1.78-2.58,3.11-4.5,3.99,2.44.72,4.37,2.06,5.79,4.02,1.42,1.96,2.13,4.24,2.13,6.84ZM282.89,412.96v15.72h14.64c1.04,0,2.01-.22,2.91-.66.9-.44,1.67-1.02,2.31-1.74.64-.72,1.14-1.55,1.5-2.49.36-.94.54-1.93.54-2.97s-.17-2.1-.51-3.06c-.34-.96-.82-1.79-1.44-2.49-.62-.7-1.35-1.26-2.19-1.68-.84-.42-1.76-.63-2.76-.63h-15ZM306.53,440.2c0-1.04-.18-2.05-.54-3.03-.36-.98-.87-1.84-1.53-2.58-.66-.74-1.44-1.34-2.34-1.8-.9-.46-1.87-.69-2.91-.69h-16.32v16.14h15.9c1.08,0,2.09-.22,3.03-.66.94-.44,1.76-1.03,2.46-1.77.7-.74,1.25-1.6,1.65-2.58.4-.98.6-1.99.6-3.03Z"/>
  <path class="cls-2" d="M321.35,409.3l13.92,22.92,14.04-22.92h4.56l-16.5,26.76v15.84h-4.2v-15.96l-16.44-26.64h4.62Z"/>
  <path class="cls-2" d="M381.82,451.9v-42.6h27.96v3.72h-23.76v15.66h20.04v3.48h-20.04v19.74h-4.2Z"/>
  <path class="cls-2" d="M421.36,451.9v-42.6h18c1.84,0,3.53.39,5.07,1.17,1.54.78,2.87,1.8,3.99,3.06,1.12,1.26,1.99,2.69,2.61,4.29.62,1.6.93,3.22.93,4.86s-.23,3.05-.69,4.47c-.46,1.42-1.1,2.7-1.92,3.84-.82,1.14-1.81,2.1-2.97,2.88-1.16.78-2.46,1.31-3.9,1.59l10.44,16.44h-4.74l-10.02-15.72h-12.6v15.72h-4.2ZM425.56,432.46h13.92c1.24,0,2.37-.27,3.39-.81,1.02-.54,1.89-1.27,2.61-2.19.72-.92,1.28-1.96,1.68-3.12.4-1.16.6-2.38.6-3.66s-.23-2.51-.69-3.69c-.46-1.18-1.08-2.21-1.86-3.09-.78-.88-1.7-1.58-2.76-2.1s-2.17-.78-3.33-.78h-13.56v19.44Z"/>
  <path class="cls-2" d="M493.36,448.18v3.72h-28.62v-42.6h28.08v3.72h-23.88v15.36h20.82v3.54h-20.82v16.26h24.42Z"/>
  <path class="cls-2" d="M534.1,448.18v3.72h-28.62v-42.6h28.08v3.72h-23.88v15.36h20.82v3.54h-20.82v16.26h24.42Z"/>
  <path class="cls-2" d="M549.22,452.54c-1.07,0-1.99-.34-2.77-1.04-.78-.69-1.17-1.66-1.17-2.9,0-1.05.37-1.96,1.11-2.72.74-.76,1.66-1.14,2.74-1.14s2.01.38,2.78,1.13c.77.75,1.15,1.66,1.15,2.73,0,1.23-.38,2.19-1.15,2.89-.77.7-1.67,1.05-2.7,1.05Z"/>
  <path class="cls-2" d="M562.81,451.9v-42.6h4.2v38.88h24.6v3.72h-28.8Z"/>
  <path class="cls-2" d="M615.19,409.3h3.54l17.7,42.6h-4.44l-5.52-13.32h-19.14l-5.46,13.32h-4.5l17.82-42.6ZM625.51,435.28l-8.58-21.06-8.7,21.06h17.28Z"/>
  <path class="cls-2" d="M651.31,409.6h3.96l6,15.12,6.06-15.12h4.02l-7.44,18.18,8.16,19.26,15.42-37.74h4.56l-18.06,42.6h-3.72l-8.94-21.06-9,21.06h-3.66l-18-42.6h4.5l15.48,37.74,8.1-19.26-7.44-18.18Z"/>
  <path class="cls-2" d="M175.93.4c-5.3,1.23-9.58,5.52-10.78,10.83-1.63,7.22,2.18,13.79,8.17,16.54v248.28h12.16V27.77c5.05-2.27,8.57-7.33,8.57-13.21,0-9.13-8.53-16.35-18.11-14.15ZM179.41,21.17c-3.6,0-6.53-2.93-6.53-6.53s2.93-6.53,6.53-6.53,6.53,2.93,6.53,6.53-2.93,6.53-6.53,6.53Z"/>
  <path class="cls-2" d="M206.35,71.88c-5.26,1.23-9.55,5.48-10.75,10.74-1.67,7.1,2,13.52,7.77,16.36v177.07h12.16V99.41c5.26-2.2,8.97-7.39,8.97-13.41,0-9.15-8.57-16.33-18.15-14.13Z"/>
  <path class="cls-2" d="M349.92,132.72c-1.2-5.01-5.23-9.12-10.24-10.42-7.77-2.06-14.92,2.13-17.53,8.58h-91.26v145.26h12.2v-133.14h45.81l-.11,25.19,8.06-.22.14-24.98h25.77c2.43,4.65,7.3,7.86,12.96,7.86,9.22,0,16.52-8.55,14.19-18.14ZM335.71,142.94c-3.6,0-6.53-2.93-6.53-6.53s2.93-6.53,6.53-6.53,6.53,2.93,6.53,6.53-2.93,6.53-6.53,6.53Z"/>
  <line class="cls-3" x1="62.26" y1="196.3" x2="82.26" y2="243.36"/>
  <line class="cls-3" x1="60.99" y1="196.52" x2="43.9" y2="244.71"/>
  <path class="cls-2" d="M24.26,251.92h75.26v4.47c0,7.53-6.11,13.64-13.64,13.64h-49.41c-6.73,0-12.2-5.47-12.2-12.2v-5.91h0Z" transform="translate(-1.25 .3) rotate(-.27)"/>
  <path class="cls-2" d="M100.53,245.87l-75.99.36c-.9,0-1.63-.85-1.64-1.92v-.09c0-1.06.72-1.93,1.62-1.93l75.99-.36c.9,0,1.63.85,1.64,1.92v.09c0,1.06-.72,1.93-1.62,1.93Z"/>
  <line class="cls-3" x1="293.35" y1="164.12" x2="313.35" y2="211.17"/>
  <line class="cls-3" x1="292.08" y1="164.33" x2="274.99" y2="212.52"/>
  <path class="cls-2" d="M255.35,219.73h75.26v4.47c0,7.53-6.11,13.64-13.64,13.64h-49.41c-6.73,0-12.2-5.47-12.2-12.2v-5.91h0Z" transform="translate(-1.09 1.41) rotate(-.27)"/>
  <path class="cls-2" d="M331.62,213.69l-75.99.36c-.9,0-1.63-.85-1.64-1.92v-.09c0-1.06.72-1.93,1.62-1.93l75.99-.36c.9,0,1.63.85,1.64,1.92v.09c0,1.06-.72,1.93-1.62,1.93Z"/>
  <path class="cls-2" d="M28.67,163.48c-1.74-6.13-7.33-10.67-14.01-10.67-9.26,0-16.52,8.64-14.23,18.26,1.23,5.05,5.19,9.18,10.2,10.53,6.64,1.78,12.85-1.02,16.15-5.95h31.07l-.11,26.8,8.06-.22.15-26.58h45.52l-.42,100.49h12.2l.42-112.65H28.67ZM14.7,173.99c-3.61,0-6.53-2.92-6.53-6.53s2.92-6.53,6.53-6.53,6.53,2.92,6.53,6.53-2.93,6.53-6.53,6.53Z"/>
  <rect class="cls-2" x="141.62" y="410.54" width="12.07" height="42.21"/>
  <rect class="cls-2" x="111.68" y="410.54" width="12.07" height="42.21"/>
  <rect class="cls-2" x="173.35" y="410.54" width="12.07" height="42.21"/>
  <rect class="cls-2" x="203.74" y="410.54" width="12.07" height="42.21"/>
  <rect class="cls-2" x="230.56" y="410.54" width="12.07" height="42.21"/>
  <path class="cls-2" d="M143.58,41.46c-5.01,1.2-9.15,5.19-10.49,10.2-2.07,7.73,2.07,14.85,8.49,17.53v206.86h12.16V68.68c4.79-2.4,8.09-7.3,8.09-13,0-9.26-8.6-16.55-18.26-14.23ZM147.15,61.8c-3.61,0-6.53-2.92-6.53-6.53s2.92-6.53,6.53-6.53,6.53,2.92,6.53,6.53-2.93,6.53-6.53,6.53Z"/>
  <path class="cls-2" d="M177.31,362.76c0,3.5-.7,6.57-2.1,9.21-1.4,2.64-3.32,4.86-5.77,6.64-2.45,1.79-5.29,3.15-8.51,4.08-3.23.93-6.67,1.4-10.32,1.4h-39.99v-82.77h44.3c2.87,0,5.48.62,7.81,1.87,2.33,1.24,4.31,2.86,5.95,4.84,1.63,1.98,2.89,4.24,3.79,6.76.89,2.53,1.34,5.07,1.34,7.64,0,4.04-1.01,7.83-3.03,11.37-2.02,3.54-4.97,6.16-8.86,7.87,4.74,1.4,8.49,3.91,11.25,7.52,2.76,3.61,4.14,8.14,4.14,13.58ZM126.72,315.08v20.87h21.45c2.72,0,5.03-.93,6.94-2.8,1.9-1.87,2.86-4.43,2.86-7.69s-.87-5.71-2.62-7.58c-1.75-1.87-3.91-2.8-6.47-2.8h-22.15ZM161.11,359.73c0-1.48-.25-2.89-.76-4.25-.51-1.36-1.19-2.54-2.04-3.56-.86-1.01-1.87-1.81-3.03-2.39-1.17-.58-2.45-.87-3.85-.87h-24.71v21.8h23.9c1.48,0,2.86-.27,4.14-.82,1.28-.54,2.39-1.3,3.32-2.27.93-.97,1.67-2.12,2.21-3.44.54-1.32.82-2.72.82-4.2Z"/>
  <path class="cls-1" d="M227.56,384.68c-6.06,0-11.56-1.18-16.5-3.56-4.94-2.37-9.17-5.52-12.71-9.44-3.54-3.92-6.28-8.41-8.22-13.46-1.94-5.05-2.91-10.22-2.91-15.5s1.03-10.8,3.09-15.86c2.06-5.05,4.9-9.52,8.51-13.41,3.61-3.89,7.91-6.97,12.88-9.27,4.97-2.29,10.38-3.44,16.2-3.44s11.44,1.22,16.38,3.67c4.94,2.45,9.15,5.65,12.65,9.62,3.5,3.96,6.22,8.47,8.16,13.52,1.94,5.05,2.91,10.18,2.91,15.39,0,5.52-1.01,10.78-3.03,15.8-2.02,5.01-4.82,9.44-8.39,13.29-3.58,3.85-7.85,6.92-12.82,9.21-4.97,2.29-10.38,3.44-16.2,3.44ZM203.54,342.71c0,3.58.54,7.04,1.63,10.38,1.09,3.34,2.66,6.3,4.72,8.86,2.06,2.57,4.58,4.62,7.58,6.18,2.99,1.56,6.39,2.33,10.2,2.33s7.32-.8,10.32-2.39c2.99-1.59,5.52-3.71,7.58-6.35,2.06-2.64,3.61-5.61,4.66-8.92,1.05-3.3,1.57-6.66,1.57-10.08s-.56-7.03-1.69-10.38c-1.13-3.34-2.72-6.29-4.78-8.86-2.06-2.56-4.59-4.6-7.58-6.12-2.99-1.52-6.35-2.27-10.08-2.27s-7.34.8-10.38,2.39c-3.03,1.59-5.56,3.69-7.58,6.29-2.02,2.6-3.56,5.56-4.6,8.86-1.05,3.3-1.57,6.67-1.57,10.08Z"/>
  <path class="cls-2" d="M340.76,315.43h-26.46v68.67h-15.97v-68.67h-26.46v-14.11h68.9v14.11Z"/>
  <path class="cls-2" d="M402.39,322.7c-.55-.54-1.55-1.26-3-2.17-1.45-.91-3.21-1.8-5.28-2.67-2.07-.86-4.32-1.59-6.73-2.18-2.42-.59-4.87-.87-7.36-.83-4.43.06-7.72.92-9.88,2.58-2.15,1.66-3.21,3.97-3.17,6.92.02,1.71.45,3.12,1.28,4.24.83,1.12,2.03,2.09,3.6,2.92,1.57.84,3.54,1.58,5.92,2.25,2.38.67,5.13,1.37,8.25,2.1,4.05,1.03,7.74,2.15,11.06,3.35,3.32,1.2,6.14,2.72,8.46,4.55,2.32,1.83,4.11,4.05,5.39,6.63,1.28,2.59,1.94,5.78,1.99,9.59.06,4.43-.73,8.23-2.35,11.4-1.63,3.17-3.85,5.75-6.66,7.73-2.81,1.98-6.06,3.44-9.73,4.39-3.68.94-7.54,1.44-11.58,1.5-6.22.08-12.37-.77-18.46-2.55-6.09-1.78-11.56-4.35-16.43-7.71l6.92-13.97c.71.69,1.98,1.59,3.83,2.69,1.84,1.1,4.01,2.2,6.51,3.29,2.5,1.09,5.27,2.01,8.32,2.74,3.04.74,6.15,1.08,9.34,1.04,8.86-.12,13.25-3.01,13.18-8.69-.02-1.79-.55-3.3-1.58-4.53-1.03-1.23-2.48-2.3-4.36-3.21-1.88-.91-4.14-1.73-6.8-2.47-2.65-.74-5.62-1.56-8.89-2.44-3.98-1.03-7.43-2.17-10.36-3.42-2.93-1.24-5.38-2.73-7.35-4.45-1.97-1.72-3.45-3.72-4.45-6-1-2.28-1.52-5.01-1.57-8.2-.06-4.2.67-7.94,2.18-11.22,1.51-3.29,3.63-6.03,6.36-8.25,2.73-2.21,5.91-3.91,9.55-5.08,3.64-1.18,7.55-1.79,11.75-1.85,5.83-.08,11.2.76,16.12,2.52,4.92,1.76,9.22,3.86,12.91,6.3l-6.93,13.15Z"/>
  <path class="cls-2" d="M433.45,385.25c-1.92,0-3.57-.62-4.96-1.86-1.39-1.24-2.09-2.97-2.09-5.2,0-1.89.67-3.51,2-4.87,1.33-1.36,2.97-2.04,4.92-2.04s3.61.67,4.99,2.02c1.38,1.35,2.06,2.98,2.06,4.89,0,2.2-.69,3.92-2.06,5.17-1.38,1.25-2.99,1.88-4.85,1.88Z"/>
  <path class="cls-2" d="M460.53,384.09v-82.77h8.16v75.54h47.8v7.23h-55.96Z"/>
  <path class="cls-2" d="M556.47,301.32h6.88l34.39,82.77h-8.63l-10.73-25.88h-37.19l-10.61,25.88h-8.74l34.62-82.77ZM576.52,351.8l-16.67-40.92-16.9,40.92h33.58Z"/>
  <path class="cls-2" d="M635.98,301.91h7.69l11.66,29.38,11.77-29.38h7.81l-14.46,35.32,15.85,37.42,29.96-73.33h8.86l-35.09,82.77h-7.23l-17.37-40.92-17.49,40.92h-7.11l-34.97-82.77h8.74l30.08,73.33,15.74-37.42-14.46-35.32Z"/>
</svg>