<svg xmlns="http://www.w3.org/2000/svg" xmlns:svg="http://www.w3.org/2000/svg" id="svg1107" width="453.03" height="286.98" version="1.1" viewBox="0 0 453.03 286.98"><defs id="defs1037"><style id="style1035">.cls-1{fill:#ce1a6f}.cls-1,.cls-2,.cls-3{stroke-width:0}.cls-2{fill:#848582}.cls-4{display:none}.cls-3{fill:#ea9c25}</style></defs><g id="Layer_3" class="cls-4" data-name="Layer 3" transform="translate(-3.49,-6.51)"><rect id="rect1039" width="754.3" height="467" x="-57.3" y="165" class="cls-1"/></g><g id="Layer_2" data-name="Layer 2" transform="translate(-3.49,-6.51)"><g id="g1046"><path id="path1042" d="m 212.4,145.27 h -47.88 v 3.95 c 0.02,4.78 2.93,7.72 7.69,7.72 10.42,-0.02 20.84,-0.05 31.29,-0.07 0.95,-0.02 1.94,-0.05 2.87,-0.3 5.75,-1.53 6.82,-6.29 6.03,-11.3 z" class="cls-2"/><path id="path1044" d="m 222.69,86.56 c -1.73,-1.76 -3.88,-2.63 -6.45,-2.63 -2.77,0 -5.04,0.85 -6.79,2.59 -0.85,0.83 -1.5,1.8 -1.92,2.89 h -57.86 v 92.85 h 7.51 c 0,0 0,-85.34 0,-85.34 h 29.07 c 0,3.35 0,6.7 -0.05,10.05 -0.02,0.65 -0.12,1.34 -0.32,1.94 -3.44,9.73 -6.91,19.43 -10.31,29.14 -0.3,0.85 -0.67,1.13 -1.53,1.11 -3,-0.05 -5.98,0 -8.97,0.02 -0.99,0 -1.39,0.39 -1.39,1.27 0,0.88 0.44,1.29 1.5,1.27 2.87,0 5.71,-0.07 8.57,-0.09 12.94,-0.05 25.88,-0.12 38.84,-0.16 1.18,0 1.73,-0.44 1.71,-1.29 -0.02,-0.85 -0.51,-1.22 -1.66,-1.22 -2.47,0 -4.92,0 -7.37,0.05 -0.72,0.02 -1.04,-0.21 -1.32,-0.88 -4.11,-9.71 -8.23,-19.39 -12.34,-29.09 -0.14,-0.3 -0.21,-0.62 -0.21,-0.95 V 96.93 h 16.13 c 0.39,0.95 0.97,1.85 1.71,2.7 1.64,1.85 3.93,2.8 6.89,2.8 2.61,0 4.81,-0.88 6.54,-2.66 1.73,-1.76 2.61,-3.95 2.61,-6.63 0,-2.68 -0.88,-4.78 -2.61,-6.56 z m -23.16,52.38 h -19.62 c 2.93,-8.27 5.87,-16.57 8.8,-24.84 h 0.25 c 3.51,8.23 7,16.45 10.56,24.84 z m 19.34,-42.65 c -0.79,0.88 -1.71,1.32 -2.77,1.32 -1.06,0 -2.06,-0.44 -2.84,-1.34 -0.79,-0.9 -1.18,-1.99 -1.18,-3.26 0,-1.18 0.42,-2.17 1.2,-3 0.79,-0.85 1.73,-1.27 2.82,-1.27 1.09,0 1.99,0.46 2.77,1.34 0.79,0.9 1.18,1.94 1.18,3.14 0,1.2 -0.39,2.2 -1.18,3.07 z" class="cls-2"/></g><g id="g1052"><path id="path1048" d="M 65.88,165.93 H 18 c 0,1.43 -0.02,2.68 0,3.93 0,4.78 2.93,7.72 7.67,7.72 10.42,-0.02 20.87,-0.05 31.29,-0.07 0.95,0 1.94,-0.05 2.87,-0.3 5.75,-1.53 6.82,-6.29 6.05,-11.28 z" class="cls-2"/><path id="path1050" d="m 21.44,110.22 c -0.44,-1.22 -1.13,-2.33 -2.08,-3.3 -1.76,-1.76 -3.91,-2.63 -6.47,-2.63 -2.75,0 -5.01,0.85 -6.77,2.59 -1.76,1.74 -2.63,3.97 -2.63,6.7 0,2.4 0.81,4.53 2.45,6.4 1.64,1.85 3.93,2.8 6.89,2.8 2.61,0 4.78,-0.88 6.54,-2.63 0.72,-0.74 1.27,-1.53 1.71,-2.4 H 39.7 c 0,3.28 0,6.59 -0.05,9.87 0,0.65 -0.12,1.34 -0.32,1.94 -3.42,9.73 -6.89,19.41 -10.31,29.14 -0.3,0.85 -0.65,1.11 -1.53,1.11 -2.98,-0.05 -5.98,0 -8.97,0.02 -0.97,0 -1.39,0.39 -1.39,1.27 0.02,0.88 0.46,1.27 1.53,1.27 2.84,-0.02 5.71,-0.07 8.55,-0.09 12.94,-0.07 25.9,-0.12 38.84,-0.16 1.2,-0.02 1.73,-0.44 1.71,-1.32 0,-0.83 -0.49,-1.2 -1.66,-1.2 -2.45,0 -4.92,-0.02 -7.37,0.05 -0.69,0 -1.04,-0.21 -1.32,-0.88 -4.09,-9.71 -8.23,-19.39 -12.34,-29.09 -0.12,-0.3 -0.21,-0.65 -0.21,-0.97 0,-3.63 0,-7.3 0.02,-10.95 H 73.9 v 64.52 h 7.51 c 0,0 0,-72.03 0,-72.03 H 21.44 Z m -5.89,6.42 c -0.81,0.88 -1.71,1.32 -2.77,1.32 -1.06,0 -2.06,-0.44 -2.84,-1.34 -0.79,-0.9 -1.18,-1.99 -1.18,-3.26 0,-1.16 0.39,-2.17 1.2,-3 0.79,-0.83 1.73,-1.27 2.82,-1.27 1.09,0 1.96,0.46 2.77,1.34 0.79,0.9 1.18,1.94 1.18,3.14 0,1.2 -0.39,2.22 -1.18,3.07 z m 37.46,42.94 H 33.39 c 2.93,-8.27 5.87,-16.57 8.8,-24.84 0.07,0 0.16,0 0.25,-0.02 3.49,8.23 6.98,16.48 10.56,24.86 z" class="cls-2"/></g><path id="path1054" d="m 103.22,33.13 c -1.73,-1.76 -3.88,-2.63 -6.45,-2.63 -2.75,0 -5.01,0.85 -6.77,2.59 -1.78,1.73 -2.66,3.97 -2.66,6.7 0,2.4 0.83,4.53 2.47,6.4 0.83,0.95 1.85,1.66 3.03,2.1 v 133.95 h 7.51 V 48.29 c 1.06,-0.44 2.01,-1.09 2.87,-1.96 1.76,-1.76 2.61,-3.95 2.61,-6.63 0,-2.68 -0.85,-4.78 -2.61,-6.56 z m -3.81,9.73 c -0.79,0.88 -1.71,1.32 -2.75,1.32 -1.11,0 -2.06,-0.44 -2.84,-1.34 -0.79,-0.9 -1.18,-1.99 -1.18,-3.26 0,-1.18 0.39,-2.17 1.18,-3 0.79,-0.85 1.73,-1.27 2.84,-1.27 1.04,0 1.96,0.46 2.75,1.34 0.81,0.9 1.2,1.94 1.2,3.14 0,1.2 -0.39,2.2 -1.2,3.07 z" class="cls-2"/><path id="path1056" d="m 124.8,15.73 c 0,-2.61 -0.88,-4.81 -2.61,-6.56 -1.76,-1.78 -3.91,-2.66 -6.47,-2.66 -2.75,0 -5.01,0.88 -6.77,2.61 -1.76,1.73 -2.63,3.95 -2.63,6.68 0,2.43 0.81,4.55 2.45,6.4 0.88,1.02 1.96,1.73 3.24,2.2 h -0.21 v 157.85 h 7.51 V 24.4 h -0.25 c 1.18,-0.42 2.22,-1.11 3.14,-2.03 1.73,-1.76 2.61,-3.97 2.61,-6.63 z m -6.42,3.17 c -0.81,0.88 -1.73,1.29 -2.77,1.29 -1.11,0 -2.06,-0.44 -2.84,-1.34 -0.79,-0.88 -1.18,-1.96 -1.18,-3.24 0,-1.18 0.39,-2.17 1.18,-3.03 0.81,-0.83 1.73,-1.25 2.84,-1.25 1.04,0 1.96,0.44 2.77,1.34 0.79,0.9 1.18,1.94 1.18,3.12 0,1.18 -0.39,2.22 -1.18,3.1 z" class="cls-2"/><rect id="rect1058" width="7.44" height="26.77" x="149.67" y="266.71" class="cls-2"/><rect id="rect1060" width="7.44" height="26.77" x="73.99" y="266.71" class="cls-2"/><rect id="rect1062" width="7.44" height="26.77" x="92.91" y="266.71" class="cls-2"/><rect id="rect1064" width="7.44" height="26.77" x="111.83" y="266.71" class="cls-2"/><path id="path1066" d="m 132.09,52.07 c -3.34,0.78 -6.05,3.47 -6.81,6.81 -1.06,4.5 1.27,8.57 4.92,10.37 v 112.23 h 7.71 V 69.52 c 3.34,-1.39 5.68,-4.68 5.68,-8.5 0,-5.8 -5.43,-10.35 -11.5,-8.96 z" class="cls-3"/><rect id="rect1068" width="7.65" height="26.76" x="130.64" y="266.73" class="cls-3"/><path id="path1070" d="m 115.61,236.45 c 0,2.22 -0.44,4.16 -1.33,5.84 -0.89,1.67 -2.11,3.08 -3.66,4.21 -1.55,1.13 -3.35,1.99 -5.39,2.59 -2.04,0.59 -4.22,0.89 -6.54,0.89 H 73.34 v -52.46 h 28.08 c 1.82,0 3.47,0.39 4.95,1.18 1.48,0.79 2.73,1.81 3.77,3.07 1.03,1.26 1.83,2.69 2.4,4.29 0.57,1.6 0.85,3.21 0.85,4.84 0,2.56 -0.64,4.96 -1.92,7.2 -1.28,2.24 -3.15,3.91 -5.62,4.99 3,0.89 5.38,2.48 7.13,4.77 1.75,2.29 2.62,5.16 2.62,8.61 z M 83.54,206.22 v 13.23 h 13.6 c 1.72,0 3.19,-0.59 4.4,-1.77 1.21,-1.18 1.81,-2.81 1.81,-4.88 0,-2.07 -0.55,-3.62 -1.66,-4.8 -1.11,-1.18 -2.48,-1.77 -4.1,-1.77 H 83.55 Z m 21.8,28.3 c 0,-0.94 -0.16,-1.83 -0.48,-2.7 -0.32,-0.86 -0.75,-1.61 -1.29,-2.25 -0.54,-0.64 -1.18,-1.15 -1.92,-1.52 -0.74,-0.37 -1.55,-0.55 -2.44,-0.55 H 83.54 v 13.82 h 15.15 c 0.94,0 1.81,-0.17 2.62,-0.52 0.81,-0.34 1.51,-0.82 2.11,-1.44 0.59,-0.62 1.06,-1.34 1.4,-2.18 0.34,-0.84 0.52,-1.72 0.52,-2.66 z" class="cls-3"/><path id="path1072" d="m 147.46,250.34 c -3.84,0 -7.33,-0.75 -10.46,-2.25 -3.13,-1.5 -5.81,-3.5 -8.05,-5.99 -2.24,-2.49 -3.98,-5.33 -5.21,-8.53 -1.23,-3.2 -1.85,-6.48 -1.85,-9.83 0,-3.35 0.65,-6.85 1.96,-10.05 1.3,-3.2 3.1,-6.03 5.39,-8.5 2.29,-2.46 5.01,-4.42 8.17,-5.87 3.15,-1.45 6.58,-2.18 10.27,-2.18 3.69,0 7.25,0.78 10.38,2.33 3.13,1.55 5.8,3.58 8.02,6.1 2.22,2.51 3.94,5.37 5.17,8.57 1.23,3.2 1.85,6.45 1.85,9.75 0,3.5 -0.64,6.83 -1.92,10.01 -1.28,3.18 -3.06,5.99 -5.32,8.42 -2.27,2.44 -4.98,4.39 -8.13,5.84 -3.15,1.45 -6.58,2.18 -10.27,2.18 z m -15.22,-26.6 c 0,2.27 0.34,4.46 1.03,6.58 0.69,2.12 1.69,3.99 2.99,5.62 1.3,1.63 2.91,2.93 4.8,3.92 1.9,0.99 4.05,1.48 6.47,1.48 2.42,0 4.64,-0.5 6.54,-1.51 1.9,-1.01 3.5,-2.35 4.8,-4.03 1.3,-1.67 2.29,-3.56 2.96,-5.65 0.67,-2.09 1,-4.22 1,-6.39 0,-2.17 -0.36,-4.46 -1.07,-6.58 -0.71,-2.12 -1.72,-3.99 -3.03,-5.62 -1.31,-1.63 -2.91,-2.92 -4.8,-3.88 -1.9,-0.96 -4.03,-1.44 -6.39,-1.44 -2.36,0 -4.66,0.51 -6.58,1.52 -1.92,1.01 -3.52,2.34 -4.8,3.99 -1.28,1.65 -2.25,3.52 -2.92,5.62 -0.66,2.09 -1,4.22 -1,6.39 z" class="cls-3"/><path id="path1074" d="m 219.21,206.44 h -16.77 v 43.52 h -10.12 v -43.52 h -16.77 v -8.94 h 43.67 v 8.94 z" class="cls-3"/><path id="path1076" d="m 258.45,211.25 c -0.35,-0.34 -0.97,-0.81 -1.88,-1.4 -0.91,-0.59 -2.02,-1.17 -3.33,-1.74 -1.31,-0.57 -2.72,-1.05 -4.25,-1.44 -1.53,-0.39 -3.08,-0.59 -4.66,-0.59 -2.81,0 -4.9,0.52 -6.28,1.55 -1.38,1.03 -2.07,2.49 -2.07,4.36 0,1.08 0.26,1.98 0.78,2.7 0.52,0.71 1.27,1.34 2.25,1.88 0.98,0.54 2.23,1.03 3.73,1.48 1.5,0.44 3.24,0.91 5.21,1.4 2.56,0.69 4.89,1.43 6.98,2.22 2.09,0.79 3.87,1.77 5.32,2.96 1.45,1.18 2.57,2.6 3.36,4.25 0.79,1.65 1.18,3.68 1.18,6.1 0,2.81 -0.53,5.21 -1.59,7.21 -1.06,1.99 -2.49,3.61 -4.29,4.84 -1.8,1.23 -3.87,2.13 -6.21,2.7 -2.34,0.57 -4.79,0.85 -7.35,0.85 -3.94,0 -7.83,-0.59 -11.68,-1.77 -3.84,-1.18 -7.29,-2.86 -10.34,-5.02 l 4.51,-8.79 c 0.44,0.44 1.24,1.02 2.4,1.74 1.16,0.71 2.52,1.43 4.1,2.14 1.58,0.71 3.33,1.32 5.25,1.81 1.92,0.49 3.89,0.74 5.91,0.74 5.62,0 8.42,-1.8 8.42,-5.39 0,-1.13 -0.32,-2.09 -0.96,-2.88 -0.64,-0.79 -1.55,-1.48 -2.73,-2.07 -1.18,-0.59 -2.61,-1.13 -4.29,-1.63 -1.68,-0.49 -3.55,-1.03 -5.62,-1.63 -2.51,-0.69 -4.69,-1.44 -6.54,-2.25 -1.85,-0.81 -3.39,-1.77 -4.62,-2.88 -1.23,-1.11 -2.16,-2.39 -2.77,-3.84 -0.62,-1.45 -0.92,-3.19 -0.92,-5.21 0,-2.66 0.49,-5.02 1.48,-7.09 0.98,-2.07 2.35,-3.79 4.1,-5.17 1.75,-1.38 3.78,-2.43 6.1,-3.14 2.32,-0.71 4.8,-1.07 7.46,-1.07 3.69,0 7.09,0.58 10.2,1.74 3.1,1.16 5.81,2.53 8.13,4.1 l -4.51,8.28 z" class="cls-3"/><path id="path1078" d="m 295.13,249.97 v -52.46 h 5.17 v 47.88 h 30.3 v 4.58 z" class="cls-3"/><path id="path1080" d="m 355.94,197.5 h 4.36 l 21.8,52.46 h -5.47 l -6.8,-16.4 h -23.57 l -6.72,16.4 H 334 l 21.95,-52.46 z m 12.71,32 -10.57,-25.94 -10.71,25.94 z" class="cls-3"/><path id="path1082" d="m 406.34,197.87 h 4.88 l 7.39,18.62 7.46,-18.62 h 4.95 l -9.16,22.39 10.05,23.72 18.99,-46.48 h 5.62 l -22.24,52.46 h -4.58 l -11.01,-25.94 -11.08,25.94 H 403.1 L 380.93,197.5 h 5.54 l 19.06,46.48 9.98,-23.72 -9.16,-22.39 z" class="cls-3"/><path id="path1084" d="m 200.18,285.98 c 0,1.01 -0.2,1.95 -0.61,2.8 -0.41,0.85 -0.95,1.59 -1.64,2.21 -0.68,0.62 -1.48,1.1 -2.4,1.45 -0.92,0.35 -1.89,0.51 -2.93,0.51 h -12.74 v -27 h 13.01 c 0.94,0 1.79,0.2 2.55,0.61 0.76,0.41 1.41,0.93 1.94,1.58 0.53,0.65 0.94,1.38 1.24,2.21 0.29,0.82 0.44,1.65 0.44,2.49 0,1.37 -0.34,2.62 -1.03,3.75 -0.68,1.13 -1.64,1.97 -2.85,2.53 1.55,0.46 2.77,1.31 3.67,2.55 0.9,1.24 1.35,2.69 1.35,4.34 z m -17.65,-17.72 v 9.96 h 9.28 c 0.66,0 1.27,-0.14 1.84,-0.42 0.57,-0.28 1.06,-0.65 1.46,-1.1 0.41,-0.46 0.72,-0.98 0.95,-1.58 0.23,-0.6 0.34,-1.22 0.34,-1.88 0,-0.66 -0.11,-1.33 -0.32,-1.94 -0.22,-0.61 -0.52,-1.13 -0.91,-1.58 -0.39,-0.44 -0.86,-0.8 -1.39,-1.06 -0.53,-0.27 -1.12,-0.4 -1.75,-0.4 h -9.51 z m 14.99,17.27 c 0,-0.66 -0.11,-1.3 -0.34,-1.92 -0.23,-0.62 -0.55,-1.17 -0.97,-1.63 -0.42,-0.47 -0.91,-0.85 -1.48,-1.14 -0.57,-0.29 -1.19,-0.44 -1.84,-0.44 h -10.34 v 10.23 h 10.08 c 0.68,0 1.32,-0.14 1.92,-0.42 0.6,-0.28 1.12,-0.65 1.56,-1.12 0.44,-0.47 0.79,-1.01 1.05,-1.64 0.25,-0.62 0.38,-1.26 0.38,-1.92 z" class="cls-2"/><path id="path1086" d="m 206.91,265.94 8.82,14.53 8.9,-14.53 h 2.89 l -10.46,16.96 v 10.04 h -2.66 v -10.12 l -10.42,-16.89 h 2.93 z" class="cls-2"/><path id="path1088" d="m 245.24,292.94 v -27 h 17.72 v 2.36 H 247.9 v 9.93 h 12.7 v 2.21 h -12.7 v 12.51 h -2.66 z" class="cls-2"/><path id="path1090" d="m 270.3,292.94 v -27 h 11.41 c 1.17,0 2.24,0.25 3.21,0.74 0.98,0.49 1.82,1.14 2.53,1.94 0.71,0.8 1.26,1.71 1.65,2.72 0.39,1.01 0.59,2.04 0.59,3.08 0,1.04 -0.15,1.93 -0.44,2.83 -0.29,0.9 -0.7,1.71 -1.22,2.43 -0.52,0.72 -1.15,1.33 -1.88,1.83 -0.74,0.49 -1.56,0.83 -2.47,1.01 l 6.62,10.42 h -3 l -6.35,-9.96 h -7.99 v 9.96 z m 2.66,-12.32 h 8.82 c 0.79,0 1.5,-0.17 2.15,-0.51 0.65,-0.34 1.2,-0.8 1.65,-1.39 0.46,-0.58 0.81,-1.24 1.06,-1.98 0.25,-0.74 0.38,-1.51 0.38,-2.32 0,-0.81 -0.15,-1.59 -0.44,-2.34 -0.29,-0.75 -0.68,-1.4 -1.18,-1.96 -0.49,-0.56 -1.08,-1 -1.75,-1.33 -0.67,-0.33 -1.38,-0.49 -2.11,-0.49 h -8.59 v 12.32 z" class="cls-2"/><path id="path1092" d="m 315.94,290.59 v 2.36 H 297.8 v -27 h 17.8 v 2.36 h -15.14 v 9.74 h 13.2 v 2.24 h -13.2 v 10.31 h 15.48 z" class="cls-2"/><path id="path1094" d="m 341.76,290.59 v 2.36 h -18.14 v -27 h 17.8 v 2.36 h -15.14 v 9.74 h 13.2 v 2.24 h -13.2 v 10.31 h 15.48 z" class="cls-2"/><path id="path1096" d="m 351.34,293.35 c -0.68,0 -1.26,-0.22 -1.75,-0.66 -0.49,-0.44 -0.74,-1.05 -0.74,-1.84 0,-0.67 0.24,-1.24 0.71,-1.72 0.47,-0.48 1.05,-0.72 1.74,-0.72 0.69,0 1.28,0.24 1.76,0.71 0.49,0.48 0.73,1.05 0.73,1.73 0,0.78 -0.24,1.39 -0.73,1.83 -0.49,0.44 -1.06,0.66 -1.71,0.66 z" class="cls-2"/><path id="path1098" d="m 359.96,292.94 v -27 h 2.66 v 24.64 h 15.59 v 2.36 z" class="cls-2"/><path id="path1100" d="m 277.96,250.7 c -1.22,0 -2.26,-0.39 -3.15,-1.18 -0.88,-0.78 -1.32,-1.88 -1.32,-3.29 0,-1.2 0.42,-2.22 1.26,-3.09 0.84,-0.86 1.88,-1.29 3.12,-1.29 1.24,0 2.29,0.43 3.16,1.28 0.87,0.85 1.31,1.89 1.31,3.1 0,1.39 -0.44,2.48 -1.31,3.28 -0.87,0.79 -1.9,1.19 -3.07,1.19 z" class="cls-3"/><path id="path1102" d="m 393.16,265.94 h 2.24 l 11.22,27 h -2.81 l -3.5,-8.44 h -12.13 l -3.46,8.44 h -2.85 l 11.3,-27 z m 6.54,16.47 -5.44,-13.35 -5.51,13.35 z" class="cls-2"/><path id="path1104" d="m 416.05,266.13 h 2.51 l 3.8,9.58 3.84,-9.58 h 2.55 l -4.72,11.52 5.17,12.21 9.77,-23.92 h 2.89 l -11.45,27 h -2.36 l -5.67,-13.35 -5.7,13.35 h -2.32 l -11.41,-27 h 2.85 l 9.81,23.92 5.13,-12.21 -4.72,-11.52 z" class="cls-2"/></g></svg>