<?xml version="1.0" encoding="UTF-8"?>
<svg xmlns="http://www.w3.org/2000/svg" version="1.1" viewBox="0 0 757.33 473">
  <defs>
    <style>
      .cls-1 {
        fill: #848582;
      }

      .cls-1, .cls-2, .cls-3 {
        stroke-width: 0px;
      }

      .cls-2 {
        fill: #5064ad;
      }

      .cls-3 {
        fill: #848582;
      }
    </style>
  </defs>
  <g id="Layer_2" data-name="Layer 2">
    <g>
      <rect class="cls-1" x="265.78" y="417.66" width="11.75" height="42.29"/>
      <rect class="cls-1" x="147.26" y="417.66" width="11.75" height="42.29"/>
      <rect class="cls-1" x="206.52" y="417.66" width="11.75" height="42.29"/>
      <rect class="cls-1" x="236.35" y="417.66" width="11.75" height="42.29"/>
    </g>
    <path class="cls-3" d="M585.88,459.95c-1.07,0-1.99-.34-2.77-1.04-.78-.69-1.17-1.66-1.17-2.9,0-1.05.37-1.96,1.11-2.72.74-.76,1.66-1.14,2.74-1.14s2.01.38,2.78,1.13c.77.75,1.15,1.66,1.15,2.73,0,1.23-.38,2.19-1.15,2.89-.77.7-1.67,1.05-2.7,1.05Z"/>
    <g>
      <path class="cls-2" d="M147.74,396.96v-96.67h42.75c4.45,0,8.55.93,12.32,2.79,3.77,1.86,7.01,4.31,9.73,7.35,2.72,3.04,4.85,6.49,6.4,10.35,1.54,3.86,2.31,7.74,2.31,11.64,0,6.26-1.57,11.96-4.7,17.09-3.13,5.13-7.38,8.83-12.73,11.1l22.06,36.35h-21.1l-19.74-32.4h-18.52v32.4h-18.79ZM166.53,348.08h23.55c1.72,0,3.34-.41,4.83-1.22,1.5-.82,2.79-1.93,3.88-3.34,1.09-1.41,1.95-3.06,2.59-4.97.63-1.91.95-3.95.95-6.13s-.36-4.36-1.09-6.26c-.73-1.91-1.7-3.56-2.93-4.97-1.23-1.41-2.63-2.5-4.22-3.27-1.59-.77-3.2-1.16-4.83-1.16h-22.74v31.31Z"/>
      <path class="cls-2" d="M305.4,380.48v16.47h-67.12v-96.67h65.9v16.47h-47.11v23.28h40.71v15.25h-40.71v25.19h48.33Z"/>
    </g>
    <g>
      <path class="cls-2" d="M312.2,347.94c0-5.9,1.07-11.73,3.2-17.5,2.13-5.76,5.24-10.91,9.33-15.45,4.08-4.54,9.08-8.21,14.98-11.03,5.9-2.81,12.62-4.22,20.15-4.22,8.89,0,16.59,1.95,23.08,5.85,6.49,3.9,11.32,8.99,14.5,15.25l-14.43,9.94c-1.27-2.72-2.81-5.01-4.63-6.88-1.82-1.86-3.77-3.34-5.85-4.42-2.09-1.09-4.27-1.88-6.54-2.38-2.27-.5-4.49-.75-6.67-.75-4.72,0-8.83.95-12.32,2.86-3.5,1.91-6.4,4.38-8.71,7.42-2.31,3.04-4.06,6.49-5.24,10.35-1.18,3.86-1.77,7.69-1.77,11.5,0,4.27.68,8.37,2.04,12.32s3.29,7.42,5.79,10.42c2.5,3,5.49,5.4,8.99,7.22,3.49,1.82,7.33,2.72,11.5,2.72,2.18,0,4.45-.27,6.81-.82,2.36-.54,4.61-1.41,6.74-2.59,2.13-1.18,4.11-2.7,5.92-4.56,1.81-1.86,3.27-4.11,4.36-6.74l15.38,8.85c-1.54,3.63-3.74,6.83-6.6,9.6-2.86,2.77-6.08,5.11-9.67,7.01-3.59,1.91-7.42,3.36-11.5,4.36s-8.08,1.5-11.98,1.5c-6.9,0-13.21-1.45-18.92-4.36-5.72-2.9-10.64-6.69-14.77-11.37-4.13-4.67-7.35-9.98-9.67-15.93-2.31-5.94-3.47-12-3.47-18.18Z"/>
      <path class="cls-2" d="M437.6,300.29h16.61l36.76,96.67h-19.33l-8.99-24.1h-33.77l-8.85,24.1h-19.33l36.9-96.67ZM459.24,359.65l-13.34-37.99-13.89,37.99h27.23Z"/>
    </g>
    <path class="cls-2" d="M501.59,396.96v-96.67h40.98c4.45,0,8.55.93,12.32,2.79,3.77,1.86,7.01,4.31,9.74,7.35,2.72,3.04,4.85,6.49,6.4,10.35,1.54,3.86,2.31,7.74,2.31,11.64s-.73,8.06-2.18,11.91c-1.45,3.86-3.5,7.28-6.13,10.28-2.63,3-5.81,5.4-9.53,7.22-3.72,1.82-7.81,2.72-12.25,2.72h-22.87v32.4h-18.79ZM520.38,348.08h21.78c3.45,0,6.33-1.41,8.65-4.22,2.31-2.81,3.47-6.62,3.47-11.44,0-2.45-.36-4.65-1.09-6.6-.73-1.95-1.68-3.61-2.86-4.97-1.18-1.36-2.57-2.38-4.15-3.06-1.59-.68-3.2-1.02-4.83-1.02h-20.97v31.31Z"/>
    <path class="cls-3" d="M347.39,448.32c0,1.6-.32,3.07-.96,4.41-.64,1.34-1.5,2.5-2.58,3.48-1.08.98-2.34,1.74-3.78,2.28s-2.98.81-4.62.81h-20.1v-42.6h20.52c1.48,0,2.82.32,4.02.96,1.2.64,2.22,1.47,3.06,2.49.84,1.02,1.49,2.18,1.95,3.48.46,1.3.69,2.61.69,3.93,0,2.16-.54,4.13-1.62,5.91-1.08,1.78-2.58,3.11-4.5,3.99,2.44.72,4.37,2.06,5.79,4.02,1.42,1.96,2.13,4.24,2.13,6.84ZM319.55,420.36v15.72h14.64c1.04,0,2.01-.22,2.91-.66.9-.44,1.67-1.02,2.31-1.74.64-.72,1.14-1.55,1.5-2.49.36-.94.54-1.93.54-2.97s-.17-2.1-.51-3.06c-.34-.96-.82-1.79-1.44-2.49-.62-.7-1.35-1.26-2.19-1.68-.84-.42-1.76-.63-2.76-.63h-15ZM343.19,447.6c0-1.04-.18-2.05-.54-3.03-.36-.98-.87-1.84-1.53-2.58-.66-.74-1.44-1.34-2.34-1.8-.9-.46-1.87-.69-2.91-.69h-16.32v16.14h15.9c1.08,0,2.09-.22,3.03-.66.94-.44,1.76-1.03,2.46-1.77.7-.74,1.25-1.6,1.65-2.58.4-.98.6-1.99.6-3.03Z"/>
    <path class="cls-3" d="M358.01,416.7l13.92,22.92,14.04-22.92h4.56l-16.5,26.76v15.84h-4.2v-15.96l-16.44-26.64h4.62Z"/>
    <path class="cls-3" d="M418.49,459.3v-42.6h27.96v3.72h-23.76v15.66h20.04v3.48h-20.04v19.74h-4.2Z"/>
    <path class="cls-3" d="M458.03,459.3v-42.6h18c1.84,0,3.53.39,5.07,1.17,1.54.78,2.87,1.8,3.99,3.06,1.12,1.26,1.99,2.69,2.61,4.29.62,1.6.93,3.22.93,4.86s-.23,3.05-.69,4.47c-.46,1.42-1.1,2.7-1.92,3.84-.82,1.14-1.81,2.1-2.97,2.88-1.16.78-2.46,1.31-3.9,1.59l10.44,16.44h-4.74l-10.02-15.72h-12.6v15.72h-4.2ZM462.23,439.86h13.92c1.24,0,2.37-.27,3.39-.81,1.02-.54,1.89-1.27,2.61-2.19.72-.92,1.28-1.96,1.68-3.12.4-1.16.6-2.38.6-3.66s-.23-2.51-.69-3.69c-.46-1.18-1.08-2.21-1.86-3.09-.78-.88-1.7-1.58-2.76-2.1s-2.17-.78-3.33-.78h-13.56v19.44Z"/>
    <path class="cls-3" d="M530.03,455.58v3.72h-28.62v-42.6h28.08v3.72h-23.88v15.36h20.82v3.54h-20.82v16.26h24.42Z"/>
    <path class="cls-3" d="M570.77,455.58v3.72h-28.62v-42.6h28.08v3.72h-23.88v15.36h20.82v3.54h-20.82v16.26h24.42Z"/>
    <path class="cls-3" d="M599.48,459.3v-42.6h4.2v38.88h24.6v3.72h-28.8Z"/>
    <path class="cls-3" d="M651.86,416.7h3.54l17.7,42.6h-4.44l-5.52-13.32h-19.14l-5.46,13.32h-4.5l17.82-42.6ZM662.18,442.68l-8.58-21.06-8.7,21.06h17.28Z"/>
    <path class="cls-3" d="M695.77,417h3.96l6,15.12,6.06-15.12h4.02l-7.44,18.18,8.16,19.26,15.42-37.74h4.56l-18.06,42.6h-3.72l-8.94-21.06-9,21.06h-3.66l-18-42.6h4.5l15.48,37.74,8.1-19.26-7.44-18.18Z"/>
    <path class="cls-2" d="M179.64,48.12c-5.01,1.2-9.15,5.19-10.49,10.2-2.07,7.73,2.07,14.85,8.49,17.53v206.86h12.16V75.35c4.79-2.4,8.1-7.3,8.1-13,0-9.26-8.6-16.55-18.26-14.23Z"/>
    <rect class="cls-2" x="177.67" y="417.2" width="12.07" height="42.21"/>
  </g>
  <g id="Layer_3" data-name="Layer 3">
    <g>
      <path class="cls-1" d="M364.97,225.84h-75.63v6.24c.04,7.56,4.64,12.19,12.15,12.19,16.46-.04,32.92-.07,49.42-.11,1.5-.04,3.07-.07,4.53-.47,9.09-2.41,10.77-9.93,9.53-17.85Z"/>
      <path class="cls-1" d="M381.21,133.09c-2.74-2.77-6.13-4.16-10.18-4.16-4.38,0-7.96,1.35-10.73,4.09-1.35,1.31-2.37,2.85-3.03,4.56h-91.39v146.65h11.86s0-134.79,0-134.79h45.92c0,5.29,0,10.58-.07,15.88-.04,1.02-.18,2.12-.51,3.07-5.44,15.37-10.91,30.7-16.28,46.03-.47,1.35-1.06,1.79-2.41,1.75-4.74-.07-9.45,0-14.16.04-1.57,0-2.19.62-2.19,2.01s.69,2.04,2.37,2.01c4.53,0,9.02-.11,13.54-.15,20.44-.07,40.88-.18,61.35-.26,1.86,0,2.74-.69,2.7-2.04s-.8-1.93-2.63-1.93c-3.91,0-7.77,0-11.64.07-1.13.04-1.64-.33-2.08-1.39-6.5-15.33-12.99-30.62-19.49-45.95-.22-.47-.33-.99-.33-1.5v-17.63h25.48c.62,1.5,1.53,2.92,2.7,4.27,2.59,2.92,6.2,4.42,10.88,4.42,4.12,0,7.59-1.39,10.33-4.2,2.74-2.77,4.12-6.24,4.12-10.48s-1.39-7.56-4.12-10.37ZM344.64,215.84h-30.99c4.64-13.07,9.27-26.17,13.91-39.24h.4c5.55,12.99,11.06,25.99,16.68,39.24ZM375.19,148.46c-1.24,1.39-2.7,2.08-4.38,2.08s-3.25-.69-4.49-2.12c-1.24-1.42-1.86-3.14-1.86-5.15,0-1.86.66-3.43,1.9-4.74,1.24-1.35,2.74-2.01,4.45-2.01s3.14.73,4.38,2.12c1.24,1.42,1.86,3.07,1.86,4.96s-.62,3.47-1.86,4.85Z"/>
      <path class="cls-1" d="M133.53,258.47H57.91c0,2.26-.04,4.23,0,6.2,0,7.56,4.64,12.19,12.12,12.19,16.46-.04,32.96-.07,49.42-.11,1.5,0,3.07-.07,4.53-.47,9.09-2.41,10.77-9.93,9.56-17.81Z"/>
      <path class="cls-1" d="M63.35,170.47c-.69-1.93-1.79-3.69-3.28-5.22-2.77-2.77-6.17-4.16-10.22-4.16-4.34,0-7.92,1.35-10.69,4.09s-4.16,6.28-4.16,10.58c0,3.8,1.28,7.15,3.87,10.11,2.59,2.92,6.2,4.42,10.88,4.42,4.12,0,7.56-1.39,10.33-4.16,1.13-1.17,2.01-2.41,2.7-3.8h29.42c0,5.18,0,10.4-.07,15.59,0,1.02-.18,2.12-.51,3.07-5.4,15.37-10.88,30.66-16.28,46.02-.47,1.35-1.02,1.75-2.41,1.75-4.71-.07-9.45,0-14.16.04-1.53,0-2.19.62-2.19,2.01.04,1.39.73,2.01,2.41,2.01,4.49-.04,9.02-.11,13.5-.15,20.44-.11,40.91-.18,61.35-.26,1.9-.04,2.74-.69,2.7-2.08,0-1.31-.77-1.9-2.63-1.9-3.87,0-7.77-.04-11.64.07-1.09,0-1.64-.33-2.08-1.39-6.46-15.33-12.99-30.62-19.49-45.95-.18-.47-.33-1.02-.33-1.53,0-5.73,0-11.53.04-17.3h45.84v101.9h11.86s0-113.77,0-113.77H63.35ZM54.04,180.62c-1.28,1.39-2.7,2.08-4.38,2.08s-3.25-.69-4.49-2.12c-1.24-1.42-1.86-3.14-1.86-5.15,0-1.82.62-3.43,1.9-4.75,1.24-1.31,2.74-2.01,4.45-2.01s3.1.73,4.38,2.12c1.24,1.42,1.86,3.07,1.86,4.96s-.62,3.5-1.86,4.85ZM113.2,248.43h-30.99c4.64-13.07,9.27-26.17,13.91-39.24.11,0,.26,0,.4-.04,5.51,12.99,11.02,26.02,16.68,39.27Z"/>
      <path class="cls-1" d="M226.6,21.23c0-4.12-1.39-7.59-4.12-10.37-2.77-2.81-6.17-4.2-10.22-4.2-4.34,0-7.92,1.39-10.69,4.12s-4.16,6.24-4.16,10.55c0,3.83,1.28,7.19,3.87,10.11,1.39,1.61,3.1,2.74,5.11,3.47h-.33v249.32h11.86V34.91h-.4c1.86-.66,3.5-1.75,4.96-3.21,2.74-2.77,4.12-6.28,4.12-10.48ZM216.46,26.23c-1.28,1.39-2.74,2.04-4.38,2.04-1.75,0-3.25-.69-4.49-2.12-1.24-1.39-1.86-3.1-1.86-5.11,0-1.86.62-3.43,1.86-4.78,1.28-1.31,2.74-1.97,4.49-1.97,1.64,0,3.1.69,4.38,2.12,1.24,1.42,1.86,3.07,1.86,4.93s-.62,3.5-1.86,4.89Z"/>
      <path class="cls-1" d="M252.59,82.8c-2.74-2.77-6.17-4.2-10.22-4.2-4.34,0-7.92,1.39-10.69,4.12-2.77,2.74-4.16,6.24-4.16,10.58,0,3.8,1.28,7.15,3.87,10.11,1.31,1.5,2.92,2.59,4.78,3.32v177.49h11.86V106.74c1.68-.69,3.21-1.75,4.56-3.1,2.74-2.77,4.12-6.28,4.12-10.48s-1.39-7.59-4.12-10.37ZM246.57,98.17c-1.24,1.39-2.7,2.08-4.38,2.08s-3.25-.73-4.49-2.12c-1.24-1.42-1.86-3.14-1.86-5.15,0-1.86.62-3.43,1.9-4.74,1.24-1.35,2.74-2.01,4.45-2.01s3.14.69,4.38,2.12c1.24,1.42,1.86,3.07,1.86,4.96s-.62,3.47-1.86,4.85Z"/>
    </g>
  </g>
</svg>