<?xml version="1.0" encoding="UTF-8"?>
<svg id="Layer_1" data-name="Layer 1" xmlns="http://www.w3.org/2000/svg" viewBox="0 0 700.45 453.28">
  <defs>
    <style>
      .cls-1 {
        stroke: #fff;
        stroke-miterlimit: 10;
        stroke-width: 7px;
      }

      .cls-1, .cls-2 {
        fill: #fff;
      }

      .cls-2 {
        stroke-width: 0px;
      }
    </style>
  </defs>
  <g>
    <g>
      <path class="cls-2" d="M111.69,390.29v-96.67h42.75c4.45,0,8.55.93,12.32,2.79,3.77,1.86,7.01,4.31,9.73,7.35,2.72,3.04,4.85,6.49,6.4,10.35,1.54,3.86,2.31,7.74,2.31,11.64,0,6.26-1.57,11.96-4.7,17.09-3.13,5.13-7.38,8.83-12.73,11.1l22.06,36.35h-21.1l-19.74-32.4h-18.52v32.4h-18.79ZM130.47,341.41h23.55c1.72,0,3.34-.41,4.83-1.22,1.5-.82,2.79-1.93,3.88-3.34,1.09-1.41,1.95-3.06,2.59-4.97.63-1.91.95-3.95.95-6.13s-.36-4.36-1.09-6.26c-.73-1.91-1.7-3.56-2.93-4.97-1.23-1.41-2.63-2.5-4.22-3.27-1.59-.77-3.2-1.16-4.83-1.16h-22.74v31.31Z"/>
      <path class="cls-2" d="M269.35,373.82v16.47h-67.12v-96.67h65.9v16.47h-47.11v23.28h40.71v15.25h-40.71v25.19h48.33Z"/>
    </g>
    <g>
      <path class="cls-2" d="M276.15,341.28c0-5.9,1.07-11.73,3.2-17.5,2.13-5.76,5.24-10.91,9.33-15.45,4.08-4.54,9.08-8.21,14.98-11.03,5.9-2.81,12.62-4.22,20.15-4.22,8.89,0,16.59,1.95,23.08,5.85,6.49,3.9,11.32,8.99,14.5,15.25l-14.43,9.94c-1.27-2.72-2.81-5.01-4.63-6.88-1.82-1.86-3.77-3.34-5.85-4.42-2.09-1.09-4.27-1.88-6.54-2.38-2.27-.5-4.49-.75-6.67-.75-4.72,0-8.83.95-12.32,2.86-3.5,1.91-6.4,4.38-8.71,7.42-2.31,3.04-4.06,6.49-5.24,10.35-1.18,3.86-1.77,7.69-1.77,11.5,0,4.27.68,8.37,2.04,12.32s3.29,7.42,5.79,10.42c2.5,3,5.49,5.4,8.99,7.22,3.49,1.82,7.33,2.72,11.5,2.72,2.18,0,4.45-.27,6.81-.82,2.36-.54,4.61-1.41,6.74-2.59,2.13-1.18,4.11-2.7,5.92-4.56,1.81-1.86,3.27-4.11,4.36-6.74l15.38,8.85c-1.54,3.63-3.74,6.83-6.6,9.6-2.86,2.77-6.08,5.11-9.67,7.01-3.59,1.91-7.42,3.36-11.5,4.36s-8.08,1.5-11.98,1.5c-6.9,0-13.21-1.45-18.92-4.36-5.72-2.9-10.64-6.69-14.77-11.37-4.13-4.67-7.35-9.98-9.67-15.93-2.31-5.94-3.47-12-3.47-18.18Z"/>
      <path class="cls-2" d="M401.54,293.63h16.61l36.76,96.67h-19.33l-8.99-24.1h-33.77l-8.85,24.1h-19.33l36.9-96.67ZM423.19,352.99l-13.34-37.99-13.89,37.99h27.23Z"/>
    </g>
    <path class="cls-2" d="M465.54,390.29v-96.67h40.98c4.45,0,8.55.93,12.32,2.79,3.77,1.86,7.01,4.31,9.74,7.35,2.72,3.04,4.85,6.49,6.4,10.35,1.54,3.86,2.31,7.74,2.31,11.64s-.73,8.06-2.18,11.91c-1.45,3.86-3.5,7.28-6.13,10.28-2.63,3-5.81,5.4-9.53,7.22-3.72,1.82-7.81,2.72-12.25,2.72h-22.87v32.4h-18.79ZM484.33,341.41h21.78c3.45,0,6.33-1.41,8.65-4.22,2.31-2.81,3.47-6.62,3.47-11.44,0-2.45-.36-4.65-1.09-6.6-.73-1.95-1.68-3.61-2.86-4.97-1.18-1.36-2.57-2.38-4.15-3.06-1.59-.68-3.2-1.02-4.83-1.02h-20.97v31.31Z"/>
  </g>
  <g>
    <path class="cls-2" d="M311.33,441.66c0,1.6-.32,3.07-.96,4.41-.64,1.34-1.5,2.5-2.58,3.48-1.08.98-2.34,1.74-3.78,2.28s-2.98.81-4.62.81h-20.1v-42.6h20.52c1.48,0,2.82.32,4.02.96,1.2.64,2.22,1.47,3.06,2.49.84,1.02,1.49,2.18,1.95,3.48.46,1.3.69,2.61.69,3.93,0,2.16-.54,4.13-1.62,5.91-1.08,1.78-2.58,3.11-4.5,3.99,2.44.72,4.37,2.06,5.79,4.02,1.42,1.96,2.13,4.24,2.13,6.84ZM283.49,413.7v15.72h14.64c1.04,0,2.01-.22,2.91-.66.9-.44,1.67-1.02,2.31-1.74.64-.72,1.14-1.55,1.5-2.49.36-.94.54-1.93.54-2.97s-.17-2.1-.51-3.06c-.34-.96-.82-1.79-1.44-2.49-.62-.7-1.35-1.26-2.19-1.68-.84-.42-1.76-.63-2.76-.63h-15ZM307.13,440.94c0-1.04-.18-2.05-.54-3.03-.36-.98-.87-1.84-1.53-2.58-.66-.74-1.44-1.34-2.34-1.8-.9-.46-1.87-.69-2.91-.69h-16.32v16.14h15.9c1.08,0,2.09-.22,3.03-.66.94-.44,1.76-1.03,2.46-1.77.7-.74,1.25-1.6,1.65-2.58.4-.98.6-1.99.6-3.03Z"/>
    <path class="cls-2" d="M321.95,410.04l13.92,22.92,14.04-22.92h4.56l-16.5,26.76v15.84h-4.2v-15.96l-16.44-26.64h4.62Z"/>
  </g>
  <g>
    <path class="cls-2" d="M382.44,452.64v-42.6h27.96v3.72h-23.76v15.66h20.04v3.48h-20.04v19.74h-4.2Z"/>
    <path class="cls-2" d="M421.97,452.64v-42.6h18c1.84,0,3.53.39,5.07,1.17,1.54.78,2.87,1.8,3.99,3.06,1.12,1.26,1.99,2.69,2.61,4.29.62,1.6.93,3.22.93,4.86s-.23,3.05-.69,4.47c-.46,1.42-1.1,2.7-1.92,3.84-.82,1.14-1.81,2.1-2.97,2.88-1.16.78-2.46,1.31-3.9,1.59l10.44,16.44h-4.74l-10.02-15.72h-12.6v15.72h-4.2ZM426.17,433.2h13.92c1.24,0,2.37-.27,3.39-.81,1.02-.54,1.89-1.27,2.61-2.19.72-.92,1.28-1.96,1.68-3.12.4-1.16.6-2.38.6-3.66s-.23-2.51-.69-3.69c-.46-1.18-1.08-2.21-1.86-3.09-.78-.88-1.7-1.58-2.76-2.1s-2.17-.78-3.33-.78h-13.56v19.44Z"/>
    <path class="cls-2" d="M493.97,448.92v3.72h-28.62v-42.6h28.08v3.72h-23.88v15.36h20.82v3.54h-20.82v16.26h24.42Z"/>
    <path class="cls-2" d="M534.71,448.92v3.72h-28.62v-42.6h28.08v3.72h-23.88v15.36h20.82v3.54h-20.82v16.26h24.42Z"/>
  </g>
  <path class="cls-2" d="M549.83,453.28c-1.07,0-1.99-.34-2.77-1.04-.78-.69-1.17-1.66-1.17-2.9,0-1.05.37-1.96,1.11-2.72.74-.76,1.66-1.14,2.74-1.14s2.01.38,2.78,1.13c.77.75,1.15,1.66,1.15,2.73,0,1.23-.38,2.19-1.15,2.89-.77.7-1.67,1.05-2.7,1.05Z"/>
  <g>
    <path class="cls-2" d="M563.43,452.64v-42.6h4.2v38.88h24.6v3.72h-28.8Z"/>
    <path class="cls-2" d="M615.81,410.04h3.54l17.7,42.6h-4.44l-5.52-13.32h-19.14l-5.46,13.32h-4.5l17.82-42.6ZM626.13,436.02l-8.58-21.06-8.7,21.06h17.28Z"/>
  </g>
  <path class="cls-2" d="M659.71,410.34h3.96l6,15.12,6.06-15.12h4.02l-7.44,18.18,8.16,19.26,15.42-37.74h4.56l-18.06,42.6h-3.72l-8.94-21.06-9,21.06h-3.66l-18-42.6h4.5l15.48,37.74,8.1-19.26-7.44-18.18Z"/>
  <g>
    <path class="cls-2" d="M143.58,41.46c-5.01,1.2-9.15,5.19-10.49,10.2-2.07,7.73,2.07,14.85,8.49,17.53v206.86h12.16V68.68c4.79-2.4,8.1-7.3,8.1-13,0-9.26-8.6-16.55-18.26-14.23Z"/>
    <path class="cls-2" d="M175.93.4c-5.3,1.23-9.58,5.52-10.78,10.83-1.63,7.22,2.18,13.79,8.17,16.54v248.28h12.16V27.77c5.05-2.27,8.57-7.33,8.57-13.21,0-9.13-8.53-16.35-18.11-14.15ZM179.41,21.17c-3.6,0-6.53-2.93-6.53-6.53s2.93-6.53,6.53-6.53,6.53,2.93,6.53,6.53-2.93,6.53-6.53,6.53Z"/>
    <path class="cls-2" d="M206.35,71.88c-5.26,1.23-9.55,5.48-10.74,10.74-1.67,7.1,2,13.52,7.77,16.36v177.07h12.16V99.41c5.26-2.2,8.97-7.39,8.97-13.41,0-9.15-8.57-16.33-18.15-14.13ZM209.85,92.65c-3.6,0-6.53-2.93-6.53-6.53s2.93-6.53,6.53-6.53,6.53,2.93,6.53,6.53-2.93,6.53-6.53,6.53Z"/>
    <path class="cls-2" d="M349.92,132.72c-1.2-5.01-5.23-9.12-10.24-10.42-7.77-2.06-14.92,2.13-17.53,8.58h-91.26v145.26h12.2v-133.14h45.81l-.11,25.19,8.06-.22.14-24.98h25.77c2.43,4.65,7.3,7.86,12.96,7.86,9.22,0,16.52-8.55,14.19-18.14ZM335.71,142.94c-3.6,0-6.53-2.93-6.53-6.53s2.93-6.53,6.53-6.53,6.53,2.93,6.53,6.53-2.93,6.53-6.53,6.53Z"/>
    <g>
      <line class="cls-1" x1="62.26" y1="196.3" x2="82.26" y2="243.36"/>
      <line class="cls-1" x1="60.99" y1="196.52" x2="43.9" y2="244.71"/>
      <path class="cls-2" d="M24.26,251.92h75.26v4.47c0,7.53-6.11,13.64-13.64,13.64h-49.41c-6.73,0-12.2-5.47-12.2-12.2v-5.91h0Z" transform="translate(-1.25 .3) rotate(-.27)"/>
      <path class="cls-2" d="M100.53,245.87l-75.99.36c-.9,0-1.63-.85-1.64-1.92v-.09c0-1.06.72-1.93,1.62-1.93l75.99-.36c.9,0,1.63.85,1.64,1.92v.09c0,1.06-.72,1.93-1.62,1.93Z"/>
    </g>
    <g>
      <line class="cls-1" x1="293.35" y1="164.12" x2="313.35" y2="211.17"/>
      <line class="cls-1" x1="292.08" y1="164.33" x2="274.99" y2="212.52"/>
      <path class="cls-2" d="M255.35,219.73h75.26v4.47c0,7.53-6.11,13.64-13.64,13.64h-49.41c-6.73,0-12.2-5.47-12.2-12.2v-5.91h0Z" transform="translate(-1.09 1.41) rotate(-.27)"/>
      <path class="cls-2" d="M331.62,213.69l-75.99.36c-.9,0-1.63-.85-1.64-1.92v-.09c0-1.06.72-1.93,1.62-1.93l75.99-.36c.9,0,1.63.85,1.64,1.92v.09c0,1.06-.72,1.93-1.62,1.93Z"/>
    </g>
    <path class="cls-2" d="M28.67,163.48c-1.74-6.13-7.33-10.67-14.01-10.67-9.26,0-16.52,8.64-14.23,18.26,1.23,5.05,5.19,9.18,10.2,10.53,6.64,1.78,12.85-1.02,16.15-5.95h31.07l-.11,26.8,8.06-.22.15-26.58h45.52l-.42,100.49h12.2l.42-112.65H28.67ZM14.7,173.99c-3.61,0-6.53-2.92-6.53-6.53s2.93-6.53,6.53-6.53,6.53,2.92,6.53,6.53-2.92,6.53-6.53,6.53Z"/>
    <rect class="cls-2" x="141.62" y="410.54" width="12.07" height="42.21"/>
    <rect class="cls-2" x="111.68" y="410.54" width="12.07" height="42.21"/>
    <rect class="cls-2" x="173.35" y="410.54" width="12.07" height="42.21"/>
    <rect class="cls-2" x="203.74" y="410.54" width="12.07" height="42.21"/>
    <rect class="cls-2" x="230.56" y="410.54" width="12.07" height="42.21"/>
  </g>
</svg>