<?xml version="1.0" encoding="UTF-8"?>
<svg xmlns="http://www.w3.org/2000/svg" version="1.1" viewBox="0 0 128 128">
  <defs>
    <style>
      .cls-1 {
        fill: #fff;
      }

      .cls-1, .cls-2 {
        stroke-width: 0px;
      }

      .cls-2 {
        fill: #5165ae;
      }
    </style>
  </defs>
  <g id="Layer_5" data-name="Layer 5">
    <rect class="cls-2" width="128" height="128"/>
  </g>
  <g id="Layer_6" data-name="Layer 6">
    <path class="cls-1" d="M15.51,57.01c-1.31-2.04-3.6-3.4-6.21-3.4-4.06,0-7.36,3.3-7.36,7.37s3.3,7.36,7.36,7.36c2.61,0,4.9-1.35,6.21-3.4h9.43l-4.62,26.04-7.06.04c-.36,0-.66.36-.66.79v.05c0,.43.32.79.68.79h.07v1.59c.03,3.15,2.59,5.66,5.71,5.66l19.01-.09c3.52-.02,6.33-2.88,6.33-6.39v-.93h.22c.39,0,.68-.36.68-.79v-.05c0-.43-.32-.79-.68-.79l-7.05.04-4.61-25.96h14.75v60.16h7.93V57.01H15.51ZM9.3,63.92c-1.62,0-2.94-1.32-2.94-2.94s1.32-2.95,2.94-2.95,2.95,1.32,2.95,2.95-1.32,2.94-2.95,2.94ZM33.1,90.92l-8.3.04,4.15-23.4,4.15,23.36Z"/>
    <path class="cls-1" d="M64,2.44c-4.07,0-7.36,3.3-7.36,7.37,0,2.79,1.55,5.22,3.84,6.47v56.59h-.01v52.23h7.93v-37.57h0V15.7c1.79-1.34,2.95-3.48,2.95-5.89,0-4.07-3.29-7.37-7.36-7.37ZM64,6.86c1.63,0,2.95,1.32,2.95,2.95s-1.32,2.94-2.95,2.94-2.95-1.32-2.95-2.94,1.32-2.95,2.95-2.95Z"/>
    <path class="cls-1" d="M118.7,35.97c-2.61,0-4.9,1.36-6.21,3.4h-40.13v85.73h7.93V47.3h14.75l-4.61,25.96-7.05-.04c-.36,0-.68.36-.68.79v.05c0,.43.29.79.68.79h.22v.93c0,3.51,2.81,6.37,6.33,6.39l19.01.09c3.12,0,5.68-2.51,5.71-5.66v-1.59h.07c.36,0,.68-.36.68-.79v-.05c0-.43-.3-.79-.66-.79l-7.06-.04-4.62-26.04h9.43c1.31,2.05,3.6,3.4,6.21,3.4,4.06,0,7.36-3.29,7.36-7.36s-3.3-7.37-7.36-7.37ZM103.2,73.32l-8.3-.04,4.15-23.36,4.15,23.4ZM118.7,46.28c-1.63,0-2.95-1.31-2.95-2.94s1.32-2.95,2.95-2.95,2.94,1.32,2.94,2.95-1.32,2.94-2.94,2.94Z"/>
  </g>
</svg>