<svg xmlns="http://www.w3.org/2000/svg" xmlns:xlink="http://www.w3.org/1999/xlink" version="1.1" viewBox="0 0 128 128"><defs><style>.cls-1{fill:#231f20}.cls-1,.cls-2,.cls-3,.cls-4{stroke-width:0}.cls-2{fill:#b63d2b}.cls-3{fill:none}.cls-5{clip-path:url(#clippath)}.cls-4{fill:#848582}</style><clipPath id="clippath"><rect width="128" height="128" class="cls-3"/></clipPath></defs><g id="Layer_5" data-name="Layer 5"><rect width="128" height="128" class="cls-4"/></g><g id="Layer_6" data-name="Layer 6"><g><polygon points="47.71 125.1 55.64 125.1 55.64 76.75 47.71 84.73 47.71 125.1" class="cls-1"/><path d="M44.62,90.86l-3.06.02-8.96,8.96,5.47-.03c3.52-.02,6.33-2.88,6.33-6.39v-.93h.22c.39,0,.68-.36.68-.79v-.05c0-.43-.32-.79-.68-.79Z" class="cls-1"/><path d="M15.51,57.01c-1.31-2.04-3.6-3.4-6.21-3.4-4.06,0-7.36,3.3-7.36,7.37s3.3,7.36,7.36,7.36c2.61,0,4.9-1.35,6.21-3.4h9.43l-4.62,26.04-7.06.04c-.36,0-.66.36-.66.79v.05c0,.43.32.79.68.79h.07v1.59c.02,2.34,1.44,4.32,3.44,5.19l8.47-8.47h-.46s4.15-23.4,4.15-23.4l2.97,16.74,3.8-3.8-2.76-15.56h14.75v3.57l7.93-7.93v-3.57H15.51ZM9.3,63.92c-1.62,0-2.94-1.32-2.94-2.94s1.32-2.95,2.94-2.95,2.95,1.32,2.95,2.95-1.32,2.94-2.95,2.94Z" class="cls-1"/></g><path d="M68.41,47.81V15.7c1.79-1.34,2.95-3.48,2.95-5.89,0-4.07-3.29-7.37-7.36-7.37s-7.36,3.3-7.36,7.37c0,2.79,1.55,5.22,3.84,6.47v39.46M60.48,71.96v.91h-.01v52.23h7.93v-37.57h0v-23.5M64,6.86c1.63,0,2.95,1.32,2.95,2.95s-1.32,2.94-2.95,2.94-2.95-1.32-2.95-2.94,1.32-2.95,2.95-2.95Z" class="cls-1"/><path d="M76.85,39.37h-4.49v4.49M85.14,47.3h9.9l-4.61,25.96-7.05-.04c-.36,0-.68.36-.68.79v.05c0,.43.29.79.68.79h.22v.93c0,3.51,2.81,6.37,6.33,6.39l19.01.09c3.12,0,5.68-2.51,5.71-5.66v-1.59h.07c.36,0,.68-.36.68-.79v-.05c0-.43-.3-.79-.66-.79l-7.06-.04-4.62-26.04h9.43c1.31,2.05,3.6,3.4,6.21,3.4,4.06,0,7.36-3.29,7.36-7.36s-3.3-7.37-7.36-7.37c-2.61,0-4.9,1.36-6.21,3.4h-19.42M72.36,60.08v65.02h7.93V52.15M103.2,73.32l-8.3-.04,4.15-23.36,4.15,23.4ZM118.7,46.28c-1.63,0-2.95-1.31-2.95-2.94s1.32-2.95,2.95-2.95,2.94,1.32,2.94,2.95-1.32,2.94-2.94,2.94Z" class="cls-1"/><rect width="128" height="128" class="cls-3"/></g><g id="Layer_3" data-name="Layer 3"><g class="cls-5"><rect width="195.3" height="9.77" x="-38.52" y="59.12" class="cls-2" transform="translate(-27.94 60.56) rotate(-45)"/></g></g></svg>