<?xml version="1.0" encoding="UTF-8"?>
<svg xmlns="http://www.w3.org/2000/svg" version="1.1" viewBox="0 0 128 128">
  <defs>
    <style>
      .cls-1 {
        fill: #b63d2b;
      }

      .cls-1, .cls-2, .cls-3, .cls-4 {
        stroke-width: 0px;
      }

      .cls-2 {
        fill: #fff;
      }

      .cls-5 {
        display: none;
      }

      .cls-3 {
        fill: #ea9c25;
      }

      .cls-4 {
        fill: #5165ae;
      }
    </style>
  </defs>
  <g id="Layer_5" data-name="Layer 5">
    <rect class="cls-4" width="128" height="128"/>
  </g>
  <g id="Layer_6" data-name="Layer 6">
    <path class="cls-2" d="M47.71,123.93l7.93-13.74M55.64,110.2v-53.19H15.51c-1.31-2.04-3.6-3.4-6.21-3.4-4.06,0-7.36,3.3-7.36,7.37s3.3,7.36,7.36,7.36c2.61,0,4.9-1.35,6.21-3.4h9.43l-4.62,26.04-7.06.04c-.36,0-.66.36-.66.79v.05c0,.43.32.79.68.79h.07v1.59c.03,3.15,2.59,5.66,5.71,5.66l19.01-.09c3.52-.02,6.33-2.88,6.33-6.39v-.93h.22c.39,0,.68-.36.68-.79v-.05c0-.43-.32-.79-.68-.79l-7.05.04-4.61-25.96h14.75v58.99M9.3,63.92c-1.62,0-2.94-1.32-2.94-2.94s1.32-2.95,2.94-2.95,2.95,1.32,2.95,2.95-1.32,2.94-2.95,2.94ZM33.1,90.92l-8.3.04,4.15-23.4,4.15,23.36Z"/>
    <path class="cls-2" d="M68.4,87.53h0V15.7c1.79-1.34,2.95-3.48,2.95-5.89,0-4.07-3.29-7.37-7.36-7.37s-7.36,3.3-7.36,7.37c0,2.79,1.55,5.22,3.84,6.47v56.59h-.01v28.96M60.47,101.83l7.93-14.3M64,6.86c1.63,0,2.95,1.32,2.95,2.95s-1.32,2.94-2.95,2.94-2.95-1.32-2.95-2.94,1.32-2.95,2.95-2.95Z"/>
    <path class="cls-2" d="M80.29,67.5v-20.2h14.75l-3.65,20.54,8.33,14.38,9.22.04c3.12,0,5.68-2.51,5.71-5.66v-1.59h.07c.36,0,.68-.36.68-.79v-.05c0-.43-.3-.79-.66-.79l-7.06-.04-4.62-26.04h9.43c1.31,2.05,3.6,3.4,6.21,3.4,4.06,0,7.36-3.29,7.36-7.36s-3.3-7.37-7.36-7.37c-2.61,0-4.9,1.36-6.21,3.4h-40.13v41.5M72.36,80.87l7.93-13.37M103.2,73.32l-8.3-.04,4.15-23.36,4.15,23.4ZM118.7,46.28c-1.63,0-2.95-1.31-2.95-2.94s1.32-2.95,2.95-2.95,2.94,1.32,2.94,2.95-1.32,2.94-2.94,2.94Z"/>
  </g>
  <g id="Layer_4" data-name="Layer 4" class="cls-5">
    <polygon class="cls-4" points="85.74 58.06 46.74 125.61 124.74 125.61 85.74 58.06"/>
  </g>
  <g id="Layer_3" data-name="Layer 3">
    <path class="cls-3" d="M121.68,124.22H49.81l35.94-62.24,35.94,62.24ZM90.61,117.08c0-2.82-2.12-5.02-4.94-5.02s-4.79,2.2-4.79,5.02c0,2.98,1.96,5.02,4.79,5.02s4.94-2.04,4.94-5.02ZM81.12,77.86c0,.79.16,2.2.24,3.22.63,6.36,2.04,20.08,2.75,29.42h3.06c.63-9.34,2.2-23.46,2.75-29.5.16-1.18.24-2.28.24-3.06-.08-2.2-2.43-2.67-4.55-2.67s-4.47.55-4.47,2.59Z"/>
    <path class="cls-1" d="M85.55,122.1c-2.83,0-4.79-2.04-4.79-5.02,0-2.82,1.96-5.02,4.79-5.02s4.94,2.2,4.94,5.02c0,2.98-2.12,5.02-4.94,5.02ZM85.47,75.27c2.12,0,4.47.47,4.55,2.67,0,.78-.08,1.88-.24,3.06-.55,6.04-2.12,20.16-2.75,29.5h-3.06c-.71-9.34-2.12-23.06-2.75-29.42-.08-1.02-.24-2.43-.24-3.22,0-2.04,2.27-2.59,4.47-2.59Z"/>
  </g>
</svg>