<?xml version="1.0" encoding="UTF-8"?>
<svg id="Layer_1" data-name="Layer 1" xmlns="http://www.w3.org/2000/svg" version="1.1" viewBox="0 0 191.78 163.91">
  <defs>
    <style>
      .cls-1 {
        stroke-width: 3.57px;
      }

      .cls-1, .cls-2 {
        stroke: #010101;
        stroke-linecap: round;
      }

      .cls-1, .cls-2, .cls-3 {
        fill: none;
      }

      .cls-1, .cls-3 {
        stroke-miterlimit: 10;
      }

      .cls-4 {
        fill: #010101;
      }

      .cls-4, .cls-5 {
        stroke-width: 0px;
      }

      .cls-2 {
        stroke-linejoin: round;
        stroke-width: 6px;
      }

      .cls-3 {
        stroke: #000;
        stroke-width: 3px;
      }

      .cls-5 {
        fill: #fff;
      }
    </style>
  </defs>
  <path class="cls-4" d="M92.08,103.24c0,5.3-1.99,6.08-5.42,6.08-3.05,0-5.14-2.86-5.18-8.02M83.61,101.33c0,4.06,1.25,6.36,3.17,6.36,2.14,0,3.17-1.06,3.17-5.05"/>
  <path class="cls-4" d="M123.86,93.2c3.26,0,5.16,2.93,5.16,7.9,0,5.3-1.99,8.23-5.42,8.23M123.71,107.69c2.14,0,3.17-2.52,3.17-6.5s-.96-6.36-3.17-6.36"/>
  <path class="cls-4" d="M141.33,101.09c0,5.3-1.99,8.23-5.42,8.23-3.05,0-5.14-2.86-5.18-8.02,0-5.26,2.28-8.11,5.45-8.11s5.16,2.93,5.16,7.9ZM132.86,101.33c0,4.06,1.25,6.36,3.17,6.36,2.14,0,3.17-2.52,3.17-6.5s-.96-6.36-3.17-6.36c-1.82,0-3.17,2.26-3.17,6.5Z"/>
  <path class="cls-4" d="M147.83,95.43h-.05l-2.71,1.46-.41-1.61,3.41-1.82h1.8v15.6h-2.04v-13.63Z"/>
  <path class="cls-4" d="M160.14,95.43h-.05l-2.71,1.46-.41-1.61,3.41-1.82h1.8v15.6h-2.04v-13.63Z"/>
  <path class="cls-4" d="M178.26,101.09c0,5.3-1.99,8.23-5.42,8.23-3.05,0-5.14-2.86-5.18-8.02,0-5.26,2.28-8.11,5.45-8.11s5.16,2.93,5.16,7.9ZM169.79,101.33c0,4.06,1.25,6.36,3.17,6.36,2.14,0,3.17-2.52,3.17-6.5s-.96-6.36-3.17-6.36c-1.82,0-3.17,2.26-3.17,6.5Z"/>
  <path class="cls-4" d="M92.08,122.09c0,5.3-1.99,8.23-5.42,8.23-3.05,0-5.14-2.86-5.18-8.02,0-5.26,2.28-8.11,5.45-8.11s5.16,2.93,5.16,7.9ZM83.61,122.33c0,4.06,1.25,6.36,3.17,6.36,2.14,0,3.17-2.52,3.17-6.5s-.96-6.36-3.17-6.36c-1.82,0-3.17,2.26-3.17,6.5Z"/>
  <path class="cls-4" d="M98.59,116.43h-.05l-2.71,1.46-.41-1.61,3.41-1.82h1.8v15.6h-2.04v-13.63Z"/>
  <path class="cls-4" d="M116.71,122.09c0,5.3-1.99,8.23-5.42,8.23-3.05,0-5.14-2.86-5.18-8.02,0-5.26,2.28-8.11,5.45-8.11s5.16,2.93,5.16,7.9ZM108.23,122.33c0,4.06,1.25,6.36,3.17,6.36,2.14,0,3.17-2.52,3.17-6.5s-.96-6.36-3.17-6.36c-1.82,0-3.17,2.26-3.17,6.5Z"/>
  <path class="cls-4" d="M128.61,124.32c.75,5.25-1.58,6.01-5.01,6.01-3.05,0-5.14-2.86-5.18-8.02,0-5.26,2.97-7.31,4.83-4.75,1.59,2.19,5.17,5.37,5.37,6.76ZM120.55,122.33c0,4.06,1.25,6.36,3.17,6.36,2.14,0,3.34-.6,3.5-4.58.14-3.24-1.77-5.57-3.98-5.57-1.82,0-2.7-.46-2.7,3.78Z"/>
  <path class="cls-4" d="M132.35,116.29l3.41-1.82h1.8v2.7h-2.04v-.73h-.05"/>
  <path class="cls-4" d="M147.83,116.43h-.05l-2.71,1.46-.41-1.61,3.41-1.82h1.8v13.63h-2.04v-11.66Z"/>
  <path class="cls-4" d="M165.95,122.09c0,5.3-1.99,8.23-5.42,8.23-3.05,0-5.14-2.86-5.18-8.02,0-5.26,2.28-8.11,5.45-8.11s5.16,2.93,5.16,7.9ZM157.48,122.33c0,4.06,1.25,6.36,3.17,6.36,2.14,0,3.17-2.52,3.17-6.5s-.96-6.36-3.17-6.36c-1.82,0-3.17,2.26-3.17,6.5Z"/>
  <path class="cls-4" d="M178.26,122.09c0,5.3-1.99,8.23-5.42,8.23-3.05,0-5.14-2.86-5.18-8.02,0-5.26,2.28-8.11,5.45-8.11s5.16,2.93,5.16,7.9ZM169.79,122.33c0,4.06,1.25,6.36,3.17,6.36,2.14,0,3.17-2.52,3.17-6.5s-.96-6.36-3.17-6.36c-1.82,0-3.17,2.26-3.17,6.5Z"/>
  <path class="cls-4" d="M92.08,143.09c0,5.3-1.99,8.23-5.42,8.23-3.05,0-5.14-2.86-5.18-8.02,0-5.26,2.28-8.11,5.45-8.11s5.16,2.93,5.16,7.9ZM83.61,143.33c0,4.06,1.25,6.36,3.17,6.36,2.14,0,3.17-2.52,3.17-6.5s-.96-6.36-3.17-6.36c-1.82,0-3.17,2.26-3.17,6.5Z"/>
  <path class="cls-4" d="M98.59,137.43h-.05l-2.71,1.46-.41-1.61,3.41-1.82h1.8v15.6h-2.04v-13.63Z"/>
  <path class="cls-4" d="M116.71,143.09c0,5.3-1.99,8.23-5.42,8.23-3.05,0-5.14-2.86-5.18-8.02,0-5.26,2.28-8.11,5.45-8.11s5.16,2.93,5.16,7.9ZM108.23,143.33c0,4.06,1.25,6.36,3.17,6.36,2.14,0,3.17-2.52,3.17-6.5s-.96-6.36-3.17-6.36c-1.82,0-3.17,2.26-3.17,6.5Z"/>
  <path class="cls-4" d="M123.21,137.43h-.05l-2.71,1.46-.41-1.61,3.41-1.82h1.8v15.6h-2.04v-13.63Z"/>
  <path class="cls-4" d="M141.33,143.09c0,5.3-1.99,8.23-5.42,8.23-3.05,0-5.14-2.86-5.18-8.02,0-5.26,2.28-8.11,5.45-8.11s5.16,2.93,5.16,7.9ZM132.86,143.33c0,4.06,1.25,6.36,3.17,6.36,2.14,0,3.17-2.52,3.17-6.5s-.96-6.36-3.17-6.36c-1.82,0-3.17,2.26-3.17,6.5Z"/>
  <path class="cls-4" d="M178.26,143.09c0,5.3-1.99,8.23-5.42,8.23-3.05,0-5.14-2.86-5.18-8.02,0-5.26,2.28-8.11,5.45-8.11s5.16,2.93,5.16,7.9ZM169.79,143.33c0,4.06,1.25,6.36,3.17,6.36,2.14,0,3.17-2.52,3.17-6.5s-.96-6.36-3.17-6.36c-1.82,0-3.17,2.26-3.17,6.5Z"/>
  <path class="cls-4" d="M166.04,143.09c0,5.3-1.99,8.23-5.42,8.23-3.05,0-5.14-2.86-5.18-8.02,0-5.26,2.28-8.11,5.45-8.11s5.16,2.93,5.16,7.9ZM157.57,143.33c0,4.06,1.25,6.36,3.17,6.36,2.14,0,3.17-2.52,3.17-6.5s-.96-6.36-3.17-6.36c-1.82,0-3.17,2.26-3.17,6.5Z"/>
  <path class="cls-3" d="M141.69,18.68c0-1.71-1.38-3.09-3.09-3.09H20.27c-1.71,0-3.09,1.38-3.09,3.09M35.62,33.02c-2.17,0-3.93-1.76-3.93-3.93s1.76-3.93,3.93-3.93,3.93,1.76,3.93,3.93-1.76,3.93-3.93,3.93ZM47.86,33.02c-2.17,0-3.93-1.76-3.93-3.93s1.76-3.93,3.93-3.93,3.93,1.76,3.93,3.93-1.76,3.93-3.93,3.93ZM60.1,33.02c-2.17,0-3.93-1.76-3.93-3.93s1.76-3.93,3.93-3.93,3.93,1.76,3.93,3.93-1.76,3.93-3.93,3.93Z"/>
  <circle class="cls-4" cx="152.03" cy="140.09" r="3.03"/>
  <path class="cls-2" d="M59.78,81.47l32.34-32.34,49.56,41.31V18.68c0-1.71-1.38-3.09-3.09-3.09H20.27c-1.71,0-3.09,1.38-3.09,3.09v94.9c0,1.71,1.38,3.09,3.09,3.09h56.16l-16.65-35.2Z"/>
  <line class="cls-1" x1="41.11" y1="59.38" x2="80.92" y2="59.38"/>
  <line class="cls-1" x1="41.11" y1="73.81" x2="67.44" y2="73.81"/>
  <line class="cls-1" x1="41.11" y1="88.23" x2="66.39" y2="88.23"/>
  <path class="cls-4" d="M165.31,136.92l-38.75-31.42c-.45-3.09-5.54-33.96-32.86-58.16-.94-.83-2.37-.79-3.26.1l-32.34,32.34c-.89.89-.93,2.32-.1,3.26,23.53,26.56,53.35,32.11,57.83,32.81l33.08,37.68c.72.82,1.76,1.31,2.85,1.35.04,0,.08,0,.13,0,1.05,0,2.06-.42,2.8-1.16l10.94-10.93c.79-.79,1.21-1.89,1.15-3.01-.06-1.12-.59-2.16-1.46-2.87ZM115.87,111.03c-5.71-1.05-31.85-6.94-52.8-29.48l29.14-29.14c22.55,20.95,28.43,47.09,29.48,52.8l-2.95,2.95-2.87,2.87ZM151.92,149.76l-31.81-36.25,3.93-3.93,37.58,30.48-9.7,9.7Z"/>
  <line class="cls-1" x1="19.14" y1="39.58" x2="139.46" y2="39.58"/>
  <polyline class="cls-5" points="155 134.73 161.62 140.06 155.1 146.58"/>
</svg>