<?xml version="1.0" encoding="UTF-8"?>
<svg id="Layer_1" data-name="Layer 1" xmlns="http://www.w3.org/2000/svg" version="1.1" viewBox="0 0 168.2 155.5">
  <defs>
    <style>
      .cls-1 {
        fill: #000;
        stroke-width: 0px;
      }

      .cls-2 {
        fill: none;
        stroke: #000;
        stroke-miterlimit: 10;
        stroke-width: 6px;
      }
    </style>
  </defs>
  <g>
    <g>
      <polygon class="cls-1" points="156.69 64.82 146.13 79.13 136.8 64.19 156.69 64.82"/>
      <path class="cls-1" d="M134.51,63.74c0-.21.06-.42.17-.61.24-.41.69-.66,1.16-.65l19.89.63c.48.02.91.3,1.13.73.21.43.16.95-.12,1.34l-10.55,14.31c-.25.35-.66.54-1.09.53s-.82-.24-1.05-.61l-9.33-14.94c-.14-.22-.2-.48-.2-.73ZM153.18,65.62l-14.99-.47,7.04,11.26,7.96-10.79Z"/>
    </g>
    <path class="cls-2" d="M83.87,16.33s24.51.5,40.62,14.54,20.18,28,21.31,34.49"/>
    <circle class="cls-1" cx="84.2" cy="16.35" r="3.02"/>
  </g>
  <g>
    <g>
      <polygon class="cls-1" points="12.15 90.53 22.49 76.06 32.05 90.86 12.15 90.53"/>
      <path class="cls-1" d="M34.35,91.29c0,.21-.06.42-.16.61-.23.42-.68.67-1.16.67l-19.89-.34c-.48,0-.92-.28-1.14-.71-.22-.43-.18-.94.1-1.34l10.34-14.47c.25-.35.66-.55,1.09-.54s.83.23,1.06.59l9.55,14.8c.14.22.21.47.21.72ZM15.65,89.67l15,.25-7.2-11.16-7.8,10.91Z"/>
    </g>
    <path class="cls-2" d="M85.67,137.95s-24.51-.14-40.83-13.94c-16.2-13.71-20.59-27.7-21.81-34.18"/>
    <circle class="cls-1" cx="85.34" cy="137.94" r="3.02"/>
  </g>
  <circle class="cls-2" cx="42.59" cy="40.44" r="14.77"/>
  <circle class="cls-2" cx="132.05" cy="118.18" r="14.77"/>
  <circle class="cls-2" cx="86.94" cy="79.36" r="31.11"/>
  <line class="cls-2" x1="53.68" y1="50.25" x2="61.89" y2="57.45"/>
  <line class="cls-2" x1="112.23" y1="100.45" x2="120.44" y2="107.65"/>
</svg>