<?xml version="1.0" encoding="UTF-8"?>
<svg id="Layer_1" data-name="Layer 1" xmlns="http://www.w3.org/2000/svg" version="1.1" viewBox="0 0 191.78 163.91">
  <defs>
    <style>
      .cls-1 {
        fill: none;
        stroke: #010101;
        stroke-linecap: round;
        stroke-linejoin: round;
        stroke-width: 7px;
      }
    </style>
  </defs>
  <path class="cls-1" d="M96.43,101.37c-1.65.02-3.14-.41-4.54-1.34-19.29-12.81-38.6-25.59-57.91-38.39-3.69-2.45-3.6-8.67.15-11.01,19.27-11.97,38.54-23.93,57.8-35.9,1.28-.79,2.43-1.7,4.09-1.78,1.95-.09,3.4.78,4.96,1.75,10.15,6.37,20.34,12.67,30.51,18.99,9.13,5.67,18.27,11.34,27.39,17.01,3.51,2.18,3.67,7.24.27,9.56-19.43,13.29-38.87,26.56-58.29,39.85-1.35.92-2.83,1.27-4.43,1.25Z"/>
  <path class="cls-1" d="M165.42,105.59c-.06,1.87-.96,3.24-2.53,4.3-13.38,9.12-26.75,18.26-40.12,27.39-7.9,5.39-15.8,10.79-23.7,16.17-2.1,1.43-2.88,1.42-5.02,0-21.41-14.15-42.79-28.34-64.25-42.42-3.23-2.12-3.26-5.51-1.84-7.73,1.75-2.72,5.33-3.4,8.1-1.52,19.72,13.44,39.44,26.88,59.13,40.36,1,.68,1.62.62,2.58-.03,19.85-13.58,39.73-27.13,59.59-40.7,1.75-1.2,3.5-1.39,5.33-.38,1.76.96,2.67,2.49,2.74,4.55Z"/>
  <path class="cls-1" d="M33.21,75.2c.95-.04,1.9.45,2.82,1.08,15.53,10.6,31.07,21.2,46.6,31.8,4.23,2.88,8.47,5.74,12.66,8.67.89.62,1.49.58,2.36-.02,19.7-13.48,39.42-26.94,59.14-40.4,2.94-2.01,5.63-1.8,7.53.62,1.86,2.36,1.37,5.5-1.23,7.31-5.02,3.48-10.08,6.9-15.13,10.35-16.19,11.06-32.39,22.12-48.58,33.18-2.41,1.65-3.11,1.65-5.51.07-21.37-14.14-42.75-28.27-64.12-42.41-2.45-1.62-3.24-3.62-2.46-6.17.74-2.4,3.12-4.11,5.92-4.08Z"/>
</svg>