<?xml version="1.0" encoding="UTF-8"?>
<svg id="Layer_1" data-name="Layer 1" xmlns="http://www.w3.org/2000/svg" version="1.1" viewBox="0 0 191.78 163.91">
  <defs>
    <style>
      .cls-1, .cls-2 {
        stroke-width: 0px;
      }

      .cls-1, .cls-3, .cls-4 {
        fill: none;
      }

      .cls-2 {
        fill: #000;
      }

      .cls-3 {
        stroke-width: 5px;
      }

      .cls-3, .cls-4 {
        stroke: #010101;
        stroke-linecap: round;
        stroke-linejoin: round;
      }

      .cls-4 {
        stroke-width: 4px;
      }
    </style>
  </defs>
  <path class="cls-3" d="M20.41,83.12c2.21-.05,4.42-.14,6.63-.14,47.56-.01,95.13-.01,142.69-.02q2.29,0,2.29,2.28c0,3.32-.03,6.63.02,9.95.01.92-.3,1.18-1.21,1.17-3.95-.05-7.9-.02-11.84-.06-.56,0-.62.19-.62.65.02,1.55,0,3.1,0,4.64,0,14.59,0,29.18,0,43.77,0,1.69.32,1.49-1.51,1.49-24.16,0-48.32-.01-72.48-.01-15.66,0-31.33.01-46.99.02-.57,0-1.14-.01-1.7.07-.75.11-.99-.13-.98-.9.03-4.55.01-9.09,0-13.64,0-11.59-.02-23.18-.03-34.77,0-.22-.01-.45.03-.66.1-.58-.16-.66-.69-.66-4.01.01-8.02-.01-12.03-.03-.54,0-1.08-.02-1.57-.27v-12.89Z"/>
  <path class="cls-2" d="M140.16,74.71c-6,0-12-.01-18,.02-.75,0-.95-.2-.93-.94.05-2.59-.09-5.17.36-7.75.86-4.87,4.43-8.06,9.36-8.11,6.13-.06,12.25-.06,18.38.02,5.33.07,8.99,3.64,9.63,9.16.27,2.33.13,4.67.19,7,.02.76-.49.58-.89.58-5.27,0-10.55,0-15.82,0-.76,0-1.52,0-2.27,0Z"/>
  <path class="cls-2" d="M97.05,74.71c-5.96,0-11.93-.01-17.89.02-.76,0-1.04-.17-1-.98.14-2.55-.18-5.12.26-7.65.74-4.24,3.89-8.11,9.02-8.15,6.4-.05,12.81-.09,19.21.05,4.53.1,7.9,3.22,8.89,7.75.62,2.81.3,5.66.39,8.49.02.58-.38.46-.71.46-1.83,0-3.66,0-5.49,0-4.23,0-8.46,0-12.69,0Z"/>
  <path class="cls-2" d="M53.48,74.71c-5.94,0-11.87-.01-17.81.01-.67,0-.96-.13-.95-.86.07-2.96-.33-5.94.48-8.86,1.16-4.22,4.32-6.93,8.67-7.03,6.44-.14,12.88-.08,19.32,0,4.07.06,6.64,2.38,8.19,5.98.62,1.43.91,2.95.94,4.51.03,1.67-.02,3.35.06,5.02.05.94-.2,1.24-1.19,1.24-5.91-.05-11.81-.02-17.72-.02Z"/>
  <path class="cls-2" d="M97.02,55c-4.55,0-8.27-3.69-8.29-8.22-.02-4.6,3.68-8.31,8.28-8.32,4.53,0,8.3,3.73,8.3,8.21,0,4.57-3.74,8.32-8.3,8.32Z"/>
  <path class="cls-2" d="M140.19,38.46c4.52,0,8.31,3.74,8.32,8.22,0,4.44-3.89,8.32-8.35,8.32-4.5,0-8.29-3.76-8.3-8.24,0-4.55,3.75-8.3,8.33-8.3Z"/>
  <path class="cls-2" d="M107.59,35.69c-4.59,0-8.35-3.75-8.33-8.28.03-4.45,3.84-8.21,8.33-8.22,4.5,0,8.33,3.77,8.33,8.2,0,4.52-3.8,8.3-8.33,8.3Z"/>
  <path class="cls-2" d="M128.61,35.68c-3.72.19-8.32-3.07-8.2-8.43.1-4.45,3.75-8.06,8.33-8.05,4.47,0,8.17,3.72,8.19,8.22.02,4.56-3.7,8.26-8.32,8.27Z"/>
  <path class="cls-2" d="M110.22,46.81c-.04-4.63,3.61-8.33,8.23-8.34,4.53-.01,8.2,3.61,8.26,8.13.06,4.5-3.62,8.36-8.01,8.4-4.75.04-8.43-3.52-8.47-8.19Z"/>
  <path class="cls-2" d="M75.31,55c-4.52,0-8.25-3.74-8.24-8.26,0-4.57,3.74-8.27,8.34-8.27,4.55,0,8.19,3.74,8.2,8.42,0,4.39-3.8,8.11-8.3,8.11Z"/>
  <path class="cls-2" d="M61.79,46.71c.06,4.41-3.57,8.21-7.91,8.29-4.63.08-8.52-3.64-8.61-8.23-.09-4.46,3.63-8.23,8.19-8.29,4.58-.06,8.27,3.58,8.33,8.24Z"/>
  <path class="cls-2" d="M72.36,27.52c0,4.38-3.81,8.15-8.26,8.17-4.58.01-8.25-3.66-8.23-8.23.02-4.64,3.66-8.24,8.33-8.26,4.51-.01,8.15,3.69,8.16,8.32Z"/>
  <path class="cls-2" d="M86.42,35.69c-4.64,0-8.22-3.63-8.22-8.32,0-4.51,3.73-8.19,8.3-8.18,4.5.01,8.21,3.75,8.18,8.22-.03,4.54-3.76,8.28-8.26,8.28Z"/>
  <rect class="cls-1" x="20.22" y="7.88" width="152.36" height="152.37"/>
  <rect class="cls-1" x="19.8" y="7.12" width="152.82" height="153.24"/>
  <rect class="cls-1" x="20.22" y="7.88" width="152.36" height="152.37"/>
  <g>
    <line class="cls-3" x1="98.43" y1="90.54" x2="98.43" y2="137.69"/>
    <line class="cls-3" x1="86.99" y1="137.83" x2="109.86" y2="137.83"/>
    <line class="cls-3" x1="79.51" y1="95.48" x2="118.33" y2="95.48"/>
    <path class="cls-4" d="M78.7,96.12l-9.07,24.4s3.04,5.73,8.54,5.73,9.25-5.27,9.25-5.27l-8.72-24.87Z"/>
    <path class="cls-4" d="M119.07,96.12l-9.07,24.4s3.04,5.73,8.54,5.73,9.25-5.27,9.25-5.27l-8.72-24.87Z"/>
  </g>
</svg>