<?xml version="1.0" encoding="UTF-8"?>
<svg id="Layer_1" data-name="Layer 1" xmlns="http://www.w3.org/2000/svg" version="1.1" viewBox="0 0 191.78 163.91">
  <defs>
    <style>
      .cls-1 {
        stroke-width: 6px;
      }

      .cls-1, .cls-2, .cls-3 {
        stroke: #010101;
        stroke-linecap: round;
        stroke-linejoin: round;
      }

      .cls-1, .cls-3 {
        fill: none;
      }

      .cls-2 {
        fill: #010101;
        stroke-width: 7px;
      }

      .cls-3 {
        stroke-width: 5px;
      }

      .cls-4 {
        fill: #9e9e9e;
      }

      .cls-4, .cls-5 {
        stroke-width: 0px;
      }

      .cls-5 {
        fill: #fff;
      }
    </style>
  </defs>
  <path class="cls-1" d="M129.58,78.27c0,17.18,0,34.36,0,51.54,0,4.67-1.84,8.29-6,10.59-2.01,1.11-4.22,1.35-6.46,1.35-27.45,0-54.9,0-82.35.01-1.17,0-2.33-.06-3.47-.32-5.3-1.18-8.74-5.79-8.74-11.58.02-23.96.02-47.92.03-71.88,0-2.82-.2-5.64.3-8.45.8-4.55,2.56-8.64,5.58-12.15,4.49-5.21,8.98-10.42,13.55-15.56,4.34-4.87,6.76-7.4,16.37-7.4,19.67-.05,39.35-.03,59.02,0,5.96,0,10.2,3.1,11.67,8.36.36,1.29.49,2.6.49,3.94,0,17.18,0,34.36,0,51.54Z"/>
  <rect class="cls-4" x="45.39" y="73.28" width="63.62" height="3.51" rx="1.76" ry="1.76" transform="translate(154.41 150.08) rotate(180)"/>
  <rect class="cls-4" x="45.39" y="86.76" width="63.62" height="3.51" rx="1.76" ry="1.76" transform="translate(154.41 177.04) rotate(-180)"/>
  <rect class="cls-4" x="69.2" y="61.18" width="37.86" height="3.51" rx="1.76" ry="1.76"/>
  <polygon class="cls-2" points="77.8 91.56 48.22 91.56 48.22 85.5 79.83 85.5 77.8 91.56"/>
  <rect class="cls-4" x="45.39" y="100.92" width="61.28" height="3.51" rx="1.76" ry="1.76" transform="translate(152.06 205.36) rotate(-180)"/>
  <rect class="cls-4" x="45.39" y="113.87" width="61.28" height="3.51" rx="1.76" ry="1.76" transform="translate(152.06 231.26) rotate(-180)"/>
  <rect class="cls-4" x="67.06" y="46.35" width="42.15" height="3.51" rx="1.76" ry="1.76"/>
  <path class="cls-3" d="M160.58,153.58c-.31-.42-.73-.73-1.09-1.1-4.1-4.11-8.22-8.22-12.32-12.33-2.68-2.69-5.36-5.38-8.03-8.07-.54-.55-1.08-1.1-1.41-1.82-.33-.74-.34-1.49-.07-2.25.14-.4.32-.79.6-1.12.17-.19.14-.32-.04-.49-2.04-2.03-4.08-4.06-6.11-6.09-.38-.38-.77-.76-1.14-1.16-.15-.16-.25-.14-.4-.02-1.45,1.14-2.99,2.15-4.62,3.01-1.02.54-2.05,1.06-3.11,1.48-1.88.74-3.83,1.31-5.82,1.66-1.46.26-2.92.48-4.41.5-1,.02-1.99.05-3,0-1.39-.06-2.77-.22-4.14-.47-1.65-.3-3.26-.76-4.85-1.29-1.98-.65-3.82-1.59-5.61-2.61-.69-.39-1.4-.78-2.02-1.32-.3-.26-.66-.44-.98-.69-3.42-2.58-6.18-5.75-8.35-9.43-1.03-1.74-1.83-3.58-2.48-5.49-.53-1.54-.96-3.09-1.24-4.69-.33-1.86-.54-3.73-.53-5.62.03-2.74.33-5.45,1.05-8.11.43-1.58.97-3.11,1.61-4.61.32-.75.63-1.51,1.04-2.21.42-.72.79-1.49,1.24-2.18.34-.51.75-.99,1.09-1.5.45-.67.94-1.3,1.47-1.91,1.2-1.4,2.53-2.68,3.89-3.91.48-.44,1.07-.78,1.59-1.19.82-.64,1.7-1.17,2.58-1.71,1.36-.83,2.77-1.54,4.24-2.13.77-.31,1.56-.55,2.34-.83.83-.31,1.7-.48,2.56-.68,1.67-.39,3.35-.67,5.07-.72.82-.02,1.64-.1,2.47-.08,1.44.05,2.86.17,4.29.38,2.17.31,4.27.9,6.32,1.64,1.68.6,3.26,1.42,4.81,2.3.42.24.83.49,1.26.71.06.03.12.07.18.11,1.24,1.05,2.63,1.91,3.82,3.03,1.04.97,2.04,1.96,2.94,3.05.96,1.16,1.84,2.38,2.68,3.63,1.07,1.61,1.87,3.35,2.59,5.13.35.86.72,1.72.94,2.62.41,1.65.82,3.29,1.04,4.98.16,1.21.24,2.43.28,3.64.04,1.04,0,2.09-.12,3.13-.16,1.36-.3,2.72-.6,4.05-.34,1.49-.8,2.95-1.29,4.39-.21.64-.51,1.23-.79,1.83-.17.37-.32.76-.45,1.15-.14.42-.41.77-.64,1.13-.37.62-.7,1.26-1.11,1.86-.53.78-1.04,1.58-1.64,2.3-.63.75-.65.75.04,1.42,2.25,2.19,4.46,4.42,6.66,6.66.22.22.37.25.64.06,1.01-.72,2.11-1.01,3.31-.52.55.22,1.03.53,1.46.96,2.06,2.07,4.14,4.13,6.2,6.19,5.06,5.06,10.12,10.12,15.18,15.18.23.23.46.45.69.67v.97s-.1.06-.14.1c-2.51,2.52-5.02,5.04-7.53,7.56-.27.28-.55.55-.82.83h-1.31Z"/>
  <polygon class="cls-5" points="146.44 123.38 167.68 144.55 161.23 151.06 139.81 129.58 146.44 123.38"/>
  <polyline class="cls-1" points="23.3 47.77 55.2 47.77 55.2 14.46"/>
</svg>