<?xml version="1.0" encoding="UTF-8" standalone="no"?>
<!-- Created with Inkscape (http://www.inkscape.org/) -->

<svg
   xmlns:dc="http://purl.org/dc/elements/1.1/"
   xmlns:cc="http://creativecommons.org/ns#"
   xmlns:rdf="http://www.w3.org/1999/02/22-rdf-syntax-ns#"
   xmlns:svg="http://www.w3.org/2000/svg"
   xmlns="http://www.w3.org/2000/svg"
   xmlns:sodipodi="http://sodipodi.sourceforge.net/DTD/sodipodi-0.dtd"
   xmlns:inkscape="http://www.inkscape.org/namespaces/inkscape"
   width="744.09448819"
   height="1052.3622047"
   id="svg2"
   version="1.1"
   inkscape:version="0.48.4 r9939"
   sodipodi:docname="New document 1">
  <defs
     id="defs4" />
  <sodipodi:namedview
     id="base"
     pagecolor="#ffffff"
     bordercolor="#666666"
     borderopacity="1.0"
     inkscape:pageopacity="0.0"
     inkscape:pageshadow="2"
     inkscape:zoom="1"
     inkscape:cx="646.39353"
     inkscape:cy="757.78228"
     inkscape:document-units="px"
     inkscape:current-layer="layer1"
     showgrid="false"
     inkscape:window-width="1920"
     inkscape:window-height="1027"
     inkscape:window-x="0"
     inkscape:window-y="27"
     inkscape:window-maximized="1" />
  <metadata
     id="metadata7">
    <rdf:RDF>
      <cc:Work
         rdf:about="">
        <dc:format>image/svg+xml</dc:format>
        <dc:type
           rdf:resource="http://purl.org/dc/dcmitype/StillImage" />
        <dc:title></dc:title>
      </cc:Work>
    </rdf:RDF>
  </metadata>
  <g
     inkscape:label="Layer 1"
     inkscape:groupmode="layer"
     id="layer1">
    <text
       xml:space="preserve"
       style="font-size:205.3535614px;font-style:normal;font-variant:normal;font-weight:normal;font-stretch:normal;line-height:125%;letter-spacing:0px;word-spacing:0px;fill:#000000;fill-opacity:1;stroke:none;font-family:Garamond;-inkscape-font-specification:Garamond"
       x="31.272776"
       y="444.80099"
       id="text2985"
       sodipodi:linespacing="125%"
       transform="scale(1.3675213,0.73125004)"><tspan
         sodipodi:role="line"
         id="tspan2987"
         x="31.272776"
         y="444.80099">$</tspan></text>
    <path
       inkscape:connector-curvature="0"
       d="m 460.61612,120.14254 41.04312,1.10961 0.13803,0.01 14.36423,316.77702 -1.03321,2.55489 15.96892,-319.22202 -0.0245,0.0196 37.67032,0.14917 0.0537,0.19693 c -0.0165,4.88347 6.41441,8.8599 14.43103,8.87661 l 0,0 c 7.94898,0.045 14.40105,-3.85474 14.35479,-8.74804 l -0.29677,-65.72185 c 0.0167,-4.84526 -6.46702,-8.84294 -14.44103,-8.86899 l 0,0 c -7.99167,-0.0549 -14.40094,3.87381 -14.33968,8.75954 l 0.0115,2.61275 -0.0378,-0.01 c 0,0 -108.11134,-1.40917 -108.10631,-1.40533 l -3.4e-4,-1.80866 c 0.0142,-4.84719 -6.46202,-8.8582 -14.44611,-8.88812 l 0,0 c -7.96661,-0.0546 -14.40337,3.89485 -14.33961,8.77866 l 0.22643,65.69484 c -0.003,4.87398 6.41441,8.86371 14.4335,8.87852 l 0,0 c 7.95151,0.0431 14.42614,-3.85462 14.39237,-8.76123 l -0.005,-0.97406 -0.0151,-0.0115 z"
       id="path3039"
       sodipodi:nodetypes="cccccccccccccccccccccccccccccc" />
    <text
       xml:space="preserve"
       style="font-size:380.45361328px;font-style:normal;font-variant:normal;font-weight:normal;font-stretch:normal;line-height:125%;letter-spacing:0px;word-spacing:0px;fill:#000000;fill-opacity:1;stroke:none;font-family:Garamond;-inkscape-font-specification:Garamond"
       x="424.99457"
       y="375.93207"
       id="text3055"
       sodipodi:linespacing="125%"><tspan
         sodipodi:role="line"
         id="tspan3057"
         x="424.99457"
         y="375.93207">S</tspan></text>
    <path
       inkscape:connector-curvature="0"
       d="m 140.53662,190.46719 15.08899,-38.18496 0.0566,-0.12627 206.2598,75.96448 10.51998,-27.32085 -206.64907,-76.13667 0.01,0.0297 13.03226,-35.34453 0.20341,0.0169 c 4.58294,1.6868 10.52013,-2.99491 13.2794,-10.52172 l 0,0 c 2.7627,-7.45358 1.30657,-14.85066 -3.30708,-16.48185 l -61.8547,-22.21339 c -4.54696,-1.673905 -10.5222,3.05015 -13.27566,10.53373 l 0,0 c -2.78661,7.4903 -1.28861,14.85708 3.32306,16.47159 l 2.45891,0.88337 -0.0223,0.0321 c 0,0 -38.32354,101.10071 -38.31821,101.0973 l -1.69956,-0.61867 c -4.54963,-1.67222 -10.53482,3.04023 -13.29536,10.53195 l 0,0 c -2.77776,7.46686 -1.26968,14.86656 3.34104,16.47806 l 61.80531,22.27031 c 4.57864,1.67086 10.52371,-2.9936 13.28204,-10.52339 l 0,0 c 2.76178,-7.4566 1.31527,-14.87419 -3.30661,-16.52167 l -0.91696,-0.32866 -0.016,0.0102 z"
       id="path3039-5"
       sodipodi:nodetypes="cccccccccccccccccccccccccccccc" />
  </g>
</svg>
