<?xml version="1.0" encoding="utf-8"?>
<!-- Generator: Adobe Illustrator 16.0.0, SVG Export Plug-In . SVG Version: 6.00 Build 0)  -->
<!DOCTYPE svg PUBLIC "-//W3C//DTD SVG 1.1//EN" "http://www.w3.org/Graphics/SVG/1.1/DTD/svg11.dtd">
<svg version="1.1" id="Layer_1" xmlns="http://www.w3.org/2000/svg" xmlns:xlink="http://www.w3.org/1999/xlink" x="0px" y="0px"
	 width="2160px" height="720px" viewBox="0 0 2160 720" enable-background="new 0 0 2160 720" xml:space="preserve">
<line fill="none" stroke="#000000" stroke-width="4" stroke-miterlimit="10" x1="1" y1="645.015" x2="2160" y2="645.015"/>
<g>
	<path fill-rule="evenodd" clip-rule="evenodd" d="M25.665,634.577c0.704-0.393,1.213-0.879,1.368-1.756
		c0.468-2.686,2.16-4.568,4.229-6.178c3.016-2.344,6.426-3.965,9.958-5.336c2.066-0.803,4.195-1.449,6.288-2.182
		c0.829-0.287,1.643-0.611,2.658-0.992c0.034-1.236,0.086-2.441,0.094-3.646c0.047-6.9,0.142-13.801,0.102-20.697
		c-0.023-4.074,1.716-6.996,5.187-9.031c3.871-2.27,8.071-3.703,12.358-4.895c3.842-1.066,7.729-1.977,11.746-2.994
		c0.068-0.703,0.194-1.459,0.209-2.219c0.086-4.783,0.22-9.564,0.199-14.348c-0.016-3.732,1.517-6.336,4.901-7.988
		c2.82-1.375,5.749-2.381,8.76-3.168c7.211-1.891,14.535-3.201,21.929-4.105c6.62-0.814,13.227-1.736,19.86-2.387
		c6.748-0.66,13.522-1.068,20.286-1.555c5.43-0.391,10.865-0.783,16.3-1.086c3.887-0.217,7.781-0.307,11.671-0.416
		c8.226-0.238,16.452-0.525,24.675-0.664c12.345-0.207,24.691-0.33,37.036-0.432c4.671-0.039,9.348,0.029,14.02,0.137
		c8.001,0.182,16.004,0.379,24.005,0.674c6.104,0.229,12.209,0.609,18.312,0.936c5.553,0.297,11.103,0.561,16.65,0.932
		c4.214,0.279,8.419,0.678,12.625,1.072c4.98,0.471,9.965,0.938,14.932,1.516c5.626,0.656,11.26,1.312,16.857,2.199
		c5.922,0.936,11.843,1.967,17.561,3.836c2.422,0.791,4.812,1.734,7.099,2.85c3.218,1.566,4.567,4.414,4.624,7.885
		c0.098,5.551,0.364,11.105-0.276,16.871c1.438,0.385,2.798,0.77,4.169,1.113c4.308,1.086,8.621,2.174,12.69,3.998
		c2.02,0.904,3.994,1.945,5.869,3.117c2.872,1.797,4.169,4.688,4.217,7.9c0.104,7.229-0.058,14.463-0.162,21.691
		c-0.024,1.549-0.268,3.094-0.427,4.863c0.874,0.389,1.75,0.803,2.639,1.174c3.604,1.488,7.12,3.102,10.232,5.527
		c3.33,2.592,4.761,6.088,4.898,10.119c0.196,5.668,0.26,11.344,0.207,17.014c-0.036,4-0.228,8.008-0.597,11.99
		c-0.423,4.596-2.589,8.438-5.707,11.793c-3.928,4.229-8.746,7.172-13.872,9.678c-7.016,3.432-14.409,5.824-21.935,7.83
		c-8.484,2.264-17.085,3.998-25.739,5.449c-6.573,1.104-13.144,2.254-19.75,3.131c-6.827,0.906-13.695,1.551-20.553,2.232
		c-6.633,0.656-13.276,1.275-19.925,1.803c-4.765,0.379-9.546,0.576-14.317,0.869c-5.77,0.352-11.535,0.76-17.304,1.072
		c-4.112,0.223-8.224,0.312-12.335,0.48c-3.997,0.162-7.996,0.33-11.99,0.547c-0.502,0.029-0.989,0.373-1.48,0.572
		c-15.803,0-31.609,0-47.415,0c-0.492-0.199-0.978-0.549-1.478-0.572c-6.439-0.301-12.881-0.523-19.321-0.83
		c-5.221-0.244-10.436-0.535-15.649-0.881c-4.436-0.295-8.864-0.689-13.295-1.055c-6.204-0.506-12.413-0.957-18.607-1.559
		c-5.09-0.494-10.167-1.1-15.23-1.789c-8.257-1.121-16.525-2.184-24.735-3.574c-10.075-1.711-20.03-4.01-29.912-6.633
		c-5.686-1.51-11.377-2.998-16.891-5.096c-4.583-1.744-9.044-3.732-13.051-6.596c-3.772-2.695-7.039-5.818-8.292-10.516
		c-0.157-0.588-0.526-0.957-1.174-0.967C25.665,659.063,25.665,646.819,25.665,634.577z M32.374,643.337
		c-0.055,0.824-0.125,1.475-0.139,2.131c-0.076,4.779-0.154,9.561-0.207,14.342c-0.026,2.557,0.068,5.121-0.021,7.676
		c-0.115,3.348,1.151,6.035,3.536,8.305c1.789,1.697,3.743,3.18,5.942,4.264c2.885,1.422,5.796,2.818,8.789,3.99
		c7.046,2.76,14.406,4.484,21.725,6.342c11.961,3.031,24.052,5.395,36.272,7.08c5.503,0.758,11.009,1.512,16.525,2.148
		c5.851,0.678,11.715,1.24,17.576,1.811c3.539,0.346,7.086,0.625,10.63,0.91c4.543,0.363,9.081,0.764,13.632,1.043
		c5.655,0.35,11.32,0.613,16.985,0.871c7.433,0.34,14.872,0.762,22.311,0.924c8.898,0.191,17.796,0.154,26.697,0.199
		c3.225,0.016,6.453,0.037,9.68-0.045c5.775-0.146,11.55-0.34,17.325-0.562c7.109-0.271,14.213-0.594,21.322-0.895
		c0.334-0.016,0.667-0.033,0.999-0.055c5.325-0.348,10.645-0.701,15.97-1.047c4.546-0.295,9.094-0.566,13.64-0.883
		c2.885-0.201,5.768-0.422,8.642-0.701c5.751-0.561,11.505-1.111,17.247-1.771c5.961-0.686,11.922-1.391,17.852-2.283
		c5.932-0.891,11.827-1.984,17.728-3.055c9.405-1.707,18.723-3.801,27.824-6.756c6.243-2.027,12.335-4.432,17.948-7.91
		c2.28-1.414,4.373-3.047,6.293-4.92c2.992-2.91,4.771-6.387,5.095-10.57c0.076-1,0.157-2,0.162-2.998
		c0.016-5.451,0.014-10.902-0.005-16.35c-0.003-0.506,0.198-1.119-0.612-1.58c-0.474,0.254-1.035,0.555-1.601,0.855
		c-2.349,1.256-4.619,2.699-7.067,3.721c-3.887,1.627-7.852,3.09-11.854,4.418c-9.285,3.088-18.816,5.264-28.404,7.154
		c-6.751,1.332-13.554,2.42-20.347,3.531c-5.37,0.879-10.753,1.697-16.148,2.414c-4.627,0.615-9.272,1.066-13.912,1.557
		c-5.084,0.535-10.174,1.053-15.262,1.537c-4.093,0.391-8.189,0.764-12.288,1.064c-4.768,0.348-9.539,0.637-14.31,0.908
		c-6.102,0.35-12.204,0.703-18.309,0.967c-3.557,0.158-7.12,0.127-10.677,0.213c-7.888,0.186-15.777,0.533-23.668,0.555
		c-9.228,0.023-18.458-0.184-27.683-0.377c-7.111-0.15-14.221-0.424-21.33-0.662c-3.557-0.121-7.114-0.215-10.666-0.438
		c-4.881-0.303-9.751-0.719-14.629-1.082c-3.324-0.248-6.651-0.477-9.973-0.734c-3.546-0.275-7.099-0.514-10.635-0.879
		c-5.084-0.525-10.159-1.131-15.233-1.742c-5.958-0.723-11.927-1.363-17.856-2.264c-7.575-1.15-15.131-2.438-22.669-3.822
		c-10.378-1.908-20.668-4.236-30.753-7.369c-7.329-2.275-14.556-4.83-21.068-9.033C33.236,643.38,32.983,643.417,32.374,643.337z
		 M412.778,599.384c-0.293,0.033-0.659-0.023-0.915,0.115c-6.121,3.291-12.728,5.25-19.395,6.979
		c-15.941,4.135-32.2,6.562-48.511,8.623c-7.161,0.906-14.364,1.51-21.552,2.232c-2.762,0.277-5.529,0.52-8.297,0.748
		c-4.541,0.373-9.081,0.773-13.627,1.064c-5.545,0.355-11.098,0.639-16.648,0.895c-7.88,0.363-15.764,0.762-23.647,0.982
		c-6.67,0.189-13.35,0.174-20.022,0.199c-14.791,0.059-29.579-0.002-44.357-0.693c-2.446-0.115-4.896-0.07-7.339-0.203
		c-6.212-0.344-12.424-0.744-18.633-1.127c-4.436-0.275-8.882-0.479-13.311-0.861c-5.977-0.518-11.948-1.121-17.911-1.781
		c-8.171-0.9-16.355-1.729-24.492-2.871c-11.108-1.562-22.172-3.432-33.094-6.027c-8.108-1.928-16.138-4.148-23.624-7.959
		c-0.361-0.184-0.774-0.262-1.423-0.473c-0.063,1.109-0.146,1.959-0.146,2.811c-0.016,4.672,0.125,9.352-0.06,14.016
		c-0.107,2.654,0.878,4.498,2.979,5.893c1.02,0.674,2.032,1.381,3.128,1.906c2.5,1.201,5.012,2.406,7.596,3.414
		c6.526,2.545,13.271,4.396,20.082,6.01c9.508,2.254,19.075,4.234,28.722,5.789c5.482,0.883,10.998,1.547,16.512,2.227
		c3.196,0.396,6.413,0.658,9.625,0.93c4.541,0.381,9.082,0.779,13.627,1.057c5.77,0.354,11.545,0.6,17.32,0.877
		c6.769,0.324,13.538,0.666,20.312,0.938c4.554,0.184,9.112,0.236,13.669,0.379c4.111,0.135,8.218,0.439,12.324,0.447
		c15.902,0.041,31.808,0.445,47.702-0.434c3.327-0.186,6.67-0.168,10-0.354c5.992-0.328,11.982-0.705,17.966-1.129
		c6.539-0.461,13.088-0.863,19.606-1.541c6.183-0.641,12.345-1.529,18.497-2.451c8.236-1.234,16.447-2.637,24.68-3.902
		c13.653-2.1,26.896-5.822,40.013-10.051c2.004-0.646,4.002-1.363,5.906-2.25c1.496-0.697,2.935-1.592,4.239-2.607
		c1.635-1.271,2.673-2.998,2.694-5.146c0.05-5.342,0.06-10.68,0.07-16.018C413.045,599.841,412.891,599.646,412.778,599.384z
		 M386.241,558.032c-1.047-1.176-2.286-1.689-3.511-2.17c-1.443-0.57-2.927-1.049-4.415-1.488
		c-7.585-2.244-15.374-3.547-23.188-4.527c-10.583-1.326-21.202-2.426-31.829-3.322c-8.744-0.738-17.524-1.096-26.294-1.52
		c-9.767-0.473-19.538-0.928-29.31-1.205c-7.559-0.217-15.128-0.193-22.692-0.201c-8.676-0.008-17.352,0.07-26.03,0.104
		c-7.894,0.031-15.782,0.066-23.671,0.506c-7.988,0.449-15.994,0.594-23.99,0.881c-1.668,0.057-3.332,0.141-4.996,0.254
		c-4.768,0.326-9.536,0.67-14.302,1.018c-2.88,0.211-5.759,0.441-8.639,0.674c-3.544,0.285-7.101,0.49-10.629,0.9
		c-6.4,0.746-12.782,1.604-19.172,2.438c-6.061,0.789-12.074,1.877-17.979,3.441c-2.775,0.738-5.456,1.852-8.142,2.889
		c-0.641,0.246-1.504,0.535-1.454,1.615c1.09,1.152,2.579,1.689,4.038,2.145c3.175,0.986,6.366,1.959,9.604,2.697
		c11.942,2.729,24.105,4.008,36.262,5.23c8.182,0.824,16.389,1.406,24.597,1.926c8.647,0.549,17.31,0.928,25.967,1.316
		c4.331,0.193,8.67,0.25,13.004,0.344c8.113,0.18,16.227,0.416,24.34,0.488c9.897,0.082,19.799,0.02,29.702,0.018
		c1.001,0,2.003-0.002,3.002-0.031c6.22-0.186,12.439-0.367,18.659-0.576c7.999-0.264,16.002-0.441,23.995-0.863
		c8.652-0.457,17.297-1.109,25.941-1.752c5.984-0.447,11.969-0.904,17.933-1.568c8.83-0.984,17.646-2.131,26.369-3.871
		c4.248-0.852,8.475-1.797,12.537-3.344C383.393,559.925,384.886,559.435,386.241,558.032z M415.2,624.63
		c-4.909,4.27-10.906,6.262-17.027,7.998c-1.922,0.545-3.829,1.143-5.733,1.742c-11.681,3.68-23.645,6.102-35.696,8.135
		c-4.928,0.828-9.887,1.48-14.82,2.273c-8.008,1.283-16.017,2.561-24.115,3.193c-2.77,0.217-5.532,0.539-8.301,0.775
		c-4.538,0.391-9.076,0.824-13.625,1.107c-5.435,0.34-10.878,0.566-16.321,0.801c-9.104,0.389-18.209,0.936-27.319,1.061
		c-9.782,0.137-19.572-0.074-29.357-0.242c-7.446-0.129-14.89-0.416-22.336-0.656c-6.33-0.205-12.665-0.408-18.994-0.68
		c-5.44-0.234-10.881-0.529-16.316-0.861c-7.658-0.465-15.322-0.838-22.959-1.533c-8.184-0.748-16.342-1.752-24.469-3.068
		c-11.192-1.809-22.274-4.1-33.27-6.828c-7.554-1.871-14.984-4.143-22.102-7.342c-3.771-1.697-7.35-3.703-10.221-6.775
		c-0.212-0.227-0.56-0.332-0.918-0.533c-4.242,1.23-8.458,2.611-12.429,4.625c-1.577,0.801-3.065,1.797-4.515,2.818
		c-0.709,0.5-1.287,1.217-1.831,1.91c-0.878,1.117-0.787,2.361,0.089,3.367c1.017,1.162,2.134,2.291,3.39,3.182
		c1.527,1.092,3.18,2.062,4.891,2.838c3.133,1.42,6.303,2.783,9.536,3.953c7.527,2.725,15.27,4.719,23.069,6.486
		c10.08,2.285,20.233,4.166,30.46,5.654c5.168,0.754,10.342,1.463,15.518,2.148c4.737,0.627,9.476,1.273,14.226,1.768
		c5.749,0.6,11.508,1.078,17.268,1.553c7.536,0.625,15.065,1.311,22.609,1.762c8.767,0.52,17.54,0.914,26.317,1.18
		c8.448,0.256,16.902,0.365,25.355,0.383c14.014,0.031,28.028,0.035,42.034-0.645c6.997-0.34,13.996-0.553,20.995-0.895
		c4.106-0.203,8.213-0.504,12.309-0.844c6.314-0.527,12.628-1.09,18.931-1.707c7.078-0.693,14.166-1.344,21.223-2.234
		c7.161-0.898,14.294-2.061,21.438-3.119c10.551-1.566,21.011-3.623,31.365-6.176c7.982-1.969,15.897-4.182,23.514-7.318
		c2.981-1.227,5.933-2.545,8.584-4.41c1.178-0.826,2.323-1.734,3.316-2.77c1.818-1.904,1.784-3.264-0.122-5.16
		c-0.937-0.93-2.03-1.748-3.168-2.42C422.417,627.206,418.959,625.724,415.2,624.63z M85.908,564.522
		c-0.094,0.672-0.232,1.197-0.235,1.723c-0.023,3.227,0.058,6.455-0.047,9.678c-0.058,1.779,0.625,2.984,2.119,3.816
		c1.261,0.703,2.474,1.52,3.798,2.074c2.354,0.984,4.739,1.914,7.171,2.682c10.742,3.373,21.84,5.061,32.94,6.656
		c6.486,0.934,13.015,1.592,19.543,2.189c7.857,0.717,15.725,1.326,23.597,1.816c7.988,0.5,15.981,0.875,23.977,1.17
		c11.333,0.418,22.664,0.9,34.002,1.018c13.229,0.137,26.467,0.268,39.688-0.607c5.768-0.381,11.548-0.535,17.315-0.922
		c4.546-0.307,9.082-0.785,13.617-1.238c4.975-0.496,9.952-1.004,14.917-1.598c6.285-0.75,12.565-1.578,18.842-2.406
		c4.072-0.539,8.171-0.971,12.199-1.756c6.319-1.23,12.602-2.66,18.868-4.127c3.348-0.785,6.67-1.711,9.929-2.793
		c1.875-0.625,3.672-1.58,5.38-2.598c1.808-1.078,2.867-2.699,2.861-4.949c-0.008-2.777,0.145-5.555,0.176-8.332
		c0.005-0.494-0.225-0.992-0.382-1.621c-0.623,0.166-1.052,0.24-1.446,0.395c-5.088,2.006-10.399,3.232-15.748,4.207
		c-10.494,1.912-21.066,3.338-31.706,4.184c-2.992,0.234-5.974,0.588-8.961,0.842c-4.431,0.377-8.861,0.766-13.297,1.049
		c-5.21,0.33-10.431,0.561-15.649,0.816c-7.546,0.369-15.092,0.809-22.643,1.062c-7.224,0.24-14.454,0.387-21.68,0.383
		c-16.465-0.004-32.927-0.07-49.39-0.232c-7.334-0.07-14.665-0.404-21.997-0.672c-6.332-0.23-12.665-0.469-18.989-0.82
		c-4.996-0.281-9.976-0.73-14.961-1.129c-6.204-0.494-12.424-0.855-18.607-1.561c-8.056-0.918-16.096-1.99-24.11-3.23
		c-6.693-1.035-13.331-2.422-19.695-4.857C86.913,564.683,86.479,564.646,85.908,564.522z M55.777,591.583
		c0.458,1.521,1.752,2.232,2.956,3.008c2.636,1.691,5.529,2.848,8.466,3.879c8.618,3.021,17.485,5.092,26.449,6.732
		c7.211,1.32,14.456,2.455,21.709,3.531c6.264,0.93,12.549,1.738,18.842,2.453c5.521,0.621,11.066,1.066,16.606,1.537
		c7.418,0.631,14.838,1.316,22.269,1.785c8.208,0.518,16.428,0.922,24.649,1.178c10.671,0.336,21.343,0.545,32.02,0.674
		c5.333,0.062,10.671-0.189,16.007-0.262c6.34-0.09,12.68-0.129,19.023-0.215c2.336-0.031,4.671-0.094,7.002-0.207
		c6.884-0.338,13.768-0.688,20.647-1.064c4.773-0.262,9.547-0.557,14.315-0.881c3.214-0.217,6.432-0.475,9.641-0.779
		c5.532-0.525,11.066-1.064,16.591-1.674c6.408-0.707,12.821-1.387,19.203-2.275c6.489-0.906,12.957-1.975,19.412-3.111
		c9.523-1.674,18.963-3.75,28.165-6.752c3.154-1.029,6.193-2.443,9.209-3.848c1.689-0.787,3.313-1.812,4.146-3.529
		c-0.188-1.26-1.018-1.885-1.878-2.359c-1.742-0.967-3.502-1.947-5.352-2.676c-4.663-1.83-9.516-3.064-14.396-4.152
		c-1.177-0.262-2.341-0.475-3.466,0.471c-2.858,2.398-6.24,3.832-9.79,4.838c-3.737,1.057-7.491,2.064-11.272,2.945
		c-5.409,1.264-10.803,2.684-16.279,3.518c-10.321,1.574-20.7,2.805-31.057,4.125c-4.63,0.592-9.275,1.084-13.915,1.572
		c-3.761,0.395-7.522,0.779-11.289,1.062c-4.766,0.355-9.542,0.629-14.312,0.889c-6.772,0.365-13.541,0.865-20.318,0.982
		c-12.23,0.211-24.466,0.43-36.701-0.213c-6.659-0.348-13.332-0.453-19.999-0.705c-5.111-0.189-10.216-0.441-15.327-0.66
		c-3.667-0.158-7.336-0.25-11.001-0.467c-5.325-0.312-10.645-0.68-15.965-1.09c-6.094-0.475-12.199-0.893-18.272-1.57
		c-5.851-0.65-11.668-1.59-17.498-2.418c-7.371-1.053-14.679-2.451-21.918-4.188c-1.726-0.414-3.439-0.9-5.132-1.445
		c-6.037-1.938-12.042-3.953-16.721-8.408c-5.412,1.049-10.601,2.254-15.644,3.994c-2.302,0.795-4.546,1.791-6.735,2.859
		C57.592,589.288,56.311,590.058,55.777,591.583z"/>
	<path fill-rule="evenodd" clip-rule="evenodd" fill="#FFFFFF" d="M32.374,643.337c0.609,0.08,0.863,0.043,1.022,0.146
		c6.513,4.203,13.74,6.758,21.068,9.033c10.085,3.133,20.375,5.461,30.753,7.369c7.538,1.385,15.094,2.672,22.669,3.822
		c5.93,0.9,11.898,1.541,17.856,2.264c5.074,0.611,10.148,1.217,15.233,1.742c3.536,0.365,7.088,0.604,10.635,0.879
		c3.322,0.258,6.649,0.486,9.973,0.734c4.878,0.363,9.748,0.779,14.629,1.082c3.552,0.223,7.109,0.316,10.666,0.438
		c7.109,0.238,14.218,0.512,21.33,0.662c9.225,0.193,18.456,0.4,27.683,0.377c7.891-0.021,15.78-0.369,23.668-0.555
		c3.557-0.086,7.12-0.055,10.677-0.213c6.104-0.264,12.207-0.617,18.309-0.967c4.771-0.271,9.542-0.561,14.31-0.908
		c4.098-0.301,8.194-0.674,12.288-1.064c5.087-0.484,10.177-1.002,15.262-1.537c4.64-0.49,9.285-0.941,13.912-1.557
		c5.396-0.717,10.778-1.535,16.148-2.414c6.793-1.111,13.596-2.199,20.347-3.531c9.588-1.891,19.119-4.066,28.404-7.154
		c4.002-1.328,7.967-2.791,11.854-4.418c2.448-1.021,4.719-2.465,7.067-3.721c0.565-0.301,1.127-0.602,1.601-0.855
		c0.811,0.461,0.609,1.074,0.612,1.58c0.019,5.447,0.021,10.898,0.005,16.35c-0.005,0.998-0.086,1.998-0.162,2.998
		c-0.324,4.184-2.103,7.66-5.095,10.57c-1.92,1.873-4.013,3.506-6.293,4.92c-5.613,3.479-11.705,5.883-17.948,7.91
		c-9.102,2.955-18.419,5.049-27.824,6.756c-5.9,1.07-11.796,2.164-17.728,3.055c-5.93,0.893-11.891,1.598-17.852,2.283
		c-5.741,0.66-11.495,1.211-17.247,1.771c-2.875,0.279-5.757,0.5-8.642,0.701c-4.546,0.316-9.094,0.588-13.64,0.883
		c-5.325,0.346-10.645,0.699-15.97,1.047c-0.333,0.021-0.665,0.039-0.999,0.055c-7.109,0.301-14.213,0.623-21.322,0.895
		c-5.775,0.223-11.55,0.416-17.325,0.562c-3.228,0.082-6.455,0.061-9.68,0.045c-8.901-0.045-17.799-0.008-26.697-0.199
		c-7.438-0.162-14.877-0.584-22.311-0.924c-5.666-0.258-11.331-0.521-16.985-0.871c-4.551-0.279-9.089-0.68-13.632-1.043
		c-3.544-0.285-7.091-0.564-10.63-0.91c-5.861-0.57-11.725-1.133-17.576-1.811c-5.516-0.637-11.022-1.391-16.525-2.148
		c-12.22-1.686-24.312-4.049-36.272-7.08c-7.318-1.857-14.679-3.582-21.725-6.342c-2.992-1.172-5.903-2.568-8.789-3.99
		c-2.2-1.084-4.153-2.566-5.942-4.264c-2.385-2.27-3.651-4.957-3.536-8.305c0.089-2.555-0.005-5.119,0.021-7.676
		c0.052-4.781,0.131-9.562,0.207-14.342C32.248,644.812,32.318,644.161,32.374,643.337z"/>
	<path fill-rule="evenodd" clip-rule="evenodd" fill="#FFFFFF" d="M412.778,599.384c0.112,0.262,0.267,0.457,0.267,0.65
		c-0.011,5.338-0.021,10.676-0.07,16.018c-0.021,2.148-1.06,3.875-2.694,5.146c-1.305,1.016-2.743,1.91-4.239,2.607
		c-1.904,0.887-3.902,1.604-5.906,2.25c-13.117,4.229-26.359,7.951-40.013,10.051c-8.233,1.266-16.444,2.668-24.68,3.902
		c-6.152,0.922-12.314,1.811-18.497,2.451c-6.518,0.678-13.067,1.08-19.606,1.541c-5.984,0.424-11.974,0.801-17.966,1.129
		c-3.33,0.186-6.672,0.168-10,0.354c-15.895,0.879-31.8,0.475-47.702,0.434c-4.106-0.008-8.213-0.312-12.324-0.447
		c-4.557-0.143-9.115-0.195-13.669-0.379c-6.774-0.271-13.543-0.613-20.312-0.938c-5.775-0.277-11.55-0.523-17.32-0.877
		c-4.545-0.277-9.086-0.676-13.627-1.057c-3.212-0.271-6.429-0.533-9.625-0.93c-5.514-0.68-11.03-1.344-16.512-2.227
		c-9.646-1.555-19.214-3.535-28.722-5.789c-6.811-1.613-13.556-3.465-20.082-6.01c-2.584-1.008-5.095-2.213-7.596-3.414
		c-1.096-0.525-2.108-1.232-3.128-1.906c-2.101-1.395-3.086-3.238-2.979-5.893c0.186-4.664,0.044-9.344,0.06-14.016
		c0-0.852,0.083-1.701,0.146-2.811c0.648,0.211,1.062,0.289,1.423,0.473c7.485,3.811,15.515,6.031,23.624,7.959
		c10.922,2.596,21.986,4.465,33.094,6.027c8.137,1.143,16.321,1.971,24.492,2.871c5.963,0.66,11.935,1.264,17.911,1.781
		c4.428,0.383,8.875,0.586,13.311,0.861c6.209,0.383,12.421,0.783,18.633,1.127c2.443,0.133,4.894,0.088,7.339,0.203
		c14.778,0.691,29.566,0.752,44.357,0.693c6.672-0.025,13.352-0.01,20.022-0.199c7.883-0.221,15.767-0.619,23.647-0.982
		c5.55-0.256,11.103-0.539,16.648-0.895c4.546-0.291,9.086-0.691,13.627-1.064c2.768-0.229,5.535-0.471,8.297-0.748
		c7.188-0.723,14.391-1.326,21.552-2.232c16.311-2.061,32.569-4.488,48.511-8.623c6.667-1.729,13.273-3.688,19.395-6.979
		C412.119,599.36,412.485,599.417,412.778,599.384z"/>
	<path fill-rule="evenodd" clip-rule="evenodd" fill="#FFFFFF" d="M386.241,558.032c-1.355,1.402-2.849,1.893-4.292,2.443
		c-4.062,1.547-8.289,2.492-12.537,3.344c-8.723,1.74-17.539,2.887-26.369,3.871c-5.964,0.664-11.948,1.121-17.933,1.568
		c-8.644,0.643-17.289,1.295-25.941,1.752c-7.993,0.422-15.997,0.6-23.995,0.863c-6.22,0.209-12.439,0.391-18.659,0.576
		c-0.999,0.029-2.001,0.031-3.002,0.031c-9.903,0.002-19.805,0.064-29.702-0.018c-8.114-0.072-16.227-0.309-24.34-0.488
		c-4.334-0.094-8.673-0.15-13.004-0.344c-8.658-0.389-17.32-0.768-25.967-1.316c-8.208-0.52-16.415-1.102-24.597-1.926
		c-12.157-1.223-24.319-2.502-36.262-5.23c-3.238-0.738-6.429-1.711-9.604-2.697c-1.459-0.455-2.948-0.992-4.038-2.145
		c-0.05-1.08,0.813-1.369,1.454-1.615c2.686-1.037,5.367-2.15,8.142-2.889c5.906-1.564,11.919-2.652,17.979-3.441
		c6.39-0.834,12.771-1.691,19.172-2.438c3.528-0.41,7.085-0.615,10.629-0.9c2.88-0.232,5.759-0.463,8.639-0.674
		c4.766-0.348,9.534-0.691,14.302-1.018c1.664-0.113,3.327-0.197,4.996-0.254c7.996-0.287,16.002-0.432,23.99-0.881
		c7.889-0.439,15.777-0.475,23.671-0.506c8.678-0.033,17.354-0.111,26.03-0.104c7.564,0.008,15.134-0.016,22.692,0.201
		c9.772,0.277,19.543,0.732,29.31,1.205c8.77,0.424,17.55,0.781,26.294,1.52c10.627,0.896,21.246,1.996,31.829,3.322
		c7.814,0.98,15.604,2.283,23.188,4.527c1.488,0.439,2.972,0.918,4.415,1.488C383.955,556.343,385.194,556.856,386.241,558.032z"/>
	<path fill-rule="evenodd" clip-rule="evenodd" fill="#FFFFFF" d="M415.2,624.63c3.759,1.094,7.217,2.576,10.473,4.496
		c1.138,0.672,2.231,1.49,3.168,2.42c1.906,1.896,1.94,3.256,0.122,5.16c-0.993,1.035-2.139,1.943-3.316,2.77
		c-2.651,1.865-5.603,3.184-8.584,4.41c-7.616,3.137-15.531,5.35-23.514,7.318c-10.354,2.553-20.814,4.609-31.365,6.176
		c-7.144,1.059-14.276,2.221-21.438,3.119c-7.057,0.891-14.145,1.541-21.223,2.234c-6.303,0.617-12.617,1.18-18.931,1.707
		c-4.096,0.34-8.202,0.641-12.309,0.844c-7,0.342-13.999,0.555-20.995,0.895c-14.006,0.68-28.021,0.676-42.034,0.645
		c-8.454-0.018-16.907-0.127-25.355-0.383c-8.778-0.266-17.55-0.66-26.317-1.18c-7.543-0.451-15.073-1.137-22.609-1.762
		c-5.759-0.475-11.519-0.953-17.268-1.553c-4.75-0.494-9.489-1.141-14.226-1.768c-5.176-0.686-10.35-1.395-15.518-2.148
		c-10.227-1.488-20.38-3.369-30.46-5.654c-7.8-1.768-15.542-3.762-23.069-6.486c-3.233-1.17-6.403-2.533-9.536-3.953
		c-1.711-0.775-3.364-1.746-4.891-2.838c-1.255-0.891-2.373-2.02-3.39-3.182c-0.876-1.006-0.968-2.25-0.089-3.367
		c0.544-0.693,1.122-1.41,1.831-1.91c1.449-1.021,2.938-2.018,4.515-2.818c3.97-2.014,8.187-3.395,12.429-4.625
		c0.358,0.201,0.707,0.307,0.918,0.533c2.872,3.072,6.45,5.078,10.221,6.775c7.117,3.199,14.548,5.471,22.102,7.342
		c10.996,2.729,22.078,5.02,33.27,6.828c8.126,1.316,16.285,2.32,24.469,3.068c7.637,0.695,15.301,1.068,22.959,1.533
		c5.435,0.332,10.875,0.627,16.316,0.861c6.33,0.271,12.665,0.475,18.994,0.68c7.446,0.24,14.89,0.527,22.336,0.656
		c9.785,0.168,19.575,0.379,29.357,0.242c9.11-0.125,18.215-0.672,27.319-1.061c5.443-0.234,10.886-0.461,16.321-0.801
		c4.548-0.283,9.086-0.717,13.625-1.107c2.77-0.236,5.532-0.559,8.301-0.775c8.098-0.633,16.107-1.91,24.115-3.193
		c4.934-0.793,9.893-1.445,14.82-2.273c12.052-2.033,24.016-4.455,35.696-8.135c1.904-0.6,3.812-1.197,5.733-1.742
		C404.294,630.892,410.291,628.899,415.2,624.63z"/>
	<path fill-rule="evenodd" clip-rule="evenodd" fill="#FFFFFF" d="M85.908,564.522c0.57,0.123,1.004,0.16,1.397,0.311
		c6.364,2.436,13.002,3.822,19.695,4.857c8.014,1.24,16.054,2.312,24.11,3.23c6.183,0.705,12.403,1.066,18.607,1.561
		c4.985,0.398,9.965,0.848,14.961,1.129c6.324,0.352,12.657,0.59,18.989,0.82c7.332,0.268,14.663,0.602,21.997,0.672
		c16.462,0.162,32.925,0.229,49.39,0.232c7.227,0.004,14.456-0.143,21.68-0.383c7.551-0.254,15.097-0.693,22.643-1.062
		c5.218-0.256,10.439-0.486,15.649-0.816c4.436-0.283,8.867-0.672,13.297-1.049c2.987-0.254,5.969-0.607,8.961-0.842
		c10.64-0.846,21.212-2.271,31.706-4.184c5.349-0.975,10.66-2.201,15.748-4.207c0.395-0.154,0.823-0.229,1.446-0.395
		c0.157,0.629,0.387,1.127,0.382,1.621c-0.031,2.777-0.184,5.555-0.176,8.332c0.006,2.25-1.054,3.871-2.861,4.949
		c-1.708,1.018-3.505,1.973-5.38,2.598c-3.259,1.082-6.581,2.008-9.929,2.793c-6.267,1.467-12.549,2.896-18.868,4.127
		c-4.028,0.785-8.127,1.217-12.199,1.756c-6.277,0.828-12.557,1.656-18.842,2.406c-4.964,0.594-9.942,1.102-14.917,1.598
		c-4.535,0.453-9.071,0.932-13.617,1.238c-5.767,0.387-11.547,0.541-17.315,0.922c-13.221,0.875-26.458,0.744-39.688,0.607
		c-11.338-0.117-22.669-0.6-34.002-1.018c-7.996-0.295-15.989-0.67-23.977-1.17c-7.873-0.49-15.74-1.1-23.597-1.816
		c-6.528-0.598-13.057-1.256-19.543-2.189c-11.101-1.596-22.198-3.283-32.94-6.656c-2.432-0.768-4.817-1.697-7.171-2.682
		c-1.324-0.555-2.537-1.371-3.798-2.074c-1.494-0.832-2.176-2.037-2.119-3.816c0.104-3.223,0.023-6.451,0.047-9.678
		C85.676,565.72,85.814,565.194,85.908,564.522z"/>
	<path fill-rule="evenodd" clip-rule="evenodd" fill="#FFFFFF" d="M55.777,591.583c0.534-1.525,1.815-2.295,3.089-2.916
		c2.189-1.068,4.434-2.064,6.735-2.859c5.042-1.74,10.232-2.945,15.644-3.994c4.679,4.455,10.684,6.471,16.721,8.408
		c1.692,0.545,3.406,1.031,5.132,1.445c7.24,1.736,14.548,3.135,21.918,4.188c5.83,0.828,11.647,1.768,17.498,2.418
		c6.073,0.678,12.178,1.096,18.272,1.57c5.32,0.41,10.64,0.777,15.965,1.09c3.665,0.217,7.334,0.309,11.001,0.467
		c5.111,0.219,10.216,0.471,15.327,0.66c6.667,0.252,13.339,0.357,19.999,0.705c12.235,0.643,24.471,0.424,36.701,0.213
		c6.777-0.117,13.546-0.617,20.318-0.982c4.771-0.26,9.546-0.533,14.312-0.889c3.767-0.283,7.527-0.668,11.289-1.062
		c4.64-0.488,9.285-0.98,13.915-1.572c10.357-1.32,20.736-2.551,31.057-4.125c5.477-0.834,10.87-2.254,16.279-3.518
		c3.781-0.881,7.535-1.889,11.272-2.945c3.55-1.006,6.932-2.439,9.79-4.838c1.125-0.945,2.289-0.732,3.466-0.471
		c4.88,1.088,9.732,2.322,14.396,4.152c1.85,0.729,3.609,1.709,5.352,2.676c0.86,0.475,1.689,1.1,1.878,2.359
		c-0.832,1.717-2.456,2.742-4.146,3.529c-3.016,1.404-6.055,2.818-9.209,3.848c-9.202,3.002-18.642,5.078-28.165,6.752
		c-6.455,1.137-12.923,2.205-19.412,3.111c-6.382,0.889-12.795,1.568-19.203,2.275c-5.524,0.609-11.059,1.148-16.591,1.674
		c-3.209,0.305-6.426,0.562-9.641,0.779c-4.768,0.324-9.542,0.619-14.315,0.881c-6.879,0.377-13.763,0.727-20.647,1.064
		c-2.331,0.113-4.666,0.176-7.002,0.207c-6.343,0.086-12.683,0.125-19.023,0.215c-5.335,0.072-10.674,0.324-16.007,0.262
		c-10.677-0.129-21.348-0.338-32.02-0.674c-8.221-0.256-16.441-0.66-24.649-1.178c-7.431-0.469-14.851-1.154-22.269-1.785
		c-5.54-0.471-11.084-0.916-16.606-1.537c-6.293-0.715-12.578-1.523-18.842-2.453c-7.253-1.076-14.498-2.211-21.709-3.531
		c-8.963-1.641-17.831-3.711-26.449-6.732c-2.937-1.031-5.83-2.188-8.466-3.879C57.53,593.815,56.235,593.104,55.777,591.583z"/>
</g>
<g id="wXjg9f.tif">
	<g>
		<path fill="#FFFFFF" stroke="#000000" stroke-width="5" stroke-miterlimit="10" d="M351.004,514.79c-5.796,0-11.791,0-17.927,0
			c-1.574,3.877-3.014,7.355-4.398,10.855c-3.347,8.457-8.478,15.762-14.781,22.205c-6.888,7.039-15.112,10.971-25.281,9.982
			c-7.897-0.766-13.16-6.201-13.324-14.049c-0.181-8.744,4.842-15.066,12.769-16.244c5.97-0.885,11.015,0.92,15.425,5.336
			c8.212-2.959,11.118-9.658,13.698-16.932c-5.298-1.602-58.745-2.012-67.163-0.744c-4.933,6.799-9.472,13.732-14.698,20.1
			c-8.113,9.883-18.179,17.453-30.657,20.746c-22.991,6.066-43.53-1.729-56.266-21.969c-3.657-5.812-6.21-12.32-9.688-19.355
			c-5.822,0-12.202,0-19.039,0c0-4.891,0-9.004,0-14.059c5.441,0,10.682,0,15.97,0c1.772-5.629,1.259-10.402,0.563-15.938
			c-5.357-0.314-10.616-0.625-16.432-0.967c0-4.389,0-8.514,0-13.422c6.055,0,12.207,0,18.763,0
			c1.037-2.777,1.899-5.008,2.706-7.258c3.528-9.834,8.912-18.549,16.153-26.041c6.819-7.055,14.898-11.262,25.118-10.436
			c8.404,0.68,13.826,6.008,13.943,14.109c0.132,9.057-5.159,15.32-13.482,16.305c-5.778,0.684-10.506-1.301-14.734-5.414
			c-8.223,2.975-11.123,9.797-13.833,16.98c4.884,1.74,53.737,2.342,67.703,0.924c1.077-1.717,2.381-3.756,3.65-5.814
			c6.508-10.568,14.112-20.156,24.353-27.416c13.425-9.516,28.229-12.082,44.022-8.104c16.441,4.143,26.699,15.574,33.774,30.303
			c1.725,3.59,3.046,7.373,4.727,11.498c6.38,0,12.585,0,19.346,0c0,4.67,0,8.775,0,13.654c-5.359,0.377-10.78,0.758-16.588,1.164
			c0,5.17,0,9.764,0,14.582c5.135,2.527,10.695,0.32,15.827,1.641C353.051,506.065,353.045,509.329,351.004,514.79z
			 M261.442,485.563c-1.515,4.604-3.011,9.146-4.617,14.027c2.083,0.447,3.35,0.953,4.617,0.955
			c18.287,0.051,36.572,0.059,54.858-0.016c1.436-0.006,2.867-0.703,4.319-1.084c0-5.01,0-9.578,0-13.998
			C314.403,483.718,268.1,483.722,261.442,485.563z M151.12,499.29c5.43,1.617,50.832,1.891,58.621,0.312
			c1.572-4.26,3.307-8.963,5.035-13.646c-6.025-2.42-57.975-2.42-63.656-0.195C151.12,490.278,151.12,494.862,151.12,499.29z
			 M315.915,469.571c-2.421-10.49-13.103-18.164-24.595-18.035c-9.496,0.107-19.41,8.344-21.37,18.035
			C285.286,469.571,300.55,469.571,315.915,469.571z M155.765,514.657c2.789,11.201,14.478,19.158,25.688,18.26
			c9.16-0.734,18.725-9.34,19.687-18.162C186.049,514.485,171.02,514.575,155.765,514.657z"/>
	</g>
</g>
<g>
	<path fill-rule="evenodd" clip-rule="evenodd" d="M358.865,28.727c0.731,0.305,1.436,0.747,2.198,0.894
		c10.04,1.927,19.626,5.327,28.975,9.335c22.502,9.646,44.671,19.987,65.733,32.55c10.013,5.971,19.707,12.407,28.719,19.816
		c8.762,7.199,16.399,15.387,22.023,25.327c4.351,7.7,6.968,15.858,7.217,24.788c0.354,12.472-6.666,23.874-18.117,28.785
		c-2.697,1.157-5.544,1.967-8.309,2.964c-2.012,0.727-4.03,1.445-6.004,2.269c-4.231,1.757-7.552,7.375-5.132,12.759
		c0.875,1.948,1.88,3.843,2.916,5.707c1.31,2.337,2.799,4.574,4.058,6.934c5.539,10.37,1.362,22.128-9.131,27.056
		c-2.663,1.25-5.434,2.269-8.163,3.368c-0.869,0.352-1.753,0.684-2.655,0.921c-4.733,1.237-6.955,4.563-7.785,9.133
		c0.317,0.358,0.525,0.743,0.841,0.93c34.871,20.378,69.751,40.742,104.453,61.001c1.713-0.063,2.654-1.137,3.759-1.828
		c4.562-2.849,9.296-5.338,14.45-6.936c4.249-1.315,8.548-1.949,13.052-1.458c6.301,0.689,11.046,3.757,14.688,8.765
		c2.725,3.745,4.311,7.998,5.382,12.457c0.472,1.951,0.845,3.918,1.316,6.127c1.7,0.789,3.482,1.676,5.307,2.466
		c38.399,16.625,76.772,33.311,115.222,49.84c32.547,13.994,65.154,27.854,97.771,41.688c14.891,6.316,29.773,12.671,44.834,18.549
		c14.453,5.645,28.789,11.525,42.918,17.934c40.252,18.266,79.076,39.186,116.459,62.771c11.875,7.496,23.49,15.404,35.221,23.125
		c0.896,0.584,1.787,1.178,2.393,1.576c4.898-0.85,9.482-1.719,14.1-2.438c5.223-0.814,10.461-0.508,15.568,0.637
		c10.936,2.445,16.977,9.768,18.672,19.623c0.162,0.912,0.102,1.863,0.172,2.793c0.1,1.316,0.232,2.631,0.35,3.949
		c-0.559,4.791-1.117,9.584-1.674,14.379c-0.494,1.791-1.082,3.564-1.441,5.375c-0.291,1.463-0.627,2.865-1.449,4.133
		c-4.547,7.012-9.709,13.48-16.529,18.438c-1.938,1.412-4.018,2.705-6.195,3.699c-8.838,4.035-17.211,3.016-24.918-2.85
		c-4.654-3.533-8.09-8.172-11.104-13.115c-1.242-2.059-2.422-4.178-3.422-6.367c-0.943-2.053-2.402-3.451-4.316-4.572
		c-4.402-2.592-9.08-4.6-13.871-6.268c-8.965-3.125-17.986-6.076-27.041-8.904c-8.553-2.674-17.262-4.846-25.746-7.697
		c-9.375-3.143-18.629-6.676-27.842-10.268c-29.553-11.51-58.277-24.855-86.488-39.34c-18.793-9.652-37.562-19.348-56.51-28.703
		c-20.256-10.002-40.672-19.701-61.08-29.393c-36.229-17.208-72.475-34.377-108.773-51.435
		c-18.15-8.526-36.436-16.771-54.662-25.146c-0.361-0.164-0.746-0.272-1.259-0.456c-1.13,0.526-2.335,1.093-3.532,1.647
		c-5.148,2.366-10.469,4.141-16.159,4.484c-7.25,0.443-13.85-1.095-18.994-6.688c-2.678-2.912-4.412-6.367-5.628-10.097
		c-1.288-3.967-1.918-8.067-2.231-12.215c-0.084-1.063-0.17-2.123-0.275-3.41c-19.302-7.175-38.635-14.172-57.94-21.246
		c-19.292-7.064-38.563-14.182-58.059-21.219c-1.383,2.665-2.599,4.881-3.682,7.154c-0.598,1.239-0.588,2.591-0.141,3.92
		c0.764,2.284,1.501,4.574,2.277,6.854c1.16,3.42,2.36,6.818,2.772,10.454c1.111,9.93-4.762,17.977-12.727,20.388
		c-2.676,0.807-5.456,1.263-8.2,1.822c-2.618,0.53-5.255,0.957-7.875,1.479c-4.716,0.943-9.079,6.435-7.297,12.383
		c0.461,1.537,0.953,3.066,1.519,4.568c0.9,2.379,1.9,4.719,2.804,7.092c4.482,11.812,1.979,22.355-5.961,31.809
		c-5.313,6.321-12.36,9.67-20.335,11.238c-6.751,1.323-13.563,1.402-20.388,0.822c-10.85-0.92-21.391-3.361-31.764-6.631
		c-20.056-6.326-39.48-14.261-58.481-23.215c-18.418-8.676-36.03-18.832-53.088-29.933c-8.446-5.496-16.215-11.861-22.716-19.633
		c-6.834-8.167-11.527-17.367-13.264-27.963c-0.992-6.047-0.715-12.004,1.264-17.835c2.214-6.535,6.603-11.233,12.485-14.634
		c3.633-2.1,7.604-3.273,11.68-4.136c1.047-0.224,2.112-0.357,3.166-0.552c2.527-0.472,4.872-1.43,7.021-2.845
		c4.092-2.696,5.295-6.009,3.942-10.716c-0.826-2.875-2.287-5.413-3.988-7.839c-3.402-4.863-5.102-10.258-5.126-16.203
		c-0.029-7.425,2.919-13.243,9.334-17.089c2.289-1.369,4.714-2.581,7.207-3.514c5.351-2.008,9.37-5.479,12.621-10.134
		c4.757-6.821,8.808-14.056,13.045-21.188c4.751-8.013,7.764-16.736,10.846-25.436c1.74-4.915,3.159-9.945,4.664-14.945
		c1.385-4.607,1.4-9.187-0.137-13.82c-1.178-3.549-2.168-7.153-2.536-10.93c-0.503-5.284,1.16-9.785,4.511-13.705
		c4.163-4.869,9.542-7.686,15.814-8.807c1.972-0.355,3.983-0.478,5.953-0.858c1.698-0.324,3.425-0.698,5.022-1.338
		c4.972-1.989,6.857-5.568,5.899-10.902c-0.455-2.521-1.368-4.87-2.613-7.127c-1.226-2.223-2.472-4.48-3.302-6.863
		c-4-11.432-1.895-21.904,5.428-31.38c4.961-6.419,11.47-10.805,19.026-13.614c8.983-3.331,18.261-5.107,27.881-4.897
		c0.907,0.019,1.824-0.25,2.737-0.388C346.615,27.299,352.742,28.013,358.865,28.727z M592.755,367.848
		c3.776,1.717,7.055,3.185,10.313,4.692c25.828,11.977,51.698,23.867,77.474,35.969c25.533,11.988,50.977,24.168,76.441,36.306
		c18.582,8.86,37.217,17.622,55.672,26.746c19.773,9.772,39.402,19.843,59.027,29.913c27.373,14.049,55.188,27.115,83.77,38.514
		c16.65,6.639,33.461,12.811,50.787,17.516c10.965,2.979,21.789,6.455,32.453,10.375c5.525,2.027,10.988,4.209,16.129,7.119
		c3.48,1.963,6.139,4.518,7.902,8.232c1.66,3.486,3.82,6.752,5.982,9.971c1.939,2.902,4.367,5.395,7.264,7.43
		c4.387,3.072,9.057,3.729,14.092,1.885c3.32-1.211,6.211-3.135,8.852-5.436c4.461-3.902,8.303-8.354,11.398-13.422
		c0.76-1.234,1.426-2.605,1.764-4.004c1.037-4.293,2.139-8.584,2.389-13.021c0.207-3.617,0.137-7.215-0.736-10.771
		c-1.361-5.539-4.805-9.166-10.08-11.086c-1.367-0.494-2.854-0.695-4.303-0.93c-7.85-1.26-15.453,0.102-22.977,2.244
		c-1.271,0.361-2.541,0.752-3.854,1.146c-1.16-0.787-2.26-1.543-3.371-2.283c-10.688-7.119-21.289-14.381-32.098-21.32
		c-21.736-13.953-44.072-26.885-66.867-39.023c-19.244-10.248-38.803-19.868-58.707-28.766
		c-12.805-5.73-25.838-10.937-38.898-16.075c-14.301-5.626-28.453-11.644-42.605-17.649
		c-34.939-14.834-69.867-29.727-104.768-44.665c-21.262-9.102-42.471-18.326-63.693-27.503
		c-15.954-6.898-31.893-13.814-47.84-20.712c-0.697-0.301-1.441-0.501-2.391-0.827c-0.963,3.715-1.691,7.232-2.804,10.621
		c-1.122,3.425-2.443,6.808-3.993,10.055c-1.561,3.25-3.408,6.376-5.324,9.432C597.255,361.555,595.112,364.439,592.755,367.848z
		 M451.574,229.492c-0.407-0.231-0.728-0.485-1.099-0.61c-17.72-6.044-35.059-13.045-52.248-20.441
		c-24.932-10.725-49.449-22.348-73.71-34.511c-18.644-9.347-37.13-18.999-55.456-28.954c-0.886-0.483-1.846-0.836-2.644-1.195
		c-1.126,4.78-2.084,9.351-3.283,13.862c-2.139,8.03-5.223,15.738-8.121,23.512c-0.884,2.374-1.689,4.816-2.905,7.02
		c-3.746,6.796-7.541,13.567-11.56,20.2c-3.328,5.488-6.733,10.957-11.369,15.506c-0.439,0.427-0.782,0.948-1.34,1.635
		c0.961,0.479,1.638,0.875,2.359,1.165c6.077,2.431,12.192,4.788,18.249,7.273c31.791,13.028,63.29,26.714,94.246,41.623
		c22.165,10.675,44.028,21.933,65.227,34.438c1.602,0.944,3.201,1.884,4.712,2.775C426.818,285.549,439.585,257.898,451.574,229.492
		z M175.801,314.642c5.118,3.244,9.828,6.295,14.598,9.251c24.919,15.439,50.794,29.125,77.099,42.013
		c34.025,16.672,68.921,31.2,105.221,42.196c2.764,0.838,5.485,2.157,8.45,1.988c2.709-2.484,4.5-5.463,5.979-8.623
		c1.989-4.27,2.546-8.736,1.175-13.301c-0.803-2.682-1.826-5.303-2.774-7.943c-0.902-2.518-1.972-4.986-2.707-7.551
		c-0.816-2.844-1.192-5.817-0.483-8.737c1.445-5.937,4.838-10.36,10.511-12.895c0.694-0.308,1.348-0.714,2.199-1.173
		c-1.375-0.859-2.476-1.623-3.648-2.258c-14.228-7.699-28.379-15.55-42.724-23.031c-22.881-11.927-46.212-22.952-69.725-33.576
		c-19.854-8.971-39.869-17.577-60.033-25.83c-0.93-0.381-1.878-0.873-3.177-0.935c0.232,1.33,0.449,2.35,0.59,3.379
		c0.913,6.619-0.878,12.166-6.39,16.282c-3.729,2.789-7.925,4.475-12.482,5.171c-3.202,0.489-6.31,1.269-9.238,2.598
		c-6.379,2.896-10.606,7.649-11.779,14.7C176.026,308.986,176.024,311.676,175.801,314.642z M504.47,149.839
		c-1.604-1.404-2.8-2.47-4.015-3.511c-14.366-12.34-29.971-22.896-46.475-32.139c-23.685-13.266-47.903-25.513-72.514-36.973
		c-20.973-9.767-42.494-18.207-64.358-25.759c-5.293-1.83-10.65-3.468-16.096-5.233c-1.051,1.03-2.056,1.903-2.929,2.891
		c-5.352,6.067-7.71,13.071-6.369,21.139c0.506,3.058,1.704,5.902,3.28,8.578c1.639,2.782,2.979,5.681,3.74,8.84
		c0.895,3.723,1.071,7.456-0.114,11.104c-1.389,4.273-4.26,7.35-8.279,9.387c-0.733,0.371-1.923,0.429-1.796,1.88
		c0.999,0.545,2.036,1.127,3.093,1.687c31.067,16.469,62.628,31.953,94.646,46.487c26.423,11.992,53.156,23.239,80.391,33.266
		c0.573,0.212,1.2,0.291,2.11,0.506c-0.315-1.397-0.548-2.414-0.783-3.43c-0.893-3.918-0.48-7.697,1.133-11.373
		c1.756-3.982,4.63-6.912,8.527-8.687c2.915-1.329,5.983-2.318,9.017-3.353c3.039-1.042,6.111-1.98,8.888-3.655
		C500.017,158.814,502.756,154.869,504.47,149.839z M418.604,337.176c0.3-1.569-0.009-3.556-0.628-5.479
		c-0.857-2.678-1.925-5.288-2.691-7.988c-0.593-2.103-1.864-3.433-3.69-4.486c-4.751-2.735-9.417-5.619-14.18-8.336
		c-21.27-12.129-43.104-23.16-65.225-33.631c-35.052-16.596-70.713-31.775-106.786-46.002c-5.134-2.024-5.148-2.02-10.116,0.375
		c-1.205,0.579-2.409,1.19-3.519,1.931c-1.816,1.215-3.154,2.828-3.936,4.931c-1.873,5.032-0.738,9.737,1.404,14.353
		c0.82,1.773,2.15,2.828,4.048,3.594c32.741,13.187,65.071,27.312,96.958,42.453c31.171,14.799,61.895,30.447,91.667,47.915
		c2.259,1.326,4.378,1.819,6.829,0.983c0.761-0.261,1.563-0.383,2.313-0.66C415.483,345.5,418.069,342.402,418.604,337.176z
		 M477.604,211.725c0.541-3.112-0.724-5.771-2.036-8.437c-0.936-1.894-2.271-3.041-4.359-3.789
		c-16.493-5.887-32.782-12.3-48.938-19.059c-23.19-9.699-46.083-20.047-68.762-30.879c-19.063-9.104-37.971-18.512-56.685-28.306
		c-5.567-2.917-11.146-5.811-16.671-8.798c-1.36-0.734-2.671-1.205-4.198-0.888c-4.023,0.838-7.645,2.534-10.551,5.46
		c-2.914,2.932-4.231,6.46-3.22,10.63c0.412,1.687,0.835,3.38,1.334,5.044c0.841,2.832,0.861,2.835,3.286,4.178
		c2.573,1.422,5.156,2.82,7.746,4.218c33.882,18.304,68.219,35.694,103.252,51.703c22.132,10.114,44.553,19.55,67.397,27.941
		c3.515,1.29,7.048,2.529,10.601,3.699c1.5,0.49,3.002,1.078,4.682,0.403c2.724-1.104,5.558-1.953,8.241-3.153
		c1.807-0.809,3.523-1.916,5.12-3.113C476.085,216.891,477.176,214.46,477.604,211.725z M559.543,311.762
		c-1.011-0.629-1.898-1.213-2.807-1.748c-19.857-11.583-39.718-23.157-59.575-34.742c-13.964-8.149-27.917-16.328-41.903-24.448
		c-1.077-0.626-2.048-1.773-3.803-1.34c-6.76,15.649-13.72,31.268-21.559,46.477c-0.305,0.592-0.513,1.233-0.751,1.858
		c-0.037,0.104,0.027,0.249,0.127,0.948c38.296,14.055,76.873,28.156,115.324,42.233
		C552.691,335.256,560.058,320.021,559.543,311.762z M306.546,42.429c4.629,1.579,8.648,2.959,12.675,4.324
		c22.439,7.586,44.388,16.419,65.879,26.378c21.485,9.95,42.546,20.756,63.38,31.99c19.48,10.5,38.086,22.348,54.916,36.821
		c0.586,0.506,1.265,0.897,2.224,1.562c0.131-1.125,0.316-1.877,0.293-2.619c-0.119-3.774-0.844-7.441-2.066-11.01
		c-2.146-6.272-5.443-11.907-9.404-17.197c-5.674-7.588-12.697-13.756-20.198-19.437c-10.903-8.258-22.58-15.315-34.551-21.901
		c-12.313-6.77-25.03-12.719-37.762-18.635c-11.654-5.416-23.463-10.434-35.86-13.911c-10.644-2.987-21.486-4.567-32.548-3.996
		c-7.382,0.383-14.583,1.888-21.48,4.638C310.329,40.123,308.57,40.781,306.546,42.429z M374.153,414.327
		c-0.875-0.41-1.649-0.89-2.494-1.152c-4.843-1.525-9.742-2.889-14.554-4.505c-20.534-6.894-40.731-14.673-60.511-23.495
		c-40.215-17.938-79.285-38.048-116.551-61.576c-0.5-0.316-0.963-0.99-1.713-0.611c-0.088,0.135-0.22,0.25-0.206,0.34
		c0.092,0.517,0.175,1.044,0.345,1.543c1.987,5.913,5.167,11.149,9.146,15.918c5.878,7.051,12.923,12.787,20.479,17.924
		c13.061,8.891,26.863,16.532,40.779,23.962c14.048,7.497,28.686,13.723,43.488,19.547c13.313,5.238,26.723,10.207,40.764,13.238
		c8.672,1.875,17.42,2.924,26.295,2.624c3.74-0.125,7.458-0.697,11.042-1.862C371.699,415.82,373.092,415.654,374.153,414.327z
		 M566.158,309.743c-0.143,1.233-0.274,2.287-0.386,3.345c-0.781,7.153-3.005,13.835-6.645,20.038
		c-2.246,3.825-4.86,7.398-8.026,10.498c-1.475,1.442-2.2,2.977-1.953,4.981c0.413,3.314,0.636,6.67,1.345,9.924
		c0.533,2.449,1.519,4.852,2.628,7.113c1.459,2.972,3.783,5.282,7,6.249c3.078,0.931,6.312,1.385,9.518,0.635
		c2.988-0.699,5.949-1.54,8.86-2.481c4.722-1.521,8.633-4.182,11.229-8.547c0.404-0.691,0.955-1.291,1.41-1.949
		c5.656-8.047,10.326-16.564,12.773-26.184c2.084-8.19,1.808-16.178-1.844-23.905c-2.861-6.069-7.553-9.209-14.385-8.792
		c-0.93,0.058-1.863,0.189-2.775,0.385C577.99,302.532,571.9,305.764,566.158,309.743z"/>
	<path fill-rule="evenodd" clip-rule="evenodd" fill="#FFFFFF" d="M592.755,367.848c2.357-3.408,4.5-6.293,6.4-9.33
		c1.916-3.055,3.764-6.182,5.324-9.432c1.55-3.247,2.871-6.629,3.993-10.055c1.112-3.389,1.841-6.905,2.804-10.621
		c0.949,0.326,1.693,0.526,2.391,0.827c15.947,6.897,31.886,13.814,47.84,20.712c21.223,9.177,42.432,18.402,63.693,27.503
		c34.9,14.938,69.828,29.831,104.768,44.665c14.152,6.006,28.305,12.023,42.605,17.649c13.061,5.139,26.094,10.345,38.898,16.075
		c19.904,8.897,39.463,18.518,58.707,28.766c22.795,12.139,45.131,25.07,66.867,39.023c10.809,6.939,21.41,14.201,32.098,21.32
		c1.111,0.74,2.211,1.496,3.371,2.283c1.312-0.395,2.582-0.785,3.854-1.146c7.523-2.143,15.127-3.504,22.977-2.244
		c1.449,0.234,2.936,0.436,4.303,0.93c5.275,1.92,8.719,5.547,10.08,11.086c0.873,3.557,0.943,7.154,0.736,10.771
		c-0.25,4.438-1.352,8.729-2.389,13.021c-0.338,1.398-1.004,2.77-1.764,4.004c-3.096,5.068-6.938,9.52-11.398,13.422
		c-2.641,2.301-5.531,4.225-8.852,5.436c-5.035,1.844-9.705,1.188-14.092-1.885c-2.896-2.035-5.324-4.527-7.264-7.43
		c-2.162-3.219-4.322-6.484-5.982-9.971c-1.764-3.715-4.422-6.27-7.902-8.232c-5.141-2.91-10.604-5.092-16.129-7.119
		c-10.664-3.92-21.488-7.396-32.453-10.375c-17.326-4.705-34.137-10.877-50.787-17.516c-28.582-11.398-56.396-24.465-83.77-38.514
		c-19.625-10.07-39.254-20.141-59.027-29.913c-18.455-9.124-37.09-17.886-55.672-26.746c-25.465-12.138-50.908-24.317-76.441-36.306
		c-25.775-12.102-51.646-23.992-77.474-35.969C599.81,371.032,596.531,369.564,592.755,367.848z"/>
	<path fill-rule="evenodd" clip-rule="evenodd" fill="#FFFFFF" d="M451.574,229.492c-11.989,28.406-24.756,56.057-38.941,83.298
		c-1.511-0.891-3.11-1.831-4.712-2.775c-21.199-12.505-43.062-23.763-65.227-34.438c-30.957-14.909-62.456-28.595-94.246-41.623
		c-6.057-2.485-12.171-4.842-18.249-7.273c-0.721-0.29-1.398-0.687-2.359-1.165c0.558-0.688,0.901-1.208,1.34-1.635
		c4.636-4.549,8.041-10.018,11.369-15.506c4.019-6.633,7.814-13.404,11.56-20.2c1.216-2.204,2.021-4.646,2.905-7.02
		c2.897-7.773,5.981-15.482,8.121-23.512c1.199-4.511,2.156-9.083,3.283-13.862c0.797,0.358,1.758,0.712,2.644,1.195
		c18.325,9.955,36.812,19.607,55.456,28.954c24.262,12.164,48.778,23.786,73.71,34.511c17.189,7.396,34.528,14.397,52.248,20.441
		C450.846,229.007,451.167,229.261,451.574,229.492z"/>
	<path fill-rule="evenodd" clip-rule="evenodd" fill="#FFFFFF" d="M175.801,314.642c0.223-2.966,0.225-5.656,0.66-8.273
		c1.172-7.051,5.399-11.804,11.779-14.7c2.928-1.33,6.036-2.109,9.238-2.598c4.558-0.696,8.753-2.382,12.482-5.171
		c5.512-4.116,7.303-9.664,6.39-16.282c-0.141-1.029-0.358-2.049-0.59-3.379c1.299,0.062,2.247,0.554,3.177,0.935
		c20.164,8.252,40.179,16.858,60.033,25.83c23.513,10.624,46.844,21.649,69.725,33.576c14.344,7.48,28.496,15.332,42.724,23.031
		c1.173,0.636,2.273,1.399,3.648,2.258c-0.851,0.459-1.505,0.865-2.199,1.173c-5.673,2.534-9.066,6.958-10.511,12.895
		c-0.709,2.92-0.333,5.894,0.483,8.737c0.735,2.564,1.805,5.033,2.707,7.551c0.948,2.641,1.971,5.262,2.774,7.943
		c1.371,4.564,0.814,9.031-1.175,13.301c-1.479,3.16-3.27,6.139-5.979,8.623c-2.964,0.169-5.686-1.15-8.45-1.988
		c-36.3-10.996-71.196-25.524-105.221-42.196c-26.304-12.888-52.179-26.574-77.099-42.013
		C185.629,320.938,180.918,317.886,175.801,314.642z"/>
	<path fill-rule="evenodd" clip-rule="evenodd" fill="#FFFFFF" d="M504.47,149.839c-1.714,5.029-4.453,8.975-8.905,11.651
		c-2.776,1.674-5.849,2.613-8.888,3.655c-3.034,1.035-6.102,2.024-9.017,3.353c-3.897,1.775-6.771,4.705-8.527,8.687
		c-1.613,3.676-2.026,7.455-1.133,11.373c0.235,1.016,0.468,2.032,0.783,3.43c-0.91-0.215-1.537-0.293-2.11-0.506
		c-27.235-10.027-53.968-21.274-80.391-33.266c-32.018-14.535-63.579-30.019-94.646-46.487c-1.057-0.56-2.095-1.141-3.093-1.687
		c-0.127-1.451,1.062-1.509,1.796-1.88c4.019-2.037,6.89-5.114,8.279-9.387c1.185-3.647,1.009-7.381,0.114-11.104
		c-0.761-3.16-2.101-6.059-3.74-8.84c-1.577-2.676-2.774-5.52-3.28-8.578c-1.341-8.068,1.017-15.072,6.369-21.139
		c0.873-0.988,1.878-1.861,2.929-2.891c5.446,1.765,10.803,3.403,16.096,5.233c21.865,7.552,43.386,15.992,64.358,25.759
		c24.61,11.46,48.829,23.708,72.514,36.973c16.504,9.244,32.109,19.799,46.475,32.139C501.67,147.37,502.865,148.436,504.47,149.839
		z"/>
	<path fill-rule="evenodd" clip-rule="evenodd" fill="#FFFFFF" d="M418.604,337.176c-0.534,5.226-3.121,8.324-7.55,9.951
		c-0.75,0.276-1.553,0.398-2.313,0.66c-2.451,0.836-4.57,0.343-6.829-0.983c-29.771-17.468-60.496-33.115-91.667-47.915
		c-31.887-15.142-64.218-29.266-96.958-42.453c-1.898-0.766-3.229-1.821-4.048-3.594c-2.143-4.616-3.277-9.32-1.404-14.353
		c0.781-2.103,2.12-3.716,3.936-4.931c1.11-0.74,2.314-1.352,3.519-1.931c4.967-2.395,4.982-2.399,10.116-0.375
		c36.073,14.227,71.733,29.406,106.786,46.002c22.121,10.472,43.955,21.502,65.225,33.631c4.764,2.717,9.429,5.601,14.18,8.336
		c1.826,1.053,3.097,2.383,3.69,4.486c0.766,2.7,1.834,5.311,2.691,7.988C418.594,333.62,418.904,335.606,418.604,337.176z"/>
	<path fill-rule="evenodd" clip-rule="evenodd" fill="#FFFFFF" d="M477.604,211.725c-0.428,2.735-1.519,5.166-3.759,6.855
		c-1.597,1.197-3.313,2.304-5.12,3.113c-2.683,1.201-5.518,2.05-8.241,3.153c-1.68,0.675-3.183,0.087-4.682-0.403
		c-3.553-1.17-7.086-2.409-10.601-3.699c-22.844-8.392-45.265-17.827-67.397-27.941c-35.033-16.009-69.37-33.399-103.252-51.703
		c-2.59-1.398-5.173-2.796-7.746-4.218c-2.425-1.343-2.445-1.346-3.286-4.178c-0.499-1.665-0.922-3.357-1.334-5.044
		c-1.012-4.17,0.306-7.698,3.22-10.63c2.906-2.927,6.527-4.623,10.551-5.46c1.526-0.316,2.838,0.154,4.198,0.888
		c5.525,2.988,11.104,5.882,16.671,8.798c18.713,9.794,37.621,19.202,56.685,28.306c22.678,10.832,45.572,21.18,68.762,30.879
		c16.156,6.759,32.445,13.172,48.938,19.059c2.088,0.748,3.424,1.895,4.359,3.789C476.879,205.954,478.145,208.612,477.604,211.725z
		"/>
	<path fill-rule="evenodd" clip-rule="evenodd" fill="#FFFFFF" d="M559.543,311.762c0.515,8.259-6.852,23.494-14.947,29.238
		c-38.451-14.077-77.028-28.178-115.324-42.233c-0.1-0.7-0.164-0.844-0.127-0.948c0.238-0.625,0.447-1.267,0.751-1.858
		c7.839-15.209,14.798-30.828,21.559-46.477c1.754-0.433,2.726,0.713,3.803,1.34c13.986,8.12,27.939,16.299,41.903,24.448
		c19.857,11.585,39.718,23.159,59.575,34.742C557.645,310.549,558.532,311.133,559.543,311.762z"/>
	<path fill-rule="evenodd" clip-rule="evenodd" fill="#FFFFFF" d="M306.546,42.429c2.024-1.648,3.783-2.306,5.498-2.99
		c6.897-2.75,14.099-4.255,21.48-4.638c11.062-0.572,21.904,1.009,32.548,3.996c12.397,3.477,24.207,8.495,35.86,13.911
		c12.731,5.916,25.449,11.865,37.762,18.635c11.972,6.586,23.648,13.644,34.551,21.901c7.5,5.681,14.523,11.848,20.198,19.437
		c3.961,5.29,7.258,10.925,9.404,17.197c1.222,3.568,1.947,7.236,2.066,11.01c0.022,0.741-0.163,1.494-0.293,2.619
		c-0.958-0.666-1.637-1.056-2.224-1.562c-16.83-14.474-35.436-26.321-54.916-36.821c-20.834-11.234-41.895-22.04-63.38-31.99
		c-21.491-9.958-43.439-18.792-65.879-26.378C315.194,45.389,311.175,44.008,306.546,42.429z"/>
	<path fill-rule="evenodd" clip-rule="evenodd" fill="#FFFFFF" d="M374.153,414.327c-1.061,1.327-2.455,1.493-3.691,1.896
		c-3.583,1.165-7.301,1.737-11.042,1.862c-8.875,0.3-17.624-0.749-26.295-2.624c-14.041-3.031-27.45-8-40.764-13.238
		c-14.802-5.824-29.44-12.05-43.488-19.547c-13.916-7.43-27.718-15.071-40.779-23.962c-7.556-5.138-14.601-10.873-20.479-17.924
		c-3.979-4.77-7.16-10.006-9.146-15.918c-0.17-0.499-0.252-1.027-0.345-1.543c-0.014-0.091,0.118-0.206,0.206-0.34
		c0.75-0.379,1.213,0.294,1.713,0.611c37.266,23.528,76.336,43.638,116.551,61.576c19.78,8.822,39.977,16.602,60.511,23.495
		c4.812,1.616,9.711,2.979,14.554,4.505C372.504,413.438,373.278,413.917,374.153,414.327z"/>
	<path fill-rule="evenodd" clip-rule="evenodd" fill="#FFFFFF" d="M566.158,309.743c5.742-3.979,11.832-7.211,18.751-8.69
		c0.912-0.196,1.846-0.327,2.775-0.385c6.832-0.417,11.523,2.723,14.385,8.792c3.651,7.727,3.928,15.715,1.844,23.905
		c-2.447,9.62-7.117,18.137-12.773,26.184c-0.455,0.658-1.006,1.258-1.41,1.949c-2.597,4.365-6.508,7.025-11.229,8.547
		c-2.911,0.941-5.873,1.782-8.86,2.481c-3.206,0.75-6.44,0.296-9.518-0.635c-3.216-0.967-5.54-3.277-7-6.249
		c-1.109-2.262-2.095-4.664-2.628-7.113c-0.709-3.254-0.932-6.61-1.345-9.924c-0.247-2.005,0.478-3.539,1.953-4.981
		c3.166-3.1,5.78-6.673,8.026-10.498c3.64-6.203,5.864-12.885,6.645-20.038C565.884,312.03,566.015,310.976,566.158,309.743z"/>
</g>
<text transform="matrix(1 0 0 1 1051.1006 264.2383)"><tspan x="0" y="0" font-family="'RomanSerif'" font-size="266.5833">Free Law</tspan><tspan x="249.255" y="273.604" font-family="'RomanSerif'" font-size="266.5833">Project</tspan></text>
</svg>
