<?xml version="1.0" encoding="utf-8"?>
<!-- Generator: Adobe Illustrator 16.0.0, SVG Export Plug-In . SVG Version: 6.00 Build 0)  -->
<!DOCTYPE svg PUBLIC "-//W3C//DTD SVG 1.1//EN" "http://www.w3.org/Graphics/SVG/1.1/DTD/svg11.dtd">
<svg version="1.1" id="Layer_1" xmlns="http://www.w3.org/2000/svg" xmlns:xlink="http://www.w3.org/1999/xlink" x="0px" y="0px"
	 width="720px" height="720px" viewBox="0 0 720 720" enable-background="new 0 0 720 720" xml:space="preserve">
<line fill="none" stroke="#000000" stroke-width="4" stroke-miterlimit="10" x1="0" y1="635.741" x2="720" y2="635.741"/>
<g>
	<path fill-rule="evenodd" clip-rule="evenodd" d="M24.665,625.303c0.704-0.393,1.213-0.879,1.368-1.755
		c0.468-2.687,2.16-4.569,4.229-6.178c3.016-2.344,6.426-3.966,9.958-5.336c2.066-0.803,4.195-1.449,6.288-2.182
		c0.829-0.287,1.643-0.611,2.658-0.993c0.034-1.235,0.086-2.44,0.094-3.646c0.047-6.899,0.142-13.8,0.102-20.697
		c-0.023-4.074,1.716-6.996,5.187-9.031c3.871-2.27,8.071-3.703,12.358-4.894c3.842-1.067,7.729-1.978,11.746-2.995
		c0.068-0.703,0.194-1.459,0.209-2.218c0.086-4.783,0.22-9.564,0.199-14.349c-0.016-3.732,1.517-6.335,4.901-7.988
		c2.82-1.375,5.749-2.38,8.76-3.167c7.211-1.892,14.535-3.201,21.929-4.106c6.62-0.813,13.227-1.736,19.86-2.386
		c6.748-0.661,13.522-1.069,20.286-1.556c5.43-0.39,10.865-0.782,16.3-1.086c3.887-0.217,7.781-0.306,11.671-0.416
		c8.226-0.237,16.452-0.525,24.675-0.664c12.345-0.207,24.691-0.329,37.036-0.432c4.671-0.039,9.348,0.029,14.02,0.137
		c8.001,0.183,16.004,0.379,24.005,0.674c6.104,0.229,12.209,0.609,18.312,0.937c5.553,0.296,11.103,0.56,16.65,0.932
		c4.214,0.279,8.419,0.677,12.625,1.072c4.98,0.471,9.965,0.937,14.932,1.515c5.626,0.656,11.26,1.312,16.857,2.199
		c5.922,0.937,11.843,1.967,17.561,3.837c2.422,0.79,4.812,1.734,7.099,2.849c3.218,1.566,4.567,4.415,4.624,7.886
		c0.098,5.55,0.364,11.105-0.276,16.87c1.438,0.385,2.798,0.77,4.169,1.114c4.308,1.086,8.621,2.174,12.69,3.997
		c2.02,0.904,3.994,1.945,5.869,3.117c2.872,1.797,4.169,4.688,4.217,7.901c0.104,7.228-0.058,14.462-0.162,21.691
		c-0.024,1.548-0.268,3.094-0.427,4.862c0.874,0.39,1.75,0.803,2.639,1.174c3.604,1.488,7.12,3.103,10.232,5.527
		c3.33,2.592,4.761,6.089,4.898,10.119c0.196,5.668,0.26,11.344,0.207,17.014c-0.036,4-0.228,8.009-0.597,11.99
		c-0.423,4.596-2.589,8.438-5.707,11.793c-3.928,4.229-8.746,7.172-13.872,9.678c-7.016,3.432-14.409,5.825-21.935,7.831
		c-8.484,2.263-17.085,3.997-25.739,5.448c-6.573,1.104-13.144,2.255-19.75,3.131c-6.827,0.907-13.695,1.551-20.553,2.233
		c-6.633,0.656-13.276,1.274-19.925,1.802c-4.765,0.38-9.546,0.576-14.317,0.869c-5.77,0.353-11.535,0.761-17.304,1.072
		c-4.112,0.223-8.224,0.313-12.335,0.481c-3.997,0.162-7.996,0.329-11.99,0.546c-0.502,0.029-0.989,0.374-1.48,0.573
		c-15.803,0-31.609,0-47.415,0c-0.492-0.199-0.978-0.55-1.478-0.573c-6.439-0.301-12.881-0.522-19.321-0.829
		c-5.221-0.245-10.436-0.536-15.649-0.881c-4.436-0.296-8.864-0.69-13.295-1.055c-6.204-0.507-12.413-0.957-18.607-1.559
		c-5.09-0.494-10.167-1.101-15.23-1.789c-8.257-1.122-16.525-2.184-24.735-3.575c-10.075-1.711-20.03-4.01-29.912-6.633
		c-5.686-1.51-11.377-2.998-16.891-5.096c-4.583-1.744-9.044-3.732-13.051-6.596c-3.772-2.694-7.039-5.817-8.292-10.515
		c-0.157-0.589-0.526-0.958-1.174-0.968C24.665,649.79,24.665,637.546,24.665,625.303z M31.374,634.062
		c-0.055,0.824-0.125,1.475-0.139,2.132c-0.076,4.778-0.154,9.56-0.207,14.341c-0.026,2.558,0.068,5.121-0.021,7.677
		c-0.115,3.348,1.151,6.034,3.536,8.304c1.789,1.698,3.743,3.181,5.942,4.264c2.885,1.423,5.796,2.819,8.789,3.991
		c7.046,2.76,14.406,4.483,21.725,6.341c11.961,3.031,24.052,5.396,36.272,7.08c5.503,0.758,11.009,1.512,16.525,2.149
		c5.851,0.678,11.715,1.24,17.576,1.811c3.539,0.345,7.086,0.625,10.63,0.91c4.543,0.363,9.081,0.764,13.632,1.043
		c5.655,0.349,11.32,0.612,16.985,0.871c7.433,0.34,14.872,0.762,22.311,0.924c8.898,0.19,17.796,0.154,26.697,0.198
		c3.225,0.016,6.453,0.037,9.68-0.044c5.775-0.146,11.55-0.341,17.325-0.562c7.109-0.272,14.213-0.594,21.322-0.895
		c0.334-0.016,0.667-0.034,0.999-0.055c5.325-0.349,10.645-0.701,15.97-1.047c4.546-0.295,9.094-0.567,13.64-0.884
		c2.885-0.201,5.768-0.421,8.642-0.701c5.751-0.56,11.505-1.111,17.247-1.771c5.961-0.686,11.922-1.392,17.852-2.283
		c5.932-0.892,11.827-1.985,17.728-3.055c9.405-1.708,18.723-3.801,27.824-6.757c6.243-2.026,12.335-4.431,17.948-7.909
		c2.28-1.415,4.373-3.047,6.293-4.92c2.992-2.911,4.771-6.387,5.095-10.571c0.076-1,0.157-1.999,0.162-2.998
		c0.016-5.45,0.014-10.901-0.005-16.35c-0.003-0.505,0.198-1.119-0.612-1.58c-0.474,0.254-1.035,0.555-1.601,0.855
		c-2.349,1.256-4.619,2.699-7.067,3.722c-3.887,1.627-7.852,3.089-11.854,4.418c-9.285,3.087-18.816,5.263-28.404,7.153
		c-6.751,1.332-13.554,2.42-20.347,3.531c-5.37,0.879-10.753,1.697-16.148,2.414c-4.627,0.615-9.272,1.067-13.912,1.557
		c-5.084,0.536-10.174,1.054-15.262,1.537c-4.093,0.391-8.189,0.765-12.288,1.065c-4.768,0.348-9.539,0.636-14.31,0.907
		c-6.102,0.351-12.204,0.703-18.309,0.968c-3.557,0.157-7.12,0.126-10.677,0.212c-7.888,0.186-15.777,0.533-23.668,0.555
		c-9.228,0.023-18.458-0.184-27.683-0.377c-7.111-0.149-14.221-0.424-21.33-0.662c-3.557-0.12-7.114-0.214-10.666-0.437
		c-4.881-0.304-9.751-0.719-14.629-1.083c-3.324-0.248-6.651-0.476-9.973-0.734c-3.546-0.275-7.099-0.513-10.635-0.879
		c-5.084-0.525-10.159-1.13-15.233-1.742c-5.958-0.722-11.927-1.362-17.856-2.263c-7.575-1.15-15.131-2.438-22.669-3.823
		c-10.378-1.907-20.668-4.235-30.753-7.368c-7.329-2.275-14.556-4.831-21.068-9.034C32.236,634.106,31.983,634.144,31.374,634.062z
		 M411.778,590.11c-0.293,0.032-0.659-0.023-0.915,0.115c-6.121,3.291-12.728,5.25-19.395,6.979
		c-15.941,4.135-32.2,6.562-48.511,8.623c-7.161,0.905-14.364,1.51-21.552,2.231c-2.762,0.277-5.529,0.521-8.297,0.748
		c-4.541,0.374-9.081,0.774-13.627,1.064c-5.545,0.355-11.098,0.639-16.648,0.895c-7.88,0.363-15.764,0.762-23.647,0.983
		c-6.67,0.188-13.35,0.173-20.022,0.199c-14.791,0.058-29.579-0.003-44.357-0.693c-2.446-0.115-4.896-0.07-7.339-0.204
		c-6.212-0.343-12.424-0.743-18.633-1.127c-4.436-0.275-8.882-0.479-13.311-0.861c-5.977-0.518-11.948-1.121-17.911-1.78
		c-8.171-0.9-16.355-1.729-24.492-2.872c-11.108-1.562-22.172-3.432-33.094-6.026c-8.108-1.928-16.138-4.148-23.624-7.959
		c-0.361-0.184-0.774-0.262-1.423-0.474c-0.063,1.109-0.146,1.959-0.146,2.812c-0.016,4.672,0.125,9.351-0.06,14.015
		c-0.107,2.654,0.878,4.498,2.979,5.893c1.02,0.675,2.032,1.381,3.128,1.906c2.5,1.201,5.012,2.406,7.596,3.414
		c6.526,2.545,13.271,4.396,20.082,6.01c9.508,2.255,19.075,4.235,28.722,5.789c5.482,0.884,10.998,1.548,16.512,2.228
		c3.196,0.396,6.413,0.657,9.625,0.929c4.541,0.382,9.082,0.779,13.627,1.057c5.77,0.354,11.545,0.6,17.32,0.877
		c6.769,0.324,13.538,0.666,20.312,0.938c4.554,0.183,9.112,0.235,13.669,0.379c4.111,0.134,8.218,0.439,12.324,0.447
		c15.902,0.04,31.808,0.445,47.702-0.434c3.327-0.186,6.67-0.168,10-0.354c5.992-0.329,11.982-0.706,17.966-1.13
		c6.539-0.46,13.088-0.863,19.606-1.54c6.183-0.642,12.345-1.53,18.497-2.451c8.236-1.234,16.447-2.637,24.68-3.902
		c13.653-2.101,26.896-5.822,40.013-10.052c2.004-0.646,4.002-1.362,5.906-2.249c1.496-0.698,2.935-1.593,4.239-2.607
		c1.635-1.271,2.673-2.998,2.694-5.147c0.05-5.342,0.06-10.68,0.07-16.018C412.045,590.566,411.891,590.372,411.778,590.11z
		 M385.241,548.759c-1.047-1.177-2.286-1.689-3.511-2.171c-1.443-0.57-2.927-1.049-4.415-1.488
		c-7.585-2.244-15.374-3.547-23.188-4.527c-10.583-1.326-21.202-2.425-31.829-3.321c-8.744-0.738-17.524-1.097-26.294-1.521
		c-9.767-0.473-19.538-0.928-29.31-1.205c-7.559-0.217-15.128-0.193-22.692-0.201c-8.676-0.008-17.352,0.07-26.03,0.104
		c-7.894,0.031-15.782,0.065-23.671,0.505c-7.988,0.449-15.994,0.594-23.99,0.881c-1.668,0.058-3.332,0.142-4.996,0.254
		c-4.768,0.327-9.536,0.67-14.302,1.018c-2.88,0.212-5.759,0.441-8.639,0.675c-3.544,0.285-7.101,0.489-10.629,0.899
		c-6.4,0.746-12.782,1.604-19.172,2.438c-6.061,0.79-12.074,1.878-17.979,3.442c-2.775,0.737-5.456,1.852-8.142,2.888
		c-0.641,0.246-1.504,0.536-1.454,1.616c1.09,1.151,2.579,1.689,4.038,2.145c3.175,0.986,6.366,1.959,9.604,2.697
		c11.942,2.728,24.105,4.007,36.262,5.23c8.182,0.824,16.389,1.405,24.597,1.926c8.647,0.549,17.31,0.928,25.967,1.315
		c4.331,0.193,8.67,0.251,13.004,0.345c8.113,0.179,16.227,0.416,24.34,0.487c9.897,0.083,19.799,0.021,29.702,0.018
		c1.001,0,2.003-0.002,3.002-0.031c6.22-0.186,12.439-0.366,18.659-0.575c7.999-0.265,16.002-0.442,23.995-0.863
		c8.652-0.458,17.297-1.109,25.941-1.753c5.984-0.447,11.969-0.904,17.933-1.568c8.83-0.984,17.646-2.13,26.369-3.871
		c4.248-0.851,8.475-1.797,12.537-3.343C382.393,550.65,383.886,550.161,385.241,548.759z M414.2,615.355
		c-4.909,4.27-10.906,6.262-17.027,7.999c-1.922,0.544-3.829,1.143-5.733,1.742c-11.681,3.68-23.645,6.102-35.696,8.134
		c-4.928,0.829-9.887,1.48-14.82,2.273c-8.008,1.284-16.017,2.561-24.115,3.193c-2.77,0.217-5.532,0.539-8.301,0.776
		c-4.538,0.39-9.076,0.824-13.625,1.106c-5.435,0.34-10.878,0.567-16.321,0.801c-9.104,0.39-18.209,0.937-27.319,1.062
		c-9.782,0.136-19.572-0.075-29.357-0.243c-7.446-0.128-14.89-0.416-22.336-0.656c-6.33-0.204-12.665-0.408-18.994-0.68
		c-5.44-0.233-10.881-0.529-16.316-0.861c-7.658-0.465-15.322-0.837-22.959-1.532c-8.184-0.748-16.342-1.753-24.469-3.068
		c-11.192-1.81-22.274-4.101-33.27-6.829c-7.554-1.87-14.984-4.143-22.102-7.342c-3.771-1.697-7.35-3.703-10.221-6.774
		c-0.212-0.228-0.56-0.332-0.918-0.533c-4.242,1.229-8.458,2.61-12.429,4.624c-1.577,0.801-3.065,1.797-4.515,2.819
		c-0.709,0.5-1.287,1.217-1.831,1.909c-0.878,1.117-0.787,2.362,0.089,3.367c1.017,1.163,2.134,2.291,3.39,3.183
		c1.527,1.091,3.18,2.062,4.891,2.838c3.133,1.42,6.303,2.783,9.536,3.952c7.527,2.726,15.27,4.719,23.069,6.486
		c10.08,2.286,20.233,4.167,30.46,5.655c5.168,0.753,10.342,1.462,15.518,2.147c4.737,0.627,9.476,1.273,14.226,1.768
		c5.749,0.6,11.508,1.078,17.268,1.554c7.536,0.625,15.065,1.311,22.609,1.761c8.767,0.52,17.54,0.915,26.317,1.18
		c8.448,0.256,16.902,0.365,25.355,0.384c14.014,0.031,28.028,0.034,42.034-0.646c6.997-0.34,13.996-0.553,20.995-0.895
		c4.106-0.202,8.213-0.503,12.309-0.843c6.314-0.528,12.628-1.091,18.931-1.708c7.078-0.693,14.166-1.344,21.223-2.233
		c7.161-0.899,14.294-2.062,21.438-3.12c10.551-1.566,21.011-3.623,31.365-6.176c7.982-1.969,15.897-4.182,23.514-7.318
		c2.981-1.227,5.933-2.545,8.584-4.409c1.178-0.827,2.323-1.734,3.316-2.771c1.818-1.904,1.784-3.264-0.122-5.16
		c-0.937-0.929-2.03-1.747-3.168-2.419C421.417,617.933,417.959,616.449,414.2,615.355z M84.908,555.248
		c-0.094,0.672-0.232,1.198-0.235,1.724c-0.023,3.226,0.058,6.455-0.047,9.678c-0.058,1.778,0.625,2.984,2.119,3.815
		c1.261,0.704,2.474,1.521,3.798,2.074c2.354,0.984,4.739,1.915,7.171,2.682c10.742,3.374,21.84,5.061,32.94,6.656
		c6.486,0.934,13.015,1.593,19.543,2.189c7.857,0.717,15.725,1.326,23.597,1.817c7.988,0.5,15.981,0.874,23.977,1.169
		c11.333,0.419,22.664,0.9,34.002,1.018c13.229,0.137,26.467,0.268,39.688-0.606c5.768-0.382,11.548-0.536,17.315-0.923
		c4.546-0.307,9.082-0.785,13.617-1.237c4.975-0.497,9.952-1.005,14.917-1.599c6.285-0.75,12.565-1.577,18.842-2.406
		c4.072-0.539,8.171-0.971,12.199-1.755c6.319-1.231,12.602-2.66,18.868-4.127c3.348-0.785,6.67-1.711,9.929-2.794
		c1.875-0.625,3.672-1.58,5.38-2.597c1.808-1.078,2.867-2.699,2.861-4.949c-0.008-2.777,0.145-5.556,0.176-8.333
		c0.005-0.494-0.225-0.991-0.382-1.621c-0.623,0.167-1.052,0.24-1.446,0.395c-5.088,2.006-10.399,3.232-15.748,4.208
		c-10.494,1.912-21.066,3.338-31.706,4.183c-2.992,0.235-5.974,0.589-8.961,0.842c-4.431,0.377-8.861,0.767-13.297,1.049
		c-5.21,0.33-10.431,0.561-15.649,0.816c-7.546,0.369-15.092,0.809-22.643,1.062c-7.224,0.24-14.454,0.387-21.68,0.384
		c-16.465-0.005-32.927-0.07-49.39-0.232c-7.334-0.071-14.665-0.405-21.997-0.673c-6.332-0.229-12.665-0.468-18.989-0.82
		c-4.996-0.28-9.976-0.73-14.961-1.128c-6.204-0.494-12.424-0.855-18.607-1.562c-8.056-0.918-16.096-1.99-24.11-3.23
		c-6.693-1.035-13.331-2.422-19.695-4.856C85.913,555.408,85.479,555.371,84.908,555.248z M54.777,582.309
		c0.458,1.522,1.752,2.233,2.956,3.008c2.636,1.692,5.529,2.849,8.466,3.879c8.618,3.021,17.485,5.093,26.449,6.732
		c7.211,1.32,14.456,2.456,21.709,3.531c6.264,0.931,12.549,1.739,18.842,2.453c5.521,0.622,11.066,1.067,16.606,1.538
		c7.418,0.63,14.838,1.315,22.269,1.784c8.208,0.518,16.428,0.923,24.649,1.179c10.671,0.335,21.343,0.544,32.02,0.673
		c5.333,0.062,10.671-0.188,16.007-0.262c6.34-0.089,12.68-0.128,19.023-0.215c2.336-0.031,4.671-0.094,7.002-0.206
		c6.884-0.338,13.768-0.688,20.647-1.064c4.773-0.262,9.547-0.558,14.315-0.882c3.214-0.217,6.432-0.474,9.641-0.779
		c5.532-0.525,11.066-1.064,16.591-1.674c6.408-0.706,12.821-1.387,19.203-2.275c6.489-0.905,12.957-1.975,19.412-3.11
		c9.523-1.674,18.963-3.751,28.165-6.753c3.154-1.028,6.193-2.443,9.209-3.848c1.689-0.787,3.313-1.812,4.146-3.528
		c-0.188-1.261-1.018-1.886-1.878-2.359c-1.742-0.968-3.502-1.948-5.352-2.676c-4.663-1.831-9.516-3.065-14.396-4.153
		c-1.177-0.262-2.341-0.474-3.466,0.471c-2.858,2.398-6.24,3.832-9.79,4.839c-3.737,1.057-7.491,2.063-11.272,2.945
		c-5.409,1.263-10.803,2.684-16.279,3.518c-10.321,1.574-20.7,2.804-31.057,4.125c-4.63,0.591-9.275,1.083-13.915,1.571
		c-3.761,0.396-7.522,0.779-11.289,1.062c-4.766,0.355-9.542,0.63-14.312,0.889c-6.772,0.366-13.541,0.866-20.318,0.983
		c-12.23,0.21-24.466,0.43-36.701-0.214c-6.659-0.348-13.332-0.453-19.999-0.704c-5.111-0.19-10.216-0.441-15.327-0.661
		c-3.667-0.157-7.336-0.249-11.001-0.466c-5.325-0.313-10.645-0.68-15.965-1.091c-6.094-0.474-12.199-0.892-18.272-1.569
		c-5.851-0.651-11.668-1.59-17.498-2.419c-7.371-1.052-14.679-2.451-21.918-4.188c-1.726-0.414-3.439-0.9-5.132-1.444
		c-6.037-1.938-12.042-3.954-16.721-8.409c-5.412,1.049-10.601,2.255-15.644,3.994c-2.302,0.795-4.546,1.792-6.735,2.859
		C56.592,580.015,55.311,580.783,54.777,582.309z"/>
	<path fill-rule="evenodd" clip-rule="evenodd" fill="#FFFFFF" d="M31.374,634.062c0.609,0.081,0.863,0.044,1.022,0.146
		c6.513,4.203,13.74,6.759,21.068,9.034c10.085,3.133,20.375,5.461,30.753,7.368c7.538,1.386,15.094,2.673,22.669,3.823
		c5.93,0.9,11.898,1.541,17.856,2.263c5.074,0.612,10.148,1.217,15.233,1.742c3.536,0.366,7.088,0.604,10.635,0.879
		c3.322,0.259,6.649,0.486,9.973,0.734c4.878,0.364,9.748,0.779,14.629,1.083c3.552,0.223,7.109,0.316,10.666,0.437
		c7.109,0.238,14.218,0.513,21.33,0.662c9.225,0.193,18.456,0.4,27.683,0.377c7.891-0.021,15.78-0.369,23.668-0.555
		c3.557-0.086,7.12-0.055,10.677-0.212c6.104-0.265,12.207-0.617,18.309-0.968c4.771-0.271,9.542-0.56,14.31-0.907
		c4.098-0.301,8.194-0.675,12.288-1.065c5.087-0.483,10.177-1.001,15.262-1.537c4.64-0.489,9.285-0.941,13.912-1.557
		c5.396-0.717,10.778-1.535,16.148-2.414c6.793-1.111,13.596-2.199,20.347-3.531c9.588-1.891,19.119-4.066,28.404-7.153
		c4.002-1.329,7.967-2.791,11.854-4.418c2.448-1.022,4.719-2.466,7.067-3.722c0.565-0.301,1.127-0.602,1.601-0.855
		c0.811,0.461,0.609,1.075,0.612,1.58c0.019,5.448,0.021,10.899,0.005,16.35c-0.005,0.999-0.086,1.998-0.162,2.998
		c-0.324,4.185-2.103,7.66-5.095,10.571c-1.92,1.873-4.013,3.505-6.293,4.92c-5.613,3.479-11.705,5.883-17.948,7.909
		c-9.102,2.956-18.419,5.049-27.824,6.757c-5.9,1.069-11.796,2.163-17.728,3.055c-5.93,0.892-11.891,1.598-17.852,2.283
		c-5.741,0.659-11.495,1.211-17.247,1.771c-2.875,0.28-5.757,0.5-8.642,0.701c-4.546,0.316-9.094,0.589-13.64,0.884
		c-5.325,0.346-10.645,0.698-15.97,1.047c-0.333,0.021-0.665,0.039-0.999,0.055c-7.109,0.301-14.213,0.622-21.322,0.895
		c-5.775,0.222-11.55,0.416-17.325,0.562c-3.228,0.081-6.455,0.06-9.68,0.044c-8.901-0.044-17.799-0.008-26.697-0.198
		c-7.438-0.162-14.877-0.584-22.311-0.924c-5.666-0.259-11.331-0.522-16.985-0.871c-4.551-0.279-9.089-0.68-13.632-1.043
		c-3.544-0.285-7.091-0.565-10.63-0.91c-5.861-0.57-11.725-1.133-17.576-1.811c-5.516-0.638-11.022-1.392-16.525-2.149
		c-12.22-1.685-24.312-4.049-36.272-7.08c-7.318-1.857-14.679-3.581-21.725-6.341c-2.992-1.172-5.903-2.568-8.789-3.991
		c-2.2-1.083-4.153-2.565-5.942-4.264c-2.385-2.27-3.651-4.956-3.536-8.304c0.089-2.556-0.005-5.119,0.021-7.677
		c0.052-4.781,0.131-9.562,0.207-14.341C31.248,635.537,31.318,634.887,31.374,634.062z"/>
	<path fill-rule="evenodd" clip-rule="evenodd" fill="#FFFFFF" d="M411.778,590.11c0.112,0.262,0.267,0.456,0.267,0.649
		c-0.011,5.338-0.021,10.676-0.07,16.018c-0.021,2.149-1.06,3.876-2.694,5.147c-1.305,1.015-2.743,1.909-4.239,2.607
		c-1.904,0.887-3.902,1.604-5.906,2.249c-13.117,4.229-26.359,7.951-40.013,10.052c-8.233,1.266-16.444,2.668-24.68,3.902
		c-6.152,0.921-12.314,1.81-18.497,2.451c-6.518,0.677-13.067,1.08-19.606,1.54c-5.984,0.424-11.974,0.801-17.966,1.13
		c-3.33,0.186-6.672,0.168-10,0.354c-15.895,0.879-31.8,0.474-47.702,0.434c-4.106-0.008-8.213-0.313-12.324-0.447
		c-4.557-0.144-9.115-0.196-13.669-0.379c-6.774-0.272-13.543-0.614-20.312-0.938c-5.775-0.277-11.55-0.523-17.32-0.877
		c-4.545-0.277-9.086-0.675-13.627-1.057c-3.212-0.271-6.429-0.533-9.625-0.929c-5.514-0.68-11.03-1.344-16.512-2.228
		c-9.646-1.554-19.214-3.534-28.722-5.789c-6.811-1.613-13.556-3.465-20.082-6.01c-2.584-1.008-5.095-2.213-7.596-3.414
		c-1.096-0.525-2.108-1.231-3.128-1.906c-2.101-1.395-3.086-3.238-2.979-5.893c0.186-4.664,0.044-9.343,0.06-14.015
		c0-0.853,0.083-1.702,0.146-2.812c0.648,0.212,1.062,0.29,1.423,0.474c7.485,3.811,15.515,6.031,23.624,7.959
		c10.922,2.595,21.986,4.465,33.094,6.026c8.137,1.143,16.321,1.972,24.492,2.872c5.963,0.659,11.935,1.263,17.911,1.78
		c4.428,0.383,8.875,0.586,13.311,0.861c6.209,0.384,12.421,0.784,18.633,1.127c2.443,0.134,4.894,0.089,7.339,0.204
		c14.778,0.69,29.566,0.751,44.357,0.693c6.672-0.026,13.352-0.011,20.022-0.199c7.883-0.222,15.767-0.62,23.647-0.983
		c5.55-0.256,11.103-0.539,16.648-0.895c4.546-0.29,9.086-0.69,13.627-1.064c2.768-0.228,5.535-0.471,8.297-0.748
		c7.188-0.722,14.391-1.326,21.552-2.231c16.311-2.061,32.569-4.488,48.511-8.623c6.667-1.729,13.273-3.688,19.395-6.979
		C411.119,590.087,411.485,590.143,411.778,590.11z"/>
	<path fill-rule="evenodd" clip-rule="evenodd" fill="#FFFFFF" d="M385.241,548.759c-1.355,1.402-2.849,1.892-4.292,2.443
		c-4.062,1.546-8.289,2.492-12.537,3.343c-8.723,1.741-17.539,2.887-26.369,3.871c-5.964,0.664-11.948,1.121-17.933,1.568
		c-8.644,0.644-17.289,1.295-25.941,1.753c-7.993,0.421-15.997,0.599-23.995,0.863c-6.22,0.209-12.439,0.39-18.659,0.575
		c-0.999,0.029-2.001,0.031-3.002,0.031c-9.903,0.003-19.805,0.065-29.702-0.018c-8.114-0.071-16.227-0.309-24.34-0.487
		c-4.334-0.094-8.673-0.151-13.004-0.345c-8.658-0.388-17.32-0.767-25.967-1.315c-8.208-0.521-16.415-1.102-24.597-1.926
		c-12.157-1.224-24.319-2.503-36.262-5.23c-3.238-0.738-6.429-1.711-9.604-2.697c-1.459-0.455-2.948-0.993-4.038-2.145
		c-0.05-1.08,0.813-1.37,1.454-1.616c2.686-1.036,5.367-2.15,8.142-2.888c5.906-1.564,11.919-2.652,17.979-3.442
		c6.39-0.834,12.771-1.691,19.172-2.438c3.528-0.41,7.085-0.614,10.629-0.899c2.88-0.233,5.759-0.463,8.639-0.675
		c4.766-0.348,9.534-0.69,14.302-1.018c1.664-0.112,3.327-0.196,4.996-0.254c7.996-0.287,16.002-0.432,23.99-0.881
		c7.889-0.439,15.777-0.474,23.671-0.505c8.678-0.034,17.354-0.112,26.03-0.104c7.564,0.008,15.134-0.016,22.692,0.201
		c9.772,0.277,19.543,0.732,29.31,1.205c8.77,0.424,17.55,0.782,26.294,1.521c10.627,0.896,21.246,1.995,31.829,3.321
		c7.814,0.98,15.604,2.283,23.188,4.527c1.488,0.439,2.972,0.918,4.415,1.488C382.955,547.069,384.194,547.582,385.241,548.759z"/>
	<path fill-rule="evenodd" clip-rule="evenodd" fill="#FFFFFF" d="M414.2,615.355c3.759,1.094,7.217,2.577,10.473,4.497
		c1.138,0.672,2.231,1.49,3.168,2.419c1.906,1.896,1.94,3.256,0.122,5.16c-0.993,1.036-2.139,1.943-3.316,2.771
		c-2.651,1.864-5.603,3.183-8.584,4.409c-7.616,3.137-15.531,5.35-23.514,7.318c-10.354,2.553-20.814,4.609-31.365,6.176
		c-7.144,1.059-14.276,2.221-21.438,3.12c-7.057,0.89-14.145,1.54-21.223,2.233c-6.303,0.617-12.617,1.18-18.931,1.708
		c-4.096,0.34-8.202,0.641-12.309,0.843c-7,0.342-13.999,0.555-20.995,0.895c-14.006,0.68-28.021,0.677-42.034,0.646
		c-8.454-0.019-16.907-0.128-25.355-0.384c-8.778-0.265-17.55-0.66-26.317-1.18c-7.543-0.45-15.073-1.136-22.609-1.761
		c-5.759-0.476-11.519-0.954-17.268-1.554c-4.75-0.494-9.489-1.141-14.226-1.768c-5.176-0.686-10.35-1.395-15.518-2.147
		c-10.227-1.488-20.38-3.369-30.46-5.655c-7.8-1.768-15.542-3.761-23.069-6.486c-3.233-1.169-6.403-2.532-9.536-3.952
		c-1.711-0.776-3.364-1.747-4.891-2.838c-1.255-0.892-2.373-2.02-3.39-3.183c-0.876-1.005-0.968-2.25-0.089-3.367
		c0.544-0.692,1.122-1.409,1.831-1.909c1.449-1.022,2.938-2.019,4.515-2.819c3.97-2.014,8.187-3.395,12.429-4.624
		c0.358,0.201,0.707,0.306,0.918,0.533c2.872,3.071,6.45,5.077,10.221,6.774c7.117,3.199,14.548,5.472,22.102,7.342
		c10.996,2.729,22.078,5.02,33.27,6.829c8.126,1.315,16.285,2.32,24.469,3.068c7.637,0.695,15.301,1.067,22.959,1.532
		c5.435,0.332,10.875,0.628,16.316,0.861c6.33,0.271,12.665,0.476,18.994,0.68c7.446,0.24,14.89,0.528,22.336,0.656
		c9.785,0.168,19.575,0.379,29.357,0.243c9.11-0.125,18.215-0.672,27.319-1.062c5.443-0.233,10.886-0.461,16.321-0.801
		c4.548-0.282,9.086-0.717,13.625-1.106c2.77-0.237,5.532-0.56,8.301-0.776c8.098-0.633,16.107-1.909,24.115-3.193
		c4.934-0.793,9.893-1.444,14.82-2.273c12.052-2.032,24.016-4.454,35.696-8.134c1.904-0.6,3.812-1.198,5.733-1.742
		C403.294,621.617,409.291,619.625,414.2,615.355z"/>
	<path fill-rule="evenodd" clip-rule="evenodd" fill="#FFFFFF" d="M84.908,555.248c0.57,0.123,1.004,0.16,1.397,0.312
		c6.364,2.435,13.002,3.821,19.695,4.856c8.014,1.24,16.054,2.312,24.11,3.23c6.183,0.706,12.403,1.067,18.607,1.562
		c4.985,0.397,9.965,0.848,14.961,1.128c6.324,0.353,12.657,0.591,18.989,0.82c7.332,0.268,14.663,0.602,21.997,0.673
		c16.462,0.162,32.925,0.228,49.39,0.232c7.227,0.003,14.456-0.144,21.68-0.384c7.551-0.254,15.097-0.693,22.643-1.062
		c5.218-0.256,10.439-0.486,15.649-0.816c4.436-0.282,8.867-0.672,13.297-1.049c2.987-0.253,5.969-0.606,8.961-0.842
		c10.64-0.845,21.212-2.271,31.706-4.183c5.349-0.976,10.66-2.202,15.748-4.208c0.395-0.154,0.823-0.228,1.446-0.395
		c0.157,0.63,0.387,1.127,0.382,1.621c-0.031,2.777-0.184,5.556-0.176,8.333c0.006,2.25-1.054,3.871-2.861,4.949
		c-1.708,1.017-3.505,1.972-5.38,2.597c-3.259,1.083-6.581,2.009-9.929,2.794c-6.267,1.467-12.549,2.896-18.868,4.127
		c-4.028,0.784-8.127,1.216-12.199,1.755c-6.277,0.829-12.557,1.656-18.842,2.406c-4.964,0.594-9.942,1.102-14.917,1.599
		c-4.535,0.452-9.071,0.931-13.617,1.237c-5.767,0.387-11.547,0.541-17.315,0.923c-13.221,0.874-26.458,0.743-39.688,0.606
		c-11.338-0.117-22.669-0.599-34.002-1.018c-7.996-0.295-15.989-0.669-23.977-1.169c-7.873-0.491-15.74-1.101-23.597-1.817
		c-6.528-0.597-13.057-1.256-19.543-2.189c-11.101-1.596-22.198-3.282-32.94-6.656c-2.432-0.767-4.817-1.697-7.171-2.682
		c-1.324-0.554-2.537-1.37-3.798-2.074c-1.494-0.831-2.176-2.037-2.119-3.815c0.104-3.223,0.023-6.452,0.047-9.678
		C84.676,556.446,84.814,555.92,84.908,555.248z"/>
	<path fill-rule="evenodd" clip-rule="evenodd" fill="#FFFFFF" d="M54.777,582.309c0.534-1.525,1.815-2.294,3.089-2.916
		c2.189-1.067,4.434-2.064,6.735-2.859c5.042-1.739,10.232-2.945,15.644-3.994c4.679,4.455,10.684,6.472,16.721,8.409
		c1.692,0.544,3.406,1.03,5.132,1.444c7.24,1.736,14.548,3.136,21.918,4.188c5.83,0.829,11.647,1.768,17.498,2.419
		c6.073,0.678,12.178,1.096,18.272,1.569c5.32,0.411,10.64,0.777,15.965,1.091c3.665,0.217,7.334,0.309,11.001,0.466
		c5.111,0.22,10.216,0.471,15.327,0.661c6.667,0.251,13.339,0.356,19.999,0.704c12.235,0.644,24.471,0.424,36.701,0.214
		c6.777-0.117,13.546-0.617,20.318-0.983c4.771-0.259,9.546-0.533,14.312-0.889c3.767-0.283,7.527-0.667,11.289-1.062
		c4.64-0.488,9.285-0.98,13.915-1.571c10.357-1.321,20.736-2.551,31.057-4.125c5.477-0.834,10.87-2.255,16.279-3.518
		c3.781-0.882,7.535-1.889,11.272-2.945c3.55-1.007,6.932-2.44,9.79-4.839c1.125-0.944,2.289-0.732,3.466-0.471
		c4.88,1.088,9.732,2.322,14.396,4.153c1.85,0.728,3.609,1.708,5.352,2.676c0.86,0.474,1.689,1.099,1.878,2.359
		c-0.832,1.716-2.456,2.741-4.146,3.528c-3.016,1.404-6.055,2.819-9.209,3.848c-9.202,3.002-18.642,5.079-28.165,6.753
		c-6.455,1.136-12.923,2.205-19.412,3.11c-6.382,0.889-12.795,1.569-19.203,2.275c-5.524,0.609-11.059,1.148-16.591,1.674
		c-3.209,0.306-6.426,0.562-9.641,0.779c-4.768,0.324-9.542,0.62-14.315,0.882c-6.879,0.376-13.763,0.727-20.647,1.064
		c-2.331,0.112-4.666,0.175-7.002,0.206c-6.343,0.087-12.683,0.126-19.023,0.215c-5.335,0.073-10.674,0.324-16.007,0.262
		c-10.677-0.129-21.348-0.338-32.02-0.673c-8.221-0.256-16.441-0.661-24.649-1.179c-7.431-0.469-14.851-1.154-22.269-1.784
		c-5.54-0.471-11.084-0.916-16.606-1.538c-6.293-0.714-12.578-1.522-18.842-2.453c-7.253-1.075-14.498-2.211-21.709-3.531
		c-8.963-1.64-17.831-3.711-26.449-6.732c-2.937-1.03-5.83-2.187-8.466-3.879C56.53,584.542,55.235,583.831,54.777,582.309z"/>
</g>
<g>
	<path fill-rule="evenodd" clip-rule="evenodd" d="M328.601,14.91c0.756,0.239,1.496,0.617,2.269,0.695
		c10.171,1.03,20.021,3.567,29.688,6.732c23.269,7.615,46.267,15.952,68.358,26.6c10.502,5.061,20.729,10.613,30.361,17.194
		c9.365,6.395,17.697,13.875,24.18,23.276c5.016,7.285,8.346,15.179,9.385,24.051c1.457,12.392-4.525,24.371-15.496,30.277
		c-2.584,1.392-5.348,2.45-8.014,3.688c-1.939,0.902-3.887,1.796-5.779,2.792c-4.059,2.125-6.869,8.015-3.982,13.163
		c1.045,1.863,2.213,3.661,3.41,5.426c1.512,2.212,3.193,4.308,4.656,6.547c6.436,9.839,3.316,21.921-6.699,27.759
		c-2.541,1.481-5.211,2.741-7.832,4.078c-0.834,0.427-1.686,0.836-2.562,1.152c-4.605,1.652-6.523,5.162-6.945,9.788
		c0.348,0.329,0.588,0.693,0.92,0.851c36.539,17.209,73.086,34.403,109.445,51.509c1.701-0.214,2.543-1.367,3.582-2.153
		c4.291-3.241,8.787-6.14,13.779-8.188c4.115-1.687,8.342-2.699,12.871-2.609c6.338,0.128,11.336,2.764,15.406,7.429
		c3.047,3.489,5.002,7.584,6.465,11.931c0.643,1.901,1.188,3.828,1.854,5.987c1.764,0.635,3.617,1.361,5.504,1.986
		c39.721,13.159,79.422,26.379,119.184,39.438c33.658,11.057,67.365,21.973,101.08,32.864c15.391,4.971,30.779,9.984,46.301,14.504
		c14.896,4.342,29.697,8.93,44.338,14.062c41.711,14.628,82.236,32.026,121.561,52.21c12.492,6.415,24.762,13.262,37.131,19.914
		c0.945,0.502,1.885,1.015,2.523,1.357c4.805-1.28,9.293-2.55,13.828-3.677c5.129-1.274,10.375-1.433,15.564-0.745
		c11.107,1.467,17.773,8.225,20.336,17.894c0.242,0.895,0.266,1.846,0.418,2.766c0.217,1.303,0.465,2.602,0.697,3.903
		c-0.131,4.821-0.262,9.646-0.393,14.469c-0.334,1.828-0.762,3.647-0.959,5.483c-0.16,1.481-0.371,2.907-1.078,4.246
		c-3.908,7.384-8.477,14.287-14.832,19.828c-1.805,1.578-3.762,3.05-5.844,4.233c-8.445,4.801-16.875,4.528-25.07-0.63
		c-4.949-3.109-8.783-7.424-12.223-12.083c-1.42-1.938-2.783-3.946-3.973-6.038c-1.121-1.961-2.697-3.226-4.703-4.173
		c-4.615-2.19-9.453-3.776-14.373-5.013c-9.205-2.318-18.453-4.459-27.723-6.476c-8.756-1.903-17.623-3.297-26.328-5.386
		c-9.615-2.299-19.146-4.999-28.641-7.761c-30.457-8.848-60.25-19.596-89.633-31.524c-19.574-7.949-39.129-15.944-58.83-23.584
		c-21.062-8.171-42.258-16.022-63.443-23.867c-37.611-13.933-75.234-27.823-112.902-41.599
		c-18.834-6.885-37.777-13.478-56.674-20.205c-0.375-0.132-0.768-0.206-1.295-0.343c-1.078,0.625-2.229,1.295-3.373,1.954
		c-4.918,2.813-10.061,5.051-15.697,5.898c-7.182,1.083-13.893,0.135-19.512-4.98c-2.926-2.662-4.959-5.95-6.5-9.557
		c-1.635-3.837-2.625-7.866-3.305-11.969c-0.178-1.052-0.357-2.1-0.576-3.373c-19.861-5.437-39.738-10.694-59.594-16.03
		c-19.842-5.327-39.668-10.71-59.71-15.993c-1.142,2.777-2.156,5.092-3.034,7.452c-0.486,1.288-0.356,2.633,0.207,3.917
		c0.963,2.207,1.9,4.422,2.875,6.626c1.458,3.303,2.955,6.582,3.688,10.167c1.986,9.792-3.15,18.328-10.871,21.435
		c-2.594,1.041-5.322,1.741-8.006,2.542c-2.561,0.76-5.15,1.419-7.713,2.171c-4.614,1.358-8.473,7.214-6.172,12.981
		c0.596,1.491,1.221,2.969,1.918,4.416c1.107,2.29,2.311,4.531,3.421,6.817c5.511,11.366,3.951,22.091-3.12,32.21
		c-4.732,6.768-11.455,10.728-19.26,12.996c-6.608,1.916-13.386,2.599-20.235,2.625c-10.888,0.046-21.604-1.454-32.226-3.791
		c-20.537-4.526-40.588-10.709-60.308-17.945c-19.114-7.009-37.556-15.566-55.531-25.111c-8.9-4.726-17.202-10.378-24.366-17.545
		c-7.531-7.53-13.02-16.278-15.689-26.678c-1.524-5.936-1.776-11.894-0.321-17.877c1.626-6.705,5.582-11.774,11.14-15.683
		c3.433-2.413,7.285-3.934,11.268-5.154c1.023-0.315,2.072-0.542,3.104-0.83c2.476-0.694,4.726-1.856,6.742-3.455
		c3.837-3.048,4.743-6.455,2.978-11.023c-1.077-2.79-2.757-5.188-4.667-7.455c-3.82-4.543-5.99-9.766-6.541-15.685
		c-0.687-7.394,1.735-13.45,7.784-17.849c2.159-1.567,4.467-2.988,6.867-4.138c5.152-2.474,8.847-6.288,11.673-11.212
		c4.134-7.215,7.528-14.78,11.117-22.26c4.022-8.402,6.251-17.358,8.55-26.297c1.298-5.049,2.266-10.186,3.322-15.299
		c0.972-4.712,0.581-9.275-1.361-13.753c-1.488-3.431-2.793-6.933-3.494-10.663c-0.969-5.218,0.289-9.849,3.279-14.05
		c3.715-5.219,8.824-8.501,14.973-10.173c1.932-0.528,3.925-0.829,5.853-1.382c1.663-0.473,3.35-0.999,4.884-1.778
		c4.775-2.422,6.336-6.154,4.91-11.382c-0.676-2.471-1.794-4.729-3.234-6.868c-1.418-2.105-2.859-4.244-3.897-6.543
		c-4.996-11.033-3.827-21.65,2.627-31.738c4.374-6.833,10.468-11.778,17.746-15.245c8.653-4.114,17.737-6.705,27.338-7.348
		c0.906-0.062,1.795-0.41,2.692-0.629C316.272,14.573,322.438,14.741,328.601,14.91z M591.609,331.98
		c3.914,1.376,7.309,2.547,10.689,3.761c26.787,9.642,53.609,19.194,80.355,28.964c26.494,9.68,52.916,19.559,79.355,29.393
		c19.295,7.18,38.633,14.257,57.822,21.709c20.562,7.983,41.006,16.276,61.445,24.569c28.51,11.567,57.371,22.118,86.852,30.94
		c17.174,5.14,34.463,9.798,52.139,12.949c11.186,1.995,22.275,4.501,33.246,7.459c5.682,1.529,11.316,3.219,16.695,5.662
		c3.641,1.647,6.514,3.958,8.6,7.501c1.963,3.326,4.404,6.389,6.842,9.402c2.189,2.718,4.828,4.986,7.895,6.756
		c4.641,2.673,9.352,2.912,14.203,0.629c3.199-1.501,5.908-3.672,8.336-6.198c4.098-4.283,7.529-9.057,10.164-14.378
		c0.646-1.297,1.189-2.721,1.402-4.145c0.652-4.367,1.369-8.74,1.225-13.182c-0.113-3.622-0.502-7.199-1.688-10.665
		c-1.846-5.396-5.598-8.703-11.021-10.147c-1.406-0.372-2.904-0.442-4.369-0.547c-7.93-0.56-15.383,1.471-22.686,4.271
		c-1.236,0.473-2.465,0.975-3.738,1.482c-1.225-0.68-2.387-1.336-3.561-1.975c-11.275-6.146-22.479-12.44-33.859-18.393
		c-22.887-11.976-46.279-22.878-70.061-32.948c-20.076-8.503-40.41-16.353-61.023-23.453c-13.264-4.574-26.705-8.604-40.17-12.566
		c-14.744-4.337-29.373-9.077-44.002-13.807c-36.117-11.681-72.225-23.42-108.312-35.209c-21.984-7.183-43.926-14.492-65.879-21.753
		c-16.502-5.458-32.99-10.935-49.486-16.393c-0.721-0.238-1.48-0.372-2.455-0.612c-0.629,3.786-1.043,7.354-1.852,10.827
		c-0.814,3.511-1.83,6.998-3.086,10.369c-1.268,3.375-2.83,6.653-4.469,9.866C595.535,325.313,593.656,328.377,591.609,331.98z
		 M438.729,206.674c-0.426-0.194-0.768-0.418-1.148-0.51c-18.186-4.45-36.077-9.888-53.854-15.733
		c-25.784-8.475-51.233-17.88-76.477-27.847c-19.399-7.659-38.667-15.635-57.802-23.928c-0.925-0.403-1.913-0.67-2.739-0.956
		c-0.699,4.86-1.248,9.499-2.042,14.099c-1.419,8.188-3.809,16.139-6.006,24.139c-0.671,2.442-1.256,4.946-2.272,7.25
		c-3.129,7.101-6.31,14.182-9.725,21.145c-2.829,5.761-5.736,11.51-9.951,16.452c-0.4,0.464-0.695,1.014-1.19,1.748
		c1,0.392,1.709,0.726,2.453,0.951c6.269,1.883,12.568,3.689,18.821,5.628c32.819,10.161,65.407,21.003,97.562,33.111
		c23.022,8.67,45.797,17.947,68.021,28.525c1.68,0.798,3.355,1.593,4.939,2.346C419.035,264.703,429.303,236.03,438.729,206.674z
		 M171.582,315.916c5.385,2.778,10.348,5.4,15.36,7.922c26.189,13.171,53.174,24.512,80.517,35.019
		c35.368,13.593,71.413,24.975,108.544,32.711c2.827,0.589,5.655,1.662,8.593,1.231c2.479-2.714,3.998-5.84,5.191-9.118
		c1.604-4.431,1.762-8.929-0.008-13.352c-1.037-2.603-2.289-5.122-3.467-7.668c-1.121-2.428-2.406-4.792-3.365-7.282
		c-1.064-2.759-1.703-5.688-1.255-8.661c0.913-6.04,3.901-10.747,9.327-13.773c0.664-0.369,1.279-0.831,2.086-1.363
		c-1.445-0.734-2.609-1.397-3.834-1.926c-14.854-6.409-29.645-12.976-44.596-19.156c-23.848-9.854-48.063-18.769-72.425-27.268
		c-20.571-7.178-41.27-13.977-62.085-20.411c-0.96-0.298-1.948-0.703-3.247-0.65c0.349,1.304,0.656,2.301,0.887,3.314
		c1.495,6.512,0.202,12.197-4.923,16.784c-3.468,3.109-7.497,5.16-11.975,6.257c-3.146,0.771-6.172,1.822-8.972,3.406
		c-6.098,3.451-9.887,8.559-10.431,15.685C171.305,310.262,171.541,312.941,171.582,315.916z M484.361,122.649
		c-1.723-1.256-3.008-2.212-4.311-3.142c-15.402-11.02-31.881-20.151-49.139-27.896c-24.768-11.115-49.976-21.17-75.504-30.405
		c-21.755-7.871-43.939-14.371-66.387-19.957c-5.434-1.354-10.916-2.511-16.496-3.787c-0.956,1.12-1.879,2.078-2.661,3.139
		c-4.794,6.518-6.522,13.703-4.472,21.62c0.775,3.001,2.22,5.728,4.027,8.253c1.879,2.626,3.47,5.395,4.508,8.475
		c1.22,3.628,1.727,7.332,0.87,11.07c-1.005,4.379-3.593,7.698-7.416,10.083c-0.698,0.435-1.878,0.598-1.622,2.032
		c1.042,0.455,2.128,0.942,3.23,1.406c32.404,13.652,65.212,26.279,98.392,37.921c27.381,9.604,55.006,18.439,83.021,26.015
		c0.59,0.161,1.221,0.184,2.146,0.317c-0.438-1.364-0.76-2.355-1.084-3.347c-1.236-3.824-1.16-7.625,0.121-11.429
		c1.396-4.122,4-7.295,7.725-9.408c2.785-1.583,5.754-2.84,8.684-4.139c2.936-1.307,5.912-2.514,8.529-4.428
		C480.721,131.983,483.1,127.81,484.361,122.649z M415.426,316.855c0.16-1.59-0.324-3.542-1.11-5.402
		c-1.091-2.591-2.386-5.097-3.388-7.719c-0.777-2.042-2.161-3.254-4.073-4.142c-4.976-2.303-9.878-4.763-14.863-7.047
		c-22.261-10.197-44.986-19.251-67.947-27.722c-36.385-13.426-73.249-25.386-110.44-36.362c-5.293-1.562-5.307-1.557-10.042,1.27
		c-1.149,0.683-2.294,1.398-3.334,2.234c-1.701,1.371-2.891,3.097-3.483,5.26c-1.42,5.178,0.127,9.764,2.67,14.171
		c0.974,1.693,2.392,2.626,4.351,3.221c33.78,10.235,67.235,21.44,100.337,33.698c32.359,11.979,64.349,24.845,95.551,39.607
		c2.367,1.12,4.521,1.424,6.889,0.374c0.734-0.327,1.522-0.52,2.246-0.862C413.055,325.422,415.356,322.108,415.426,316.855z
		 M463.082,186.671c0.264-3.148-1.232-5.684-2.775-8.223c-1.1-1.803-2.531-2.828-4.678-3.388
		c-16.949-4.403-33.742-9.348-50.434-14.649c-23.958-7.607-47.678-15.887-71.227-24.667c-19.794-7.379-39.461-15.075-58.969-23.173
		c-5.804-2.412-11.617-4.801-17.385-7.287c-1.419-0.611-2.768-0.963-4.26-0.513c-3.933,1.191-7.39,3.201-10.025,6.374
		c-2.642,3.179-3.642,6.81-2.265,10.874c0.559,1.644,1.131,3.292,1.775,4.906c1.089,2.746,1.109,2.748,3.643,3.871
		c2.689,1.189,5.385,2.353,8.089,3.516c35.37,15.23,71.113,29.511,107.426,42.354c22.941,8.114,46.109,15.527,69.607,21.862
		c3.615,0.973,7.244,1.895,10.887,2.745c1.537,0.355,3.086,0.808,4.699-0.014c2.615-1.34,5.363-2.437,7.93-3.871
		c1.729-0.966,3.34-2.22,4.824-3.554C462.027,191.951,462.898,189.433,463.082,186.671z M553.561,279.058
		c-1.062-0.537-1.998-1.041-2.951-1.493c-20.805-9.778-41.613-19.548-62.418-29.329c-14.631-6.88-29.254-13.791-43.904-20.64
		c-1.129-0.529-2.197-1.585-3.906-0.998c-5.348,16.186-10.896,32.36-17.357,48.204c-0.251,0.617-0.402,1.274-0.584,1.918
		c-0.027,0.107,0.049,0.245,0.211,0.933c39.391,10.608,79.064,21.237,118.611,31.852
		C548.816,303.065,554.805,287.238,553.561,279.058z M277.702,33.192c4.75,1.162,8.876,2.182,13.008,3.184
		c23.023,5.569,45.668,12.424,67.957,20.439c22.282,8.008,44.217,16.906,65.964,26.25c20.334,8.733,39.916,18.887,57.961,31.812
		c0.629,0.453,1.34,0.781,2.354,1.359c0.031-1.132,0.148-1.898,0.061-2.634c-0.453-3.749-1.5-7.337-3.033-10.784
		c-2.693-6.057-6.477-11.378-10.891-16.296c-6.324-7.056-13.865-12.577-21.84-17.571c-11.592-7.259-23.848-13.255-36.355-18.754
		c-12.864-5.653-26.059-10.452-39.264-15.217c-12.088-4.362-24.294-8.315-36.952-10.68c-10.866-2.032-21.806-2.646-32.773-1.097
		c-7.319,1.036-14.359,3.172-20.985,6.523C281.265,30.56,279.572,31.372,277.702,33.192z M377.984,397.642
		c-0.908-0.332-1.721-0.742-2.586-0.929c-4.96-1.089-9.96-2.013-14.896-3.196c-21.063-5.049-41.871-11.009-62.354-18.045
		c-41.646-14.306-82.344-30.875-121.547-51.009c-0.525-0.271-1.047-0.901-1.76-0.457c-0.075,0.142-0.197,0.268-0.175,0.356
		c0.138,0.507,0.266,1.025,0.479,1.507c2.503,5.714,6.135,10.648,10.521,15.046c6.479,6.503,14.005,11.592,21.987,16.041
		c13.796,7.698,28.221,14.087,42.741,20.255c14.657,6.223,29.789,11.127,45.049,15.618c13.725,4.039,27.521,7.798,41.775,9.576
		c8.804,1.099,17.611,1.369,26.424,0.284c3.715-0.457,7.367-1.354,10.834-2.833C375.672,399.344,377.045,399.055,377.984,397.642z
		 M559.971,276.459c-0.033,1.241-0.07,2.302-0.088,3.366c-0.145,7.194-1.768,14.047-4.844,20.548
		c-1.898,4.009-4.186,7.8-7.064,11.167c-1.342,1.568-1.928,3.16-1.504,5.135c0.705,3.265,1.225,6.588,2.219,9.766
		c0.748,2.393,1.943,4.698,3.248,6.853c1.717,2.83,4.236,4.926,7.525,5.605c3.148,0.654,6.41,0.819,9.537-0.212
		c2.914-0.96,5.789-2.061,8.605-3.256c4.568-1.934,8.229-4.93,10.428-9.508c0.342-0.724,0.838-1.371,1.232-2.066
		c4.922-8.516,8.818-17.414,10.404-27.212c1.35-8.342,0.367-16.275-3.953-23.648c-3.389-5.792-8.34-8.504-15.107-7.483
		c-0.922,0.14-1.84,0.354-2.73,0.629C571.117,268.229,565.338,271.988,559.971,276.459z"/>
	<path fill-rule="evenodd" clip-rule="evenodd" fill="#FFFFFF" d="M591.609,331.98c2.047-3.603,3.926-6.667,5.549-9.86
		c1.639-3.213,3.201-6.491,4.469-9.866c1.256-3.371,2.271-6.858,3.086-10.369c0.809-3.474,1.223-7.041,1.852-10.827
		c0.975,0.241,1.734,0.375,2.455,0.612c16.496,5.458,32.984,10.935,49.486,16.393c21.953,7.262,43.895,14.571,65.879,21.753
		c36.088,11.789,72.195,23.528,108.312,35.209c14.629,4.729,29.258,9.47,44.002,13.807c13.465,3.962,26.906,7.992,40.17,12.566
		c20.613,7.101,40.947,14.95,61.023,23.453c23.781,10.07,47.174,20.973,70.061,32.948c11.381,5.952,22.584,12.247,33.859,18.393
		c1.174,0.639,2.336,1.295,3.561,1.975c1.273-0.508,2.502-1.01,3.738-1.482c7.303-2.801,14.756-4.831,22.686-4.271
		c1.465,0.104,2.963,0.175,4.369,0.547c5.424,1.444,9.176,4.751,11.021,10.147c1.186,3.466,1.574,7.043,1.688,10.665
		c0.145,4.441-0.572,8.814-1.225,13.182c-0.213,1.424-0.756,2.848-1.402,4.145c-2.635,5.321-6.066,10.095-10.164,14.378
		c-2.428,2.526-5.137,4.697-8.336,6.198c-4.852,2.283-9.562,2.044-14.203-0.629c-3.066-1.77-5.705-4.038-7.895-6.756
		c-2.438-3.014-4.879-6.076-6.842-9.402c-2.086-3.543-4.959-5.854-8.6-7.501c-5.379-2.443-11.014-4.133-16.695-5.662
		c-10.971-2.958-22.061-5.464-33.246-7.459c-17.676-3.151-34.965-7.81-52.139-12.949c-29.48-8.822-58.342-19.373-86.852-30.94
		c-20.439-8.293-40.883-16.586-61.445-24.569c-19.189-7.452-38.527-14.529-57.822-21.709c-26.439-9.834-52.861-19.713-79.355-29.393
		c-26.746-9.77-53.568-19.322-80.355-28.964C598.918,334.527,595.523,333.356,591.609,331.98z"/>
	<path fill-rule="evenodd" clip-rule="evenodd" fill="#FFFFFF" d="M438.729,206.674c-9.426,29.356-19.693,58.029-31.41,86.419
		c-1.584-0.753-3.26-1.548-4.939-2.346c-22.224-10.579-44.998-19.855-68.021-28.525c-32.156-12.108-64.744-22.951-97.562-33.111
		c-6.253-1.939-12.553-3.745-18.821-5.628c-0.744-0.225-1.453-0.56-2.453-0.951c0.495-0.734,0.791-1.284,1.19-1.748
		c4.215-4.942,7.122-10.69,9.951-16.452c3.416-6.963,6.596-14.044,9.725-21.145c1.016-2.303,1.601-4.808,2.272-7.25
		c2.197-8,4.586-15.951,6.006-24.139c0.794-4.6,1.343-9.238,2.042-14.099c0.826,0.286,1.814,0.553,2.739,0.956
		c19.135,8.292,38.403,16.269,57.802,23.928c25.244,9.967,50.693,19.372,76.477,27.847c17.776,5.845,35.668,11.283,53.854,15.733
		C437.961,206.255,438.303,206.479,438.729,206.674z"/>
	<path fill-rule="evenodd" clip-rule="evenodd" fill="#FFFFFF" d="M171.582,315.916c-0.041-2.975-0.276-5.654-0.076-8.299
		c0.543-7.126,4.333-12.234,10.431-15.685c2.799-1.584,5.825-2.636,8.972-3.406c4.478-1.097,8.507-3.148,11.975-6.257
		c5.125-4.587,6.418-10.272,4.923-16.784c-0.231-1.013-0.538-2.01-0.887-3.314c1.299-0.053,2.287,0.353,3.247,0.65
		c20.815,6.434,41.514,13.233,62.085,20.411c24.361,8.499,48.577,17.415,72.425,27.268c14.951,6.18,29.742,12.747,44.596,19.156
		c1.225,0.529,2.389,1.192,3.834,1.926c-0.807,0.532-1.422,0.995-2.086,1.363c-5.426,3.026-8.414,7.733-9.327,13.773
		c-0.448,2.972,0.19,5.901,1.255,8.661c0.959,2.49,2.244,4.854,3.365,7.282c1.178,2.546,2.43,5.065,3.467,7.668
		c1.77,4.423,1.611,8.921,0.008,13.352c-1.193,3.278-2.713,6.404-5.191,9.118c-2.938,0.431-5.766-0.643-8.593-1.231
		c-37.131-7.736-73.177-19.118-108.544-32.711c-27.343-10.506-54.328-21.847-80.517-35.019
		C181.929,321.316,176.966,318.694,171.582,315.916z"/>
	<path fill-rule="evenodd" clip-rule="evenodd" fill="#FFFFFF" d="M484.361,122.649c-1.262,5.161-3.641,9.334-7.838,12.394
		c-2.617,1.914-5.594,3.121-8.529,4.428c-2.93,1.299-5.898,2.557-8.684,4.139c-3.725,2.113-6.328,5.286-7.725,9.408
		c-1.281,3.804-1.357,7.604-0.121,11.429c0.324,0.991,0.646,1.983,1.084,3.347c-0.926-0.133-1.557-0.156-2.146-0.317
		c-28.016-7.576-55.641-16.41-83.021-26.015c-33.179-11.642-65.988-24.269-98.392-37.921c-1.102-0.464-2.188-0.952-3.23-1.406
		c-0.256-1.434,0.924-1.597,1.622-2.032c3.823-2.385,6.41-5.704,7.416-10.083c0.857-3.738,0.351-7.441-0.87-11.07
		c-1.038-3.08-2.629-5.849-4.508-8.475c-1.808-2.525-3.252-5.252-4.027-8.253c-2.05-7.917-0.322-15.102,4.472-21.62
		c0.782-1.062,1.706-2.02,2.661-3.139c5.581,1.276,11.062,2.433,16.496,3.787c22.448,5.586,44.632,12.086,66.387,19.957
		c25.528,9.235,50.736,19.29,75.504,30.405c17.258,7.746,33.736,16.877,49.139,27.896
		C481.354,120.437,482.639,121.393,484.361,122.649z"/>
	<path fill-rule="evenodd" clip-rule="evenodd" fill="#FFFFFF" d="M415.426,316.855c-0.069,5.253-2.371,8.567-6.639,10.58
		c-0.724,0.342-1.512,0.535-2.246,0.862c-2.367,1.051-4.521,0.747-6.889-0.374c-31.202-14.762-63.191-27.627-95.551-39.607
		c-33.103-12.258-66.557-23.463-100.337-33.698c-1.959-0.595-3.377-1.528-4.351-3.221c-2.542-4.408-4.09-8.993-2.67-14.171
		c0.592-2.164,1.782-3.889,3.483-5.26c1.04-0.836,2.185-1.551,3.334-2.234c4.735-2.826,4.75-2.832,10.042-1.27
		c37.191,10.976,74.056,22.936,110.44,36.362c22.961,8.471,45.687,17.525,67.947,27.722c4.985,2.284,9.888,4.744,14.863,7.047
		c1.912,0.887,3.296,2.1,4.073,4.142c1.002,2.622,2.297,5.127,3.388,7.719C415.102,313.313,415.586,315.265,415.426,316.855z"/>
	<path fill-rule="evenodd" clip-rule="evenodd" fill="#FFFFFF" d="M463.082,186.671c-0.184,2.762-1.055,5.28-3.137,7.161
		c-1.484,1.334-3.096,2.588-4.824,3.554c-2.566,1.434-5.314,2.53-7.93,3.871c-1.613,0.822-3.162,0.369-4.699,0.014
		c-3.643-0.851-7.271-1.772-10.887-2.745c-23.498-6.335-46.666-13.748-69.607-21.862c-36.313-12.843-72.056-27.123-107.426-42.354
		c-2.704-1.163-5.4-2.327-8.089-3.516c-2.534-1.123-2.554-1.125-3.643-3.871c-0.644-1.614-1.216-3.262-1.775-4.906
		c-1.377-4.063-0.377-7.695,2.265-10.874c2.635-3.173,6.092-5.183,10.025-6.374c1.493-0.451,2.841-0.098,4.26,0.513
		c5.768,2.486,11.581,4.875,17.385,7.287c19.507,8.098,39.174,15.794,58.969,23.173c23.549,8.781,47.269,17.061,71.227,24.667
		c16.691,5.301,33.484,10.246,50.434,14.649c2.146,0.56,3.578,1.584,4.678,3.388C461.85,180.987,463.346,183.523,463.082,186.671z"
		/>
	<path fill-rule="evenodd" clip-rule="evenodd" fill="#FFFFFF" d="M553.561,279.058c1.244,8.181-4.744,24.008-12.299,30.447
		c-39.547-10.615-79.221-21.244-118.611-31.852c-0.162-0.688-0.238-0.826-0.211-0.933c0.182-0.644,0.333-1.301,0.584-1.918
		c6.461-15.843,12.01-32.018,17.357-48.204c1.709-0.587,2.777,0.469,3.906,0.998c14.65,6.849,29.273,13.76,43.904,20.64
		c20.805,9.78,41.613,19.55,62.418,29.329C551.562,278.017,552.498,278.521,553.561,279.058z"/>
	<path fill-rule="evenodd" clip-rule="evenodd" fill="#FFFFFF" d="M277.702,33.192c1.87-1.821,3.563-2.632,5.211-3.465
		c6.626-3.351,13.666-5.487,20.985-6.523c10.967-1.549,21.907-0.935,32.773,1.097c12.657,2.365,24.864,6.317,36.952,10.68
		c13.205,4.765,26.399,9.564,39.264,15.217c12.508,5.5,24.764,11.495,36.355,18.754c7.975,4.994,15.516,10.515,21.84,17.571
		c4.414,4.918,8.197,10.239,10.891,16.296c1.533,3.446,2.58,7.035,3.033,10.784c0.088,0.736-0.029,1.502-0.061,2.634
		c-1.014-0.578-1.725-0.907-2.354-1.359c-18.045-12.926-37.627-23.079-57.961-31.812c-21.747-9.345-43.683-18.242-65.964-26.25
		c-22.289-8.015-44.934-14.87-67.957-20.439C286.578,35.375,282.452,34.354,277.702,33.192z"/>
	<path fill-rule="evenodd" clip-rule="evenodd" fill="#FFFFFF" d="M377.984,397.642c-0.939,1.413-2.312,1.702-3.508,2.215
		c-3.467,1.479-7.119,2.376-10.834,2.833c-8.813,1.085-17.621,0.814-26.424-0.284c-14.254-1.778-28.051-5.537-41.775-9.576
		c-15.26-4.491-30.393-9.396-45.049-15.618c-14.52-6.168-28.944-12.557-42.741-20.255c-7.982-4.449-15.507-9.537-21.987-16.041
		c-4.386-4.398-8.018-9.333-10.521-15.046c-0.213-0.481-0.342-1-0.479-1.507c-0.022-0.088,0.1-0.214,0.175-0.356
		c0.713-0.444,1.235,0.186,1.76,0.457c39.204,20.133,79.901,36.703,121.547,51.009c20.483,7.036,41.291,12.996,62.354,18.045
		c4.937,1.184,9.937,2.107,14.896,3.196C376.264,396.899,377.076,397.31,377.984,397.642z"/>
	<path fill-rule="evenodd" clip-rule="evenodd" fill="#FFFFFF" d="M559.971,276.459c5.367-4.472,11.146-8.23,17.908-10.317
		c0.891-0.275,1.809-0.489,2.73-0.629c6.768-1.021,11.719,1.691,15.107,7.483c4.32,7.373,5.303,15.306,3.953,23.648
		c-1.586,9.799-5.482,18.696-10.404,27.212c-0.395,0.696-0.891,1.343-1.232,2.066c-2.199,4.579-5.859,7.574-10.428,9.508
		c-2.816,1.195-5.691,2.296-8.605,3.256c-3.127,1.031-6.389,0.866-9.537,0.212c-3.289-0.679-5.809-2.775-7.525-5.605
		c-1.305-2.155-2.5-4.46-3.248-6.853c-0.994-3.178-1.514-6.501-2.219-9.766c-0.424-1.975,0.162-3.567,1.504-5.135
		c2.879-3.368,5.166-7.158,7.064-11.167c3.076-6.5,4.699-13.354,4.844-20.548C559.9,278.762,559.938,277.7,559.971,276.459z"/>
</g>
<g id="wXjg9f.tif">
	<g>
		<path fill="#FFFFFF" stroke="#000000" stroke-width="5" stroke-miterlimit="10" d="M350.004,505.516c-5.796,0-11.791,0-17.927,0
			c-1.574,3.878-3.014,7.356-4.398,10.856c-3.347,8.457-8.478,15.761-14.781,22.204c-6.888,7.039-15.112,10.972-25.281,9.983
			c-7.897-0.766-13.16-6.202-13.324-14.049c-0.181-8.745,4.842-15.067,12.769-16.244c5.97-0.886,11.015,0.919,15.425,5.335
			c8.212-2.958,11.118-9.658,13.698-16.932c-5.298-1.602-58.745-2.011-67.163-0.743c-4.933,6.798-9.472,13.731-14.698,20.099
			c-8.113,9.883-18.179,17.453-30.657,20.746c-22.991,6.067-43.53-1.728-56.266-21.968c-3.657-5.812-6.21-12.32-9.688-19.355
			c-5.822,0-12.202,0-19.039,0c0-4.891,0-9.005,0-14.059c5.441,0,10.682,0,15.97,0c1.772-5.63,1.259-10.403,0.563-15.938
			c-5.357-0.315-10.616-0.625-16.432-0.968c0-4.388,0-8.513,0-13.422c6.055,0,12.207,0,18.763,0
			c1.037-2.776,1.899-5.007,2.706-7.257c3.528-9.835,8.912-18.55,16.153-26.042c6.819-7.055,14.898-11.261,25.118-10.436
			c8.404,0.68,13.826,6.008,13.943,14.11c0.132,9.057-5.159,15.319-13.482,16.304c-5.778,0.684-10.506-1.3-14.734-5.414
			c-8.223,2.976-11.123,9.798-13.833,16.98c4.884,1.741,53.737,2.342,67.703,0.924c1.077-1.716,2.381-3.755,3.65-5.814
			c6.508-10.568,14.112-20.156,24.353-27.415c13.425-9.517,28.229-12.083,44.022-8.104c16.441,4.144,26.699,15.574,33.774,30.304
			c1.725,3.59,3.046,7.373,4.727,11.497c6.38,0,12.585,0,19.346,0c0,4.67,0,8.776,0,13.655c-5.359,0.377-10.78,0.757-16.588,1.164
			c0,5.169,0,9.764,0,14.582c5.135,2.526,10.695,0.319,15.827,1.641C352.051,496.792,352.045,500.056,350.004,505.516z
			 M260.442,476.289c-1.515,4.604-3.011,9.147-4.617,14.027c2.083,0.447,3.35,0.953,4.617,0.956
			c18.287,0.051,36.572,0.058,54.858-0.017c1.436-0.006,2.867-0.702,4.319-1.083c0-5.011,0-9.579,0-13.999
			C313.403,474.443,267.1,474.448,260.442,476.289z M150.12,490.016c5.43,1.618,50.832,1.891,58.621,0.313
			c1.572-4.261,3.307-8.963,5.035-13.647c-6.025-2.42-57.975-2.42-63.656-0.194C150.12,481.005,150.12,485.588,150.12,490.016z
			 M314.915,460.298c-2.421-10.49-13.103-18.164-24.595-18.035c-9.496,0.106-19.41,8.344-21.37,18.035
			C284.286,460.298,299.55,460.298,314.915,460.298z M154.765,505.383c2.789,11.201,14.478,19.158,25.688,18.26
			c9.16-0.734,18.725-9.339,19.687-18.161C185.049,505.211,170.02,505.302,154.765,505.383z"/>
	</g>
</g>
</svg>
