<?xml version="1.0" encoding="UTF-8" standalone="no"?>
<svg
   width="648.42"
   height="655.08"
   version="1.1"
   id="svg66"
   sodipodi:docname="headshot-template-trademarks.svg"
   inkscape:version="1.3.1 (6036e22fae, 2023-11-19, custom)"
   xmlns:inkscape="http://www.inkscape.org/namespaces/inkscape"
   xmlns:sodipodi="http://sodipodi.sourceforge.net/DTD/sodipodi-0.dtd"
   xmlns="http://www.w3.org/2000/svg"
   xmlns:svg="http://www.w3.org/2000/svg">
  <defs
     id="defs70" />
  <sodipodi:namedview
     id="namedview68"
     pagecolor="#505050"
     bordercolor="#eeeeee"
     borderopacity="1"
     inkscape:pageshadow="0"
     inkscape:pageopacity="0"
     inkscape:pagecheckerboard="0"
     showgrid="false"
     inkscape:zoom="256"
     inkscape:cx="471.79883"
     inkscape:cy="203.48633"
     inkscape:window-width="2192"
     inkscape:window-height="1170"
     inkscape:window-x="1536"
     inkscape:window-y="26"
     inkscape:window-maximized="1"
     inkscape:current-layer="layer2"
     inkscape:showpageshadow="2"
     inkscape:deskcolor="#d1d1d1"
     showguides="true" />
  <g
     inkscape:groupmode="layer"
     id="layer2"
     inkscape:label="Layer 1">
    <rect
       style="fill:#ffffff"
       id="rect1"
       width="648.33307"
       height="655.07184"
       x="0.023075188"
       y="0.0082460567" />
    <text
       xml:space="preserve"
       style="font-style:normal;font-variant:normal;font-weight:normal;font-stretch:normal;font-size:42.6667px;font-family:'Helvetica CE 55 Roman';-inkscape-font-specification:'Helvetica CE 55 Roman, ';fill:#ffffff"
       x="400.81781"
       y="218.29231"
       id="text2"><tspan
         sodipodi:role="line"
         id="tspan2"
         x="400.81781"
         y="218.29231">M</tspan></text>
    <path
       style="fill:#ffffff;fill-opacity:1;stroke:#000000;stroke-width:6.7;stroke-dasharray:none;stroke-opacity:1"
       id="path5"
       sodipodi:type="arc"
       sodipodi:cx="282.86188"
       sodipodi:cy="204.34834"
       sodipodi:rx="53.688068"
       sodipodi:ry="53.688068"
       sodipodi:start="6.2624198"
       sodipodi:end="6.2623729"
       sodipodi:open="true"
       sodipodi:arc-type="arc"
       d="m 336.53837,203.23356 a 53.688068,53.688068 0 0 1 -52.56108,54.79126 53.688068,53.688068 0 0 1 -54.79188,-52.56044 53.688068,53.688068 0 0 1 52.5598,-54.79249 53.688068,53.688068 0 0 1 54.79311,52.55916" />
    <path
       style="fill:#ffffff;fill-opacity:1;stroke:#000000;stroke-width:6.7;stroke-dasharray:none;stroke-opacity:1"
       id="path5-4"
       sodipodi:type="arc"
       sodipodi:cx="418.62271"
       sodipodi:cy="203.81403"
       sodipodi:rx="53.688068"
       sodipodi:ry="53.688068"
       sodipodi:start="6.2625112"
       sodipodi:end="6.2623729"
       sodipodi:open="true"
       sodipodi:arc-type="arc"
       d="m 472.29931,202.70415 a 53.688068,53.688068 0 0 1 -52.56487,54.78643 53.688068,53.688068 0 0 1 -54.78825,-52.56297 53.688068,53.688068 0 0 1 52.56108,-54.79006 53.688068,53.688068 0 0 1 54.79188,52.55918" />
  </g>
  <path
     d="m 139.75,507 -0.04,-0.75 -0.12,-1.53 c 0,-0.1 -0.01,-0.19 -0.04,-0.29 l -0.19,-1.59 c -0.01,-0.15 -0.04,-0.3 -0.07,-0.44 -0.2,-1.32 -0.46,-2.63 -0.8,-3.9 l -0.41,-1.47 -0.34,-1.08 -0.53,-1.53 -0.37,-0.94 -0.34,-0.84 -0.67,-1.47 -0.56,-1.13 -0.26,-0.49 c -0.12,-0.26 -0.27,-0.52 -0.41,-0.76 l -0.56,-0.95 -0.42,-0.71 c -0.59,-0.97 -1.23,-1.89 -1.91,-2.81 v -0.01 l -0.01,-0.01 c -3.94,-5.33 -9.11,-9.66 -15.12,-12.59 -5.45,-2.67 -11.56,-4.15 -18.03,-4.15 -21.78,0 -39.68,16.96 -41.15,38.37 -0.08,0.95 -0.11,1.91 -0.11,2.87 0,5.2 0.97,10.16 2.74,14.74 v 0.01 c 0.27,0.72 0.57,1.44 0.9,2.15 l 0.67,1.42 a 16.55,16.55 0 0 0 0.53,1.02 c 0.48,0.9 0.99,1.8 1.54,2.66 a 43.93,43.93 0 0 0 0.89,1.33 56.78,56.78 0 0 0 1.62,2.21 c 0.18,0.22 0.35,0.45 0.54,0.67 0.14,0.16 0.27,0.33 0.41,0.49 0.14,0.16 0.27,0.33 0.42,0.48 0.1,0.11 0.19,0.22 0.29,0.33 0.18,0.22 0.37,0.42 0.57,0.63 0.1,0.1 0.18,0.19 0.27,0.29 a 17.45,17.45 0 0 0 0.74,0.76 66.58,66.58 0 0 0 1.48,1.42 51.06,51.06 0 0 0 1.58,1.35 7.68,7.68 0 0 0 0.63,0.5 38.72,38.72 0 0 0 3.24,2.3 l 0.74,0.46 c 0.12,0.08 0.25,0.15 0.37,0.22 0.12,0.08 0.25,0.15 0.37,0.22 0.25,0.15 0.5,0.3 0.76,0.44 a 34.14,34.14 0 0 0 1.47,0.78 c 0.26,0.14 0.53,0.26 0.79,0.4 0.1,0.04 0.18,0.08 0.27,0.12 0.05,0.03 0.1,0.05 0.15,0.07 l 1.25,0.56 0.35,0.15 c 0.31,0.14 0.64,0.26 0.97,0.38 0.45,0.18 0.9,0.34 1.35,0.49 0.01,0.01 0.03,0.01 0.03,0.01 l 0.82,0.29 h 0.01 a 41.37,41.37 0 0 0 12.5,1.93 c 1.09,0 2.17,-0.04 3.23,-0.14 h 0.01 a 40.75,40.75 0 0 0 16.17,-4.73 41.28,41.28 0 0 0 11.14,-8.7 c 0.95,-1.05 1.85,-2.15 2.68,-3.31 0.31,-0.41 0.61,-0.84 0.91,-1.27 0.52,-0.76 1.01,-1.54 1.46,-2.33 0.18,-0.29 0.34,-0.59 0.5,-0.87 a 22.33,22.33 0 0 0 0.61,-1.19 1.24,1.24 0 0 0 0.16,-0.3 21.58,21.58 0 0 0 0.76,-1.61 c 0.23,-0.49 0.44,-0.98 0.63,-1.49 a 4.35,4.35 0 0 0 0.25,-0.63 c 0.14,-0.33 0.26,-0.67 0.38,-1.01 0.1,-0.25 0.18,-0.49 0.26,-0.75 0.14,-0.39 0.26,-0.79 0.37,-1.18 a 12.06,12.06 0 0 0 0.31,-1.14 c 0.05,-0.15 0.1,-0.29 0.12,-0.44 0.15,-0.54 0.27,-1.09 0.38,-1.65 a 3.88,3.88 0 0 0 0.07,-0.33 c 0.1,-0.44 0.18,-0.87 0.25,-1.32 0.05,-0.29 0.11,-0.57 0.14,-0.87 0.2,-1.28 0.33,-2.59 0.39,-3.9 0.04,-0.71 0.05,-1.42 0.05,-2.12 0.01,-0.58 0,-1.2 -0.03,-1.8 z m -25.59,24.59 c -1.16,0.8 -2.37,1.52 -3.65,2.12 a 15.33,15.33 0 0 1 -1.23,0.56 26.13,26.13 0 0 1 -2.34,0.87 l -0.41,0.12 c -0.71,0.22 -1.43,0.41 -2.17,0.56 -0.12,0.03 -0.26,0.05 -0.38,0.08 -0.42,0.08 -0.86,0.16 -1.31,0.23 -0.44,0.07 -0.87,0.12 -1.32,0.16 -0.46,0.05 -0.93,0.08 -1.4,0.11 a 22.02,22.02 0 0 1 -1.42,0.04 c -15.23,0 -27.62,-12.39 -27.62,-27.64 0,-0.79 0.03,-1.58 0.11,-2.36 0.01,-0.19 0.03,-0.37 0.04,-0.54 a 27.31,27.31 0 0 1 0.41,-2.61 c 0.03,-0.14 0.05,-0.29 0.1,-0.42 a 19.94,19.94 0 0 1 0.52,-2.02 c 0.03,-0.1 0.07,-0.2 0.1,-0.3 0.03,-0.11 0.05,-0.2 0.1,-0.3 0.12,-0.37 0.25,-0.72 0.38,-1.09 0.26,-0.69 0.54,-1.38 0.86,-2.04 0.19,-0.42 0.4,-0.83 0.61,-1.23 0.15,-0.29 0.31,-0.57 0.48,-0.86 a 10.92,10.92 0 0 1 0.71,-1.14 c 0.19,-0.31 0.4,-0.61 0.61,-0.91 a 16.24,16.24 0 0 1 1.08,-1.43 c 0.1,-0.11 0.19,-0.22 0.27,-0.34 0.35,-0.41 0.71,-0.82 1.08,-1.21 0.03,-0.03 0.04,-0.04 0.05,-0.07 a 30.63,30.63 0 0 1 1.14,-1.14 l 0.04,-0.04 c 0.26,-0.27 0.53,-0.52 0.82,-0.74 0.15,-0.14 0.3,-0.26 0.45,-0.4 a 9.24,9.24 0 0 1 0.65,-0.52 17.09,17.09 0 0 1 0.67,-0.52 c 0.22,-0.18 0.45,-0.34 0.68,-0.49 0.19,-0.14 0.38,-0.26 0.57,-0.38 0.05,-0.04 0.11,-0.07 0.15,-0.1 0.14,-0.1 0.29,-0.18 0.42,-0.27 l 0.82,-0.49 c 0.03,-0.03 0.05,-0.04 0.08,-0.05 0.05,-0.03 0.1,-0.05 0.14,-0.08 0.04,-0.01 0.07,-0.04 0.11,-0.05 0.12,-0.07 0.26,-0.14 0.38,-0.2 0.1,-0.05 0.18,-0.1 0.26,-0.14 0.26,-0.14 0.53,-0.27 0.79,-0.41 0.29,-0.14 0.59,-0.26 0.87,-0.4 0.23,-0.11 0.46,-0.2 0.69,-0.3 l 0.75,-0.29 c 0.01,0 0.04,-0.01 0.05,-0.01 0.04,-0.01 0.07,-0.03 0.11,-0.05 0.1,-0.04 0.19,-0.07 0.3,-0.1 l 0.26,-0.1 a 3.32,3.32 0 0 1 0.29,-0.1 3.32,3.32 0 0 1 0.29,-0.1 c 0.07,-0.03 0.14,-0.05 0.22,-0.07 0.46,-0.14 0.91,-0.27 1.38,-0.38 0.04,-0.01 0.1,-0.03 0.15,-0.04 0.15,-0.04 0.3,-0.08 0.45,-0.11 0.16,-0.04 0.34,-0.08 0.5,-0.11 l 0.2,-0.04 c 0.03,-0.01 0.05,-0.01 0.07,-0.01 0.3,-0.07 0.6,-0.12 0.9,-0.16 0.2,-0.04 0.42,-0.07 0.63,-0.1 0.05,-0.01 0.11,-0.01 0.18,-0.03 0.07,-0.01 0.12,-0.01 0.18,-0.03 0.12,-0.01 0.25,-0.03 0.37,-0.04 0.14,-0.01 0.27,-0.03 0.41,-0.04 0.1,-0.01 0.2,-0.03 0.3,-0.03 a 32.03,32.03 0 0 1 1.01,-0.07 h 0.01 c 0.46,-0.03 0.93,-0.04 1.4,-0.04 15.24,0 27.64,12.39 27.64,27.62 0,0.48 -0.01,0.95 -0.04,1.42 a 2.31,2.31 0 0 1 -0.03,0.37 c 0.01,0.01 0.01,0.01 0,0.03 0.01,0.03 0.01,0.03 0,0.04 -0.01,0.33 -0.04,0.65 -0.08,0.97 -0.01,0.14 -0.03,0.26 -0.04,0.38 -0.01,0.14 -0.03,0.27 -0.05,0.4 -0.03,0.3 -0.07,0.59 -0.12,0.87 a 0.4,0.4 0 0 1 -0.03,0.15 c -0.01,0.12 -0.04,0.26 -0.07,0.38 -0.05,0.33 -0.12,0.64 -0.19,0.95 0,0.04 -0.01,0.08 -0.03,0.12 a 15.87,15.87 0 0 1 -0.29,1.14 c -0.01,0.07 -0.03,0.12 -0.04,0.18 a 3.5,3.5 0 0 1 -0.14,0.46 c -0.01,0.08 -0.04,0.15 -0.07,0.23 -0.07,0.23 -0.15,0.45 -0.22,0.68 a 17.08,17.08 0 0 1 -0.5,1.36 c -0.01,0.03 -0.03,0.05 -0.03,0.08 -0.07,0.18 -0.14,0.35 -0.22,0.53 a 2.48,2.48 0 0 1 -0.2,0.44 5.79,5.79 0 0 1 -0.23,0.5 c -0.12,0.29 -0.27,0.56 -0.41,0.84 -0.04,0.08 -0.08,0.15 -0.12,0.23 -0.1,0.22 -0.2,0.42 -0.33,0.63 -0.11,0.2 -0.23,0.42 -0.37,0.63 a 48.74,48.74 0 0 1 -0.76,1.2 c -0.05,0.1 -0.12,0.2 -0.18,0.3 -0.2,0.3 -0.41,0.59 -0.64,0.87 -0.08,0.15 -0.19,0.3 -0.31,0.44 a 0.64,0.64 0 0 1 -0.16,0.2 c -0.12,0.16 -0.25,0.33 -0.41,0.49 -0.19,0.26 -0.41,0.52 -0.64,0.78 -0.19,0.22 -0.39,0.44 -0.6,0.65 -0.39,0.44 -0.83,0.86 -1.27,1.25 -0.34,0.33 -0.69,0.64 -1.05,0.94 -0.25,0.2 -0.49,0.41 -0.75,0.6 -0.27,0.22 -0.56,0.44 -0.84,0.64 a 4.94,4.94 0 0 1 -0.58,0.44 z m 363.65,61.49 c -9.65,0 -19.02,-3.4 -26.4,-9.57 l 8.73,-10.45 c 4.94,4.13 11.21,6.4 17.67,6.4 15.24,0 27.64,-12.4 27.64,-27.64 0,-15.23 -12.4,-27.62 -27.64,-27.62 -3.8,0 -7.48,0.76 -10.91,2.24 l -5.41,-12.5 c 5.16,-2.23 10.65,-3.37 16.33,-3.37 22.75,0 41.26,18.5 41.26,41.24 -0.01,22.76 -18.52,41.27 -41.27,41.27 z M 248.09,532.75 c -3,-15.17 -11.01,-28.47 -22.56,-37.44 -11.99,-9.3 -26.3,-12.91 -40.32,-10.15 -14.02,2.78 -25.89,11.55 -33.44,24.72 -7.26,12.69 -9.62,28.03 -6.62,43.19 3,15.16 11.01,28.47 22.56,37.44 9.34,7.26 20.12,11.05 31.05,11.05 a 47.65,47.65 0 0 0 9.26,-0.91 c 14.02,-2.76 25.89,-11.54 33.42,-24.71 7.29,-12.7 9.65,-28.03 6.65,-43.19 z m -24.37,33.04 c -0.5,0.89 -1.05,1.73 -1.61,2.55 a 7.58,7.58 0 0 0 -0.35,0.5 27.19,27.19 0 0 1 -1.81,2.29 c -0.12,0.15 -0.26,0.3 -0.39,0.45 -0.49,0.56 -0.99,1.08 -1.51,1.58 -0.19,0.19 -0.38,0.38 -0.59,0.56 -0.64,0.6 -1.32,1.17 -2,1.69 a 5.25,5.25 0 0 1 -0.49,0.37 c -0.75,0.56 -1.53,1.06 -2.32,1.54 a 19.97,19.97 0 0 1 -1.35,0.75 c -0.44,0.23 -0.9,0.45 -1.36,0.67 -0.34,0.15 -0.69,0.3 -1.05,0.44 l -0.54,0.22 c -0.03,0.01 -0.07,0.03 -0.1,0.04 a 14.07,14.07 0 0 1 -0.98,0.33 c -0.1,0.04 -0.19,0.08 -0.29,0.1 -0.18,0.07 -0.37,0.14 -0.56,0.18 -0.04,0.01 -0.08,0.03 -0.12,0.03 -0.33,0.1 -0.64,0.19 -0.97,0.27 -0.42,0.11 -0.84,0.2 -1.27,0.29 -8.12,1.61 -16.59,-0.61 -23.82,-6.24 -7.67,-5.95 -13.01,-14.93 -15.05,-25.25 -2.04,-10.34 -0.5,-20.66 4.32,-29.09 0.29,-0.49 0.57,-0.98 0.89,-1.46 0.14,-0.22 0.27,-0.42 0.42,-0.63 0.37,-0.57 0.76,-1.13 1.17,-1.66 l 0.34,-0.45 c 0.04,-0.03 0.07,-0.05 0.1,-0.1 0.05,-0.08 0.12,-0.15 0.18,-0.23 0.1,-0.12 0.19,-0.25 0.3,-0.35 0.07,-0.1 0.15,-0.19 0.23,-0.29 v -0.01 c 0.01,-0.01 0.03,-0.04 0.04,-0.05 h 0.01 c 0.12,-0.15 0.25,-0.29 0.37,-0.42 0.27,-0.31 0.54,-0.61 0.83,-0.9 l 0.18,-0.18 c 0.34,-0.35 0.68,-0.69 1.02,-1.02 a 29.32,29.32 0 0 1 1.07,-0.95 c 0.05,-0.05 0.11,-0.1 0.16,-0.14 a 6.45,6.45 0 0 0 0.29,-0.25 c 0.1,-0.09 0.19,-0.16 0.3,-0.23 0.12,-0.1 0.25,-0.19 0.37,-0.29 0.07,-0.07 0.15,-0.12 0.22,-0.19 0.2,-0.15 0.41,-0.31 0.63,-0.44 a 5.72,5.72 0 0 1 0.3,-0.22 c 0.19,-0.12 0.37,-0.26 0.56,-0.38 0.08,-0.05 0.16,-0.11 0.25,-0.15 a 2.69,2.69 0 0 1 0.22,-0.14 c 0.07,-0.05 0.15,-0.11 0.23,-0.15 0.08,-0.05 0.15,-0.11 0.23,-0.15 0,0 0.01,-0.01 0.03,-0.01 0.03,-0.01 0.04,-0.03 0.07,-0.04 0.07,-0.04 0.14,-0.08 0.2,-0.12 a 24.51,24.51 0 0 1 0.69,-0.4 c 0.08,-0.04 0.18,-0.1 0.27,-0.15 0.2,-0.11 0.42,-0.22 0.63,-0.31 a 8.52,8.52 0 0 1 0.68,-0.33 c 0.01,-0.01 0.03,-0.03 0.04,-0.03 0.16,-0.08 0.33,-0.15 0.49,-0.22 0.11,-0.05 0.2,-0.11 0.3,-0.14 0.2,-0.1 0.41,-0.18 0.61,-0.24 0.04,-0.03 0.08,-0.04 0.12,-0.05 0.12,-0.05 0.26,-0.11 0.39,-0.15 0.15,-0.07 0.3,-0.12 0.45,-0.16 0.22,-0.1 0.45,-0.16 0.67,-0.23 0.14,-0.05 0.26,-0.1 0.39,-0.12 0.01,-0.01 0.03,-0.01 0.05,-0.01 0.29,-0.11 0.59,-0.19 0.87,-0.26 0.14,-0.04 0.27,-0.08 0.41,-0.11 0.15,-0.04 0.3,-0.08 0.45,-0.11 0.31,-0.08 0.61,-0.14 0.93,-0.2 1.73,-0.34 3.47,-0.5 5.22,-0.5 6.46,0 12.91,2.32 18.61,6.74 7.67,5.95 13.01,14.93 15.05,25.25 2.04,10.31 0.5,20.63 -4.32,29.06 z"
     id="path2"
     style="fill:#24242b" />
  <path
     d="m 129.1,536.51 49.03,118.54 H 163.4 l -45.44,-109.84 -3.2,-7.72 12.58,-5.22 z m 347.43,-69.39 c -0.6,7.37 -2.03,23.44 -4.37,43.84 l -1.7,14.23 -0.64,5.02 -1.09,8.31 -0.44,3.23 -0.82,5.82 -1.21,8.32 -1.99,12.86 -0.75,4.59 -0.31,1.89 v 0.03 l -1.36,7.93 -1.12,6.17 -0.49,2.66 c -4.26,22.75 -9.43,44.89 -15.55,63.02 h -14.42 c 1.04,-2.85 2.04,-5.84 3.02,-8.95 l 0.98,-3.17 c 0.22,-0.67 0.42,-1.35 0.61,-2.03 l 0.6,-2.06 c 1.58,-5.45 3.08,-11.18 4.51,-17.12 l 1.12,-4.74 0.44,-1.89 0.76,-3.41 0.46,-2.1 1.2,-5.64 0.54,-2.67 0.71,-3.51 c 0.16,-0.89 0.34,-1.76 0.52,-2.64 l 2.97,-16.21 0.67,-3.88 1.28,-7.76 0.93,-5.8 1.44,-9.57 0.56,-3.79 c 0,-0.01 0,-0.04 0.01,-0.07 l 0.49,-3.46 3.06,-23.21 0.19,-1.57 0.57,-4.64 a 38.82,38.82 0 0 1 0.18,-1.51 40.76,40.76 0 0 1 0.18,-1.5 l 0.31,-2.72 c 0.01,-0.08 0.01,-0.15 0.03,-0.23 l 0.48,-4.24 c 0.01,-0.07 0.03,-0.14 0.03,-0.22 l 0.5,-4.49 1.72,-16.49 0.2,-2.07 0.26,-2.71 0.19,-1.98 0.3,-3.23 a 7.87,7.87 0 0 1 0.07,-0.73 l 0.1,-1.14 c 0.03,-0.24 0.04,-0.49 0.07,-0.72 0.03,-0.25 0.04,-0.48 0.07,-0.71 l 0.2,-2.41 c -65.41,-24.37 -173.21,-21.03 -174.3,-21 l -0.14,0.01 h -0.14 l -1.7,-0.01 c -4.22,0 -8.47,0.07 -12.71,0.22 l -6.35,0.26 a 475.97,475.97 0 0 0 -19.79,1.4 l -3.98,0.38 a 548.93,548.93 0 0 0 -26.22,3.26 l -3.85,0.59 -4.79,0.76 c -18.99,3.08 -36.18,6.76 -49.92,10.05 l -2.06,0.49 -3.95,0.97 -5.49,1.39 -17.13,4.69 h -0.01 l 0.49,4.29 0.95,8.54 0.01,0.01 v 0.01 l 0.2,1.85 -13.54,1.52 -1.8,-15.99 -0.11,-0.99 a 10.9,10.9 0 0 1 7.71,-11.66 c 11.81,-3.53 64.33,-18.46 122.82,-23.77 l 13.62,-1.05 3.62,-0.2 6.07,-0.3 9.38,-0.27 c 0.93,-0.03 1.87,-0.04 2.79,-0.04 l 4.02,-0.03 1.65,0.01 c 0.33,-0.01 0.94,-0.04 1.83,-0.05 l 5.69,-0.11 4.86,-0.04 3.08,-0.01 13.62,0.11 c 38.1,0.64 105.23,4.55 152.39,22.75 4.47,1.69 7.31,6.24 6.91,11.03 z m -46.69,26.01 c -4.18,-5.09 -10.37,-8.13 -16.96,-8.35 l -113.7,-3.71 a 22.91,22.91 0 0 0 -17.62,7.4 c -4.52,4.92 -6.67,11.54 -5.9,18.17 l 13.74,117.91 c 1.35,11.56 11.14,20.28 22.79,20.28 h 81.27 c 11.29,0 20.81,-8.09 22.64,-19.23 l 18.66,-114.21 c 1.07,-6.51 -0.72,-13.16 -4.92,-18.26 z m -2.95,14.57 c 0,0.79 -0.05,1.58 -0.19,2.37 l -18.66,114.21 c -0.04,0.23 -0.08,0.45 -0.14,0.67 -0.01,0.03 -0.01,0.07 -0.01,0.1 a 1.37,1.37 0 0 1 -0.08,0.35 c -0.03,0.07 -0.04,0.14 -0.05,0.2 a 0.4,0.4 0 0 1 -0.03,0.15 l -0.15,0.49 c -0.03,0.1 -0.05,0.19 -0.1,0.29 -0.03,0.07 -0.04,0.14 -0.07,0.2 a 0.88,0.88 0 0 1 -0.05,0.15 c -0.03,0.12 -0.07,0.24 -0.12,0.35 -0.03,0.08 -0.07,0.18 -0.11,0.26 -0.04,0.15 -0.11,0.29 -0.18,0.44 -0.03,0.05 -0.05,0.11 -0.08,0.16 l -0.29,0.59 -0.3,0.57 h -0.01 c -0.08,0.15 -0.16,0.3 -0.26,0.44 a 0.49,0.49 0 0 1 -0.07,0.11 c -0.18,0.29 -0.37,0.57 -0.59,0.86 -0.01,0.03 -0.03,0.04 -0.04,0.07 -0.1,0.12 -0.19,0.25 -0.29,0.35 a 8.06,8.06 0 0 1 -0.52,0.64 1.2,1.2 0 0 0 -0.11,0.12 c -0.11,0.11 -0.22,0.23 -0.34,0.34 0,0 0,0.01 -0.01,0.03 a 7,7 0 0 1 -0.48,0.46 c 0,0 -0.01,0.01 -0.03,0.01 -0.01,0.03 -0.03,0.04 -0.04,0.05 a 4.81,4.81 0 0 1 -0.48,0.42 c 0,0 -0.01,0 -0.03,0.01 a 7.68,7.68 0 0 1 -0.63,0.5 c -0.05,0.05 -0.11,0.1 -0.16,0.14 -0.07,0.04 -0.12,0.08 -0.18,0.14 -0.07,0.04 -0.12,0.08 -0.19,0.11 -0.05,0.05 -0.11,0.1 -0.16,0.12 -0.22,0.15 -0.44,0.29 -0.65,0.41 a 9.06,9.06 0 0 1 -0.68,0.38 c -0.2,0.11 -0.42,0.22 -0.63,0.31 -0.26,0.12 -0.53,0.23 -0.8,0.34 a 11.5,11.5 0 0 1 -1.66,0.54 c -0.29,0.08 -0.57,0.15 -0.87,0.2 -0.15,0.03 -0.3,0.05 -0.45,0.08 l -0.82,0.11 c -0.27,0.03 -0.56,0.05 -0.83,0.07 -0.27,0.01 -0.54,0.03 -0.82,0.03 h -81.27 c -7.49,0 -13.8,-5.61 -14.67,-13.05 L 283.77,505.68 c -0.07,-0.57 -0.1,-1.16 -0.1,-1.73 0,-0.27 0.01,-0.53 0.03,-0.79 0.01,-0.42 0.05,-0.84 0.12,-1.27 0.01,-0.2 0.05,-0.4 0.1,-0.6 a 1.82,1.82 0 0 1 0.1,-0.45 5.05,5.05 0 0 1 0.12,-0.53 10.17,10.17 0 0 1 0.3,-1.04 l 0.34,-0.89 c 0,-0.04 0.01,-0.08 0.04,-0.12 l 0.12,-0.29 c 0.04,-0.11 0.1,-0.22 0.15,-0.33 0.02,-0.05 0.04,-0.09 0.06,-0.13 0.1,-0.23 0.22,-0.45 0.34,-0.67 0.03,-0.05 0.07,-0.12 0.11,-0.18 0.08,-0.16 0.18,-0.31 0.27,-0.48 0.04,-0.08 0.1,-0.16 0.16,-0.25 0.05,-0.08 0.09,-0.15 0.15,-0.21 0.03,-0.04 0.05,-0.08 0.08,-0.12 0.01,-0.03 0.01,-0.04 0.03,-0.05 0.12,-0.18 0.25,-0.34 0.37,-0.5 v -0.01 c 0.01,-0.01 0.01,-0.01 0.03,-0.01 0,-0.01 0.01,-0.04 0.04,-0.05 0.04,-0.05 0.07,-0.1 0.11,-0.14 0.04,-0.07 0.1,-0.12 0.14,-0.18 0,-0.01 0.01,-0.04 0.04,-0.05 0.05,-0.07 0.11,-0.14 0.16,-0.2 0.05,-0.07 0.11,-0.14 0.18,-0.2 a 1.74,1.74 0 0 1 0.12,-0.14 l 0.08,-0.08 c 0.18,-0.19 0.35,-0.38 0.54,-0.56 a 10.85,10.85 0 0 1 0.95,-0.86 1.3,1.3 0 0 1 0.18,-0.15 c 0.2,-0.16 0.41,-0.31 0.61,-0.46 a 16.31,16.31 0 0 1 1.36,-0.86 4.25,4.25 0 0 1 0.6,-0.31 10.25,10.25 0 0 1 1.39,-0.61 c 0.19,-0.08 0.4,-0.15 0.59,-0.22 l 0.86,-0.25 c 0.25,-0.07 0.49,-0.12 0.74,-0.18 l 0.75,-0.14 c 0.25,-0.04 0.5,-0.07 0.75,-0.1 a 15.56,15.56 0 0 1 1.54,-0.08 h 0.48 l 113.7,3.72 c 4.24,0.14 8.23,2.1 10.92,5.37 a 25.03,25.03 0 0 1 0.78,1.02 12.22,12.22 0 0 1 0.44,0.71 c 0.04,0.04 0.05,0.08 0.07,0.12 0.03,0 0.03,0.01 0.01,0.03 0.1,0.15 0.19,0.31 0.27,0.48 0.15,0.25 0.27,0.49 0.38,0.74 a 7.77,7.77 0 0 1 0.26,0.6 c 0.1,0.2 0.18,0.42 0.25,0.63 a 22.96,22.96 0 0 1 0.33,0.99 c 0.05,0.19 0.11,0.38 0.15,0.57 0.08,0.33 0.15,0.65 0.2,0.97 0.07,0.41 0.12,0.83 0.16,1.25 a 13.06,13.06 0 0 1 0.05,1.25 c 0.02,0.03 0.02,0.04 0.02,0.04 z"
     id="path4"
     style="fill:#24242b" />
  <path
     d="m 247,385.49 h 13.62 v 55.92 H 247 Z m 56.63,0.57 h 13.62 v 54.01 h -13.62 z"
     id="path6"
     style="fill:#24242b" />
  <path
     d="m 282.35,393.64 -0.25,-0.01 -198,-9.18 A 33.98,33.98 0 0 1 55.73,366.4 c -2.54,-4.83 -3.88,-10.27 -3.88,-15.73 v -45.6 h 13.62 v 45.6 c 0,3.31 0.78,6.47 2.31,9.39 3.33,6.32 9.82,10.45 16.95,10.79 l 197.75,9.17 180.13,-4.91 c 11.02,-0.31 19.65,-9.18 19.65,-20.19 V 145.1 l 0.06,-0.44 c 0.03,-0.34 0.94,-11.06 -10.87,-24.94 C 452.71,97.7 404.16,69.83 279.3,62.07 275.7,61.99 192.5,60.58 126.27,83.49 60.22,106.34 65.37,155.92 65.43,156.41 l 0.05,0.81 v 6.65 H 51.86 v -6.32 c -0.25,-2.79 -1.05,-16.96 6.25,-33.79 7.25,-16.7 24.18,-39.47 63.71,-53.15 C 191.57,46.48 276.2,48.36 279.77,48.44 l 0.25,0.01 c 131.02,8.13 182.5,38.96 202.62,63.39 13.82,16.78 13.53,30.82 13.25,34.04 v 209.01 c 0,18.44 -14.45,33.29 -32.89,33.8 z"
     id="path8"
     style="fill:#24242b" />
  <path
     d="m 120.49,231.78 -0.03,-0.7 -0.08,-2.07 -0.04,-0.6 -0.15,-2.14 -0.11,-1.2 -0.18,-1.72 -0.1,-0.84 -0.11,-0.84 -0.25,-1.8 -0.38,-2.34 -0.42,-2.27 c 0,-0.01 0,-0.04 -0.01,-0.05 l -0.14,-0.65 -0.52,-2.38 -1.39,-5.22 -0.8,-2.6 -1.78,-4.89 -2.06,-4.75 -1.12,-2.3 -1.18,-2.25 -1.1,-1.99 c -0.05,-0.07 -0.1,-0.14 -0.12,-0.2 l -1.23,-2.02 -0.08,-0.11 -2.75,-4.07 -1.46,-1.95 -1.93,-2.37 -2.41,-2.71 -0.33,-0.34 -0.76,-0.8 -0.72,-0.71 c -0.07,-0.05 -0.12,-0.11 -0.18,-0.16 l -0.29,-0.29 -1.17,-1.1 c -0.04,-0.03 -0.08,-0.07 -0.12,-0.1 a 1.2,1.2 0 0 1 -0.12,-0.11 l -0.23,-0.2 -1.5,-1.31 -1.33,-1.08 -0.94,-0.74 -0.54,-0.41 c -0.26,-0.22 -0.53,-0.41 -0.8,-0.6 -0.23,-0.18 -0.47,-0.33 -0.69,-0.48 l -1.15,-0.8 h -0.03 l -0.35,-0.23 -1.53,-0.97 h -0.03 c 0,0 0,-0.03 -0.01,-0.03 -6.25,-3.76 -13.07,-6.18 -20.25,-6.96 -1.72,-0.2 -3.46,-0.3 -5.22,-0.3 -2.85,0 -5.65,0.26 -8.4,0.76 -4.43,0.79 -8.69,2.21 -12.76,4.17 H 39.1 C 16.27,173.01 0,201.34 0,234.46 c 0,39.05 22.61,71.43 51.88,76.68 a 46.95,46.95 0 0 0 8.4,0.76 c 1.76,0 3.5,-0.1 5.22,-0.3 l 1.81,-0.23 1.77,-0.3 h 0.03 c 10.12,-1.92 19.44,-7.08 27.28,-14.64 l 0.02,-0.01 1.05,-1.05 c 0.03,-0.01 0.04,-0.03 0.07,-0.05 0.08,-0.08 0.16,-0.16 0.23,-0.25 l 0.49,-0.5 c 0.01,-0.01 0.03,-0.04 0.04,-0.05 0.01,-0.01 0.03,-0.03 0.03,-0.04 l 0.03,-0.03 c 0.01,-0.01 0.03,-0.04 0.04,-0.05 0.25,-0.23 0.48,-0.48 0.69,-0.72 l 0.12,-0.12 a 1.74,1.74 0 0 1 0.12,-0.14 c 0.29,-0.3 0.57,-0.61 0.84,-0.94 0.08,-0.08 0.15,-0.16 0.2,-0.25 a 4.36,4.36 0 0 0 0.41,-0.46 c 0.12,-0.15 0.25,-0.29 0.38,-0.45 l 1.47,-1.81 c 0.49,-0.61 0.95,-1.24 1.43,-1.88 0.12,-0.14 0.22,-0.29 0.33,-0.42 0.22,-0.3 0.44,-0.6 0.64,-0.91 0.01,-0.01 0.03,-0.04 0.03,-0.05 0.08,-0.12 0.18,-0.25 0.26,-0.37 0.44,-0.61 0.84,-1.24 1.25,-1.87 0.05,-0.08 0.11,-0.15 0.15,-0.22 0.25,-0.38 0.49,-0.76 0.72,-1.16 0.72,-1.14 1.4,-2.33 2.07,-3.53 0.39,-0.69 0.78,-1.42 1.14,-2.14 0.26,-0.5 0.52,-1.02 0.76,-1.54 0.61,-1.25 1.2,-2.53 1.74,-3.83 1.1,-2.59 2.11,-5.28 2.98,-8.04 0.18,-0.53 0.33,-1.06 0.49,-1.59 0.05,-0.16 0.1,-0.34 0.14,-0.5 l 0.75,-2.7 c 0.29,-1.08 0.53,-2.15 0.78,-3.26 0,-0.03 0.01,-0.04 0.01,-0.07 0.11,-0.48 0.2,-0.98 0.3,-1.46 0.12,-0.56 0.23,-1.12 0.33,-1.69 a 87.51,87.51 0 0 0 0.54,-3.24 l 0.22,-1.57 a 42.38,42.38 0 0 0 0.25,-1.97 c 0.07,-0.56 0.12,-1.13 0.18,-1.7 0.07,-0.72 0.12,-1.46 0.18,-2.19 l 0.08,-1.24 c 0.03,-0.4 0.05,-0.8 0.07,-1.2 0.03,-0.57 0.04,-1.13 0.05,-1.7 l 0.04,-1.27 0.01,-1.74 z m -13.96,10.8 c 0,0.08 -0.01,0.16 -0.03,0.24 -0.03,0.42 -0.07,0.84 -0.12,1.27 l -0.08,0.65 c -0.01,0.19 -0.04,0.38 -0.07,0.57 0,0.1 -0.01,0.18 -0.04,0.27 l -0.23,1.72 a 27.75,27.75 0 0 1 -0.25,1.55 l -0.2,1.13 a 24.18,24.18 0 0 1 -0.29,1.48 c -0.11,0.6 -0.25,1.2 -0.38,1.8 -0.11,0.52 -0.23,1.05 -0.37,1.57 0,0.03 -0.01,0.05 -0.01,0.08 -0.01,0.04 -0.03,0.08 -0.04,0.12 l -0.34,1.35 -0.46,1.62 c -0.03,0.11 -0.05,0.22 -0.08,0.31 -0.03,0.07 -0.04,0.14 -0.07,0.2 -0.37,1.23 -0.76,2.45 -1.18,3.64 -0.15,0.44 -0.31,0.87 -0.48,1.29 -0.01,0.04 -0.03,0.07 -0.03,0.1 l -0.53,1.36 -0.53,1.29 c -0.18,0.45 -0.37,0.89 -0.57,1.32 a 30.97,30.97 0 0 1 -0.6,1.31 c -0.45,0.97 -0.91,1.91 -1.4,2.82 -0.12,0.25 -0.25,0.49 -0.38,0.72 a 61.63,61.63 0 0 1 -1.53,2.66 c -0.23,0.4 -0.48,0.79 -0.72,1.17 l -1.27,1.92 c -0.07,0.1 -0.14,0.19 -0.19,0.29 l -0.56,0.78 -0.76,1.03 a 39.98,39.98 0 0 1 -0.95,1.23 c -0.05,0.08 -0.12,0.16 -0.18,0.23 -0.15,0.19 -0.29,0.35 -0.44,0.53 l -1.18,1.4 -0.34,0.38 c -0.17,0.2 -0.34,0.38 -0.51,0.55 l -1.06,1.12 c -0.76,0.79 -1.55,1.54 -2.37,2.26 -0.2,0.19 -0.41,0.37 -0.63,0.54 a 6.53,6.53 0 0 1 -0.64,0.54 c -0.31,0.29 -0.64,0.55 -0.97,0.79 -0.33,0.26 -0.65,0.52 -0.99,0.75 a 18.87,18.87 0 0 1 -0.99,0.72 38.8,38.8 0 0 1 -6.28,3.64 c -0.31,0.15 -0.64,0.3 -0.97,0.44 -0.2,0.1 -0.41,0.18 -0.63,0.26 -0.45,0.19 -0.91,0.37 -1.38,0.53 -0.12,0.05 -0.23,0.1 -0.35,0.14 -0.25,0.08 -0.48,0.16 -0.72,0.25 -0.11,0.03 -0.22,0.07 -0.31,0.1 l -1.09,0.33 c -0.14,0.04 -0.3,0.1 -0.45,0.14 -0.05,0.01 -0.12,0.03 -0.19,0.04 a 22.1,22.1 0 0 1 -0.87,0.22 c -0.99,0.24 -2,0.44 -3.01,0.57 -0.46,0.07 -0.93,0.12 -1.39,0.18 -0.3,0.04 -0.6,0.07 -0.9,0.08 -0.3,0.03 -0.59,0.04 -0.89,0.05 a 27.04,27.04 0 0 1 -1.8,0.05 c -25.73,0 -46.66,-28.63 -46.66,-63.83 0,-0.87 0.01,-1.73 0.04,-2.59 0.01,-0.78 0.05,-1.55 0.1,-2.32 a 20.6,20.6 0 0 1 0.05,-0.83 c 0.03,-0.56 0.08,-1.1 0.12,-1.65 a 1.43,1.43 0 0 1 0.03,-0.29 c 0.05,-0.71 0.12,-1.43 0.22,-2.12 0.03,-0.27 0.05,-0.54 0.1,-0.83 0.08,-0.68 0.16,-1.36 0.27,-2.02 0.11,-0.82 0.25,-1.62 0.4,-2.44 0.14,-0.8 0.29,-1.61 0.46,-2.4 0.33,-1.59 0.69,-3.15 1.12,-4.67 l 0.56,-1.95 a 64.35,64.35 0 0 1 0.82,-2.57 51.52,51.52 0 0 1 0.78,-2.19 l 0.84,-2.14 c 0.27,-0.7 0.57,-1.39 0.87,-2.07 a 77.93,77.93 0 0 1 0.97,-2.07 c 0.33,-0.68 0.65,-1.33 1.01,-1.99 0.26,-0.5 0.53,-1.02 0.82,-1.51 0.01,-0.03 0.03,-0.05 0.04,-0.07 0.07,-0.11 0.14,-0.23 0.2,-0.35 0,-0.03 0.01,-0.04 0.03,-0.05 0.37,-0.67 0.76,-1.32 1.17,-1.98 a 31.22,31.22 0 0 1 1.06,-1.66 l 1.12,-1.65 a 25.53,25.53 0 0 1 0.69,-0.94 2.14,2.14 0 0 0 0.19,-0.26 c 0.14,-0.19 0.29,-0.38 0.42,-0.57 l 0.04,-0.04 c 0.1,-0.11 0.18,-0.22 0.26,-0.33 0.68,-0.87 1.36,-1.72 2.08,-2.52 l 0.72,-0.8 0.08,-0.08 c 0.07,-0.08 0.15,-0.18 0.23,-0.26 l 0.76,-0.8 c 0.34,-0.35 0.68,-0.71 1.04,-1.04 0.16,-0.16 0.34,-0.33 0.52,-0.49 0.05,-0.05 0.12,-0.12 0.19,-0.18 0.27,-0.26 0.54,-0.52 0.83,-0.76 0.04,-0.04 0.1,-0.08 0.15,-0.14 0.11,-0.1 0.2,-0.19 0.31,-0.27 a 15.02,15.02 0 0 1 0.97,-0.82 c 0.1,-0.08 0.18,-0.15 0.27,-0.23 0.23,-0.19 0.48,-0.38 0.71,-0.56 0.12,-0.1 0.25,-0.19 0.35,-0.27 l 0.31,-0.23 c 0.14,-0.11 0.29,-0.22 0.42,-0.33 a 27.53,27.53 0 0 1 1.42,-0.98 c 0.03,-0.03 0.07,-0.05 0.11,-0.08 0.07,-0.05 0.15,-0.11 0.23,-0.15 a 26.91,26.91 0 0 1 1.13,-0.72 c 0.01,-0.01 0.04,-0.03 0.05,-0.03 0.54,-0.34 1.09,-0.65 1.65,-0.95 0.15,-0.1 0.31,-0.18 0.46,-0.26 0.39,-0.22 0.75,-0.42 1.16,-0.61 l 0.05,-0.01 c 0.83,-0.41 1.63,-0.78 2.48,-1.09 h 0.01 l 0.01,-0.01 c 2.08,-0.84 4.22,-1.5 6.42,-1.92 0.53,-0.11 1.04,-0.2 1.57,-0.27 0.1,-0.01 0.19,-0.03 0.29,-0.04 0.37,-0.07 0.76,-0.11 1.13,-0.15 0.05,0 0.11,-0.01 0.16,-0.01 0.19,-0.03 0.37,-0.04 0.56,-0.05 a 30.1,30.1 0 0 1 3.02,-0.14 c 25.73,0 46.66,28.63 46.66,63.81 0,0.65 -0.01,1.31 -0.03,1.96 l -0.05,1.77 -0.04,0.78 a 34.52,34.52 0 0 1 -0.05,1.04 c -0.01,0.33 -0.04,0.64 -0.07,0.97 z m 383,74.83 -0.94,-13.59 c 22.46,-1.55 40.05,-26.02 40.05,-55.71 0,-29.68 -17.59,-54.15 -40.05,-55.7 l 0.94,-13.59 c 29.57,2.04 52.73,32.47 52.73,69.28 0,36.83 -23.16,67.27 -52.73,69.31 z"
     id="path10"
     style="fill:#24242b" />
  <path
     d="M 80.68,311.91 A 81.54,81.54 0 0 1 67.85,310.9 l 1.07,-6.68 -0.01,-6.85 h 0.56 l 0.54,0.09 a 67.4,67.4 0 0 0 10.68,0.84 c 37,0 67.09,-30.1 67.09,-67.09 0,-37 -30.1,-67.09 -67.09,-67.09 -11.7,0 -23.19,3.06 -33.3,8.85 l -1.35,1.39 -2.92,0.02 -0.05,-6.91 -4.77,-4.67 2,-2.05 h 1.06 c 11.99,-6.7 25.55,-10.23 39.34,-10.23 44.51,0 80.71,36.21 80.71,80.71 -0.02,44.47 -36.23,80.68 -80.73,80.68 z m 408.38,35.02 v 7.98 c 0,14.63 -11.65,26.59 -26.27,27 l -180.38,4.92 -198,-9.18 c -9.89,-0.46 -18.33,-6.2 -22.66,-14.42 l 103.53,-17.65 300.94,17.39 c 7.86,0.45 15.61,-2.94 20.08,-9.43 1.37,-2 2.42,-4.23 2.76,-6.61 z"
     id="path12"
     style="fill:#24242b" />
  <ellipse
     cx="282.26001"
     cy="204.7"
     rx="41.41"
     ry="43.540001"
     id="ellipse14"
     style="fill:#24242b" />
  <ellipse
     cx="418.46"
     cy="202.7"
     rx="41.41"
     ry="43.54"
     fill="#24242b"
     id="ellipse20"
     inkscape:export-filename="/home/mlissner/Documents/Work/FLP/design/logos/Bots/headshot-w500.png"
     inkscape:export-xdpi="74.029999"
     inkscape:export-ydpi="74.029999" />
  <path
     d="m 276.43094,279.01168 159.26,11.8 c 0.88277,0.0669 1.52751,0.86253 1.41,1.74 l -4.39,32.76 c -0.11,0.8 -0.82,1.38 -1.62,1.33 l -150.02,-9.56 c -0.73,-0.05 -1.33,-0.6 -1.43,-1.33 l -4.85,-35 c -0.13,-0.96 0.66,-1.81 1.64,-1.74 z M 324.91,60.3 311.75,56.78 c 0.78,-2.9 1.17,-5.9 1.17,-8.92 0,-18.88 -15.36,-34.24 -34.24,-34.24 -18.88,0 -34.24,15.36 -34.24,34.24 0,2.42 0.25,4.82 0.74,7.11 l -13.32,2.84 c -0.69,-3.22 -1.03,-6.57 -1.03,-9.95 C 230.83,21.47 252.3,0 278.69,0 c 26.39,0 47.86,21.47 47.86,47.86 -0.007,4.200067 -0.55875,8.381489 -1.64,12.44 z m 251.91,594.75 h -43.34 c -42.09,-19.25 -64.97,-49.96 -73.24,-63.02 -1.1,-1.73 -1.95,-3.13 -2.55,-4.18 v -0.01 c -0.6,-1.06 -0.95,-1.74 -1.06,-1.95 l 5.22,-2.68 6.89,-3.54 c 0.08,0.15 2.93,5.54 8.87,13.42 0.59,0.78 1.18,1.57 1.85,2.38 0.10014,0.13905 0.2035,0.27576 0.31,0.41 l 1.17,1.46 c 1.26706,1.56187 2.56058,3.1021 3.88,4.62 0.89324,1.03782 1.80674,2.05802 2.74,3.06 l 1.7,1.81 1.61,1.68 c 3.36,3.45 7.14,7.01 11.33,10.58 l 1.74,1.46 c 2.44918,2.04196 4.96731,3.99977 7.55,5.87 0.5835,0.43558 1.17357,0.8623 1.77,1.28 2.23,1.61 4.58,3.17 7.01,4.71 l 2.6,1.62 c 0.71,0.44 1.43,0.87 2.17,1.29 0.16,0.11 0.34,0.2 0.52,0.3 l 2.26,1.29 c 4.77,2.68 9.86,5.2 15.27,7.5 1.73,0.74 3.45,1.43 5.15,2.1 2.51507,0.97585 5.04888,1.90269 7.6,2.78 l 4.97,1.61 c 4.82,1.48 9.53,2.72 14.1,3.73 z m 53.46,-44.42 c -88.19,-4.2 -122.25,-52.91 -123.65,-54.99 l 11.27,-7.65 -5.63,3.83 5.62,-3.84 c 0.31,0.45 32.06,45.19 113.05,49.05 z"
     id="path24"
     style="fill:#24242b"
     sodipodi:nodetypes="cccccccccccsssccsscccccccccccccccccccccccccccccccccccccccc" />
  <path
     d="m 626.1,596.74 a 67.82,67.82 0 0 0 -4.3,13.33 l -0.93,5.37 -0.46,4.79 a 11.21,11.21 0 0 0 -0.05,0.83 l -0.1,3.58 a 57.07,57.07 0 0 0 0.03,1.85 l 0.04,0.87 c -0.01,0.05 -0.01,0.12 0,0.18 l 0.07,1.36 0.19,2.49 0.57,4.4 1.36,6.44 1.32,4.44 1.39,3.77 a 50.58,50.58 0 0 0 1.72,3.92 l 0.33,0.67 h 15.6 c -5.68,-8.76 -8.99,-19.2 -8.99,-30.4 0,-0.91 0.03,-1.84 0.07,-2.74 l 0.08,-1.36 c 0.1,-1.36 0.25,-2.7 0.44,-4.03 l 0.39,-2.3 a 12.13,12.13 0 0 1 0.16,-0.83 c 0.05,-0.3 0.12,-0.6 0.19,-0.9 l 0.22,-0.94 c 0.07,-0.29 0.14,-0.59 0.22,-0.87 0.08,-0.34 0.18,-0.67 0.27,-1.01 0.08,-0.3 0.16,-0.6 0.26,-0.9 a 41.2,41.2 0 0 1 0.45,-1.47 l 0.35,-1.03 0.31,-0.87 a 32.01,32.01 0 0 1 0.48,-1.25 7.44,7.44 0 0 0 0.2,-0.5 c 0.14,-0.34 0.27,-0.68 0.42,-1.01 1.57,-3.68 3.53,-7.14 5.82,-10.37 a 19.99,19.99 0 0 1 0.59,-0.78 c 0,-0.01 0.01,-0.01 0.01,-0.03 l 0.78,-1.02 c 0.04,-0.05 0.07,-0.11 0.12,-0.16 0.01,-0.03 0.04,-0.04 0.07,-0.07 0.01,-0.04 0.04,-0.07 0.05,-0.1 0.27,-0.35 0.56,-0.7 0.84,-1.05 0.04,-0.04 0.07,-0.08 0.11,-0.11 l 1.05,-1.23 c 0.05,-0.08 0.14,-0.16 0.2,-0.25 0.08,-0.1 0.16,-0.19 0.26,-0.29 l 0.12,-0.12 v -18.28 c -9.67,7.19 -17.42,16.82 -22.32,27.98 z m -522.48,-48.94 -1.83,2.14 h -0.01 C 73.56,583.72 75.37,634.62 77.09,652.82 l 0.23,2.23 H 63.63 l -0.35,-3.95 v -0.01 l -0.19,-2.7 -0.1,-1.61 -0.11,-2.29 -0.04,-0.93 -0.12,-4 -0.04,-2.87 v -4.28 l 0.08,-3.92 0.15,-3.75 c 0.03,-0.57 0.05,-1.16 0.1,-1.74 0.44,-7.79 1.36,-16.32 3.06,-25.09 a 60.46,60.46 0 0 1 0.42,-2.11 c 0.37,-1.82 0.79,-3.66 1.23,-5.5 a 86.02,86.02 0 0 1 0.74,-2.87 c 0.02,-0.06 0.03,-0.12 0.05,-0.19 l 0.65,-2.39 a 12.45,12.45 0 0 1 0.09,-0.31 l 0.84,-2.87 0.93,-2.89 c 0.31,-0.97 0.64,-1.92 0.98,-2.87 l 0.99,-2.7 c 0.01,-0.05 0.04,-0.12 0.07,-0.18 a 67.55,67.55 0 0 1 1.12,-2.86 l 0.37,-0.87 0.84,-1.96 c 0.3,-0.71 0.61,-1.42 0.94,-2.12 0.11,-0.24 0.22,-0.48 0.34,-0.71 l 1.35,-2.81 c 0.46,-0.93 0.94,-1.85 1.44,-2.78 0.1,-0.18 0.19,-0.37 0.3,-0.55 0.33,-0.61 0.65,-1.23 1.01,-1.82 l 0.29,-0.52 1.53,-2.57 c 0.54,-0.9 1.12,-1.8 1.69,-2.68 l 1.77,-2.63 h 0.01 v -0.01 c 2.25,-3.24 4.71,-6.39 7.41,-9.4 z M 68.91,513.64 c -0.12,0.12 -3.69,3.73 -8.88,9.92 v 0.01 l -1.16,1.39 -1.21,1.47 c -0.04,0.05 -0.08,0.12 -0.15,0.18 l -0.94,1.17 -0.46,0.59 -0.5,0.63 -0.9,1.16 c -2,2.57 -4.14,5.42 -6.32,8.47 l -2.15,3.08 -2.18,3.23 -1.48,2.29 -0.68,1.06 -1.09,1.72 -1.08,1.76 a 41.7,41.7 0 0 0 -0.95,1.59 c -0.76,1.25 -1.5,2.53 -2.23,3.83 -0.67,1.17 -1.32,2.37 -1.97,3.57 -1.05,1.96 -2.07,3.95 -3.06,5.98 l -0.79,1.62 c -1.63,3.46 -3.17,7.01 -4.56,10.64 l -0.74,1.98 a 62.43,62.43 0 0 0 -0.74,2.06 c 0,0.01 -0.01,0.03 -0.01,0.04 -0.25,0.69 -0.48,1.4 -0.71,2.11 a 113.77,113.77 0 0 0 -2.81,10.11 c -0.11,0.45 -0.2,0.91 -0.3,1.36 -0.42,1.95 -0.78,3.91 -1.06,5.87 l -0.3,2.17 c -1.1,8.83 -1.55,16.86 -1.55,24.08 l 0.03,2.94 a 161.21,161.21 0 0 0 0.37,8.59 l 0.22,2.64 c 0.07,0.86 0.15,1.7 0.25,2.53 l 0.16,1.47 c 0.04,0.41 0.1,0.83 0.15,1.23 0.03,0.25 0.05,0.48 0.1,0.72 a 29.68,29.68 0 0 0 0.18,1.36 l 0.34,2.25 0.35,2.15 c 0.03,0.14 0.04,0.27 0.07,0.41 H 6.4 C 4.32,642.12 3.31,624.67 6.01,603 11.8,556.66 48.53,515.38 57.44,505.97 l 1.89,-1.95 z"
     id="path26"
     style="fill:#24242b" />
  <path
     d="m 77.08,652.81 c -4.33,-1.12 -8.98,-1.72 -13.8,-1.73 h -0.01 c -0.1,0 -0.19,0 -0.27,0.01 l -0.72,0.01 c -0.44,0 -0.87,0 -1.31,0.03 -0.72,0.01 -1.46,0.05 -2.21,0.11 -0.27,0.01 -0.53,0.03 -0.8,0.05 -0.6,0.05 -1.21,0.11 -1.81,0.18 a 46.38,46.38 0 0 0 -2.33,0.3 c -0.64,0.1 -1.31,0.2 -1.96,0.33 -0.27,0.04 -0.54,0.1 -0.83,0.15 -0.33,0.05 -0.65,0.12 -0.99,0.2 -0.54,0.11 -1.1,0.23 -1.66,0.37 -1.31,0.3 -2.62,0.65 -3.92,1.05 -1.2,0.37 -2.37,0.75 -3.53,1.17 h 42.8 a 49.89,49.89 0 0 0 -6.65,-2.23 z"
     id="path28"
     style="fill:#24242b" />
  <path
     d="m 416.1,625.6 c -1.83,11.14 -11.35,19.23 -22.64,19.23 h -81.27 c -11.65,0 -21.44,-8.72 -22.79,-20.28 L 275.66,506.64 c -0.78,-6.63 1.38,-13.25 5.9,-18.17 4.52,-4.92 10.96,-7.61 17.62,-7.4 l 113.7,3.71 c 6.59,0.22 12.78,3.26 16.96,8.35 4.2,5.11 5.99,11.75 4.92,18.27 z"
     id="path1726" />
  <path
     d="m 241.46,575.94 c -7.53,13.17 -19.41,21.94 -33.42,24.71 a 47.65,47.65 0 0 1 -9.26,0.91 c -10.94,0 -21.71,-3.79 -31.05,-11.05 -11.55,-8.98 -19.56,-22.28 -22.56,-37.44 -3,-15.16 -0.64,-30.5 6.62,-43.19 7.55,-13.17 19.42,-21.94 33.44,-24.72 14.02,-2.76 28.33,0.84 40.32,10.15 11.55,8.98 19.56,22.27 22.56,37.44 2.98,15.16 0.62,30.49 -6.65,43.19 z"
     id="path1724" />
  <path
     d="m 180.25,574.38 c 7.24,5.62 15.7,7.84 23.82,6.23 8.12,-1.6 15.11,-6.87 19.66,-14.82 4.82,-8.42 6.36,-18.75 4.32,-29.09 -2.04,-10.33 -7.39,-19.3 -15.05,-25.26 -5.7,-4.43 -12.15,-6.74 -18.61,-6.74 a 26.98,26.98 0 0 0 -5.21,0.51 c -8.12,1.6 -15.11,6.87 -19.66,14.82 -4.82,8.42 -6.36,18.75 -4.32,29.09 2.03,10.33 7.38,19.3 15.05,25.26 z"
     id="path1720"
     style="fill:#ffffff;fill-opacity:1;stroke:#24242b;stroke-opacity:1;stroke-width:28.1;stroke-miterlimit:1.29999995;stroke-dasharray:none;paint-order:stroke markers fill" />
  <path
     d="m 297.52,623.61 c 0.87,7.44 7.17,13.05 14.66,13.05 h 81.28 c 7.27,0 13.4,-5.21 14.57,-12.38 l 18.67,-114.2 c 0.69,-4.19 -0.47,-8.48 -3.17,-11.76 a 14.78,14.78 0 0 0 -10.92,-5.38 l -113.69,-3.71 c -0.16,-0.01 -0.32,-0.01 -0.48,-0.01 -4.12,0 -8.06,1.72 -10.86,4.77 a 14.75,14.75 0 0 0 -3.8,11.7 z"
     id="path32"
     style="fill:#ffffff;fill-opacity:1;stroke:#24242b;stroke-opacity:1;stroke-width:9.3;stroke-miterlimit:4;stroke-dasharray:none;paint-order:stroke markers fill" />
  <g
     fill="#875336"
     id="g46"
     inkscape:export-filename="/home/mlissner/Documents/Work/FLP/design/logos/Bots/headshot-w500.png"
     inkscape:export-xdpi="74.029999"
     inkscape:export-ydpi="74.029999" />
  <path
     d="M477.81 593.08h-.19l3.87 4.91c10.33-2.21 19.23-8.3 25.11-16.67-7.44 7.26-17.59 11.76-28.79 11.76z"
     fill="#24242b"
     id="path50"
     inkscape:export-filename="/home/mlissner/Documents/Work/FLP/design/logos/Bots/headshot-w500.png"
     inkscape:export-xdpi="74.029999"
     inkscape:export-ydpi="74.029999" />
  <path
     d="M523.68 253.95c0 14.95-4.46 28.57-11.76 38.61 10.19-10.21 16.72-26.35 16.72-44.44 0-26.39-13.91-48.63-32.77-54.34v7.77c16.29 7.8 27.81 28.38 27.81 52.4zM60.03 523.57l-4.88 6.03c4.5 11.55 14.06 20.59 25.94 24.37-22.64 32.49-24.23 74.71-23.12 97.34 1.79-.15 3.56-.22 5.31-.22-1.59-20.56-1.9-67.56 22.77-102.96-11.96-3.81-21.55-12.92-26.02-24.56zm567.24 131.48h-7.45a68.87 68.87 0 0 1-4.52-24.56c0-5 .53-9.87 1.54-14.57-56.08-4.64-88.72-27.5-104.16-42.1l-.01-.01a43.5 43.5 0 0 0 1.97-3.46 60.13 60.13 0 0 0 .87-1.81c.15-.3.29-.61.41-.91.12-.31.26-.63.37-.94l1.44 1.39.76.71 1.61 1.46c.27.26.56.5.84.75l.87.76 2.67 2.25 2.1 1.68 1.81 1.39.67.5a54.06 54.06 0 0 0 1.58 1.14l1.69 1.21c2.66 1.87 5.53 3.75 8.64 5.61l1.39.82a160.03 160.03 0 0 0 4.59 2.59l2.32 1.23 2.45 1.25 1.24.61c1.62.79 3.28 1.57 5.01 2.34l3.23 1.4c.03.01.04.01.07.03l3.83 1.55c.37.14.74.29 1.1.44l1.84.68 2.74.99 1.96.68a92.67 92.67 0 0 0 1.99.67c1.33.44 2.71.87 4.09 1.28l2.06.61 3.23.9 3.3.86c1.48.38 2.98.73 4.49 1.08a85.23 85.23 0 0 0 2.3.5c1.93.42 3.91.82 5.92 1.17l6.16 1.05 1.91.27 5.67.75 2.63.29 2.4.24 2.93.26h.01v.01c-.38 1.76-.69 3.54-.94 5.35-.2 1.58-.37 3.17-.46 4.79a11.21 11.21 0 0 0-.05.83c-.07 1.19-.1 2.38-.1 3.58a57.07 57.07 0 0 0 .03 1.85c0 .29.01.57.04.87-.01.05-.01.12 0 .18.01.45.04.91.07 1.36.04.83.11 1.66.19 2.49a77.69 77.69 0 0 0 .57 4.4c.35 2.18.8 4.33 1.36 6.44.39 1.5.83 2.98 1.32 4.44.44 1.28.9 2.53 1.39 3.77a59.61 59.61 0 0 0 1.72 3.92c.08.25.19.47.3.69zm21.15-67.98v1.01l-3.62 3.41c0-.01.01-.01.01-.03l.97-1.25 1.01-1.25 1.05-1.23.58-.66zm-522.25-78.25c0-15.24-12.39-27.63-27.63-27.63-9.81 0-18.42 5.15-23.32 12.88 4.89-4.36 11.31-7.04 18.36-7.04 15.24 0 27.63 12.39 27.63 27.63 0 5.43-1.6 10.48-4.31 14.75 5.67-5.06 9.27-12.41 9.27-20.59zm21.6-277.63c0-35.29-27.4-64.29-62.03-66.88 4.18 2.52 8.1 5.64 11.69 9.27 26.37 9.04 45.38 34.05 45.38 63.45 0 15.17-5.07 29.17-13.6 40.42 11.49-12.04 18.56-28.34 18.56-46.26z"
     fill="#fff"
     id="path52"
     inkscape:export-filename="/home/mlissner/Documents/Work/FLP/design/logos/Bots/headshot-w500.png"
     inkscape:export-xdpi="74.029999"
     inkscape:export-ydpi="74.029999" />
  <path
     d="M69.08 311.07l-3.61.53v5.48c3.38.43 6.81.67 10.25.67 25.99 0 49.13-12.36 63.9-31.49-14.74 15.77-35.7 25.65-58.94 25.65-3.91 0-7.8-.29-11.6-.84z"
     fill="#24242b"
     id="path54"
     inkscape:export-filename="/home/mlissner/Documents/Work/FLP/design/logos/Bots/headshot-w500.png"
     inkscape:export-xdpi="74.029999"
     inkscape:export-ydpi="74.029999" />
  <path
     d="M462.79 468.04l-.2 2.41-.07.71-.07.72-.1 1.14-.07.73-.3 3.23-.19 1.98-.26 2.71-.2 2.07-1.72 16.49-.5 4.49a.78.78 0 0 1-.03.22l-.48 4.24c-.01.08-.01.15-.03.23l-.31 2.72-.18 1.5-.18 1.51-.57 4.64a41.99 41.99 0 0 1-.19 1.57l-3.06 23.21-.49 3.46c-.01.03-.01.05-.01.07l-.56 3.79-1.44 9.57-.93 5.8-1.28 7.76-.67 3.88-2.97 16.21-.52 2.64-.71 3.51-.54 2.67-1.2 5.64-.46 2.1-.76 3.41-.44 1.89-1.12 4.74c-1.43 5.94-2.93 11.67-4.51 17.12l-.6 2.06c-.19.68-.39 1.36-.61 2.03l-.98 3.17c-.98 3.11-1.99 6.1-3.02 8.95h-2.96c19.27-58.17 28.79-161.05 30.52-181.17-65.42-24.37-173.21-21.04-174.32-21h-1.97c-62.2 0-126.56 16.13-150.79 22.9l-.49-4.29h.01c3.73-1.09 9.59-2.74 17.13-4.69l5.49-1.39 3.95-.97 2.06-.49c13.74-3.3 30.93-6.97 49.92-10.05l4.79-.76 3.85-.59c8.49-1.25 17.27-2.37 26.22-3.26l3.98-.38c6.54-.6 13.16-1.08 19.79-1.4l6.35-.26c4.24-.15 8.49-.22 12.71-.22l1.7.01h.14l.14-.01c1.1 0 108.9-3.34 174.31 21.03zM39.64 180.18l1.42-.01 1.06-1.09c4.18-1.68 8.59-2.6 13.16-2.6 25.73 0 46.66 28.63 46.66 63.82 0 17.73-5.32 33.8-13.89 45.37 11.43-11.64 18.85-30.26 18.85-51.21 0-35.19-20.93-63.82-46.66-63.82-4.57 0-8.98.92-13.16 2.6l-1.06 1.09-1.42.01c-6.49 3.17-12.32 8.27-17.13 14.77 3.68-3.75 7.77-6.78 12.17-8.93zm81.66-90.86c66.23-22.91 149.43-21.5 153.03-21.42 124.86 7.76 173.41 35.64 192.15 57.65 11.81 13.87 10.9 24.6 10.87 24.94l-.06.44v209.81c0 .06-.01.12-.01.18 1.67-.75 3.26-1.68 4.7-2.81.16-1.05.27-2.11.27-3.21V145.1l.06-.44c.03-.34.94-11.06-10.87-24.94-18.74-22.02-67.29-49.89-192.15-57.65-3.6-.08-86.8-1.49-153.03 21.42-23.87 8.26-38.43 20-47.31 31.66 9.06-9.65 22.47-18.95 42.35-25.83zm152.42-69.86c17.85 0 32.54 13.73 34.1 31.18l4.93.47c.1-1.08.17-2.17.17-3.25 0-18.88-15.36-34.24-34.24-34.24-11.83 0-22.28 6.03-28.43 15.18 6.13-5.79 14.39-9.34 23.47-9.34z"
     fill="#fff"
     id="path56"
     inkscape:export-filename="/home/mlissner/Documents/Work/FLP/design/logos/Bots/headshot-w500.png"
     inkscape:export-xdpi="74.029999"
     inkscape:export-ydpi="74.029999" />
  <path
     d="M259.19 384.66c-.48 13.22-1.34 43.9 1.44 32.69 3.5-14.15 43-24.29 43-24.29l-1.26-8.39h-43.18z"
     fill="#24242b"
     id="path58"
     inkscape:export-filename="/home/mlissner/Documents/Work/FLP/design/logos/Bots/headshot-w500.png"
     inkscape:export-xdpi="74.029999"
     inkscape:export-ydpi="74.029999" />
  <circle
     cx="385.35"
     cy="529.41"
     r="4.03"
     id="circle62"
     inkscape:export-filename="/home/mlissner/Documents/Work/FLP/design/logos/Bots/headshot-w500.png"
     inkscape:export-xdpi="74.029999"
     inkscape:export-ydpi="74.029999" />
  <circle
     cx="378.54"
     cy="601.56"
     r="4.03"
     id="circle64"
     inkscape:export-filename="/home/mlissner/Documents/Work/FLP/design/logos/Bots/headshot-w500.png"
     inkscape:export-xdpi="74.029999"
     inkscape:export-ydpi="74.029999" />
  <text
     xml:space="preserve"
     style="font-size:79.019px;fill:#ffffff;stroke-width:1.85201"
     x="258.29895"
     y="233.70236"
     id="text1"><tspan
       sodipodi:role="line"
       id="tspan1"
       x="258.29895"
       y="233.70236"
       style="font-style:normal;font-variant:normal;font-weight:normal;font-stretch:normal;font-size:79.019px;font-family:'Helvetica CE 55 Roman';-inkscape-font-specification:'Helvetica CE 55 Roman, ';stroke-width:1.85201"
       dx="0 0">T </tspan></text>
  <text
     xml:space="preserve"
     style="font-style:normal;font-variant:normal;font-weight:normal;font-stretch:normal;font-size:71.7px;font-family:'Helvetica CE 55 Roman';-inkscape-font-specification:'Helvetica CE 55 Roman, ';fill:#ffffff;stroke-width:1.68046"
     x="395.89075"
     y="223.12025"
     id="text3"
     transform="scale(0.98119991,1.0191603)"><tspan
       sodipodi:role="line"
       id="tspan3"
       x="395.89075"
       y="223.12025"
       style="stroke-width:1.68046">M</tspan></text>
</svg>
