<svg xmlns="http://www.w3.org/2000/svg" xmlns:svg="http://www.w3.org/2000/svg" id="svg66" width="648.42" height="655.08" version="1.1"><g id="g16" fill="#24242b" transform="translate(10.857509,244.59708)"><path id="path2" d="m 139.75,507 -0.04,-0.75 -0.12,-1.53 c 0,-0.1 -0.01,-0.19 -0.04,-0.29 l -0.19,-1.59 c -0.01,-0.15 -0.04,-0.3 -0.07,-0.44 -0.2,-1.32 -0.46,-2.63 -0.8,-3.9 l -0.41,-1.47 -0.34,-1.08 -0.53,-1.53 -0.37,-0.94 -0.34,-0.84 -0.67,-1.47 -0.56,-1.13 -0.26,-0.49 c -0.12,-0.26 -0.27,-0.52 -0.41,-0.76 l -0.56,-0.95 -0.42,-0.71 c -0.59,-0.97 -1.23,-1.89 -1.91,-2.81 v -0.01 l -0.01,-0.01 c -3.94,-5.33 -9.11,-9.66 -15.12,-12.59 -5.45,-2.67 -11.56,-4.15 -18.03,-4.15 -21.78,0 -39.68,16.96 -41.15,38.37 -0.08,0.95 -0.11,1.91 -0.11,2.87 0,5.2 0.97,10.16 2.74,14.74 v 0.01 c 0.27,0.72 0.57,1.44 0.9,2.15 l 0.67,1.42 a 16.55,16.55 0 0 0 0.53,1.02 c 0.48,0.9 0.99,1.8 1.54,2.66 a 43.93,43.93 0 0 0 0.89,1.33 56.78,56.78 0 0 0 1.62,2.21 c 0.18,0.22 0.35,0.45 0.54,0.67 0.14,0.16 0.27,0.33 0.41,0.49 0.14,0.16 0.27,0.33 0.42,0.48 0.1,0.11 0.19,0.22 0.29,0.33 0.18,0.22 0.37,0.42 0.57,0.63 0.1,0.1 0.18,0.19 0.27,0.29 a 17.45,17.45 0 0 0 0.74,0.76 66.58,66.58 0 0 0 1.48,1.42 51.06,51.06 0 0 0 1.58,1.35 7.68,7.68 0 0 0 0.63,0.5 38.72,38.72 0 0 0 3.24,2.3 l 0.74,0.46 c 0.12,0.08 0.25,0.15 0.37,0.22 0.12,0.08 0.25,0.15 0.37,0.22 0.25,0.15 0.5,0.3 0.76,0.44 a 34.14,34.14 0 0 0 1.47,0.78 c 0.26,0.14 0.53,0.26 0.79,0.4 0.1,0.04 0.18,0.08 0.27,0.12 0.05,0.03 0.1,0.05 0.15,0.07 l 1.25,0.56 0.35,0.15 c 0.31,0.14 0.64,0.26 0.97,0.38 0.45,0.18 0.9,0.34 1.35,0.49 0.01,0.01 0.03,0.01 0.03,0.01 l 0.82,0.29 h 0.01 a 41.37,41.37 0 0 0 12.5,1.93 c 1.09,0 2.17,-0.04 3.23,-0.14 h 0.01 a 40.75,40.75 0 0 0 16.17,-4.73 41.28,41.28 0 0 0 11.14,-8.7 c 0.95,-1.05 1.85,-2.15 2.68,-3.31 0.31,-0.41 0.61,-0.84 0.91,-1.27 0.52,-0.76 1.01,-1.54 1.46,-2.33 0.18,-0.29 0.34,-0.59 0.5,-0.87 a 22.33,22.33 0 0 0 0.61,-1.19 1.24,1.24 0 0 0 0.16,-0.3 21.58,21.58 0 0 0 0.76,-1.61 c 0.23,-0.49 0.44,-0.98 0.63,-1.49 a 4.35,4.35 0 0 0 0.25,-0.63 c 0.14,-0.33 0.26,-0.67 0.38,-1.01 0.1,-0.25 0.18,-0.49 0.26,-0.75 0.14,-0.39 0.26,-0.79 0.37,-1.18 a 12.06,12.06 0 0 0 0.31,-1.14 c 0.05,-0.15 0.1,-0.29 0.12,-0.44 0.15,-0.54 0.27,-1.09 0.38,-1.65 a 3.88,3.88 0 0 0 0.07,-0.33 c 0.1,-0.44 0.18,-0.87 0.25,-1.32 0.05,-0.29 0.11,-0.57 0.14,-0.87 0.2,-1.28 0.33,-2.59 0.39,-3.9 0.04,-0.71 0.05,-1.42 0.05,-2.12 0.01,-0.58 0,-1.2 -0.03,-1.8 z m -25.59,24.59 c -1.16,0.8 -2.37,1.52 -3.65,2.12 a 15.33,15.33 0 0 1 -1.23,0.56 26.13,26.13 0 0 1 -2.34,0.87 l -0.41,0.12 c -0.71,0.22 -1.43,0.41 -2.17,0.56 -0.12,0.03 -0.26,0.05 -0.38,0.08 -0.42,0.08 -0.86,0.16 -1.31,0.23 -0.44,0.07 -0.87,0.12 -1.32,0.16 -0.46,0.05 -0.93,0.08 -1.4,0.11 a 22.02,22.02 0 0 1 -1.42,0.04 c -15.23,0 -27.62,-12.39 -27.62,-27.64 0,-0.79 0.03,-1.58 0.11,-2.36 0.01,-0.19 0.03,-0.37 0.04,-0.54 a 27.31,27.31 0 0 1 0.41,-2.61 c 0.03,-0.14 0.05,-0.29 0.1,-0.42 a 19.94,19.94 0 0 1 0.52,-2.02 c 0.03,-0.1 0.07,-0.2 0.1,-0.3 0.03,-0.11 0.05,-0.2 0.1,-0.3 0.12,-0.37 0.25,-0.72 0.38,-1.09 0.26,-0.69 0.54,-1.38 0.86,-2.04 0.19,-0.42 0.4,-0.83 0.61,-1.23 0.15,-0.29 0.31,-0.57 0.48,-0.86 a 10.92,10.92 0 0 1 0.71,-1.14 c 0.19,-0.31 0.4,-0.61 0.61,-0.91 a 16.24,16.24 0 0 1 1.08,-1.43 c 0.1,-0.11 0.19,-0.22 0.27,-0.34 0.35,-0.41 0.71,-0.82 1.08,-1.21 0.03,-0.03 0.04,-0.04 0.05,-0.07 a 30.63,30.63 0 0 1 1.14,-1.14 l 0.04,-0.04 c 0.26,-0.27 0.53,-0.52 0.82,-0.74 0.15,-0.14 0.3,-0.26 0.45,-0.4 a 9.24,9.24 0 0 1 0.65,-0.52 17.09,17.09 0 0 1 0.67,-0.52 c 0.22,-0.18 0.45,-0.34 0.68,-0.49 0.19,-0.14 0.38,-0.26 0.57,-0.38 0.05,-0.04 0.11,-0.07 0.15,-0.1 0.14,-0.1 0.29,-0.18 0.42,-0.27 l 0.82,-0.49 c 0.03,-0.03 0.05,-0.04 0.08,-0.05 0.05,-0.03 0.1,-0.05 0.14,-0.08 0.04,-0.01 0.07,-0.04 0.11,-0.05 0.12,-0.07 0.26,-0.14 0.38,-0.2 0.1,-0.05 0.18,-0.1 0.26,-0.14 0.26,-0.14 0.53,-0.27 0.79,-0.41 0.29,-0.14 0.59,-0.26 0.87,-0.4 0.23,-0.11 0.46,-0.2 0.69,-0.3 l 0.75,-0.29 c 0.01,0 0.04,-0.01 0.05,-0.01 0.04,-0.01 0.07,-0.03 0.11,-0.05 0.1,-0.04 0.19,-0.07 0.3,-0.1 l 0.26,-0.1 a 3.32,3.32 0 0 1 0.29,-0.1 3.32,3.32 0 0 1 0.29,-0.1 c 0.07,-0.03 0.14,-0.05 0.22,-0.07 0.46,-0.14 0.91,-0.27 1.38,-0.38 0.04,-0.01 0.1,-0.03 0.15,-0.04 0.15,-0.04 0.3,-0.08 0.45,-0.11 0.16,-0.04 0.34,-0.08 0.5,-0.11 l 0.2,-0.04 c 0.03,-0.01 0.05,-0.01 0.07,-0.01 0.3,-0.07 0.6,-0.12 0.9,-0.16 0.2,-0.04 0.42,-0.07 0.63,-0.1 0.05,-0.01 0.11,-0.01 0.18,-0.03 0.07,-0.01 0.12,-0.01 0.18,-0.03 0.12,-0.01 0.25,-0.03 0.37,-0.04 0.14,-0.01 0.27,-0.03 0.41,-0.04 0.1,-0.01 0.2,-0.03 0.3,-0.03 a 32.03,32.03 0 0 1 1.01,-0.07 h 0.01 c 0.46,-0.03 0.93,-0.04 1.4,-0.04 15.24,0 27.64,12.39 27.64,27.62 0,0.48 -0.01,0.95 -0.04,1.42 a 2.31,2.31 0 0 1 -0.03,0.37 c 0.01,0.01 0.01,0.01 0,0.03 0.01,0.03 0.01,0.03 0,0.04 -0.01,0.33 -0.04,0.65 -0.08,0.97 -0.01,0.14 -0.03,0.26 -0.04,0.38 -0.01,0.14 -0.03,0.27 -0.05,0.4 -0.03,0.3 -0.07,0.59 -0.12,0.87 a 0.4,0.4 0 0 1 -0.03,0.15 c -0.01,0.12 -0.04,0.26 -0.07,0.38 -0.05,0.33 -0.12,0.64 -0.19,0.95 0,0.04 -0.01,0.08 -0.03,0.12 a 15.87,15.87 0 0 1 -0.29,1.14 c -0.01,0.07 -0.03,0.12 -0.04,0.18 a 3.5,3.5 0 0 1 -0.14,0.46 c -0.01,0.08 -0.04,0.15 -0.07,0.23 -0.07,0.23 -0.15,0.45 -0.22,0.68 a 17.08,17.08 0 0 1 -0.5,1.36 c -0.01,0.03 -0.03,0.05 -0.03,0.08 -0.07,0.18 -0.14,0.35 -0.22,0.53 a 2.48,2.48 0 0 1 -0.2,0.44 5.79,5.79 0 0 1 -0.23,0.5 c -0.12,0.29 -0.27,0.56 -0.41,0.84 -0.04,0.08 -0.08,0.15 -0.12,0.23 -0.1,0.22 -0.2,0.42 -0.33,0.63 -0.11,0.2 -0.23,0.42 -0.37,0.63 a 48.74,48.74 0 0 1 -0.76,1.2 c -0.05,0.1 -0.12,0.2 -0.18,0.3 -0.2,0.3 -0.41,0.59 -0.64,0.87 -0.08,0.15 -0.19,0.3 -0.31,0.44 a 0.64,0.64 0 0 1 -0.16,0.2 c -0.12,0.16 -0.25,0.33 -0.41,0.49 -0.19,0.26 -0.41,0.52 -0.64,0.78 -0.19,0.22 -0.39,0.44 -0.6,0.65 -0.39,0.44 -0.83,0.86 -1.27,1.25 -0.34,0.33 -0.69,0.64 -1.05,0.94 -0.25,0.2 -0.49,0.41 -0.75,0.6 -0.27,0.22 -0.56,0.44 -0.84,0.64 a 4.94,4.94 0 0 1 -0.58,0.44 z m 363.65,61.49 c -9.65,0 -19.02,-3.4 -26.4,-9.57 l 8.73,-10.45 c 4.94,4.13 11.21,6.4 17.67,6.4 15.24,0 27.64,-12.4 27.64,-27.64 0,-15.23 -12.4,-27.62 -27.64,-27.62 -3.8,0 -7.48,0.76 -10.91,2.24 l -5.41,-12.5 c 5.16,-2.23 10.65,-3.37 16.33,-3.37 22.75,0 41.26,18.5 41.26,41.24 -0.01,22.76 -18.52,41.27 -41.27,41.27 z M 248.09,532.75 c -3,-15.17 -11.01,-28.47 -22.56,-37.44 -11.99,-9.3 -26.3,-12.91 -40.32,-10.15 -14.02,2.78 -25.89,11.55 -33.44,24.72 -7.26,12.69 -9.62,28.03 -6.62,43.19 3,15.16 11.01,28.47 22.56,37.44 9.34,7.26 20.12,11.05 31.05,11.05 a 47.65,47.65 0 0 0 9.26,-0.91 c 14.02,-2.76 25.89,-11.54 33.42,-24.71 7.29,-12.7 9.65,-28.03 6.65,-43.19 z m -24.37,33.04 c -0.5,0.89 -1.05,1.73 -1.61,2.55 a 7.58,7.58 0 0 0 -0.35,0.5 27.19,27.19 0 0 1 -1.81,2.29 c -0.12,0.15 -0.26,0.3 -0.39,0.45 -0.49,0.56 -0.99,1.08 -1.51,1.58 -0.19,0.19 -0.38,0.38 -0.59,0.56 -0.64,0.6 -1.32,1.17 -2,1.69 a 5.25,5.25 0 0 1 -0.49,0.37 c -0.75,0.56 -1.53,1.06 -2.32,1.54 a 19.97,19.97 0 0 1 -1.35,0.75 c -0.44,0.23 -0.9,0.45 -1.36,0.67 -0.34,0.15 -0.69,0.3 -1.05,0.44 l -0.54,0.22 c -0.03,0.01 -0.07,0.03 -0.1,0.04 a 14.07,14.07 0 0 1 -0.98,0.33 c -0.1,0.04 -0.19,0.08 -0.29,0.1 -0.18,0.07 -0.37,0.14 -0.56,0.18 -0.04,0.01 -0.08,0.03 -0.12,0.03 -0.33,0.1 -0.64,0.19 -0.97,0.27 -0.42,0.11 -0.84,0.2 -1.27,0.29 -8.12,1.61 -16.59,-0.61 -23.82,-6.24 -7.67,-5.95 -13.01,-14.93 -15.05,-25.25 -2.04,-10.34 -0.5,-20.66 4.32,-29.09 0.29,-0.49 0.57,-0.98 0.89,-1.46 0.14,-0.22 0.27,-0.42 0.42,-0.63 0.37,-0.57 0.76,-1.13 1.17,-1.66 l 0.34,-0.45 c 0.04,-0.03 0.07,-0.05 0.1,-0.1 0.05,-0.08 0.12,-0.15 0.18,-0.23 0.1,-0.12 0.19,-0.25 0.3,-0.35 0.07,-0.1 0.15,-0.19 0.23,-0.29 v -0.01 c 0.01,-0.01 0.03,-0.04 0.04,-0.05 h 0.01 c 0.12,-0.15 0.25,-0.29 0.37,-0.42 0.27,-0.31 0.54,-0.61 0.83,-0.9 l 0.18,-0.18 c 0.34,-0.35 0.68,-0.69 1.02,-1.02 a 29.32,29.32 0 0 1 1.07,-0.95 c 0.05,-0.05 0.11,-0.1 0.16,-0.14 a 6.45,6.45 0 0 0 0.29,-0.25 c 0.1,-0.09 0.19,-0.16 0.3,-0.23 0.12,-0.1 0.25,-0.19 0.37,-0.29 0.07,-0.07 0.15,-0.12 0.22,-0.19 0.2,-0.15 0.41,-0.31 0.63,-0.44 a 5.72,5.72 0 0 1 0.3,-0.22 c 0.19,-0.12 0.37,-0.26 0.56,-0.38 0.08,-0.05 0.16,-0.11 0.25,-0.15 a 2.69,2.69 0 0 1 0.22,-0.14 c 0.07,-0.05 0.15,-0.11 0.23,-0.15 0.08,-0.05 0.15,-0.11 0.23,-0.15 0,0 0.01,-0.01 0.03,-0.01 0.03,-0.01 0.04,-0.03 0.07,-0.04 0.07,-0.04 0.14,-0.08 0.2,-0.12 a 24.51,24.51 0 0 1 0.69,-0.4 c 0.08,-0.04 0.18,-0.1 0.27,-0.15 0.2,-0.11 0.42,-0.22 0.63,-0.31 a 8.52,8.52 0 0 1 0.68,-0.33 c 0.01,-0.01 0.03,-0.03 0.04,-0.03 0.16,-0.08 0.33,-0.15 0.49,-0.22 0.11,-0.05 0.2,-0.11 0.3,-0.14 0.2,-0.1 0.41,-0.18 0.61,-0.24 0.04,-0.03 0.08,-0.04 0.12,-0.05 0.12,-0.05 0.26,-0.11 0.39,-0.15 0.15,-0.07 0.3,-0.12 0.45,-0.16 0.22,-0.1 0.45,-0.16 0.67,-0.23 0.14,-0.05 0.26,-0.1 0.39,-0.12 0.01,-0.01 0.03,-0.01 0.05,-0.01 0.29,-0.11 0.59,-0.19 0.87,-0.26 0.14,-0.04 0.27,-0.08 0.41,-0.11 0.15,-0.04 0.3,-0.08 0.45,-0.11 0.31,-0.08 0.61,-0.14 0.93,-0.2 1.73,-0.34 3.47,-0.5 5.22,-0.5 6.46,0 12.91,2.32 18.61,6.74 7.67,5.95 13.01,14.93 15.05,25.25 2.04,10.31 0.5,20.63 -4.32,29.06 z"/><path id="path4" d="m 129.1,536.51 49.03,118.54 H 163.4 l -45.44,-109.84 -3.2,-7.72 12.58,-5.22 z m 347.43,-69.39 c -0.6,7.37 -2.03,23.44 -4.37,43.84 l -1.7,14.23 -0.64,5.02 -1.09,8.31 -0.44,3.23 -0.82,5.82 -1.21,8.32 -1.99,12.86 -0.75,4.59 -0.31,1.89 v 0.03 l -1.36,7.93 -1.12,6.17 -0.49,2.66 c -4.26,22.75 -9.43,44.89 -15.55,63.02 h -14.42 c 1.04,-2.85 2.04,-5.84 3.02,-8.95 l 0.98,-3.17 c 0.22,-0.67 0.42,-1.35 0.61,-2.03 l 0.6,-2.06 c 1.58,-5.45 3.08,-11.18 4.51,-17.12 l 1.12,-4.74 0.44,-1.89 0.76,-3.41 0.46,-2.1 1.2,-5.64 0.54,-2.67 0.71,-3.51 c 0.16,-0.89 0.34,-1.76 0.52,-2.64 l 2.97,-16.21 0.67,-3.88 1.28,-7.76 0.93,-5.8 1.44,-9.57 0.56,-3.79 c 0,-0.01 0,-0.04 0.01,-0.07 l 0.49,-3.46 3.06,-23.21 0.19,-1.57 0.57,-4.64 a 38.82,38.82 0 0 1 0.18,-1.51 40.76,40.76 0 0 1 0.18,-1.5 l 0.31,-2.72 c 0.01,-0.08 0.01,-0.15 0.03,-0.23 l 0.48,-4.24 c 0.01,-0.07 0.03,-0.14 0.03,-0.22 l 0.5,-4.49 1.72,-16.49 0.2,-2.07 0.26,-2.71 0.19,-1.98 0.3,-3.23 a 7.87,7.87 0 0 1 0.07,-0.73 l 0.1,-1.14 c 0.03,-0.24 0.04,-0.49 0.07,-0.72 0.03,-0.25 0.04,-0.48 0.07,-0.71 l 0.2,-2.41 c -65.41,-24.37 -173.21,-21.03 -174.3,-21 l -0.14,0.01 h -0.14 l -1.7,-0.01 c -4.22,0 -8.47,0.07 -12.71,0.22 l -6.35,0.26 a 475.97,475.97 0 0 0 -19.79,1.4 l -3.98,0.38 a 548.93,548.93 0 0 0 -26.22,3.26 l -3.85,0.59 -4.79,0.76 c -18.99,3.08 -36.18,6.76 -49.92,10.05 l -2.06,0.49 -3.95,0.97 -5.49,1.39 -17.13,4.69 h -0.01 l 0.49,4.29 0.95,8.54 0.01,0.01 v 0.01 l 0.2,1.85 -13.54,1.52 -1.8,-15.99 -0.11,-0.99 a 10.9,10.9 0 0 1 7.71,-11.66 c 11.81,-3.53 64.33,-18.46 122.82,-23.77 l 13.62,-1.05 3.62,-0.2 6.07,-0.3 9.38,-0.27 c 0.93,-0.03 1.87,-0.04 2.79,-0.04 l 4.02,-0.03 1.65,0.01 c 0.33,-0.01 0.94,-0.04 1.83,-0.05 l 5.69,-0.11 4.86,-0.04 3.08,-0.01 13.62,0.11 c 38.1,0.64 105.23,4.55 152.39,22.75 4.47,1.69 7.31,6.24 6.91,11.03 z m -46.69,26.01 c -4.18,-5.09 -10.37,-8.13 -16.96,-8.35 l -113.7,-3.71 a 22.91,22.91 0 0 0 -17.62,7.4 c -4.52,4.92 -6.67,11.54 -5.9,18.17 l 13.74,117.91 c 1.35,11.56 11.14,20.28 22.79,20.28 h 81.27 c 11.29,0 20.81,-8.09 22.64,-19.23 l 18.66,-114.21 c 1.07,-6.51 -0.72,-13.16 -4.92,-18.26 z m -2.95,14.57 c 0,0.79 -0.05,1.58 -0.19,2.37 l -18.66,114.21 c -0.04,0.23 -0.08,0.45 -0.14,0.67 -0.01,0.03 -0.01,0.07 -0.01,0.1 a 1.37,1.37 0 0 1 -0.08,0.35 c -0.03,0.07 -0.04,0.14 -0.05,0.2 a 0.4,0.4 0 0 1 -0.03,0.15 l -0.15,0.49 c -0.03,0.1 -0.05,0.19 -0.1,0.29 -0.03,0.07 -0.04,0.14 -0.07,0.2 a 0.88,0.88 0 0 1 -0.05,0.15 c -0.03,0.12 -0.07,0.24 -0.12,0.35 -0.03,0.08 -0.07,0.18 -0.11,0.26 -0.04,0.15 -0.11,0.29 -0.18,0.44 -0.03,0.05 -0.05,0.11 -0.08,0.16 l -0.29,0.59 -0.3,0.57 h -0.01 c -0.08,0.15 -0.16,0.3 -0.26,0.44 a 0.49,0.49 0 0 1 -0.07,0.11 c -0.18,0.29 -0.37,0.57 -0.59,0.86 -0.01,0.03 -0.03,0.04 -0.04,0.07 -0.1,0.12 -0.19,0.25 -0.29,0.35 a 8.06,8.06 0 0 1 -0.52,0.64 1.2,1.2 0 0 0 -0.11,0.12 c -0.11,0.11 -0.22,0.23 -0.34,0.34 0,0 0,0.01 -0.01,0.03 a 7,7 0 0 1 -0.48,0.46 c 0,0 -0.01,0.01 -0.03,0.01 -0.01,0.03 -0.03,0.04 -0.04,0.05 a 4.81,4.81 0 0 1 -0.48,0.42 c 0,0 -0.01,0 -0.03,0.01 a 7.68,7.68 0 0 1 -0.63,0.5 c -0.05,0.05 -0.11,0.1 -0.16,0.14 -0.07,0.04 -0.12,0.08 -0.18,0.14 -0.07,0.04 -0.12,0.08 -0.19,0.11 -0.05,0.05 -0.11,0.1 -0.16,0.12 -0.22,0.15 -0.44,0.29 -0.65,0.41 a 9.06,9.06 0 0 1 -0.68,0.38 c -0.2,0.11 -0.42,0.22 -0.63,0.31 -0.26,0.12 -0.53,0.23 -0.8,0.34 a 11.5,11.5 0 0 1 -1.66,0.54 c -0.29,0.08 -0.57,0.15 -0.87,0.2 -0.15,0.03 -0.3,0.05 -0.45,0.08 l -0.82,0.11 c -0.27,0.03 -0.56,0.05 -0.83,0.07 -0.27,0.01 -0.54,0.03 -0.82,0.03 h -81.27 c -7.49,0 -13.8,-5.61 -14.67,-13.05 L 283.77,505.68 c -0.07,-0.57 -0.1,-1.16 -0.1,-1.73 0,-0.27 0.01,-0.53 0.03,-0.79 0.01,-0.42 0.05,-0.84 0.12,-1.27 0.01,-0.2 0.05,-0.4 0.1,-0.6 a 1.82,1.82 0 0 1 0.1,-0.45 5.05,5.05 0 0 1 0.12,-0.53 10.17,10.17 0 0 1 0.3,-1.04 l 0.34,-0.89 c 0,-0.04 0.01,-0.08 0.04,-0.12 l 0.12,-0.29 c 0.04,-0.11 0.1,-0.22 0.15,-0.33 0.02,-0.05 0.04,-0.09 0.06,-0.13 0.1,-0.23 0.22,-0.45 0.34,-0.67 0.03,-0.05 0.07,-0.12 0.11,-0.18 0.08,-0.16 0.18,-0.31 0.27,-0.48 0.04,-0.08 0.1,-0.16 0.16,-0.25 0.05,-0.08 0.09,-0.15 0.15,-0.21 0.03,-0.04 0.05,-0.08 0.08,-0.12 0.01,-0.03 0.01,-0.04 0.03,-0.05 0.12,-0.18 0.25,-0.34 0.37,-0.5 v -0.01 c 0.01,-0.01 0.01,-0.01 0.03,-0.01 0,-0.01 0.01,-0.04 0.04,-0.05 0.04,-0.05 0.07,-0.1 0.11,-0.14 0.04,-0.07 0.1,-0.12 0.14,-0.18 0,-0.01 0.01,-0.04 0.04,-0.05 0.05,-0.07 0.11,-0.14 0.16,-0.2 0.05,-0.07 0.11,-0.14 0.18,-0.2 a 1.74,1.74 0 0 1 0.12,-0.14 l 0.08,-0.08 c 0.18,-0.19 0.35,-0.38 0.54,-0.56 a 10.85,10.85 0 0 1 0.95,-0.86 1.3,1.3 0 0 1 0.18,-0.15 c 0.2,-0.16 0.41,-0.31 0.61,-0.46 a 16.31,16.31 0 0 1 1.36,-0.86 4.25,4.25 0 0 1 0.6,-0.31 10.25,10.25 0 0 1 1.39,-0.61 c 0.19,-0.08 0.4,-0.15 0.59,-0.22 l 0.86,-0.25 c 0.25,-0.07 0.49,-0.12 0.74,-0.18 l 0.75,-0.14 c 0.25,-0.04 0.5,-0.07 0.75,-0.1 a 15.56,15.56 0 0 1 1.54,-0.08 h 0.48 l 113.7,3.72 c 4.24,0.14 8.23,2.1 10.92,5.37 a 25.03,25.03 0 0 1 0.78,1.02 12.22,12.22 0 0 1 0.44,0.71 c 0.04,0.04 0.05,0.08 0.07,0.12 0.03,0 0.03,0.01 0.01,0.03 0.1,0.15 0.19,0.31 0.27,0.48 0.15,0.25 0.27,0.49 0.38,0.74 a 7.77,7.77 0 0 1 0.26,0.6 c 0.1,0.2 0.18,0.42 0.25,0.63 a 22.96,22.96 0 0 1 0.33,0.99 c 0.05,0.19 0.11,0.38 0.15,0.57 0.08,0.33 0.15,0.65 0.2,0.97 0.07,0.41 0.12,0.83 0.16,1.25 a 13.06,13.06 0 0 1 0.05,1.25 c 0.02,0.03 0.02,0.04 0.02,0.04 z"/><path id="path6" d="m 247,385.49 h 13.62 v 55.92 H 247 Z m 56.63,0.57 h 13.62 v 54.01 h -13.62 z"/><path id="path8" d="m 282.35,393.64 -0.25,-0.01 -198,-9.18 A 33.98,33.98 0 0 1 55.73,366.4 c -2.54,-4.83 -3.88,-10.27 -3.88,-15.73 v -45.6 h 13.62 v 45.6 c 0,3.31 0.78,6.47 2.31,9.39 3.33,6.32 9.82,10.45 16.95,10.79 l 197.75,9.17 180.13,-4.91 c 11.02,-0.31 19.65,-9.18 19.65,-20.19 V 145.1 l 0.06,-0.44 c 0.03,-0.34 0.94,-11.06 -10.87,-24.94 C 452.71,97.7 404.16,69.83 279.3,62.07 275.7,61.99 192.5,60.58 126.27,83.49 60.22,106.34 65.37,155.92 65.43,156.41 l 0.05,0.81 v 6.65 H 51.86 v -6.32 c -0.25,-2.79 -1.05,-16.96 6.25,-33.79 7.25,-16.7 24.18,-39.47 63.71,-53.15 C 191.57,46.48 276.2,48.36 279.77,48.44 l 0.25,0.01 c 131.02,8.13 182.5,38.96 202.62,63.39 13.82,16.78 13.53,30.82 13.25,34.04 v 209.01 c 0,18.44 -14.45,33.29 -32.89,33.8 z"/><path id="path10" d="m 120.49,231.78 -0.03,-0.7 -0.08,-2.07 -0.04,-0.6 -0.15,-2.14 -0.11,-1.2 -0.18,-1.72 -0.1,-0.84 -0.11,-0.84 -0.25,-1.8 -0.38,-2.34 -0.42,-2.27 c 0,-0.01 0,-0.04 -0.01,-0.05 l -0.14,-0.65 -0.52,-2.38 -1.39,-5.22 -0.8,-2.6 -1.78,-4.89 -2.06,-4.75 -1.12,-2.3 -1.18,-2.25 -1.1,-1.99 c -0.05,-0.07 -0.1,-0.14 -0.12,-0.2 l -1.23,-2.02 -0.08,-0.11 -2.75,-4.07 -1.46,-1.95 -1.93,-2.37 -2.41,-2.71 -0.33,-0.34 -0.76,-0.8 -0.72,-0.71 c -0.07,-0.05 -0.12,-0.11 -0.18,-0.16 l -0.29,-0.29 -1.17,-1.1 c -0.04,-0.03 -0.08,-0.07 -0.12,-0.1 a 1.2,1.2 0 0 1 -0.12,-0.11 l -0.23,-0.2 -1.5,-1.31 -1.33,-1.08 -0.94,-0.74 -0.54,-0.41 c -0.26,-0.22 -0.53,-0.41 -0.8,-0.6 -0.23,-0.18 -0.47,-0.33 -0.69,-0.48 l -1.15,-0.8 h -0.03 l -0.35,-0.23 -1.53,-0.97 h -0.03 c 0,0 0,-0.03 -0.01,-0.03 -6.25,-3.76 -13.07,-6.18 -20.25,-6.96 -1.72,-0.2 -3.46,-0.3 -5.22,-0.3 -2.85,0 -5.65,0.26 -8.4,0.76 -4.43,0.79 -8.69,2.21 -12.76,4.17 H 39.1 C 16.27,173.01 0,201.34 0,234.46 c 0,39.05 22.61,71.43 51.88,76.68 a 46.95,46.95 0 0 0 8.4,0.76 c 1.76,0 3.5,-0.1 5.22,-0.3 l 1.81,-0.23 1.77,-0.3 h 0.03 c 10.12,-1.92 19.44,-7.08 27.28,-14.64 l 0.02,-0.01 1.05,-1.05 c 0.03,-0.01 0.04,-0.03 0.07,-0.05 0.08,-0.08 0.16,-0.16 0.23,-0.25 l 0.49,-0.5 c 0.01,-0.01 0.03,-0.04 0.04,-0.05 0.01,-0.01 0.03,-0.03 0.03,-0.04 l 0.03,-0.03 c 0.01,-0.01 0.03,-0.04 0.04,-0.05 0.25,-0.23 0.48,-0.48 0.69,-0.72 l 0.12,-0.12 a 1.74,1.74 0 0 1 0.12,-0.14 c 0.29,-0.3 0.57,-0.61 0.84,-0.94 0.08,-0.08 0.15,-0.16 0.2,-0.25 a 4.36,4.36 0 0 0 0.41,-0.46 c 0.12,-0.15 0.25,-0.29 0.38,-0.45 l 1.47,-1.81 c 0.49,-0.61 0.95,-1.24 1.43,-1.88 0.12,-0.14 0.22,-0.29 0.33,-0.42 0.22,-0.3 0.44,-0.6 0.64,-0.91 0.01,-0.01 0.03,-0.04 0.03,-0.05 0.08,-0.12 0.18,-0.25 0.26,-0.37 0.44,-0.61 0.84,-1.24 1.25,-1.87 0.05,-0.08 0.11,-0.15 0.15,-0.22 0.25,-0.38 0.49,-0.76 0.72,-1.16 0.72,-1.14 1.4,-2.33 2.07,-3.53 0.39,-0.69 0.78,-1.42 1.14,-2.14 0.26,-0.5 0.52,-1.02 0.76,-1.54 0.61,-1.25 1.2,-2.53 1.74,-3.83 1.1,-2.59 2.11,-5.28 2.98,-8.04 0.18,-0.53 0.33,-1.06 0.49,-1.59 0.05,-0.16 0.1,-0.34 0.14,-0.5 l 0.75,-2.7 c 0.29,-1.08 0.53,-2.15 0.78,-3.26 0,-0.03 0.01,-0.04 0.01,-0.07 0.11,-0.48 0.2,-0.98 0.3,-1.46 0.12,-0.56 0.23,-1.12 0.33,-1.69 a 87.51,87.51 0 0 0 0.54,-3.24 l 0.22,-1.57 a 42.38,42.38 0 0 0 0.25,-1.97 c 0.07,-0.56 0.12,-1.13 0.18,-1.7 0.07,-0.72 0.12,-1.46 0.18,-2.19 l 0.08,-1.24 c 0.03,-0.4 0.05,-0.8 0.07,-1.2 0.03,-0.57 0.04,-1.13 0.05,-1.7 l 0.04,-1.27 0.01,-1.74 z m -13.96,10.8 c 0,0.08 -0.01,0.16 -0.03,0.24 -0.03,0.42 -0.07,0.84 -0.12,1.27 l -0.08,0.65 c -0.01,0.19 -0.04,0.38 -0.07,0.57 0,0.1 -0.01,0.18 -0.04,0.27 l -0.23,1.72 a 27.75,27.75 0 0 1 -0.25,1.55 l -0.2,1.13 a 24.18,24.18 0 0 1 -0.29,1.48 c -0.11,0.6 -0.25,1.2 -0.38,1.8 -0.11,0.52 -0.23,1.05 -0.37,1.57 0,0.03 -0.01,0.05 -0.01,0.08 -0.01,0.04 -0.03,0.08 -0.04,0.12 l -0.34,1.35 -0.46,1.62 c -0.03,0.11 -0.05,0.22 -0.08,0.31 -0.03,0.07 -0.04,0.14 -0.07,0.2 -0.37,1.23 -0.76,2.45 -1.18,3.64 -0.15,0.44 -0.31,0.87 -0.48,1.29 -0.01,0.04 -0.03,0.07 -0.03,0.1 l -0.53,1.36 -0.53,1.29 c -0.18,0.45 -0.37,0.89 -0.57,1.32 a 30.97,30.97 0 0 1 -0.6,1.31 c -0.45,0.97 -0.91,1.91 -1.4,2.82 -0.12,0.25 -0.25,0.49 -0.38,0.72 a 61.63,61.63 0 0 1 -1.53,2.66 c -0.23,0.4 -0.48,0.79 -0.72,1.17 l -1.27,1.92 c -0.07,0.1 -0.14,0.19 -0.19,0.29 l -0.56,0.78 -0.76,1.03 a 39.98,39.98 0 0 1 -0.95,1.23 c -0.05,0.08 -0.12,0.16 -0.18,0.23 -0.15,0.19 -0.29,0.35 -0.44,0.53 l -1.18,1.4 -0.34,0.38 c -0.17,0.2 -0.34,0.38 -0.51,0.55 l -1.06,1.12 c -0.76,0.79 -1.55,1.54 -2.37,2.26 -0.2,0.19 -0.41,0.37 -0.63,0.54 a 6.53,6.53 0 0 1 -0.64,0.54 c -0.31,0.29 -0.64,0.55 -0.97,0.79 -0.33,0.26 -0.65,0.52 -0.99,0.75 a 18.87,18.87 0 0 1 -0.99,0.72 38.8,38.8 0 0 1 -6.28,3.64 c -0.31,0.15 -0.64,0.3 -0.97,0.44 -0.2,0.1 -0.41,0.18 -0.63,0.26 -0.45,0.19 -0.91,0.37 -1.38,0.53 -0.12,0.05 -0.23,0.1 -0.35,0.14 -0.25,0.08 -0.48,0.16 -0.72,0.25 -0.11,0.03 -0.22,0.07 -0.31,0.1 l -1.09,0.33 c -0.14,0.04 -0.3,0.1 -0.45,0.14 -0.05,0.01 -0.12,0.03 -0.19,0.04 a 22.1,22.1 0 0 1 -0.87,0.22 c -0.99,0.24 -2,0.44 -3.01,0.57 -0.46,0.07 -0.93,0.12 -1.39,0.18 -0.3,0.04 -0.6,0.07 -0.9,0.08 -0.3,0.03 -0.59,0.04 -0.89,0.05 a 27.04,27.04 0 0 1 -1.8,0.05 c -25.73,0 -46.66,-28.63 -46.66,-63.83 0,-0.87 0.01,-1.73 0.04,-2.59 0.01,-0.78 0.05,-1.55 0.1,-2.32 a 20.6,20.6 0 0 1 0.05,-0.83 c 0.03,-0.56 0.08,-1.1 0.12,-1.65 a 1.43,1.43 0 0 1 0.03,-0.29 c 0.05,-0.71 0.12,-1.43 0.22,-2.12 0.03,-0.27 0.05,-0.54 0.1,-0.83 0.08,-0.68 0.16,-1.36 0.27,-2.02 0.11,-0.82 0.25,-1.62 0.4,-2.44 0.14,-0.8 0.29,-1.61 0.46,-2.4 0.33,-1.59 0.69,-3.15 1.12,-4.67 l 0.56,-1.95 a 64.35,64.35 0 0 1 0.82,-2.57 51.52,51.52 0 0 1 0.78,-2.19 l 0.84,-2.14 c 0.27,-0.7 0.57,-1.39 0.87,-2.07 a 77.93,77.93 0 0 1 0.97,-2.07 c 0.33,-0.68 0.65,-1.33 1.01,-1.99 0.26,-0.5 0.53,-1.02 0.82,-1.51 0.01,-0.03 0.03,-0.05 0.04,-0.07 0.07,-0.11 0.14,-0.23 0.2,-0.35 0,-0.03 0.01,-0.04 0.03,-0.05 0.37,-0.67 0.76,-1.32 1.17,-1.98 a 31.22,31.22 0 0 1 1.06,-1.66 l 1.12,-1.65 a 25.53,25.53 0 0 1 0.69,-0.94 2.14,2.14 0 0 0 0.19,-0.26 c 0.14,-0.19 0.29,-0.38 0.42,-0.57 l 0.04,-0.04 c 0.1,-0.11 0.18,-0.22 0.26,-0.33 0.68,-0.87 1.36,-1.72 2.08,-2.52 l 0.72,-0.8 0.08,-0.08 c 0.07,-0.08 0.15,-0.18 0.23,-0.26 l 0.76,-0.8 c 0.34,-0.35 0.68,-0.71 1.04,-1.04 0.16,-0.16 0.34,-0.33 0.52,-0.49 0.05,-0.05 0.12,-0.12 0.19,-0.18 0.27,-0.26 0.54,-0.52 0.83,-0.76 0.04,-0.04 0.1,-0.08 0.15,-0.14 0.11,-0.1 0.2,-0.19 0.31,-0.27 a 15.02,15.02 0 0 1 0.97,-0.82 c 0.1,-0.08 0.18,-0.15 0.27,-0.23 0.23,-0.19 0.48,-0.38 0.71,-0.56 0.12,-0.1 0.25,-0.19 0.35,-0.27 l 0.31,-0.23 c 0.14,-0.11 0.29,-0.22 0.42,-0.33 a 27.53,27.53 0 0 1 1.42,-0.98 c 0.03,-0.03 0.07,-0.05 0.11,-0.08 0.07,-0.05 0.15,-0.11 0.23,-0.15 a 26.91,26.91 0 0 1 1.13,-0.72 c 0.01,-0.01 0.04,-0.03 0.05,-0.03 0.54,-0.34 1.09,-0.65 1.65,-0.95 0.15,-0.1 0.31,-0.18 0.46,-0.26 0.39,-0.22 0.75,-0.42 1.16,-0.61 l 0.05,-0.01 c 0.83,-0.41 1.63,-0.78 2.48,-1.09 h 0.01 l 0.01,-0.01 c 2.08,-0.84 4.22,-1.5 6.42,-1.92 0.53,-0.11 1.04,-0.2 1.57,-0.27 0.1,-0.01 0.19,-0.03 0.29,-0.04 0.37,-0.07 0.76,-0.11 1.13,-0.15 0.05,0 0.11,-0.01 0.16,-0.01 0.19,-0.03 0.37,-0.04 0.56,-0.05 a 30.1,30.1 0 0 1 3.02,-0.14 c 25.73,0 46.66,28.63 46.66,63.81 0,0.65 -0.01,1.31 -0.03,1.96 l -0.05,1.77 -0.04,0.78 a 34.52,34.52 0 0 1 -0.05,1.04 c -0.01,0.33 -0.04,0.64 -0.07,0.97 z m 383,74.83 -0.94,-13.59 c 22.46,-1.55 40.05,-26.02 40.05,-55.71 0,-29.68 -17.59,-54.15 -40.05,-55.7 l 0.94,-13.59 c 29.57,2.04 52.73,32.47 52.73,69.28 0,36.83 -23.16,67.27 -52.73,69.31 z"/><path id="path12" d="M 80.68,311.91 A 81.54,81.54 0 0 1 67.85,310.9 l 1.07,-6.68 -0.01,-6.85 h 0.56 l 0.54,0.09 a 67.4,67.4 0 0 0 10.68,0.84 c 37,0 67.09,-30.1 67.09,-67.09 0,-37 -30.1,-67.09 -67.09,-67.09 -11.7,0 -23.19,3.06 -33.3,8.85 l -1.35,1.39 -2.92,0.02 -0.05,-6.91 -4.77,-4.67 2,-2.05 h 1.06 c 11.99,-6.7 25.55,-10.23 39.34,-10.23 44.51,0 80.71,36.21 80.71,80.71 -0.02,44.47 -36.23,80.68 -80.73,80.68 z m 408.38,35.02 v 7.98 c 0,14.63 -11.65,26.59 -26.27,27 l -180.38,4.92 -198,-9.18 c -9.89,-0.46 -18.33,-6.2 -22.66,-14.42 l 103.53,-17.65 300.94,17.39 c 7.86,0.45 15.61,-2.94 20.08,-9.43 1.37,-2 2.42,-4.23 2.76,-6.61 z"/><ellipse id="ellipse14" cx="282.26" cy="202.7" rx="41.41" ry="43.54"/></g><ellipse id="ellipse18" cx="301.978" cy="431.627" fill="#fff" rx="12.44" ry="13.08"/><ellipse id="ellipse20" cx="429.317" cy="447.297" fill="#24242b" rx="41.41" ry="43.54"/><ellipse id="ellipse22" cx="438.178" cy="431.627" fill="#fff" rx="12.44" ry="13.08"/><g id="g30" fill="#24242b" transform="translate(10.857509,244.59708)"><path id="path24" d="m 278.87,261.26 159.26,11.8 a 1.54,1.54 0 0 1 1.41,1.74 l -4.39,32.76 c -0.11,0.8 -0.82,1.38 -1.62,1.33 l -150.02,-9.56 c -0.73,-0.05 -1.33,-0.6 -1.43,-1.33 l -4.85,-35 c -0.13,-0.96 0.66,-1.81 1.64,-1.74 z M 324.91,60.3 311.75,56.78 c 0.78,-2.9 1.17,-5.9 1.17,-8.92 0,-18.88 -15.36,-34.24 -34.24,-34.24 -18.88,0 -34.24,15.36 -34.24,34.24 0,2.42 0.25,4.82 0.74,7.11 l -13.32,2.84 c -0.69,-3.22 -1.03,-6.57 -1.03,-9.95 C 230.83,21.47 252.3,0 278.69,0 c 26.39,0 47.86,21.47 47.86,47.86 a 48.66,48.66 0 0 1 -1.64,12.44 z m 251.91,594.75 h -43.34 c -42.09,-19.25 -64.97,-49.96 -73.24,-63.02 -1.1,-1.73 -1.95,-3.13 -2.55,-4.18 v -0.01 c -0.6,-1.06 -0.95,-1.74 -1.06,-1.95 l 5.22,-2.68 6.89,-3.54 c 0.08,0.15 2.93,5.54 8.87,13.42 0.59,0.78 1.18,1.57 1.85,2.38 a 11.04,11.04 0 0 0 0.31,0.41 l 1.17,1.46 a 177.47,177.47 0 0 0 3.88,4.62 104.7,104.7 0 0 0 2.74,3.06 l 1.7,1.81 1.61,1.68 c 3.36,3.45 7.14,7.01 11.33,10.58 l 1.74,1.46 a 140.19,140.19 0 0 0 7.55,5.87 72.08,72.08 0 0 0 1.77,1.28 c 2.23,1.61 4.58,3.17 7.01,4.71 l 2.6,1.62 c 0.71,0.44 1.43,0.87 2.17,1.29 0.16,0.11 0.34,0.2 0.52,0.3 l 2.26,1.29 c 4.77,2.68 9.86,5.2 15.27,7.5 1.73,0.74 3.45,1.43 5.15,2.1 a 208.08,208.08 0 0 0 7.6,2.78 l 4.97,1.61 c 4.82,1.48 9.53,2.72 14.1,3.73 z m 53.46,-44.42 c -88.19,-4.2 -122.25,-52.91 -123.65,-54.99 l 11.27,-7.65 -5.63,3.83 5.62,-3.84 c 0.31,0.45 32.06,45.19 113.05,49.05 z"/><path id="path26" d="m 626.1,596.74 a 67.82,67.82 0 0 0 -4.3,13.33 l -0.93,5.37 -0.46,4.79 a 11.21,11.21 0 0 0 -0.05,0.83 l -0.1,3.58 a 57.07,57.07 0 0 0 0.03,1.85 l 0.04,0.87 c -0.01,0.05 -0.01,0.12 0,0.18 l 0.07,1.36 0.19,2.49 0.57,4.4 1.36,6.44 1.32,4.44 1.39,3.77 a 50.58,50.58 0 0 0 1.72,3.92 l 0.33,0.67 h 15.6 c -5.68,-8.76 -8.99,-19.2 -8.99,-30.4 0,-0.91 0.03,-1.84 0.07,-2.74 l 0.08,-1.36 c 0.1,-1.36 0.25,-2.7 0.44,-4.03 l 0.39,-2.3 a 12.13,12.13 0 0 1 0.16,-0.83 c 0.05,-0.3 0.12,-0.6 0.19,-0.9 l 0.22,-0.94 c 0.07,-0.29 0.14,-0.59 0.22,-0.87 0.08,-0.34 0.18,-0.67 0.27,-1.01 0.08,-0.3 0.16,-0.6 0.26,-0.9 a 41.2,41.2 0 0 1 0.45,-1.47 l 0.35,-1.03 0.31,-0.87 a 32.01,32.01 0 0 1 0.48,-1.25 7.44,7.44 0 0 0 0.2,-0.5 c 0.14,-0.34 0.27,-0.68 0.42,-1.01 1.57,-3.68 3.53,-7.14 5.82,-10.37 a 19.99,19.99 0 0 1 0.59,-0.78 c 0,-0.01 0.01,-0.01 0.01,-0.03 l 0.78,-1.02 c 0.04,-0.05 0.07,-0.11 0.12,-0.16 0.01,-0.03 0.04,-0.04 0.07,-0.07 0.01,-0.04 0.04,-0.07 0.05,-0.1 0.27,-0.35 0.56,-0.7 0.84,-1.05 0.04,-0.04 0.07,-0.08 0.11,-0.11 l 1.05,-1.23 c 0.05,-0.08 0.14,-0.16 0.2,-0.25 0.08,-0.1 0.16,-0.19 0.26,-0.29 l 0.12,-0.12 v -18.28 c -9.67,7.19 -17.42,16.82 -22.32,27.98 z m -522.48,-48.94 -1.83,2.14 h -0.01 C 73.56,583.72 75.37,634.62 77.09,652.82 l 0.23,2.23 H 63.63 l -0.35,-3.95 v -0.01 l -0.19,-2.7 -0.1,-1.61 -0.11,-2.29 -0.04,-0.93 -0.12,-4 -0.04,-2.87 v -4.28 l 0.08,-3.92 0.15,-3.75 c 0.03,-0.57 0.05,-1.16 0.1,-1.74 0.44,-7.79 1.36,-16.32 3.06,-25.09 a 60.46,60.46 0 0 1 0.42,-2.11 c 0.37,-1.82 0.79,-3.66 1.23,-5.5 a 86.02,86.02 0 0 1 0.74,-2.87 c 0.02,-0.06 0.03,-0.12 0.05,-0.19 l 0.65,-2.39 a 12.45,12.45 0 0 1 0.09,-0.31 l 0.84,-2.87 0.93,-2.89 c 0.31,-0.97 0.64,-1.92 0.98,-2.87 l 0.99,-2.7 c 0.01,-0.05 0.04,-0.12 0.07,-0.18 a 67.55,67.55 0 0 1 1.12,-2.86 l 0.37,-0.87 0.84,-1.96 c 0.3,-0.71 0.61,-1.42 0.94,-2.12 0.11,-0.24 0.22,-0.48 0.34,-0.71 l 1.35,-2.81 c 0.46,-0.93 0.94,-1.85 1.44,-2.78 0.1,-0.18 0.19,-0.37 0.3,-0.55 0.33,-0.61 0.65,-1.23 1.01,-1.82 l 0.29,-0.52 1.53,-2.57 c 0.54,-0.9 1.12,-1.8 1.69,-2.68 l 1.77,-2.63 h 0.01 v -0.01 c 2.25,-3.24 4.71,-6.39 7.41,-9.4 z M 68.91,513.64 c -0.12,0.12 -3.69,3.73 -8.88,9.92 v 0.01 l -1.16,1.39 -1.21,1.47 c -0.04,0.05 -0.08,0.12 -0.15,0.18 l -0.94,1.17 -0.46,0.59 -0.5,0.63 -0.9,1.16 c -2,2.57 -4.14,5.42 -6.32,8.47 l -2.15,3.08 -2.18,3.23 -1.48,2.29 -0.68,1.06 -1.09,1.72 -1.08,1.76 a 41.7,41.7 0 0 0 -0.95,1.59 c -0.76,1.25 -1.5,2.53 -2.23,3.83 -0.67,1.17 -1.32,2.37 -1.97,3.57 -1.05,1.96 -2.07,3.95 -3.06,5.98 l -0.79,1.62 c -1.63,3.46 -3.17,7.01 -4.56,10.64 l -0.74,1.98 a 62.43,62.43 0 0 0 -0.74,2.06 c 0,0.01 -0.01,0.03 -0.01,0.04 -0.25,0.69 -0.48,1.4 -0.71,2.11 a 113.77,113.77 0 0 0 -2.81,10.11 c -0.11,0.45 -0.2,0.91 -0.3,1.36 -0.42,1.95 -0.78,3.91 -1.06,5.87 l -0.3,2.17 c -1.1,8.83 -1.55,16.86 -1.55,24.08 l 0.03,2.94 a 161.21,161.21 0 0 0 0.37,8.59 l 0.22,2.64 c 0.07,0.86 0.15,1.7 0.25,2.53 l 0.16,1.47 c 0.04,0.41 0.1,0.83 0.15,1.23 0.03,0.25 0.05,0.48 0.1,0.72 a 29.68,29.68 0 0 0 0.18,1.36 l 0.34,2.25 0.35,2.15 c 0.03,0.14 0.04,0.27 0.07,0.41 H 6.4 C 4.32,642.12 3.31,624.67 6.01,603 11.8,556.66 48.53,515.38 57.44,505.97 l 1.89,-1.95 z"/><path id="path28" d="m 77.08,652.81 c -4.33,-1.12 -8.98,-1.72 -13.8,-1.73 h -0.01 c -0.1,0 -0.19,0 -0.27,0.01 l -0.72,0.01 c -0.44,0 -0.87,0 -1.31,0.03 -0.72,0.01 -1.46,0.05 -2.21,0.11 -0.27,0.01 -0.53,0.03 -0.8,0.05 -0.6,0.05 -1.21,0.11 -1.81,0.18 a 46.38,46.38 0 0 0 -2.33,0.3 c -0.64,0.1 -1.31,0.2 -1.96,0.33 -0.27,0.04 -0.54,0.1 -0.83,0.15 -0.33,0.05 -0.65,0.12 -0.99,0.2 -0.54,0.11 -1.1,0.23 -1.66,0.37 -1.31,0.3 -2.62,0.65 -3.92,1.05 -1.2,0.37 -2.37,0.75 -3.53,1.17 h 42.8 a 49.89,49.89 0 0 0 -6.65,-2.23 z"/></g><path id="path1732" d="m 71.107509,542.88708 c 25.73,0 46.660001,-28.63 46.660001,-63.82 0,-35.19 -20.930001,-63.82 -46.660001,-63.82 -4.57,0 -8.98,0.92 -13.16,2.6 l -1.06,1.09 -1.42,0.01 c -18.05,8.82 -31.01,32.43 -31.01,60.12 -0.01,35.19 20.92,63.82 46.65,63.82 z" style="fill:#f3c33e;fill-opacity:1"/><path id="path1730" d="m 659.27751,831.66708 v 67.98 h -5.56 c -5.68,-8.76 -8.99,-19.2 -8.99,-30.4 0,-0.91 0.03,-1.84 0.07,-2.74 l 0.08,-1.36 c 0.1,-1.36 0.25,-2.7 0.44,-4.03 l 0.39,-2.3 a 12.13,12.13 0 0 1 0.16,-0.83 c 0.05,-0.3 0.12,-0.6 0.19,-0.9 l 0.22,-0.94 c 0.07,-0.29 0.14,-0.59 0.22,-0.87 0.08,-0.34 0.18,-0.67 0.27,-1.01 0.08,-0.3 0.16,-0.6 0.26,-0.9 a 41.2,41.2 0 0 1 0.45,-1.47 l 0.35,-1.03 0.31,-0.87 a 32.01,32.01 0 0 1 0.48,-1.25 7.44,7.44 0 0 0 0.2,-0.5 c 0.14,-0.34 0.27,-0.68 0.42,-1.01 1.57,-3.68 3.53,-7.14 5.82,-10.37 0.19,-0.26 0.38,-0.52 0.59,-0.78 0,-0.01 0.01,-0.01 0.01,-0.03 l 0.78,-1.02 c 0.04,-0.05 0.07,-0.11 0.12,-0.16 0.03,-0.05 0.08,-0.11 0.12,-0.16 0.27,-0.35 0.56,-0.7 0.84,-1.05 0.37,-0.45 0.75,-0.9 1.16,-1.33 0.05,-0.08 0.14,-0.16 0.2,-0.25 0.08,-0.1 0.16,-0.19 0.26,-0.29 z"/><path id="path1728" d="m 290.60751,293.04708 0.25,0.01 a 824.85,824.85 0 0 1 32.75,2.66 l 0.17,-3.25 c 0,-18.88 -15.36,-34.24 -34.24,-34.24 -18.88,0 -34.24,15.36 -34.24,34.24 0,0.44 0.02,0.87 0.03,1.31 20.25,-1.07 33.89,-0.77 35.28,-0.73 z" style="fill:#f3c33e;fill-opacity:1"/><path id="path1726" d="m 426.95751,870.19708 c -1.83,11.14 -11.35,19.23 -22.64,19.23 h -81.27 c -11.65,0 -21.44,-8.72 -22.79,-20.28 l -13.74,-117.91 c -0.78,-6.63 1.38,-13.25 5.9,-18.17 4.52,-4.92 10.96,-7.61 17.62,-7.4 l 113.7,3.71 c 6.59,0.22 12.78,3.26 16.96,8.35 4.2,5.11 5.99,11.75 4.92,18.27 z"/><path id="path1724" d="m 252.31751,820.53708 c -7.53,13.17 -19.41,21.94 -33.42,24.71 a 47.65,47.65 0 0 1 -9.26,0.91 c -10.94,0 -21.71,-3.79 -31.05,-11.05 -11.55,-8.98 -19.56,-22.28 -22.56,-37.44 -3,-15.16 -0.64,-30.5 6.62,-43.19 7.55,-13.17 19.42,-21.94 33.44,-24.72 14.02,-2.76 28.33,0.84 40.32,10.15 11.55,8.98 19.56,22.27 22.56,37.44 2.98,15.16 0.62,30.49 -6.65,43.19 z"/><path id="path1722" d="m 299.34751,691.62708 -0.14,0.01 h -0.14 l -1.7,-0.01 c -4.22,0 -8.47,0.07 -12.71,0.22 l -6.35,0.26 a 475.97,475.97 0 0 0 -19.79,1.4 l -3.98,0.38 a 548.93,548.93 0 0 0 -26.22,3.26 l -3.85,0.59 -4.79,0.76 c -18.99,3.08 -36.18,6.76 -49.92,10.05 l -2.06,0.49 -3.95,0.97 -5.49,1.39 -17.13,4.69 0.48,4.29 0.97,8.55 v 0.01 c 0.68,0.91 1.32,1.84 1.91,2.81 0.15,0.23 0.29,0.46 0.42,0.71 0.19,0.31 0.38,0.63 0.56,0.95 0.14,0.25 0.29,0.5 0.41,0.76 0.1,0.16 0.18,0.33 0.26,0.49 l 0.56,1.13 0.67,1.47 0.34,0.84 a 12.19,12.19 0 0 1 0.37,0.94 25.05,25.05 0 0 1 0.53,1.53 27.49,27.49 0 0 1 0.34,1.08 22.66,22.66 0 0 1 0.41,1.47 c 0.34,1.27 0.6,2.57 0.8,3.9 a 5.78,5.78 0 0 1 0.07,0.44 c 0.08,0.53 0.15,1.06 0.19,1.59 0.03,0.1 0.04,0.19 0.04,0.29 a 24.95,24.95 0 0 1 0.12,1.53 l 0.04,0.75 c 0.03,0.6 0.04,1.21 0.04,1.81 0,0.71 -0.01,1.42 -0.05,2.12 -0.07,1.31 -0.19,2.61 -0.39,3.9 -0.03,0.3 -0.08,0.59 -0.14,0.87 -0.07,0.45 -0.15,0.89 -0.25,1.32 -0.01,0.11 -0.04,0.22 -0.07,0.33 a 23.19,23.19 0 0 1 -0.38,1.65 c -0.03,0.15 -0.07,0.29 -0.12,0.44 a 12.06,12.06 0 0 1 -0.31,1.14 16.13,16.13 0 0 1 -0.37,1.18 c -0.08,0.26 -0.16,0.5 -0.26,0.75 -0.12,0.34 -0.25,0.68 -0.38,1.01 -0.07,0.22 -0.15,0.42 -0.25,0.63 a 18.95,18.95 0 0 1 -0.63,1.49 23.64,23.64 0 0 1 -0.76,1.61 c -0.04,0.11 -0.1,0.2 -0.16,0.3 -0.19,0.4 -0.4,0.79 -0.61,1.19 -0.16,0.29 -0.33,0.59 -0.5,0.87 -0.45,0.79 -0.94,1.57 -1.46,2.33 l -0.91,1.27 c -0.83,1.16 -1.73,2.26 -2.68,3.31 l 49.03,118.54 h 252.13 c 1.04,-2.85 2.04,-5.84 3.02,-8.95 l 0.98,-3.17 c 0.22,-0.67 0.42,-1.35 0.61,-2.03 l 0.6,-2.06 c 1.58,-5.45 3.08,-11.18 4.51,-17.12 l 1.12,-4.74 0.44,-1.89 0.76,-3.41 0.46,-2.1 1.2,-5.64 0.54,-2.67 0.71,-3.51 c 0.16,-0.89 0.34,-1.76 0.52,-2.64 l 2.97,-16.21 0.67,-3.88 1.28,-7.76 0.93,-5.8 1.44,-9.57 0.56,-3.79 c 0,-0.01 0,-0.04 0.01,-0.07 l 0.49,-3.46 3.06,-23.21 0.19,-1.57 0.57,-4.64 a 38.82,38.82 0 0 1 0.18,-1.51 40.76,40.76 0 0 1 0.18,-1.5 l 0.31,-2.72 c 0.01,-0.08 0.01,-0.15 0.03,-0.23 l 0.48,-4.24 c 0.01,-0.07 0.03,-0.14 0.03,-0.22 l 0.5,-4.49 1.72,-16.49 0.2,-2.07 0.26,-2.71 0.19,-1.98 0.3,-3.23 a 7.87,7.87 0 0 1 0.07,-0.73 l 0.1,-1.14 c 0.03,-0.24 0.04,-0.49 0.07,-0.72 0.03,-0.25 0.04,-0.48 0.07,-0.71 l 0.2,-2.41 c -65.43,-24.42 -173.23,-21.08 -174.32,-21.06 z" style="fill:#f3c33e;fill-opacity:1"/><path id="path1720" d="m 191.10751,818.97708 c 7.24,5.62 15.7,7.84 23.82,6.23 8.12,-1.6 15.11,-6.87 19.66,-14.82 4.82,-8.42 6.36,-18.75 4.32,-29.09 -2.04,-10.33 -7.39,-19.3 -15.05,-25.26 -5.7,-4.43 -12.15,-6.74 -18.61,-6.74 a 26.98,26.98 0 0 0 -5.21,0.51 c -8.12,1.6 -15.11,6.87 -19.66,14.82 -4.82,8.42 -6.36,18.75 -4.32,29.09 2.03,10.33 7.38,19.3 15.05,25.26 z" style="fill:#f3c33e;fill-opacity:1;stroke:#24242b;stroke-width:28.1;stroke-miterlimit:1.3;stroke-dasharray:none;stroke-opacity:1;paint-order:stroke markers fill"/><path id="path32" d="m 308.37751,868.20708 c 0.87,7.44 7.17,13.05 14.66,13.05 h 81.28 c 7.27,0 13.4,-5.21 14.57,-12.38 l 18.67,-114.2 c 0.69,-4.19 -0.47,-8.48 -3.17,-11.76 a 14.78,14.78 0 0 0 -10.92,-5.38 l -113.69,-3.71 c -0.16,-0.01 -0.32,-0.01 -0.48,-0.01 -4.12,0 -8.06,1.72 -10.86,4.77 a 14.75,14.75 0 0 0 -3.8,11.7 z" style="fill:#f3c33e;fill-opacity:1;stroke:#24242b;stroke-width:9.3;stroke-miterlimit:4;stroke-dasharray:none;stroke-opacity:1;paint-order:stroke markers fill"/><path id="path34" fill="#875336" d="m 481.30751,769.81708 c -1.94,15.52 -4.34,32.7 -7.25,50.03 4.35,2.72 9.41,4.21 14.61,4.21 15.24,0 27.64,-12.4 27.64,-27.64 0,-15.23 -12.4,-27.62 -27.64,-27.62 -2.52,0 -4.98,0.36 -7.36,1.02 z"/><path id="path36" fill="#f3c33e" d="m 391.15751,430.34708 c -0.01,0.05 -0.04,0.11 -0.05,0.16 0,-0.01 0,-0.04 0.03,-0.05 l 0.04,-0.11 z m -1.36,3.92 -0.04,0.16 a 0.68,0.68 0 0 1 0.07,-0.2 c 0.01,-0.04 0.03,-0.08 0.03,-0.12 a 0.64,0.64 0 0 0 -0.06,0.16 z m -0.58,2.16 -0.1,0.41 c -0.01,0.04 -0.03,0.1 -0.03,0.15 l 0.14,-0.56 0.48,-1.81 z m -0.45,2.01 c 0,0.03 -0.01,0.07 -0.01,0.1 0.01,-0.03 0.01,-0.07 0.03,-0.1 z m -0.48,14.79 0.04,0.27 a 0.11,0.11 0 0 1 0,-0.08 c -0.03,-0.06 -0.03,-0.12 -0.04,-0.19 z m 0.19,1.23 -0.14,-0.89 0.04,0.38 0.11,0.64 c -0.01,-0.03 -0.02,-0.08 -0.01,-0.13 z m -0.19,-13.03 c -0.01,0.08 -0.03,0.16 -0.03,0.25 -0.01,0.01 -0.01,0.03 -0.01,0.05 0.04,-0.1 0.05,-0.22 0.05,-0.34 -0.01,0.01 -0.01,0.02 -0.01,0.04 z m -0.18,10.09 c 0,0.22 0.03,0.42 0.05,0.64 0.01,0.16 0.03,0.34 0.07,0.5 z m -0.12,-6.91 c -0.01,0.1 -0.01,0.19 -0.01,0.29 -0.01,0.1 -0.01,0.19 -0.01,0.29 l 0.04,-0.57 h -0.02 z m -0.03,0.78 h -0.01 l -0.04,1.92 0.04,1.96 h 0.01 l -0.04,-1.96 z m 0.22,-3.04 c 0,0 -0.01,0.01 0,0.03 0,-0.01 0.01,-0.01 0.01,-0.04 z m -0.05,0.48 v 0.03 c 0.01,-0.01 0.01,-0.03 0.01,-0.04 z m -0.09,7.8 c -0.01,-0.03 -0.03,-0.07 -0.01,-0.1 a 3.73,3.73 0 0 0 0.04,0.57 c 0,0.01 0,0.03 0.01,0.04 z m -0.02,-0.19 a 0.34,0.34 0 0 0 0.01,0.1 c -0.01,-0.05 -0.01,-0.12 -0.01,-0.18 z m -0.07,-1.11 v 0.03 c 0,-0.02 0.01,-0.02 0.01,-0.02 h -0.01 z m -132.99,-18.98 c -0.01,0.05 -0.04,0.11 -0.05,0.16 0,-0.01 0,-0.04 0.03,-0.05 l 0.04,-0.11 z m -1.36,3.92 -0.04,0.16 a 0.68,0.68 0 0 1 0.07,-0.2 c 0.01,-0.04 0.03,-0.08 0.03,-0.12 -0.04,0.06 -0.05,0.11 -0.06,0.16 z m -0.59,2.16 -0.1,0.41 c -0.01,0.04 -0.03,0.1 -0.03,0.15 l 0.14,-0.56 0.48,-1.81 z m -0.45,2.01 c 0,0.03 -0.01,0.07 -0.01,0.1 0.01,-0.03 0.01,-0.07 0.03,-0.1 z m -0.48,14.79 0.04,0.27 a 0.11,0.11 0 0 1 0,-0.08 c -0.02,-0.06 -0.02,-0.12 -0.04,-0.19 z m 0.2,1.23 -0.14,-0.89 0.04,0.38 0.11,0.64 c -0.01,-0.03 -0.03,-0.08 -0.01,-0.13 z m -0.2,-13.03 c -0.01,0.08 -0.03,0.16 -0.03,0.25 -0.01,0.01 -0.01,0.03 -0.01,0.05 0.04,-0.1 0.05,-0.22 0.05,-0.34 -0.01,0.01 -0.01,0.02 -0.01,0.04 z m -0.17,10.09 c 0,0.22 0.03,0.42 0.05,0.64 0.01,0.16 0.03,0.34 0.07,0.5 z m -0.13,-6.91 c -0.01,0.1 -0.01,0.19 -0.01,0.29 -0.01,0.1 -0.01,0.19 -0.01,0.29 l 0.04,-0.57 h -0.02 z m -0.02,0.78 h -0.01 l -0.04,1.92 0.04,1.96 h 0.01 l -0.04,-1.96 z m 0.22,-3.04 c 0,0 -0.01,0.01 0,0.03 0,-0.01 0.01,-0.01 0.01,-0.04 z m -0.06,0.48 v 0.03 c 0.01,-0.01 0.01,-0.03 0.01,-0.04 z m -0.08,7.8 c -0.01,-0.03 -0.03,-0.07 -0.01,-0.1 a 3.73,3.73 0 0 0 0.04,0.57 c 0,0.01 0,0.03 0.01,0.04 z m -0.03,-0.19 a 0.34,0.34 0 0 0 0.01,0.1 c -0.01,-0.05 -0.01,-0.12 -0.01,-0.18 z m -0.07,-1.11 v 0.03 c 0,-0.02 0.01,-0.02 0.01,-0.02 h -0.01 z m 139.42,-18.98 c -0.01,0.05 -0.04,0.11 -0.05,0.16 0,-0.01 0,-0.04 0.03,-0.05 l 0.04,-0.11 z m -1.36,3.92 -0.04,0.16 a 0.68,0.68 0 0 1 0.07,-0.2 c 0.01,-0.04 0.03,-0.08 0.03,-0.12 a 0.64,0.64 0 0 0 -0.06,0.16 z m -0.58,2.16 -0.1,0.41 c -0.01,0.04 -0.03,0.1 -0.03,0.15 l 0.14,-0.56 0.48,-1.81 z m -0.45,2.01 c 0,0.03 -0.01,0.07 -0.01,0.1 0.01,-0.03 0.01,-0.07 0.03,-0.1 z m -0.29,16.02 -0.14,-0.89 0.04,0.38 0.11,0.64 c -0.01,-0.03 -0.02,-0.08 -0.01,-0.13 z m -0.19,-13.03 c -0.01,0.08 -0.03,0.16 -0.03,0.25 -0.01,0.01 -0.01,0.03 -0.01,0.05 0.04,-0.1 0.05,-0.22 0.05,-0.34 -0.01,0.01 -0.01,0.02 -0.01,0.04 z m -0.18,10.09 c 0,0.22 0.03,0.42 0.05,0.64 0.01,0.16 0.03,0.34 0.07,0.5 z m 0.07,-9.17 c 0,0 -0.01,0.01 0,0.03 0,-0.01 0.01,-0.01 0.01,-0.04 z m -0.05,0.48 v 0.03 c 0.01,-0.01 0.01,-0.03 0.01,-0.04 z m -0.09,7.8 c -0.01,-0.03 -0.03,-0.07 -0.01,-0.1 a 3.73,3.73 0 0 0 0.04,0.57 c 0,0.01 0,0.03 0.01,0.04 z m -0.02,-0.19 a 0.34,0.34 0 0 0 0.01,0.1 c -0.01,-0.05 -0.01,-0.12 -0.01,-0.18 z m -0.03,-5.83 c -0.01,0.1 -0.01,0.19 -0.01,0.29 -0.01,0.1 -0.01,0.19 -0.01,0.29 l 0.04,-0.57 h -0.02 z m -0.03,0.78 h -0.01 l -0.04,1.92 0.04,1.96 h 0.01 l -0.04,-1.96 z m -133,-15.04 c -0.01,0.05 -0.04,0.11 -0.05,0.16 0,-0.01 0,-0.04 0.03,-0.05 l 0.04,-0.11 z m -1.36,3.92 -0.04,0.16 a 0.68,0.68 0 0 1 0.07,-0.2 c 0.01,-0.04 0.03,-0.08 0.03,-0.12 -0.04,0.06 -0.05,0.11 -0.06,0.16 z m -0.59,2.16 -0.1,0.41 c -0.01,0.04 -0.03,0.1 -0.03,0.15 l 0.14,-0.56 0.48,-1.81 z m -0.45,2.01 c 0,0.03 -0.01,0.07 -0.01,0.1 0.01,-0.03 0.01,-0.07 0.03,-0.1 z m -0.28,16.02 -0.14,-0.89 0.04,0.38 0.11,0.64 c -0.01,-0.03 -0.03,-0.08 -0.01,-0.13 z m -0.2,-13.03 c -0.01,0.08 -0.03,0.16 -0.03,0.25 -0.01,0.01 -0.01,0.03 -0.01,0.05 0.04,-0.1 0.05,-0.22 0.05,-0.34 -0.01,0.01 -0.01,0.02 -0.01,0.04 z m -0.17,10.09 c 0,0.22 0.03,0.42 0.05,0.64 0.01,0.16 0.03,0.34 0.07,0.5 z m 0.07,-9.17 c 0,0 -0.01,0.01 0,0.03 0,-0.01 0.01,-0.01 0.01,-0.04 z m -0.06,0.48 v 0.03 c 0.01,-0.01 0.01,-0.03 0.01,-0.04 z m -0.08,7.8 c -0.01,-0.03 -0.03,-0.07 -0.01,-0.1 a 3.73,3.73 0 0 0 0.04,0.57 c 0,0.01 0,0.03 0.01,0.04 z m -0.03,-0.19 a 0.34,0.34 0 0 0 0.01,0.1 c -0.01,-0.05 -0.01,-0.12 -0.01,-0.18 z m -0.03,-5.83 c -0.01,0.1 -0.01,0.19 -0.01,0.29 -0.01,0.1 -0.01,0.19 -0.01,0.29 l 0.04,-0.57 h -0.02 z m -0.02,0.78 h -0.01 l -0.04,1.92 0.04,1.96 h 0.01 l -0.04,-1.96 z m 141.08,22.51 0.33,0.61 -0.25,-0.46 c -0.03,-0.05 -0.05,-0.09 -0.08,-0.15 z m -1.68,-37.55 c -0.01,0.04 -0.03,0.07 -0.03,0.11 l 0.04,-0.11 z m -1.4,4.09 a 0.68,0.68 0 0 1 0.07,-0.2 c 0.01,-0.04 0.03,-0.08 0.03,-0.12 -0.03,0.05 -0.04,0.11 -0.05,0.16 -0.02,0.05 -0.04,0.1 -0.05,0.16 z m -0.54,1.99 -0.1,0.41 c -0.01,0.04 -0.03,0.1 -0.03,0.15 l 0.14,-0.56 0.48,-1.81 z m -0.47,2.11 c 0.01,-0.03 0.01,-0.07 0.03,-0.1 h -0.01 c 0,0.03 -0.02,0.07 -0.02,0.1 z m -0.37,15.42 c 0.03,0.16 0.05,0.34 0.1,0.5 l -0.14,-0.89 a 4.67,4.67 0 0 1 0.04,0.39 z m -0.06,-12.71 c 0.01,-0.01 0.01,-0.03 0.01,-0.03 h -0.01 c 0,0 -0.02,0.01 0,0.03 z m -0.06,0.42 c -0.01,0.01 -0.01,0.04 0,0.07 0.03,-0.11 0.04,-0.23 0.04,-0.35 -0.01,0.01 -0.01,0.03 -0.01,0.04 -0.01,0.08 -0.03,0.16 -0.03,0.24 z m -0.09,10.49 c 0.01,0.16 0.03,0.34 0.07,0.5 l -0.12,-1.14 c -0.01,0.22 0.02,0.42 0.05,0.64 z m 0.01,-9.81 c 0,0 -0.01,0.01 0,0.03 0,-0.01 0.01,-0.01 0.01,-0.04 z m -0.04,0.34 v 0.08 c 0,-0.03 0.01,-0.04 0.01,-0.07 z m -0.01,0.14 v 0.03 c 0.01,-0.01 0.01,-0.03 0.01,-0.04 z m -0.06,8.28 c 0,0.01 0,0.03 0.01,0.04 l -0.04,-0.52 c 0,0.17 0,0.32 0.03,0.48 z m -0.09,-6.21 c -0.01,0.1 -0.01,0.19 -0.01,0.29 l 0.04,-0.57 v -0.05 c -0.01,0.01 -0.01,0.03 -0.01,0.05 -0.02,0.09 -0.02,0.18 -0.02,0.28 z m -0.03,0.49 -0.04,1.92 0.04,1.96 h 0.01 l -0.04,-1.96 0.04,-1.92 z m -131.32,22.51 0.33,0.61 -0.25,-0.46 c -0.02,-0.05 -0.05,-0.09 -0.08,-0.15 z m -1.67,-37.55 c -0.01,0.04 -0.03,0.07 -0.03,0.11 l 0.04,-0.11 z m -1.4,4.09 a 0.68,0.68 0 0 1 0.07,-0.2 c 0.01,-0.04 0.03,-0.08 0.03,-0.12 -0.03,0.05 -0.04,0.11 -0.05,0.16 -0.03,0.05 -0.04,0.1 -0.05,0.16 z m -0.55,1.99 -0.1,0.41 c -0.01,0.04 -0.03,0.1 -0.03,0.15 l 0.14,-0.56 0.48,-1.81 z m -0.46,2.11 c 0.01,-0.03 0.01,-0.07 0.03,-0.1 h -0.01 c -0.01,0.03 -0.02,0.07 -0.02,0.1 z m -0.37,15.42 c 0.03,0.16 0.05,0.34 0.1,0.5 l -0.14,-0.89 z m -0.07,-12.71 c 0.01,-0.01 0.01,-0.03 0.01,-0.03 h -0.01 c 0,0 -0.01,0.01 0,0.03 z m -0.05,0.42 c -0.01,0.01 -0.01,0.04 0,0.07 0.03,-0.11 0.04,-0.23 0.04,-0.35 -0.01,0.01 -0.01,0.03 -0.01,0.04 -0.02,0.08 -0.03,0.16 -0.03,0.24 z m -0.1,10.49 c 0.01,0.16 0.03,0.34 0.07,0.5 l -0.12,-1.14 a 4.6,4.6 0 0 0 0.05,0.64 z m 0.02,-9.81 c 0,0 -0.01,0.01 0,0.03 0,-0.01 0.01,-0.01 0.01,-0.04 z m -0.05,0.34 v 0.08 c 0,-0.03 0.01,-0.04 0.01,-0.07 z m -0.01,0.14 v 0.03 c 0.01,-0.01 0.01,-0.03 0.01,-0.04 z m -0.05,8.28 c 0,0.01 0,0.03 0.01,0.04 l -0.04,-0.52 c 0,0.17 0,0.32 0.03,0.48 z m -0.1,-6.21 c -0.01,0.1 -0.01,0.19 -0.01,0.29 l 0.04,-0.57 v -0.05 c -0.01,0.01 -0.01,0.03 -0.01,0.05 -0.02,0.09 -0.02,0.18 -0.02,0.28 z m -0.03,0.49 -0.04,1.92 0.04,1.96 h 0.01 l -0.04,-1.96 0.04,-1.92 z m 241.32,-59.13 -0.35,-2.19 -0.18,-0.79 c -0.05,-0.27 -0.12,-0.56 -0.2,-0.84 -0.38,-1.5 -0.94,-3.2 -1.74,-5.09 -0.49,-1.16 -1.08,-2.37 -1.77,-3.65 l -1.76,-2.97 -0.67,-1.02 -1.48,-2.12 -1.68,-2.15 -0.91,-1.1 -1.87,-2.08 -1.5,-1.58 -0.63,-0.63 -2.12,-2.03 -1.17,-1.08 -2.53,-2.17 -4.18,-3.27 -3.08,-2.19 -3.31,-2.18 -7.34,-4.36 -8.39,-4.3 -2.27,-1.08 -6.46,-2.82 -1.09,-0.45 -4.86,-1.93 -2.71,-1.02 -6.36,-2.25 -2.22,-0.75 -3.01,-0.97 -3.9,-1.2 -2.38,-0.71 -2.03,-0.59 -4.17,-1.16 -1.06,-0.29 c -4.48,-1.21 -9.19,-2.37 -14.14,-3.49 l -2.18,-0.49 c -0.4,-0.08 -0.78,-0.18 -1.17,-0.24 l -2.66,-0.57 c -0.61,-0.14 -1.24,-0.27 -1.87,-0.4 -0.61,-0.14 -1.24,-0.26 -1.87,-0.38 l -3.81,-0.75 -3.68,-0.69 c -7.61,-1.42 -15.7,-2.72 -24.29,-3.92 l -4.74,-0.64 -8.94,-1.1 -3.05,-0.35 -2.85,-0.31 -1.28,-0.14 -3.87,-0.41 -5.24,-0.52 -5.37,-0.49 -1.53,-0.14 -3.94,-0.33 -2.04,-0.16 -1.76,-0.14 -1.78,-0.14 -5.68,-0.41 -5.8,-0.38 c -3.61,-0.08 -86.8,-1.48 -153.04,21.42 a 126.94,126.94 0 0 0 -5.52,2.04 l -1.4,0.56 -0.52,0.2 c -0.08,0.03 -0.15,0.05 -0.22,0.08 l -0.01,0.01 c -0.41,0.16 -0.82,0.34 -1.21,0.5 -0.05,0.03 -0.11,0.04 -0.16,0.07 l -1.01,0.44 c -0.79,0.34 -1.57,0.69 -2.33,1.05 a 2.68,2.68 0 0 0 -0.42,0.19 l -2.06,0.98 -1.28,0.64 c -0.23,0.12 -0.46,0.23 -0.69,0.34 l -0.68,0.35 a 14.48,14.48 0 0 0 -0.68,0.35 c -0.2,0.1 -0.39,0.2 -0.59,0.31 -0.05,0.03 -0.1,0.05 -0.14,0.08 -0.42,0.22 -0.84,0.45 -1.25,0.68 -0.27,0.14 -0.53,0.29 -0.8,0.45 -0.14,0.07 -0.27,0.15 -0.39,0.22 -0.25,0.14 -0.49,0.27 -0.72,0.42 l -1.87,1.1 -1.63,1.02 c -0.48,0.31 -0.97,0.61 -1.43,0.93 -0.48,0.31 -0.94,0.63 -1.4,0.94 -0.12,0.08 -0.25,0.16 -0.35,0.24 -0.25,0.16 -0.49,0.34 -0.74,0.52 -0.33,0.23 -0.65,0.46 -0.98,0.71 -0.29,0.2 -0.56,0.41 -0.84,0.61 -0.48,0.35 -0.94,0.71 -1.4,1.06 a 52.78,52.78 0 0 0 -1.4,1.12 c -0.07,0.04 -0.12,0.1 -0.19,0.15 l -1.88,1.57 c -0.18,0.16 -0.37,0.31 -0.54,0.48 -0.560001,0.48 -1.090001,0.97 -1.620001,1.46 a 22.91,22.91 0 0 0 -0.87,0.83 c -0.37,0.34 -0.71,0.68 -1.06,1.02 -0.19,0.18 -0.38,0.37 -0.57,0.56 l -0.99,1.02 c -0.01,0.02 -0.01,0.02 -0.03,0.04 l -0.8,0.84 -0.33,0.35 -1.21,1.36 -0.4,0.46 c -0.94,1.09 -1.81,2.18 -2.64,3.27 l -0.01,0.01 -1.16,1.57 a 43.65,43.65 0 0 0 -0.84,1.2 l -0.87,1.29 c -0.27,0.44 -0.56,0.86 -0.82,1.29 0,0.01 -0.01,0.01 -0.03,0.03 l -0.37,0.6 c -0.12,0.22 -0.25,0.41 -0.37,0.61 -0.03,0.03 -0.04,0.07 -0.05,0.1 -0.25,0.41 -0.48,0.82 -0.71,1.23 -0.49,0.87 -0.95,1.73 -1.4,2.59 -0.07,0.14 -0.14,0.27 -0.19,0.41 -0.14,0.26 -0.27,0.53 -0.39,0.8 l -0.59,1.24 -0.57,1.27 c -0.1,0.2 -0.18,0.41 -0.26,0.61 -0.23,0.53 -0.45,1.06 -0.64,1.58 l -0.08,0.19 -0.45,1.2 c 0,0.01 0,0.01 -0.01,0.03 l -0.49,1.39 c -0.11,0.31 -0.22,0.63 -0.31,0.94 -0.12,0.38 -0.25,0.76 -0.35,1.14 a 23.69,23.69 0 0 0 -0.33,1.12 c -0.48,1.63 -0.84,3.2 -1.14,4.67 l -0.23,1.2 c -0.07,0.31 -0.12,0.61 -0.16,0.91 -0.03,0.16 -0.05,0.33 -0.08,0.49 0,0.03 -0.01,0.05 -0.01,0.08 v 0.03 c 0,0.03 -0.01,0.07 -0.01,0.1 0,0.03 -0.01,0.05 -0.01,0.07 v 0.01 c -0.01,0.04 -0.01,0.07 -0.03,0.1 -0.03,0.15 -0.04,0.29 -0.05,0.44 -0.05,0.3 -0.1,0.6 -0.12,0.89 l -0.11,0.86 c -0.04,0.29 -0.07,0.56 -0.1,0.83 l -0.08,0.79 c -0.01,0.27 -0.04,0.52 -0.05,0.76 -0.01,0.14 -0.03,0.29 -0.03,0.42 l -0.1,1.65 v 0.08 c 0.71,-0.14 1.42,-0.26 2.12,-0.38 l 1.06,-0.16 1.1,-0.16 c 0.08,-0.01 0.16,-0.03 0.26,-0.03 l 1.16,-0.15 1.92,-0.22 2.36,-0.19 2.02,-0.1 c 0.34,-0.03 0.68,-0.04 1.04,-0.04 0.07,-0.01 0.15,-0.01 0.22,-0.01 l 2.1,-0.03 c 1.39,0 2.78,0.04 4.15,0.11 l 1.76,0.11 c 0.78,0.05 1.55,0.12 2.33,0.2 l 1.950001,0.22 c 0.2,0.03 0.4,0.05 0.6,0.08 0.08,0.01 0.15,0.03 0.23,0.04 0.26,0.03 0.53,0.07 0.82,0.11 l 0.82,0.12 2.04,0.35 1.58,0.3 c 0.39,0.08 0.78,0.16 1.17,0.26 l 1.31,0.3 c 0.67,0.15 1.33,0.33 1.99,0.5 a 42.94,42.94 0 0 1 1.62,0.45 l 1.02,0.3 c 0.44,0.12 0.87,0.26 1.29,0.41 0.57,0.18 1.13,0.35 1.68,0.56 l 0.9,0.31 0.65,0.24 c 0.53,0.19 1.06,0.4 1.59,0.6 a 0.61,0.61 0 0 1 0.12,0.05 c 0.59,0.23 1.17,0.46 1.76,0.72 a 28.14,28.14 0 0 1 1.8,0.79 c 0.5,0.22 0.99,0.45 1.48,0.68 0.22,0.11 0.44,0.2 0.65,0.31 l 1.39,0.71 c 0.59,0.29 1.16,0.6 1.73,0.91 0.57,0.3 1.14,0.63 1.7,0.95 0.49,0.27 0.98,0.57 1.47,0.86 0.45,0.27 0.9,0.54 1.35,0.84 0.27,0.16 0.54,0.34 0.82,0.52 0.27,0.16 0.54,0.35 0.8,0.53 a 52.55,52.55 0 0 1 1.72,1.17 l 1.62,1.17 1.59,1.21 1.57,1.25 a 11.54,11.54 0 0 1 0.76,0.63 l 0.76,0.65 0.74,0.64 a 8.8,8.8 0 0 1 0.72,0.65 c 1.5,1.33 2.94,2.75 4.33,4.21 0.9,0.93 1.77,1.89 2.62,2.86 1.69,1.96 3.3,3.99 4.79,6.1 a 86.22,86.22 0 0 1 2.18,3.21 l 1.04,1.66 c 1.35,2.22 2.6,4.51 3.73,6.85 a 46.99,46.99 0 0 1 0.82,1.78 c 0.01,0.04 0.04,0.08 0.05,0.12 0.22,0.46 0.42,0.93 0.61,1.39 l 0.12,0.29 a 40.57,40.57 0 0 1 0.75,1.81 c 0.23,0.57 0.45,1.14 0.65,1.73 l 0.63,1.74 c 0.33,0.95 0.64,1.92 0.93,2.89 0.01,0.05 0.03,0.1 0.04,0.15 0.23,0.76 0.45,1.54 0.65,2.32 a 48.08,48.08 0 0 1 0.44,1.72 c 0.01,0.04 0.03,0.1 0.04,0.15 0,0.03 0.01,0.04 0.01,0.07 0.1,0.38 0.18,0.76 0.27,1.14 0,0.03 0.01,0.05 0.01,0.08 0.11,0.45 0.2,0.9 0.29,1.36 0.01,0.1 0.04,0.19 0.05,0.29 0.12,0.54 0.23,1.1 0.33,1.66 a 47.43,47.43 0 0 1 0.29,1.72 l 0.33,2.29 c 0.1,0.68 0.18,1.35 0.23,2.03 l 0.14,1.4 a 2.26,2.26 0 0 1 0.01,0.26 c 0.03,0.3 0.05,0.6 0.07,0.9 0.01,0.04 0.01,0.08 0.01,0.12 a 21.48,21.48 0 0 1 0.08,1.4 c 0.04,0.68 0.07,1.38 0.08,2.07 l 0.03,2.08 a 58.81,58.81 0 0 1 -0.04,2.3 c -0.01,0.63 -0.03,1.24 -0.07,1.85 l -0.11,1.77 c -0.03,0.3 -0.04,0.61 -0.07,0.91 -0.01,0.1 -0.01,0.18 -0.03,0.27 -0.03,0.38 -0.07,0.75 -0.11,1.13 l -0.23,2.03 c -0.05,0.49 -0.14,0.98 -0.2,1.47 l -0.11,0.75 c -0.04,0.25 -0.07,0.5 -0.12,0.75 0,0.03 -0.01,0.05 -0.01,0.08 a 20.99,20.99 0 0 1 -0.18,1.05 41.58,41.58 0 0 1 -0.37,1.88 c -0.11,0.57 -0.25,1.16 -0.37,1.73 -0.04,0.18 -0.08,0.37 -0.14,0.56 0,0.03 -0.01,0.05 -0.01,0.08 -0.08,0.38 -0.19,0.76 -0.29,1.14 -0.03,0.1 -0.05,0.2 -0.08,0.3 -0.01,0.03 -0.01,0.05 -0.01,0.08 -0.33,1.27 -0.68,2.52 -1.06,3.76 -0.01,0.05 -0.04,0.12 -0.05,0.18 -0.16,0.52 -0.33,1.03 -0.5,1.54 l -0.42,1.23 c -0.03,0.07 -0.05,0.15 -0.08,0.22 -0.12,0.37 -0.26,0.72 -0.4,1.09 l -0.54,1.42 a 41.33,41.33 0 0 1 -0.75,1.83 c -0.25,0.61 -0.52,1.21 -0.79,1.8 -0.19,0.44 -0.4,0.87 -0.6,1.31 -0.16,0.35 -0.33,0.69 -0.5,1.03 -0.19,0.4 -0.4,0.79 -0.6,1.19 -0.42,0.83 -0.87,1.66 -1.32,2.47 -0.03,0.07 -0.07,0.14 -0.11,0.19 -0.45,0.82 -0.91,1.62 -1.4,2.41 -0.16,0.27 -0.33,0.53 -0.49,0.79 -0.16,0.27 -0.33,0.53 -0.49,0.79 l -1.36,2.06 c -0.1,0.14 -0.19,0.29 -0.3,0.42 -0.01,0.01 -0.03,0.04 -0.04,0.05 l -0.87,1.23 a 5.21,5.21 0 0 0 -0.2,0.3 c -0.34,0.48 -0.69,0.94 -1.05,1.4 a 85.55,85.55 0 0 1 -1.66,2.11 l -1.14,1.36 c -0.31,0.38 -0.64,0.74 -0.95,1.1 -0.04,0.04 -0.08,0.1 -0.12,0.14 -0.04,0.04 -0.08,0.1 -0.12,0.14 l -1.28,1.39 -0.04,0.04 c -0.14,0.15 -0.27,0.3 -0.41,0.44 -0.12,0.14 -0.25,0.26 -0.38,0.4 l -0.9,0.93 c -0.08,0.1 -0.18,0.2 -0.29,0.29 -0.11,0.1 -0.22,0.2 -0.33,0.31 l -1.96,1.88 c -0.23,0.22 -0.46,0.42 -0.69,0.64 -0.23,0.2 -0.46,0.41 -0.69,0.63 -0.54,0.48 -1.09,0.94 -1.65,1.4 -0.2,0.18 -0.41,0.34 -0.61,0.5 l -2.57,2.02 a 4.33,4.33 0 0 1 -0.37,0.27 c -0.01,0.02 -0.02,0.02 -0.04,0.04 -0.3,0.23 -0.6,0.45 -0.9,0.65 -0.14,0.1 -0.27,0.19 -0.41,0.3 -1.06,0.75 -2.12,1.47 -3.21,2.18 -0.26,0.15 -0.5,0.3 -0.75,0.46 a 1.76,1.76 0 0 1 -0.23,0.14 c -0.52,0.33 -1.05,0.64 -1.57,0.95 l -1.77,1.02 c -0.33,0.19 -0.65,0.37 -0.99,0.54 l -0.98,0.52 c -0.27,0.15 -0.56,0.29 -0.83,0.44 l -1.77,0.87 -2.19,1.01 -1.01,0.44 c -0.2,0.08 -0.41,0.16 -0.61,0.25 -0.07,0.04 -0.14,0.07 -0.2,0.08 a 12.14,12.14 0 0 1 -0.99,0.41 c -0.11,0.04 -0.2,0.08 -0.31,0.12 l -1.18,0.45 c -0.08,0.03 -0.18,0.07 -0.27,0.1 l -0.34,0.12 a 0.75,0.75 0 0 1 -0.18,0.07 c -0.46,0.18 -0.94,0.34 -1.42,0.5 -0.07,0.03 -0.15,0.04 -0.22,0.07 -0.14,0.05 -0.27,0.1 -0.41,0.14 -0.26,0.1 -0.53,0.18 -0.79,0.26 -0.63,0.2 -1.25,0.4 -1.89,0.57 -0.16,0.05 -0.33,0.11 -0.49,0.15 l -0.44,0.12 c -0.08,0.03 -0.18,0.04 -0.26,0.07 -0.2,0.07 -0.41,0.12 -0.61,0.16 l -0.61,0.16 -1.77,0.44 -0.69,0.16 c -0.08,0.01 -0.15,0.03 -0.23,0.05 l -1.2,0.25 a 43.27,43.27 0 0 1 -1.92,0.37 c -0.03,0.01 -0.04,0.01 -0.05,0.01 -0.16,0.03 -0.34,0.07 -0.5,0.08 -0.22,0.05 -0.45,0.08 -0.67,0.12 -0.1,0.01 -0.2,0.03 -0.3,0.05 h -0.05 c -0.08,0.01 -0.18,0.03 -0.26,0.04 l -2.4,0.34 -1.04,0.12 -0.820001,0.08 c -0.59,0.07 -1.17,0.12 -1.77,0.16 -0.18,0.01 -0.35,0.03 -0.54,0.04 -0.18,0.01 -0.35,0.03 -0.53,0.04 l -0.75,0.04 -0.49,0.03 a 81.8,81.8 0 0 1 -4.15,0.11 c -0.46,0 -0.91,0 -1.36,-0.01 -0.35,0 -0.71,-0.01 -1.06,-0.03 a 11.44,11.44 0 0 1 -0.82,-0.03 c -0.44,-0.01 -0.87,-0.04 -1.29,-0.05 l -1.1,-0.08 h -0.07 c -0.03,0 -0.05,0 -0.08,-0.01 -0.02,0.01 -0.04,0.01 -0.05,0 l -1.62,-0.12 c -0.05,0 -0.1,-0.01 -0.15,-0.01 l -1.13,-0.12 c -0.48,-0.04 -0.95,-0.1 -1.43,-0.16 -0.48,-0.05 -0.95,-0.12 -1.43,-0.19 h -0.03 c -0.59,0.11 -1.17,0.2 -1.77,0.3 l -1.81,0.23 v 39.05 a 19.58,19.58 0 0 0 0.59,4.85 c 0.08,0.33 0.16,0.64 0.26,0.97 0.08,0.26 0.16,0.52 0.26,0.78 0.1,0.29 0.19,0.57 0.31,0.86 a 16.31,16.31 0 0 0 0.35,0.84 l 0.54,1.1 a 18.02,18.02 0 0 0 0.56,0.98 c 0.19,0.33 0.41,0.64 0.61,0.95 l 96.320001,-16.43 300.94,17.39 a 21.81,21.81 0 0 0 1.4,0.04 c 0.45,0 0.9,-0.01 1.33,-0.04 0.29,-0.01 0.56,-0.04 0.83,-0.07 0.25,-0.01 0.49,-0.04 0.74,-0.07 0.41,-0.05 0.79,-0.11 1.18,-0.18 0.37,-0.05 0.74,-0.14 1.09,-0.22 0.07,-0.01 0.15,-0.04 0.22,-0.05 0.01,0 0.04,0 0.05,-0.01 0.05,-0.01 0.11,-0.03 0.16,-0.04 0.05,-0.01 0.11,-0.03 0.16,-0.04 0.31,-0.05 0.61,-0.15 0.93,-0.23 0.01,0 0.03,-0.01 0.04,-0.01 a 16.37,16.37 0 0 0 1.18,-0.4 c 0.27,-0.1 0.53,-0.19 0.8,-0.3 0.03,-0.01 0.04,-0.01 0.07,-0.03 0.2,-0.07 0.42,-0.16 0.63,-0.26 0.29,-0.12 0.59,-0.26 0.87,-0.39 0.23,-0.11 0.46,-0.23 0.69,-0.35 0.26,-0.14 0.52,-0.27 0.78,-0.42 0.26,-0.15 0.5,-0.3 0.75,-0.46 a 10.5,10.5 0 0 0 0.74,-0.49 6.78,6.78 0 0 0 0.34,-0.23 c 0.1,-0.07 0.18,-0.14 0.27,-0.2 0.1,-0.07 0.19,-0.14 0.27,-0.2 0.05,-0.03 0.1,-0.07 0.14,-0.1 0.03,-0.03 0.05,-0.04 0.08,-0.07 0.08,-0.53 0.15,-1.05 0.2,-1.59 l 0.04,-0.6 0.03,-1.02 v -209.77 l 0.05,-0.44 c -0.1,-0.1 -0.02,-1.16 -0.22,-2.99 z m -172.1,93.28 a 23.26,23.26 0 0 1 -0.9,0.83 25.99,25.99 0 0 1 -1.38,1.18 c -0.05,0.04 -0.12,0.1 -0.16,0.12 l -0.03,0.03 c -0.45,0.38 -0.93,0.75 -1.4,1.1 -0.04,0.01 -0.07,0.04 -0.1,0.07 -0.5,0.38 -1.02,0.75 -1.55,1.1 -0.01,0 -0.01,0.01 -0.03,0.01 -0.27,0.19 -0.54,0.37 -0.81,0.54 l -0.82,0.5 c -0.01,0 -0.03,0.01 -0.04,0.03 -0.54,0.33 -1.09,0.64 -1.65,0.94 -0.04,0.03 -0.08,0.04 -0.12,0.07 -0.54,0.3 -1.1,0.59 -1.66,0.86 a 0.46,0.46 0 0 0 -0.14,0.07 c -0.52,0.25 -1.05,0.48 -1.58,0.69 l -0.29,0.12 a 24.3,24.3 0 0 1 -1.28,0.5 l -1.01,0.35 c -0.08,0.04 -0.18,0.07 -0.27,0.1 -0.31,0.11 -0.64,0.22 -0.97,0.31 a 3.72,3.72 0 0 1 -0.31,0.1 c -0.05,0.01 -0.11,0.04 -0.15,0.05 -0.07,0.01 -0.14,0.04 -0.19,0.05 -0.05,0.01 -0.12,0.04 -0.18,0.05 h -0.03 c -0.07,0.03 -0.15,0.04 -0.23,0.07 -0.07,0.01 -0.14,0.04 -0.2,0.05 -0.07,0.01 -0.14,0.04 -0.22,0.05 h -0.03 c -0.03,0.01 -0.05,0.01 -0.08,0.03 -0.04,0.01 -0.1,0.03 -0.15,0.04 -0.03,0.01 -0.05,0.01 -0.1,0.03 -0.08,0.01 -0.16,0.04 -0.25,0.05 0,0.01 -0.01,0.01 -0.03,0.01 -0.05,0.01 -0.11,0.03 -0.16,0.04 -0.45,0.11 -0.9,0.2 -1.35,0.3 h -0.01 c -0.56,0.12 -1.12,0.22 -1.69,0.31 l -0.95,0.14 c -0.15,0.03 -0.29,0.04 -0.44,0.05 -0.23,0.04 -0.46,0.07 -0.68,0.08 -0.12,0.01 -0.23,0.03 -0.34,0.04 -0.11,0.01 -0.22,0.03 -0.31,0.03 l -1.44,0.11 h -0.1 a 34.72,34.72 0 0 1 -2.04,0.05 c -0.46,0 -0.94,-0.01 -1.4,-0.03 -0.44,-0.01 -0.86,-0.04 -1.29,-0.07 l -1.54,-0.14 a 18.39,18.39 0 0 1 -1.04,-0.12 c -0.52,-0.07 -1.05,-0.15 -1.57,-0.24 -0.34,-0.05 -0.68,-0.12 -1.02,-0.19 a 33.16,33.16 0 0 1 -2.98,-0.72 c -0.31,-0.08 -0.61,-0.18 -0.91,-0.27 -0.75,-0.23 -1.5,-0.49 -2.25,-0.78 l -1.18,-0.46 c -0.22,-0.08 -0.42,-0.18 -0.64,-0.27 l -1.5,-0.68 -1.53,-0.79 c -2.7,-1.44 -5.22,-3.2 -7.53,-5.22 -0.5,-0.42 -0.98,-0.87 -1.46,-1.32 -0.05,-0.04 -0.1,-0.1 -0.14,-0.14 -0.33,-0.31 -0.64,-0.63 -0.95,-0.94 l -0.4,-0.41 a 55.77,55.77 0 0 1 -1.28,-1.4 c -0.04,-0.05 -0.08,-0.11 -0.14,-0.16 a 41.94,41.94 0 0 1 -1.16,-1.42 c -0.04,-0.04 -0.08,-0.1 -0.11,-0.14 -0.39,-0.5 -0.79,-1.03 -1.17,-1.58 -0.01,-0.01 -0.03,-0.04 -0.04,-0.05 -0.37,-0.5 -0.71,-1.02 -1.05,-1.54 a 2.69,2.69 0 0 1 -0.14,-0.22 c -0.35,-0.54 -0.68,-1.1 -1.01,-1.66 a 18.35,18.35 0 0 1 -0.64,-1.14 c -0.03,-0.04 -0.05,-0.1 -0.07,-0.14 -0.01,-0.03 -0.04,-0.05 -0.04,-0.07 -0.08,-0.16 -0.16,-0.32 -0.25,-0.47 -0.03,-0.05 -0.05,-0.1 -0.08,-0.15 -0.22,-0.42 -0.44,-0.84 -0.63,-1.28 l -0.6,-1.33 c -0.04,-0.04 -0.05,-0.1 -0.07,-0.15 -0.19,-0.46 -0.4,-0.94 -0.57,-1.42 -0.05,-0.1 -0.1,-0.19 -0.12,-0.3 -0.15,-0.38 -0.29,-0.75 -0.42,-1.14 -0.2,-0.57 -0.39,-1.14 -0.56,-1.73 -0.01,-0.03 -0.03,-0.07 -0.03,-0.1 -0.05,-0.19 -0.11,-0.38 -0.16,-0.57 -0.04,-0.1 -0.07,-0.19 -0.08,-0.29 -0.12,-0.38 -0.23,-0.78 -0.31,-1.17 -0.05,-0.18 -0.1,-0.35 -0.14,-0.53 -0.14,-0.56 -0.27,-1.1 -0.37,-1.68 -0.03,-0.14 -0.05,-0.29 -0.08,-0.44 l -0.1,-0.5 c -0.03,-0.15 -0.04,-0.3 -0.07,-0.45 -0.03,-0.07 -0.04,-0.15 -0.04,-0.23 -0.01,-0.04 -0.03,-0.08 -0.01,-0.14 l -0.14,-0.89 c -0.01,-0.03 -0.01,-0.04 -0.01,-0.07 a 0.11,0.11 0 0 1 0,-0.08 c -0.03,-0.07 -0.03,-0.12 -0.04,-0.19 v -0.05 c -0.01,-0.1 -0.03,-0.18 -0.03,-0.27 -0.01,-0.01 -0.01,-0.03 0,-0.04 -0.03,-0.07 -0.04,-0.14 -0.03,-0.2 l -0.12,-1.14 c -0.03,-0.08 -0.03,-0.16 -0.03,-0.25 a 0.11,0.11 0 0 1 0,-0.08 c -0.01,-0.01 -0.01,-0.01 0,-0.03 v 0.03 c -0.01,-0.18 -0.04,-0.34 -0.04,-0.52 -0.01,-0.03 -0.03,-0.07 -0.01,-0.1 -0.01,-0.05 -0.01,-0.12 -0.01,-0.18 -0.03,-0.33 -0.04,-0.64 -0.05,-0.95 -0.01,-0.01 -0.01,-0.01 0,-0.03 0,-0.01 -0.01,-0.01 -0.01,-0.02 0,-0.02 0.01,-0.02 0.01,-0.02 -0.01,-0.01 0,-0.03 0,-0.03 l -0.01,-0.01 -0.03,-1.97 c 0,-0.64 0.01,-1.28 0.04,-1.92 h -0.01 l 0.01,-0.02 c -0.01,-0.02 0,-0.02 0,-0.02 -0.01,-0.01 0,-0.03 0,-0.03 -0.01,-0.01 -0.01,-0.03 0,-0.04 -0.01,-0.03 -0.01,-0.04 0,-0.05 v -0.03 l 0.04,-0.57 v -0.05 a 0.87,0.87 0 0 1 0.01,-0.23 l 0.08,-1.14 c 0,-0.04 0,-0.07 0.01,-0.1 0,-0.04 0.01,-0.08 0.01,-0.12 v -0.04 c -0.01,-0.01 -0.01,-0.03 0,-0.04 v -0.03 c 0.01,-0.01 0.01,-0.03 0.01,-0.04 -0.01,-0.01 -0.01,-0.02 0,-0.02 0,-0.04 0.01,-0.05 0.01,-0.08 -0.01,-0.08 0,-0.13 0.02,-0.19 -0.01,-0.01 -0.01,-0.01 0,-0.03 0.01,-0.03 0.01,-0.05 0.01,-0.08 -0.01,-0.01 0,-0.03 0,-0.03 0,-0.01 0.01,-0.01 0.01,-0.04 0,-0.04 0,-0.08 0.01,-0.12 a 1.03,1.03 0 0 1 0.03,-0.26 c 0,-0.03 0.01,-0.07 0.01,-0.1 0,-0.03 0.01,-0.07 0.01,-0.1 v -0.03 c 0.03,-0.11 0.04,-0.23 0.04,-0.35 -0.01,-0.05 0,-0.1 0.01,-0.14 0.01,-0.01 0.01,-0.03 0.01,-0.03 v -0.03 a 1.53,1.53 0 0 1 0.04,-0.38 c 0,-0.07 0.01,-0.12 0.03,-0.18 0,-0.08 0.01,-0.16 0.04,-0.23 0.01,-0.03 0.01,-0.05 0.01,-0.08 0.01,-0.1 0.03,-0.18 0.04,-0.27 0,-0.07 0.01,-0.12 0.03,-0.19 0.03,-0.22 0.07,-0.44 0.11,-0.65 l 0.12,-0.67 c 0.01,-0.03 0.01,-0.07 0.03,-0.1 0.03,-0.12 0.05,-0.26 0.08,-0.38 0,-0.03 0.01,-0.07 0.01,-0.1 0.04,-0.23 0.1,-0.46 0.15,-0.69 0.01,-0.01 0.01,-0.01 0.01,-0.03 0.01,-0.04 0.01,-0.07 0.03,-0.11 0.01,-0.05 0.01,-0.08 0.03,-0.14 v -0.01 c 0.04,-0.19 0.1,-0.38 0.14,-0.56 0.15,-0.61 0.31,-1.21 0.48,-1.81 0.03,-0.05 0.04,-0.12 0.05,-0.18 a 0.68,0.68 0 0 1 0.07,-0.2 c 0.01,-0.04 0.03,-0.08 0.03,-0.12 0.03,-0.04 0.03,-0.1 0.04,-0.15 -0.01,-0.01 0,-0.01 0.01,-0.03 0,-0.01 0,-0.01 0.01,-0.03 v -0.01 c 0.01,-0.03 0.01,-0.04 0.03,-0.07 v -0.01 c 0.01,-0.04 0.03,-0.07 0.04,-0.11 0.1,-0.33 0.19,-0.64 0.3,-0.95 0.04,-0.16 0.1,-0.31 0.16,-0.48 0.11,-0.33 0.23,-0.64 0.35,-0.97 0.01,-0.03 0.03,-0.07 0.04,-0.1 0.03,-0.07 0.05,-0.15 0.08,-0.22 0.04,-0.16 0.11,-0.31 0.18,-0.48 0,-0.01 0,-0.04 0.03,-0.05 0.01,-0.03 0.03,-0.08 0.04,-0.11 0.08,-0.21 0.16,-0.43 0.27,-0.65 0,-0.04 0.01,-0.07 0.04,-0.11 a 18.77,18.77 0 0 1 0.34,-0.79 c 0.01,-0.01 0.03,-0.03 0.03,-0.04 0,-0.01 0.01,-0.04 0.01,-0.05 0.16,-0.37 0.34,-0.74 0.52,-1.1 l 0.25,-0.49 c 0.04,-0.11 0.1,-0.22 0.16,-0.33 0.1,-0.2 0.2,-0.41 0.31,-0.61 0.07,-0.14 0.14,-0.27 0.23,-0.41 0.04,-0.08 0.08,-0.16 0.12,-0.23 a 13.82,13.82 0 0 1 0.67,-1.16 l 0.22,-0.37 c 0.03,-0.07 0.07,-0.14 0.11,-0.19 0.07,-0.12 0.14,-0.24 0.23,-0.37 0.01,-0.05 0.05,-0.1 0.1,-0.15 0.1,-0.16 0.2,-0.33 0.31,-0.49 0.05,-0.11 0.14,-0.23 0.22,-0.34 0.2,-0.33 0.42,-0.64 0.65,-0.95 l 0.01,-0.01 c 0.03,-0.04 0.05,-0.08 0.08,-0.12 l 0.93,-1.27 c 0.04,-0.05 0.08,-0.11 0.12,-0.16 l 0.42,-0.53 c 0.25,-0.31 0.5,-0.64 0.76,-0.94 l 0.8,-0.93 0.94,-1.04 a 16.68,16.68 0 0 0 0.72,-0.74 c 0.29,-0.29 0.59,-0.57 0.87,-0.84 a 16.93,16.93 0 0 1 0.89,-0.82 c 0.16,-0.15 0.33,-0.29 0.49,-0.42 a 14.2,14.2 0 0 1 0.75,-0.64 c 0.38,-0.33 0.78,-0.64 1.18,-0.94 l 1.23,-0.91 a 35.62,35.62 0 0 1 1.81,-1.21 c 0.2,-0.14 0.41,-0.26 0.61,-0.38 0.04,-0.03 0.07,-0.04 0.11,-0.07 0.38,-0.23 0.78,-0.46 1.17,-0.68 0.49,-0.29 0.99,-0.55 1.5,-0.8 0.6,-0.31 1.21,-0.6 1.83,-0.87 0.31,-0.14 0.63,-0.27 0.94,-0.4 0.67,-0.29 1.35,-0.54 2.03,-0.78 0.27,-0.11 0.56,-0.2 0.84,-0.29 a 3.58,3.58 0 0 1 0.35,-0.11 c 0.42,-0.15 0.86,-0.27 1.28,-0.4 h 0.03 c 0.48,-0.14 0.97,-0.26 1.46,-0.38 0.29,-0.07 0.56,-0.14 0.84,-0.19 l 1.18,-0.23 0.67,-0.12 c 0.41,-0.07 0.82,-0.12 1.23,-0.18 0.34,-0.05 0.68,-0.1 1.04,-0.12 l 0.74,-0.08 c 0.31,-0.03 0.64,-0.05 0.97,-0.07 l 0.79,-0.04 c 0.22,-0.01 0.44,-0.01 0.67,-0.03 0.35,-0.01 0.71,-0.01 1.08,-0.01 22.87,0 41.41,19.49 41.41,43.54 0,0.75 -0.01,1.5 -0.05,2.25 v 0.1 a 69.57,69.57 0 0 1 -0.16,2.11 c -0.05,0.65 -0.14,1.31 -0.23,1.96 l -0.04,0.29 c 0,0.04 -0.01,0.1 -0.03,0.14 a 3.98,3.98 0 0 1 -0.05,0.34 c 0,0.03 -0.01,0.05 -0.01,0.08 a 23.75,23.75 0 0 1 -0.26,1.51 46.31,46.31 0 0 1 -0.46,2.11 21.74,21.74 0 0 1 -0.4,1.44 c -0.01,0.08 -0.04,0.16 -0.07,0.25 -0.01,0.08 -0.04,0.16 -0.07,0.24 -0.03,0.12 -0.07,0.23 -0.1,0.35 -0.14,0.49 -0.3,0.98 -0.46,1.46 0,0.01 0,0.01 -0.01,0.03 -0.08,0.23 -0.16,0.49 -0.26,0.72 -0.04,0.11 -0.07,0.22 -0.11,0.33 -0.12,0.34 -0.26,0.68 -0.39,1.01 l -0.2,0.5 a 11.73,11.73 0 0 1 -0.41,0.97 c -0.15,0.38 -0.33,0.75 -0.5,1.12 -0.14,0.3 -0.27,0.6 -0.44,0.9 -0.14,0.3 -0.29,0.6 -0.46,0.89 a 14.27,14.27 0 0 1 -0.59,1.09 c -0.01,0.03 -0.03,0.04 -0.04,0.07 -0.11,0.2 -0.23,0.42 -0.37,0.63 -0.2,0.38 -0.44,0.75 -0.67,1.12 -0.01,0.03 -0.03,0.04 -0.04,0.07 l -0.44,0.67 c -0.01,0.01 -0.01,0.03 -0.03,0.04 a 17.59,17.59 0 0 1 -0.71,1.05 c -0.1,0.15 -0.2,0.3 -0.33,0.45 -0.29,0.41 -0.59,0.82 -0.9,1.21 -0.01,0.01 -0.01,0.01 -0.01,0.03 -0.35,0.44 -0.69,0.89 -1.06,1.31 -0.03,0.03 -0.04,0.05 -0.07,0.08 -0.26,0.31 -0.53,0.63 -0.83,0.94 a 20.28,20.28 0 0 1 -0.65,0.74 c -0.07,0.07 -0.14,0.15 -0.2,0.22 l -1.02,1.04 -0.04,0.04 a 6.72,6.72 0 0 0 -0.33,0.31 z m 125.07,72.62 c -0.05,0.38 -0.25,0.72 -0.52,0.95 -0.3,0.26 -0.69,0.41 -1.12,0.38 l -2.71,-0.18 -147.31,-9.38 a 1.52,1.52 0 0 1 -0.52,-0.12 c -0.1,-0.04 -0.19,-0.1 -0.27,-0.16 -0.1,-0.05 -0.18,-0.12 -0.25,-0.22 a 0.42,0.42 0 0 1 -0.12,-0.15 c -0.05,-0.05 -0.08,-0.11 -0.11,-0.16 -0.08,-0.15 -0.14,-0.33 -0.16,-0.5 l -4.85,-35 a 1.5,1.5 0 0 1 0.44,-1.29 1.54,1.54 0 0 1 1.2,-0.45 l 159.26,11.8 c 0.11,0 0.19,0.03 0.29,0.05 h 0.01 a 1.41,1.41 0 0 1 0.5,0.26 1.19,1.19 0 0 1 0.2,0.19 c 0.07,0.07 0.12,0.15 0.18,0.22 0.05,0.08 0.1,0.16 0.12,0.26 0.04,0.1 0.07,0.18 0.08,0.27 a 1.62,1.62 0 0 1 0.03,0.49 z m 24.65,-102.6 v 0.1 a 69.57,69.57 0 0 1 -0.16,2.11 c -0.05,0.65 -0.14,1.31 -0.23,1.96 l -0.04,0.29 c 0,0.04 -0.01,0.1 -0.03,0.14 a 3.98,3.98 0 0 1 -0.05,0.34 c 0,0.03 -0.01,0.05 -0.01,0.08 a 23.75,23.75 0 0 1 -0.26,1.51 46.31,46.31 0 0 1 -0.46,2.11 21.74,21.74 0 0 1 -0.4,1.44 c -0.01,0.08 -0.04,0.16 -0.07,0.25 -0.01,0.08 -0.04,0.16 -0.07,0.24 -0.03,0.12 -0.07,0.23 -0.1,0.35 -0.14,0.49 -0.3,0.98 -0.46,1.46 0,0.01 0,0.01 -0.01,0.03 -0.08,0.23 -0.16,0.49 -0.26,0.72 -0.04,0.11 -0.07,0.22 -0.11,0.33 -0.12,0.34 -0.26,0.68 -0.4,1.01 l -0.2,0.5 a 11.73,11.73 0 0 1 -0.41,0.97 c -0.15,0.38 -0.33,0.75 -0.5,1.12 -0.14,0.3 -0.27,0.6 -0.44,0.9 -0.14,0.3 -0.29,0.6 -0.46,0.89 a 14.27,14.27 0 0 1 -0.59,1.09 c -0.01,0.03 -0.03,0.04 -0.04,0.07 -0.11,0.2 -0.23,0.42 -0.37,0.63 -0.2,0.38 -0.44,0.75 -0.67,1.12 -0.01,0.03 -0.03,0.04 -0.04,0.07 l -0.44,0.67 c -0.01,0.01 -0.01,0.03 -0.03,0.04 a 17.59,17.59 0 0 1 -0.71,1.05 c -0.1,0.15 -0.2,0.3 -0.33,0.45 -0.29,0.41 -0.59,0.82 -0.9,1.21 -0.01,0.01 -0.01,0.01 -0.01,0.03 -0.35,0.44 -0.69,0.89 -1.06,1.31 -0.03,0.03 -0.04,0.05 -0.07,0.08 -0.26,0.31 -0.53,0.63 -0.83,0.94 a 20.28,20.28 0 0 1 -0.65,0.74 c -0.07,0.07 -0.14,0.15 -0.2,0.22 l -1.02,1.04 -0.04,0.04 -0.38,0.37 a 23.26,23.26 0 0 1 -0.9,0.83 25.99,25.99 0 0 1 -1.38,1.18 c -0.05,0.04 -0.12,0.1 -0.16,0.12 l -0.03,0.03 c -0.45,0.38 -0.93,0.75 -1.4,1.1 -0.04,0.01 -0.07,0.04 -0.1,0.07 -0.5,0.38 -1.02,0.75 -1.55,1.1 -0.01,0 -0.01,0.01 -0.03,0.01 -0.27,0.19 -0.54,0.37 -0.81,0.54 l -0.82,0.5 c -0.01,0 -0.03,0.01 -0.04,0.03 -0.54,0.33 -1.09,0.64 -1.65,0.94 -0.04,0.03 -0.08,0.04 -0.12,0.07 -0.54,0.3 -1.1,0.59 -1.66,0.86 a 0.46,0.46 0 0 0 -0.14,0.07 c -0.52,0.25 -1.05,0.48 -1.58,0.69 l -0.29,0.12 a 24.3,24.3 0 0 1 -1.28,0.5 l -1.01,0.35 c -0.08,0.04 -0.18,0.07 -0.27,0.1 -0.31,0.11 -0.64,0.22 -0.97,0.31 a 3.72,3.72 0 0 1 -0.31,0.1 c -0.05,0.01 -0.11,0.04 -0.15,0.05 -0.07,0.01 -0.14,0.04 -0.19,0.05 -0.05,0.01 -0.12,0.04 -0.18,0.05 h -0.03 c -0.07,0.03 -0.15,0.04 -0.23,0.07 -0.07,0.01 -0.14,0.04 -0.2,0.05 -0.07,0.01 -0.14,0.04 -0.22,0.05 h -0.03 c -0.03,0.01 -0.05,0.01 -0.08,0.03 -0.04,0.01 -0.1,0.03 -0.15,0.04 -0.03,0.01 -0.05,0.01 -0.1,0.03 -0.08,0.01 -0.16,0.04 -0.25,0.05 0,0.01 -0.01,0.01 -0.03,0.01 -0.05,0.01 -0.11,0.03 -0.16,0.04 -0.45,0.11 -0.9,0.2 -1.35,0.3 h -0.01 c -0.56,0.12 -1.12,0.22 -1.69,0.31 l -0.95,0.14 c -0.15,0.03 -0.29,0.04 -0.44,0.05 -0.23,0.04 -0.46,0.07 -0.68,0.08 -0.12,0.01 -0.23,0.03 -0.34,0.04 -0.11,0.01 -0.22,0.03 -0.31,0.03 l -1.44,0.11 h -0.1 a 34.72,34.72 0 0 1 -2.04,0.05 c -0.46,0 -0.94,-0.01 -1.4,-0.03 -0.44,-0.01 -0.86,-0.04 -1.29,-0.07 l -1.54,-0.14 a 18.39,18.39 0 0 1 -1.04,-0.12 c -0.52,-0.07 -1.05,-0.15 -1.57,-0.24 -0.34,-0.05 -0.68,-0.12 -1.02,-0.19 a 33.16,33.16 0 0 1 -2.98,-0.72 c -0.31,-0.08 -0.61,-0.18 -0.91,-0.27 -0.75,-0.23 -1.5,-0.49 -2.25,-0.78 l -1.18,-0.46 c -0.22,-0.08 -0.42,-0.18 -0.64,-0.27 l -1.5,-0.68 -1.53,-0.79 c -2.7,-1.44 -5.22,-3.2 -7.53,-5.22 -0.5,-0.42 -0.98,-0.87 -1.46,-1.32 -0.05,-0.04 -0.1,-0.1 -0.14,-0.14 -0.33,-0.31 -0.64,-0.63 -0.95,-0.94 l -0.4,-0.41 c -0.44,-0.46 -0.86,-0.93 -1.28,-1.4 -0.04,-0.05 -0.08,-0.11 -0.14,-0.16 a 32.52,32.52 0 0 1 -1.16,-1.42 c -0.04,-0.04 -0.08,-0.1 -0.11,-0.14 a 28.12,28.12 0 0 1 -1.17,-1.58 c -0.01,-0.01 -0.03,-0.04 -0.04,-0.05 -0.37,-0.5 -0.71,-1.02 -1.05,-1.54 a 2.69,2.69 0 0 1 -0.14,-0.22 c -0.35,-0.54 -0.68,-1.1 -1.01,-1.66 a 18.35,18.35 0 0 1 -0.64,-1.14 c -0.03,-0.04 -0.05,-0.1 -0.07,-0.14 -0.01,-0.03 -0.04,-0.05 -0.04,-0.07 -0.08,-0.16 -0.16,-0.32 -0.25,-0.47 -0.03,-0.05 -0.05,-0.1 -0.08,-0.15 -0.22,-0.42 -0.44,-0.84 -0.63,-1.28 l -0.6,-1.33 c -0.04,-0.04 -0.05,-0.1 -0.07,-0.15 -0.19,-0.46 -0.4,-0.94 -0.57,-1.42 -0.05,-0.1 -0.1,-0.19 -0.12,-0.3 -0.15,-0.38 -0.29,-0.75 -0.42,-1.14 -0.2,-0.57 -0.4,-1.14 -0.56,-1.73 -0.01,-0.03 -0.03,-0.07 -0.03,-0.1 -0.05,-0.19 -0.11,-0.38 -0.16,-0.57 -0.04,-0.1 -0.07,-0.19 -0.08,-0.29 -0.12,-0.38 -0.23,-0.78 -0.31,-1.17 -0.05,-0.18 -0.1,-0.35 -0.14,-0.53 -0.14,-0.56 -0.27,-1.1 -0.37,-1.68 -0.03,-0.14 -0.05,-0.29 -0.08,-0.44 l -0.1,-0.5 c -0.03,-0.15 -0.04,-0.3 -0.07,-0.45 -0.03,-0.07 -0.04,-0.15 -0.04,-0.23 -0.01,-0.04 -0.03,-0.08 -0.01,-0.14 l -0.14,-0.89 c -0.01,-0.03 -0.01,-0.04 -0.01,-0.07 a 0.11,0.11 0 0 1 0,-0.08 c -0.03,-0.07 -0.03,-0.12 -0.04,-0.19 v -0.05 c -0.01,-0.1 -0.03,-0.18 -0.03,-0.27 -0.01,-0.01 -0.01,-0.03 0,-0.04 -0.03,-0.07 -0.04,-0.14 -0.03,-0.2 l -0.12,-1.14 c -0.03,-0.08 -0.03,-0.16 -0.03,-0.25 a 0.11,0.11 0 0 1 0,-0.08 c -0.01,-0.01 -0.01,-0.01 0,-0.03 v -0.01 c -0.01,-0.18 -0.04,-0.34 -0.04,-0.52 -0.01,-0.03 -0.03,-0.07 -0.01,-0.1 -0.01,-0.05 -0.01,-0.12 -0.01,-0.18 -0.03,-0.33 -0.04,-0.64 -0.05,-0.95 -0.01,-0.01 -0.01,-0.01 0,-0.03 0,-0.01 -0.01,-0.01 -0.01,-0.02 0,-0.02 0.01,-0.02 0.01,-0.02 -0.01,-0.01 0,-0.03 0,-0.03 l -0.01,-0.01 -0.03,-1.97 c 0,-0.64 0.01,-1.28 0.04,-1.92 h -0.01 l 0.01,-0.02 c -0.01,-0.02 0,-0.02 0,-0.02 -0.01,-0.01 0,-0.03 0,-0.03 -0.01,-0.01 -0.01,-0.03 0,-0.04 -0.01,-0.03 -0.01,-0.04 0,-0.05 v -0.03 l 0.04,-0.57 v -0.05 a 0.87,0.87 0 0 1 0.01,-0.23 l 0.08,-1.14 c 0,-0.04 0,-0.07 0.01,-0.1 0,-0.04 0.01,-0.08 0.01,-0.12 v -0.04 c -0.01,-0.01 -0.01,-0.03 0,-0.04 v -0.03 c 0.01,-0.01 0.01,-0.03 0.01,-0.04 -0.01,-0.01 -0.01,-0.02 0,-0.02 0,-0.04 0.01,-0.05 0.01,-0.08 -0.01,-0.08 0,-0.13 0.02,-0.19 -0.01,-0.01 -0.01,-0.01 0,-0.03 0.01,-0.03 0.01,-0.05 0.01,-0.08 -0.01,-0.01 0,-0.03 0,-0.03 0,-0.01 0.01,-0.01 0.01,-0.04 0,-0.04 0,-0.08 0.01,-0.12 a 1.03,1.03 0 0 1 0.03,-0.26 c 0,-0.03 0.01,-0.07 0.01,-0.1 0,-0.03 0.01,-0.07 0.01,-0.1 v -0.03 c 0.03,-0.11 0.04,-0.23 0.04,-0.35 -0.01,-0.05 0,-0.1 0.01,-0.14 0.01,-0.01 0.01,-0.03 0.01,-0.03 v -0.03 a 1.53,1.53 0 0 1 0.04,-0.38 c 0,-0.07 0.01,-0.12 0.03,-0.18 0,-0.08 0.01,-0.16 0.04,-0.23 0.01,-0.03 0.01,-0.05 0.01,-0.08 0.01,-0.1 0.03,-0.18 0.04,-0.27 0,-0.07 0.01,-0.12 0.03,-0.19 0.03,-0.22 0.07,-0.44 0.11,-0.65 l 0.12,-0.67 c 0.01,-0.03 0.01,-0.07 0.03,-0.1 0.03,-0.12 0.05,-0.26 0.08,-0.38 0,-0.03 0.01,-0.07 0.01,-0.1 0.04,-0.23 0.1,-0.46 0.15,-0.69 0.01,-0.01 0.01,-0.01 0.01,-0.03 0.01,-0.04 0.01,-0.07 0.03,-0.11 0.01,-0.05 0.01,-0.08 0.03,-0.14 v -0.01 c 0.04,-0.19 0.1,-0.38 0.14,-0.56 0.15,-0.61 0.31,-1.21 0.48,-1.81 0.03,-0.05 0.04,-0.12 0.05,-0.18 a 0.68,0.68 0 0 1 0.07,-0.2 c 0.01,-0.04 0.03,-0.08 0.03,-0.12 0.03,-0.04 0.03,-0.1 0.04,-0.15 -0.01,-0.01 0,-0.01 0.01,-0.03 0,-0.01 0,-0.01 0.01,-0.03 v -0.01 c 0.01,-0.03 0.01,-0.04 0.03,-0.07 v -0.01 c 0.01,-0.04 0.03,-0.07 0.04,-0.11 0.1,-0.33 0.19,-0.64 0.3,-0.95 0.04,-0.16 0.1,-0.31 0.16,-0.48 0.11,-0.33 0.23,-0.64 0.35,-0.97 0.01,-0.03 0.03,-0.07 0.04,-0.1 0.03,-0.07 0.05,-0.15 0.08,-0.22 0.04,-0.16 0.11,-0.31 0.18,-0.48 0,-0.01 0,-0.04 0.03,-0.05 0.01,-0.03 0.03,-0.08 0.04,-0.11 0.08,-0.21 0.16,-0.43 0.27,-0.65 0,-0.04 0.01,-0.07 0.04,-0.11 a 18.77,18.77 0 0 1 0.34,-0.79 c 0.01,-0.01 0.03,-0.03 0.03,-0.04 0,-0.01 0.01,-0.04 0.01,-0.05 0.16,-0.37 0.34,-0.74 0.52,-1.1 l 0.25,-0.49 c 0.04,-0.11 0.1,-0.22 0.16,-0.33 0.1,-0.2 0.2,-0.41 0.31,-0.61 0.07,-0.14 0.14,-0.27 0.23,-0.41 0.04,-0.08 0.08,-0.16 0.12,-0.23 a 13.82,13.82 0 0 1 0.67,-1.16 l 0.22,-0.37 c 0.03,-0.07 0.07,-0.14 0.11,-0.19 a 5.4,5.4 0 0 1 0.23,-0.37 c 0.01,-0.05 0.05,-0.1 0.1,-0.15 0.1,-0.16 0.2,-0.33 0.31,-0.49 0.05,-0.11 0.14,-0.23 0.22,-0.34 0.2,-0.33 0.42,-0.64 0.65,-0.95 l 0.01,-0.01 c 0.03,-0.04 0.05,-0.08 0.08,-0.12 l 0.93,-1.27 c 0.04,-0.05 0.08,-0.11 0.12,-0.16 l 0.42,-0.53 c 0.25,-0.31 0.5,-0.64 0.76,-0.94 l 0.8,-0.93 0.94,-1.04 a 16.68,16.68 0 0 0 0.72,-0.74 c 0.29,-0.29 0.59,-0.57 0.87,-0.84 a 16.93,16.93 0 0 1 0.89,-0.82 c 0.16,-0.15 0.33,-0.29 0.49,-0.42 a 14.2,14.2 0 0 1 0.75,-0.64 c 0.38,-0.33 0.78,-0.64 1.18,-0.94 l 1.23,-0.91 a 35.62,35.62 0 0 1 1.81,-1.21 c 0.2,-0.14 0.41,-0.26 0.61,-0.38 0.04,-0.03 0.07,-0.04 0.11,-0.07 0.38,-0.23 0.78,-0.46 1.17,-0.68 0.49,-0.29 0.99,-0.55 1.5,-0.8 0.6,-0.31 1.21,-0.6 1.83,-0.87 0.31,-0.14 0.63,-0.27 0.94,-0.4 0.67,-0.29 1.35,-0.54 2.03,-0.78 0.27,-0.11 0.56,-0.2 0.84,-0.29 a 3.58,3.58 0 0 1 0.35,-0.11 c 0.42,-0.15 0.86,-0.27 1.28,-0.4 h 0.03 c 0.48,-0.14 0.97,-0.26 1.46,-0.38 0.29,-0.07 0.56,-0.14 0.84,-0.19 l 1.18,-0.23 0.67,-0.12 c 0.41,-0.07 0.82,-0.12 1.23,-0.18 0.34,-0.05 0.68,-0.1 1.04,-0.12 l 0.74,-0.08 c 0.31,-0.03 0.64,-0.05 0.97,-0.07 l 0.79,-0.04 c 0.22,-0.01 0.44,-0.01 0.67,-0.03 0.35,-0.01 0.71,-0.01 1.08,-0.01 22.87,0 41.41,19.49 41.41,43.54 a 16.58,16.58 0 0 1 0.01,2.23 z m -218.92,-4.17 h -0.01 c -0.03,0.64 -0.04,1.28 -0.04,1.92 0,0.65 0.01,1.31 0.04,1.96 h 0.01 c -0.03,-0.65 -0.04,-1.31 -0.04,-1.96 0,-0.64 0.01,-1.28 0.04,-1.92 z m 0.02,-0.78 c -0.01,0.1 -0.01,0.19 -0.01,0.29 -0.01,0.1 -0.01,0.19 -0.01,0.29 l 0.04,-0.57 v -0.05 c -0.02,0 -0.02,0.01 -0.02,0.04 z m 0.06,6.02 c -0.01,-0.03 -0.03,-0.07 -0.01,-0.1 a 3.73,3.73 0 0 0 0.04,0.57 c 0,0.01 0,0.03 0.01,0.04 -0.01,-0.17 -0.04,-0.33 -0.04,-0.51 z m -0.03,-0.19 a 0.34,0.34 0 0 0 0.01,0.1 c -0.01,-0.05 -0.01,-0.12 -0.01,-0.18 z m 0.11,-7.61 v 0.03 c 0.01,-0.01 0.01,-0.03 0.01,-0.04 z m 0.06,-0.48 c 0,0 -0.01,0.01 0,0.03 0,-0.01 0.01,-0.01 0.01,-0.04 z m -0.07,9.17 c 0,0.22 0.03,0.42 0.05,0.64 0.01,0.16 0.03,0.34 0.07,0.5 z m 0.17,-10.09 c -0.01,0.08 -0.03,0.16 -0.03,0.25 -0.01,0.01 -0.01,0.03 -0.01,0.05 0.04,-0.1 0.05,-0.22 0.05,-0.34 -0.01,0.01 -0.01,0.02 -0.01,0.04 z m 0.03,-0.21 c 0,0 -0.01,0.01 0,0.03 0.01,-0.01 0.01,-0.03 0.01,-0.03 z m 0.17,13.24 -0.14,-0.89 c 0.01,0.12 0.03,0.25 0.04,0.38 l 0.11,0.64 c -0.01,-0.03 -0.03,-0.08 -0.01,-0.13 z m 0.28,-16.02 c 0,0.03 -0.01,0.07 -0.01,0.1 0.01,-0.03 0.01,-0.07 0.03,-0.1 z m 0.45,-2.01 c -0.04,0.14 -0.07,0.27 -0.1,0.41 -0.01,0.04 -0.03,0.1 -0.03,0.15 0.04,-0.19 0.1,-0.38 0.14,-0.56 0.15,-0.61 0.31,-1.21 0.48,-1.81 -0.18,0.59 -0.34,1.19 -0.49,1.81 z m 0.59,-2.16 c -0.01,0.05 -0.03,0.11 -0.04,0.16 a 0.68,0.68 0 0 1 0.07,-0.2 c 0.01,-0.04 0.03,-0.08 0.03,-0.12 -0.04,0.06 -0.05,0.11 -0.06,0.16 z m 1.36,-3.92 c -0.01,0.05 -0.04,0.11 -0.05,0.16 0,-0.01 0,-0.04 0.03,-0.05 0.01,-0.03 0.03,-0.08 0.04,-0.11 z m 133,15.04 h -0.01 c -0.03,0.64 -0.04,1.28 -0.04,1.92 0,0.65 0.01,1.31 0.04,1.96 h 0.01 c -0.03,-0.65 -0.04,-1.31 -0.04,-1.96 0,-0.64 0.02,-1.28 0.04,-1.92 z m 0.03,-0.78 c -0.01,0.1 -0.01,0.19 -0.01,0.29 -0.01,0.1 -0.01,0.19 -0.01,0.29 l 0.04,-0.57 v -0.05 c -0.02,0 -0.02,0.01 -0.02,0.04 z m 0.05,6.02 c -0.01,-0.03 -0.03,-0.07 -0.01,-0.1 a 3.73,3.73 0 0 0 0.04,0.57 c 0,0.01 0,0.03 0.01,0.04 -0.01,-0.17 -0.04,-0.33 -0.04,-0.51 z m -0.02,-0.19 a 0.34,0.34 0 0 0 0.01,0.1 c -0.01,-0.05 -0.01,-0.12 -0.01,-0.18 z m 0.11,-7.61 v 0.03 c 0.01,-0.01 0.01,-0.03 0.01,-0.04 z m 0.05,-0.48 c 0,0 -0.01,0.01 0,0.03 0,-0.01 0.01,-0.01 0.01,-0.04 z m -0.07,9.17 c 0,0.22 0.03,0.42 0.05,0.64 0.01,0.16 0.03,0.34 0.07,0.5 z m 0.18,-10.09 c -0.01,0.08 -0.03,0.16 -0.03,0.25 -0.01,0.01 -0.01,0.03 -0.01,0.05 0.04,-0.1 0.05,-0.22 0.05,-0.34 -0.01,0.01 -0.01,0.02 -0.01,0.04 z m 0.03,-0.21 c 0,0 -0.01,0.01 0,0.03 0.01,-0.01 0.01,-0.03 0.01,-0.03 z m 0.16,13.24 -0.14,-0.89 c 0.01,0.12 0.03,0.25 0.04,0.38 l 0.11,0.64 c -0.01,-0.03 -0.02,-0.08 -0.01,-0.13 z m 0.29,-16.02 c 0,0.03 -0.01,0.07 -0.01,0.1 0.01,-0.03 0.01,-0.07 0.03,-0.1 z m 0.45,-2.01 c -0.04,0.14 -0.07,0.27 -0.1,0.41 -0.01,0.04 -0.03,0.1 -0.03,0.15 0.04,-0.19 0.1,-0.38 0.14,-0.56 0.15,-0.61 0.31,-1.21 0.48,-1.81 -0.18,0.59 -0.34,1.19 -0.49,1.81 z m 0.58,-2.16 c -0.01,0.05 -0.03,0.11 -0.04,0.16 a 0.68,0.68 0 0 1 0.07,-0.2 c 0.01,-0.04 0.03,-0.08 0.03,-0.12 a 0.64,0.64 0 0 0 -0.06,0.16 z m 1.36,-3.92 c -0.01,0.05 -0.04,0.11 -0.05,0.16 0,-0.01 0,-0.04 0.03,-0.05 0.01,-0.03 0.03,-0.08 0.04,-0.11 z m -139.38,14.26 c -0.01,0.1 -0.01,0.19 -0.01,0.29 -0.01,0.1 -0.01,0.19 -0.01,0.29 l 0.04,-0.57 h -0.02 z m -0.02,0.78 h -0.01 c -0.03,0.64 -0.04,1.28 -0.04,1.92 0,0.65 0.01,1.31 0.04,1.96 h 0.01 c -0.03,-0.65 -0.04,-1.31 -0.04,-1.96 0,-0.64 0.01,-1.28 0.04,-1.92 z m 0.08,5.24 c -0.01,-0.03 -0.03,-0.07 -0.01,-0.1 a 3.73,3.73 0 0 0 0.04,0.57 c 0,0.01 0,0.03 0.01,0.04 -0.01,-0.17 -0.04,-0.33 -0.04,-0.51 z m -0.03,-0.19 a 0.34,0.34 0 0 0 0.01,0.1 c -0.01,-0.05 -0.01,-0.12 -0.01,-0.18 z m 0.17,-8.09 c 0,0 -0.01,0.01 0,0.03 0,-0.01 0.01,-0.01 0.01,-0.04 z m -0.06,0.48 v 0.03 c 0.01,-0.01 0.01,-0.03 0.01,-0.04 z m -0.01,8.69 c 0,0.22 0.03,0.42 0.05,0.64 0.01,0.16 0.03,0.34 0.07,0.5 z m 0.17,-10.09 c -0.01,0.08 -0.03,0.16 -0.03,0.25 -0.01,0.01 -0.01,0.03 -0.01,0.05 0.04,-0.1 0.05,-0.22 0.05,-0.34 -0.01,0.01 -0.01,0.02 -0.01,0.04 z m 0.2,13.03 -0.14,-0.89 c 0.01,0.12 0.03,0.25 0.04,0.38 l 0.11,0.64 c -0.01,-0.03 -0.03,-0.08 -0.01,-0.13 z m 0.28,-16.02 c 0,0.03 -0.01,0.07 -0.01,0.1 0.01,-0.03 0.01,-0.07 0.03,-0.1 z m 0.45,-2.01 c -0.04,0.14 -0.07,0.27 -0.1,0.41 -0.01,0.04 -0.03,0.1 -0.03,0.15 0.04,-0.19 0.1,-0.38 0.14,-0.56 0.15,-0.61 0.31,-1.21 0.48,-1.81 -0.18,0.59 -0.34,1.19 -0.49,1.81 z m 0.59,-2.16 c -0.01,0.05 -0.03,0.11 -0.04,0.16 a 0.68,0.68 0 0 1 0.07,-0.2 c 0.01,-0.04 0.03,-0.08 0.03,-0.12 -0.04,0.06 -0.05,0.11 -0.06,0.16 z m 1.36,-3.92 c -0.01,0.05 -0.04,0.11 -0.05,0.16 0,-0.01 0,-0.04 0.03,-0.05 0.01,-0.03 0.03,-0.08 0.04,-0.11 z m 133.03,14.26 c -0.01,0.1 -0.01,0.19 -0.01,0.29 -0.01,0.1 -0.01,0.19 -0.01,0.29 l 0.04,-0.57 h -0.02 z m -0.03,0.78 h -0.01 c -0.03,0.64 -0.04,1.28 -0.04,1.92 0,0.65 0.01,1.31 0.04,1.96 h 0.01 c -0.03,-0.65 -0.04,-1.31 -0.04,-1.96 0,-0.64 0.02,-1.28 0.04,-1.92 z m 0.08,5.24 c -0.01,-0.03 -0.03,-0.07 -0.01,-0.1 a 3.73,3.73 0 0 0 0.04,0.57 c 0,0.01 0,0.03 0.01,0.04 -0.01,-0.17 -0.04,-0.33 -0.04,-0.51 z m -0.02,-0.19 a 0.34,0.34 0 0 0 0.01,0.1 c -0.01,-0.05 -0.01,-0.12 -0.01,-0.18 z m 0.16,-8.09 c 0,0 -0.01,0.01 0,0.03 0,-0.01 0.01,-0.01 0.01,-0.04 z m -0.05,0.48 v 0.03 c 0.01,-0.01 0.01,-0.03 0.01,-0.04 z m -0.02,8.69 c 0,0.22 0.03,0.42 0.05,0.64 0.01,0.16 0.03,0.34 0.07,0.5 z m 0.18,-10.09 c -0.01,0.08 -0.03,0.16 -0.03,0.25 -0.01,0.01 -0.01,0.03 -0.01,0.05 0.04,-0.1 0.05,-0.22 0.05,-0.34 -0.01,0.01 -0.01,0.02 -0.01,0.04 z m 0.19,13.03 -0.14,-0.89 c 0.01,0.12 0.03,0.25 0.04,0.38 l 0.11,0.64 c -0.01,-0.03 -0.02,-0.08 -0.01,-0.13 z m 0.29,-16.02 c 0,0.03 -0.01,0.07 -0.01,0.1 0.01,-0.03 0.01,-0.07 0.03,-0.1 z m 0.45,-2.01 c -0.04,0.14 -0.07,0.27 -0.1,0.41 -0.01,0.04 -0.03,0.1 -0.03,0.15 0.04,-0.19 0.1,-0.38 0.14,-0.56 0.15,-0.61 0.31,-1.21 0.48,-1.81 -0.18,0.59 -0.34,1.19 -0.49,1.81 z m 0.58,-2.16 c -0.01,0.05 -0.03,0.11 -0.04,0.16 a 0.68,0.68 0 0 1 0.07,-0.2 c 0.01,-0.04 0.03,-0.08 0.03,-0.12 a 0.64,0.64 0 0 0 -0.06,0.16 z m 1.36,-3.92 c -0.01,0.05 -0.04,0.11 -0.05,0.16 0,-0.01 0,-0.04 0.03,-0.05 0.01,-0.03 0.03,-0.08 0.04,-0.11 z m -139.32,20.28 c -0.01,-0.03 -0.03,-0.07 -0.01,-0.1 a 3.73,3.73 0 0 0 0.04,0.57 c 0,0.01 0,0.03 0.01,0.04 -0.01,-0.17 -0.04,-0.33 -0.04,-0.51 z m -0.03,-0.19 c 0,0.03 0,0.07 0.01,0.1 -0.01,-0.05 -0.01,-0.12 -0.01,-0.18 z m -0.03,-5.83 c -0.01,0.1 -0.01,0.19 -0.01,0.29 -0.01,0.1 -0.01,0.19 -0.01,0.29 l 0.04,-0.57 h -0.02 z m -0.04,4.67 v 0.04 0.03 c 0,-0.02 0.01,-0.02 0.01,-0.02 -0.01,-0.01 0,-0.03 0,-0.03 z m 0.02,-3.89 h -0.01 c -0.03,0.64 -0.04,1.28 -0.04,1.92 0,0.65 0.01,1.31 0.04,1.96 v 0.01 l -0.03,-1.97 c 0,-0.64 0.01,-1.28 0.04,-1.92 z m 0.22,-3.04 c 0,0 -0.01,0.01 0,0.03 0,-0.01 0.01,-0.01 0.01,-0.04 z m -0.06,0.48 v 0.03 c 0.01,-0.01 0.01,-0.03 0.01,-0.04 z m -0.01,8.69 c 0,0.22 0.03,0.42 0.05,0.64 0.01,0.16 0.03,0.34 0.07,0.5 z m 0.17,1.71 c 0.01,0.08 0.03,0.18 0.04,0.27 a 0.11,0.11 0 0 1 0,-0.08 c -0.02,-0.06 -0.02,-0.12 -0.04,-0.19 z m 0.2,1.23 -0.14,-0.89 c 0.01,0.12 0.03,0.25 0.04,0.38 l 0.11,0.64 c -0.01,-0.03 -0.03,-0.08 -0.01,-0.13 z m -0.2,-13.03 c -0.01,0.08 -0.03,0.16 -0.03,0.25 -0.01,0.01 -0.01,0.03 -0.01,0.05 0.04,-0.1 0.05,-0.22 0.05,-0.34 -0.01,0.01 -0.01,0.02 -0.01,0.04 z m 0.48,-2.99 c 0,0.03 -0.01,0.07 -0.01,0.1 0.01,-0.03 0.01,-0.07 0.03,-0.1 z m 0.45,-2.01 c -0.04,0.14 -0.07,0.27 -0.1,0.41 -0.01,0.04 -0.03,0.1 -0.03,0.15 0.04,-0.19 0.1,-0.38 0.14,-0.56 0.15,-0.61 0.31,-1.21 0.48,-1.81 -0.18,0.59 -0.34,1.19 -0.49,1.81 z m 0.59,-2.16 c -0.01,0.05 -0.03,0.11 -0.04,0.16 a 0.68,0.68 0 0 1 0.07,-0.2 c 0.01,-0.04 0.03,-0.08 0.03,-0.12 -0.04,0.06 -0.05,0.11 -0.06,0.16 z m 1.36,-3.92 c -0.01,0.05 -0.04,0.11 -0.05,0.16 0,-0.01 0,-0.04 0.03,-0.05 0.01,-0.03 0.03,-0.08 0.04,-0.11 z m 133.08,20.28 c -0.01,-0.03 -0.03,-0.07 -0.01,-0.1 a 3.73,3.73 0 0 0 0.04,0.57 c 0,0.01 0,0.03 0.01,0.04 -0.01,-0.17 -0.04,-0.33 -0.04,-0.51 z m -0.02,-0.19 a 0.34,0.34 0 0 0 0.01,0.1 c -0.01,-0.05 -0.01,-0.12 -0.01,-0.18 z m -0.03,-5.83 c -0.01,0.1 -0.01,0.19 -0.01,0.29 -0.01,0.1 -0.01,0.19 -0.01,0.29 l 0.04,-0.57 h -0.02 z m -0.04,4.67 v 0.04 0.03 c 0,-0.02 0.01,-0.02 0.01,-0.02 -0.01,-0.01 0,-0.03 0,-0.03 z m 0.01,-3.89 h -0.01 c -0.03,0.64 -0.04,1.28 -0.04,1.92 0,0.65 0.01,1.31 0.04,1.96 v 0.01 l -0.03,-1.97 c 0,-0.64 0.02,-1.28 0.04,-1.92 z m 0.22,-3.04 c 0,0 -0.01,0.01 0,0.03 0,-0.01 0.01,-0.01 0.01,-0.04 z m -0.05,0.48 v 0.03 c 0.01,-0.01 0.01,-0.03 0.01,-0.04 z m -0.02,8.69 c 0,0.22 0.03,0.42 0.05,0.64 0.01,0.16 0.03,0.34 0.07,0.5 z m 0.18,1.71 c 0.01,0.08 0.03,0.18 0.04,0.27 a 0.11,0.11 0 0 1 0,-0.08 c -0.03,-0.06 -0.03,-0.12 -0.04,-0.19 z m 0.19,1.23 -0.14,-0.89 c 0.01,0.12 0.03,0.25 0.04,0.38 l 0.11,0.64 c -0.01,-0.03 -0.02,-0.08 -0.01,-0.13 z m -0.19,-13.03 c -0.01,0.08 -0.03,0.16 -0.03,0.25 -0.01,0.01 -0.01,0.03 -0.01,0.05 0.04,-0.1 0.05,-0.22 0.05,-0.34 -0.01,0.01 -0.01,0.02 -0.01,0.04 z m 0.48,-2.99 c 0,0.03 -0.01,0.07 -0.01,0.1 0.01,-0.03 0.01,-0.07 0.03,-0.1 z m 0.45,-2.01 c -0.04,0.14 -0.07,0.27 -0.1,0.41 -0.01,0.04 -0.03,0.1 -0.03,0.15 0.04,-0.19 0.1,-0.38 0.14,-0.56 0.15,-0.61 0.31,-1.21 0.48,-1.81 -0.18,0.59 -0.34,1.19 -0.49,1.81 z m 0.58,-2.16 c -0.01,0.05 -0.03,0.11 -0.04,0.16 a 0.68,0.68 0 0 1 0.07,-0.2 c 0.01,-0.04 0.03,-0.08 0.03,-0.12 a 0.64,0.64 0 0 0 -0.06,0.16 z m 1.36,-3.92 c -0.01,0.05 -0.04,0.11 -0.05,0.16 0,-0.01 0,-0.04 0.03,-0.05 0.01,-0.03 0.03,-0.08 0.04,-0.11 z"/><path id="path38" fill="#875336" d="m 271.47751,637.22708 v 41.63 c 8.6,-0.54 17.26,-0.84 25.9,-0.84 h 1.64 c 1.28,-0.04 6.85,-0.21 15.47,-0.22 v -40.15 l -21.28,0.58 -0.25,-0.01 z m 366.65,262.42 h -50.41 l -1.95,-0.42 c -4.56,-1.01 -9.28,-2.25 -14.1,-3.73 -1.65,-0.5 -3.31,-1.05 -4.97,-1.61 -2.51,-0.86 -5.04,-1.78 -7.6,-2.78 l -5.15,-2.1 c -5.41,-2.3 -10.5,-4.82 -15.27,-7.5 l -2.26,-1.29 c -0.18,-0.1 -0.35,-0.19 -0.52,-0.3 -0.74,-0.42 -1.46,-0.86 -2.17,-1.29 -0.89,-0.53 -1.74,-1.08 -2.6,-1.62 a 142.44,142.44 0 0 1 -7.01,-4.71 c -0.6,-0.42 -1.19,-0.84 -1.77,-1.28 -2.66,-1.93 -5.18,-3.9 -7.55,-5.87 a 63.83,63.83 0 0 1 -1.74,-1.46 c -4.2,-3.57 -7.97,-7.14 -11.33,-10.58 -0.56,-0.56 -1.09,-1.12 -1.61,-1.68 l -1.7,-1.81 -2.74,-3.06 a 149.37,149.37 0 0 1 -3.88,-4.62 l -1.17,-1.46 c -0.11,-0.14 -0.22,-0.27 -0.31,-0.41 l -1.84,-2.38 h 0.19 a 32.78,32.78 0 0 0 1.73,-0.04 c 0.14,0 0.27,0 0.4,-0.01 h 0.08 c 0.15,-0.01 0.3,-0.01 0.45,-0.04 0.46,-0.03 0.91,-0.05 1.36,-0.1 0.04,-0.01 0.07,-0.01 0.1,-0.01 0.04,0 0.07,0 0.1,-0.01 0.25,-0.03 0.48,-0.04 0.71,-0.08 0.18,-0.01 0.34,-0.04 0.5,-0.07 0.29,-0.03 0.57,-0.07 0.86,-0.11 0.01,0 0.03,0 0.04,-0.01 a 4.69,4.69 0 0 0 0.37,-0.05 c 0.23,-0.04 0.45,-0.07 0.67,-0.12 0.68,-0.11 1.36,-0.26 2.03,-0.42 0.25,-0.04 0.5,-0.11 0.75,-0.18 0.05,-0.01 0.11,-0.03 0.16,-0.04 a 22.82,22.82 0 0 0 1.72,-0.48 c 0.18,-0.05 0.37,-0.11 0.54,-0.16 l 1.47,-0.5 c 0.04,-0.03 0.1,-0.04 0.14,-0.05 0.53,-0.19 1.04,-0.38 1.54,-0.61 0.03,-0.01 0.07,-0.03 0.1,-0.04 0.08,-0.03 0.16,-0.05 0.25,-0.1 0.52,-0.22 1.04,-0.44 1.54,-0.68 0.01,-0.01 0.03,-0.03 0.04,-0.03 a 3.14,3.14 0 0 0 0.37,-0.18 1.28,1.28 0 0 0 0.2,-0.11 c 0.49,-0.22 0.97,-0.48 1.44,-0.74 h 0.01 c 0.56,-0.31 1.1,-0.63 1.65,-0.95 0.05,-0.04 0.12,-0.07 0.18,-0.11 a 28.16,28.16 0 0 0 1.47,-0.94 c 0.07,-0.05 0.12,-0.1 0.19,-0.14 a 38.91,38.91 0 0 0 1.53,-1.09 c 0.57,-0.42 1.13,-0.87 1.69,-1.33 0.4,-0.33 0.78,-0.65 1.16,-0.99 0.26,-0.23 0.5,-0.46 0.75,-0.69 0.14,-0.14 0.29,-0.27 0.42,-0.41 0.01,-0.01 0.03,-0.01 0.03,-0.03 0.23,-0.2 0.45,-0.44 0.67,-0.65 0.76,-0.78 1.48,-1.58 2.18,-2.4 0.2,-0.24 0.41,-0.49 0.6,-0.74 0.34,-0.41 0.65,-0.82 0.97,-1.24 0.25,-0.33 0.49,-0.67 0.71,-1.01 0.37,-0.52 0.72,-1.03 1.04,-1.55 a 0.87,0.87 0 0 0 0.16,-0.26 c 0.12,-0.19 0.25,-0.38 0.35,-0.57 a 17.1,17.1 0 0 0 0.34,-0.57 c 0.07,-0.11 0.12,-0.22 0.18,-0.33 a 23.28,23.28 0 0 0 0.65,-1.19 c 0.1,-0.19 0.19,-0.37 0.27,-0.56 a 12.66,12.66 0 0 0 0.42,-0.82 l 0.45,-0.99 c 0.15,-0.3 0.29,-0.61 0.41,-0.91 0.12,-0.31 0.26,-0.63 0.37,-0.94 l 1.44,1.39 0.76,0.71 1.61,1.46 c 0.27,0.26 0.56,0.5 0.84,0.75 l 0.87,0.76 2.67,2.25 2.1,1.68 1.81,1.39 0.67,0.5 a 54.06,54.06 0 0 0 1.58,1.14 l 1.69,1.21 c 2.66,1.87 5.53,3.75 8.64,5.61 l 1.39,0.82 a 160.03,160.03 0 0 0 4.59,2.59 l 2.32,1.23 2.45,1.25 1.24,0.61 c 1.62,0.79 3.28,1.57 5.01,2.34 l 3.23,1.4 c 0.03,0.01 0.04,0.01 0.07,0.03 l 3.83,1.55 c 0.37,0.14 0.74,0.29 1.1,0.44 l 1.84,0.68 2.74,0.99 1.96,0.68 a 92.67,92.67 0 0 0 1.99,0.67 c 1.33,0.44 2.71,0.87 4.09,1.28 l 2.06,0.61 3.23,0.9 3.3,0.86 c 1.48,0.38 2.98,0.73 4.49,1.08 a 85.23,85.23 0 0 0 2.3,0.5 c 1.93,0.42 3.91,0.82 5.92,1.17 l 6.16,1.05 1.91,0.27 5.67,0.75 2.63,0.29 2.4,0.24 2.93,0.26 h 0.01 v 0.01 c -0.38,1.76 -0.69,3.54 -0.94,5.35 -0.2,1.58 -0.37,3.17 -0.46,4.79 a 11.21,11.21 0 0 0 -0.05,0.83 c -0.07,1.19 -0.1,2.38 -0.1,3.58 a 57.07,57.07 0 0 0 0.03,1.85 c 0,0.29 0.01,0.57 0.04,0.87 -0.01,0.05 -0.01,0.12 0,0.18 0.01,0.45 0.04,0.91 0.07,1.36 0.04,0.83 0.11,1.66 0.19,2.49 a 77.69,77.69 0 0 0 0.57,4.4 c 0.35,2.18 0.8,4.33 1.36,6.44 0.39,1.5 0.83,2.98 1.32,4.44 0.44,1.28 0.9,2.53 1.39,3.77 a 59.61,59.61 0 0 0 1.72,3.92 c 0.05,0.23 0.16,0.45 0.27,0.67 z"/><path id="path40" fill="#f3c33e" d="m 96.597509,408.90708 c 20.530001,12.36 34.790001,39.15 34.790001,70.15 0,25.3 -9.5,47.81 -24.15,61.95 29.45,-7.09 51.4,-33.63 51.4,-65.22 -0.01,-35.29 -27.4,-64.28 -62.040001,-66.88 z m 442.900001,83.8 c 0,-26.39 -13.91,-48.63 -32.77,-54.34 v 108.7 c 18.87,-5.71 32.77,-27.97 32.77,-54.36 z"/><g id="g46" fill="#875336" transform="translate(10.857509,244.59708)"><circle id="circle42" cx="98.54" cy="508.82" r="27.63"/><path id="path44" d="m 86.05,548.12 v 0.01 h -0.01 l -1.77,2.63 -1.69,2.68 -4.56,8.24 c -2.33,4.66 -4.32,9.41 -6.02,14.21 -0.68,1.91 -1.31,3.83 -1.91,5.76 -0.89,2.87 -1.66,5.76 -2.37,8.64 l -0.54,2.32 c -0.48,2.12 -0.91,4.25 -1.32,6.35 l -0.45,2.59 -0.48,2.92 a 182.5,182.5 0 0 0 -0.76,5.52 l -0.35,3.08 -0.22,2.12 c -0.01,0.22 -0.03,0.42 -0.05,0.63 l -0.19,2.17 -0.16,2.19 -0.33,5.61 -0.08,2.26 c 0,0.15 0,0.3 -0.01,0.45 l -0.08,3.92 c -0.04,3.47 0.01,6.73 0.11,9.71 l 0.05,1.44 0.15,3.21 0.1,1.61 c 0.05,0.94 0.12,1.84 0.19,2.7 v 0.01 h -0.27 l -0.72,0.01 c -0.44,0 -0.87,0 -1.31,0.03 -0.12,0 -0.26,0 -0.41,0.01 -0.12,0 -0.25,0.01 -0.37,0.01 -0.11,0 -0.2,0 -0.31,0.01 -0.37,0.03 -0.74,0.04 -1.12,0.07 -0.27,0.01 -0.53,0.03 -0.8,0.05 -0.6,0.05 -1.21,0.11 -1.81,0.18 a 46.38,46.38 0 0 0 -2.33,0.3 c -0.64,0.1 -1.31,0.2 -1.96,0.33 -0.27,0.04 -0.54,0.1 -0.83,0.15 -0.33,0.05 -0.65,0.12 -0.99,0.2 -0.54,0.11 -1.1,0.23 -1.66,0.37 -1.31,0.3 -2.62,0.65 -3.92,1.05 -1.2,0.37 -2.37,0.75 -3.53,1.17 H 20.19 c -0.03,-0.14 -0.05,-0.27 -0.08,-0.41 l -0.35,-2.15 -0.34,-2.25 c -0.07,-0.45 -0.12,-0.9 -0.18,-1.36 a 20.65,20.65 0 0 1 -0.1,-0.72 l -0.15,-1.23 -0.16,-1.47 a 67.71,67.71 0 0 1 -0.25,-2.53 l -0.22,-2.64 c -0.19,-2.71 -0.31,-5.58 -0.37,-8.59 l -0.03,-2.94 c 0,-7.22 0.45,-15.25 1.55,-24.08 l 0.3,-2.17 a 91.46,91.46 0 0 1 1.06,-5.87 l 0.3,-1.36 a 114.72,114.72 0 0 1 2.81,-10.11 l 0.71,-2.11 c 0,-0.01 0.01,-0.03 0.01,-0.04 0.23,-0.7 0.48,-1.38 0.74,-2.06 0.23,-0.67 0.49,-1.32 0.74,-1.98 1.39,-3.62 2.93,-7.18 4.56,-10.64 l 0.79,-1.62 c 0.99,-2.03 2.02,-4.02 3.06,-5.98 l 1.97,-3.57 2.23,-3.83 c 0.31,-0.54 0.63,-1.08 0.95,-1.59 l 1.08,-1.76 1.09,-1.72 0.68,-1.06 1.48,-2.29 2.18,-3.23 2.15,-3.08 c 2.18,-3.05 4.32,-5.9 6.32,-8.47 0.15,-0.18 0.29,-0.37 0.44,-0.55 0.16,-0.22 0.33,-0.42 0.46,-0.61 0.18,-0.22 0.34,-0.42 0.5,-0.63 0.11,-0.14 0.22,-0.26 0.31,-0.38 0.05,-0.07 0.11,-0.14 0.15,-0.2 0.15,-0.16 0.27,-0.33 0.41,-0.49 l 0.49,-0.61 c 0.07,-0.08 0.14,-0.16 0.19,-0.24 l 1.21,-1.47 1.16,-1.39 c 0.27,0.72 0.57,1.44 0.9,2.15 l 0.67,1.42 a 16.55,16.55 0 0 0 0.53,1.02 c 0.48,0.9 0.99,1.8 1.54,2.66 a 43.93,43.93 0 0 0 0.89,1.33 56.78,56.78 0 0 0 1.62,2.21 c 0.18,0.22 0.35,0.45 0.54,0.67 0.53,0.65 1.1,1.29 1.69,1.92 0.18,0.19 0.35,0.4 0.56,0.59 0.14,0.15 0.29,0.31 0.45,0.46 0.48,0.48 0.98,0.95 1.48,1.42 a 51.06,51.06 0 0 0 1.58,1.35 7.68,7.68 0 0 0 0.63,0.5 c 0.82,0.64 1.65,1.25 2.52,1.83 0.48,0.33 0.95,0.64 1.46,0.94 0.49,0.3 0.98,0.59 1.5,0.87 a 34.14,34.14 0 0 0 1.47,0.78 c 0.57,0.3 1.17,0.57 1.77,0.84 0.46,0.2 0.93,0.41 1.4,0.59 0.2,0.1 0.41,0.16 0.61,0.25 0.45,0.18 0.9,0.34 1.35,0.49 0.01,0.01 0.03,0.01 0.03,0.01 0.26,0.09 0.54,0.18 0.82,0.26 z"/></g><path id="path48" fill="#fff" d="m 246.74751,453.13708 c 0,24.05 18.54,43.54 41.41,43.54 13.63,0 25.72,-6.92 33.26,-17.61 -7.4,7.3 -17.35,11.77 -28.3,11.77 -22.87,0 -41.41,-19.49 -41.41,-43.54 0,-9.72 3.03,-18.69 8.15,-25.93 -8.07,7.94 -13.11,19.24 -13.11,31.77 z m 136.2,0 c 0,24.05 18.54,43.54 41.41,43.54 13.63,0 25.72,-6.92 33.26,-17.61 -7.4,7.3 -17.35,11.77 -28.3,11.77 -22.87,0 -41.41,-19.49 -41.41,-43.54 0,-9.72 3.03,-18.69 8.15,-25.93 -8.06,7.94 -13.11,19.24 -13.11,31.77 z m 98.36,316.68 -0.64,5 3.03,-0.19 c 15.24,0 27.64,12.39 27.64,27.62 0,5.43 -1.6,10.48 -4.31,14.76 5.67,-5.06 9.27,-12.41 9.27,-20.6 0,-15.23 -12.4,-27.62 -27.64,-27.62 a 27.87,27.87 0 0 0 -7.35,1.03 z m -198.18,-256.37 4.85,35 c 0.1,0.72 0.7,1.28 1.43,1.33 l 150.02,9.56 a 1.53,1.53 0 0 0 1.62,-1.33 l 0.63,-4.68 -147.31,-9.38 c -0.73,-0.05 -1.33,-0.6 -1.43,-1.33 l -4.25,-30.62 -3.93,-0.29 c -0.97,-0.08 -1.77,0.77 -1.63,1.74 z m -54.81,304.87 c 2.4,-2.21 4.51,-4.87 6.27,-7.93 4.82,-8.42 6.36,-18.75 4.32,-29.09 -2.04,-10.33 -7.39,-19.3 -15.05,-25.26 -5.7,-4.43 -12.15,-6.74 -18.61,-6.74 a 26.98,26.98 0 0 0 -5.21,0.51 c -7.39,1.46 -13.82,5.95 -18.35,12.73 3.83,-3.53 8.4,-5.91 13.39,-6.89 a 26.98,26.98 0 0 1 5.21,-0.51 c 6.45,0 12.91,2.31 18.61,6.74 7.66,5.96 13.01,14.93 15.05,25.26 2.04,10.33 0.51,20.66 -4.32,29.09 a 43.47,43.47 0 0 1 -1.31,2.09 z m 86.17,-140.52 v -40.15 l -21.28,0.58 -0.25,-0.01 -21.47,-1 v 6.07 l 16.51,0.77 0.25,0.01 21.28,-0.58 v 34.34 z m -207.25,-136.78 0.51,-0.13 1.47,-1.89 z m 306.69,333.7 c -0.23,1.4 -0.65,2.72 -1.23,3.94 a 14.71,14.71 0 0 0 6.19,-9.78 l 18.67,-114.2 c 0.69,-4.19 -0.47,-8.48 -3.17,-11.76 a 14.78,14.78 0 0 0 -10.92,-5.38 l -113.69,-3.71 c -0.16,-0.01 -0.32,-0.01 -0.48,-0.01 -4.12,0 -8.06,1.72 -10.86,4.77 a 14.75,14.75 0 0 0 -2.47,3.68 c 2.44,-1.68 5.35,-2.61 8.37,-2.61 0.16,0 0.32,0 0.48,0.01 l 113.69,3.71 a 14.78,14.78 0 0 1 10.92,5.38 c 2.7,3.28 3.85,7.57 3.17,11.76 z"/><path id="path50" fill="#24242b" d="m 488.66751,837.67708 h -0.19 l 3.87,4.91 c 10.33,-2.21 19.23,-8.3 25.11,-16.67 -7.44,7.26 -17.59,11.76 -28.79,11.76 z"/><path id="path52" fill="#fff" d="m 534.53751,498.54708 c 0,14.95 -4.46,28.57 -11.76,38.61 10.19,-10.21 16.72,-26.35 16.72,-44.44 0,-26.39 -13.91,-48.63 -32.77,-54.34 v 7.77 c 16.29,7.8 27.81,28.38 27.81,52.4 z m -463.650001,269.62 -4.88,6.03 c 4.5,11.55 14.06,20.59 25.94,24.37 -22.64,32.49 -24.23,74.71 -23.12,97.34 1.79,-0.15 3.56,-0.22 5.31,-0.22 -1.59,-20.56 -1.9,-67.56 22.77,-102.96 -11.96,-3.81 -21.55,-12.92 -26.02,-24.56 z m 567.240001,131.48 h -7.45 a 68.87,68.87 0 0 1 -4.52,-24.56 c 0,-5 0.53,-9.87 1.54,-14.57 -56.08,-4.64 -88.72,-27.5 -104.16,-42.1 l -0.01,-0.01 a 43.5,43.5 0 0 0 1.97,-3.46 60.13,60.13 0 0 0 0.87,-1.81 c 0.15,-0.3 0.29,-0.61 0.41,-0.91 0.12,-0.31 0.26,-0.63 0.37,-0.94 l 1.44,1.39 0.76,0.71 1.61,1.46 c 0.27,0.26 0.56,0.5 0.84,0.75 l 0.87,0.76 2.67,2.25 2.1,1.68 1.81,1.39 0.67,0.5 a 54.06,54.06 0 0 0 1.58,1.14 l 1.69,1.21 c 2.66,1.87 5.53,3.75 8.64,5.61 l 1.39,0.82 a 160.03,160.03 0 0 0 4.59,2.59 l 2.32,1.23 2.45,1.25 1.24,0.61 c 1.62,0.79 3.28,1.57 5.01,2.34 l 3.23,1.4 c 0.03,0.01 0.04,0.01 0.07,0.03 l 3.83,1.55 c 0.37,0.14 0.74,0.29 1.1,0.44 l 1.84,0.68 2.74,0.99 1.96,0.68 a 92.67,92.67 0 0 0 1.99,0.67 c 1.33,0.44 2.71,0.87 4.09,1.28 l 2.06,0.61 3.23,0.9 3.3,0.86 c 1.48,0.38 2.98,0.73 4.49,1.08 a 85.23,85.23 0 0 0 2.3,0.5 c 1.93,0.42 3.91,0.82 5.92,1.17 l 6.16,1.05 1.91,0.27 5.67,0.75 2.63,0.29 2.4,0.24 2.93,0.26 h 0.01 v 0.01 c -0.38,1.76 -0.69,3.54 -0.94,5.35 -0.2,1.58 -0.37,3.17 -0.46,4.79 a 11.21,11.21 0 0 0 -0.05,0.83 c -0.07,1.19 -0.1,2.38 -0.1,3.58 a 57.07,57.07 0 0 0 0.03,1.85 c 0,0.29 0.01,0.57 0.04,0.87 -0.01,0.05 -0.01,0.12 0,0.18 0.01,0.45 0.04,0.91 0.07,1.36 0.04,0.83 0.11,1.66 0.19,2.49 a 77.69,77.69 0 0 0 0.57,4.4 c 0.35,2.18 0.8,4.33 1.36,6.44 0.39,1.5 0.83,2.98 1.32,4.44 0.44,1.28 0.9,2.53 1.39,3.77 a 59.61,59.61 0 0 0 1.72,3.92 c 0.08,0.25 0.19,0.47 0.3,0.69 z m 21.15,-67.98 v 1.01 l -3.62,3.41 c 0,-0.01 0.01,-0.01 0.01,-0.03 l 0.97,-1.25 1.01,-1.25 1.05,-1.23 z m -522.25,-78.25 c 0,-15.24 -12.39,-27.63 -27.63,-27.63 -9.810001,0 -18.420001,5.15 -23.320001,12.88 4.89,-4.36 11.31,-7.04 18.360001,-7.04 15.24,0 27.63,12.39 27.63,27.63 0,5.43 -1.6,10.48 -4.31,14.75 5.67,-5.06 9.27,-12.41 9.27,-20.59 z m 21.6,-277.63 c 0,-35.29 -27.4,-64.29 -62.030001,-66.88 4.180001,2.52 8.100001,5.64 11.690001,9.27 26.37,9.04 45.38,34.05 45.38,63.45 0,15.17 -5.07,29.17 -13.6,40.42 11.49,-12.04 18.56,-28.34 18.56,-46.26 z"/><path id="path54" fill="#24242b" d="m 79.937509,555.66708 -3.61,0.53 v 5.48 c 3.38,0.43 6.81,0.67 10.25,0.67 25.990001,0 49.130001,-12.36 63.900001,-31.49 -14.74,15.77 -35.7,25.65 -58.940001,25.65 -3.91,0 -7.8,-0.29 -11.6,-0.84 z"/><path style="fill:#fff;stroke:#24242b;stroke-width:5;stroke-linecap:butt;stroke-linejoin:miter;stroke-opacity:1;stroke-miterlimit:4;stroke-dasharray:none;fill-opacity:1" id="path7108" d="m 475.80849,168.92129 c 65.74013,22.87723 13.11327,145.99978 13.11327,145.99978 0,0 103.91373,-131.87482 51.36981,-175.61239 -52.54392,-43.737569 -64.48308,29.61261 -64.48308,29.61261 z"/><path id="path56" fill="#fff" d="m 473.64751,712.63708 -0.2,2.41 -0.07,0.71 -0.07,0.72 -0.1,1.14 -0.07,0.73 -0.3,3.23 -0.19,1.98 -0.26,2.71 -0.2,2.07 -1.72,16.49 -0.5,4.49 a 0.78,0.78 0 0 1 -0.03,0.22 l -0.48,4.24 c -0.01,0.08 -0.01,0.15 -0.03,0.23 l -0.31,2.72 -0.18,1.5 -0.18,1.51 -0.57,4.64 a 41.99,41.99 0 0 1 -0.19,1.57 l -3.06,23.21 -0.49,3.46 c -0.01,0.03 -0.01,0.05 -0.01,0.07 l -0.56,3.79 -1.44,9.57 -0.93,5.8 -1.28,7.76 -0.67,3.88 -2.97,16.21 -0.52,2.64 -0.71,3.51 -0.54,2.67 -1.2,5.64 -0.46,2.1 -0.76,3.41 -0.44,1.89 -1.12,4.74 c -1.43,5.94 -2.93,11.67 -4.51,17.12 l -0.6,2.06 c -0.19,0.68 -0.39,1.36 -0.61,2.03 l -0.98,3.17 c -0.98,3.11 -1.99,6.1 -3.02,8.95 h -2.96 c 19.27,-58.17 28.79,-161.05 30.52,-181.17 -65.42,-24.37 -173.21,-21.04 -174.32,-21 h -1.97 c -62.2,0 -126.56,16.13 -150.79,22.9 l -0.49,-4.29 h 0.01 c 3.73,-1.09 9.59,-2.74 17.13,-4.69 l 5.49,-1.39 3.95,-0.97 2.06,-0.49 c 13.74,-3.3 30.93,-6.97 49.92,-10.05 l 4.79,-0.76 3.85,-0.59 c 8.49,-1.25 17.27,-2.37 26.22,-3.26 l 3.98,-0.38 c 6.54,-0.6 13.16,-1.08 19.79,-1.4 l 6.35,-0.26 c 4.24,-0.15 8.49,-0.22 12.71,-0.22 l 1.7,0.01 h 0.14 l 0.14,-0.01 c 1.1,0 108.9,-3.34 174.31,21.03 z m -423.150001,-287.86 1.42,-0.01 1.06,-1.09 c 4.18,-1.68 8.59,-2.6 13.16,-2.6 25.73,0 46.660001,28.63 46.660001,63.82 0,17.73 -5.32,33.8 -13.890001,45.37 11.430001,-11.64 18.850001,-30.26 18.850001,-51.21 0,-35.19 -20.930001,-63.82 -46.660001,-63.82 -4.57,0 -8.98,0.92 -13.16,2.6 l -1.06,1.09 -1.42,0.01 c -6.49,3.17 -12.32,8.27 -17.13,14.77 3.68,-3.75 7.77,-6.78 12.17,-8.93 z m 81.660001,-90.86 c 66.23,-22.91 149.43,-21.5 153.03,-21.42 124.86,7.76 173.41,35.64 192.15,57.65 11.81,13.87 10.9,24.6 10.87,24.94 l -0.06,0.44 v 209.81 c 0,0.06 -0.01,0.12 -0.01,0.18 1.67,-0.75 3.26,-1.68 4.7,-2.81 0.16,-1.05 0.27,-2.11 0.27,-3.21 v -209.8 l 0.06,-0.44 c 0.03,-0.34 0.94,-11.06 -10.87,-24.94 -18.74,-22.02 -67.29,-49.89 -192.15,-57.65 -3.6,-0.08 -86.8,-1.49 -153.03,21.42 -23.87,8.26 -38.430001,20 -47.310001,31.66 9.06,-9.65 22.470001,-18.95 42.350001,-25.83 z m 152.42,-69.86 c 17.85,0 32.54,13.73 34.1,31.18 l 4.93,0.47 c 0.1,-1.08 0.17,-2.17 0.17,-3.25 0,-18.88 -15.36,-34.24 -34.24,-34.24 -11.83,0 -22.28,6.03 -28.43,15.18 6.13,-5.79 14.39,-9.34 23.47,-9.34 z"/><path id="path58" fill="#24242b" d="m 270.04751,629.25708 c -0.48,13.22 -1.34,43.9 1.44,32.69 3.5,-14.15 43,-24.29 43,-24.29 l -1.26,-8.39 h -43.18 z"/><circle id="circle60" cx="570.297" cy="869.247" r="4.03" fill="#512b18"/><circle id="circle62" cx="396.208" cy="774.007" r="4.03"/><circle id="circle64" cx="389.398" cy="846.157" r="4.03"/><ellipse style="fill:#fff;stroke:#24242b;stroke-width:14.3244;stroke-linejoin:round;paint-order:stroke markers fill" id="path3877" cx="310.765" cy="110" rx="248.471" ry="72.786"/><text xml:space="preserve" style="font-style:normal;font-weight:400;font-size:61.6102px;line-height:1.25;font-family:sans-serif;letter-spacing:0;word-spacing:0;fill:#000;fill-opacity:1;stroke:none;stroke-width:1.54025" id="text2181" x="112.635" y="127.77"><tspan id="tspan2179" x="112.635" y="127.77" style="stroke-width:1.54025">US v. Trump</tspan></text></svg>