<svg xmlns="http://www.w3.org/2000/svg" xmlns:svg="http://www.w3.org/2000/svg" id="svg615" width="538.34" height="453.29" version="1.1" viewBox="0 0 538.34 453.29"><defs id="defs549"><style id="style547">.cls-1,.cls-2{fill:#848582;stroke-width:0}.cls-2{fill:#5064ad}</style></defs><g id="g559" transform="translate(-35,-6.66)"><rect id="rect551" width="11.75" height="42.29" x="265.78" y="417.66" class="cls-1"/><rect id="rect553" width="11.75" height="42.29" x="147.26" y="417.66" class="cls-1"/><rect id="rect555" width="11.75" height="42.29" x="206.52" y="417.66" class="cls-1"/><rect id="rect557" width="11.75" height="42.29" x="236.35" y="417.66" class="cls-1"/></g><g id="g567" transform="translate(-35,-6.66)"><path id="path563" d="m 147.74,396.96 v -96.67 h 42.75 c 4.45,0 8.55,0.93 12.32,2.79 3.77,1.86 7.01,4.31 9.73,7.35 2.72,3.04 4.85,6.49 6.4,10.35 1.54,3.86 2.31,7.74 2.31,11.64 0,6.26 -1.57,11.96 -4.7,17.09 -3.13,5.13 -7.38,8.83 -12.73,11.1 l 22.06,36.35 h -21.1 l -19.74,-32.4 h -18.52 v 32.4 h -18.79 z m 18.79,-48.88 h 23.55 c 1.72,0 3.34,-0.41 4.83,-1.22 1.5,-0.82 2.79,-1.93 3.88,-3.34 1.09,-1.41 1.95,-3.06 2.59,-4.97 0.63,-1.91 0.95,-3.95 0.95,-6.13 0,-2.18 -0.36,-4.36 -1.09,-6.26 -0.73,-1.91 -1.7,-3.56 -2.93,-4.97 -1.23,-1.41 -2.63,-2.5 -4.22,-3.27 -1.59,-0.77 -3.2,-1.16 -4.83,-1.16 h -22.74 v 31.31 z" class="cls-2"/><path id="path565" d="m 305.4,380.48 v 16.47 h -67.12 v -96.67 h 65.9 v 16.47 h -47.11 v 23.28 h 40.71 v 15.25 h -40.71 v 25.19 h 48.33 z" class="cls-2"/></g><g id="g573" transform="translate(-35,-6.66)"><path id="path569" d="m 312.2,347.94 c 0,-5.9 1.07,-11.73 3.2,-17.5 2.13,-5.76 5.24,-10.91 9.33,-15.45 4.08,-4.54 9.08,-8.21 14.98,-11.03 5.9,-2.81 12.62,-4.22 20.15,-4.22 8.89,0 16.59,1.95 23.08,5.85 6.49,3.9 11.32,8.99 14.5,15.25 l -14.43,9.94 c -1.27,-2.72 -2.81,-5.01 -4.63,-6.88 -1.82,-1.86 -3.77,-3.34 -5.85,-4.42 -2.09,-1.09 -4.27,-1.88 -6.54,-2.38 -2.27,-0.5 -4.49,-0.75 -6.67,-0.75 -4.72,0 -8.83,0.95 -12.32,2.86 -3.5,1.91 -6.4,4.38 -8.71,7.42 -2.31,3.04 -4.06,6.49 -5.24,10.35 -1.18,3.86 -1.77,7.69 -1.77,11.5 0,4.27 0.68,8.37 2.04,12.32 1.36,3.95 3.29,7.42 5.79,10.42 2.5,3 5.49,5.4 8.99,7.22 3.49,1.82 7.33,2.72 11.5,2.72 2.18,0 4.45,-0.27 6.81,-0.82 2.36,-0.54 4.61,-1.41 6.74,-2.59 2.13,-1.18 4.11,-2.7 5.92,-4.56 1.81,-1.86 3.27,-4.11 4.36,-6.74 l 15.38,8.85 c -1.54,3.63 -3.74,6.83 -6.6,9.6 -2.86,2.77 -6.08,5.11 -9.67,7.01 -3.59,1.91 -7.42,3.36 -11.5,4.36 -4.08,1 -8.08,1.5 -11.98,1.5 -6.9,0 -13.21,-1.45 -18.92,-4.36 -5.72,-2.9 -10.64,-6.69 -14.77,-11.37 -4.13,-4.67 -7.35,-9.98 -9.67,-15.93 -2.31,-5.94 -3.47,-12 -3.47,-18.18 z" class="cls-2"/><path id="path571" d="m 437.6,300.29 h 16.61 l 36.76,96.67 h -19.33 l -8.99,-24.1 h -33.77 l -8.85,24.1 H 400.7 Z m 21.64,59.36 -13.34,-37.99 -13.89,37.99 z" class="cls-2"/></g><path id="path575" d="m 466.59,390.3 v -96.67 h 40.98 c 4.45,0 8.55,0.93 12.32,2.79 3.77,1.86 7.01,4.31 9.74,7.35 2.72,3.04 4.85,6.49 6.4,10.35 1.54,3.86 2.31,7.74 2.31,11.64 0,3.9 -0.73,8.06 -2.18,11.91 -1.45,3.86 -3.5,7.28 -6.13,10.28 -2.63,3 -5.81,5.4 -9.53,7.22 -3.72,1.82 -7.81,2.72 -12.25,2.72 h -22.87 v 32.4 h -18.79 z m 18.79,-48.88 h 21.78 c 3.45,0 6.33,-1.41 8.65,-4.22 2.31,-2.81 3.47,-6.62 3.47,-11.44 0,-2.45 -0.36,-4.65 -1.09,-6.6 -0.73,-1.95 -1.68,-3.61 -2.86,-4.97 -1.18,-1.36 -2.57,-2.38 -4.15,-3.06 -1.59,-0.68 -3.2,-1.02 -4.83,-1.02 h -20.97 z" class="cls-2"/><path id="path595" d="m 144.64,41.46 c -5.01,1.2 -9.15,5.19 -10.49,10.2 -2.07,7.73 2.07,14.85 8.49,17.53 V 276.05 H 154.8 V 68.69 c 4.79,-2.4 8.1,-7.3 8.1,-13 0,-9.26 -8.6,-16.55 -18.26,-14.23 z" class="cls-2"/><rect id="rect597" width="12.07" height="42.21" x="142.67" y="410.54" class="cls-2"/><g id="Layer_3" data-name="Layer 3" transform="translate(-35,-6.66)"><g id="g612"><path id="path600" d="m 364.97,225.84 h -75.63 v 6.24 c 0.04,7.56 4.64,12.19 12.15,12.19 16.46,-0.04 32.92,-0.07 49.42,-0.11 1.5,-0.04 3.07,-0.07 4.53,-0.47 9.09,-2.41 10.77,-9.93 9.53,-17.85 z" class="cls-1"/><path id="path602" d="m 381.21,133.09 c -2.74,-2.77 -6.13,-4.16 -10.18,-4.16 -4.38,0 -7.96,1.35 -10.73,4.09 -1.35,1.31 -2.37,2.85 -3.03,4.56 h -91.39 v 146.65 h 11.86 c 0,0 0,-134.79 0,-134.79 h 45.92 c 0,5.29 0,10.58 -0.07,15.88 -0.04,1.02 -0.18,2.12 -0.51,3.07 -5.44,15.37 -10.91,30.7 -16.28,46.03 -0.47,1.35 -1.06,1.79 -2.41,1.75 -4.74,-0.07 -9.45,0 -14.16,0.04 -1.57,0 -2.19,0.62 -2.19,2.01 0,1.39 0.69,2.04 2.37,2.01 4.53,0 9.02,-0.11 13.54,-0.15 20.44,-0.07 40.88,-0.18 61.35,-0.26 1.86,0 2.74,-0.69 2.7,-2.04 -0.04,-1.35 -0.8,-1.93 -2.63,-1.93 -3.91,0 -7.77,0 -11.64,0.07 -1.13,0.04 -1.64,-0.33 -2.08,-1.39 -6.5,-15.33 -12.99,-30.62 -19.49,-45.95 -0.22,-0.47 -0.33,-0.99 -0.33,-1.5 v -17.63 h 25.48 c 0.62,1.5 1.53,2.92 2.7,4.27 2.59,2.92 6.2,4.42 10.88,4.42 4.12,0 7.59,-1.39 10.33,-4.2 2.74,-2.77 4.12,-6.24 4.12,-10.48 0,-4.24 -1.39,-7.56 -4.12,-10.37 z m -36.57,82.75 h -30.99 c 4.64,-13.07 9.27,-26.17 13.91,-39.24 h 0.4 c 5.55,12.99 11.06,25.99 16.68,39.24 z m 30.55,-67.38 c -1.24,1.39 -2.7,2.08 -4.38,2.08 -1.68,0 -3.25,-0.69 -4.49,-2.12 -1.24,-1.42 -1.86,-3.14 -1.86,-5.15 0,-1.86 0.66,-3.43 1.9,-4.74 1.24,-1.35 2.74,-2.01 4.45,-2.01 1.71,0 3.14,0.73 4.38,2.12 1.24,1.42 1.86,3.07 1.86,4.96 0,1.89 -0.62,3.47 -1.86,4.85 z" class="cls-1"/><path id="path604" d="M 133.53,258.47 H 57.91 c 0,2.26 -0.04,4.23 0,6.2 0,7.56 4.64,12.19 12.12,12.19 16.46,-0.04 32.96,-0.07 49.42,-0.11 1.5,0 3.07,-0.07 4.53,-0.47 9.09,-2.41 10.77,-9.93 9.56,-17.81 z" class="cls-1"/><path id="path606" d="m 63.35,170.47 c -0.69,-1.93 -1.79,-3.69 -3.28,-5.22 -2.77,-2.77 -6.17,-4.16 -10.22,-4.16 -4.34,0 -7.92,1.35 -10.69,4.09 -2.77,2.74 -4.16,6.28 -4.16,10.58 0,3.8 1.28,7.15 3.87,10.11 2.59,2.92 6.2,4.42 10.88,4.42 4.12,0 7.56,-1.39 10.33,-4.16 1.13,-1.17 2.01,-2.41 2.7,-3.8 H 92.2 c 0,5.18 0,10.4 -0.07,15.59 0,1.02 -0.18,2.12 -0.51,3.07 -5.4,15.37 -10.88,30.66 -16.28,46.02 -0.47,1.35 -1.02,1.75 -2.41,1.75 -4.71,-0.07 -9.45,0 -14.16,0.04 -1.53,0 -2.19,0.62 -2.19,2.01 0.04,1.39 0.73,2.01 2.41,2.01 4.49,-0.04 9.02,-0.11 13.5,-0.15 20.44,-0.11 40.91,-0.18 61.35,-0.26 1.9,-0.04 2.74,-0.69 2.7,-2.08 0,-1.31 -0.77,-1.9 -2.63,-1.9 -3.87,0 -7.77,-0.04 -11.64,0.07 -1.09,0 -1.64,-0.33 -2.08,-1.39 -6.46,-15.33 -12.99,-30.62 -19.49,-45.95 -0.18,-0.47 -0.33,-1.02 -0.33,-1.53 0,-5.73 0,-11.53 0.04,-17.3 h 45.84 v 101.9 h 11.86 c 0,0 0,-113.77 0,-113.77 H 63.35 Z m -9.31,10.15 c -1.28,1.39 -2.7,2.08 -4.38,2.08 -1.68,0 -3.25,-0.69 -4.49,-2.12 -1.24,-1.42 -1.86,-3.14 -1.86,-5.15 0,-1.82 0.62,-3.43 1.9,-4.75 1.24,-1.31 2.74,-2.01 4.45,-2.01 1.71,0 3.1,0.73 4.38,2.12 1.24,1.42 1.86,3.07 1.86,4.96 0,1.89 -0.62,3.5 -1.86,4.85 z m 59.16,67.81 H 82.21 c 4.64,-13.07 9.27,-26.17 13.91,-39.24 0.11,0 0.26,0 0.4,-0.04 5.51,12.99 11.02,26.02 16.68,39.27 z" class="cls-1"/><path id="path608" d="m 226.6,21.23 c 0,-4.12 -1.39,-7.59 -4.12,-10.37 -2.77,-2.81 -6.17,-4.2 -10.22,-4.2 -4.34,0 -7.92,1.39 -10.69,4.12 -2.77,2.73 -4.16,6.24 -4.16,10.55 0,3.83 1.28,7.19 3.87,10.11 1.39,1.61 3.1,2.74 5.11,3.47 h -0.33 v 249.32 h 11.86 V 34.91 h -0.4 c 1.86,-0.66 3.5,-1.75 4.96,-3.21 2.74,-2.77 4.12,-6.28 4.12,-10.48 z m -10.14,5 c -1.28,1.39 -2.74,2.04 -4.38,2.04 -1.75,0 -3.25,-0.69 -4.49,-2.12 -1.24,-1.39 -1.86,-3.1 -1.86,-5.11 0,-1.86 0.62,-3.43 1.86,-4.78 1.28,-1.31 2.74,-1.97 4.49,-1.97 1.64,0 3.1,0.69 4.38,2.12 1.24,1.42 1.86,3.07 1.86,4.93 0,1.86 -0.62,3.5 -1.86,4.89 z" class="cls-1"/><path id="path610" d="m 252.59,82.8 c -2.74,-2.77 -6.17,-4.2 -10.22,-4.2 -4.34,0 -7.92,1.39 -10.69,4.12 -2.77,2.74 -4.16,6.24 -4.16,10.58 0,3.8 1.28,7.15 3.87,10.11 1.31,1.5 2.92,2.59 4.78,3.32 v 177.49 h 11.86 V 106.74 c 1.68,-0.69 3.21,-1.75 4.56,-3.1 2.74,-2.77 4.12,-6.28 4.12,-10.48 0,-4.2 -1.39,-7.59 -4.12,-10.37 z m -6.02,15.37 c -1.24,1.39 -2.7,2.08 -4.38,2.08 -1.68,0 -3.25,-0.73 -4.49,-2.12 -1.24,-1.42 -1.86,-3.14 -1.86,-5.15 0,-1.86 0.62,-3.43 1.9,-4.74 1.24,-1.35 2.74,-2.01 4.45,-2.01 1.71,0 3.14,0.69 4.38,2.12 1.24,1.42 1.86,3.07 1.86,4.96 0,1.89 -0.62,3.47 -1.86,4.85 z" class="cls-1"/></g></g></svg>