<svg xmlns="http://www.w3.org/2000/svg" xmlns:svg="http://www.w3.org/2000/svg" id="svg1718" width="701.51" height="453.29" version="1.1" viewBox="0 0 701.51 453.29"><defs id="defs1652"><style id="style1650">.cls-1{fill:#848582}.cls-1,.cls-2,.cls-3{stroke-width:0}.cls-2{fill:#5064ad}.cls-3{fill:#848582}</style></defs><g id="Layer_2" data-name="Layer 2" transform="translate(-35,-6.66)"><g id="g1662"><rect id="rect1654" width="11.75" height="42.29" x="265.78" y="417.66" class="cls-1"/><rect id="rect1656" width="11.75" height="42.29" x="147.26" y="417.66" class="cls-1"/><rect id="rect1658" width="11.75" height="42.29" x="206.52" y="417.66" class="cls-1"/><rect id="rect1660" width="11.75" height="42.29" x="236.35" y="417.66" class="cls-1"/></g><path id="path1664" d="m 585.88,459.95 c -1.07,0 -1.99,-0.34 -2.77,-1.04 -0.78,-0.69 -1.17,-1.66 -1.17,-2.9 0,-1.05 0.37,-1.96 1.11,-2.72 0.74,-0.76 1.66,-1.14 2.74,-1.14 1.08,0 2.01,0.38 2.78,1.13 0.77,0.75 1.15,1.66 1.15,2.73 0,1.23 -0.38,2.19 -1.15,2.89 -0.77,0.7 -1.67,1.05 -2.7,1.05 z" class="cls-3"/><g id="g1670"><path id="path1666" d="m 147.74,396.96 v -96.67 h 42.75 c 4.45,0 8.55,0.93 12.32,2.79 3.77,1.86 7.01,4.31 9.73,7.35 2.72,3.04 4.85,6.49 6.4,10.35 1.54,3.86 2.31,7.74 2.31,11.64 0,6.26 -1.57,11.96 -4.7,17.09 -3.13,5.13 -7.38,8.83 -12.73,11.1 l 22.06,36.35 h -21.1 l -19.74,-32.4 h -18.52 v 32.4 h -18.79 z m 18.79,-48.88 h 23.55 c 1.72,0 3.34,-0.41 4.83,-1.22 1.5,-0.82 2.79,-1.93 3.88,-3.34 1.09,-1.41 1.95,-3.06 2.59,-4.97 0.63,-1.91 0.95,-3.95 0.95,-6.13 0,-2.18 -0.36,-4.36 -1.09,-6.26 -0.73,-1.91 -1.7,-3.56 -2.93,-4.97 -1.23,-1.41 -2.63,-2.5 -4.22,-3.27 -1.59,-0.77 -3.2,-1.16 -4.83,-1.16 h -22.74 v 31.31 z" class="cls-2"/><path id="path1668" d="m 305.4,380.48 v 16.47 h -67.12 v -96.67 h 65.9 v 16.47 h -47.11 v 23.28 h 40.71 v 15.25 h -40.71 v 25.19 h 48.33 z" class="cls-2"/></g><g id="g1676"><path id="path1672" d="m 312.2,347.94 c 0,-5.9 1.07,-11.73 3.2,-17.5 2.13,-5.76 5.24,-10.91 9.33,-15.45 4.08,-4.54 9.08,-8.21 14.98,-11.03 5.9,-2.81 12.62,-4.22 20.15,-4.22 8.89,0 16.59,1.95 23.08,5.85 6.49,3.9 11.32,8.99 14.5,15.25 l -14.43,9.94 c -1.27,-2.72 -2.81,-5.01 -4.63,-6.88 -1.82,-1.86 -3.77,-3.34 -5.85,-4.42 -2.09,-1.09 -4.27,-1.88 -6.54,-2.38 -2.27,-0.5 -4.49,-0.75 -6.67,-0.75 -4.72,0 -8.83,0.95 -12.32,2.86 -3.5,1.91 -6.4,4.38 -8.71,7.42 -2.31,3.04 -4.06,6.49 -5.24,10.35 -1.18,3.86 -1.77,7.69 -1.77,11.5 0,4.27 0.68,8.37 2.04,12.32 1.36,3.95 3.29,7.42 5.79,10.42 2.5,3 5.49,5.4 8.99,7.22 3.49,1.82 7.33,2.72 11.5,2.72 2.18,0 4.45,-0.27 6.81,-0.82 2.36,-0.54 4.61,-1.41 6.74,-2.59 2.13,-1.18 4.11,-2.7 5.92,-4.56 1.81,-1.86 3.27,-4.11 4.36,-6.74 l 15.38,8.85 c -1.54,3.63 -3.74,6.83 -6.6,9.6 -2.86,2.77 -6.08,5.11 -9.67,7.01 -3.59,1.91 -7.42,3.36 -11.5,4.36 -4.08,1 -8.08,1.5 -11.98,1.5 -6.9,0 -13.21,-1.45 -18.92,-4.36 -5.72,-2.9 -10.64,-6.69 -14.77,-11.37 -4.13,-4.67 -7.35,-9.98 -9.67,-15.93 -2.31,-5.94 -3.47,-12 -3.47,-18.18 z" class="cls-2"/><path id="path1674" d="m 437.6,300.29 h 16.61 l 36.76,96.67 h -19.33 l -8.99,-24.1 h -33.77 l -8.85,24.1 H 400.7 Z m 21.64,59.36 -13.34,-37.99 -13.89,37.99 z" class="cls-2"/></g><path id="path1678" d="m 501.59,396.96 v -96.67 h 40.98 c 4.45,0 8.55,0.93 12.32,2.79 3.77,1.86 7.01,4.31 9.74,7.35 2.72,3.04 4.85,6.49 6.4,10.35 1.54,3.86 2.31,7.74 2.31,11.64 0,3.9 -0.73,8.06 -2.18,11.91 -1.45,3.86 -3.5,7.28 -6.13,10.28 -2.63,3 -5.81,5.4 -9.53,7.22 -3.72,1.82 -7.81,2.72 -12.25,2.72 h -22.87 v 32.4 h -18.79 z m 18.79,-48.88 h 21.78 c 3.45,0 6.33,-1.41 8.65,-4.22 2.31,-2.81 3.47,-6.62 3.47,-11.44 0,-2.45 -0.36,-4.65 -1.09,-6.6 -0.73,-1.95 -1.68,-3.61 -2.86,-4.97 -1.18,-1.36 -2.57,-2.38 -4.15,-3.06 -1.59,-0.68 -3.2,-1.02 -4.83,-1.02 h -20.97 z" class="cls-2"/><path id="path1680" d="m 347.39,448.32 c 0,1.6 -0.32,3.07 -0.96,4.41 -0.64,1.34 -1.5,2.5 -2.58,3.48 -1.08,0.98 -2.34,1.74 -3.78,2.28 -1.44,0.54 -2.98,0.81 -4.62,0.81 h -20.1 v -42.6 h 20.52 c 1.48,0 2.82,0.32 4.02,0.96 1.2,0.64 2.22,1.47 3.06,2.49 0.84,1.02 1.49,2.18 1.95,3.48 0.46,1.3 0.69,2.61 0.69,3.93 0,2.16 -0.54,4.13 -1.62,5.91 -1.08,1.78 -2.58,3.11 -4.5,3.99 2.44,0.72 4.37,2.06 5.79,4.02 1.42,1.96 2.13,4.24 2.13,6.84 z m -27.84,-27.96 v 15.72 h 14.64 c 1.04,0 2.01,-0.22 2.91,-0.66 0.9,-0.44 1.67,-1.02 2.31,-1.74 0.64,-0.72 1.14,-1.55 1.5,-2.49 0.36,-0.94 0.54,-1.93 0.54,-2.97 0,-1.04 -0.17,-2.1 -0.51,-3.06 -0.34,-0.96 -0.82,-1.79 -1.44,-2.49 -0.62,-0.7 -1.35,-1.26 -2.19,-1.68 -0.84,-0.42 -1.76,-0.63 -2.76,-0.63 z m 23.64,27.24 c 0,-1.04 -0.18,-2.05 -0.54,-3.03 -0.36,-0.98 -0.87,-1.84 -1.53,-2.58 -0.66,-0.74 -1.44,-1.34 -2.34,-1.8 -0.9,-0.46 -1.87,-0.69 -2.91,-0.69 h -16.32 v 16.14 h 15.9 c 1.08,0 2.09,-0.22 3.03,-0.66 0.94,-0.44 1.76,-1.03 2.46,-1.77 0.7,-0.74 1.25,-1.6 1.65,-2.58 0.4,-0.98 0.6,-1.99 0.6,-3.03 z" class="cls-3"/><path id="path1682" d="m 358.01,416.7 13.92,22.92 14.04,-22.92 h 4.56 l -16.5,26.76 v 15.84 h -4.2 V 443.34 L 353.39,416.7 Z" class="cls-3"/><path id="path1684" d="m 418.49,459.3 v -42.6 h 27.96 v 3.72 h -23.76 v 15.66 h 20.04 v 3.48 h -20.04 v 19.74 z" class="cls-3"/><path id="path1686" d="m 458.03,459.3 v -42.6 h 18 c 1.84,0 3.53,0.39 5.07,1.17 1.54,0.78 2.87,1.8 3.99,3.06 1.12,1.26 1.99,2.69 2.61,4.29 0.62,1.6 0.93,3.22 0.93,4.86 0,1.64 -0.23,3.05 -0.69,4.47 -0.46,1.42 -1.1,2.7 -1.92,3.84 -0.82,1.14 -1.81,2.1 -2.97,2.88 -1.16,0.78 -2.46,1.31 -3.9,1.59 l 10.44,16.44 h -4.74 l -10.02,-15.72 h -12.6 v 15.72 z m 4.2,-19.44 h 13.92 c 1.24,0 2.37,-0.27 3.39,-0.81 1.02,-0.54 1.89,-1.27 2.61,-2.19 0.72,-0.92 1.28,-1.96 1.68,-3.12 0.4,-1.16 0.6,-2.38 0.6,-3.66 0,-1.28 -0.23,-2.51 -0.69,-3.69 -0.46,-1.18 -1.08,-2.21 -1.86,-3.09 -0.78,-0.88 -1.7,-1.58 -2.76,-2.1 -1.06,-0.52 -2.17,-0.78 -3.33,-0.78 h -13.56 z" class="cls-3"/><path id="path1688" d="m 530.03,455.58 v 3.72 h -28.62 v -42.6 h 28.08 v 3.72 h -23.88 v 15.36 h 20.82 v 3.54 h -20.82 v 16.26 z" class="cls-3"/><path id="path1690" d="m 570.77,455.58 v 3.72 h -28.62 v -42.6 h 28.08 v 3.72 h -23.88 v 15.36 h 20.82 v 3.54 h -20.82 v 16.26 z" class="cls-3"/><path id="path1692" d="m 599.48,459.3 v -42.6 h 4.2 v 38.88 h 24.6 v 3.72 z" class="cls-3"/><path id="path1694" d="m 651.86,416.7 h 3.54 l 17.7,42.6 h -4.44 l -5.52,-13.32 H 644 l -5.46,13.32 h -4.5 z m 10.32,25.98 -8.58,-21.06 -8.7,21.06 z" class="cls-3"/><path id="path1696" d="m 695.77,417 h 3.96 l 6,15.12 6.06,-15.12 h 4.02 l -7.44,18.18 8.16,19.26 15.42,-37.74 h 4.56 l -18.06,42.6 h -3.72 l -8.94,-21.06 -9,21.06 h -3.66 l -18,-42.6 h 4.5 l 15.48,37.74 8.1,-19.26 z" class="cls-3"/><path id="path1698" d="m 179.64,48.12 c -5.01,1.2 -9.15,5.19 -10.49,10.2 -2.07,7.73 2.07,14.85 8.49,17.53 V 282.71 H 189.8 V 75.35 c 4.79,-2.4 8.1,-7.3 8.1,-13 0,-9.26 -8.6,-16.55 -18.26,-14.23 z" class="cls-2"/><rect id="rect1700" width="12.07" height="42.21" x="177.67" y="417.2" class="cls-2"/></g><g id="Layer_3" data-name="Layer 3" transform="translate(-35,-6.66)"><g id="g1715"><path id="path1703" d="m 364.97,225.84 h -75.63 v 6.24 c 0.04,7.56 4.64,12.19 12.15,12.19 16.46,-0.04 32.92,-0.07 49.42,-0.11 1.5,-0.04 3.07,-0.07 4.53,-0.47 9.09,-2.41 10.77,-9.93 9.53,-17.85 z" class="cls-1"/><path id="path1705" d="m 381.21,133.09 c -2.74,-2.77 -6.13,-4.16 -10.18,-4.16 -4.38,0 -7.96,1.35 -10.73,4.09 -1.35,1.31 -2.37,2.85 -3.03,4.56 h -91.39 v 146.65 h 11.86 c 0,0 0,-134.79 0,-134.79 h 45.92 c 0,5.29 0,10.58 -0.07,15.88 -0.04,1.02 -0.18,2.12 -0.51,3.07 -5.44,15.37 -10.91,30.7 -16.28,46.03 -0.47,1.35 -1.06,1.79 -2.41,1.75 -4.74,-0.07 -9.45,0 -14.16,0.04 -1.57,0 -2.19,0.62 -2.19,2.01 0,1.39 0.69,2.04 2.37,2.01 4.53,0 9.02,-0.11 13.54,-0.15 20.44,-0.07 40.88,-0.18 61.35,-0.26 1.86,0 2.74,-0.69 2.7,-2.04 -0.04,-1.35 -0.8,-1.93 -2.63,-1.93 -3.91,0 -7.77,0 -11.64,0.07 -1.13,0.04 -1.64,-0.33 -2.08,-1.39 -6.5,-15.33 -12.99,-30.62 -19.49,-45.95 -0.22,-0.47 -0.33,-0.99 -0.33,-1.5 v -17.63 h 25.48 c 0.62,1.5 1.53,2.92 2.7,4.27 2.59,2.92 6.2,4.42 10.88,4.42 4.12,0 7.59,-1.39 10.33,-4.2 2.74,-2.77 4.12,-6.24 4.12,-10.48 0,-4.24 -1.39,-7.56 -4.12,-10.37 z m -36.57,82.75 h -30.99 c 4.64,-13.07 9.27,-26.17 13.91,-39.24 h 0.4 c 5.55,12.99 11.06,25.99 16.68,39.24 z m 30.55,-67.38 c -1.24,1.39 -2.7,2.08 -4.38,2.08 -1.68,0 -3.25,-0.69 -4.49,-2.12 -1.24,-1.42 -1.86,-3.14 -1.86,-5.15 0,-1.86 0.66,-3.43 1.9,-4.74 1.24,-1.35 2.74,-2.01 4.45,-2.01 1.71,0 3.14,0.73 4.38,2.12 1.24,1.42 1.86,3.07 1.86,4.96 0,1.89 -0.62,3.47 -1.86,4.85 z" class="cls-1"/><path id="path1707" d="M 133.53,258.47 H 57.91 c 0,2.26 -0.04,4.23 0,6.2 0,7.56 4.64,12.19 12.12,12.19 16.46,-0.04 32.96,-0.07 49.42,-0.11 1.5,0 3.07,-0.07 4.53,-0.47 9.09,-2.41 10.77,-9.93 9.56,-17.81 z" class="cls-1"/><path id="path1709" d="m 63.35,170.47 c -0.69,-1.93 -1.79,-3.69 -3.28,-5.22 -2.77,-2.77 -6.17,-4.16 -10.22,-4.16 -4.34,0 -7.92,1.35 -10.69,4.09 -2.77,2.74 -4.16,6.28 -4.16,10.58 0,3.8 1.28,7.15 3.87,10.11 2.59,2.92 6.2,4.42 10.88,4.42 4.12,0 7.56,-1.39 10.33,-4.16 1.13,-1.17 2.01,-2.41 2.7,-3.8 H 92.2 c 0,5.18 0,10.4 -0.07,15.59 0,1.02 -0.18,2.12 -0.51,3.07 -5.4,15.37 -10.88,30.66 -16.28,46.02 -0.47,1.35 -1.02,1.75 -2.41,1.75 -4.71,-0.07 -9.45,0 -14.16,0.04 -1.53,0 -2.19,0.62 -2.19,2.01 0.04,1.39 0.73,2.01 2.41,2.01 4.49,-0.04 9.02,-0.11 13.5,-0.15 20.44,-0.11 40.91,-0.18 61.35,-0.26 1.9,-0.04 2.74,-0.69 2.7,-2.08 0,-1.31 -0.77,-1.9 -2.63,-1.9 -3.87,0 -7.77,-0.04 -11.64,0.07 -1.09,0 -1.64,-0.33 -2.08,-1.39 -6.46,-15.33 -12.99,-30.62 -19.49,-45.95 -0.18,-0.47 -0.33,-1.02 -0.33,-1.53 0,-5.73 0,-11.53 0.04,-17.3 h 45.84 v 101.9 h 11.86 c 0,0 0,-113.77 0,-113.77 H 63.35 Z m -9.31,10.15 c -1.28,1.39 -2.7,2.08 -4.38,2.08 -1.68,0 -3.25,-0.69 -4.49,-2.12 -1.24,-1.42 -1.86,-3.14 -1.86,-5.15 0,-1.82 0.62,-3.43 1.9,-4.75 1.24,-1.31 2.74,-2.01 4.45,-2.01 1.71,0 3.1,0.73 4.38,2.12 1.24,1.42 1.86,3.07 1.86,4.96 0,1.89 -0.62,3.5 -1.86,4.85 z m 59.16,67.81 H 82.21 c 4.64,-13.07 9.27,-26.17 13.91,-39.24 0.11,0 0.26,0 0.4,-0.04 5.51,12.99 11.02,26.02 16.68,39.27 z" class="cls-1"/><path id="path1711" d="m 226.6,21.23 c 0,-4.12 -1.39,-7.59 -4.12,-10.37 -2.77,-2.81 -6.17,-4.2 -10.22,-4.2 -4.34,0 -7.92,1.39 -10.69,4.12 -2.77,2.73 -4.16,6.24 -4.16,10.55 0,3.83 1.28,7.19 3.87,10.11 1.39,1.61 3.1,2.74 5.11,3.47 h -0.33 v 249.32 h 11.86 V 34.91 h -0.4 c 1.86,-0.66 3.5,-1.75 4.96,-3.21 2.74,-2.77 4.12,-6.28 4.12,-10.48 z m -10.14,5 c -1.28,1.39 -2.74,2.04 -4.38,2.04 -1.75,0 -3.25,-0.69 -4.49,-2.12 -1.24,-1.39 -1.86,-3.1 -1.86,-5.11 0,-1.86 0.62,-3.43 1.86,-4.78 1.28,-1.31 2.74,-1.97 4.49,-1.97 1.64,0 3.1,0.69 4.38,2.12 1.24,1.42 1.86,3.07 1.86,4.93 0,1.86 -0.62,3.5 -1.86,4.89 z" class="cls-1"/><path id="path1713" d="m 252.59,82.8 c -2.74,-2.77 -6.17,-4.2 -10.22,-4.2 -4.34,0 -7.92,1.39 -10.69,4.12 -2.77,2.74 -4.16,6.24 -4.16,10.58 0,3.8 1.28,7.15 3.87,10.11 1.31,1.5 2.92,2.59 4.78,3.32 v 177.49 h 11.86 V 106.74 c 1.68,-0.69 3.21,-1.75 4.56,-3.1 2.74,-2.77 4.12,-6.28 4.12,-10.48 0,-4.2 -1.39,-7.59 -4.12,-10.37 z m -6.02,15.37 c -1.24,1.39 -2.7,2.08 -4.38,2.08 -1.68,0 -3.25,-0.73 -4.49,-2.12 -1.24,-1.42 -1.86,-3.14 -1.86,-5.15 0,-1.86 0.62,-3.43 1.9,-4.74 1.24,-1.35 2.74,-2.01 4.45,-2.01 1.71,0 3.14,0.69 4.38,2.12 1.24,1.42 1.86,3.07 1.86,4.96 0,1.89 -0.62,3.47 -1.86,4.85 z" class="cls-1"/></g></g></svg>