<?xml version="1.0" encoding="utf-8"?>
<!-- Generator: Adobe Illustrator 28.1.0, SVG Export Plug-In . SVG Version: 6.00 Build 0)  -->
<svg version="1.1" xmlns="http://www.w3.org/2000/svg" xmlns:xlink="http://www.w3.org/1999/xlink" x="0px" y="0px"
	 viewBox="0 0 108 108" style="enable-background:new 0 0 108 108;" xml:space="preserve">
<style type="text/css">
	.st0{display:none;}
	.st1{display:inline;}
	.st2{fill:#E0E1E2;}
	.st3{fill:#673367;}
	.st4{fill:#FFFFFF;}
</style>
<g id="Layer_2" class="st0">
	<g class="st1">
		<rect x="-18" y="-18" class="st2" width="144" height="144"/>
	</g>
</g>
<g id="Layer_1">
	<g>
		<circle class="st3" cx="54" cy="54" r="54"/>
	</g>
</g>
<g id="Layer_3">
	<g>
		<g>
			<path class="st4" d="M37.28,99.55v-4.59h3.01v0.4h-2.56v1.69h2.16v0.38h-2.16v2.13H37.28z"/>
			<path class="st4" d="M41.54,99.55v-4.59h1.94c0.2,0,0.38,0.04,0.55,0.13c0.17,0.08,0.31,0.19,0.43,0.33
				c0.12,0.14,0.21,0.29,0.28,0.46c0.07,0.17,0.1,0.35,0.1,0.52c0,0.17-0.02,0.33-0.07,0.48c-0.05,0.15-0.12,0.29-0.21,0.41
				c-0.09,0.12-0.2,0.23-0.32,0.31c-0.13,0.08-0.27,0.14-0.42,0.17l1.13,1.77h-0.51l-1.08-1.69H42v1.69H41.54z M42,97.45h1.5
				c0.13,0,0.26-0.03,0.37-0.09c0.11-0.06,0.2-0.14,0.28-0.24c0.08-0.1,0.14-0.21,0.18-0.34c0.04-0.13,0.06-0.26,0.06-0.39
				s-0.02-0.27-0.07-0.4c-0.05-0.13-0.12-0.24-0.2-0.33c-0.08-0.09-0.18-0.17-0.3-0.23c-0.11-0.06-0.23-0.08-0.36-0.08H42V97.45z"/>
			<path class="st4" d="M49.3,99.14v0.4h-3.08v-4.59h3.03v0.4h-2.57v1.66h2.24v0.38h-2.24v1.75H49.3z"/>
			<path class="st4" d="M53.69,99.14v0.4h-3.08v-4.59h3.03v0.4h-2.57v1.66h2.24v0.38h-2.24v1.75H53.69z"/>
		</g>
		<g>
			<path class="st4" d="M55.32,99.62c-0.12,0-0.21-0.04-0.3-0.11c-0.08-0.07-0.13-0.18-0.13-0.31c0-0.11,0.04-0.21,0.12-0.29
				c0.08-0.08,0.18-0.12,0.3-0.12c0.12,0,0.22,0.04,0.3,0.12c0.08,0.08,0.12,0.18,0.12,0.29c0,0.13-0.04,0.24-0.12,0.31
				C55.53,99.58,55.44,99.62,55.32,99.62z"/>
		</g>
		<g>
			<path class="st4" d="M56.79,99.55v-4.59h0.45v4.19h2.65v0.4H56.79z"/>
			<path class="st4" d="M62.43,94.95h0.38l1.91,4.59h-0.48l-0.59-1.44h-2.06L61,99.55h-0.49L62.43,94.95z M63.55,97.75l-0.92-2.27
				l-0.94,2.27H63.55z"/>
		</g>
		<g>
			<path class="st4" d="M66.33,94.99h0.43l0.65,1.63l0.65-1.63h0.43l-0.8,1.96l0.88,2.08l1.66-4.07h0.49l-1.95,4.59h-0.4l-0.96-2.27
				l-0.97,2.27h-0.39l-1.94-4.59h0.49l1.67,4.07l0.87-2.08L66.33,94.99z"/>
		</g>
	</g>
</g>
<g id="Layer_4">
	<g>
		<path class="st4" d="M26.63,91.04V67.97h15.5v3.93H31.13v5.94h9.16v3.64h-9.16v9.55L26.63,91.04L26.63,91.04z"/>
		<path class="st4" d="M45.27,91.04V67.97h4.48v19.14h11.76v3.93H45.27L45.27,91.04L45.27,91.04z"/>
		<path class="st4" d="M64.24,91.04V67.97h9.77c1.06,0,2.04,0.22,2.94,0.67c0.9,0.45,1.67,1.03,2.32,1.75
			c0.65,0.72,1.16,1.55,1.53,2.47c0.37,0.92,0.56,1.85,0.56,2.78c0,0.93-0.18,1.92-0.52,2.84c-0.34,0.92-0.84,1.74-1.47,2.45
			s-1.38,1.29-2.27,1.72c-0.89,0.43-1.87,0.65-2.92,0.65h-5.46v7.73L64.24,91.04L64.24,91.04z M68.72,79.38h5.2
			c0.83,0,1.51-0.33,2.06-1c0.56-0.67,0.83-1.58,0.83-2.73s-0.08-1.11-0.26-1.58c-0.18-0.46-0.4-0.86-0.68-1.19
			c-0.28-0.32-0.61-0.57-0.99-0.73c-0.38-0.17-0.76-0.24-1.15-0.24h-5V79.38z"/>
	</g>
</g>
<g id="Layer_6">
	<g>
		<path class="st4" d="M87.39,52.43H71.08v1.35c0.01,1.63,1,2.63,2.62,2.63c3.55-0.01,7.1-0.02,10.66-0.02
			c0.32-0.01,0.66-0.02,0.98-0.1C87.3,55.76,87.66,54.14,87.39,52.43z"/>
		<path class="st4" d="M90.9,32.43c-0.59-0.6-1.32-0.9-2.2-0.9c-0.94,0-1.72,0.29-2.31,0.88c-0.29,0.28-0.51,0.61-0.65,0.98H66.02
			v31.63h2.56V35.95h9.9c0,1.14,0,2.28-0.02,3.42c-0.01,0.22-0.04,0.46-0.11,0.66c-1.17,3.31-2.35,6.62-3.51,9.93
			c-0.1,0.29-0.23,0.39-0.52,0.38c-1.02-0.02-2.04,0-3.05,0.01c-0.34,0-0.47,0.13-0.47,0.43c0,0.3,0.15,0.44,0.51,0.43
			c0.98,0,1.94-0.02,2.92-0.03c4.41-0.02,8.82-0.04,13.23-0.06c0.4,0,0.59-0.15,0.58-0.44c-0.01-0.29-0.17-0.42-0.57-0.42
			c-0.84,0-1.68,0-2.51,0.02c-0.24,0.01-0.35-0.07-0.45-0.3c-1.4-3.31-2.8-6.61-4.2-9.91c-0.05-0.1-0.07-0.21-0.07-0.32v-3.8h5.5
			c0.13,0.32,0.33,0.63,0.58,0.92c0.56,0.63,1.34,0.95,2.35,0.95c0.89,0,1.64-0.3,2.23-0.91c0.59-0.6,0.89-1.35,0.89-2.26
			C91.79,33.77,91.49,33.03,90.9,32.43z M83.01,50.27h-6.68c1-2.82,2-5.64,3-8.46h0.09C80.61,44.61,81.79,47.42,83.01,50.27z
			 M89.6,35.74c-0.27,0.3-0.58,0.45-0.94,0.45c-0.38,0-0.7-0.15-0.97-0.46c-0.27-0.31-0.4-0.68-0.4-1.11c0-0.4,0.14-0.74,0.41-1.02
			c0.27-0.29,0.59-0.43,0.96-0.43c0.36,0,0.68,0.16,0.94,0.46c0.27,0.31,0.4,0.66,0.4,1.07C90,35.1,89.86,35.44,89.6,35.74z"/>
		<path class="st4" d="M37.47,59.47H21.16c0,0.49-0.01,0.91,0,1.34c0,1.63,1,2.63,2.61,2.63c3.55-0.01,7.11-0.02,10.66-0.02
			c0.32,0,0.66-0.02,0.98-0.1C37.37,62.79,37.73,61.17,37.47,59.47z"/>
		<path class="st4" d="M22.33,40.49c-0.15-0.42-0.39-0.8-0.71-1.13c-0.6-0.6-1.33-0.9-2.2-0.9c-0.94,0-1.71,0.29-2.31,0.88
			c-0.6,0.59-0.9,1.35-0.9,2.28c0,0.82,0.28,1.54,0.83,2.18c0.56,0.63,1.34,0.95,2.35,0.95c0.89,0,1.63-0.3,2.23-0.9
			c0.24-0.25,0.43-0.52,0.58-0.82h6.35c0,1.12,0,2.24-0.02,3.36c0,0.22-0.04,0.46-0.11,0.66c-1.17,3.31-2.35,6.61-3.51,9.93
			c-0.1,0.29-0.22,0.38-0.52,0.38c-1.02-0.02-2.04,0-3.05,0.01c-0.33,0-0.47,0.13-0.47,0.43c0.01,0.3,0.16,0.43,0.52,0.43
			c0.97-0.01,1.94-0.02,2.91-0.03c4.41-0.02,8.83-0.04,13.23-0.06c0.41-0.01,0.59-0.15,0.58-0.45c0-0.28-0.17-0.41-0.57-0.41
			c-0.83,0-1.68-0.01-2.51,0.02c-0.24,0-0.35-0.07-0.45-0.3c-1.39-3.31-2.8-6.61-4.2-9.91c-0.04-0.1-0.07-0.22-0.07-0.33
			c0-1.24,0-2.49,0.01-3.73h9.89v21.98h2.56V40.49H22.33z M20.32,42.68c-0.28,0.3-0.58,0.45-0.94,0.45c-0.38,0-0.7-0.15-0.97-0.46
			c-0.27-0.31-0.4-0.68-0.4-1.11c0-0.39,0.13-0.74,0.41-1.02c0.27-0.28,0.59-0.43,0.96-0.43c0.36,0,0.67,0.16,0.94,0.46
			c0.27,0.31,0.4,0.66,0.4,1.07C20.73,42.03,20.59,42.39,20.32,42.68z M33.09,57.3H26.4c1-2.82,2-5.64,3-8.46
			c0.02,0,0.06,0,0.09-0.01C30.68,51.64,31.87,54.45,33.09,57.3z"/>
		<path class="st4" d="M50.19,14.22c-0.59-0.6-1.32-0.9-2.2-0.9c-0.94,0-1.71,0.29-2.31,0.88c-0.61,0.59-0.91,1.35-0.91,2.28
			c0,0.82,0.28,1.54,0.84,2.18c0.28,0.32,0.63,0.57,1.03,0.72v45.64h2.56V19.39c0.36-0.15,0.68-0.37,0.98-0.67
			c0.6-0.6,0.89-1.35,0.89-2.26C51.08,15.57,50.79,14.83,50.19,14.22z M48.89,17.54c-0.27,0.3-0.58,0.45-0.94,0.45
			c-0.38,0-0.7-0.15-0.97-0.46c-0.27-0.31-0.4-0.68-0.4-1.11c0-0.4,0.13-0.74,0.4-1.02c0.27-0.29,0.59-0.43,0.97-0.43
			c0.35,0,0.67,0.16,0.94,0.46c0.28,0.31,0.41,0.66,0.41,1.07C49.3,16.89,49.17,17.24,48.89,17.54z"/>
		<path class="st4" d="M57.55,8.3c0-0.89-0.3-1.64-0.89-2.24c-0.6-0.61-1.33-0.91-2.2-0.91c-0.94,0-1.71,0.3-2.31,0.89
			c-0.6,0.59-0.9,1.35-0.9,2.28c0,0.83,0.28,1.55,0.83,2.18c0.3,0.35,0.67,0.59,1.1,0.75h-0.07v53.78h2.56V11.25h-0.09
			c0.4-0.14,0.76-0.38,1.07-0.69C57.25,9.96,57.55,9.2,57.55,8.3z M55.36,9.37c-0.28,0.3-0.59,0.44-0.94,0.44
			c-0.38,0-0.7-0.15-0.97-0.46c-0.27-0.3-0.4-0.67-0.4-1.1c0-0.4,0.13-0.74,0.4-1.03c0.28-0.28,0.59-0.43,0.97-0.43
			c0.35,0,0.67,0.15,0.94,0.46c0.27,0.31,0.4,0.66,0.4,1.06C55.76,8.73,55.63,9.08,55.36,9.37z"/>
		<path class="st4" d="M63.15,21.58c-0.59-0.6-1.33-0.91-2.2-0.91c-0.94,0-1.71,0.3-2.31,0.89c-0.6,0.59-0.9,1.35-0.9,2.28
			c0,0.82,0.28,1.54,0.83,2.18c0.28,0.32,0.63,0.56,1.03,0.72v38.28h2.56V26.74c0.36-0.15,0.69-0.38,0.98-0.67
			c0.59-0.6,0.89-1.35,0.89-2.26C64.04,22.92,63.74,22.18,63.15,21.58z M61.85,24.89c-0.27,0.3-0.58,0.45-0.94,0.45
			c-0.38,0-0.7-0.16-0.97-0.46c-0.27-0.31-0.4-0.68-0.4-1.11c0-0.4,0.13-0.74,0.41-1.02c0.27-0.29,0.59-0.43,0.96-0.43
			c0.36,0,0.68,0.15,0.94,0.46c0.27,0.31,0.4,0.66,0.4,1.07C62.25,24.25,62.12,24.59,61.85,24.89z"/>
	</g>
</g>
</svg>
