<?xml version="1.0" encoding="utf-8"?>
<!-- Generator: Adobe Illustrator 28.1.0, SVG Export Plug-In . SVG Version: 6.00 Build 0)  -->
<svg version="1.1" xmlns="http://www.w3.org/2000/svg" xmlns:xlink="http://www.w3.org/1999/xlink" x="0px" y="0px"
	 viewBox="0 0 108 108" style="enable-background:new 0 0 108 108;" xml:space="preserve">
<style type="text/css">
	.st0{display:none;}
	.st1{display:inline;}
	.st2{fill:#E0E1E2;}
	.st3{fill:#EA9C25;}
	.st4{fill:#FFFFFF;}
	.st5{fill:#2E3192;}
</style>
<g id="Layer_2" class="st0">
	<g class="st1">
		<rect x="-18" y="-18" class="st2" width="144" height="144"/>
	</g>
</g>
<g id="Layer_1">
	<g>
		<circle class="st3" cx="54" cy="54.07" r="53.93"/>
	</g>
</g>
<g id="Layer_3">
	<g>
		<g>
			<path class="st4" d="M54.63,83.66c0,0.17-0.03,0.33-0.1,0.47c-0.07,0.14-0.16,0.27-0.28,0.37c-0.12,0.11-0.25,0.19-0.41,0.25
				c-0.15,0.06-0.32,0.09-0.5,0.09h-2.16v-4.59h2.21c0.16,0,0.3,0.03,0.43,0.1c0.13,0.07,0.24,0.16,0.33,0.27
				c0.09,0.11,0.16,0.23,0.21,0.37c0.05,0.14,0.07,0.28,0.07,0.42c0,0.23-0.06,0.44-0.17,0.64c-0.12,0.19-0.28,0.33-0.48,0.43
				c0.26,0.08,0.47,0.22,0.62,0.43C54.56,83.13,54.63,83.38,54.63,83.66z M51.64,80.65v1.69h1.58c0.11,0,0.22-0.02,0.31-0.07
				c0.1-0.05,0.18-0.11,0.25-0.19c0.07-0.08,0.12-0.17,0.16-0.27c0.04-0.1,0.06-0.21,0.06-0.32c0-0.12-0.02-0.23-0.05-0.33
				c-0.04-0.1-0.09-0.19-0.15-0.27c-0.07-0.08-0.15-0.14-0.24-0.18c-0.09-0.05-0.19-0.07-0.3-0.07H51.64z M54.18,83.58
				c0-0.11-0.02-0.22-0.06-0.33c-0.04-0.11-0.09-0.2-0.16-0.28c-0.07-0.08-0.16-0.14-0.25-0.19c-0.1-0.05-0.2-0.07-0.31-0.07h-1.76
				v1.74h1.71c0.12,0,0.22-0.02,0.33-0.07c0.1-0.05,0.19-0.11,0.26-0.19c0.08-0.08,0.13-0.17,0.18-0.28
				C54.16,83.8,54.18,83.69,54.18,83.58z"/>
			<path class="st4" d="M55.78,80.25l1.5,2.47l1.51-2.47h0.49l-1.78,2.88v1.71h-0.45v-1.72l-1.77-2.87H55.78z"/>
		</g>
		<g>
			<path class="st4" d="M62.29,84.84v-4.59h3.01v0.4h-2.56v1.69h2.16v0.37h-2.16v2.12H62.29z"/>
			<path class="st4" d="M66.54,84.84v-4.59h1.94c0.2,0,0.38,0.04,0.55,0.13c0.17,0.08,0.31,0.19,0.43,0.33
				c0.12,0.14,0.21,0.29,0.28,0.46c0.07,0.17,0.1,0.35,0.1,0.52c0,0.17-0.02,0.33-0.07,0.48c-0.05,0.15-0.12,0.29-0.21,0.41
				c-0.09,0.12-0.19,0.23-0.32,0.31c-0.12,0.08-0.26,0.14-0.42,0.17l1.12,1.77h-0.51l-1.08-1.69H67v1.69H66.54z M67,82.75h1.5
				c0.13,0,0.26-0.03,0.36-0.09c0.11-0.06,0.2-0.14,0.28-0.24c0.08-0.1,0.14-0.21,0.18-0.34c0.04-0.12,0.06-0.26,0.06-0.39
				c0-0.14-0.02-0.27-0.07-0.4c-0.05-0.13-0.12-0.24-0.2-0.33c-0.08-0.09-0.18-0.17-0.3-0.23c-0.11-0.06-0.23-0.08-0.36-0.08H67
				V82.75z"/>
			<path class="st4" d="M74.29,84.44v0.4h-3.08v-4.59h3.02v0.4h-2.57v1.65h2.24v0.38h-2.24v1.75H74.29z"/>
			<path class="st4" d="M78.68,84.44v0.4H75.6v-4.59h3.02v0.4h-2.57v1.65h2.24v0.38h-2.24v1.75H78.68z"/>
		</g>
		<g>
			<path class="st4" d="M80.31,84.91c-0.12,0-0.21-0.04-0.3-0.11c-0.08-0.07-0.13-0.18-0.13-0.31c0-0.11,0.04-0.21,0.12-0.29
				c0.08-0.08,0.18-0.12,0.3-0.12c0.12,0,0.22,0.04,0.3,0.12c0.08,0.08,0.12,0.18,0.12,0.29c0,0.13-0.04,0.24-0.12,0.31
				C80.51,84.87,80.42,84.91,80.31,84.91z"/>
		</g>
		<g>
			<path class="st4" d="M81.77,84.84v-4.59h0.45v4.19h2.65v0.4H81.77z"/>
			<path class="st4" d="M87.41,80.25h0.38l1.91,4.59h-0.48l-0.59-1.43h-2.06l-0.59,1.43h-0.48L87.41,80.25z M88.52,83.05l-0.92-2.27
				l-0.94,2.27H88.52z"/>
		</g>
		<g>
			<path class="st4" d="M91.29,80.29h0.43l0.65,1.63l0.65-1.63h0.43l-0.8,1.96l0.88,2.07l1.66-4.06h0.49l-1.94,4.59h-0.4l-0.96-2.27
				l-0.97,2.27h-0.39l-1.94-4.59h0.48l1.67,4.06l0.87-2.07L91.29,80.29z"/>
		</g>
	</g>
</g>
<g id="Layer_4" class="st0">
	<g class="st1">
		<g>
			<g>
				<path class="st5" d="M1.72,62.31c0-0.89,0.16-1.77,0.48-2.64c0.32-0.87,0.79-1.65,1.41-2.33c0.62-0.69,1.37-1.24,2.26-1.67
					c0.89-0.42,1.91-0.64,3.04-0.64c1.34,0,2.5,0.29,3.49,0.88c0.98,0.59,1.71,1.36,2.19,2.3l-2.18,1.5
					c-0.19-0.41-0.43-0.76-0.7-1.04c-0.27-0.28-0.57-0.5-0.88-0.67c-0.32-0.16-0.64-0.28-0.99-0.36c-0.34-0.08-0.68-0.11-1.01-0.11
					c-0.71,0-1.33,0.14-1.86,0.43C6.44,58.26,6,58.63,5.65,59.09c-0.35,0.46-0.61,0.98-0.79,1.56c-0.18,0.58-0.27,1.16-0.27,1.74
					c0,0.64,0.1,1.26,0.31,1.86c0.21,0.6,0.5,1.12,0.87,1.57c0.38,0.45,0.83,0.82,1.36,1.09c0.53,0.27,1.11,0.41,1.74,0.41
					c0.33,0,0.67-0.04,1.03-0.12c0.36-0.08,0.7-0.21,1.02-0.39c0.32-0.18,0.62-0.41,0.89-0.69c0.27-0.28,0.49-0.62,0.66-1.02
					l2.32,1.34c-0.23,0.55-0.57,1.03-1,1.45c-0.43,0.42-0.92,0.77-1.46,1.06c-0.54,0.29-1.12,0.51-1.74,0.66
					c-0.62,0.15-1.22,0.23-1.81,0.23c-1.04,0-1.99-0.22-2.86-0.66c-0.86-0.44-1.61-1.01-2.23-1.72c-0.62-0.71-1.11-1.51-1.46-2.41
					C1.89,64.15,1.72,63.24,1.72,62.31z"/>
				<path class="st5" d="M22.94,69.81c-1.07,0-2.04-0.21-2.91-0.63c-0.87-0.42-1.62-0.97-2.24-1.67c-0.62-0.69-1.11-1.48-1.45-2.37
					c-0.34-0.89-0.51-1.8-0.51-2.73c0-0.97,0.18-1.91,0.54-2.8c0.36-0.89,0.86-1.68,1.5-2.36c0.64-0.69,1.39-1.23,2.27-1.63
					c0.88-0.4,1.83-0.61,2.86-0.61c1.06,0,2.02,0.22,2.89,0.65c0.87,0.43,1.61,1,2.23,1.7c0.62,0.7,1.1,1.49,1.44,2.39
					c0.34,0.89,0.51,1.8,0.51,2.71c0,0.97-0.18,1.9-0.53,2.79c-0.36,0.88-0.85,1.67-1.48,2.34c-0.63,0.68-1.38,1.22-2.26,1.62
					C24.92,69.61,23.96,69.81,22.94,69.81z M18.7,62.41c0,0.63,0.1,1.24,0.29,1.83c0.19,0.59,0.47,1.11,0.83,1.56
					c0.36,0.45,0.81,0.82,1.34,1.09c0.53,0.27,1.13,0.41,1.8,0.41c0.69,0,1.29-0.14,1.82-0.42c0.53-0.28,0.97-0.65,1.34-1.12
					c0.36-0.47,0.64-0.99,0.82-1.57c0.19-0.58,0.28-1.18,0.28-1.78c0-0.63-0.1-1.24-0.3-1.83c-0.2-0.59-0.48-1.11-0.84-1.56
					c-0.36-0.45-0.81-0.81-1.34-1.08c-0.53-0.27-1.12-0.4-1.78-0.4c-0.69,0-1.3,0.14-1.83,0.42c-0.53,0.28-0.98,0.65-1.34,1.11
					c-0.36,0.46-0.63,0.98-0.81,1.56C18.79,61.21,18.7,61.81,18.7,62.41z"/>
				<path class="st5" d="M38.42,67.3c0.67,0,1.24-0.14,1.7-0.41c0.46-0.27,0.83-0.63,1.11-1.07c0.28-0.44,0.48-0.94,0.6-1.51
					c0.12-0.57,0.17-1.15,0.17-1.76v-7.44h2.82v7.44c0,1-0.12,1.94-0.36,2.82c-0.24,0.88-0.62,1.64-1.13,2.3s-1.18,1.18-1.98,1.56
					c-0.81,0.38-1.78,0.58-2.9,0.58c-1.17,0-2.16-0.2-2.97-0.61c-0.82-0.4-1.48-0.94-1.98-1.6c-0.51-0.66-0.87-1.44-1.1-2.31
					c-0.23-0.88-0.34-1.79-0.34-2.73v-7.44h2.84v7.44c0,0.62,0.06,1.21,0.17,1.78c0.12,0.57,0.32,1.07,0.6,1.51
					c0.28,0.44,0.65,0.79,1.1,1.06S37.76,67.3,38.42,67.3z"/>
				<path class="st5" d="M47.67,69.71v-14.6h6.46c0.67,0,1.29,0.14,1.86,0.42c0.57,0.28,1.06,0.65,1.47,1.11
					c0.41,0.46,0.73,0.98,0.97,1.56c0.23,0.58,0.35,1.17,0.35,1.76c0,0.95-0.24,1.81-0.71,2.58c-0.47,0.77-1.11,1.33-1.92,1.68
					l3.33,5.49h-3.19l-2.98-4.89h-2.8v4.89H47.67z M50.51,62.33h3.56c0.26,0,0.5-0.06,0.73-0.19c0.23-0.12,0.42-0.29,0.59-0.5
					c0.16-0.21,0.29-0.46,0.39-0.75c0.1-0.29,0.14-0.6,0.14-0.93c0-0.34-0.05-0.66-0.16-0.95c-0.11-0.29-0.26-0.54-0.44-0.75
					c-0.19-0.21-0.4-0.38-0.64-0.49c-0.24-0.12-0.48-0.17-0.73-0.17h-3.43V62.33z"/>
			</g>
			<g>
				<path class="st5" d="M71.89,57.6h-4.67v12.11h-2.82V57.6h-4.67v-2.49h12.15V57.6z"/>
			</g>
		</g>
		<g>
			<path class="st5" d="M20.26,88.43v-14.6h1.44v13.32h8.43v1.27H20.26z"/>
			<path class="st5" d="M31.22,88.43v-14.6h1.44v14.6H31.22z"/>
			<path class="st5" d="M43.82,76.56c-0.41-0.47-0.96-0.84-1.64-1.13C41.49,75.15,40.71,75,39.84,75c-1.29,0-2.23,0.24-2.82,0.73
				c-0.59,0.49-0.88,1.15-0.88,1.98c0,0.44,0.08,0.8,0.24,1.08c0.16,0.28,0.4,0.52,0.73,0.73c0.33,0.21,0.75,0.38,1.26,0.53
				c0.51,0.15,1.12,0.3,1.82,0.45c0.78,0.16,1.48,0.35,2.11,0.56c0.62,0.21,1.15,0.46,1.59,0.77c0.44,0.31,0.77,0.68,1.01,1.12
				c0.23,0.44,0.35,0.99,0.35,1.65c0,0.67-0.13,1.25-0.39,1.75c-0.26,0.49-0.62,0.9-1.09,1.23c-0.47,0.33-1.02,0.57-1.67,0.73
				c-0.64,0.16-1.35,0.24-2.12,0.24c-2.26,0-4.22-0.71-5.86-2.12l0.72-1.17c0.26,0.27,0.57,0.53,0.94,0.78
				c0.36,0.25,0.77,0.46,1.21,0.65c0.45,0.19,0.92,0.33,1.43,0.43c0.51,0.1,1.04,0.15,1.6,0.15c1.17,0,2.07-0.21,2.72-0.63
				c0.65-0.42,0.98-1.05,0.98-1.9c0-0.45-0.09-0.83-0.28-1.14c-0.19-0.31-0.46-0.58-0.83-0.8c-0.37-0.23-0.83-0.42-1.38-0.59
				c-0.55-0.16-1.19-0.33-1.91-0.49c-0.77-0.18-1.44-0.36-2.02-0.56c-0.58-0.19-1.06-0.43-1.46-0.72c-0.4-0.29-0.7-0.63-0.89-1.04
				c-0.2-0.4-0.3-0.9-0.3-1.49c0-0.67,0.13-1.27,0.38-1.8c0.25-0.53,0.61-0.97,1.08-1.32c0.47-0.35,1.01-0.62,1.65-0.8
				c0.63-0.18,1.33-0.28,2.1-0.28c0.97,0,1.84,0.15,2.6,0.44c0.76,0.29,1.45,0.71,2.07,1.24L43.82,76.56z"/>
			<path class="st5" d="M57.11,75.1h-5.2v13.32h-1.44V75.1h-5.2v-1.27h11.84V75.1z"/>
			<path class="st5" d="M68.07,87.15v1.27h-9.81v-14.6h9.62v1.27H59.7v5.26h7.13v1.21H59.7v5.57H68.07z"/>
			<path class="st5" d="M71.19,76.5v11.93h-1.44v-14.6h1.11l9.66,12.15V73.85h1.44v14.58h-1.25L71.19,76.5z"/>
			<path class="st5" d="M94.41,87.15v1.27H84.6v-14.6h9.62v1.27h-8.18v5.26h7.13v1.21h-7.13v5.57H94.41z"/>
			<path class="st5" d="M96.09,88.43v-14.6h6.17c0.63,0,1.21,0.13,1.74,0.4c0.53,0.27,0.98,0.62,1.37,1.05
				c0.38,0.43,0.68,0.92,0.89,1.47c0.21,0.55,0.32,1.1,0.32,1.67c0,0.53-0.08,1.05-0.24,1.53c-0.16,0.49-0.38,0.93-0.66,1.32
				c-0.28,0.39-0.62,0.72-1.02,0.99c-0.4,0.27-0.84,0.45-1.34,0.54l3.58,5.63h-1.62l-3.43-5.39h-4.32v5.39H96.09z M97.53,81.77h4.77
				c0.42,0,0.81-0.09,1.16-0.28c0.35-0.19,0.65-0.44,0.89-0.75c0.25-0.32,0.44-0.67,0.58-1.07c0.14-0.4,0.21-0.82,0.21-1.25
				c0-0.44-0.08-0.86-0.24-1.26c-0.16-0.4-0.37-0.76-0.64-1.06c-0.27-0.3-0.58-0.54-0.95-0.72c-0.36-0.18-0.74-0.27-1.14-0.27h-4.65
				V81.77z"/>
		</g>
	</g>
</g>
<g id="Layer_5">
	<g>
		<path class="st4" d="M21.3,72.39c0,0.53-0.11,0.99-0.32,1.39c-0.21,0.4-0.5,0.73-0.87,1c-0.37,0.27-0.8,0.48-1.28,0.62
			c-0.49,0.14-1.01,0.21-1.56,0.21h-6.04V63.11h6.69c0.43,0,0.83,0.09,1.18,0.28c0.35,0.19,0.65,0.43,0.9,0.73
			c0.25,0.3,0.44,0.64,0.57,1.02c0.13,0.38,0.2,0.77,0.2,1.15c0,0.61-0.15,1.18-0.46,1.72c-0.31,0.53-0.75,0.93-1.34,1.19
			c0.72,0.21,1.28,0.59,1.7,1.13C21.09,70.88,21.3,71.56,21.3,72.39z M13.67,65.19v3.15h3.24c0.41,0,0.76-0.14,1.05-0.42
			c0.29-0.28,0.43-0.67,0.43-1.16c0-0.48-0.13-0.86-0.4-1.14c-0.26-0.28-0.59-0.42-0.98-0.42H13.67z M18.86,71.93
			c0-0.22-0.04-0.44-0.11-0.64c-0.08-0.21-0.18-0.38-0.31-0.54c-0.13-0.15-0.28-0.27-0.46-0.36c-0.18-0.09-0.37-0.13-0.58-0.13
			h-3.73v3.29h3.61c0.22,0,0.43-0.04,0.62-0.12c0.19-0.08,0.36-0.2,0.5-0.34c0.14-0.15,0.25-0.32,0.33-0.52
			C18.82,72.36,18.86,72.15,18.86,71.93z"/>
		<path class="st4" d="M28.89,75.69c-0.91,0-1.74-0.18-2.49-0.54c-0.75-0.36-1.38-0.83-1.92-1.43c-0.53-0.59-0.95-1.27-1.24-2.03
			c-0.29-0.76-0.44-1.54-0.44-2.34c0-0.83,0.16-1.63,0.47-2.39c0.31-0.76,0.74-1.44,1.28-2.02c0.55-0.59,1.19-1.05,1.94-1.4
			c0.75-0.35,1.57-0.52,2.45-0.52c0.9,0,1.73,0.18,2.47,0.55c0.74,0.37,1.38,0.85,1.91,1.45c0.53,0.6,0.94,1.28,1.23,2.04
			c0.29,0.76,0.44,1.54,0.44,2.32c0,0.83-0.15,1.63-0.46,2.38c-0.31,0.76-0.73,1.43-1.27,2.01c-0.54,0.58-1.18,1.04-1.94,1.39
			C30.58,75.52,29.77,75.69,28.89,75.69z M25.26,69.36c0,0.54,0.08,1.06,0.25,1.57c0.16,0.5,0.4,0.95,0.71,1.34
			c0.31,0.39,0.69,0.7,1.14,0.93c0.45,0.23,0.96,0.35,1.54,0.35c0.59,0,1.11-0.12,1.56-0.36c0.45-0.24,0.83-0.56,1.14-0.96
			c0.31-0.4,0.55-0.85,0.7-1.35c0.16-0.5,0.24-1.01,0.24-1.52c0-0.54-0.09-1.06-0.26-1.57c-0.17-0.5-0.41-0.95-0.72-1.34
			c-0.31-0.39-0.69-0.69-1.14-0.92c-0.45-0.23-0.96-0.34-1.52-0.34c-0.59,0-1.11,0.12-1.57,0.36c-0.46,0.24-0.84,0.56-1.14,0.95
			c-0.31,0.39-0.54,0.84-0.7,1.34C25.34,68.34,25.26,68.84,25.26,69.36z"/>
		<path class="st4" d="M45.97,65.24h-3.99v10.36h-2.41V65.24h-3.99v-2.13h10.4V65.24z"/>
		<path class="st4" d="M55.27,66.34c-0.08-0.08-0.23-0.19-0.45-0.33c-0.22-0.14-0.48-0.27-0.8-0.4c-0.31-0.13-0.65-0.24-1.02-0.33
			c-0.36-0.09-0.73-0.13-1.11-0.13c-0.67,0.01-1.17,0.14-1.49,0.39c-0.33,0.25-0.48,0.6-0.48,1.04c0,0.26,0.07,0.47,0.19,0.64
			c0.13,0.17,0.31,0.32,0.54,0.44c0.24,0.13,0.53,0.24,0.89,0.34c0.36,0.1,0.77,0.21,1.24,0.32c0.61,0.16,1.17,0.32,1.67,0.51
			c0.5,0.18,0.93,0.41,1.28,0.69c0.35,0.28,0.62,0.61,0.81,1c0.19,0.39,0.29,0.87,0.3,1.45c0.01,0.67-0.11,1.24-0.36,1.72
			c-0.25,0.48-0.58,0.87-1,1.17c-0.42,0.3-0.91,0.52-1.47,0.66c-0.56,0.14-1.14,0.22-1.75,0.23c-0.94,0.01-1.87-0.12-2.79-0.38
			c-0.92-0.27-1.75-0.66-2.48-1.16l1.04-2.11c0.11,0.1,0.3,0.24,0.58,0.41c0.28,0.17,0.61,0.33,0.98,0.5
			c0.38,0.17,0.8,0.3,1.25,0.41c0.46,0.11,0.93,0.16,1.41,0.16c1.34-0.02,2-0.46,1.99-1.31c0-0.27-0.08-0.5-0.24-0.68
			c-0.16-0.19-0.37-0.35-0.66-0.48c-0.28-0.14-0.63-0.26-1.03-0.37c-0.4-0.11-0.85-0.23-1.34-0.37c-0.6-0.16-1.12-0.33-1.56-0.52
			c-0.44-0.19-0.81-0.41-1.11-0.67c-0.3-0.26-0.52-0.56-0.67-0.91c-0.15-0.34-0.23-0.76-0.24-1.24c-0.01-0.63,0.1-1.2,0.33-1.69
			c0.23-0.5,0.55-0.91,0.96-1.24c0.41-0.33,0.89-0.59,1.44-0.77c0.55-0.18,1.14-0.27,1.77-0.28c0.88-0.01,1.69,0.12,2.43,0.38
			c0.74,0.27,1.39,0.58,1.95,0.95L55.27,66.34z"/>
		<path class="st4" d="M59.96,75.78c-0.29,0-0.54-0.09-0.75-0.28c-0.21-0.19-0.31-0.45-0.31-0.78c0-0.28,0.1-0.53,0.3-0.74
			c0.2-0.21,0.45-0.31,0.74-0.31c0.29,0,0.54,0.1,0.75,0.3c0.21,0.2,0.31,0.45,0.31,0.74c0,0.33-0.1,0.59-0.31,0.78
			C60.48,75.69,60.24,75.78,59.96,75.78z"/>
		<path class="st4" d="M64.05,75.61V63.11h1.23v11.4h7.21v1.09H64.05z"/>
		<path class="st4" d="M78.53,63.11h1.04l5.19,12.49h-1.3l-1.62-3.91h-5.61l-1.6,3.91H73.3L78.53,63.11z M81.55,70.73l-2.52-6.18
			l-2.55,6.18H81.55z"/>
		<path class="st4" d="M90.53,63.2h1.16l1.76,4.43l1.78-4.43h1.18l-2.18,5.33l2.39,5.65l4.52-11.07h1.34l-5.3,12.49h-1.09
			l-2.62-6.18l-2.64,6.18h-1.07l-5.28-12.49h1.32l4.54,11.07l2.38-5.65L90.53,63.2z"/>
	</g>
</g>
<g id="Layer_6">
	<g>
		<path class="st4" d="M63.09,42.97H51.2v0.98c0.01,1.19,0.73,1.92,1.91,1.92c2.59-0.01,5.17-0.01,7.77-0.02
			c0.24-0.01,0.48-0.01,0.71-0.07C63.02,45.4,63.28,44.21,63.09,42.97z"/>
		<path class="st4" d="M65.64,28.4c-0.43-0.44-0.96-0.65-1.6-0.65c-0.69,0-1.25,0.21-1.69,0.64c-0.21,0.21-0.37,0.45-0.48,0.72
			H47.52v29.45h1.86V30.97h7.21c0,0.83,0,1.66-0.01,2.49c-0.01,0.16-0.03,0.33-0.08,0.48c-0.85,2.41-1.71,4.82-2.56,7.23
			c-0.07,0.21-0.17,0.28-0.38,0.28c-0.75-0.01-1.49,0-2.23,0.01c-0.25,0-0.34,0.1-0.34,0.32s0.11,0.32,0.37,0.32
			c0.71,0,1.42-0.02,2.13-0.02c3.21-0.01,6.42-0.03,9.64-0.04c0.29,0,0.43-0.11,0.42-0.32s-0.13-0.3-0.41-0.3
			c-0.61,0-1.22,0-1.83,0.01c-0.18,0.01-0.26-0.05-0.33-0.22c-1.02-2.41-2.04-4.81-3.06-7.22c-0.03-0.07-0.05-0.15-0.05-0.24v-2.77
			h4c0.1,0.24,0.24,0.46,0.42,0.67c0.41,0.46,0.97,0.69,1.71,0.69c0.65,0,1.19-0.22,1.62-0.66c0.43-0.44,0.65-0.98,0.65-1.65
			C66.29,29.38,66.07,28.84,65.64,28.4z M59.89,41.4h-4.87c0.73-2.05,1.46-4.11,2.18-6.17h0.06C58.14,37.27,59.01,39.32,59.89,41.4z
			 M64.69,30.81c-0.2,0.22-0.42,0.33-0.69,0.33c-0.28,0-0.51-0.11-0.71-0.33c-0.2-0.22-0.29-0.49-0.29-0.81
			c0-0.29,0.1-0.54,0.3-0.75c0.19-0.21,0.43-0.32,0.7-0.32c0.26,0,0.49,0.11,0.69,0.33c0.19,0.22,0.29,0.48,0.29,0.78
			C64.99,30.34,64.89,30.59,64.69,30.81z"/>
		<path class="st4" d="M26.72,48.1H14.84c0,0.36-0.01,0.67,0,0.97c0,1.19,0.73,1.92,1.9,1.92c2.59-0.01,5.18-0.01,7.77-0.02
			c0.24,0,0.48-0.01,0.71-0.07C26.65,50.52,26.91,49.33,26.72,48.1z"/>
		<path class="st4" d="M15.69,34.27c-0.11-0.3-0.28-0.58-0.52-0.82c-0.44-0.44-0.97-0.65-1.61-0.65c-0.68,0-1.24,0.21-1.68,0.64
			c-0.44,0.43-0.65,0.99-0.65,1.66c0,0.6,0.2,1.12,0.61,1.59c0.41,0.46,0.97,0.69,1.71,0.69c0.65,0,1.19-0.22,1.62-0.65
			c0.18-0.18,0.32-0.38,0.42-0.6h4.62c0,0.81,0,1.63-0.01,2.45c0,0.16-0.03,0.33-0.08,0.48c-0.85,2.41-1.71,4.82-2.56,7.23
			c-0.07,0.21-0.16,0.28-0.38,0.28c-0.74-0.01-1.49,0-2.23,0.01c-0.24,0-0.34,0.1-0.34,0.32c0.01,0.22,0.11,0.32,0.38,0.32
			c0.71-0.01,1.42-0.02,2.12-0.02c3.21-0.02,6.43-0.03,9.64-0.04c0.3-0.01,0.43-0.11,0.42-0.33c0-0.21-0.12-0.3-0.41-0.3
			c-0.61,0-1.22-0.01-1.83,0.01c-0.17,0-0.26-0.05-0.33-0.22c-1.02-2.41-2.04-4.81-3.06-7.22c-0.03-0.07-0.05-0.16-0.05-0.24
			c0-0.9,0-1.81,0.01-2.72h7.2v22.41l1.86,0V34.27H15.69z M14.23,35.86c-0.2,0.22-0.42,0.33-0.69,0.33c-0.28,0-0.51-0.11-0.71-0.33
			c-0.19-0.22-0.29-0.49-0.29-0.81c0-0.29,0.1-0.54,0.3-0.75c0.2-0.21,0.43-0.32,0.7-0.32c0.26,0,0.49,0.11,0.69,0.33
			c0.2,0.22,0.29,0.48,0.29,0.78C14.52,35.39,14.43,35.65,14.23,35.86z M23.53,46.52h-4.87c0.73-2.05,1.46-4.11,2.18-6.17
			c0.02,0,0.04,0,0.06-0.01C21.77,42.39,22.64,44.44,23.53,46.52z"/>
		<path class="st4" d="M35.99,15.14c-0.43-0.44-0.96-0.65-1.6-0.65c-0.68,0-1.24,0.21-1.68,0.64c-0.44,0.43-0.66,0.99-0.66,1.66
			c0,0.6,0.21,1.12,0.61,1.59c0.21,0.24,0.46,0.41,0.75,0.52v39.65l1.86-0.01V18.9c0.26-0.11,0.5-0.27,0.71-0.49
			c0.44-0.44,0.65-0.98,0.65-1.65C36.64,16.12,36.43,15.58,35.99,15.14z M35.04,17.55c-0.19,0.22-0.42,0.33-0.68,0.33
			c-0.28,0-0.51-0.11-0.71-0.33c-0.2-0.22-0.29-0.49-0.29-0.81c0-0.29,0.1-0.54,0.29-0.75c0.19-0.21,0.43-0.32,0.71-0.32
			c0.26,0,0.49,0.11,0.68,0.33c0.2,0.22,0.3,0.48,0.3,0.78C35.34,17.08,35.24,17.33,35.04,17.55z"/>
		<path class="st4" d="M41.35,10.82c0-0.65-0.22-1.19-0.65-1.63c-0.44-0.44-0.97-0.66-1.61-0.66c-0.68,0-1.24,0.22-1.68,0.65
			c-0.44,0.43-0.65,0.98-0.65,1.66c0,0.6,0.2,1.13,0.61,1.59c0.22,0.25,0.49,0.43,0.8,0.54h-0.05v45.57l1.86,0.01V12.97h-0.06
			c0.29-0.1,0.55-0.28,0.78-0.5C41.13,12.03,41.35,11.48,41.35,10.82z M39.75,11.6c-0.2,0.22-0.43,0.32-0.69,0.32
			c-0.28,0-0.51-0.11-0.71-0.33c-0.19-0.22-0.29-0.49-0.29-0.8c0-0.29,0.1-0.54,0.29-0.75c0.2-0.21,0.43-0.31,0.71-0.31
			c0.26,0,0.49,0.11,0.69,0.33c0.19,0.22,0.29,0.48,0.29,0.77C40.04,11.13,39.95,11.39,39.75,11.6z"/>
		<path class="st4" d="M45.43,20.49c-0.43-0.44-0.97-0.66-1.61-0.66c-0.68,0-1.24,0.22-1.68,0.65c-0.44,0.43-0.65,0.98-0.65,1.66
			c0,0.6,0.2,1.12,0.61,1.59c0.21,0.24,0.46,0.41,0.75,0.52v34.29h1.86V24.26c0.26-0.11,0.5-0.28,0.72-0.49
			c0.43-0.44,0.65-0.99,0.65-1.65C46.08,21.47,45.86,20.93,45.43,20.49z"/>
	</g>
</g>
</svg>
