<?xml version="1.0" encoding="UTF-8"?>
<svg id="Layer_1" data-name="Layer 1" xmlns="http://www.w3.org/2000/svg" version="1.1" viewBox="0 0 191.78 163.91">
  <defs>
    <style>
      .cls-1 {
        fill: none;
        stroke: #010101;
        stroke-linecap: round;
        stroke-linejoin: round;
        stroke-width: 6px;
      }
    </style>
  </defs>
  <path class="cls-1" d="M96.13,145.51c-17.24,0-34.47,0-51.71,0-1.63,0-3.27.06-4.79-.66-3.1-1.45-4.77-3.9-5.05-7.31-.02-.22,0-.45,0-.68-.04-35.28-.08-70.56-.12-105.84,0-5.6,3.45-9.05,9.05-9.05,20.67,0,41.35,0,62.02,0,3.6,0,6.29,1.62,7.81,4.87,1.45,3.1,1.02,6.11-1.11,8.78-1.75,2.2-4.14,3.1-6.92,3.1-17.33,0-34.65,0-51.98,0q-2.07,0-2.07,2.09c0,28.72,0,57.45,0,86.17,0,2.2-.15,1.86,1.9,1.86,28.82,0,57.63-.02,86.45.02,1.39,0,1.71-.36,1.7-1.72-.07-6.6-.09-13.21,0-19.81.05-3.68,1.83-6.38,5.25-7.85,3.05-1.31,6.64-.52,9.01,1.87,1.64,1.66,2.41,3.7,2.41,6.01.02,9.86.06,19.72-.02,29.58-.04,5.12-3.62,8.5-8.75,8.5-17.69,0-35.37,0-53.06,0v.03Z"/>
  <path class="cls-1" d="M70.43,86.56c0-7.06,0-14.12,0-21.17,0-4.6,3.1-7.36,8.3-7.36,14.02,0,28.04-.01,42.07.03.99,0,1.12-.32,1.12-1.03,0-2.82.05-5.65.07-8.47,0-.86.12-1.69.54-2.47,1.08-2.05,3.33-2.61,5.37-1.28,9.33,6.04,18.65,12.1,27.94,18.18,2.7,1.77,2.66,5.46-.09,7.16-9.51,5.89-19.04,11.74-28.57,17.58-1.89,1.16-3.92.68-5.05-1.11-.53-.83-.69-1.74-.67-2.68.06-2.86.1-5.73.19-8.59.02-.73-.2-.96-1.06-.96-10.22.03-20.45.04-30.67,0-1.21,0-1.14.54-1.14,1.26,0,10.65,0,21.3,0,31.94,0,4.7-3.07,7.43-8.35,7.43-.86,0-1.72.03-2.58-.01-4.38-.2-7.41-3-7.43-6.91-.02-7.18,0-14.36-.01-21.54Z"/>
</svg>