<svg xmlns="http://www.w3.org/2000/svg" xmlns:v="https://vecta.io/nano" xmlns:xlink="http://www.w3.org/1999/xlink" width="844.372" height="935.08"><style>.G{fill:#f3c33e}.H{fill:#875336}</style><g fill="#fff"><ellipse cx="296.506" cy="186.24" rx="12.38" ry="13.02"/><ellipse cx="432.106" cy="186.24" rx="12.38" ry="13.02"/></g><path d="M628.316 211.85l-8.66 100.5c11.55-2.05 33.02-5.11 58.4-5.11 10.79 0 22.28.55 34.01 1.97 37.16 4.49 65.75 14.63 79.65 20.35l8.81-100.23c-10.65-4.64-40.6-16.41-80.22-21.2-40.42-4.88-78.83 1.22-91.99 3.72zm-325.43 409.04c.86 7.41 7.14 12.99 14.6 12.99h80.92c7.24 0 13.34-5.18 14.5-12.32l18.58-113.7a14.71 14.71 0 0 0-3.15-11.7c-2.68-3.27-6.65-5.22-10.87-5.35l-113.19-3.69c-.16-.01-.32-.01-.48-.01-4.11 0-8.02 1.71-10.81 4.75-2.9 3.15-4.28 7.4-3.78 11.65zm-116.76-49.02c7.2 5.6 15.63 7.8 23.71 6.21 8.09-1.6 15.04-6.84 19.57-14.76 4.8-8.39 6.33-18.67 4.3-28.96s-7.35-19.22-14.98-25.15c-5.67-4.41-12.1-6.71-18.53-6.71-1.73 0-3.47.17-5.19.51-8.09 1.6-15.04 6.84-19.57 14.76-4.8 8.39-6.33 18.67-4.3 28.96 2.04 10.28 7.36 19.21 14.99 25.14zm-94.79 143.35c-5.32 3.75-11.52 6.82-18.39 8.89-6.26 1.89-12.52 2.78-18.51 2.78-16.7 0-31.28-6.95-38.01-18.66-3.62 11.75-3.33 27.74-1.79 34.63 1.83 8.17 10.49 39.78 13.77 51.71 5.72.25 17.15.26 34.26-1.98l-12.49-47.39c-.48-1.81.6-3.66 2.41-4.14s3.66.6 4.14 2.41l12.68 48.1c18.48-3.36 33.82-11.48 40.85-15.71l-8.46-29.95zm566.51-393.71v21.89c0 15.86 12.9 28.77 28.77 28.77h41.65c15.86 0 28.77-12.9 28.77-28.77v-11.34c-13.01-3.68-28.82-7.24-46.59-9.38-18.74-2.27-37.04-2.17-52.6-1.17z" class="G"/><path d="M829.776 199.74l-11.4-2.31a1.29 1.29 0 0 0-1.03.23 1.27 1.27 0 0 0-.51.92l-1.98 22.58.08.04-10.68 123.93c.07.04.14.08.22.09l13.13 2.05c.06.01.24.04.43-.11s.21-.33.21-.39l12.55-145.65c.06-.66-.38-1.25-1.02-1.38z" class="H"/><path d="M189.516 665.46h240.03c24.23-50.61 35.95-176.97 37.88-199.45-65.12-24.25-172.44-20.94-173.53-20.91h-.13-.13-1.71c-67.36 0-137.27 19-155.55 24.34l1.44 12.79a40.86 40.86 0 0 1 8.05 24.39c0 10.6-4.04 20.27-10.65 27.57zm97.47-179.12c4.5-4.9 10.91-7.58 17.55-7.36l113.19 3.69c6.56.21 12.72 3.25 16.89 8.32s5.96 11.7 4.9 18.18l-18.58 113.7a22.74 22.74 0 0 1-22.53 19.15h-80.93c-11.59 0-21.34-8.68-22.68-20.19l-13.69-117.39c-.76-6.61 1.38-13.2 5.88-18.1zm-129.2 21.32c7.51-13.11 19.33-21.85 33.28-24.6 13.95-2.76 28.21.83 40.14 10.1 11.5 8.94 19.48 22.17 22.46 37.27s.64 30.37-6.6 43.01c-7.51 13.11-19.33 21.85-33.28 24.6-3.07.61-6.15.91-9.22.91-10.89 0-21.61-3.77-30.92-11.01-11.5-8.94-19.48-22.17-22.46-37.27s-.64-30.37 6.6-43.01zm127.41-459.39l.25.01a840.71 840.71 0 0 1 32.61 2.64l.17-3.24c0-18.8-15.29-34.09-34.09-34.09s-34.09 15.29-34.09 34.09c0 .44.02.87.03 1.3 20.15-1.04 33.74-.74 35.12-.71zm371.61 531.72c4.23-3.7 9.02-6.78 14.22-9.08l-6.88 98.37c-4.82-2.98-9.14-6.69-12.82-10.96-8.45-9.77-13.57-22.49-13.57-36.4 0-16.7 7.38-31.7 19.05-41.93z" class="G"/><path d="M590.796 327.81l13.13 2.05c.06.01.24.04.43-.11s.21-.33.21-.39l12.55-145.65a1.28 1.28 0 0 0-1.02-1.37l-11.4-2.31a1.22 1.22 0 0 0-1.02.23 1.25 1.25 0 0 0-.51.92l-12.83 146.04a.54.54 0 0 0 .46.59z" class="H"/><path d="M66.656 297c25.61 0 46.45-28.5 46.45-63.54s-20.84-63.54-46.45-63.54c-4.55 0-8.94.91-13.1 2.59l-1.06 1.09-1.41.01c-17.97 8.78-30.88 32.29-30.88 59.85 0 35.04 20.84 63.54 46.45 63.54z" class="G"/><path d="M475.046 522.94c-1.93 15.46-4.32 32.55-7.21 49.81 4.34 2.71 9.37 4.19 14.54 4.19 15.17 0 27.51-12.34 27.51-27.51 0-15.16-12.34-27.5-27.51-27.5-2.51-.01-4.96.35-7.33 1.01z" class="H"/><path d="M167.356 230.21c0 44.31-36.05 80.36-80.36 80.36a80.53 80.53 0 0 1-11.55-.84 53.8 53.8 0 0 1-3.6.53v38.89a19.87 19.87 0 0 0 2.3 9.35 19.81 19.81 0 0 0 1.17 1.93l95.9-16.35 299.61 17.32c5.7.33 11.33-1.38 15.69-4.82.16-1.04.27-2.1.27-3.19V144.5l.06-.44c.03-.34.94-11.02-10.82-24.83-18.66-21.92-67-49.67-191.3-57.4-3.58-.08-86.42-1.48-152.36 21.33-54.12 18.73-60.22 55.47-60.66 68.16a80.42 80.42 0 0 1 15.28-1.47c44.32 0 80.37 36.05 80.37 80.36zm272.56 76.03c-.11.8-.81 1.38-1.62 1.33l-149.36-9.52c-.73-.05-1.32-.6-1.42-1.32l-4.83-34.85c-.13-.97.66-1.81 1.63-1.74l158.56 11.75c.88.07 1.52.86 1.41 1.73zm-16.62-147.74c22.77 0 41.23 19.41 41.23 43.35s-18.46 43.35-41.23 43.35-41.23-19.41-41.23-43.35c0-23.95 18.46-43.35 41.23-43.35zm-135.61 0c22.77 0 41.23 19.41 41.23 43.35s-18.46 43.35-41.23 43.35-41.23-19.41-41.23-43.35c.01-23.95 18.46-43.35 41.23-43.35z" class="G"/><path fill="#dbac45" d="M176.006 71.61l-4.78 272.47-95.9 16.35-1.17-1.93a19.84 19.84 0 0 1-2.3-9.35v-38.89l3.59-.52c3.79.54 7.67.83 11.55.83 44.31 0 80.36-36.05 80.36-80.36s-36.05-80.35-80.36-80.35a80.49 80.49 0 0 0-15.28 1.46c.44-12.69 6.54-49.44 60.66-68.16 14.09-4.88 28.94-8.64 43.63-11.55z"/><path d="M735.086 459.07l-.06 2.01-15.75 225.15-.5 7.13-3.69 52.72c-1.08 15.44-14.52 27.14-29.99 26.05-15.44-1.08-27.13-14.53-26.05-29.98l3.51-50.2.54-7.76 15.89-227.03a27.9 27.9 0 0 1 9.59-19.24c5.67-4.92 12.9-7.34 20.39-6.81 14.65 1.02 26.12 13.31 26.12 27.96z" class="G"/><path fill="#fff" d="M735.086 459.07l-.06 2.01-15.75 225.15-.5 7.13-3.69 52.72c-.53 7.66-4.11 14.4-9.47 19.11 2.45-3.82 3.99-8.28 4.33-13.11l3.69-52.72.5-7.13 15.75-225.15c.04-.65.06-1.34.06-2.01 0-14.65-11.47-26.94-26.12-27.96-7.49-.53-14.72 1.89-20.39 6.81-.05.04-.1.08-.14.13a27.67 27.67 0 0 1 5.28-6.13c5.67-4.92 12.9-7.34 20.39-6.81 14.65 1.02 26.12 13.31 26.12 27.96z"/><path d="M266.146 390.93v41.45c8.56-.54 17.19-.84 25.78-.84h1.63c1.28-.04 6.82-.2 15.4-.22v-39.97l-21.19.58-.25-.01z" class="H"/><path d="M314.276 825.28c-69.22 0-131.68 36.61-165.53 96.28h331.06c-33.85-59.67-96.3-96.28-165.53-96.28z" class="G"/><path d="M625.736 607.42c-57.51-4.76-90.26-28.77-105.05-43.21-5.95 15.36-20.87 26.28-38.31 26.28h-.19c10.8 14.33 31.87 36.92 65.19 51.1 37.04 15.76 69.69 15.29 85.42 13.72-5.47-9.91-8.6-21.29-8.6-33.39a69.33 69.33 0 0 1 1.54-14.5z" class="H"/><path d="M709.926 417.57a41.32 41.32 0 0 1 12.1 2.72v-34.56h-28.35v33.91c5.15-1.74 10.65-2.46 16.25-2.07zm12.01-222.89c28.54 3.45 52.02 10.23 67.68 15.79l1.49-28.77c-8.7-4.19-32.79-14.25-67.24-16.43-34.11-2.16-61.11 2.28-71.87 4.47v24.92c18.64-1.99 43.68-3.16 69.94.02zm-629.9-31.06c20.44 12.31 34.64 38.98 34.64 69.84 0 25.19-9.46 47.6-24.04 61.68 29.32-7.06 51.17-33.48 51.17-64.93-.01-35.14-27.28-64-61.77-66.59zm440.95 83.43c0-26.27-13.85-48.42-32.63-54.1v108.22c18.78-5.69 32.63-27.84 32.63-54.12z" class="G"/><g class="H"><circle cx="104.786" cy="506.61" r="27.51"/><path d="M376.766 821.5V679.02h-40.68v133.86a203.71 203.71 0 0 1 40.68 8.62zm-92.21-7.61V679.02h-40.68v145.19a203.44 203.44 0 0 1 40.68-10.32z"/></g><path d="M118.666 674.87c-2.47-.56-5.4.06-7.86.94 1.98 10-1.38 20.47-8.58 29.33l11.03 32.4c1.07-.04 2.48-.15 4.3-.36 4.34-.51 9.97-4.79 12.39-7.18-.31-2.56-1.63-8.69-5.55-22.82-3.59-12.94-5.13-25.68-5.73-32.31z" class="G"/><path d="M54.846 664.01c-19.09 5.75-31.96 21.4-28.12 34.17 3.85 12.77 23.22 18.7 42.31 12.95s31.96-21.4 28.12-34.17c-3.85-12.77-23.23-18.7-42.31-12.95zm11.59-142.72c-13 15.51-36.18 47.26-40.36 80.74-3.59 28.79-.22 49.01 3.01 60.51 6.02-4.96 13.44-8.99 21.85-11.52 6.34-1.91 12.68-2.79 18.74-2.77-1.58-20.47-1.9-67.26 22.67-102.51a41.27 41.27 0 0 1-25.91-24.45z" class="H"/><g fill="#fff"><use xlink:href="#B"/><use x="135.6" xlink:href="#B"/><path d="M475.046 522.94l-.63 4.98 3.02-.19c15.17 0 27.51 12.34 27.51 27.5 0 5.4-1.59 10.44-4.29 14.69 5.65-5.04 9.23-12.35 9.23-20.5 0-15.16-12.34-27.5-27.51-27.5-2.51 0-4.96.36-7.33 1.02zm-197.3-255.24l4.83 34.84c.1.72.69 1.27 1.42 1.32l149.36 9.52c.8.05 1.51-.53 1.62-1.33l.62-4.66-146.66-9.34c-.73-.05-1.32-.6-1.42-1.32l-4.23-30.49-3.91-.29a1.54 1.54 0 0 0-1.63 1.75zm-54.57 303.52c2.39-2.2 4.49-4.85 6.24-7.89 4.8-8.39 6.33-18.67 4.3-28.96s-7.35-19.22-14.98-25.15c-5.67-4.41-12.1-6.71-18.53-6.71-1.73 0-3.47.17-5.19.51-7.35 1.45-13.76 5.92-18.27 12.67 3.82-3.51 8.36-5.88 13.33-6.86a26.7 26.7 0 0 1 5.19-.51c6.43 0 12.85 2.3 18.53 6.71 7.63 5.93 12.95 14.86 14.98 25.15s.51 20.57-4.3 28.96c-.41.71-.85 1.4-1.3 2.08zm85.79-139.89v-39.97l-21.19.58-.25-.01-21.38-.99v6.04l16.44.76.25.01 21.19-.58v34.18l4.94-.02zm-206.34-136.19l.5-.13 1.46-1.88-1.96 2.01zm305.34 332.23c-.23 1.39-.65 2.71-1.22 3.93 3.2-2.2 5.49-5.64 6.16-9.74l18.58-113.7a14.71 14.71 0 0 0-3.15-11.7c-2.68-3.27-6.65-5.22-10.87-5.35l-113.19-3.69c-.16-.01-.32-.01-.48-.01-4.11 0-8.02 1.71-10.81 4.75-1.01 1.1-1.83 2.34-2.46 3.67 2.43-1.68 5.33-2.6 8.33-2.6.16 0 .32 0 .48.01l113.19 3.69c4.23.14 8.19 2.09 10.87 5.35a14.72 14.72 0 0 1 3.15 11.7zm314.05-207.08v-34.56h-28.35v5.81h23.41v27.2c1.69.43 3.34.93 4.94 1.55zm-437.46 393.6V679.02h-40.68v5.81h35.74v129.85l4.94-.79zm434.37-642.82c34.44 2.18 58.54 12.24 67.24 16.43l-1.11 21.39 4.56 1.57 1.49-28.77c-8.7-4.19-32.79-14.25-67.24-16.43-34.11-2.16-61.11 2.28-71.87 4.47v4.87c12.88-2.28 37.2-5.41 66.93-3.53zm-107.77 17.08a1.28 1.28 0 0 1 1.02 1.37l-12.04 139.75 3.79.59c.06.01.24.04.43-.11s.21-.33.21-.39l12.55-145.65a1.28 1.28 0 0 0-1.02-1.37l-11.4-2.31a1.22 1.22 0 0 0-1.02.23 1.25 1.25 0 0 0-.51.92l-.46 5.26zM376.766 821.5V679.02h-40.68v5.81h35.74v135.15l4.94 1.52zm151.28-568.64c0 14.88-4.44 28.44-11.71 38.43 10.14-10.16 16.65-26.23 16.65-44.25 0-26.27-13.85-48.42-32.63-54.1v7.74c16.22 7.79 27.69 28.28 27.69 52.18zM66.436 521.29l-4.86 6c4.48 11.5 13.99 20.5 25.83 24.27-22.54 32.34-24.13 74.38-23.02 96.91 1.78-.15 3.55-.22 5.29-.22-1.58-20.47-1.9-67.26 22.67-102.51a41.27 41.27 0 0 1-25.91-24.45zm247.84 303.99c-58.33 0-111.85 26-147.5 69.87 35.56-40.34 86.86-64.06 142.56-64.06 66.95 0 127.55 34.24 162.09 90.47h8.38c-33.85-59.67-96.3-96.28-165.53-96.28zm-195.61-150.41c-2.47-.56-5.4.06-7.86.94.31 1.55.47 3.11.53 4.68.82-.02 1.63.02 2.39.2.61 6.62 2.14 19.37 5.74 32.31 3.24 11.67 4.7 17.88 5.29 21.13 2.14-1.39 4.04-2.97 5.2-4.12-.31-2.56-1.63-8.69-5.55-22.82-3.6-12.95-5.14-25.69-5.74-32.32zm507.07-67.45c-57.51-4.76-90.26-28.77-105.05-43.21-.97 2.5-2.19 4.86-3.61 7.09 15.37 14.53 47.87 37.3 103.72 41.93-1 4.68-1.54 9.53-1.54 14.51 0 10.02 2.17 19.52 6.01 28.13 2.81-.14 5.34-.33 7.53-.55-5.47-9.91-8.6-21.29-8.6-33.39 0-4.98.54-9.83 1.54-14.51zm204.04-407.68l-11.4-2.31a1.29 1.29 0 0 0-1.03.23 1.27 1.27 0 0 0-.51.92l-.46 5.26 8.46 1.72a1.28 1.28 0 0 1 1.02 1.37l-12.04 139.75 3.79.59c.06.01.24.04.43-.11s.21-.33.21-.39l12.55-145.65c.06-.66-.38-1.25-1.02-1.38zm-109.47 8.4c-40.42-4.89-78.83 1.21-91.99 3.71l-.43 5c16.1-2.76 50.97-7.31 87.48-2.9 39.62 4.79 69.57 16.55 80.22 21.2l-8.15 92.71 4.28 1.71 8.81-100.23c-10.65-4.65-40.6-16.41-80.22-21.2zm-62.46 113.37v5.54c14.43-.72 30.86-.59 47.65 1.44 17.77 2.15 33.58 5.7 46.59 9.38v11.34c0 5.71-1.69 11.02-4.57 15.5 5.82-5.27 9.51-12.86 9.51-21.31v-11.34c-13.01-3.68-28.82-7.24-46.59-9.38-18.73-2.27-37.03-2.17-52.59-1.17zM91.336 715.22c-5.32 3.75-11.52 6.82-18.39 8.89-6.26 1.89-12.52 2.78-18.51 2.78-16.7 0-31.28-6.95-38.01-18.66-.95 3.1-1.63 6.49-2.09 9.93 7.52 9.2 20.53 14.54 35.16 14.54 5.99 0 12.25-.89 18.51-2.78 6.87-2.07 13.07-5.14 18.39-8.89l10.45 30.71 7.72 27.33a128.45 128.45 0 0 0 5.68-3.2l-8.46-29.95zm5.82-38.26c-3.85-12.77-23.22-18.7-42.31-12.95-10.82 3.26-19.64 9.7-24.55 16.99 5.01-4.8 11.79-8.82 19.61-11.18 19.09-5.75 38.46.18 42.31 12.95 1.67 5.53.19 11.6-3.57 17.18 7.22-6.92 10.78-15.45 8.51-22.99zm-49.51 69.92c-1.81.48-2.89 2.33-2.41 4.14l11.16 42.32 6.27-.75-11.84-44.9c-.83-.77-2.01-1.12-3.18-.81zm84.64-240.27c0-15.17-12.34-27.51-27.51-27.51-9.76 0-18.33 5.13-23.22 12.82 4.87-4.34 11.26-7.01 18.28-7.01 15.17 0 27.51 12.34 27.51 27.51 0 5.4-1.59 10.43-4.29 14.69 5.65-5.04 9.23-12.35 9.23-20.5zm21.51-276.4c0-35.14-27.27-64-61.76-66.59 4.16 2.51 8.06 5.62 11.64 9.23 26.25 9 45.18 33.9 45.18 63.17 0 15.1-5.05 29.04-13.54 40.24 11.44-11.99 18.48-28.21 18.48-46.05zm313.62 235.8c-65.12-24.25-172.44-20.94-173.53-20.91h-.13-.13-1.71c-67.36 0-137.27 19-155.55 24.34l.48 4.27c24.13-6.73 88.2-22.79 150.13-22.79h1.71.13.13c1.09-.04 108.41-3.35 173.53 20.91-1.85 21.67-12.81 139.8-35.29 193.64h2.35c24.24-50.62 35.96-176.98 37.88-199.46zM46.146 179.42l1.41-.01 1.06-1.09c4.16-1.68 8.55-2.59 13.1-2.59 25.61 0 46.45 28.5 46.45 63.54 0 17.66-5.3 33.65-13.82 45.17 11.38-11.59 18.76-30.13 18.76-50.98 0-35.04-20.84-63.54-46.45-63.54-4.55 0-8.94.91-13.1 2.59l-1.06 1.09-1.41.01c-6.47 3.16-12.27 8.23-17.06 14.7 3.66-3.73 7.74-6.75 12.12-8.89zm81.29-90.45c65.94-22.81 148.77-21.4 152.36-21.33 124.31 7.73 172.65 35.48 191.3 57.4 11.76 13.81 10.85 24.49 10.82 24.83l-.06.44v208.88c0 .06-.01.12-.01.18 1.66-.75 3.24-1.67 4.68-2.8.16-1.04.27-2.1.27-3.19V144.5l.06-.44c.03-.34.94-11.02-10.82-24.83-18.66-21.92-67-49.67-191.3-57.4-3.58-.08-86.42-1.48-152.36 21.33-23.76 8.22-38.26 19.92-47.1 31.52 9.02-9.61 22.37-18.87 42.16-25.71zm151.75-69.56c17.77 0 32.4 13.67 33.95 31.05l4.91.47c.1-1.08.17-2.16.17-3.24 0-18.8-15.29-34.09-34.09-34.09-11.78 0-22.18 6-28.3 15.11 6.1-5.76 14.32-9.3 23.36-9.3z"/></g><circle cx="383.546" cy="598.94" r="4.02" fill="#1a1a1a"/><path d="M749.236 621.93c0 14.49-5.55 27.7-14.66 37.62v.01c-4.13 4.51-7.65 20.06-22.71 4.73l7.41-82.16c7.65-9.55 17.28-4.69 20.75.36 6.16 8.95 9.21 27.75 9.21 39.44z" class="G"/><g fill="#24242b"><path d="M104.786 547.64c-22.65 0-41.07-18.42-41.07-41.07s18.42-41.07 41.07-41.07 41.07 18.42 41.07 41.07c-.01 22.65-18.43 41.07-41.07 41.07zm0-68.57c-15.17 0-27.51 12.34-27.51 27.51s12.34 27.51 27.51 27.51 27.51-12.34 27.51-27.51-12.35-27.51-27.51-27.51zm377.59 111.39c-9.6 0-18.94-3.38-26.29-9.52l8.7-10.41c4.91 4.11 11.16 6.37 17.59 6.37 15.17 0 27.51-12.34 27.51-27.51 0-15.16-12.34-27.5-27.51-27.5-3.79 0-7.44.75-10.87 2.23l-5.39-12.44c5.13-2.22 10.6-3.35 16.26-3.35 22.65 0 41.07 18.42 41.07 41.06s-18.42 41.07-41.07 41.07zm-277.81 8.44c-10.89 0-21.61-3.77-30.92-11.01-11.5-8.94-19.48-22.17-22.46-37.27-2.98-15.09-.64-30.37 6.6-43.01 7.51-13.11 19.33-21.85 33.28-24.6 13.95-2.76 28.21.83 40.14 10.1 11.5 8.94 19.48 22.17 22.46 37.27h0c2.98 15.1.64 30.37-6.6 43.01-7.51 13.11-19.33 21.85-33.28 24.6-3.07.62-6.15.91-9.22.91zm-4.37-96.43c-1.73 0-3.47.17-5.19.51-8.09 1.6-15.04 6.84-19.57 14.76-4.8 8.39-6.33 18.67-4.3 28.96s7.35 19.22 14.99 25.15c7.2 5.6 15.63 7.8 23.71 6.21 8.09-1.6 15.04-6.84 19.57-14.76 4.8-8.39 6.33-18.67 4.3-28.96h0c-2.03-10.29-7.35-19.22-14.98-25.15-5.67-4.42-12.1-6.72-18.53-6.72z"/><path d="M431.226 678.98h-243.52c-4.41 0-8.34-2.63-10.03-6.7l-56.75-137.17 12.53-5.18 56.06 135.5h240.03c24.23-50.61 35.95-176.97 37.88-199.45-65.12-24.25-172.44-20.94-173.53-20.91h-.13-.13-1.71c-67.36 0-137.27 19-155.55 24.34l1.65 14.65-13.48 1.51-1.9-16.9a10.83 10.83 0 0 1 7.68-11.61c14.38-4.29 89.29-25.54 161.62-25.54h1.63c6.23-.2 113.71-3.3 180.67 22.54a10.91 10.91 0 0 1 6.88 11.01c-2.11 25.5-13.96 155.36-40.14 207.88-1.88 3.72-5.61 6.03-9.76 6.03zm-32.83-37h-80.92c-11.59 0-21.34-8.68-22.68-20.19l-13.69-117.39a22.81 22.81 0 0 1 5.87-18.1c4.5-4.9 10.91-7.58 17.55-7.36l113.19 3.69c6.56.21 12.72 3.25 16.89 8.32s5.96 11.7 4.9 18.18l-18.58 113.7a22.73 22.73 0 0 1-22.53 19.15zm-94.61-154.91c-4.11 0-8.02 1.71-10.81 4.75-2.9 3.15-4.28 7.4-3.78 11.65l13.69 117.39c.86 7.41 7.14 12.99 14.6 12.99h80.92c7.24 0 13.34-5.18 14.5-12.32l18.58-113.7a14.71 14.71 0 0 0-3.15-11.7c-2.68-3.27-6.65-5.22-10.87-5.35l-113.19-3.69c-.17-.02-.33-.02-.49-.02z"/><path d="M252.586 383.79h13.56v55.67h-13.56zm56.38.56h13.56v53.78h-13.56z"/><path d="M287.776 391.9l-.25-.01-197.13-9.14c-11.88-.56-22.71-7.44-28.25-17.97-2.53-4.81-3.86-10.22-3.86-15.66v-45.4h13.56v45.4a19.87 19.87 0 0 0 2.3 9.35 20.22 20.22 0 0 0 16.88 10.74l196.87 9.13 179.33-4.89c10.97-.31 19.56-9.13 19.56-20.1V144.46l.06-.44c.03-.34.94-11.02-10.82-24.83-18.66-21.92-67-49.67-191.3-57.4-3.58-.08-86.42-1.48-152.36 21.33-65.75 22.75-60.63 72.11-60.57 72.6l.05.81v6.62h-13.56v-6.29c-.25-2.78-1.05-16.88 6.22-33.64 7.21-16.62 24.07-39.3 63.43-52.92 69.44-24.02 153.7-22.16 157.25-22.07l.25.01c130.44 8.09 181.7 38.79 201.73 63.11 13.76 16.71 13.47 30.68 13.19 33.89v208.1c0 18.36-14.39 33.14-32.75 33.65z"/><path d="M66.656 310.53c-33.09 0-60.01-34.59-60.01-77.1s26.92-77.1 60.01-77.1 60.01 34.59 60.01 77.1-26.92 77.1-60.01 77.1zm0-140.64c-25.61 0-46.45 28.5-46.45 63.54s20.84 63.54 46.45 63.54 46.45-28.5 46.45-63.54c.01-35.04-20.83-63.54-46.45-63.54zm427.39 146.12l-.93-13.53c22.36-1.54 39.87-25.91 39.87-55.46s-17.51-53.91-39.87-55.45l.93-13.53c29.44 2.03 52.5 32.33 52.5 68.98s-23.06 66.96-52.5 68.99z"/><path d="M86.996 310.53a80.78 80.78 0 0 1-12.77-1.01l1.07-6.65-.01-6.82h.55l.53.09c3.47.56 7.04.84 10.63.84 36.83 0 66.8-29.97 66.8-66.8s-29.97-66.8-66.8-66.8c-11.65 0-23.09 3.04-33.15 8.81l-1.35 1.38-2.91.02-.05-6.88-4.75-4.65 2-2.04h1.05a80.3 80.3 0 0 1 39.16-10.19c44.31 0 80.36 36.05 80.36 80.36 0 44.29-36.05 80.34-80.36 80.34zm406.58 34.87v7.95c0 14.56-11.59 26.47-26.16 26.88l-179.58 4.9-197.13-9.14c-9.84-.46-18.25-6.17-22.56-14.36l103.07-17.57 299.61 17.32c7.82.45 15.54-2.93 19.99-9.38 1.38-2.01 2.42-4.23 2.76-6.6zm-205.89-186.94c-22.77 0-41.23 19.41-41.23 43.35s18.46 43.35 41.23 43.35 41.23-19.41 41.23-43.35-18.46-43.35-41.23-43.35zm8.82 40.77c-6.84 0-12.38-5.83-12.38-13.02s5.54-13.02 12.38-13.02 12.38 5.83 12.38 13.02-5.54 13.02-12.38 13.02zm126.79-40.77c-22.77 0-41.23 19.41-41.23 43.35s18.46 43.35 41.23 43.35 41.23-19.41 41.23-43.35-18.47-43.35-41.23-43.35zm8.81 40.77c-6.84 0-12.38-5.83-12.38-13.02s5.54-13.02 12.38-13.02 12.38 5.83 12.38 13.02-5.54 13.02-12.38 13.02zm-147.79 60.88l158.56 11.75c.88.07 1.52.86 1.41 1.73l-4.37 32.61c-.11.8-.81 1.38-1.62 1.33l-149.36-9.52c-.73-.05-1.32-.6-1.42-1.32l-4.83-34.85c-.14-.96.65-1.8 1.63-1.73zm45.83-200.07l-13.1-3.51a34.47 34.47 0 0 0 1.17-8.88c0-18.8-15.29-34.09-34.09-34.09s-34.09 15.29-34.09 34.09c0 2.41.25 4.79.73 7.08l-13.26 2.82a47.86 47.86 0 0 1-1.03-9.9c0-26.27 21.38-47.65 47.65-47.65s47.65 21.38 47.65 47.65a47.89 47.89 0 0 1-1.63 12.39zm287.2 609.63c-18.94 0-45.68-3.04-75.28-15.64-56.24-23.93-79.8-68.84-80.77-70.74l12.06-6.2c.22.42 22.48 42.53 74.02 64.47 51.73 22.01 94.94 12.37 95.37 12.27l3.1 13.2c-.91.21-11.59 2.64-28.5 2.64zm16.82-61.74c-87.8-4.18-121.71-52.68-123.11-54.74l11.22-7.62-5.61 3.81 5.6-3.83c.31.45 31.92 44.99 112.55 48.83z"/><path d="M624.196 621.89c0 21.79 10.11 41.27 25.89 53.98a69.17 69.17 0 0 0 13.01 8.29l.77-10.95.28-3.96c-4.82-2.98-9.14-6.69-12.82-10.96-8.45-9.77-13.57-22.49-13.57-36.4 0-16.7 7.38-31.71 19.05-41.93 4.23-3.7 9.02-6.78 14.22-9.08l1.04-14.9a68.49 68.49 0 0 0-14.03 6.39c-20.26 12.11-33.84 34.26-33.84 59.52zm116.62-50.58l-.87-.79c-.55-.5-1.1-.99-1.66-1.45a68.44 68.44 0 0 0-10.38-7.33l-.47 6.67-.5 7.03-.13 1.79c4.61 3.44 8.66 7.58 12 12.25a19.36 19.36 0 0 1 .66.92c6.16 8.96 9.77 19.81 9.77 31.49 0 14.48-5.55 27.67-14.63 37.59 0 .01-.01.02-.03.03v.01c-4.13 4.51-8.99 8.33-14.39 11.29l-.61 8.68-.3 4.19.17.01-.17 2.53a69.64 69.64 0 0 0 4.9-2.2 67.04 67.04 0 0 0 7.49-4.32 53.06 53.06 0 0 0 1.55-1.06c.06-.04.13-.08.19-.13.02-.02.05-.03.07-.05 17.73-12.56 29.32-33.24 29.32-56.57 0-19.93-8.46-37.93-21.98-50.58zm-60.71-192.4h13.56v51.69h-13.56zm41.91 1.55h13.56v51.4h-13.56z"/><path d="M728.266 385.69h-41.65c-23.34 0-42.33-18.99-42.33-42.33v-28.21h13.56v28.21c0 15.86 12.9 28.77 28.77 28.77h41.65c15.86 0 28.77-12.9 28.77-28.77v-16.45h13.56v16.45c0 23.34-18.99 42.33-42.33 42.33z"/><path d="M803.816 350.23l-8.93-4.47c-.34-.17-34.8-17.12-84.45-23.12-49.68-6.01-96.32 4.58-96.78 4.69l-9.08 2.1 11.09-128.73 4.8-1.11c1.99-.46 49.34-11.24 101.47-4.94 52.11 6.3 87.41 23.72 88.88 24.46l4.12 2.06zm-125.76-43.02c10.79 0 22.28.55 34.01 1.97 37.39 4.52 66.11 14.76 79.91 20.46l8.64-100.3c-10.58-4.62-40.58-16.43-80.31-21.24-40.42-4.89-78.83 1.21-91.99 3.71l-8.66 100.5c11.55-2.04 33.03-5.1 58.4-5.1z"/><path d="M802.676 220.39l-13.54-.7 1.97-38.03c-8.7-4.19-32.79-14.25-67.24-16.43-34.11-2.16-61.11 2.28-71.87 4.47v32.58h-13.56v-43.24l5.06-1.33c1.4-.37 34.77-8.96 81.23-6.02 46.97 2.97 75.6 19.39 76.8 20.09l3.57 2.08z"/><path d="M817.676 360.8c-.72 0-1.44-.05-2.16-.17l-13.13-2.05c-7.31-1.14-12.54-7.81-11.89-15.19l12.83-146.02a14.83 14.83 0 0 1 5.9-10.6 14.87 14.87 0 0 1 11.85-2.66l11.4 2.31c7.4 1.5 12.49 8.3 11.84 15.82l-12.55 145.65c-.33 3.88-2.29 7.49-5.35 9.9a14.18 14.18 0 0 1-8.74 3.01zm-13.2-15.62l13.13 2.05c.06.01.24.04.43-.11s.21-.33.21-.39l12.55-145.65a1.28 1.28 0 0 0-1.02-1.37l-11.4-2.31a1.29 1.29 0 0 0-1.03.23 1.25 1.25 0 0 0-.51.92l-12.83 146.04c-.02.28.18.55.47.59zm-200.48-1.79c-.72 0-1.44-.05-2.16-.17l-13.13-2.05c-7.31-1.14-12.54-7.81-11.89-15.19l12.83-146.02a14.83 14.83 0 0 1 5.9-10.6c3.39-2.53 7.7-3.5 11.84-2.66l11.4 2.31c7.4 1.5 12.49 8.3 11.84 15.82l-12.55 145.65c-.33 3.88-2.29 7.49-5.35 9.9-2.49 1.96-5.58 3.01-8.73 3.01zm-13.2-15.61l13.13 2.05c.06.01.24.04.43-.11s.21-.33.21-.39l12.55-145.65a1.28 1.28 0 0 0-1.02-1.37l-11.4-2.31a1.22 1.22 0 0 0-1.02.23 1.25 1.25 0 0 0-.51.92l-12.83 146.04c-.03.28.17.54.46.59zM230.316 672.2h13.56v161.94h-13.56zm54.24 0h13.56v147.58h-13.56zm37.97 0h13.56v146.82h-13.56zm54.24 0h13.56v158.77h-13.56z"/><path d="M501.996 935.08h-375.44l4.84-9.79c16.62-33.58 42.15-61.95 73.85-82.04 32.58-20.65 70.28-31.57 109.03-31.57s76.45 10.92 109.03 31.57c31.7 20.09 57.23 48.46 73.85 82.04zm-353.25-13.56h331.06c-33.86-59.67-96.31-96.28-165.53-96.28s-131.67 36.61-165.53 96.28z"/><path d="M570.966 921.52H99.936a6.79 6.79 0 0 0-6.78 6.78h0a6.79 6.79 0 0 0 6.78 6.78h471.03a6.79 6.79 0 0 0 6.78-6.78h0c0-3.75-3.03-6.78-6.78-6.78zM70.496 656.37c-1.64-12.74-7.92-78.43 29.22-120.02l10.11 9.03c-33.22 37.19-27.39 97.54-25.89 109.26zm-50.43 21.27c-3.13-7.06-12.91-33.49-7.45-77.33 6.43-51.45 51.19-96.65 53.09-98.54l9.58 9.6c-.43.43-43.37 43.86-49.21 90.62-5.03 40.37 3.62 63.9 6.39 70.15z"/><path d="M54.436 726.85c-19.44 0-36.05-9.4-40.69-24.81h0c-6.07-20.15 10.62-43.06 37.19-51.06 26.57-8.01 53.13 1.88 59.2 22.03s-10.62 43.06-37.19 51.06c-6.26 1.89-12.52 2.78-18.51 2.78zm-27.71-28.71c3.85 12.77 23.22 18.7 42.31 12.95s31.96-21.4 28.12-34.17c-3.85-12.77-23.22-18.7-42.31-12.95s-31.97 21.4-28.12 34.17z"/><path d="M112.056 751.09c-4.15 0-6-.68-7.08-1.28l-2.28-1.27-14.54-42.7 12.84-4.37 12.27 36.04 4.3-.36c4.34-.51 9.97-4.79 12.39-7.18-.31-2.56-1.63-8.69-5.55-22.82-3.59-12.94-5.13-25.68-5.74-32.31-4.48-1.01-10.44 1.84-12.41 3.08l-7.32-11.41c1.57-1.01 15.65-9.66 27.99-2.92 2.92 1.6 4.82 4.54 5.07 7.89.31 4 1.61 18.13 5.48 32.04 7.05 25.37 6.98 28.87 5.01 32.42-2.06 3.71-12.8 13.45-23.35 14.68-2.91.33-5.22.47-7.08.47zm-1.76-13.66zm19.73-6.28z"/><path d="M33.886 808.22c-7.52 0-11.4-.53-11.71-.58l-4.39-.63-1.18-4.28-15.19-56.94c-2.44-10.9-3.77-46.86 13.9-60.16l8.16 10.83c-10.68 8.05-11.03 36.5-8.82 46.37 1.83 8.17 10.49 39.78 13.77 51.71 6.03.27 18.39.26 37.08-2.36 20.22-2.83 37.24-11.82 44.77-16.34l-8.51-30.12 13.05-3.69 8.93 31.61c1.39 4.91-.67 10.22-5 12.91-7.43 4.61-27.29 15.69-51.36 19.05-14.85 2.09-25.99 2.61-33.5 2.62z"/><path d="M67.776 802.08a3.41 3.41 0 0 1-3.28-2.53l-14.33-54.38c-.48-1.81.6-3.66 2.41-4.14s3.66.6 4.14 2.41l14.33 54.38c.48 1.81-.6 3.66-2.41 4.14-.28.09-.57.12-.86.12zm666.8-142.56l-1.11 15.7-.25 3.42-.07 1.09-.35 4.89-8.62-.6-4.73-.33-.17-.01.3-4.19.61-8.68c5.4-2.96 10.26-6.78 14.39-11.29zm14.07-200.49l-.09 2.91-7.74 109.37-1.35 19.09-.66-.92c-3.34-4.67-7.39-8.81-12-12.25l.13-1.79.49-7.03.48-6.67 7.12-100.7c.04-.65.06-1.34.06-2.01 0-14.65-11.47-26.94-26.12-27.96-7.49-.53-14.72 1.89-20.39 6.81a27.9 27.9 0 0 0-9.59 19.24l-6.92 98.86-1.04 14.9-6.88 98.37-.28 3.96-.77 10.95-.22 3.18-6.67-.46h-6.88l1.02-14.61.98-13.98 5.48-78.33.98-13.98.25-3.61 7.42-106.2c.78-11.09 5.83-21.22 14.23-28.52s19.14-10.89 30.24-10.11c21.71 1.52 38.72 19.75 38.72 41.49z"/><path d="M687.086 785.72c-.97 0-1.95-.03-2.93-.1-22.9-1.6-40.23-21.54-38.63-44.45l4.81-68.9 13.53.95-4.81 68.9c-1.08 15.45 10.61 28.89 26.05 29.97 15.46 1.09 28.91-10.61 29.99-26.05l5.02-71.75 13.53.95-5.02 71.75c-1.54 21.91-19.88 38.72-41.54 38.73zm-204.71-195.26h-.19l3.85 4.88c10.29-2.2 19.15-8.26 25-16.6-7.4 7.24-17.51 11.72-28.66 11.72zM75.446 309.7l-3.6.53v5.45c3.36.43 6.78.67 10.21.67 25.87 0 48.91-12.3 63.62-31.35-14.68 15.7-35.54 25.54-58.68 25.54-3.88-.01-7.76-.3-11.55-.84z"/><use xlink:href="#C"/><use x="-22.37" y="292.88" xlink:href="#C"/><use x="69.84" y="291.14" xlink:href="#C"/><path d="M733.146 185.17c-.19.01-.38-.01-.57-.06-13.55-3.31-24.97-1.35-25.08-1.32a2.04 2.04 0 0 1-2.36-1.64 2.04 2.04 0 0 1 1.64-2.36c.5-.09 12.34-2.15 26.77 1.38 1.09.27 1.76 1.37 1.49 2.46-.22.89-1.01 1.5-1.89 1.54zm-23.22 232.37c-11.1-.78-21.84 2.81-30.24 10.11s-13.45 17.43-14.23 28.52l-7.42 106.2-.25 3.61-.98 13.98-5.48 78.33-.98 13.98h-.01l-.25 3.6-4.56 65.3c-1.6 22.9 15.73 42.84 38.63 44.44a41.2 41.2 0 0 0 2.93.11c21.66-.01 40-16.82 41.53-38.74l4.7-67.25.09-1.22.23-3.28-.17-.01 1.11-15.7c-4.13 4.51-8.99 8.33-14.39 11.29l-.61 8.68-.3 4.19.17.01-.17 2.53-4.19 59.82c-1.08 15.44-14.52 27.14-29.99 26.05-15.44-1.08-27.13-14.53-26.05-29.98l3.83-54.77.22-3.18.77-10.95.28-3.96 6.88-98.37 1.04-14.9 6.92-98.86a27.9 27.9 0 0 1 9.59-19.24c5.67-4.92 12.9-7.34 20.39-6.81 14.65 1.02 26.12 13.31 26.12 27.96 0 .67-.02 1.36-.06 2.01l-7.12 100.7-.47 6.67-.5 7.03-.13 1.79c4.61 3.44 8.66 7.58 12 12.25l2.01-18.17 7.74-109.37a47.86 47.86 0 0 0 .09-2.91c0-21.74-17.01-39.97-38.72-41.49z"/><path d="M738.286 569.07l-10.85-.66h-.01s-36.54-1.3-40 23.13l-3.7 61.62c-.81 13.58 15.88 25.39 29.45 26.21l6.4.12 12.09.21 1.48.03h.25l.08-1.27 1.13-18.98-.03.04v-.01.01c-4.13 4.51-8.99 8.33-14.39 11.29l11.56-5.34s-33.71 4.2-33.73-16.64l3.38-56.44c5.49-15.29 36.35-9.41 36.35-9.41l-10.94-5.74c4.61 3.44 8.66 7.58 12 12.25l1.14-18.96.08-1.35z"/></g><circle cx="561.476" cy="621.32" r="4.02" fill="#512b18"/><circle cx="388.146" cy="526.51" r="4.02" fill="#1a1a1a"/><defs><path id="B" d="M241.526 207.66c0 23.94 18.46 43.35 41.23 43.35 13.57 0 25.6-6.89 33.12-17.53-7.37 7.26-17.28 11.72-28.18 11.72-22.77 0-41.23-19.41-41.23-43.35 0-9.67 3.02-18.61 8.11-25.82-8.03 7.91-13.05 19.15-13.05 31.63z"/><path id="C" d="M264.716 382.96c-.48 13.16-1.33 43.71 1.43 32.54 3.49-14.09 42.81-24.19 42.81-24.19l-1.26-8.36h-42.98z"/></defs></svg>