<svg xmlns="http://www.w3.org/2000/svg" xmlns:xlink="http://www.w3.org/1999/xlink" x="0" y="0" version="1.1" viewBox="0 0 108 108" style="enable-background:new 0 0 108 108" xml:space="preserve"><style type="text/css">.st0{display:none}.st1{display:inline}.st2{fill:#e0e1e2}.st3{fill:#5065ae}.st4{fill:#fff}</style><g id="Layer_2" class="st0"><g class="st1"><rect width="144" height="144" x="-18" y="-18" class="st2"/></g></g><g id="Layer_1"><g><circle cx="54" cy="54" r="54" class="st3"/></g></g><g id="Layer_3"><g><g><path d="M33.63,90.68c0,0.17-0.03,0.33-0.1,0.48c-0.07,0.14-0.16,0.27-0.28,0.38c-0.12,0.11-0.25,0.19-0.41,0.25 s-0.32,0.09-0.5,0.09h-2.17v-4.59h2.21c0.16,0,0.3,0.03,0.43,0.1c0.13,0.07,0.24,0.16,0.33,0.27c0.09,0.11,0.16,0.24,0.21,0.38 c0.05,0.14,0.07,0.28,0.07,0.42c0,0.23-0.06,0.45-0.17,0.64c-0.12,0.19-0.28,0.34-0.49,0.43c0.26,0.08,0.47,0.22,0.62,0.43 C33.55,90.16,33.63,90.4,33.63,90.68z M30.62,87.67v1.69h1.58c0.11,0,0.22-0.02,0.31-0.07c0.1-0.05,0.18-0.11,0.25-0.19 c0.07-0.08,0.12-0.17,0.16-0.27c0.04-0.1,0.06-0.21,0.06-0.32c0-0.12-0.02-0.23-0.05-0.33c-0.04-0.1-0.09-0.19-0.16-0.27 c-0.07-0.08-0.15-0.14-0.24-0.18c-0.09-0.05-0.19-0.07-0.3-0.07H30.62z M33.17,90.61c0-0.11-0.02-0.22-0.06-0.33 c-0.04-0.11-0.09-0.2-0.16-0.28c-0.07-0.08-0.16-0.14-0.25-0.19c-0.1-0.05-0.2-0.07-0.31-0.07h-1.76v1.74h1.71 c0.12,0,0.23-0.02,0.33-0.07c0.1-0.05,0.19-0.11,0.27-0.19c0.08-0.08,0.13-0.17,0.18-0.28C33.15,90.83,33.17,90.72,33.17,90.61z" class="st4"/><path d="M34.77,87.28l1.5,2.47l1.51-2.47h0.49l-1.78,2.88v1.71h-0.45v-1.72l-1.77-2.87H34.77z" class="st4"/></g><g><path d="M41.29,91.87v-4.59h3.01v0.4h-2.56v1.69h2.16v0.38h-2.16v2.13H41.29z" class="st4"/><path d="M45.55,91.87v-4.59h1.94c0.2,0,0.38,0.04,0.55,0.13c0.17,0.08,0.31,0.19,0.43,0.33 c0.12,0.14,0.21,0.29,0.28,0.46c0.07,0.17,0.1,0.35,0.1,0.52c0,0.17-0.02,0.33-0.07,0.48c-0.05,0.15-0.12,0.29-0.21,0.41 c-0.09,0.12-0.2,0.23-0.32,0.31c-0.13,0.08-0.27,0.14-0.42,0.17l1.13,1.77h-0.51l-1.08-1.69H46v1.69H45.55z M46,89.77h1.5 c0.13,0,0.26-0.03,0.37-0.09c0.11-0.06,0.2-0.14,0.28-0.24c0.08-0.1,0.14-0.21,0.18-0.34c0.04-0.13,0.06-0.26,0.06-0.39 c0-0.14-0.02-0.27-0.07-0.4c-0.05-0.13-0.12-0.24-0.2-0.33c-0.08-0.09-0.18-0.17-0.3-0.23c-0.11-0.06-0.23-0.08-0.36-0.08H46 V89.77z" class="st4"/><path d="M53.31,91.47v0.4h-3.08v-4.59h3.03v0.4h-2.57v1.66h2.24v0.38h-2.24v1.75H53.31z" class="st4"/><path d="M57.7,91.47v0.4h-3.08v-4.59h3.03v0.4h-2.57v1.66h2.24v0.38h-2.24v1.75H57.7z" class="st4"/></g><g><path d="M59.33,91.94c-0.12,0-0.21-0.04-0.3-0.11c-0.08-0.07-0.13-0.18-0.13-0.31c0-0.11,0.04-0.21,0.12-0.29 c0.08-0.08,0.18-0.12,0.3-0.12c0.12,0,0.22,0.04,0.3,0.12c0.08,0.08,0.12,0.18,0.12,0.29c0,0.13-0.04,0.24-0.12,0.31 C59.54,91.9,59.44,91.94,59.33,91.94z" class="st4"/></g><g><path d="M60.8,91.87v-4.59h0.45v4.19h2.65v0.4H60.8z" class="st4"/><path d="M66.44,87.28h0.38l1.91,4.59h-0.48l-0.59-1.44H65.6l-0.59,1.44h-0.49L66.44,87.28z M67.55,90.08l-0.92-2.27 l-0.94,2.27H67.55z" class="st4"/></g><g><path d="M70.34,87.31h0.43l0.65,1.63l0.65-1.63h0.43l-0.8,1.96l0.88,2.08l1.66-4.07h0.49l-1.95,4.59h-0.4l-0.96-2.27 l-0.97,2.27h-0.39l-1.94-4.59h0.49l1.67,4.07l0.87-2.08L70.34,87.31z" class="st4"/></g></g><g><g><path d="M14.79,82.33V63.36h8.39c0.87,0,1.68,0.18,2.42,0.55c0.74,0.37,1.38,0.85,1.91,1.44 c0.53,0.6,0.95,1.27,1.26,2.03c0.3,0.76,0.45,1.52,0.45,2.28c0,1.23-0.31,2.35-0.92,3.35c-0.61,1.01-1.45,1.73-2.5,2.18 l4.33,7.13h-4.14l-3.87-6.36h-3.63v6.36H14.79z M18.47,72.73h4.62c0.34,0,0.65-0.08,0.95-0.24c0.29-0.16,0.55-0.38,0.76-0.65 c0.21-0.28,0.38-0.6,0.51-0.98c0.12-0.37,0.19-0.77,0.19-1.2c0-0.45-0.07-0.86-0.21-1.23c-0.14-0.37-0.33-0.7-0.57-0.98 c-0.24-0.28-0.52-0.49-0.83-0.64c-0.31-0.15-0.63-0.23-0.95-0.23h-4.46V72.73z" class="st4"/><path d="M45.73,79.09v3.23H32.56V63.36h12.93v3.23h-9.24v4.57h7.99v2.99h-7.99v4.94H45.73z" class="st4"/></g><g><path d="M47.06,72.71c0-1.16,0.21-2.3,0.63-3.43c0.42-1.13,1.03-2.14,1.83-3.03c0.8-0.89,1.78-1.61,2.94-2.16 c1.16-0.55,2.48-0.83,3.95-0.83c1.75,0,3.26,0.38,4.53,1.15c1.27,0.77,2.22,1.76,2.85,2.99l-2.83,1.95 c-0.25-0.53-0.55-0.98-0.91-1.35c-0.36-0.36-0.74-0.65-1.15-0.87c-0.41-0.21-0.84-0.37-1.28-0.47c-0.45-0.1-0.88-0.15-1.31-0.15 c-0.93,0-1.73,0.19-2.42,0.56c-0.69,0.37-1.26,0.86-1.71,1.46c-0.45,0.6-0.8,1.27-1.03,2.03c-0.23,0.76-0.35,1.51-0.35,2.26 c0,0.84,0.13,1.64,0.4,2.42c0.27,0.77,0.65,1.46,1.14,2.04c0.49,0.59,1.08,1.06,1.76,1.42c0.69,0.36,1.44,0.53,2.26,0.53 c0.43,0,0.87-0.05,1.34-0.16c0.46-0.11,0.9-0.28,1.32-0.51c0.42-0.23,0.81-0.53,1.16-0.9c0.36-0.36,0.64-0.81,0.86-1.32 l3.02,1.74c-0.3,0.71-0.73,1.34-1.3,1.88c-0.56,0.54-1.19,1-1.9,1.38c-0.7,0.37-1.46,0.66-2.26,0.85s-1.59,0.29-2.35,0.29 c-1.35,0-2.59-0.28-3.71-0.85c-1.12-0.57-2.09-1.31-2.9-2.23c-0.81-0.92-1.44-1.96-1.9-3.13C47.29,75.11,47.06,73.92,47.06,72.71 z" class="st4"/><path d="M71.67,63.36h3.26l7.21,18.97h-3.79l-1.76-4.73h-6.63l-1.74,4.73h-3.79L71.67,63.36z M75.92,75.01 l-2.62-7.45l-2.73,7.45H75.92z" class="st4"/></g><g><path d="M84.23,82.33V63.36h8.04c0.87,0,1.68,0.18,2.42,0.55c0.74,0.37,1.38,0.85,1.91,1.44 c0.53,0.6,0.95,1.27,1.26,2.03c0.3,0.76,0.45,1.52,0.45,2.28c0,0.8-0.14,1.58-0.43,2.34c-0.29,0.76-0.69,1.43-1.2,2.02 c-0.52,0.59-1.14,1.06-1.87,1.42c-0.73,0.36-1.53,0.53-2.4,0.53h-4.49v6.36H84.23z M87.92,72.73h4.28c0.68,0,1.24-0.28,1.7-0.83 c0.45-0.55,0.68-1.3,0.68-2.24c0-0.48-0.07-0.91-0.21-1.3c-0.14-0.38-0.33-0.71-0.56-0.98c-0.23-0.27-0.5-0.47-0.81-0.6 c-0.31-0.13-0.63-0.2-0.95-0.2h-4.11V72.73z" class="st4"/></g></g></g><g id="Layer_5"><g><path d="M63.72,42.73h-12v0.99c0.01,1.2,0.74,1.94,1.93,1.94c2.61-0.01,5.23-0.01,7.84-0.02 c0.24-0.01,0.49-0.01,0.72-0.08C63.65,45.18,63.91,43.98,63.72,42.73z" class="st4"/><path d="M66.29,28.01c-0.43-0.44-0.97-0.66-1.62-0.66c-0.7,0-1.26,0.21-1.7,0.65c-0.21,0.21-0.38,0.45-0.48,0.72 H47.99v29.81l1.88,0V30.6h7.29c0,0.84,0,1.68-0.01,2.52c-0.01,0.16-0.03,0.34-0.08,0.49c-0.86,2.44-1.73,4.87-2.58,7.31 c-0.08,0.21-0.17,0.28-0.38,0.28c-0.75-0.01-1.5,0-2.25,0.01c-0.25,0-0.35,0.1-0.35,0.32c0,0.22,0.11,0.32,0.38,0.32 c0.72,0,1.43-0.02,2.15-0.02c3.24-0.01,6.49-0.03,9.74-0.04c0.3,0,0.43-0.11,0.43-0.32s-0.13-0.31-0.42-0.31 c-0.62,0-1.23,0-1.85,0.01c-0.18,0.01-0.26-0.05-0.33-0.22c-1.03-2.43-2.06-4.86-3.09-7.29c-0.03-0.08-0.05-0.16-0.05-0.24v-2.8 h4.04c0.1,0.24,0.24,0.46,0.43,0.68c0.41,0.46,0.98,0.7,1.73,0.7c0.65,0,1.21-0.22,1.64-0.67c0.43-0.44,0.65-0.99,0.65-1.66 C66.95,29,66.73,28.45,66.29,28.01z M60.49,41.14h-4.92c0.74-2.07,1.47-4.15,2.21-6.23h0.06C58.72,36.97,59.6,39.04,60.49,41.14z M65.34,30.44c-0.2,0.22-0.43,0.33-0.7,0.33c-0.28,0-0.52-0.11-0.71-0.34c-0.2-0.23-0.3-0.5-0.3-0.82c0-0.3,0.1-0.54,0.3-0.75 c0.2-0.21,0.43-0.32,0.71-0.32c0.27,0,0.5,0.12,0.7,0.34c0.2,0.23,0.3,0.49,0.3,0.79C65.63,29.97,65.53,30.22,65.34,30.44z" class="st4"/><path d="M26.98,47.91h-12c0,0.36-0.01,0.67,0,0.98c0,1.2,0.74,1.94,1.92,1.94c2.61-0.01,5.23-0.01,7.84-0.02 c0.24,0,0.49-0.01,0.72-0.08C26.9,50.35,27.17,49.16,26.98,47.91z" class="st4"/><path d="M15.84,33.94c-0.11-0.31-0.28-0.59-0.52-0.83c-0.44-0.44-0.98-0.66-1.62-0.66c-0.69,0-1.26,0.21-1.7,0.65 s-0.66,1-0.66,1.68c0,0.6,0.2,1.14,0.61,1.6c0.41,0.46,0.98,0.7,1.73,0.7c0.65,0,1.2-0.22,1.64-0.66c0.18-0.19,0.32-0.38,0.43-0.6 h4.67c0,0.82,0,1.65-0.01,2.47c0,0.16-0.03,0.34-0.08,0.49c-0.86,2.44-1.73,4.87-2.58,7.31c-0.08,0.21-0.16,0.28-0.38,0.28 c-0.75-0.01-1.5,0-2.25,0.01c-0.24,0-0.35,0.1-0.35,0.32c0.01,0.22,0.12,0.32,0.38,0.32c0.71-0.01,1.43-0.02,2.14-0.02 c3.24-0.02,6.49-0.03,9.74-0.04c0.3-0.01,0.43-0.11,0.43-0.33c0-0.21-0.12-0.3-0.42-0.3c-0.61,0-1.23-0.01-1.85,0.01 c-0.17,0-0.26-0.05-0.33-0.22c-1.03-2.43-2.06-4.86-3.09-7.29c-0.03-0.08-0.05-0.16-0.05-0.24c0-0.91,0-1.83,0.01-2.75h7.28v22.71 l1.88,0V33.94H15.84z M14.36,35.55c-0.2,0.22-0.43,0.33-0.7,0.33c-0.28,0-0.52-0.11-0.71-0.34c-0.2-0.23-0.3-0.5-0.3-0.82 c0-0.29,0.1-0.54,0.3-0.75c0.2-0.21,0.43-0.32,0.71-0.32c0.27,0,0.49,0.12,0.7,0.34c0.2,0.23,0.3,0.49,0.3,0.79 C14.66,35.07,14.56,35.33,14.36,35.55z M23.75,46.31h-4.92c0.74-2.07,1.47-4.15,2.21-6.23c0.02,0,0.04,0,0.06-0.01 C21.98,42.14,22.85,44.21,23.75,46.31z" class="st4"/><path d="M36.34,14.61c-0.43-0.44-0.97-0.66-1.62-0.66c-0.69,0-1.26,0.21-1.7,0.65c-0.45,0.43-0.67,1-0.67,1.68 c0,0.6,0.21,1.14,0.62,1.6c0.21,0.24,0.46,0.42,0.76,0.53v40.12h1.88V18.41c0.27-0.11,0.5-0.27,0.72-0.49 c0.44-0.44,0.65-0.99,0.65-1.66C37,15.6,36.78,15.06,36.34,14.61z M35.39,17.05c-0.2,0.22-0.43,0.33-0.69,0.33 c-0.28,0-0.52-0.11-0.71-0.34c-0.2-0.23-0.3-0.5-0.3-0.82c0-0.3,0.1-0.54,0.3-0.75c0.2-0.21,0.43-0.32,0.71-0.32 c0.26,0,0.49,0.12,0.69,0.34c0.2,0.23,0.3,0.49,0.3,0.79C35.69,16.58,35.59,16.83,35.39,17.05z" class="st4"/><path d="M41.75,10.25c0-0.65-0.22-1.21-0.65-1.65c-0.44-0.45-0.98-0.67-1.62-0.67c-0.69,0-1.26,0.22-1.7,0.65 c-0.44,0.43-0.66,0.99-0.66,1.67c0,0.61,0.2,1.14,0.61,1.6c0.22,0.25,0.49,0.43,0.81,0.55h-0.05v46.11h1.88V12.42h-0.06 c0.3-0.1,0.56-0.28,0.79-0.51C41.53,11.47,41.75,10.91,41.75,10.25z" class="st4"/><path d="M45.88,20.02c-0.43-0.44-0.98-0.67-1.62-0.67c-0.69,0-1.26,0.22-1.7,0.65c-0.44,0.43-0.66,0.99-0.66,1.68 c0,0.6,0.2,1.14,0.61,1.6c0.21,0.24,0.46,0.41,0.76,0.53v34.71h1.88V23.82c0.27-0.11,0.51-0.28,0.72-0.49 c0.43-0.44,0.65-1,0.65-1.66C46.53,21.01,46.31,20.46,45.88,20.02z M44.92,22.46c-0.2,0.22-0.43,0.33-0.7,0.33 c-0.28,0-0.52-0.12-0.71-0.34c-0.2-0.23-0.3-0.5-0.3-0.82c0-0.3,0.1-0.54,0.3-0.75c0.2-0.21,0.43-0.32,0.71-0.32 c0.27,0,0.5,0.11,0.7,0.34c0.2,0.23,0.3,0.49,0.3,0.79C45.22,21.99,45.12,22.24,44.92,22.46z" class="st4"/></g></g></svg>