<svg xmlns="http://www.w3.org/2000/svg" id="svg247" version="1.1" viewBox="0 0 809.39 300">
  <defs id="defs4">
    <style id="style2">
      .st1{fill:#848582}.st3{fill:#4a8042}.st7{fill:#848582}
    </style>
  </defs>
  <g id="Layer_2">
    <g id="Layer_6">
      <path id="path6" d="M200.62 138.94h-19.55l8.77-24.76h.25c3.5 8.2 6.98 16.4 10.52 24.76Zm-15.51-41.89h2.27c0 3.34 0 6.68-.05 10.02a6.9 6.9 0 0 1-.32 1.93c-3.43 9.7-6.89 19.37-10.27 29.04-.3.85-.67 1.13-1.52 1.11-2.99-.05-5.96 0-8.94.02-.99 0-1.38.39-1.38 1.27s.44 1.29 1.5 1.27c2.86 0 5.69-.07 8.54-.09 12.9-.05 25.79-.12 38.71-.16 1.17 0 1.73-.44 1.7-1.29s-.51-1.22-1.66-1.22c-2.46 0-4.91 0-7.35.05-.71.02-1.04-.21-1.31-.88l-12.3-28.99c-.14-.3-.21-.62-.21-.94V97.07" class="st1"/>
    </g>
    <path id="path9" d="M213.45 145.24h-47.72v3.94c.02 4.77 2.92 7.69 7.67 7.69l31.18-.07c.94-.02 1.93-.05 2.86-.3 5.73-1.52 6.79-6.26 6.01-11.26Z" class="st1"/>
    <path id="path11" d="M177.69 97.05h7.42m7.43 0h5.38-39.5v85.04h-7.48V89.56h57.66a7.98 7.98 0 0 1 1.91-2.88c1.75-1.73 4.01-2.58 6.77-2.58 2.56 0 4.7.88 6.42 2.63 1.73 1.77 2.6 3.94 2.6 6.54s-.88 4.86-2.6 6.61a8.74 8.74 0 0 1-6.52 2.65c-2.95 0-5.23-.94-6.86-2.79a9.87 9.87 0 0 1-1.7-2.69h-10.7m21.98-.63c-.78.88-1.7 1.31-2.76 1.31s-2.05-.44-2.83-1.34a4.79 4.79 0 0 1-1.17-3.25c0-1.17.41-2.16 1.2-2.99.78-.85 1.73-1.27 2.81-1.27s1.98.46 2.76 1.34c.78.9 1.17 1.93 1.17 3.13s-.39 2.19-1.17 3.06Z" class="st3"/>
    <g id="g17">
      <path id="path13" d="M68.16 165.83H20.45c0 1.43-.02 2.67 0 3.91 0 4.77 2.92 7.69 7.65 7.69l31.18-.07c.94 0 1.93-.05 2.86-.3 5.73-1.52 6.79-6.26 6.03-11.24Z" class="st1"/>
      <path id="path15" d="M23.88 110.31a9.07 9.07 0 0 0-2.07-3.29 8.76 8.76 0 0 0-6.45-2.63c-2.74 0-5 .85-6.75 2.58a9 9 0 0 0-2.63 6.68c0 2.39.81 4.51 2.44 6.38 1.64 1.84 3.91 2.79 6.86 2.79a8.85 8.85 0 0 0 8.22-5.03h18.56c0 3.27 0 6.56-.05 9.83 0 .64-.12 1.34-.32 1.93-3.41 9.69-6.86 19.34-10.27 29.04-.3.85-.64 1.11-1.52 1.11-2.97-.05-5.96 0-8.94.02-.97 0-1.38.39-1.38 1.27.02.88.46 1.27 1.52 1.27l8.52-.09c12.9-.07 25.81-.12 38.71-.16 1.2-.02 1.73-.44 1.7-1.31 0-.83-.48-1.2-1.66-1.2-2.44 0-4.91-.02-7.35.05-.69 0-1.04-.21-1.31-.88-4.08-9.67-8.2-19.32-12.3-28.99-.12-.3-.21-.64-.21-.97 0-3.62 0-7.28.02-10.92h28.92v64.29h7.48V110.3H23.88Zm-5.87 6.4a3.61 3.61 0 0 1-5.59-.03 4.79 4.79 0 0 1-1.17-3.25c0-1.15.39-2.16 1.2-2.99a3.6 3.6 0 0 1 5.57.07c.78.9 1.17 1.93 1.17 3.13s-.39 2.21-1.17 3.06Zm37.33 42.79H35.79l8.77-24.76c.07 0 .16 0 .25-.02 3.48 8.2 6.95 16.42 10.52 24.78Z" class="st1"/>
    </g>
    <path id="path19" d="M105.25 33.49a8.67 8.67 0 0 0-6.42-2.63c-2.74 0-5 .85-6.75 2.58a8.93 8.93 0 0 0-2.65 6.68c0 2.39.83 4.51 2.46 6.38a7.5 7.5 0 0 0 3.02 2.1v133.5h7.48V48.59a8.5 8.5 0 0 0 2.86-1.96c1.75-1.75 2.6-3.94 2.6-6.61s-.85-4.77-2.6-6.54Zm-3.8 9.69a3.6 3.6 0 0 1-5.57-.03 4.79 4.79 0 0 1-1.17-3.25 4.2 4.2 0 0 1 1.17-2.99 3.7 3.7 0 0 1 2.83-1.27 3.6 3.6 0 0 1 2.74 1.34c.81.9 1.2 1.93 1.2 3.13s-.39 2.19-1.2 3.06Z" class="st1"/>
    <path id="path21" d="M126.52 16.19A8.99 8.99 0 0 0 117.47 7c-2.74 0-5 .88-6.75 2.6s-2.63 3.94-2.63 6.66c0 2.42.81 4.54 2.44 6.38a7.69 7.69 0 0 0 3.22 2.19h-.21v157.31h7.48V24.82h-.25a8.33 8.33 0 0 0 3.13-2.03 9.03 9.03 0 0 0 2.6-6.61Zm-6.4 3.15a3.64 3.64 0 0 1-5.59-.05 4.7 4.7 0 0 1-1.17-3.22c0-1.17.39-2.16 1.17-3.02a3.8 3.8 0 0 1 2.83-1.24 3.6 3.6 0 0 1 2.76 1.34c.78.9 1.17 1.93 1.17 3.11s-.39 2.21-1.17 3.09Z" class="st1"/>
    <path id="path23" d="M142.55 55a8.74 8.74 0 0 0-6.45-2.65c-2.74 0-5 .88-6.75 2.6a8.96 8.96 0 0 0-2.63 6.68c0 2.39.81 4.51 2.44 6.38a7.7 7.7 0 0 0 3.02 2.1V182.1h7.48V70.11a9.03 9.03 0 0 0 5.48-8.57c0-2.65-.88-4.79-2.6-6.54Zm-3.8 9.69c-.78.88-1.7 1.31-2.76 1.31s-2.05-.46-2.83-1.34a4.79 4.79 0 0 1-1.17-3.25 4.1 4.1 0 0 1 1.2-2.99c.78-.85 1.73-1.27 2.81-1.27s1.98.44 2.76 1.34c.78.9 1.17 1.93 1.17 3.13s-.39 2.19-1.17 3.06Z" class="st1"/>
    <path id="rect25" d="M150.94 266.32h7.41V293h-7.41z" class="st3"/>
    <path id="rect27" d="M76.16 266.32h7.41V293h-7.41z" class="st1"/>
    <path id="rect29" d="M94.85 266.32h7.41V293h-7.41z" class="st1"/>
    <path id="rect31" d="M113.55 266.32h7.41V293h-7.41z" class="st1"/>
    <path id="rect33" d="M132.24 266.32h7.41V293h-7.41z" class="st1"/>
  </g>
  <g id="Layer_9" transform="translate(-60.03 -100.45) scale(1.352)">
    <g id="g93">
      <g id="g71">
        <path id="path67" d="M185.17 285.68a4.7 4.7 0 0 1-1.62 3.61c-.49.45-1.07.8-1.73 1.04-.66.24-1.36.37-2.11.37h-9.19v-19.47h9.38c.68 0 1.29.15 1.84.44.55.29 1.01.67 1.4 1.14a5.39 5.39 0 0 1 .47 6.09 4.56 4.56 0 0 1-2.06 1.82c1.11.33 2 .94 2.65 1.84.65.9.97 1.94.97 3.13zm-12.73-12.78v7.19h6.69c.48 0 .92-.1 1.33-.3a3.49 3.49 0 0 0 1.75-1.94c.16-.43.25-.88.25-1.36 0-.48-.08-.96-.23-1.4a3.38 3.38 0 0 0-1.66-1.91c-.38-.19-.8-.29-1.26-.29h-6.86zm10.81 12.45a3.92 3.92 0 0 0-.95-2.57 3.6 3.6 0 0 0-1.07-.82 2.87 2.87 0 0 0-1.33-.32h-7.46v7.38h7.27c.49 0 .96-.1 1.39-.3a3.61 3.61 0 0 0 1.87-1.99c.18-.45.27-.91.27-1.39z" class="st7"/>
        <path id="path69" d="m190.02 271.22 6.36 10.48 6.42-10.48h2.08l-7.54 12.23v7.24h-1.92v-7.29l-7.51-12.18z" class="st7"/>
      </g>
      <g id="g81">
        <path id="path73" d="M217.66 290.69v-19.47h12.78v1.7h-10.86v7.16h9.16v1.59h-9.16v9.02z" class="st7"/>
        <path id="path75" d="M235.73 290.69v-19.47h8.23c.84 0 1.61.18 2.32.53a6.11 6.11 0 0 1 3.01 3.36 6.17 6.17 0 0 1 .11 4.26c-.21.65-.5 1.23-.88 1.76-.37.52-.83.96-1.36 1.32-.53.36-1.12.6-1.78.73l4.77 7.51h-2.17l-4.58-7.18h-5.76v7.18h-1.92zm1.92-8.88h6.36c.57 0 1.08-.12 1.55-.37a3.7 3.7 0 0 0 1.19-1 5.04 5.04 0 0 0 .72-4.79 4.22 4.22 0 0 0-2.11-2.37 3.36 3.36 0 0 0-1.52-.36h-6.2v8.88z" class="st7"/>
        <path id="path77" d="M268.64 288.99v1.7h-13.08v-19.47h12.83v1.7h-10.91v7.02H267v1.62h-9.52v7.43z" class="st7"/>
        <path id="path79" d="M287.26 288.99v1.7h-13.08v-19.47h12.83v1.7H276.1v7.02h9.52v1.62h-9.52v7.43z" class="st7"/>
      </g>
      <path id="path83" d="M294.17 290.99c-.49 0-.91-.16-1.27-.47a1.67 1.67 0 0 1-.53-1.32c0-.48.17-.89.51-1.24.34-.35.76-.52 1.25-.52s.92.17 1.27.51c.35.34.53.76.53 1.25 0 .56-.18 1-.53 1.32-.35.32-.76.48-1.24.48z" class="st7"/>
      <g id="g89">
        <path id="path85" d="M300.38 290.69v-19.47h1.92v17.77h11.24v1.7z" class="st7"/>
        <path id="path87" d="M324.32 271.22h1.62l8.09 19.47H332l-2.52-6.09h-8.75l-2.5 6.09h-2.06l8.14-19.47zm4.72 11.88-3.92-9.63-3.98 9.63z" class="st7"/>
      </g>
      <path id="path91" d="M340.83 271.36h1.81l2.74 6.91 2.77-6.91h1.84l-3.4 8.31 3.73 8.8 7.05-17.25h2.08l-8.25 19.47h-1.7l-4.09-9.63-4.11 9.63h-1.67l-8.23-19.47h2.06l7.08 17.25 3.7-8.8-3.4-8.31z" class="st7"/>
    </g>
  </g>
  <g id="Layer_7">
    <g id="g244">
      <path id="path208" d="M86.72 232.31c0 13.04-5.55 18.2-16.98 18.2-2.51 0-4.82-.18-6.88-.52v-8.19c1.48.25 3.63.38 5.45.38 5.63 0 8.13-3 8.13-9.32v-32.09h10.28v31.55Z" class="st3"/>
      <path id="path210" d="M106.1 200.76v27.6c0 11.14 6.1 14.05 12.54 14.05 7.2 0 11.82-3.22 11.82-14.05v-27.6h10.23v27.83c0 15.13-8.3 21.93-22.36 21.93s-22.48-6.44-22.48-21.58v-28.19h10.23Z" class="st3"/>
      <path id="path212" d="M156.43 235.03c1.52 4.69 5.15 7.85 13.72 7.85s10.89-2.76 10.89-6.36c0-3.82-2.39-6.05-13.4-7.92-16.18-2.76-19.4-7.96-19.4-14.53 0-9.36 8.97-14.31 20.2-14.31 16.44 0 20.72 8.5 21.28 13.93h-10.28c-.79-2.7-2.55-6.31-11.31-6.31-6.08 0-9.47 1.99-9.47 5.7 0 3.19 2 4.96 11.77 6.67 18.22 3.22 21.1 8.76 21.1 15.73 0 8.23-6.49 15-22.29 15-14.72 0-21.59-6.61-23.1-15.45h10.3Z" class="st3"/>
      <path id="path214" d="M210.71 209.03H193.1v-8.27h45.43v8.27h-17.56v40.47h-10.25v-40.47Z" class="st3"/>
      <path id="path216" d="M253.15 200.76v48.73h-10.23v-48.73h10.23Z" class="st3"/>
      <path id="path218" d="M309.71 234.41c-2.43 8.49-9 16.12-23.84 16.12-17.02 0-25.55-11.81-25.55-25.34s9.42-25.47 26.09-25.47c14.65 0 21.83 8.07 23.41 16.17h-10.39c-1.36-3.54-4.41-8.1-13.13-8.1-9.78 0-15.17 7.37-15.17 17.01s5.09 17.69 15.24 17.69c7.65 0 10.9-3.1 13.04-8.1h10.3Z" class="st3"/>
      <path id="path220" d="M354.51 228.25h-27.85v12.95h30.89l-1.22 8.29h-39.9v-48.73h39.58v8.29h-29.34v10.9h27.85v8.29Z" class="st3"/>
      <path id="path222" d="M386.69 200.35v49.14h-5.53v-49.14h5.53Z" class="st3"/>
      <path id="path224" d="M397.72 249.5v-49.14h6.66c10.27 13.78 28.99 37.51 31.69 42.35h.14c-.42-6.74-.36-14.1-.36-22.04v-20.3h5.24v49.14h-6.33c-8.06-10.52-28.33-37.6-32.01-43.35h-.14c.36 6.4.36 13.36.36 22.04v21.32h-5.24Z" class="st3"/>
      <path id="path226" d="M457.83 200.35v49.14h-5.53v-49.14h5.53Z" class="st3"/>
      <path id="path228" d="M482 205.22h-19.14v-4.87h43.87v4.87H487.6v44.27h-5.59v-44.27Z" class="st3"/>
      <path id="path230" d="M517.36 200.35v49.14h-5.53v-49.14h5.53Z" class="st3"/>
      <path id="path232" d="m535.28 233.55-6.92 15.95h-5.82l21.51-49.14h6.48l22.31 49.14h-6.05l-7.2-15.95h-24.31Zm22.36-4.88c-6.41-14.22-9.41-20.84-10.52-24.05h-.07c-.99 3.09-4.56 11.77-9.85 24.05h20.45Z" class="st3"/>
      <path id="path234" d="M583.91 205.22h-19.14v-4.87h43.87v4.87h-19.13v44.27h-5.59v-44.27Z" class="st3"/>
      <path id="path236" d="M619.27 200.35v49.14h-5.53v-49.14h5.53Z" class="st3"/>
      <path id="path238" d="m646.36 249.5-21.89-49.14h6.04l11.89 27.01c4.37 9.95 6.08 14.3 7.03 16.96h.14c.76-2.26 3.42-8.39 6.34-15.25l12.79-28.71h5.91l-22.24 49.14h-6.01Z" class="st3"/>
      <path id="path240" d="M715.51 226.01h-30.05v18.66h33.09l-.81 4.82h-37.81v-49.14h37.15v4.82h-31.62v16.01h30.05V226Z" class="st3"/>
      <path id="path242" d="M726.72 235.33c1.89 6.18 6.34 10.58 16.44 10.58s14.36-4.14 14.36-9.12c0-5.24-2.83-8.52-16.16-10.75-14.13-2.39-17.79-6.77-17.79-13.49 0-8.31 7.85-13.22 18.3-13.22 15.74 0 19.27 8.28 19.82 13.03h-5.65c-1.08-3.6-3.3-8.36-14.29-8.36-7.46 0-12.49 2.58-12.49 8.01 0 4.35 2 7.2 13.71 9.14 17.47 2.92 20.31 8.39 20.31 15.09 0 7.63-6.11 14.29-20.42 14.29-13.27 0-20.21-6.09-21.83-15.19h5.71Z" class="st3"/>
    </g>
  </g>
</svg>
