<?xml version="1.0" encoding="UTF-8" standalone="no"?>
<svg
   width="32"
   height="32"
   data-name="Layer 1"
   viewBox="0 0 32 32"
   version="1.1"
   id="svg64"
   sodipodi:docname="tiny-full-color.svg"
   inkscape:version="1.2.2 (b0a8486541, 2022-12-01)"
   xmlns:inkscape="http://www.inkscape.org/namespaces/inkscape"
   xmlns:sodipodi="http://sodipodi.sourceforge.net/DTD/sodipodi-0.dtd"
   xmlns="http://www.w3.org/2000/svg"
   xmlns:svg="http://www.w3.org/2000/svg">
  <defs
     id="defs68" />
  <sodipodi:namedview
     id="namedview66"
     pagecolor="#505050"
     bordercolor="#eeeeee"
     borderopacity="1"
     inkscape:showpageshadow="false"
     inkscape:pageopacity="0"
     inkscape:pagecheckerboard="true"
     inkscape:deskcolor="#d1d1d1"
     showgrid="false"
     showborder="true"
     inkscape:zoom="19.962981"
     inkscape:cx="25.797751"
     inkscape:cy="12.598319"
     inkscape:window-width="1920"
     inkscape:window-height="1137"
     inkscape:window-x="0"
     inkscape:window-y="0"
     inkscape:window-maximized="1"
     inkscape:current-layer="svg64" />
  <g
     id="g965"
     transform="matrix(0.063106,0,0,0.06078488,-4.4769562,3.7694752)">
    <g
       id="g955">
      <path
         id="path951"
         d="m 111.69,390.29 v -96.67 h 42.75 c 4.45,0 8.55,0.93 12.32,2.79 3.77,1.86 7.01,4.31 9.73,7.35 2.72,3.04 4.85,6.49 6.4,10.35 1.54,3.86 2.31,7.74 2.31,11.64 0,6.26 -1.57,11.96 -4.7,17.09 -3.13,5.13 -7.38,8.83 -12.73,11.1 l 22.06,36.35 h -21.1 l -19.74,-32.4 h -18.52 v 32.4 h -18.79 z m 18.78,-48.88 h 23.55 c 1.72,0 3.34,-0.41 4.83,-1.22 1.5,-0.82 2.79,-1.93 3.88,-3.34 1.09,-1.41 1.95,-3.06 2.59,-4.97 0.63,-1.91 0.95,-3.95 0.95,-6.13 0,-2.18 -0.36,-4.36 -1.09,-6.26 -0.73,-1.91 -1.7,-3.56 -2.93,-4.97 -1.23,-1.41 -2.63,-2.5 -4.22,-3.27 -1.59,-0.77 -3.2,-1.16 -4.83,-1.16 h -22.74 v 31.31 z"
         class="cls-1"
         style="fill:#5064ad;stroke-width:0" />
      <path
         id="path953"
         d="m 269.35,373.82 v 16.47 h -67.12 v -96.67 h 65.9 v 16.47 h -47.11 v 23.28 h 40.71 v 15.25 h -40.71 v 25.19 h 48.33 z"
         class="cls-1"
         style="fill:#5064ad;stroke-width:0" />
    </g>
    <g
       id="g961">
      <path
         id="path957"
         d="m 276.15,341.28 c 0,-5.9 1.07,-11.73 3.2,-17.5 2.13,-5.76 5.24,-10.91 9.33,-15.45 4.08,-4.54 9.08,-8.21 14.98,-11.03 5.9,-2.81 12.62,-4.22 20.15,-4.22 8.89,0 16.59,1.95 23.08,5.85 6.49,3.9 11.32,8.99 14.5,15.25 l -14.43,9.94 c -1.27,-2.72 -2.81,-5.01 -4.63,-6.88 -1.82,-1.86 -3.77,-3.34 -5.85,-4.42 -2.09,-1.09 -4.27,-1.88 -6.54,-2.38 -2.27,-0.5 -4.49,-0.75 -6.67,-0.75 -4.72,0 -8.83,0.95 -12.32,2.86 -3.5,1.91 -6.4,4.38 -8.71,7.42 -2.31,3.04 -4.06,6.49 -5.24,10.35 -1.18,3.86 -1.77,7.69 -1.77,11.5 0,4.27 0.68,8.37 2.04,12.32 1.36,3.95 3.29,7.42 5.79,10.42 2.5,3 5.49,5.4 8.99,7.22 3.49,1.82 7.33,2.72 11.5,2.72 2.18,0 4.45,-0.27 6.81,-0.82 2.36,-0.54 4.61,-1.41 6.74,-2.59 2.13,-1.18 4.11,-2.7 5.92,-4.56 1.81,-1.86 3.27,-4.11 4.36,-6.74 l 15.38,8.85 c -1.54,3.63 -3.74,6.83 -6.6,9.6 -2.86,2.77 -6.08,5.11 -9.67,7.01 -3.59,1.91 -7.42,3.36 -11.5,4.36 -4.08,1 -8.08,1.5 -11.98,1.5 -6.9,0 -13.21,-1.45 -18.92,-4.36 -5.72,-2.9 -10.64,-6.69 -14.77,-11.37 -4.13,-4.67 -7.35,-9.98 -9.67,-15.93 -2.31,-5.94 -3.47,-12 -3.47,-18.18 z"
         class="cls-1"
         style="fill:#5064ad;stroke-width:0" />
      <path
         id="path959"
         d="m 401.54,293.63 h 16.61 l 36.76,96.67 h -19.33 l -8.99,-24.1 h -33.77 l -8.85,24.1 h -19.33 z m 21.65,59.36 -13.34,-37.99 -13.89,37.99 z"
         class="cls-1"
         style="fill:#5064ad;stroke-width:0" />
    </g>
    <path
       id="path963"
       d="m 465.54,390.29 v -96.67 h 40.98 c 4.45,0 8.55,0.93 12.32,2.79 3.77,1.86 7.01,4.31 9.74,7.35 2.72,3.04 4.85,6.49 6.4,10.35 1.54,3.86 2.31,7.74 2.31,11.64 0,3.9 -0.73,8.06 -2.18,11.91 -1.45,3.86 -3.5,7.28 -6.13,10.28 -2.63,3 -5.81,5.4 -9.53,7.22 -3.72,1.82 -7.81,2.72 -12.25,2.72 h -22.87 v 32.4 h -18.79 z m 18.79,-48.88 h 21.78 c 3.45,0 6.33,-1.41 8.65,-4.22 2.31,-2.81 3.47,-6.62 3.47,-11.44 0,-2.45 -0.36,-4.65 -1.09,-6.6 -0.73,-1.95 -1.68,-3.61 -2.86,-4.97 -1.18,-1.36 -2.57,-2.38 -4.15,-3.06 -1.59,-0.68 -3.2,-1.02 -4.83,-1.02 h -20.97 z"
       class="cls-1"
       style="fill:#5064ad;stroke-width:0" />
  </g>
  <g
     id="g2090"
     transform="matrix(0.97728853,0,0,0.97728853,0.3633793,1.9571916)">
    <rect
       style="fill:#5064ad;fill-opacity:0.9936;stroke:#000000;stroke-width:0;stroke-dasharray:none;stroke-dashoffset:0"
       id="rect1217"
       width="1.3141326"
       height="12.19147"
       x="12.369233"
       y="7.1569824" />
    <path
       style="fill:#5064ad;fill-opacity:0.9936;stroke:#000000;stroke-width:0;stroke-dasharray:none;stroke-dashoffset:0"
       id="path2084"
       sodipodi:type="arc"
       sodipodi:cx="13.026299"
       sodipodi:cy="6.3270373"
       sodipodi:rx="1.2445832"
       sodipodi:ry="1.2445832"
       sodipodi:start="6.2625112"
       sodipodi:end="6.2623729"
       sodipodi:open="true"
       sodipodi:arc-type="arc"
       d="M 14.270617,6.3013085 A 1.2445832,1.2445832 0 0 1 13.052071,7.5713537 1.2445832,1.2445832 0 0 1 11.781984,6.3528522 1.2445832,1.2445832 0 0 1 13.000442,5.0827227 1.2445832,1.2445832 0 0 1 14.270613,6.3011364" />
  </g>
  <path
     d="m 16.000837,4.6374993 c -0.665729,0 -1.204802,0.539092 -1.204802,1.2047622 0,0.4273976 0.221943,0.801191 0.556958,1.0156374 V 20.862384 h 1.298621 V 6.8578989 c 0.335014,-0.2144464 0.556956,-0.5882398 0.556956,-1.0156374 0,-0.6656702 -0.539072,-1.2047622 -1.204801,-1.2047622 z m 0,0.7222651 c 0.266506,0 0.482487,0.2159319 0.482487,0.4824971 0,0.2665652 -0.215981,0.4824971 -0.482487,0.4824971 -0.266604,0 -0.482487,-0.2159319 -0.482487,-0.4824971 0,-0.2665652 0.215883,-0.4824971 0.482487,-0.4824971 z"
     fill="#848582"
     id="path459"
     style="stroke-width:0.977287" />
  <path
     d="m 18.947948,8.278466 c -0.665632,0 -1.204801,0.5390919 -1.204801,1.204772 0,0.4273976 0.221943,0.801191 0.557054,1.015628 v 10.361857 h 1.298524 V 10.500361 c 0.335112,-0.214446 0.556956,-0.5882399 0.556956,-1.0156376 0,-0.6656703 -0.539071,-1.2047622 -1.204704,-1.2047622 z m 0,0.7237603 c 0.266604,0 0.482488,0.2159319 0.482488,0.4824971 0,0.2665652 -0.215884,0.4824976 -0.482488,0.4824976 -0.266507,0 -0.482487,-0.2159324 -0.482487,-0.4824976 0,-0.2665652 0.21598,-0.4824971 0.482487,-0.4824971 z"
     fill="#848582"
     id="path461"
     style="stroke-width:0.977287" />
  <path
     d="M 4.2200921,11.814062 C 4.0056456,11.478988 3.6318522,11.257105 3.2044546,11.257105 c -0.66568,0 -1.2047622,0.539091 -1.2047622,1.2048 0,0.665631 0.5390822,1.204703 1.2047622,1.204703 0.4273976,0 0.801191,-0.221844 1.0156375,-0.556956 h 1.5443015 l -0.7565191,4.262151 -1.1556242,0.006 c -0.059565,0 -0.1072183,0.05952 -0.1072183,0.129492 v 0.0074 c 0,0.07007 0.052119,0.129588 0.1116943,0.129588 h 0.010418 v 0.259177 c 0.00298,0.515226 0.4229313,0.92774 0.9352162,0.92774 l 3.110944,-0.01485 c 0.5748312,-0.0031 1.0349976,-0.470663 1.0349976,-1.045503 v -0.151872 h 0.037235 c 0.062546,0 0.1116845,-0.05952 0.1116845,-0.129586 v -0.0074 c 0,-0.06997 -0.052119,-0.129588 -0.1116845,-0.129588 l -1.1541392,0.006 -0.7535285,-4.2472 h 2.4139909 v 7.749801 H 10.790422 V 11.812577 H 4.2200921 Z m -1.0156375,1.13033 c -0.2665652,0 -0.4825068,-0.21598 -0.4825068,-0.482487 0,-0.266605 0.2159416,-0.482547 0.4825068,-0.482547 0.2665652,0 0.4824971,0.215942 0.4824971,0.482547 0,0.266507 -0.2159319,0.482487 -0.4824971,0.482487 z m 3.8942603,4.41842 -1.3581574,0.006 0.6790788,-3.83019 z"
     fill="#848582"
     id="path463"
     style="stroke-width:0.977287" />
  <path
     d="m 28.794032,9.0830188 c -0.427368,0 -0.801182,0.2218836 -1.015695,0.5569566 H 21.209491 V 20.862579 h 1.298622 v -9.925507 h 2.414 l -0.753587,4.247167 -1.15408,-0.006 c -0.05961,0 -0.111705,0.05961 -0.111705,0.129588 v 0.0074 c 0,0.06997 0.04769,0.129588 0.111705,0.129588 h 0.03724 v 0.151871 c 0,0.574841 0.460107,1.042473 1.034948,1.045405 l 3.111002,0.01495 c 0.512295,0 0.930672,-0.411048 0.935169,-0.927838 v -0.259079 h 0.01046 c 0.05952,0 0.111703,-0.05952 0.111703,-0.129588 v -0.0074 c 0,-0.06997 -0.04769,-0.129588 -0.107208,-0.129588 l -1.155643,-0.006 -0.75652,-4.262042 h 1.544312 c 0.214416,0.335063 0.58823,0.556956 1.015598,0.556956 0.66573,0 1.204801,-0.539092 1.204801,-1.204762 0,-0.6656709 -0.539071,-1.2047628 -1.204801,-1.2047628 z m -2.536161,6.1116772 -1.358138,-0.006 0.679118,-3.824265 z m 2.536161,-4.424417 c -0.266604,0 -0.482488,-0.215933 -0.482488,-0.482498 0,-0.266565 0.215884,-0.482507 0.482488,-0.482507 0.266508,0 0.482487,0.215942 0.482487,0.482507 0,0.266566 -0.215979,0.482498 -0.482487,0.482498 z"
     fill="#848582"
     id="path465"
     style="stroke-width:0.977287" />
</svg>
