<svg xmlns="http://www.w3.org/2000/svg" id="Layer_2" version="1.1" viewBox="0 0 720 329.8">
  <defs id="defs4">
    <style id="style2">
      .st0{fill:#663367}.st1{fill:#b53c2c}.st2{fill:#848582}.st3{fill:none;stroke:#848582;stroke-width:2px}.st4{fill:#4a8042}.st5{fill:#5064ad}.st6{fill:#e99b24}.st7{fill:#848582}
    </style>
  </defs>
  <path id="polygon6" d="M76.2 248.9V198h34.1v8.7H86v13.1h20.2v8H86v21.1h-9.8z" class="st0"/>
  <path id="path8" d="M117.3 248.8V198h22.4c2.4 0 4.5.5 6.5 1.5s3.7 2.3 5.1 3.9a18.5 18.5 0 0 1 4.6 11.5 17 17 0 0 1-2.5 9 14.2 14.2 0 0 1-6.6 5.8l11.6 19.2h-11.1l-10.4-17H127v17h-9.8Zm9.8-25.7h12.4c1 0 1.8-.2 2.6-.6.7-.4 1.4-1 2-1.8.6-.7 1-1.6 1.4-2.6a10.2 10.2 0 0 0-.1-6.5c-.4-1-1-1.8-1.6-2.6a7 7 0 0 0-2.2-1.7c-.8-.4-1.6-.6-2.5-.6h-12v16.5Z" class="st0"/>
  <path id="polygon10" d="M200.2 240.2v8.7h-35.3V198h34.6v8.7h-24.7v12.2h21.4v8h-21.4v13.3h25.4z" class="st0"/>
  <path id="polygon12" d="M243.2 240.2v8.7h-35.3V198h34.7v8.7h-24.8v12.2h21.4v8h-21.4v13.3h25.4z" class="st0"/>
  <path id="polygon14" d="M268.1 248.9V198h9.9v42.2h25.9v8.7h-35.8z" class="st0"/>
  <path id="path16" d="M324.4 198h8.7l19.3 50.8h-10.1l-4.7-12.6h-17.8l-4.7 12.6H305l19.4-50.8Zm11.4 31.2-7-20-7.4 20h14.4Z" class="st0"/>
  <path id="polygon18" d="M366.2 198.2h9.1L381 215l5.7-16.8h9.2l-8.6 23.1 6.4 16.2 14.4-39.5h10.7l-20.7 50.9h-8.3l-8.8-21.4-8.8 21.4h-8.3L343.4 198H354l14.4 39.5 6.3-16.2-8.5-23.1z" class="st0"/>
  <path id="path20" d="M431.3 248.8V198h21c2.2 0 4.2.5 6 1.4a16 16 0 0 1 8 8.8 17.4 17.4 0 0 1-3 17 15.2 15.2 0 0 1-4.6 3.5 13 13 0 0 1-6 1.4h-16.4v18.8h-5Zm5-23.2h16.2c1.5 0 2.9-.3 4-1a9.7 9.7 0 0 0 3.2-2.5 13.6 13.6 0 0 0 1.9-12.6c-.5-1.4-1.3-2.6-2.2-3.7-1-1-2-1.9-3.3-2.5a9.1 9.1 0 0 0-4-.9h-15.8v23.2Z" class="st2"/>
  <path id="path22" d="M472.2 248.8V198h21.5c2.2 0 4.2.5 6 1.4a16 16 0 0 1 8 8.8 16 16 0 0 1 .2 11.1c-.5 1.7-1.3 3.2-2.3 4.6a12.7 12.7 0 0 1-8.2 5.3L510 249h-5.7l-12-18.8h-15V249h-5Zm5-23.2H494a8 8 0 0 0 4-1 9.6 9.6 0 0 0 3.1-2.5 12.8 12.8 0 0 0-.3-16.2c-1-1-2-1.9-3.3-2.5-1.2-.6-2.6-1-4-1h-16.1v23.2Z" class="st7"/>
  <path id="path24" d="M535.9 249.2a23 23 0 0 1-17.3-8 26.5 26.5 0 0 1-6.6-17.8 27 27 0 0 1 7-18c2-2.3 4.6-4.2 7.5-5.6 3-1.4 6-2.1 9.5-2.1s6.7.7 9.7 2.2a27 27 0 0 1-.3 47.2 22 22 0 0 1-9.5 2.1M517 223.4a23.6 23.6 0 0 0 5.3 14.8c1.7 2 3.6 3.6 6 4.7 2.2 1.2 4.8 1.8 7.6 1.8s5.4-.6 7.8-1.9c2.3-1.2 4.3-2.8 6-4.9a22.4 22.4 0 0 0 5-14.5 23.1 23.1 0 0 0-5.3-14.7c-1.7-2-3.6-3.6-6-4.7a17 17 0 0 0-21.3 5 22.4 22.4 0 0 0-5 14.4" class="st7"/>
  <path id="path26" d="M559.1 242.5a18.1 18.1 0 0 0 9.6 2.7c2.6 0 4.7-.5 6.2-1.5s2.8-2.3 3.6-4.1c.8-1.8 1.3-4 1.6-6.7.2-2.6.3-5.7.3-9V198h5v25.9c0 3.8-.2 7.3-.5 10.5-.4 3.2-1.1 5.9-2.3 8.1-1.1 2.3-2.8 4-5 5.3a18 18 0 0 1-8.9 1.8c-4.3 0-8-1-11-3.1l1.4-4Z" class="st7"/>
  <path id="polygon28" d="M628.1 244.4v4.5H594V198h33.5v4.5H599v18.3h24.8v4.2H599v19.4h29.1z" class="st7"/>
  <path id="path30" d="M629.5 223a27.3 27.3 0 0 1 6.3-17.2 22.6 22.6 0 0 1 17.8-8c4.6 0 8.5 1 11.7 3 3.2 2 5.6 4.7 7.1 8l-4 2.5a15.1 15.1 0 0 0-6.7-7 13 13 0 0 0-4.1-1.6 20 20 0 0 0-4.2-.5 17 17 0 0 0-14 6.8c-1.6 2-2.8 4.2-3.6 6.7a24.7 24.7 0 0 0 .2 15.7c1 2.6 2.3 4.9 4 6.9 1.7 2 3.7 3.5 6 4.7a16 16 0 0 0 7.6 1.7 18.8 18.8 0 0 0 8.7-2.2 17.4 17.4 0 0 0 7-7.2l4.1 2.1c-.8 2-2 3.6-3.4 5a22.5 22.5 0 0 1-10.7 6 20.3 20.3 0 0 1-15.6-1.5 27.5 27.5 0 0 1-14.2-24" class="st7"/>
  <path id="polygon32" d="M714 202.5h-18.1v46.4h-5v-46.4h-18.1V198H714v4.5z" class="st7"/>
  <path id="path34" d="M213.4 145.2h-47.7v4c0 4.8 3 7.7 7.7 7.7l31.2-.1c1 0 2 0 2.8-.3 5.8-1.5 6.8-6.3 6-11.3Z" class="st2"/>
  <path id="path36" d="M223.7 86.7a8.7 8.7 0 0 0-6.4-2.6c-2.8 0-5 .9-6.8 2.6a8 8 0 0 0-1.9 2.9h-57.7V182h7.5V97h29v10c0 .6-.2 1.3-.4 1.9l-10.3 29c-.3.9-.6 1.2-1.5 1.1h-9c-.9 0-1.3.5-1.3 1.3s.4 1.3 1.5 1.3h8.5l38.8-.2c1.1 0 1.7-.5 1.7-1.3s-.6-1.2-1.7-1.2h-7.4c-.7 0-1-.2-1.3-.9l-12.3-29-.2-1V97h16.1a8.7 8.7 0 0 0 8.6 5.5 9 9 0 0 0 9.1-9.3 9 9 0 0 0-2.6-6.5Zm-23 52.2H181l8.7-24.7h.3l10.5 24.7Zm19.2-42.5c-.8.9-1.7 1.3-2.8 1.3s-2-.4-2.8-1.3a5 5 0 0 1-1.2-3.3 5 5 0 0 1 1.2-3c.8-.8 1.8-1.2 2.8-1.2s2 .4 2.8 1.3c.8 1 1.2 2 1.2 3.2s-.4 2.1-1.2 3Z" class="st2"/>
  <g id="g42">
    <path id="path38" d="M68.2 165.8H20.4v4c0 4.7 3 7.6 7.7 7.6h31.2c1 0 2 0 2.8-.3 5.8-1.6 6.8-6.3 6-11.3Z" class="st2"/>
    <path id="path40" d="M23.9 110.3a8.8 8.8 0 0 0-8.5-6c-2.8 0-5 1-6.8 2.7S6 111 6 113.6c0 2.4.8 4.6 2.4 6.4 1.7 1.9 4 2.8 6.9 2.8a8.9 8.9 0 0 0 8.2-5h18.6v9.8c0 .7-.2 1.4-.4 2l-10.3 29c-.3.8-.6 1.1-1.5 1.1h-9c-1 0-1.3.4-1.3 1.3s.4 1.3 1.5 1.3l8.5-.1 38.7-.2c1.2 0 1.8-.4 1.7-1.3 0-.8-.4-1.2-1.6-1.2H61c-.7 0-1-.2-1.3-.8-4-9.7-8.2-19.3-12.3-29l-.2-1v-11h29v64.4h7.4v-71.8H24Zm-5.9 6.4a3.6 3.6 0 0 1-5.6 0c-.8-1-1.1-2-1.1-3.3a4 4 0 0 1 1.2-3c.7-.8 1.7-1.2 2.8-1.2s2 .4 2.7 1.3c.8 1 1.2 2 1.2 3.1s-.4 2.3-1.2 3.1Zm37.3 42.8H35.8l8.8-24.8h.2l10.5 24.8Z" class="st2"/>
  </g>
  <path id="path44" d="M105.3 33.5a8.7 8.7 0 0 0-6.5-2.6c-2.7 0-5 .8-6.7 2.5a9 9 0 0 0-2.7 6.7c0 2.4.9 4.5 2.5 6.4.8 1 1.8 1.7 3 2.1v133.5h7.5V48.6c1-.4 2-1 2.8-2 1.8-1.7 2.6-4 2.6-6.6s-.8-4.7-2.6-6.5Zm-3.8 9.7c-.8.9-1.7 1.3-2.8 1.3-1.1 0-2-.4-2.8-1.3a5 5 0 0 1-1.2-3.3 4 4 0 0 1 1.2-3c.8-.8 1.7-1.3 2.8-1.3 1 0 2 .5 2.8 1.4.8.9 1.2 2 1.2 3.1s-.4 2.2-1.2 3Z" class="st2"/>
  <path id="path46" d="M126.5 16.2a9 9 0 0 0-9-9.2c-2.8 0-5 .9-6.8 2.6s-2.6 4-2.6 6.7c0 2.4.8 4.5 2.4 6.3 1 1 2 1.8 3.3 2.2h-.3v157.3h7.5V24.8h-.2a9 9 0 0 0 5.7-8.6Zm-6.4 3.1a3.6 3.6 0 0 1-5.6 0c-.7-.9-1.1-2-1.1-3.2a4 4 0 0 1 1.1-3c.8-.9 1.8-1.3 2.9-1.3 1 0 2 .4 2.7 1.3.8 1 1.2 2 1.2 3.2s-.4 2.2-1.2 3Z" class="st2"/>
  <path id="path48" d="M142.6 55a8.7 8.7 0 0 0-6.5-2.6 9 9 0 0 0-9.4 9.3c0 2.3.8 4.4 2.5 6.3.8 1 1.8 1.7 3 2.1v112h7.5v-112a9 9 0 0 0 5.4-8.6 9 9 0 0 0-2.6-6.5Zm-3.8 9.7c-.8.9-1.8 1.3-2.8 1.3s-2-.5-2.8-1.3a5 5 0 0 1-1.2-3.3 4 4 0 0 1 1.2-3c.8-.8 1.7-1.3 2.8-1.3s2 .5 2.8 1.4c.7.9 1.1 2 1.1 3.1s-.4 2.2-1.1 3Z" class="st2"/>
  <g id="g60">
    <path id="rect50" d="M151 292.4h7.4v26.7H151z" class="st2"/>
    <path id="rect52" d="M76.2 292.4h7.4v26.7h-7.4z" class="st2"/>
    <path id="rect54" d="M94.9 292.4h7.4v26.7h-7.4z" class="st2"/>
    <path id="rect56" d="M113.6 292.4h7.4v26.7h-7.4z" class="st2"/>
    <path id="rect58" d="M132.3 292.4h7.4v26.7h-7.4z" class="st2"/>
  </g>
  <path id="path62" d="M363.1 275a4.2 4.2 0 1 0 0-8.4 4.2 4.2 0 0 0 0 8.3Z" class="st3"/>
  <circle id="circle64" cx="268.5" cy="270.8" r="4.2" class="st3" transform="rotate(-67 268.5 270.8)"/>
  <g id="g80">
    <g id="g70">
      <path id="path66" d="M278 279.4v-17.2h7.6c.8 0 1.5.1 2.2.5.6.3 1.2.7 1.7 1.3.5.5.9 1.1 1.1 1.8a5.7 5.7 0 0 1-.4 5.1c-.5 1-1.3 1.6-2.2 2l3.9 6.5H288l-3.5-5.8h-3.3v5.8H278Zm3.3-8.7h4.2l.9-.3.7-.5.4-1a3.5 3.5 0 0 0 0-2.1l-.5-1-.8-.5a2 2 0 0 0-.8-.2h-4v5.6Z" class="st5"/>
      <path id="path68" d="M306 276.4v3h-12v-17.2h11.8v2.9h-8.4v4.1h7.3v2.7h-7.3v4.5h8.6Z" class="st5"/>
    </g>
    <g id="g76">
      <path id="path72" d="M307.2 270.6a8.9 8.9 0 0 1 2.3-5.8 8.4 8.4 0 0 1 10.3-1.7c1.1.7 2 1.6 2.6 2.7l-2.6 1.8c-.2-.5-.5-1-.8-1.2a4.3 4.3 0 0 0-2.2-1.3h-1.2a4.5 4.5 0 0 0-3.8 1.7 7 7 0 0 0-.9 6c.3.8.7 1.4 1.1 2 .4.5 1 1 1.6 1.3a5.2 5.2 0 0 0 4.5-.1l1-.9c.3-.3.6-.7.8-1.2l2.7 1.6c-.3.6-.7 1.2-1.2 1.7a7.7 7.7 0 0 1-3.7 2l-2.2.3c-1.2 0-2.3-.3-3.3-.8a8.9 8.9 0 0 1-4.4-4.8c-.4-1-.6-2.2-.6-3.3Z" class="st5"/>
      <path id="path74" d="M329.5 262.2h3l6.5 17.2h-3.4L334 275h-6l-1.6 4.3H323l6.5-17.2Zm3.9 10.5L331 266l-2.5 6.7h4.9Z" class="st5"/>
    </g>
    <path id="path78" d="M340.9 279.4v-17.2h7.3c.8 0 1.5.1 2.2.5.7.3 1.2.7 1.7 1.3.5.5.9 1.1 1.1 1.8a5.7 5.7 0 0 1 0 4.2 4 4 0 0 1-1 1.8c-.5.6-1 1-1.7 1.3a5 5 0 0 1-2.2.5h-4v5.7h-3.4Zm3.3-8.7h4a2 2 0 0 0 1.5-.8c.4-.5.6-1.2.6-2 0-.5 0-.8-.2-1.2l-.5-.9a2.2 2.2 0 0 0-1.6-.7h-3.8v5.6Z" class="st5"/>
  </g>
  <g id="g100">
    <path id="path82" d="M433 279c-.3 0-.6 0-.8-.3-.3-.3-.4-.6-.4-1s0-.7.3-1c.3-.3.6-.4 1-.4s.6.1.9.4c.3.3.4.6.4 1a1.3 1.3 0 0 1-1.3 1.3Z" class="st6"/>
    <g id="g98">
      <path id="path84" d="M385 274.6a3.7 3.7 0 0 1-1.5 3.1 5 5 0 0 1-1.5.8c-.6.2-1.3.3-2 .3h-7.4v-16.2h8.3c.5 0 1 .1 1.4.4.5.2.8.6 1.1 1 .4.3.6.8.8 1.3a4.5 4.5 0 0 1-.4 3.7 3 3 0 0 1-1.6 1.5 4 4 0 0 1 2 1.5c.6.7.9 1.6.9 2.6Zm-9.4-9.3v4.1h4c.5 0 1-.2 1.3-.6.4-.3.5-.8.5-1.5s-.1-1-.4-1.4c-.4-.4-.8-.6-1.3-.6h-4.1Zm6.4 8.8a2.5 2.5 0 0 0-.5-1.6l-.6-.4c-.2-.2-.4-.2-.7-.2h-4.6v4.2h4.5a1.8 1.8 0 0 0 1.4-.6l.4-.6.1-.9Z" class="st6"/>
      <path id="path86" d="M394.5 279c-1.1 0-2.2-.3-3.1-.8a6 6 0 0 1-2.4-1.8 8.8 8.8 0 0 1-1.5-8.8c.4-1 1-1.8 1.6-2.6.7-.8 1.5-1.4 2.4-1.8a6.9 6.9 0 0 1 6.1 0c1 .5 1.8 1.2 2.4 2a8.6 8.6 0 0 1 2 5.6 8.5 8.5 0 0 1-2 5.7c-.7.7-1.5 1.3-2.4 1.8a8 8 0 0 1-3 .6Zm-4.5-8.3c0 .7 0 1.4.3 2 .2.7.5 1.3.9 1.8s.9.9 1.4 1.2c.6.3 1.2.5 2 .5s1.3-.2 1.9-.5a5.5 5.5 0 0 0 2.3-3 6.6 6.6 0 0 0 0-4l-1-1.7c-.4-.5-.8-1-1.4-1.2a4.1 4.1 0 0 0-5.3 1.3 6.6 6.6 0 0 0-1.2 3.7Z" class="st6"/>
      <path id="path88" d="M415.7 265.4h-5v13.4h-3v-13.4h-4.9v-2.8h13v2.8Z" class="st6"/>
      <path id="path90" d="M427.3 266.8a6.4 6.4 0 0 0-1.6-1l-1.2-.4a5 5 0 0 0-1.4-.1c-.9 0-1.5.1-1.9.5-.4.3-.6.7-.6 1.3 0 .3.1.6.3.8.1.3.4.5.7.6l1 .5c.5 0 1 .2 1.6.4l2 .6c.7.2 1.2.5 1.7 1a3.8 3.8 0 0 1 1.4 3 5 5 0 0 1-.5 2.3c-.3.6-.7 1.1-1.2 1.5-.6.4-1.2.7-1.9.9a11 11 0 0 1-8.7-1.7l1.3-2.8.7.6a9.8 9.8 0 0 0 2.8 1.1l1.8.3c1.6 0 2.5-.6 2.4-1.8 0-.3 0-.6-.3-.8-.1-.3-.4-.5-.8-.7l-1.2-.4-1.7-.5-2-.7a5 5 0 0 1-1.3-.9c-.4-.3-.7-.7-.9-1.1a5.3 5.3 0 0 1 .1-3.8 4 4 0 0 1 1.2-1.6c.6-.5 1.2-.8 1.8-1a8.2 8.2 0 0 1 5.2.1c1 .3 1.8.8 2.5 1.2l-1.3 2.6Z" class="st6"/>
      <path id="path92" d="M438.2 278.8v-16.2h1.5v14.8h9v1.4h-10.5Z" class="st6"/>
      <path id="path94" d="M456.2 262.6h1.3l6.4 16.2h-1.6l-2-5h-7l-2 5h-1.6l6.5-16.2Zm3.7 9.9-3.1-8-3.2 8h6.3Z" class="st6"/>
      <path id="path96" d="M471 262.7h1.5l2.2 5.8 2.2-5.8h1.5l-2.7 7 3 7.3 5.6-14.4h1.6l-6.6 16.2H478l-3.3-8-3.3 8h-1.3l-6.6-16.2h1.7l5.6 14.4 3-7.3-2.7-7Z" class="st6"/>
    </g>
  </g>
  <g id="g132">
    <g id="g110">
      <path id="path102" d="M75.5 270.6a9.1 9.1 0 0 1 2.2-5.8 7.9 7.9 0 0 1 6.1-2.7 7.2 7.2 0 0 1 6.6 3.7l-2.6 1.8c-.2-.5-.4-.9-.8-1.2a4.2 4.2 0 0 0-2.1-1.2l-1.2-.2a4.3 4.3 0 0 0-3.6 1.9c-.4.5-.7 1.1-1 1.8a7 7 0 0 0 .1 4.2 7 7 0 0 0 1 1.9 4.2 4.2 0 0 0 3.6 1.7 5 5 0 0 0 2.3-.6l1-.8c.4-.3.6-.7.8-1.2l2.7 1.6a6.6 6.6 0 0 1-2.8 2.9 8.4 8.4 0 0 1-4 1c-1.3 0-2.4-.2-3.4-.7a8.8 8.8 0 0 1-4.3-4.9 9 9 0 0 1-.6-3.2Z" class="st1"/>
      <path id="path104" d="M100 279.5a8.2 8.2 0 0 1-6-2.7 9 9 0 0 1-2.3-6 9 9 0 0 1 5-8c1-.5 2.1-.7 3.3-.7s2.3.2 3.3.7a8.4 8.4 0 0 1 4.3 4.8 9 9 0 0 1-1.8 9.2 7.6 7.6 0 0 1-5.9 2.6Zm-5-8.7c0 .7.2 1.4.4 2.1a4 4 0 0 0 1 1.8c.4.6.9 1 1.5 1.3.6.3 1.3.5 2 .5a4.5 4.5 0 0 0 3.7-1.8 6 6 0 0 0 1-1.9 7 7 0 0 0 0-4.2 6 6 0 0 0-1-1.8 4.8 4.8 0 0 0-3.6-1.8 5 5 0 0 0-2.1.5c-.7.3-1.2.8-1.6 1.3l-1 1.9-.2 2Z" class="st1"/>
      <path id="path106" d="M117.8 276.5c.7 0 1.4-.1 1.9-.5.5-.3 1-.7 1.3-1.2l.7-1.8.2-2v-8.8h3.2v8.7a13 13 0 0 1-.4 3.3 9 9 0 0 1-1.3 2.8 6.8 6.8 0 0 1-5.6 2.5c-1.3 0-2.5-.3-3.4-.7-1-.5-1.7-1.1-2.3-2-.6-.7-1-1.6-1.3-2.7a13 13 0 0 1-.4-3.2v-8.7h3.3v8.7c0 .8 0 1.4.2 2.1.1.7.4 1.3.7 1.8.3.5.7 1 1.3 1.2s1.1.5 1.9.5Z" class="st1"/>
      <path id="path108" d="M128.4 279.4v-17.2h7.4c.8 0 1.5.2 2.2.5a7 7 0 0 1 1.7 1.3 6.2 6.2 0 0 1 1.5 4c0 1-.3 2-.8 3-.6.8-1.3 1.5-2.3 2l3.9 6.4h-3.7l-3.4-5.8h-3.2v5.8h-3.3Zm3.3-8.7h4l.9-.2.7-.6.4-1a3.5 3.5 0 0 0 0-2.1 3 3 0 0 0-.5-.9l-.8-.6-.8-.2h-4v5.6Z" class="st1"/>
    </g>
    <path id="path112" d="M156.3 265.1h-5.4v14.2h-3.3v-14.2h-5.3v-3h14v3Z" class="st1"/>
    <g id="g130">
      <path id="path114" d="M159.4 279.4v-17.2h1.7v15.7h9.7v1.5h-11.4Z" class="st1"/>
      <path id="path116" d="M172 279.4v-17.2h1.7v17.2H172Z" class="st1"/>
      <path id="path118" d="M186.5 265.4a5 5 0 0 0-1.9-1.3 6 6 0 0 0-2.7-.5c-1.5 0-2.5.2-3.2.8a3 3 0 0 0-1 2.4c0 .5 0 .9.2 1.2l.9.9 1.4.6 2.1.5 2.4.7c.8.2 1.4.5 1.9.9s.9.8 1.1 1.3c.3.5.4 1.2.4 2s-.1 1.4-.4 2c-.3.6-.7 1-1.3 1.4-.5.4-1.1.7-1.9 1l-2.4.2c-2.6 0-4.9-.8-6.8-2.5l.9-1.4a6.7 6.7 0 0 0 2.4 1.7 8.5 8.5 0 0 0 3.5.7c1.4 0 2.4-.3 3.1-.8.8-.4 1.2-1.2 1.2-2.2 0-.5-.1-1-.4-1.3-.2-.4-.5-.7-1-1l-1.5-.7-2.2-.5a28 28 0 0 1-2.3-.7c-.7-.2-1.2-.5-1.7-.8a3 3 0 0 1-1-1.3 5 5 0 0 1 .1-3.9c.3-.6.7-1 1.2-1.5l1.9-1c.7-.1 1.5-.3 2.4-.3a8 8 0 0 1 5.4 2l-.8 1.4Z" class="st1"/>
      <path id="path120" d="M201.8 263.7h-6v15.6h-1.7v-15.6h-6v-1.5h13.7v1.5Z" class="st1"/>
      <path id="path122" d="M214.4 277.9v1.5H203v-17.2h11v1.5h-9.3v6.2h8.2v1.4h-8.2v6.6h9.6Z" class="st1"/>
      <path id="path124" d="M218 265.3v14h-1.7v-17.1h1.3l11.1 14.3v-14.3h1.7v17.2H229l-11-14Z" class="st1"/>
      <path id="path126" d="M244.7 277.9v1.5h-11.3v-17.2h11v1.5h-9.3v6.2h8.2v1.4H235v6.6h9.6Z" class="st1"/>
      <path id="path128" d="M246.6 279.4v-17.2h7.1c.8 0 1.4.2 2 .5.6.3 1.2.7 1.6 1.2a5.8 5.8 0 0 1 1.1 5.5c-.1.6-.4 1-.7 1.5a4.5 4.5 0 0 1-2.7 1.8l4 6.7h-1.8l-4-6.4h-5v6.4h-1.6Zm1.7-7.9h5.5c.5 0 .9-.1 1.3-.3.4-.2.8-.5 1-.9a4.4 4.4 0 0 0 0-5.5c-.4-.3-.7-.6-1.2-.8-.4-.2-.8-.3-1.3-.3h-5.3v7.8Z" class="st1"/>
    </g>
  </g>
  <path id="path134" d="M495.4 275a4.2 4.2 0 1 0 0-8.4 4.2 4.2 0 0 0 0 8.3Z" class="st3"/>
  <g id="g172">
    <path id="path136" d="M512 273.2c0 4.2-1.7 5.8-5.1 5.8l-2-.1v-2.7l1.5.2c1.7 0 2.5-1 2.5-3V263h3v10.2Z" class="st4"/>
    <path id="path138" d="M517.7 263v8.9c0 3.6 1.8 4.5 3.7 4.5 2.1 0 3.5-1 3.5-4.5v-9h3v9c0 5-2.4 7.1-6.6 7.1s-6.7-2-6.7-7v-9h3Z" class="st4"/>
    <path id="path140" d="M532.6 274c.5 1.6 1.6 2.6 4.1 2.6s3.3-1 3.3-2c0-1.3-.7-2-4-2.6-4.8-1-5.8-2.6-5.8-4.7 0-3 2.7-4.6 6-4.6 5 0 6.2 2.7 6.3 4.4h-3c-.2-.8-.8-2-3.4-2-1.8 0-2.8.6-2.8 1.8 0 1 .6 1.6 3.5 2.2 5.4 1 6.3 2.8 6.3 5 0 2.7-2 5-6.6 5-4.4 0-6.5-2.2-7-5h3.1Z" class="st4"/>
    <path id="path142" d="M548.8 265.6h-5.3V263H557v2.6h-5.2v13.1h-3v-13Z" class="st4"/>
    <path id="path144" d="M561.4 263v15.7h-3V263h3Z" class="st4"/>
    <path id="path146" d="M578.2 273.8c-.7 2.8-2.7 5.2-7 5.2-5.1 0-7.7-3.8-7.7-8.1s2.8-8.3 7.8-8.3c4.4 0 6.5 2.6 7 5.3h-3.1c-.4-1.2-1.4-2.7-4-2.7-2.9 0-4.5 2.4-4.5 5.5s1.6 5.7 4.6 5.7c2.3 0 3.2-1 3.9-2.6h3Z" class="st4"/>
    <path id="path148" d="M591.5 271.9h-8.2v4.1h9.1l-.3 2.7h-11.9V263H592v2.7h-8.7v3.5h8.2v2.7Z" class="st4"/>
    <path id="path150" d="M601.1 262.8v15.9h-1.6v-15.9h1.6Z" class="st4"/>
    <path id="path152" d="M604.4 278.7v-15.9h2c3 4.5 8.6 12.2 9.4 13.7V263h1.5v15.8h-1.9c-2.4-3.4-8.4-12.1-9.5-14v14.1h-1.5Z" class="st4"/>
    <path id="path154" d="M622.3 262.8v15.9h-1.7v-15.9h1.7Z" class="st4"/>
    <path id="path156" d="M629.5 264.4h-5.7V263h13v1.5h-5.7v14.3h-1.7v-14.3Z" class="st4"/>
    <path id="path158" d="M640 262.8v15.9h-1.7v-15.9h1.7Z" class="st4"/>
    <path id="path160" d="m645.3 273.6-2 5.1h-1.8l6.4-15.9h2l6.6 16h-1.8l-2.2-5.2h-7.2Zm6.6-1.6c-1.9-4.6-2.8-6.7-3-7.8h-.1l-3 7.8h6.1Z" class="st4"/>
    <path id="path162" d="M659.8 264.4H654V263h13v1.5h-5.7v14.3h-1.7v-14.3Z" class="st4"/>
    <path id="path164" d="M670.3 262.8v15.9h-1.7v-15.9h1.7Z" class="st4"/>
    <path id="path166" d="m678.3 278.7-6.5-15.9h1.8l3.5 8.8 2.1 5.4 2-4.9 3.7-9.3h1.8l-6.6 16h-1.8Z" class="st4"/>
    <path id="path168" d="M698.9 271.1h-9v6h9.9l-.3 1.6h-11.2v-15.9h11v1.6H690v5.2h9v1.5Z" class="st4"/>
    <path id="path170" d="M702.2 274.1c.6 2 1.9 3.4 4.9 3.4s4.3-1.3 4.3-2.9c0-1.7-.9-2.8-4.8-3.5-4.2-.7-5.3-2.2-5.3-4.3 0-2.7 2.3-4.3 5.4-4.3 4.7 0 5.8 2.7 6 4.2h-1.8c-.3-1.1-1-2.7-4.2-2.7-2.2 0-3.7.8-3.7 2.6 0 1.4.6 2.3 4 3 5.3.9 6 2.7 6 4.8 0 2.5-1.7 4.6-6 4.6-4 0-6-2-6.5-4.9h1.7Z" class="st4"/>
  </g>
</svg>
