<svg xmlns="http://www.w3.org/2000/svg" xmlns:xlink="http://www.w3.org/1999/xlink" x="0" y="0" version="1.1" viewBox="0 0 216 216" style="enable-background:new 0 0 216 216" xml:space="preserve"><style type="text/css">.st0{fill:#848482}.st1{fill:#673468}.st2{fill:#848582}.st3{fill:#636}</style><g id="Layer_3"><path d="M81.88,186.75l-0.62,1.59l-1.42-3.88h-1.04l2.02,4.99h0.81l0.86-2.09l0.86,2.09h0.81l2.03-4.99h-1.05 l-1.41,3.88l-0.63-1.59l0.85-2.27h-0.9l-0.56,1.65l-0.56-1.65h-0.89L81.88,186.75z M75.6,187.53l0.72-1.96l0.69,1.96H75.6z M73.99,189.45h1l0.46-1.24h1.74l0.46,1.24h1l-1.9-4.99h-0.86L73.99,189.45z M73.16,189.45v-0.85h-2.54v-4.14h-0.97v4.99H73.16z M68.09,188.44h-0.77v1.01h0.77V188.44z M63.41,188.6v-1.3h2.1v-0.79h-2.1v-1.2h2.43v-0.85h-3.4v4.99h3.46v-0.85H63.41z M58.57,188.6v-1.3h2.1v-0.79h-2.1v-1.2H61v-0.85h-3.4v4.99h3.46v-0.85H58.57z M53.34,185.32h1.17c0.08,0,0.17,0.02,0.25,0.06 c0.08,0.04,0.15,0.1,0.22,0.17c0.06,0.07,0.11,0.16,0.15,0.26c0.04,0.1,0.06,0.21,0.06,0.32c0,0.11-0.02,0.22-0.05,0.32 c-0.03,0.1-0.08,0.18-0.13,0.26c-0.06,0.07-0.12,0.13-0.2,0.17c-0.08,0.04-0.16,0.06-0.25,0.06h-1.21V185.32z M53.34,189.45v-1.67 h0.95l1.02,1.67h1.09l-1.14-1.88c0.28-0.12,0.5-0.31,0.66-0.57c0.16-0.26,0.24-0.56,0.24-0.88c0-0.2-0.04-0.4-0.12-0.6 c-0.08-0.2-0.19-0.38-0.33-0.53c-0.14-0.16-0.31-0.28-0.5-0.38c-0.19-0.1-0.41-0.14-0.64-0.14h-2.21v4.99H53.34z M48.81,189.45 v-2.06h1.98v-0.79h-1.98v-1.28h2.38v-0.85h-3.35v4.99H48.81z" class="st0"/></g><g id="Layer_4"><path d="M66.66,133.67v-23.93h10.58c1.1,0,2.12,0.23,3.05,0.69c0.93,0.46,1.74,1.07,2.41,1.82 c0.67,0.75,1.2,1.61,1.58,2.56c0.38,0.96,0.57,1.92,0.57,2.88c0,1.55-0.39,2.96-1.16,4.23c-0.77,1.27-1.83,2.19-3.15,2.75l5.46,9 h-5.22l-4.89-8.02h-4.58v8.02H66.66z M71.31,121.57h5.83c0.43,0,0.83-0.1,1.2-0.3s0.69-0.48,0.96-0.83 c0.27-0.35,0.48-0.76,0.64-1.23c0.16-0.47,0.24-0.98,0.24-1.52c0-0.56-0.09-1.08-0.27-1.55c-0.18-0.47-0.42-0.88-0.72-1.23 c-0.3-0.35-0.65-0.62-1.05-0.81c-0.39-0.19-0.79-0.29-1.2-0.29h-5.63V121.57z" class="st1"/><polygon points="105.69 129.59 105.69 133.67 89.07 133.67 89.07 109.74 105.38 109.74 105.38 113.82 93.72 113.82 93.72 119.59 103.8 119.59 103.8 123.36 93.72 123.36 93.72 129.59" class="st1"/><polygon points="125.94 129.59 125.94 133.67 109.33 133.67 109.33 109.74 125.64 109.74 125.64 113.82 113.98 113.82 113.98 119.59 124.06 119.59 124.06 123.36 113.98 123.36 113.98 129.59" class="st1"/><polygon points="137.67 133.67 137.67 109.74 142.32 109.74 142.32 129.59 154.52 129.59 154.52 133.67" class="st1"/><path d="M164.16,109.74h4.11l9.1,23.93h-4.79l-2.22-5.97H162l-2.19,5.97h-4.79L164.16,109.74z M169.52,124.44l-3.3-9.4 l-3.44,9.4H169.52z" class="st1"/><polygon points="183.84 109.81 188.12 109.81 190.82 117.73 193.51 109.81 197.83 109.81 193.75 120.7 196.78 128.35 203.56 109.74 208.61 109.74 198.87 133.67 194.96 133.67 190.82 123.63 186.67 133.67 182.76 133.67 173.09 109.74 178.08 109.74 184.89 128.35 187.85 120.7" class="st1"/><polygon points="47.32 133.67 47.32 109.74 63.39 109.74 63.39 113.82 51.97 113.82 51.97 119.99 61.47 119.99 61.47 123.76 51.97 123.76 51.97 133.67" class="st1"/><g><path d="M47.32,162.76v-23.93h9.91c1.03,0,1.98,0.22,2.85,0.66c0.86,0.44,1.61,1.01,2.24,1.72 c0.63,0.71,1.12,1.51,1.48,2.41c0.36,0.9,0.54,1.81,0.54,2.73c0,0.99-0.17,1.94-0.51,2.85c-0.34,0.91-0.81,1.71-1.42,2.41 c-0.61,0.7-1.33,1.26-2.17,1.69c-0.84,0.43-1.78,0.64-2.81,0.64h-7.75v8.83H47.32z M49.67,151.84h7.65c0.7,0,1.33-0.15,1.9-0.46 c0.57-0.3,1.06-0.71,1.47-1.21c0.4-0.51,0.72-1.09,0.94-1.75c0.22-0.66,0.34-1.35,0.34-2.07c0-0.74-0.13-1.44-0.39-2.11 c-0.26-0.66-0.61-1.24-1.04-1.74c-0.44-0.49-0.96-0.88-1.55-1.16c-0.6-0.28-1.22-0.42-1.87-0.42h-7.45V151.84z" class="st2"/><path d="M66.59,162.76v-23.93H76.7c1.03,0,1.98,0.22,2.85,0.66c0.86,0.44,1.61,1.01,2.24,1.72 c0.63,0.71,1.12,1.51,1.47,2.41c0.35,0.9,0.52,1.81,0.52,2.73c0,0.88-0.13,1.71-0.39,2.51c-0.26,0.8-0.62,1.52-1.08,2.16 c-0.46,0.64-1.02,1.18-1.67,1.62c-0.65,0.44-1.38,0.74-2.19,0.89l5.86,9.23h-2.66l-5.63-8.83h-7.08v8.83H66.59z M68.95,151.84 h7.82c0.7,0,1.33-0.15,1.9-0.46c0.57-0.3,1.06-0.71,1.47-1.23c0.4-0.52,0.72-1.1,0.94-1.75c0.22-0.65,0.34-1.34,0.34-2.06 c0-0.72-0.13-1.41-0.39-2.07c-0.26-0.66-0.61-1.24-1.05-1.74c-0.44-0.49-0.95-0.89-1.55-1.18c-0.6-0.29-1.22-0.44-1.87-0.44h-7.62 V151.84z" class="st2"/><path d="M96.55,162.93c-1.66,0-3.18-0.34-4.57-1.03c-1.38-0.68-2.57-1.59-3.56-2.73c-0.99-1.13-1.75-2.43-2.29-3.89 c-0.54-1.46-0.81-2.95-0.81-4.48c0-1.6,0.29-3.12,0.86-4.58c0.57-1.46,1.36-2.75,2.38-3.88c1.01-1.12,2.2-2.02,3.57-2.68 c1.37-0.66,2.85-0.99,4.45-0.99c1.66,0,3.18,0.35,4.57,1.06c1.38,0.71,2.56,1.63,3.54,2.78c0.98,1.15,1.74,2.44,2.28,3.89 c0.54,1.45,0.81,2.93,0.81,4.43c0,1.6-0.29,3.12-0.86,4.58c-0.57,1.46-1.36,2.75-2.36,3.86c-1,1.11-2.19,2-3.56,2.66 C99.63,162.59,98.15,162.93,96.55,162.93 M87.69,150.79c0,1.3,0.21,2.56,0.64,3.76c0.43,1.2,1.03,2.27,1.82,3.2 c0.79,0.93,1.72,1.67,2.8,2.22c1.08,0.55,2.28,0.83,3.61,0.83c1.35,0,2.57-0.29,3.67-0.88c1.1-0.58,2.03-1.35,2.8-2.29 c0.76-0.94,1.35-2.01,1.77-3.2c0.42-1.19,0.62-2.4,0.62-3.64c0-1.3-0.22-2.56-0.66-3.76c-0.44-1.2-1.05-2.26-1.84-3.18 c-0.79-0.92-1.72-1.66-2.8-2.21c-1.08-0.55-2.27-0.83-3.57-0.83c-1.35,0-2.57,0.29-3.67,0.86c-1.1,0.57-2.03,1.33-2.8,2.28 c-0.76,0.94-1.35,2.01-1.77,3.2C87.9,148.34,87.69,149.56,87.69,150.79" class="st2"/><path d="M107.51,159.76c0.49,0.34,1.13,0.63,1.9,0.88c0.77,0.25,1.65,0.37,2.61,0.37c1.21,0,2.18-0.22,2.92-0.66 c0.73-0.44,1.29-1.08,1.67-1.94c0.38-0.85,0.63-1.9,0.74-3.15c0.11-1.25,0.17-2.67,0.17-4.26v-12.17h2.36V151 c0,1.82-0.08,3.48-0.25,4.97c-0.17,1.49-0.52,2.77-1.06,3.82c-0.54,1.06-1.33,1.88-2.36,2.46c-1.03,0.58-2.43,0.88-4.18,0.88 c-2.02,0-3.75-0.49-5.19-1.48L107.51,159.76z" class="st2"/><polygon points="139.97 160.67 139.97 162.76 123.89 162.76 123.89 138.83 139.66 138.83 139.66 140.92 126.25 140.92 126.25 149.55 137.94 149.55 137.94 151.53 126.25 151.53 126.25 160.67" class="st2"/><path d="M140.64,150.63c0-1.44,0.25-2.87,0.76-4.3c0.51-1.43,1.24-2.7,2.21-3.83c0.97-1.12,2.16-2.04,3.57-2.75 c1.42-0.71,3.02-1.06,4.82-1.06c2.13,0,3.96,0.48,5.48,1.45c1.52,0.97,2.63,2.22,3.35,3.77l-1.85,1.15 c-0.38-0.79-0.85-1.45-1.4-1.99c-0.55-0.54-1.14-0.98-1.77-1.31c-0.63-0.34-1.28-0.58-1.95-0.73c-0.67-0.15-1.34-0.22-1.99-0.22 c-1.44,0-2.71,0.29-3.81,0.88c-1.1,0.58-2.03,1.35-2.78,2.29c-0.75,0.94-1.32,2-1.7,3.18c-0.38,1.18-0.57,2.38-0.57,3.59 c0,1.33,0.23,2.6,0.69,3.81c0.46,1.21,1.09,2.29,1.89,3.22c0.8,0.93,1.74,1.67,2.83,2.22c1.09,0.55,2.28,0.82,3.56,0.82 c0.67,0,1.36-0.08,2.07-0.25c0.71-0.17,1.39-0.44,2.06-0.81c0.66-0.37,1.27-0.83,1.84-1.38c0.56-0.55,1.03-1.22,1.42-2l1.96,1.01 c-0.38,0.9-0.92,1.69-1.62,2.38c-0.7,0.69-1.47,1.26-2.33,1.74c-0.85,0.47-1.76,0.83-2.71,1.08c-0.96,0.25-1.89,0.37-2.81,0.37 c-1.64,0-3.15-0.36-4.52-1.08s-2.55-1.66-3.54-2.81c-0.99-1.16-1.76-2.47-2.31-3.94C140.91,153.65,140.64,152.15,140.64,150.63" class="st2"/><polygon points="180.41 140.92 171.88 140.92 171.88 162.76 169.52 162.76 169.52 140.92 160.99 140.92 160.99 138.83 180.41 138.83" class="st2"/></g></g><g id="Layer_2"><g><path d="M108,4.02c57.33,0,103.98,46.64,103.98,103.97S165.33,211.98,108,211.98S4.03,165.33,4.03,108 S50.67,4.02,108,4.02 M108,0C48.35,0,0,48.35,0,108s48.35,108,108,108s108-48.35,108-108S167.65,0,108,0L108,0z" class="st3"/></g></g><g id="Layer_5"><g><path d="M112.53,86.7H90.08v1.85c0.01,2.24,1.38,3.62,3.61,3.62c4.89-0.01,9.77-0.02,14.67-0.03 c0.44-0.01,0.91-0.02,1.34-0.14C112.4,91.28,112.9,89.05,112.53,86.7z" class="st2"/><path d="M117.35,59.17c-0.81-0.82-1.82-1.23-3.02-1.23c-1.3,0-2.36,0.4-3.18,1.21c-0.4,0.39-0.7,0.84-0.9,1.35H83.12 v43.53h3.52V64.03h13.63c0,1.57,0,3.14-0.02,4.71c-0.01,0.3-0.05,0.63-0.15,0.91c-1.61,4.56-3.24,9.11-4.83,13.66 c-0.14,0.4-0.31,0.53-0.71,0.52c-1.41-0.02-2.81,0-4.2,0.01c-0.47,0-0.65,0.18-0.65,0.6s0.21,0.61,0.7,0.6 c1.34,0,2.68-0.03,4.02-0.04c6.07-0.02,12.13-0.05,18.21-0.08c0.55,0,0.81-0.21,0.8-0.61c-0.01-0.4-0.24-0.57-0.78-0.57 c-1.16,0-2.31,0-3.46,0.02c-0.34,0.01-0.49-0.1-0.62-0.41c-1.93-4.55-3.86-9.09-5.78-13.64c-0.06-0.14-0.1-0.29-0.1-0.44v-5.23 h7.56c0.18,0.44,0.45,0.87,0.8,1.27c0.77,0.87,1.84,1.31,3.23,1.31c1.22,0,2.25-0.41,3.07-1.25c0.81-0.82,1.22-1.85,1.22-3.11 C118.57,61.03,118.16,60.01,117.35,59.17z M106.49,83.73h-9.2c1.38-3.88,2.75-7.77,4.13-11.65h0.12 C103.19,75.94,104.82,79.8,106.49,83.73z M115.56,63.73c-0.37,0.41-0.8,0.62-1.3,0.62c-0.52,0-0.96-0.21-1.33-0.63 c-0.37-0.42-0.55-0.93-0.55-1.53c0-0.55,0.19-1.02,0.56-1.41c0.37-0.4,0.81-0.6,1.32-0.6c0.5,0,0.93,0.22,1.3,0.63 c0.37,0.42,0.55,0.91,0.55,1.47C116.11,62.85,115.93,63.32,115.56,63.73z" class="st2"/><path d="M43.84,96.38H21.39c0,0.67-0.01,1.26,0,1.84c0,2.24,1.38,3.62,3.6,3.62c4.89-0.01,9.78-0.02,14.67-0.03 c0.44,0,0.91-0.02,1.34-0.14C43.69,100.96,44.19,98.72,43.84,96.38z" class="st2"/><path d="M23,70.27c-0.21-0.57-0.53-1.09-0.97-1.55c-0.82-0.82-1.83-1.23-3.03-1.23c-1.29,0-2.35,0.4-3.17,1.21 s-1.23,1.86-1.23,3.14c0,1.13,0.38,2.12,1.15,3c0.77,0.87,1.84,1.31,3.23,1.31c1.22,0,2.24-0.41,3.07-1.23 c0.34-0.35,0.6-0.72,0.8-1.13h8.73c0,1.54,0,3.09-0.02,4.63c0,0.3-0.05,0.63-0.15,0.91c-1.6,4.56-3.23,9.1-4.83,13.66 c-0.14,0.4-0.3,0.52-0.71,0.52c-1.4-0.02-2.81,0-4.2,0.01c-0.45,0-0.65,0.18-0.65,0.6c0.01,0.41,0.22,0.6,0.72,0.6 c1.33-0.01,2.68-0.03,4.01-0.04c6.07-0.03,12.14-0.05,18.21-0.08c0.56-0.01,0.81-0.21,0.8-0.62c0-0.39-0.23-0.56-0.78-0.56 c-1.15,0-2.31-0.01-3.46,0.02c-0.32,0-0.49-0.1-0.62-0.41c-1.92-4.55-3.86-9.09-5.78-13.64c-0.05-0.14-0.1-0.3-0.1-0.46 c0-1.7,0-3.42,0.01-5.13h13.61v30.24l3.52,0V70.27H23z M20.24,73.28c-0.38,0.41-0.8,0.62-1.3,0.62c-0.52,0-0.96-0.21-1.33-0.63 c-0.37-0.42-0.55-0.93-0.55-1.53c0-0.54,0.18-1.02,0.56-1.41c0.37-0.39,0.81-0.6,1.32-0.6c0.5,0,0.92,0.22,1.3,0.63 c0.37,0.42,0.55,0.91,0.55,1.47C20.79,72.39,20.61,72.88,20.24,73.28z M37.8,93.4h-9.2c1.38-3.88,2.75-7.77,4.13-11.65 c0.03,0,0.08,0,0.12-0.01C34.49,85.61,36.12,89.47,37.8,93.4z" class="st2"/><path d="M61.34,34.13c-0.81-0.82-1.82-1.23-3.02-1.23c-1.29,0-2.35,0.4-3.17,1.21c-0.83,0.81-1.25,1.86-1.25,3.14 c0,1.13,0.39,2.12,1.16,3c0.39,0.44,0.87,0.78,1.42,0.99v62.8H60v-62.8c0.5-0.21,0.94-0.51,1.34-0.92 c0.82-0.82,1.22-1.85,1.22-3.11C62.57,35.98,62.16,34.96,61.34,34.13z M59.55,38.69c-0.37,0.41-0.8,0.62-1.29,0.62 c-0.52,0-0.96-0.21-1.33-0.63c-0.37-0.42-0.55-0.93-0.55-1.53c0-0.55,0.18-1.02,0.55-1.41c0.37-0.4,0.81-0.6,1.33-0.6 c0.49,0,0.92,0.22,1.29,0.63c0.38,0.42,0.56,0.91,0.56,1.47C60.12,37.8,59.93,38.28,59.55,38.69z" class="st2"/><path d="M71.46,25.97c0-1.22-0.41-2.25-1.22-3.08c-0.82-0.83-1.83-1.25-3.03-1.25c-1.29,0-2.35,0.41-3.17,1.22 c-0.82,0.81-1.23,1.85-1.23,3.13c0,1.14,0.38,2.13,1.15,3c0.41,0.48,0.92,0.81,1.52,1.03h-0.1v74h3.52v-74h-0.12 c0.55-0.2,1.04-0.52,1.47-0.95C71.05,28.26,71.46,27.22,71.46,25.97z M68.45,27.45c-0.38,0.41-0.81,0.61-1.3,0.61 c-0.52,0-0.96-0.21-1.33-0.63c-0.37-0.41-0.55-0.92-0.55-1.52c0-0.55,0.18-1.02,0.55-1.42c0.38-0.39,0.81-0.58,1.33-0.58 c0.49,0,0.92,0.21,1.3,0.63C68.82,24.96,69,25.45,69,26C69,26.57,68.82,27.04,68.45,27.45z" class="st2"/><path d="M79.17,44.25C78.36,43.42,77.34,43,76.14,43c-1.29,0-2.35,0.41-3.17,1.22s-1.23,1.85-1.23,3.14 c0,1.13,0.38,2.12,1.15,3c0.39,0.44,0.87,0.77,1.42,0.99v52.68h3.52V51.35c0.5-0.21,0.95-0.52,1.35-0.92 c0.81-0.82,1.22-1.86,1.22-3.11C80.4,46.1,79.98,45.07,79.17,44.25z M77.39,48.81c-0.37,0.41-0.8,0.62-1.3,0.62 c-0.52,0-0.96-0.22-1.33-0.63c-0.37-0.42-0.55-0.93-0.55-1.53c0-0.55,0.18-1.02,0.56-1.41c0.37-0.4,0.81-0.6,1.32-0.6 c0.5,0,0.93,0.21,1.3,0.63c0.37,0.42,0.55,0.91,0.55,1.47C77.94,47.92,77.75,48.39,77.39,48.81z" class="st2"/></g><g><rect width="3.52" height="12.58" x="83.12" y="169.05" class="st2"/><rect width="3.52" height="12.58" x="47.61" y="169.05" class="st2"/><rect width="3.52" height="12.58" x="56.48" y="169.05" class="st2"/><rect width="3.52" height="12.58" x="65.36" y="169.05" class="st2"/><rect width="3.52" height="12.58" x="74.3" y="169.05" class="st2"/></g></g></svg>