<svg xmlns="http://www.w3.org/2000/svg" xmlns:xlink="http://www.w3.org/1999/xlink" id="Layer_1" x="0" y="0" version="1.1" viewBox="0 0 2000 2000" style="enable-background:new 0 0 2000 2000" xml:space="preserve"><style type="text/css">.st0{fill:#999}.st1{fill:#2c3e50}.st2{fill:#fff}</style><g><g><g><path d="M770.05,929.69c-5.76,0-11.19-2.23-15.28-6.29c-4.12-4.08-6.41-9.53-6.44-15.33 c-0.01-2.37,1.9-4.29,4.26-4.3c0.01,0,0.01,0,0.02,0c2.35,0,4.27,1.9,4.28,4.26c0.02,3.51,1.4,6.81,3.9,9.29 c2.5,2.47,5.78,3.78,9.33,3.81l48.95-0.24c0.01,0,0.01,0,0.02,0c2.35,0,4.27,1.9,4.28,4.26c0.01,2.36-1.9,4.29-4.26,4.3 l-48.95,0.24C770.12,929.69,770.09,929.69,770.05,929.69z" class="st0"/></g><g><path d="M752.33,854.99c-2.35,0-4.27-1.9-4.28-4.26c-0.03-5.8,2.2-11.27,6.29-15.39c4.08-4.12,9.53-6.41,15.33-6.44 l48.95-0.24c0.01,0,0.01,0,0.02,0c2.35,0,4.27,1.9,4.28,4.26c0.01,2.36-1.9,4.29-4.26,4.3l-48.95,0.24 c-3.52,0.02-6.81,1.4-9.29,3.9c-2.47,2.5-3.83,5.81-3.81,9.33c0.01,2.36-1.9,4.29-4.26,4.3 C752.34,854.99,752.33,854.99,752.33,854.99z" class="st0"/></g><g><g><path d="M762.43,903.26l0.01,2.82c0.01,1.16-0.93,2.11-2.09,2.11l-14.75,0.07c-1.16,0.01-2.11-0.93-2.11-2.09 l-0.01-2.82c-0.01-1.16,0.93-2.11,2.09-2.11l14.75-0.07C761.47,901.16,762.42,902.1,762.43,903.26z" class="st0"/></g><g><path d="M762.61,852.57l0.01,2.82c0.01,1.16-0.93,2.11-2.09,2.11l-14.75,0.07c-1.16,0.01-2.11-0.93-2.11-2.09 l-0.01-2.82c-0.01-1.16,0.93-2.11,2.09-2.11l14.75-0.07C761.66,850.48,762.6,851.41,762.61,852.57z" class="st0"/></g></g><g><path d="M819.09,933.73c-4.71,0-8.54-3.81-8.56-8.52c-0.02-4.73,3.79-8.58,8.52-8.6c10.03-0.05,19.44-4,26.5-11.13 c7.06-7.13,10.92-16.58,10.87-26.61c-0.1-20.7-17.05-37.48-37.74-37.37c-0.01,0-0.03,0-0.04,0c-4.71,0-8.54-3.81-8.56-8.52 c-0.02-4.73,3.79-8.58,8.52-8.6c0.09,0,0.18,0,0.27,0c30.03,0,54.53,24.35,54.68,54.41c0.07,14.6-5.55,28.36-15.82,38.74 c-10.28,10.38-23.98,16.13-38.59,16.2C819.11,933.73,819.1,933.73,819.09,933.73z" class="st1"/></g></g><g><path d="M1004.25,1007.89L1004.25,1007.89c-2.11-3.74-4.16-7.11-6.31-10.59c-2.13-3.45-4.33-6.84-6.54-10.23 c-4.46-6.74-9.08-13.37-13.86-19.88c-9.56-13.03-19.83-25.56-30.85-37.5c-5.54-5.94-11.26-11.73-17.21-17.32 c-5.99-5.55-12.18-10.9-18.64-15.98c-6.51-5.02-13.25-9.79-20.3-14.16c-7.1-4.3-14.49-8.21-22.18-11.59 c-4.33-1.9-9.37,0.06-11.28,4.39s0.06,9.38,4.39,11.29l0.13,0.06c6.84,3.01,13.5,6.53,19.98,10.45 c6.44,3.99,12.67,8.4,18.72,13.06c6.02,4.73,11.83,9.76,17.49,15c5.62,5.28,11.06,10.78,16.34,16.45 c10.51,11.39,20.39,23.44,29.61,36c4.61,6.28,9.07,12.67,13.36,19.17c2.13,3.26,4.25,6.52,6.29,9.82 c1.06,1.72,2.14,3.48,3.18,5.22c-1.08,1.45-2.18,2.93-3.27,4.36l-6.19,8.03c-4.17,5.32-8.48,10.53-12.76,15.73 c-8.66,10.32-17.65,20.3-26.93,29.81c-9.31,9.49-18.94,18.52-28.97,26.78c-2.49,2.09-5.09,4-7.59,6.04 c-2.55,1.96-5.17,3.81-7.73,5.72l-7.9,5.31c-2.69,1.62-5.31,3.37-8.03,4.89l-4.07,2.25l-2.03,1.13l-2.07,1 c-2.75,1.33-5.46,2.79-8.26,3.86l-4.15,1.76c-1.39,0.55-2.8,0.98-4.19,1.48c-1.4,0.47-2.79,1.01-4.19,1.42l-4.2,1.16 c-5.6,1.58-11.22,2.4-16.79,2.95c-1.39,0.16-2.78,0.1-4.17,0.18c-1.4,0.04-2.74,0.12-4.19,0.14c-3.14-0.13-6.28-0.13-9.41-0.35 c-6.26-0.4-12.49-1.01-18.67-1.96c-1.54-0.23-3.1-0.42-4.63-0.68l-4.6-0.86c-3.08-0.5-6.09-1.32-9.14-1.97 c-12.09-2.95-23.9-6.94-35.13-12.11c-11.31-5.02-21.84-11.49-31.7-18.73c-9.67-7.44-18.6-15.88-25.85-25.5 c-14.68-19.06-23.35-42.48-22.65-66.6c0.17-11.99,1.98-24.11,5.87-35.9c3.84-11.8,9.96-23.09,17.88-33.16 c7.89-10.09,17.32-19.17,27.86-26.88c1.34-0.95,2.66-1.94,4-2.89c-4.28-4.3-7.71-9.48-10.08-15.21c-1.5,0.96-2.98,1.96-4.48,2.92 c-12.08,8.05-23.44,17.43-33.42,28.36c-9.95,10.93-18.73,23.22-25.56,36.86c-6.8,13.63-11.34,28.77-12.56,44.32l-0.42,5.84 c-0.14,1.95-0.03,3.9-0.05,5.85c-0.08,3.91,0.35,7.81,0.58,11.72c0.88,7.78,2.23,15.54,4.37,23.09 c4.27,15.09,11.03,29.45,19.79,42.28c8.64,12.95,19.3,24.32,30.93,34.36l4.46,3.64l2.24,1.81l2.31,1.71l4.64,3.4l4.78,3.17 l2.4,1.58l2.45,1.48l4.92,2.94c1.66,0.95,3.34,1.83,5.02,2.75c1.68,0.9,3.34,1.84,5.07,2.65c3.42,1.66,6.86,3.32,10.37,4.76 c1.75,0.73,3.49,1.52,5.26,2.2l5.33,2.01c1.77,0.69,3.56,1.31,5.37,1.89l5.4,1.78c3.64,1.05,7.29,2.08,10.96,2.98 c3.69,0.82,7.36,1.79,11.08,2.42l5.57,1.04c1.86,0.32,3.73,0.56,5.6,0.84c1.87,0.25,3.73,0.58,5.61,0.75l5.63,0.53 c3.75,0.42,7.52,0.49,11.27,0.72c3.76,0.18,7.52,0.13,11.28,0.2c1.99-0.05,4.1-0.18,6.15-0.28c2.05-0.15,4.13-0.14,6.16-0.44 c8.13-1.04,16.14-2.6,23.75-5.02l5.71-1.81c1.88-0.65,3.68-1.44,5.51-2.16c1.82-0.75,3.67-1.44,5.45-2.25l5.27-2.52 c7.02-3.35,13.6-7.29,19.94-11.44c12.67-8.32,24.04-17.93,34.48-28.15c10.44-10.24,19.97-21.12,28.76-32.45 c8.84-11.29,16.82-23.11,24.22-35.21c3.73-6.04,7.23-12.2,10.57-18.44l2.49-4.7l2.38-4.76c1.58-3.22,3.07-6.33,4.58-9.79 l0.66-1.51C1005.84,1012.53,1005.67,1009.97,1004.25,1007.89z" class="st1"/></g><g><path d="M1373.86,1012.04c-0.01,12.11-1.62,24.27-4.9,35.91c-3.24,11.64-8.05,22.76-14.1,32.96 c-6.02,10.23-13.26,19.56-21.31,27.9c-8.04,8.36-16.94,15.66-26.26,22.1c-9.35,6.42-19.21,11.87-29.34,16.48 c-10.13,4.62-20.54,8.4-31.12,11.36c-21.14,6.01-42.85,8.78-64.42,9.09l-8.09-0.04l-8.56-0.51c-1.43-0.05-2.83-0.28-4.24-0.48 l-4.22-0.63c-2.83-0.34-5.56-1.03-8.31-1.67c-10.94-2.66-21.52-6.34-31.33-11.27c-19.71-9.7-37.22-22.48-52.99-36.7 c-7.92-7.1-15.4-14.6-22.52-22.37c-7.16-7.74-13.91-15.81-20.35-24.1c-6.48-8.26-12.5-16.84-18.3-25.56 c-1.45-2.18-2.89-4.37-4.29-6.58c-1.44-2.19-2.78-4.45-4.02-6.76c-1.23-2.33-2.34-4.73-3.29-7.23c-0.95-2.53-1.73-5.03-2.27-7.95 l-0.62-3.36c-0.3-1.61-0.04-3.19,0.62-4.55c1.23-2.52,2.39-4.78,3.61-7.13c1.23-2.32,2.5-4.6,3.77-6.89 c2.57-4.55,5.24-9.04,7.98-13.48c5.53-8.86,11.37-17.53,17.6-25.95c12.47-16.83,26.23-32.87,41.87-47.33 c7.82-7.22,16.18-13.94,25.11-19.98c8.97-5.98,18.47-11.3,28.44-15.78c9.96-4.49,20.51-7.93,31.36-10.31l4.08-0.89 c1.35-0.34,2.76-0.42,4.13-0.66l4.15-0.59c1.38-0.2,2.77-0.41,4.18-0.46l8.42-0.54l8.03-0.08c21.41,0.2,42.99,2.83,64.03,8.67 c10.53,2.86,20.91,6.55,31.01,11.08c10.11,4.51,19.96,9.86,29.31,16.18c9.33,6.34,18.24,13.54,26.31,21.8l3.02,3.12 c1,1.05,1.93,2.17,2.89,3.25l2.85,3.3c0.92,1.13,1.8,2.29,2.7,3.44l2.68,3.47l2.52,3.62c0.84,1.21,1.67,2.42,2.47,3.66l2.3,3.79 c6.1,10.13,10.98,21.19,14.29,32.79C1372.08,987.78,1373.77,999.93,1373.86,1012.04z M1329.95,1012.04 c0.1-16.65-3.93-33.19-11.59-48.64c-7.66-15.43-18.86-29.8-32.65-41.97c-6.9-6.08-14.41-11.65-22.42-16.59 c-8.02-4.91-16.54-9.19-25.38-12.83c-17.72-7.25-36.88-11.4-56.29-12.75l-7.3-0.39l-6.89,0.15c-1.15-0.03-2.3,0.15-3.45,0.29 l-3.44,0.42c-2.31,0.19-4.57,0.76-6.85,1.25l-3.41,0.76c-1.13,0.28-2.24,0.68-3.37,1.01l-3.35,1.08l-1.67,0.54l-1.64,0.67 c-2.18,0.9-4.38,1.75-6.55,2.68l-6.38,3.17c-16.83,8.99-32.07,21.14-46.65,34.2c-1.79,1.68-3.67,3.24-5.44,4.95l-5.35,5.09 c-3.49,3.49-6.98,6.98-10.35,10.61c-6.85,7.15-13.36,14.67-19.78,22.31c-6.37,7.67-12.57,15.53-18.54,23.57 c-3.03,3.99-5.94,8.07-8.86,12.14c-1.45,2.04-2.89,4.09-4.3,6.15c-1.41,2.02-2.87,4.15-4.14,6.09l0-7.91 c3.95,3.22,7.26,7.14,10.26,11.09c3,3.99,5.62,8.22,8.53,12.27c5.7,8.18,11.72,16.13,17.85,23.96 c12.41,15.52,25.42,30.58,39.91,43.81c7.23,6.61,14.7,12.94,22.57,18.56c7.91,5.56,16.1,10.6,24.64,14.69l6.46,2.88l6.57,2.45 l1.64,0.61l1.67,0.48l3.33,0.97c1.12,0.3,2.22,0.66,3.34,0.9l3.38,0.66c2.25,0.45,4.49,0.96,6.75,1.12l3.38,0.39 c1.13,0.13,2.25,0.29,3.38,0.27l6.75,0.18l7.24-0.35c19.25-1.24,38.27-5.26,55.89-12.33c8.8-3.55,17.27-7.73,25.27-12.55 c7.99-4.83,15.49-10.3,22.39-16.28c13.8-11.96,25.06-26.13,32.83-41.42C1325.72,1045.14,1329.9,1028.69,1329.95,1012.04z" class="st1"/></g><g><g><circle cx="710.38" cy="899.83" r="27.93" class="st0"/></g><g><circle cx="710.38" cy="899.83" r="13.42" class="st2"/></g></g></g></svg>