<svg xmlns="http://www.w3.org/2000/svg" version="1.1" viewBox="0 0 720 300"><defs><style>.cls-1{fill:#fff;stroke-width:0}.cls-2{fill:none;stroke:#fff;stroke-width:2px}</style></defs><g id="Layer_2" data-name="Layer 2"><g><g><path d="M213.45,145.24h-47.72v3.94c.02,4.77,2.92,7.69,7.67,7.69,10.39-.02,20.77-.05,31.18-.07.94-.02,1.93-.05,2.86-.3,5.73-1.52,6.79-6.26,6.01-11.26Z" class="cls-1"/><path d="M223.7,86.73c-1.73-1.75-3.87-2.63-6.42-2.63-2.76,0-5.02.85-6.77,2.58-.85.83-1.5,1.8-1.91,2.88h-57.66v92.53h7.48s0-85.04,0-85.04h28.97c0,3.34,0,6.68-.05,10.02-.02.64-.12,1.34-.32,1.93-3.43,9.7-6.89,19.37-10.27,29.04-.3.85-.67,1.13-1.52,1.11-2.99-.05-5.96,0-8.94.02-.99,0-1.38.39-1.38,1.27s.44,1.29,1.5,1.27c2.86,0,5.69-.07,8.54-.09,12.9-.05,25.79-.12,38.71-.16,1.17,0,1.73-.44,1.7-1.29s-.51-1.22-1.66-1.22c-2.46,0-4.91,0-7.35.05-.71.02-1.04-.21-1.31-.88-4.1-9.67-8.2-19.32-12.3-28.99-.14-.3-.21-.62-.21-.94v-11.12h16.07c.39.94.97,1.84,1.7,2.69,1.64,1.84,3.91,2.79,6.86,2.79,2.6,0,4.79-.88,6.52-2.65,1.73-1.75,2.6-3.94,2.6-6.61s-.88-4.77-2.6-6.54ZM200.62,138.94h-19.55c2.92-8.24,5.85-16.51,8.77-24.76h.25c3.5,8.2,6.98,16.4,10.52,24.76ZM219.9,96.42c-.78.88-1.7,1.31-2.76,1.31s-2.05-.44-2.83-1.34c-.78-.9-1.17-1.98-1.17-3.25,0-1.17.41-2.16,1.2-2.99.78-.85,1.73-1.27,2.81-1.27s1.98.46,2.76,1.34c.78.9,1.17,1.93,1.17,3.13s-.39,2.19-1.17,3.06Z" class="cls-1"/><g><path d="M68.16,165.83H20.45c0,1.43-.02,2.67,0,3.91,0,4.77,2.92,7.69,7.65,7.69,10.39-.02,20.79-.05,31.18-.07.94,0,1.93-.05,2.86-.3,5.73-1.52,6.79-6.26,6.03-11.24Z" class="cls-1"/><path d="M23.88,110.31c-.44-1.22-1.13-2.33-2.07-3.29-1.75-1.75-3.89-2.63-6.45-2.63-2.74,0-5,.85-6.75,2.58s-2.63,3.96-2.63,6.68c0,2.39.81,4.51,2.44,6.38,1.64,1.84,3.91,2.79,6.86,2.79,2.6,0,4.77-.88,6.52-2.63.71-.74,1.27-1.52,1.7-2.4h18.56c0,3.27,0,6.56-.05,9.83,0,.64-.12,1.34-.32,1.93-3.41,9.69-6.86,19.34-10.27,29.04-.3.85-.64,1.11-1.52,1.11-2.97-.05-5.96,0-8.94.02-.97,0-1.38.39-1.38,1.27.02.88.46,1.27,1.52,1.27,2.83-.02,5.69-.07,8.52-.09,12.9-.07,25.81-.12,38.71-.16,1.2-.02,1.73-.44,1.7-1.31,0-.83-.48-1.2-1.66-1.2-2.44,0-4.91-.02-7.35.05-.69,0-1.04-.21-1.31-.88-4.08-9.67-8.2-19.32-12.3-28.99-.12-.3-.21-.64-.21-.97,0-3.62,0-7.28.02-10.92h28.92v64.29h7.48s0-71.78,0-71.78H23.88ZM18.01,116.71c-.81.88-1.7,1.31-2.76,1.31s-2.05-.44-2.83-1.34c-.78-.9-1.17-1.98-1.17-3.25,0-1.15.39-2.16,1.2-2.99.78-.83,1.73-1.27,2.81-1.27s1.96.46,2.76,1.34c.78.9,1.17,1.93,1.17,3.13s-.39,2.21-1.17,3.06ZM55.34,159.5h-19.55c2.92-8.24,5.85-16.51,8.77-24.76.07,0,.16,0,.25-.02,3.48,8.2,6.95,16.42,10.52,24.78Z" class="cls-1"/></g><path d="M105.25,33.49c-1.73-1.75-3.87-2.63-6.42-2.63-2.74,0-5,.85-6.75,2.58-1.77,1.73-2.65,3.96-2.65,6.68,0,2.39.83,4.51,2.46,6.38.83.94,1.84,1.66,3.02,2.1v133.5h7.48V48.59c1.06-.44,2-1.08,2.86-1.96,1.75-1.75,2.6-3.94,2.6-6.61s-.85-4.77-2.6-6.54ZM101.45,43.18c-.78.88-1.7,1.31-2.74,1.31-1.11,0-2.05-.44-2.83-1.34-.78-.9-1.17-1.98-1.17-3.25,0-1.17.39-2.16,1.17-2.99.78-.85,1.73-1.27,2.83-1.27,1.04,0,1.96.46,2.74,1.34.81.9,1.2,1.93,1.2,3.13s-.39,2.19-1.2,3.06Z" class="cls-1"/><path d="M126.52,16.19c0-2.6-.88-4.79-2.6-6.54-1.75-1.77-3.89-2.65-6.45-2.65-2.74,0-5,.88-6.75,2.6s-2.63,3.94-2.63,6.66c0,2.42.81,4.54,2.44,6.38.88,1.01,1.96,1.73,3.22,2.19h-.21v157.31h7.48V24.82h-.25c1.17-.41,2.21-1.11,3.13-2.03,1.73-1.75,2.6-3.96,2.6-6.61ZM120.12,19.34c-.81.88-1.73,1.29-2.76,1.29-1.11,0-2.05-.44-2.83-1.34-.78-.88-1.17-1.96-1.17-3.22,0-1.17.39-2.16,1.17-3.02.81-.83,1.73-1.24,2.83-1.24,1.04,0,1.96.44,2.76,1.34.78.9,1.17,1.93,1.17,3.11s-.39,2.21-1.17,3.09Z" class="cls-1"/><path d="M142.55,55c-1.73-1.75-3.89-2.65-6.45-2.65-2.74,0-5,.88-6.75,2.6-1.75,1.73-2.63,3.94-2.63,6.68,0,2.39.81,4.51,2.44,6.38.83.94,1.84,1.64,3.02,2.1v111.99h7.48v-111.99c1.06-.44,2.03-1.11,2.88-1.96,1.73-1.75,2.6-3.96,2.6-6.61s-.88-4.79-2.6-6.54ZM138.75,64.69c-.78.88-1.7,1.31-2.76,1.31s-2.05-.46-2.83-1.34c-.78-.9-1.17-1.98-1.17-3.25,0-1.17.39-2.16,1.2-2.99.78-.85,1.73-1.27,2.81-1.27s1.98.44,2.76,1.34c.78.9,1.17,1.93,1.17,3.13s-.39,2.19-1.17,3.06Z" class="cls-1"/></g><g><rect width="7.41" height="26.68" x="150.94" y="266.32" class="cls-1"/><rect width="7.41" height="26.68" x="76.16" y="266.32" class="cls-1"/><rect width="7.41" height="26.68" x="94.85" y="266.32" class="cls-1"/><rect width="7.41" height="26.68" x="113.55" y="266.32" class="cls-1"/><rect width="7.41" height="26.68" x="132.24" y="266.32" class="cls-1"/></g></g></g><g id="Layer_3" data-name="Layer 3"><g><path d="M537.62,285.27c2.86,0,5.19-2.32,5.19-5.19s-2.32-5.19-5.19-5.19-5.19,2.32-5.19,5.19,2.32,5.19,5.19,5.19Z" class="cls-2"/><circle cx="417.87" cy="280.08" r="5.19" class="cls-2" transform="translate(-.81 558.96) rotate(-67.5)"/><g><g><path d="M429.81,290.74v-21.38h9.45c.98,0,1.89.21,2.72.62.83.41,1.55.95,2.15,1.63.6.67,1.07,1.44,1.42,2.29.34.85.51,1.71.51,2.57,0,1.38-.35,2.64-1.04,3.78-.69,1.13-1.63,1.95-2.82,2.45l4.88,8.04h-4.67l-4.37-7.17h-4.09v7.17h-4.15ZM433.97,279.93h5.21c.38,0,.74-.09,1.07-.27.33-.18.62-.43.86-.74.24-.31.43-.68.57-1.1.14-.42.21-.87.21-1.35s-.08-.96-.24-1.39c-.16-.42-.38-.79-.65-1.1-.27-.31-.58-.55-.93-.72-.35-.17-.71-.26-1.07-.26h-5.03v6.92Z" class="cls-1"/><path d="M464.68,287.1v3.64h-14.84v-21.38h14.57v3.64h-10.42v5.15h9v3.37h-9v5.57h10.69Z" class="cls-1"/></g><g><path d="M466.18,279.9c0-1.3.24-2.59.71-3.87.47-1.27,1.16-2.41,2.06-3.42.9-1,2.01-1.82,3.31-2.44,1.3-.62,2.79-.93,4.46-.93,1.97,0,3.67.43,5.1,1.29,1.43.86,2.5,1.99,3.21,3.37l-3.19,2.2c-.28-.6-.62-1.11-1.02-1.52-.4-.41-.83-.74-1.29-.98-.46-.24-.94-.42-1.45-.53-.5-.11-.99-.17-1.48-.17-1.04,0-1.95.21-2.72.63-.77.42-1.42.97-1.93,1.64-.51.67-.9,1.44-1.16,2.29-.26.85-.39,1.7-.39,2.54,0,.94.15,1.85.45,2.72s.73,1.64,1.28,2.3c.55.66,1.21,1.19,1.99,1.6.77.4,1.62.6,2.54.6.48,0,.98-.06,1.51-.18.52-.12,1.02-.31,1.49-.57.47-.26.91-.6,1.31-1.01.4-.41.72-.91.96-1.49l3.4,1.96c-.34.8-.83,1.51-1.46,2.12-.63.61-1.34,1.13-2.14,1.55-.79.42-1.64.74-2.54.96s-1.79.33-2.65.33c-1.53,0-2.92-.32-4.18-.96-1.26-.64-2.35-1.48-3.27-2.51-.91-1.03-1.63-2.21-2.14-3.52-.51-1.31-.77-2.65-.77-4.02Z" class="cls-1"/><path d="M493.91,269.36h3.67l8.13,21.38h-4.28l-1.99-5.33h-7.47l-1.96,5.33h-4.28l8.16-21.38ZM498.7,282.49l-2.95-8.4-3.07,8.4h6.02Z" class="cls-1"/></g><path d="M508.06,290.74v-21.38h9.06c.98,0,1.89.21,2.72.62.83.41,1.55.95,2.15,1.63.6.67,1.07,1.44,1.41,2.29.34.85.51,1.71.51,2.57s-.16,1.78-.48,2.63c-.32.85-.77,1.61-1.35,2.27-.58.66-1.28,1.19-2.11,1.6-.82.4-1.73.6-2.71.6h-5.06v7.17h-4.15ZM512.22,279.93h4.82c.76,0,1.4-.31,1.91-.93.51-.62.77-1.47.77-2.53,0-.54-.08-1.03-.24-1.46-.16-.43-.37-.8-.63-1.1-.26-.3-.57-.53-.92-.68-.35-.15-.71-.23-1.07-.23h-4.64v6.92Z" class="cls-1"/></g><g><path d="M627.73,290.43c-.47,0-.87-.15-1.21-.45-.34-.3-.51-.72-.51-1.26,0-.46.16-.85.49-1.18.32-.33.72-.5,1.2-.5s.88.16,1.21.49c.33.33.5.72.5,1.19,0,.53-.17.95-.5,1.26-.33.3-.73.46-1.18.46Z" class="cls-1"/><g><path d="M565.44,284.96c0,.85-.17,1.6-.51,2.24-.34.64-.81,1.18-1.4,1.62-.6.44-1.29.77-2.07.99-.78.23-1.62.34-2.51.34h-9.72v-20.13h10.77c.7,0,1.33.15,1.9.45.57.3,1.05.69,1.45,1.18.4.48.7,1.03.92,1.64.22.61.33,1.23.33,1.86,0,.98-.25,1.9-.74,2.76-.49.86-1.21,1.5-2.15,1.91,1.15.34,2.06.95,2.74,1.83.67.88,1.01,1.98,1.01,3.3ZM553.14,273.36v5.07h5.22c.66,0,1.22-.23,1.69-.68.46-.45.69-1.08.69-1.87s-.21-1.39-.64-1.84c-.43-.45-.95-.68-1.57-.68h-5.39ZM561.5,284.22c0-.36-.06-.7-.18-1.03-.12-.33-.29-.62-.5-.86-.21-.25-.45-.44-.74-.58-.28-.14-.6-.21-.94-.21h-6.01v5.3h5.81c.36,0,.69-.07,1.01-.2.31-.13.58-.32.81-.55.23-.24.41-.51.54-.84.13-.32.2-.66.2-1.02Z" class="cls-1"/><path d="M577.66,290.29c-1.47,0-2.81-.29-4.01-.86-1.2-.58-2.23-1.34-3.09-2.3-.86-.95-1.53-2.05-2-3.27-.47-1.23-.71-2.48-.71-3.77s.25-2.63.75-3.86c.5-1.23,1.19-2.31,2.07-3.26.88-.94,1.92-1.7,3.13-2.25,1.21-.56,2.52-.84,3.94-.84s2.78.3,3.98.89c1.2.6,2.23,1.37,3.08,2.34.85.96,1.51,2.06,1.98,3.29.47,1.23.71,2.48.71,3.74,0,1.34-.25,2.62-.74,3.84-.49,1.22-1.17,2.3-2.04,3.23-.87.94-1.91,1.68-3.12,2.24-1.21.56-2.52.84-3.94.84ZM571.82,280.08c0,.87.13,1.71.4,2.52.26.81.65,1.53,1.15,2.15.5.62,1.11,1.12,1.84,1.5.73.38,1.55.57,2.48.57s1.78-.19,2.51-.58c.73-.39,1.34-.9,1.84-1.55.5-.64.88-1.37,1.13-2.17.26-.8.38-1.62.38-2.45s-.14-1.71-.41-2.52c-.27-.81-.66-1.53-1.16-2.15-.5-.62-1.12-1.12-1.84-1.49-.73-.37-1.55-.55-2.45-.55s-1.79.19-2.52.58c-.74.39-1.35.9-1.84,1.53-.49.63-.86,1.35-1.12,2.15-.26.8-.38,1.62-.38,2.45Z" class="cls-1"/><path d="M605.19,273.45h-6.44v16.7h-3.88v-16.7h-6.44v-3.43h16.75v3.43Z" class="cls-1"/><path d="M620.17,275.22c-.13-.13-.38-.31-.73-.53-.35-.22-.78-.44-1.28-.65-.5-.21-1.05-.39-1.64-.53-.59-.14-1.18-.21-1.79-.2-1.08.01-1.88.22-2.4.63-.52.4-.78.97-.77,1.68,0,.42.11.76.31,1.03.2.27.49.51.87.71.38.2.86.39,1.44.55.58.16,1.25.33,2.01.51.99.25,1.88.52,2.69.81.81.29,1.49.66,2.06,1.11.56.45,1,.98,1.31,1.61.31.63.47,1.41.49,2.33.01,1.08-.18,2-.57,2.77-.4.77-.94,1.4-1.62,1.88-.68.48-1.47.84-2.37,1.07-.89.23-1.83.35-2.82.36-1.51.02-3.01-.19-4.49-.62-1.48-.43-2.81-1.06-3.99-1.87l1.68-3.4c.17.17.48.39.93.65.45.27.98.54,1.58.8.61.27,1.28.49,2.02.67.74.18,1.5.26,2.27.25,2.15-.03,3.22-.73,3.2-2.11,0-.43-.13-.8-.38-1.1-.25-.3-.6-.56-1.06-.78s-1.01-.42-1.65-.6c-.65-.18-1.37-.38-2.16-.59-.97-.25-1.81-.53-2.52-.83-.71-.3-1.31-.66-1.79-1.08-.48-.42-.84-.91-1.08-1.46-.24-.55-.37-1.22-.38-1.99-.01-1.02.16-1.93.53-2.73.37-.8.88-1.47,1.55-2.01.66-.54,1.44-.95,2.32-1.24.88-.29,1.84-.44,2.86-.45,1.42-.02,2.72.19,3.92.61,1.2.43,2.24.94,3.14,1.53l-1.69,3.2Z" class="cls-1"/><path d="M634.31,290.15v-20.13h1.98v18.37h11.62v1.76h-13.61Z" class="cls-1"/><path d="M657.64,270.02h1.67l8.36,20.13h-2.1l-2.61-6.29h-9.04l-2.58,6.29h-2.13l8.42-20.13ZM662.52,282.29l-4.05-9.95-4.11,9.95h8.16Z" class="cls-1"/><path d="M676.98,270.16h1.87l2.83,7.14,2.86-7.14h1.9l-3.52,8.59,3.86,9.1,7.29-17.83h2.15l-8.53,20.13h-1.76l-4.22-9.95-4.25,9.95h-1.73l-8.5-20.13h2.13l7.31,17.83,3.83-9.1-3.52-8.59Z" class="cls-1"/></g></g><g><g><path d="M167.24,279.92c0-1.3.24-2.59.71-3.86.47-1.27,1.16-2.41,2.06-3.41.9-1,2-1.81,3.31-2.44,1.3-.62,2.79-.93,4.45-.93,1.96,0,3.66.43,5.1,1.29,1.43.86,2.5,1.98,3.2,3.37l-3.19,2.19c-.28-.6-.62-1.11-1.02-1.52-.4-.41-.83-.74-1.29-.98-.46-.24-.94-.42-1.44-.53-.5-.11-.99-.17-1.47-.17-1.04,0-1.95.21-2.72.63-.77.42-1.41.97-1.92,1.64-.51.67-.9,1.43-1.16,2.29-.26.85-.39,1.7-.39,2.54,0,.94.15,1.85.45,2.72.3.87.73,1.64,1.28,2.3.55.66,1.21,1.19,1.98,1.59.77.4,1.62.6,2.54.6.48,0,.98-.06,1.5-.18.52-.12,1.02-.31,1.49-.57.47-.26.91-.6,1.31-1.01.4-.41.72-.91.96-1.49l3.4,1.95c-.34.8-.83,1.51-1.46,2.12-.63.61-1.34,1.13-2.13,1.55-.79.42-1.64.74-2.54.96-.9.22-1.78.33-2.65.33-1.52,0-2.92-.32-4.18-.96-1.26-.64-2.35-1.48-3.26-2.51-.91-1.03-1.62-2.2-2.13-3.52-.51-1.31-.77-2.65-.77-4.01Z" class="cls-1"/><path d="M198.27,290.89c-1.56,0-2.98-.31-4.25-.92-1.27-.61-2.37-1.42-3.28-2.44-.91-1.01-1.62-2.17-2.12-3.47-.5-1.3-.75-2.64-.75-4s.27-2.79.8-4.09c.53-1.3,1.26-2.46,2.19-3.46.93-1,2.04-1.8,3.32-2.39,1.28-.59,2.68-.89,4.18-.89s2.95.32,4.22.95c1.27.63,2.36,1.46,3.26,2.48.9,1.02,1.6,2.18,2.1,3.49.5,1.3.75,2.63.75,3.97,0,1.42-.26,2.78-.78,4.07-.52,1.29-1.24,2.44-2.16,3.43-.92.99-2.02,1.78-3.31,2.38-1.28.59-2.68.89-4.18.89ZM192.07,280.07c0,.92.14,1.81.42,2.68.28.86.69,1.62,1.22,2.29.53.66,1.18,1.19,1.95,1.59.77.4,1.65.6,2.63.6s1.89-.21,2.66-.62c.77-.41,1.42-.96,1.95-1.64.53-.68.93-1.45,1.2-2.3.27-.85.41-1.72.41-2.6s-.15-1.81-.44-2.68c-.29-.86-.7-1.62-1.23-2.29-.53-.66-1.18-1.19-1.95-1.58-.77-.39-1.64-.59-2.6-.59s-1.89.21-2.68.62c-.78.41-1.43.95-1.95,1.62-.52.67-.92,1.43-1.19,2.29-.27.85-.41,1.72-.41,2.6Z" class="cls-1"/><path d="M220.91,287.22c.98,0,1.81-.2,2.48-.6.67-.4,1.21-.92,1.62-1.56.41-.64.7-1.38.87-2.21.17-.83.26-1.69.26-2.57v-10.88h4.12v10.88c0,1.46-.18,2.84-.53,4.12-.35,1.28-.9,2.41-1.65,3.37s-1.72,1.72-2.9,2.29c-1.18.56-2.6.84-4.24.84s-3.15-.3-4.34-.89c-1.19-.59-2.16-1.37-2.9-2.35-.74-.97-1.28-2.1-1.61-3.38-.33-1.28-.5-2.62-.5-4v-10.88h4.15v10.88c0,.9.09,1.77.26,2.6.17.83.46,1.57.87,2.21.41.64.95,1.16,1.61,1.55s1.47.59,2.44.59Z" class="cls-1"/><path d="M234.44,290.74v-21.35h9.44c.98,0,1.89.21,2.72.62.83.41,1.55.95,2.15,1.62.6.67,1.07,1.43,1.41,2.29.34.85.51,1.71.51,2.57,0,1.38-.35,2.64-1.04,3.77-.69,1.13-1.63,1.95-2.81,2.45l4.87,8.03h-4.66l-4.36-7.16h-4.09v7.16h-4.15ZM238.59,279.95h5.2c.38,0,.74-.09,1.07-.27.33-.18.62-.43.86-.74.24-.31.43-.68.57-1.1.14-.42.21-.87.21-1.35s-.08-.96-.24-1.38c-.16-.42-.38-.79-.65-1.1-.27-.31-.58-.55-.93-.72-.35-.17-.71-.26-1.07-.26h-5.02v6.92Z" class="cls-1"/></g><path d="M269.86,273.03h-6.82v17.71h-4.12v-17.71h-6.83v-3.64h17.77v3.64Z" class="cls-1"/><g><path d="M277.82,290.74v-21.35h2.1v19.48h12.33v1.86h-14.43Z" class="cls-1"/><path d="M293.85,290.74v-21.35h2.1v21.35h-2.1Z" class="cls-1"/><path d="M312.28,273.39c-.6-.68-1.4-1.23-2.41-1.65-1-.42-2.15-.63-3.43-.63-1.88,0-3.26.36-4.12,1.07-.86.71-1.29,1.68-1.29,2.9,0,.64.12,1.17.35,1.58.23.41.59.77,1.07,1.07.48.3,1.1.56,1.85.78.75.22,1.64.44,2.66.66,1.14.24,2.17.51,3.08.81.91.3,1.69.68,2.33,1.13.64.45,1.13,1,1.47,1.64.34.64.51,1.44.51,2.41s-.19,1.83-.57,2.56c-.38.72-.91,1.32-1.59,1.8-.68.48-1.49.84-2.44,1.07-.94.23-1.97.35-3.1.35-3.31,0-6.16-1.03-8.57-3.1l1.05-1.71c.38.4.84.78,1.37,1.14.53.36,1.12.68,1.77.95.65.27,1.35.48,2.09.63.74.15,1.52.23,2.35.23,1.7,0,3.03-.31,3.98-.92.95-.61,1.43-1.54,1.43-2.78,0-.66-.14-1.22-.41-1.67-.27-.45-.68-.84-1.22-1.17-.54-.33-1.21-.62-2.01-.86-.8-.24-1.73-.48-2.8-.72-1.12-.26-2.1-.53-2.95-.81-.84-.28-1.55-.63-2.13-1.05-.58-.42-1.02-.93-1.31-1.52-.29-.59-.44-1.32-.44-2.18,0-.98.19-1.86.56-2.63.37-.77.9-1.41,1.58-1.92.68-.51,1.48-.9,2.41-1.17.92-.27,1.94-.41,3.07-.41,1.42,0,2.69.22,3.8.65,1.11.43,2.12,1.04,3.02,1.82l-1.02,1.68Z" class="cls-1"/><path d="M331.7,271.26h-7.61v19.48h-2.1v-19.48h-7.61v-1.86h17.32v1.86Z" class="cls-1"/><path d="M347.73,288.88v1.86h-14.34v-21.35h14.07v1.86h-11.97v7.7h10.43v1.77h-10.43v8.15h12.24Z" class="cls-1"/><path d="M352.3,273.3v17.44h-2.1v-21.35h1.62l14.13,17.77v-17.74h2.1v21.32h-1.83l-13.92-17.44Z" class="cls-1"/><path d="M386.24,288.88v1.86h-14.34v-21.35h14.07v1.86h-11.97v7.7h10.43v1.77h-10.43v8.15h12.24Z" class="cls-1"/><path d="M388.71,290.74v-21.35h9.02c.92,0,1.77.2,2.54.59.77.39,1.44.9,2,1.53.56.63,1,1.35,1.31,2.15.31.8.47,1.61.47,2.44s-.12,1.53-.35,2.24c-.23.71-.55,1.35-.96,1.92-.41.57-.91,1.05-1.49,1.44-.58.39-1.23.66-1.95.8l5.23,8.24h-2.38l-5.02-7.88h-6.31v7.88h-2.1ZM390.81,281h6.98c.62,0,1.19-.14,1.7-.41.51-.27.95-.64,1.31-1.1.36-.46.64-.98.84-1.56.2-.58.3-1.19.3-1.83s-.12-1.26-.35-1.85c-.23-.59-.54-1.11-.93-1.55-.39-.44-.85-.79-1.38-1.05-.53-.26-1.09-.39-1.67-.39h-6.79v9.74Z" class="cls-1"/></g></g></g><g><polygon points="76.16 248.85 76.16 198.01 110.31 198.01 110.31 206.67 86.04 206.67 86.04 219.78 106.23 219.78 106.23 227.8 86.04 227.8 86.04 248.85 76.16 248.85" class="cls-1"/><path d="M117.25,248.85v-50.83h22.48c2.34,0,4.5.49,6.48,1.47,1.98.98,3.69,2.27,5.12,3.87,1.43,1.6,2.55,3.41,3.37,5.44.81,2.03,1.22,4.07,1.22,6.12,0,3.29-.82,6.29-2.47,8.99-1.65,2.7-3.88,4.64-6.69,5.84l11.6,19.12h-11.1l-10.38-17.04h-9.74v17.04h-9.88ZM127.13,223.14h12.39c.91,0,1.75-.21,2.54-.64.79-.43,1.47-1.01,2.04-1.75.57-.74,1.03-1.61,1.36-2.61.33-1,.5-2.08.5-3.22s-.19-2.29-.57-3.29c-.38-1-.9-1.87-1.54-2.61-.64-.74-1.39-1.31-2.22-1.72-.84-.41-1.68-.61-2.54-.61h-11.96v16.47Z" class="cls-1"/><polygon points="200.16 240.18 200.16 248.85 164.87 248.85 164.87 198.01 199.52 198.01 199.52 206.67 174.75 206.67 174.75 218.92 196.15 218.92 196.15 226.94 174.75 226.94 174.75 240.18 200.16 240.18" class="cls-1"/><polygon points="243.19 240.18 243.19 248.85 207.9 248.85 207.9 198.01 242.55 198.01 242.55 206.67 217.78 206.67 217.78 218.92 239.18 218.92 239.18 226.94 217.78 226.94 217.78 240.18 243.19 240.18" class="cls-1"/><polygon points="268.11 248.85 268.11 198.01 277.99 198.01 277.99 240.18 303.91 240.18 303.91 248.85 268.11 248.85" class="cls-1"/><path d="M324.38,198.01h8.74l19.33,50.83h-10.17l-4.72-12.67h-17.76l-4.65,12.67h-10.17l19.4-50.83ZM335.77,229.23l-7.02-19.97-7.3,19.97h14.32Z" class="cls-1"/><polygon points="366.19 198.15 375.29 198.15 381.02 214.98 386.74 198.15 395.91 198.15 387.25 221.28 393.69 237.53 408.08 198.01 418.82 198.01 398.13 248.85 389.82 248.85 381.02 227.51 372.21 248.85 363.9 248.85 343.36 198.01 353.95 198.01 368.41 237.53 374.72 221.28 366.19 198.15" class="cls-1"/><path d="M431.27,248.85v-50.83h21.05c2.19,0,4.21.47,6.05,1.4,1.84.93,3.42,2.15,4.76,3.65,1.34,1.5,2.39,3.21,3.15,5.12.76,1.91,1.15,3.84,1.15,5.8,0,2.1-.36,4.12-1.07,6.05s-1.72,3.64-3.01,5.12c-1.29,1.48-2.83,2.67-4.62,3.58-1.79.91-3.78,1.36-5.98,1.36h-16.47v18.76h-5.01ZM436.29,225.65h16.25c1.48,0,2.83-.32,4.05-.97,1.22-.64,2.26-1.5,3.12-2.58.86-1.07,1.53-2.32,2-3.72.48-1.41.71-2.88.71-4.4s-.27-3.07-.82-4.47c-.55-1.41-1.29-2.64-2.22-3.69-.93-1.05-2.03-1.87-3.29-2.47-1.26-.6-2.59-.9-3.97-.9h-15.82v23.2Z" class="cls-1"/><path d="M472.23,248.85v-50.83h21.48c2.19,0,4.21.47,6.05,1.4,1.84.93,3.42,2.15,4.76,3.65,1.34,1.5,2.37,3.21,3.11,5.12.74,1.91,1.11,3.84,1.11,5.8s-.27,3.64-.82,5.33c-.55,1.7-1.31,3.22-2.29,4.58-.98,1.36-2.16,2.51-3.54,3.44-1.39.93-2.93,1.56-4.65,1.9l12.46,19.62h-5.66l-11.96-18.76h-15.03v18.76h-5.01ZM477.24,225.65h16.61c1.48,0,2.83-.32,4.05-.97,1.22-.64,2.25-1.52,3.11-2.61.86-1.1,1.53-2.34,2.01-3.72.48-1.38.72-2.84.72-4.37s-.28-2.99-.82-4.4c-.55-1.41-1.29-2.64-2.22-3.69-.93-1.05-2.03-1.88-3.29-2.51-1.26-.62-2.59-.93-3.97-.93h-16.18v23.2Z" class="cls-1"/><path d="M535.88,249.2c-3.53,0-6.77-.73-9.7-2.18-2.94-1.46-5.45-3.39-7.55-5.8-2.1-2.41-3.72-5.17-4.87-8.27-1.15-3.1-1.72-6.28-1.72-9.52s.61-6.63,1.83-9.74c1.22-3.1,2.9-5.85,5.05-8.23,2.15-2.39,4.68-4.28,7.59-5.69,2.91-1.41,6.06-2.11,9.45-2.11s6.77.75,9.7,2.25c2.94,1.5,5.44,3.47,7.52,5.91,2.08,2.43,3.69,5.19,4.83,8.27,1.15,3.08,1.72,6.22,1.72,9.41,0,3.39-.61,6.64-1.83,9.74-1.22,3.1-2.89,5.83-5.01,8.2-2.12,2.36-4.64,4.25-7.55,5.66s-6.06,2.11-9.45,2.11M517.05,223.43c0,2.77.45,5.43,1.36,7.98.91,2.55,2.19,4.82,3.87,6.8,1.67,1.98,3.65,3.56,5.94,4.72,2.29,1.17,4.84,1.75,7.66,1.75s5.46-.62,7.8-1.86c2.34-1.24,4.32-2.86,5.94-4.87,1.62-2,2.88-4.27,3.76-6.8.88-2.53,1.32-5.11,1.32-7.73,0-2.77-.47-5.43-1.4-7.98-.93-2.55-2.23-4.81-3.9-6.77-1.67-1.96-3.65-3.52-5.94-4.69-2.29-1.17-4.82-1.75-7.59-1.75s-5.47.61-7.8,1.83c-2.34,1.22-4.32,2.83-5.94,4.83-1.62,2-2.88,4.27-3.76,6.8-.88,2.53-1.32,5.11-1.32,7.73" class="cls-1"/><path d="M559.15,242.47c1.05.72,2.4,1.34,4.05,1.86,1.65.53,3.5.79,5.55.79,2.58,0,4.64-.46,6.19-1.4s2.73-2.3,3.54-4.12c.81-1.81,1.34-4.05,1.58-6.69.24-2.65.36-5.67.36-9.06v-25.85h5.01v25.85c0,3.87-.18,7.39-.54,10.56-.36,3.18-1.11,5.88-2.26,8.13-1.15,2.25-2.82,3.99-5.01,5.23-2.2,1.24-5.16,1.86-8.88,1.86-4.3,0-7.97-1.05-11.02-3.15l1.43-4.01Z" class="cls-1"/><polygon points="628.1 244.41 628.1 248.85 593.95 248.85 593.95 198.01 627.45 198.01 627.45 202.45 598.96 202.45 598.96 220.78 623.8 220.78 623.8 225 598.96 225 598.96 244.41 628.1 244.41" class="cls-1"/><path d="M629.53,223.07c0-3.05.54-6.1,1.61-9.13,1.07-3.03,2.64-5.74,4.69-8.13,2.05-2.39,4.58-4.33,7.59-5.83,3.01-1.5,6.42-2.26,10.24-2.26,4.53,0,8.41,1.03,11.63,3.08,3.22,2.05,5.6,4.72,7.12,8.02l-3.94,2.43c-.81-1.67-1.8-3.08-2.97-4.23-1.17-1.15-2.42-2.08-3.76-2.79-1.34-.71-2.72-1.23-4.15-1.54-1.43-.31-2.84-.47-4.22-.47-3.06,0-5.75.62-8.09,1.86-2.34,1.24-4.31,2.86-5.91,4.87-1.6,2-2.81,4.26-3.62,6.77-.81,2.51-1.22,5.05-1.22,7.62,0,2.82.49,5.51,1.47,8.09.98,2.58,2.31,4.86,4.01,6.84,1.69,1.98,3.7,3.56,6.01,4.72,2.32,1.17,4.83,1.75,7.55,1.75,1.43,0,2.9-.18,4.4-.54,1.5-.36,2.96-.93,4.37-1.72,1.41-.79,2.71-1.77,3.9-2.94,1.19-1.17,2.19-2.59,3.01-4.26l4.15,2.15c-.81,1.91-1.96,3.59-3.44,5.05-1.48,1.46-3.13,2.69-4.94,3.69-1.81,1-3.74,1.77-5.76,2.29-2.03.52-4.02.79-5.98.79-3.49,0-6.68-.76-9.59-2.29-2.91-1.53-5.42-3.52-7.52-5.98-2.1-2.46-3.74-5.25-4.9-8.38-1.17-3.13-1.75-6.31-1.75-9.56" class="cls-1"/><polygon points="714.01 202.45 695.9 202.45 695.9 248.85 690.89 248.85 690.89 202.45 672.77 202.45 672.77 198.01 714.01 198.01 714.01 202.45" class="cls-1"/></g></g></svg>