<?xml version="1.0" encoding="UTF-8" standalone="no"?>
<svg
   version="1.1"
   viewBox="0 0 708.03003 286"
   id="svg1529"
   width="708.03003"
   height="286"
   xmlns="http://www.w3.org/2000/svg"
   xmlns:svg="http://www.w3.org/2000/svg">
  <defs
     id="defs1395">
    <style
       id="style1393">
      .cls-1 {
        fill: none;
        stroke: #848582;
        stroke-width: 2px;
      }

      .cls-2 {
        fill: #663367;
      }

      .cls-2, .cls-3, .cls-4, .cls-5, .cls-6, .cls-7 {
        stroke-width: 0px;
      }

      .cls-3 {
        fill: #b53c2c;
      }

      .cls-4 {
        fill: #e99b24;
      }

      .cls-5 {
        fill: #848582;
      }

      .cls-6 {
        fill: #5064ad;
      }

      .cls-7 {
        fill: #848582;
      }
    </style>
  </defs>
  <g
     id="Layer_2"
     data-name="Layer 2"
     transform="translate(-5.98,-7)">
    <path
       class="cls-5"
       d="m 213.45,145.24 h -47.72 v 3.94 c 0.02,4.77 2.92,7.69 7.67,7.69 10.39,-0.02 20.77,-0.05 31.18,-0.07 0.94,-0.02 1.93,-0.05 2.86,-0.3 5.73,-1.52 6.79,-6.26 6.01,-11.26 z"
       id="path1397" />
    <path
       class="cls-5"
       d="m 223.7,86.73 c -1.73,-1.75 -3.87,-2.63 -6.42,-2.63 -2.76,0 -5.02,0.85 -6.77,2.58 -0.85,0.83 -1.5,1.8 -1.91,2.88 h -57.66 v 92.53 h 7.48 c 0,0 0,-85.04 0,-85.04 h 28.97 c 0,3.34 0,6.68 -0.05,10.02 -0.02,0.64 -0.12,1.34 -0.32,1.93 -3.43,9.7 -6.89,19.37 -10.27,29.04 -0.3,0.85 -0.67,1.13 -1.52,1.11 -2.99,-0.05 -5.96,0 -8.94,0.02 -0.99,0 -1.38,0.39 -1.38,1.27 0,0.88 0.44,1.29 1.5,1.27 2.86,0 5.69,-0.07 8.54,-0.09 12.9,-0.05 25.79,-0.12 38.71,-0.16 1.17,0 1.73,-0.44 1.7,-1.29 -0.03,-0.85 -0.51,-1.22 -1.66,-1.22 -2.46,0 -4.91,0 -7.35,0.05 -0.71,0.02 -1.04,-0.21 -1.31,-0.88 -4.1,-9.67 -8.2,-19.32 -12.3,-28.99 -0.14,-0.3 -0.21,-0.62 -0.21,-0.94 V 97.07 h 16.07 c 0.39,0.94 0.97,1.84 1.7,2.69 1.64,1.84 3.91,2.79 6.86,2.79 2.6,0 4.79,-0.88 6.52,-2.65 1.73,-1.75 2.6,-3.94 2.6,-6.61 0,-2.67 -0.88,-4.77 -2.6,-6.54 z m -23.08,52.21 h -19.55 c 2.92,-8.24 5.85,-16.51 8.77,-24.76 h 0.25 c 3.5,8.2 6.98,16.4 10.52,24.76 z M 219.9,96.42 c -0.78,0.88 -1.7,1.31 -2.76,1.31 -1.06,0 -2.05,-0.44 -2.83,-1.34 -0.78,-0.9 -1.17,-1.98 -1.17,-3.25 0,-1.17 0.41,-2.16 1.2,-2.99 0.78,-0.85 1.73,-1.27 2.81,-1.27 1.08,0 1.98,0.46 2.76,1.34 0.78,0.9 1.17,1.93 1.17,3.13 0,1.2 -0.39,2.19 -1.17,3.06 z"
       id="path1399" />
    <g
       id="g1405">
      <path
         class="cls-5"
         d="M 68.16,165.83 H 20.45 c 0,1.43 -0.02,2.67 0,3.91 0,4.77 2.92,7.69 7.65,7.69 10.39,-0.02 20.79,-0.05 31.18,-0.07 0.94,0 1.93,-0.05 2.86,-0.3 5.73,-1.52 6.79,-6.26 6.03,-11.24 z"
         id="path1401" />
      <path
         class="cls-5"
         d="m 23.88,110.31 c -0.44,-1.22 -1.13,-2.33 -2.07,-3.29 -1.75,-1.75 -3.89,-2.63 -6.45,-2.63 -2.74,0 -5,0.85 -6.75,2.58 -1.75,1.73 -2.63,3.96 -2.63,6.68 0,2.39 0.81,4.51 2.44,6.38 1.64,1.84 3.91,2.79 6.86,2.79 2.6,0 4.77,-0.88 6.52,-2.63 0.71,-0.74 1.27,-1.52 1.7,-2.4 h 18.56 c 0,3.27 0,6.56 -0.05,9.83 0,0.64 -0.12,1.34 -0.32,1.93 -3.41,9.69 -6.86,19.34 -10.27,29.04 -0.3,0.85 -0.64,1.11 -1.52,1.11 -2.97,-0.05 -5.96,0 -8.94,0.02 -0.97,0 -1.38,0.39 -1.38,1.27 0.02,0.88 0.46,1.27 1.52,1.27 2.83,-0.02 5.69,-0.07 8.52,-0.09 12.9,-0.07 25.81,-0.12 38.71,-0.16 1.2,-0.02 1.73,-0.44 1.7,-1.31 0,-0.83 -0.48,-1.2 -1.66,-1.2 -2.44,0 -4.91,-0.02 -7.35,0.05 -0.69,0 -1.04,-0.21 -1.31,-0.88 -4.08,-9.67 -8.2,-19.32 -12.3,-28.99 -0.12,-0.3 -0.21,-0.64 -0.21,-0.97 0,-3.62 0,-7.28 0.02,-10.92 h 28.92 v 64.29 h 7.48 c 0,0 0,-71.78 0,-71.78 H 23.88 Z m -5.87,6.4 c -0.81,0.88 -1.7,1.31 -2.76,1.31 -1.06,0 -2.05,-0.44 -2.83,-1.34 -0.78,-0.9 -1.17,-1.98 -1.17,-3.25 0,-1.15 0.39,-2.16 1.2,-2.99 0.78,-0.83 1.73,-1.27 2.81,-1.27 1.08,0 1.96,0.46 2.76,1.34 0.78,0.9 1.17,1.93 1.17,3.13 0,1.2 -0.39,2.21 -1.17,3.06 z M 55.34,159.5 H 35.79 c 2.92,-8.24 5.85,-16.51 8.77,-24.76 0.07,0 0.16,0 0.25,-0.02 3.48,8.2 6.95,16.42 10.52,24.78 z"
         id="path1403" />
    </g>
    <path
       class="cls-5"
       d="m 105.25,33.49 c -1.73,-1.75 -3.87,-2.63 -6.42,-2.63 -2.74,0 -5,0.85 -6.75,2.58 -1.77,1.73 -2.65,3.96 -2.65,6.68 0,2.39 0.83,4.51 2.46,6.38 0.83,0.94 1.84,1.66 3.02,2.1 v 133.5 h 7.48 V 48.59 c 1.06,-0.44 2,-1.08 2.86,-1.96 1.75,-1.75 2.6,-3.94 2.6,-6.61 0,-2.67 -0.85,-4.77 -2.6,-6.54 z m -3.8,9.69 c -0.78,0.88 -1.7,1.31 -2.74,1.31 -1.11,0 -2.05,-0.44 -2.83,-1.34 -0.78,-0.9 -1.17,-1.98 -1.17,-3.25 0,-1.17 0.39,-2.16 1.17,-2.99 0.78,-0.85 1.73,-1.27 2.83,-1.27 1.04,0 1.96,0.46 2.74,1.34 0.81,0.9 1.2,1.93 1.2,3.13 0,1.2 -0.39,2.19 -1.2,3.06 z"
       id="path1407" />
    <path
       class="cls-5"
       d="m 126.52,16.19 c 0,-2.6 -0.88,-4.79 -2.6,-6.54 C 122.17,7.88 120.03,7 117.47,7 c -2.74,0 -5,0.88 -6.75,2.6 -1.75,1.72 -2.63,3.94 -2.63,6.66 0,2.42 0.81,4.54 2.44,6.38 0.88,1.01 1.96,1.73 3.22,2.19 h -0.21 v 157.31 h 7.48 V 24.82 h -0.25 c 1.17,-0.41 2.21,-1.11 3.13,-2.03 1.73,-1.75 2.6,-3.96 2.6,-6.61 z m -6.4,3.15 c -0.81,0.88 -1.73,1.29 -2.76,1.29 -1.11,0 -2.05,-0.44 -2.83,-1.34 -0.78,-0.88 -1.17,-1.96 -1.17,-3.22 0,-1.17 0.39,-2.16 1.17,-3.02 0.81,-0.83 1.73,-1.24 2.83,-1.24 1.04,0 1.96,0.44 2.76,1.34 0.78,0.9 1.17,1.93 1.17,3.11 0,1.18 -0.39,2.21 -1.17,3.09 z"
       id="path1409" />
    <path
       class="cls-5"
       d="m 142.55,55 c -1.73,-1.75 -3.89,-2.65 -6.45,-2.65 -2.74,0 -5,0.88 -6.75,2.6 -1.75,1.73 -2.63,3.94 -2.63,6.68 0,2.39 0.81,4.51 2.44,6.38 0.83,0.94 1.84,1.64 3.02,2.1 V 182.1 h 7.48 V 70.11 c 1.06,-0.44 2.03,-1.11 2.88,-1.96 1.73,-1.75 2.6,-3.96 2.6,-6.61 0,-2.65 -0.88,-4.79 -2.6,-6.54 z m -3.8,9.69 c -0.78,0.88 -1.7,1.31 -2.76,1.31 -1.06,0 -2.05,-0.46 -2.83,-1.34 -0.78,-0.9 -1.17,-1.98 -1.17,-3.25 0,-1.17 0.39,-2.16 1.2,-2.99 0.78,-0.85 1.73,-1.27 2.81,-1.27 1.08,0 1.98,0.44 2.76,1.34 0.78,0.9 1.17,1.93 1.17,3.13 0,1.2 -0.39,2.19 -1.17,3.06 z"
       id="path1411" />
    <rect
       class="cls-5"
       x="150.94"
       y="266.32001"
       width="7.4099998"
       height="26.68"
       id="rect1413" />
    <rect
       class="cls-5"
       x="76.160004"
       y="266.32001"
       width="7.4099998"
       height="26.68"
       id="rect1415" />
    <rect
       class="cls-5"
       x="94.849998"
       y="266.32001"
       width="7.4099998"
       height="26.68"
       id="rect1417" />
    <rect
       class="cls-5"
       x="113.55"
       y="266.32001"
       width="7.4099998"
       height="26.68"
       id="rect1419" />
    <rect
       class="cls-5"
       x="132.24001"
       y="266.32001"
       width="7.4099998"
       height="26.68"
       id="rect1421" />
  </g>
  <g
     id="Layer_3"
     data-name="Layer 3"
     transform="translate(-5.98,-7)">
    <g
       id="g1496">
      <path
         class="cls-1"
         d="m 537.62,285.27 c 2.86,0 5.19,-2.32 5.19,-5.19 0,-2.87 -2.32,-5.19 -5.19,-5.19 -2.87,0 -5.19,2.32 -5.19,5.19 0,2.87 2.32,5.19 5.19,5.19 z"
         id="path1424" />
      <circle
         class="cls-1"
         cx="417.87"
         cy="280.07999"
         r="5.1900001"
         transform="rotate(-67.5,417.86638,280.08613)"
         id="circle1426" />
      <g
         id="g1442">
        <g
           id="g1432">
          <path
             class="cls-6"
             d="m 429.81,290.74 v -21.38 h 9.45 c 0.98,0 1.89,0.21 2.72,0.62 0.83,0.41 1.55,0.95 2.15,1.63 0.6,0.67 1.07,1.44 1.42,2.29 0.34,0.85 0.51,1.71 0.51,2.57 0,1.38 -0.35,2.64 -1.04,3.78 -0.69,1.13 -1.63,1.95 -2.82,2.45 l 4.88,8.04 h -4.67 l -4.37,-7.17 h -4.09 v 7.17 h -4.15 z m 4.16,-10.81 h 5.21 c 0.38,0 0.74,-0.09 1.07,-0.27 0.33,-0.18 0.62,-0.43 0.86,-0.74 0.24,-0.31 0.43,-0.68 0.57,-1.1 0.14,-0.42 0.21,-0.87 0.21,-1.35 0,-0.48 -0.08,-0.96 -0.24,-1.39 -0.16,-0.42 -0.38,-0.79 -0.65,-1.1 -0.27,-0.31 -0.58,-0.55 -0.93,-0.72 C 439.72,273.09 439.36,273 439,273 h -5.03 v 6.92 z"
             id="path1428" />
          <path
             class="cls-6"
             d="m 464.68,287.1 v 3.64 h -14.84 v -21.38 h 14.57 V 273 h -10.42 v 5.15 h 9 v 3.37 h -9 v 5.57 h 10.69 z"
             id="path1430" />
        </g>
        <g
           id="g1438">
          <path
             class="cls-6"
             d="m 466.18,279.9 c 0,-1.3 0.24,-2.59 0.71,-3.87 0.47,-1.27 1.16,-2.41 2.06,-3.42 0.9,-1 2.01,-1.82 3.31,-2.44 1.3,-0.62 2.79,-0.93 4.46,-0.93 1.97,0 3.67,0.43 5.1,1.29 1.43,0.86 2.5,1.99 3.21,3.37 l -3.19,2.2 c -0.28,-0.6 -0.62,-1.11 -1.02,-1.52 -0.4,-0.41 -0.83,-0.74 -1.29,-0.98 -0.46,-0.24 -0.94,-0.42 -1.45,-0.53 -0.5,-0.11 -0.99,-0.17 -1.48,-0.17 -1.04,0 -1.95,0.21 -2.72,0.63 -0.77,0.42 -1.42,0.97 -1.93,1.64 -0.51,0.67 -0.9,1.44 -1.16,2.29 -0.26,0.85 -0.39,1.7 -0.39,2.54 0,0.94 0.15,1.85 0.45,2.72 0.3,0.87 0.73,1.64 1.28,2.3 0.55,0.66 1.21,1.19 1.99,1.6 0.77,0.4 1.62,0.6 2.54,0.6 0.48,0 0.98,-0.06 1.51,-0.18 0.52,-0.12 1.02,-0.31 1.49,-0.57 0.47,-0.26 0.91,-0.6 1.31,-1.01 0.4,-0.41 0.72,-0.91 0.96,-1.49 l 3.4,1.96 c -0.34,0.8 -0.83,1.51 -1.46,2.12 -0.63,0.61 -1.34,1.13 -2.14,1.55 -0.79,0.42 -1.64,0.74 -2.54,0.96 -0.9,0.22 -1.79,0.33 -2.65,0.33 -1.53,0 -2.92,-0.32 -4.18,-0.96 -1.26,-0.64 -2.35,-1.48 -3.27,-2.51 -0.91,-1.03 -1.63,-2.21 -2.14,-3.52 -0.51,-1.31 -0.77,-2.65 -0.77,-4.02 z"
             id="path1434" />
          <path
             class="cls-6"
             d="m 493.91,269.36 h 3.67 l 8.13,21.38 h -4.28 l -1.99,-5.33 h -7.47 l -1.96,5.33 h -4.28 l 8.16,-21.38 z m 4.79,13.13 -2.95,-8.4 -3.07,8.4 z"
             id="path1436" />
        </g>
        <path
           class="cls-6"
           d="m 508.06,290.74 v -21.38 h 9.06 c 0.98,0 1.89,0.21 2.72,0.62 0.83,0.41 1.55,0.95 2.15,1.63 0.6,0.67 1.07,1.44 1.41,2.29 0.34,0.85 0.51,1.71 0.51,2.57 0,0.86 -0.16,1.78 -0.48,2.63 -0.32,0.85 -0.77,1.61 -1.35,2.27 -0.58,0.66 -1.28,1.19 -2.11,1.6 -0.82,0.4 -1.73,0.6 -2.71,0.6 h -5.06 v 7.17 h -4.15 z m 4.16,-10.81 h 4.82 c 0.76,0 1.4,-0.31 1.91,-0.93 0.51,-0.62 0.77,-1.47 0.77,-2.53 0,-0.54 -0.08,-1.03 -0.24,-1.46 -0.16,-0.43 -0.37,-0.8 -0.63,-1.1 -0.26,-0.3 -0.57,-0.53 -0.92,-0.68 -0.35,-0.15 -0.71,-0.23 -1.07,-0.23 h -4.64 v 6.92 z"
           id="path1440" />
      </g>
      <g
         id="g1462">
        <path
           class="cls-4"
           d="m 627.73,290.43 c -0.47,0 -0.87,-0.15 -1.21,-0.45 -0.34,-0.3 -0.51,-0.72 -0.51,-1.26 0,-0.46 0.16,-0.85 0.49,-1.18 0.32,-0.33 0.72,-0.5 1.2,-0.5 0.48,0 0.88,0.16 1.21,0.49 0.33,0.33 0.5,0.72 0.5,1.19 0,0.53 -0.17,0.95 -0.5,1.26 -0.33,0.3 -0.73,0.46 -1.18,0.46 z"
           id="path1444" />
        <g
           id="g1460">
          <path
             class="cls-4"
             d="m 565.44,284.96 c 0,0.85 -0.17,1.6 -0.51,2.24 -0.34,0.64 -0.81,1.18 -1.4,1.62 -0.6,0.44 -1.29,0.77 -2.07,0.99 -0.78,0.23 -1.62,0.34 -2.51,0.34 h -9.72 V 270.02 H 560 c 0.7,0 1.33,0.15 1.9,0.45 0.57,0.3 1.05,0.69 1.45,1.18 0.4,0.48 0.7,1.03 0.92,1.64 0.22,0.61 0.33,1.23 0.33,1.86 0,0.98 -0.25,1.9 -0.74,2.76 -0.49,0.86 -1.21,1.5 -2.15,1.91 1.15,0.34 2.06,0.95 2.74,1.83 0.67,0.88 1.01,1.98 1.01,3.3 z m -12.3,-11.6 v 5.07 h 5.22 c 0.66,0 1.22,-0.23 1.69,-0.68 0.46,-0.45 0.69,-1.08 0.69,-1.87 0,-0.79 -0.21,-1.39 -0.64,-1.84 -0.43,-0.45 -0.95,-0.68 -1.57,-0.68 z m 8.36,10.86 c 0,-0.36 -0.06,-0.7 -0.18,-1.03 -0.12,-0.33 -0.29,-0.62 -0.5,-0.86 -0.21,-0.25 -0.45,-0.44 -0.74,-0.58 -0.28,-0.14 -0.6,-0.21 -0.94,-0.21 h -6.01 v 5.3 h 5.81 c 0.36,0 0.69,-0.07 1.01,-0.2 0.31,-0.13 0.58,-0.32 0.81,-0.55 0.23,-0.24 0.41,-0.51 0.54,-0.84 0.13,-0.32 0.2,-0.66 0.2,-1.02 z"
             id="path1446" />
          <path
             class="cls-4"
             d="m 577.66,290.29 c -1.47,0 -2.81,-0.29 -4.01,-0.86 -1.2,-0.58 -2.23,-1.34 -3.09,-2.3 -0.86,-0.95 -1.53,-2.05 -2,-3.27 -0.47,-1.23 -0.71,-2.48 -0.71,-3.77 0,-1.29 0.25,-2.63 0.75,-3.86 0.5,-1.23 1.19,-2.31 2.07,-3.26 0.88,-0.94 1.92,-1.7 3.13,-2.25 1.21,-0.56 2.52,-0.84 3.94,-0.84 1.42,0 2.78,0.3 3.98,0.89 1.2,0.6 2.23,1.37 3.08,2.34 0.85,0.96 1.51,2.06 1.98,3.29 0.47,1.23 0.71,2.48 0.71,3.74 0,1.34 -0.25,2.62 -0.74,3.84 -0.49,1.22 -1.17,2.3 -2.04,3.23 -0.87,0.94 -1.91,1.68 -3.12,2.24 -1.21,0.56 -2.52,0.84 -3.94,0.84 z m -5.84,-10.21 c 0,0.87 0.13,1.71 0.4,2.52 0.26,0.81 0.65,1.53 1.15,2.15 0.5,0.62 1.11,1.12 1.84,1.5 0.73,0.38 1.55,0.57 2.48,0.57 0.93,0 1.78,-0.19 2.51,-0.58 0.73,-0.39 1.34,-0.9 1.84,-1.55 0.5,-0.64 0.88,-1.37 1.13,-2.17 0.26,-0.8 0.38,-1.62 0.38,-2.45 0,-0.83 -0.14,-1.71 -0.41,-2.52 -0.27,-0.81 -0.66,-1.53 -1.16,-2.15 -0.5,-0.62 -1.12,-1.12 -1.84,-1.49 -0.73,-0.37 -1.55,-0.55 -2.45,-0.55 -0.9,0 -1.79,0.19 -2.52,0.58 -0.74,0.39 -1.35,0.9 -1.84,1.53 -0.49,0.63 -0.86,1.35 -1.12,2.15 -0.26,0.8 -0.38,1.62 -0.38,2.45 z"
             id="path1448" />
          <path
             class="cls-4"
             d="m 605.19,273.45 h -6.44 v 16.7 h -3.88 v -16.7 h -6.44 v -3.43 h 16.75 v 3.43 z"
             id="path1450" />
          <path
             class="cls-4"
             d="m 620.17,275.22 c -0.13,-0.13 -0.38,-0.31 -0.73,-0.53 -0.35,-0.22 -0.78,-0.44 -1.28,-0.65 -0.5,-0.21 -1.05,-0.39 -1.64,-0.53 -0.59,-0.14 -1.18,-0.21 -1.79,-0.2 -1.08,0.01 -1.88,0.22 -2.4,0.63 -0.52,0.4 -0.78,0.97 -0.77,1.68 0,0.42 0.11,0.76 0.31,1.03 0.2,0.27 0.49,0.51 0.87,0.71 0.38,0.2 0.86,0.39 1.44,0.55 0.58,0.16 1.25,0.33 2.01,0.51 0.99,0.25 1.88,0.52 2.69,0.81 0.81,0.29 1.49,0.66 2.06,1.11 0.56,0.45 1,0.98 1.31,1.61 0.31,0.63 0.47,1.41 0.49,2.33 0.01,1.08 -0.18,2 -0.57,2.77 -0.4,0.77 -0.94,1.4 -1.62,1.88 -0.68,0.48 -1.47,0.84 -2.37,1.07 -0.89,0.23 -1.83,0.35 -2.82,0.36 -1.51,0.02 -3.01,-0.19 -4.49,-0.62 -1.48,-0.43 -2.81,-1.06 -3.99,-1.87 l 1.68,-3.4 c 0.17,0.17 0.48,0.39 0.93,0.65 0.45,0.27 0.98,0.54 1.58,0.8 0.61,0.27 1.28,0.49 2.02,0.67 0.74,0.18 1.5,0.26 2.27,0.25 2.15,-0.03 3.22,-0.73 3.2,-2.11 0,-0.43 -0.13,-0.8 -0.38,-1.1 -0.25,-0.3 -0.6,-0.56 -1.06,-0.78 -0.46,-0.22 -1.01,-0.42 -1.65,-0.6 -0.65,-0.18 -1.37,-0.38 -2.16,-0.59 -0.97,-0.25 -1.81,-0.53 -2.52,-0.83 -0.71,-0.3 -1.31,-0.66 -1.79,-1.08 -0.48,-0.42 -0.84,-0.91 -1.08,-1.46 -0.24,-0.55 -0.37,-1.22 -0.38,-1.99 -0.01,-1.02 0.16,-1.93 0.53,-2.73 0.37,-0.8 0.88,-1.47 1.55,-2.01 0.66,-0.54 1.44,-0.95 2.32,-1.24 0.88,-0.29 1.84,-0.44 2.86,-0.45 1.42,-0.02 2.72,0.19 3.92,0.61 1.2,0.43 2.24,0.94 3.14,1.53 l -1.69,3.2 z"
             id="path1452" />
          <path
             class="cls-4"
             d="m 634.31,290.15 v -20.13 h 1.98 v 18.37 h 11.62 v 1.76 H 634.3 Z"
             id="path1454" />
          <path
             class="cls-4"
             d="m 657.64,270.02 h 1.67 l 8.36,20.13 h -2.1 l -2.61,-6.29 h -9.04 l -2.58,6.29 h -2.13 l 8.42,-20.13 z m 4.88,12.27 -4.05,-9.95 -4.11,9.95 z"
             id="path1456" />
          <path
             class="cls-4"
             d="m 676.98,270.16 h 1.87 l 2.83,7.14 2.86,-7.14 h 1.9 l -3.52,8.59 3.86,9.1 7.29,-17.83 h 2.15 l -8.53,20.13 h -1.76 l -4.22,-9.95 -4.25,9.95 h -1.73 l -8.5,-20.13 h 2.13 l 7.31,17.83 3.83,-9.1 z"
             id="path1458" />
        </g>
      </g>
      <g
         id="g1494">
        <g
           id="g1472">
          <path
             class="cls-3"
             d="m 167.24,279.92 c 0,-1.3 0.24,-2.59 0.71,-3.86 0.47,-1.27 1.16,-2.41 2.06,-3.41 0.9,-1 2,-1.81 3.31,-2.44 1.3,-0.62 2.79,-0.93 4.45,-0.93 1.96,0 3.66,0.43 5.1,1.29 1.43,0.86 2.5,1.98 3.2,3.37 l -3.19,2.19 c -0.28,-0.6 -0.62,-1.11 -1.02,-1.52 -0.4,-0.41 -0.83,-0.74 -1.29,-0.98 -0.46,-0.24 -0.94,-0.42 -1.44,-0.53 -0.5,-0.11 -0.99,-0.17 -1.47,-0.17 -1.04,0 -1.95,0.21 -2.72,0.63 -0.77,0.42 -1.41,0.97 -1.92,1.64 -0.51,0.67 -0.9,1.43 -1.16,2.29 -0.26,0.85 -0.39,1.7 -0.39,2.54 0,0.94 0.15,1.85 0.45,2.72 0.3,0.87 0.73,1.64 1.28,2.3 0.55,0.66 1.21,1.19 1.98,1.59 0.77,0.4 1.62,0.6 2.54,0.6 0.48,0 0.98,-0.06 1.5,-0.18 0.52,-0.12 1.02,-0.31 1.49,-0.57 0.47,-0.26 0.91,-0.6 1.31,-1.01 0.4,-0.41 0.72,-0.91 0.96,-1.49 l 3.4,1.95 c -0.34,0.8 -0.83,1.51 -1.46,2.12 -0.63,0.61 -1.34,1.13 -2.13,1.55 -0.79,0.42 -1.64,0.74 -2.54,0.96 -0.9,0.22 -1.78,0.33 -2.65,0.33 -1.52,0 -2.92,-0.32 -4.18,-0.96 -1.26,-0.64 -2.35,-1.48 -3.26,-2.51 -0.91,-1.03 -1.62,-2.2 -2.13,-3.52 -0.51,-1.31 -0.77,-2.65 -0.77,-4.01 z"
             id="path1464" />
          <path
             class="cls-3"
             d="m 198.27,290.89 c -1.56,0 -2.98,-0.31 -4.25,-0.92 -1.27,-0.61 -2.37,-1.42 -3.28,-2.44 -0.91,-1.01 -1.62,-2.17 -2.12,-3.47 -0.5,-1.3 -0.75,-2.64 -0.75,-4 0,-1.36 0.27,-2.79 0.8,-4.09 0.53,-1.3 1.26,-2.46 2.19,-3.46 0.93,-1 2.04,-1.8 3.32,-2.39 1.28,-0.59 2.68,-0.89 4.18,-0.89 1.5,0 2.95,0.32 4.22,0.95 1.27,0.63 2.36,1.46 3.26,2.48 0.9,1.02 1.6,2.18 2.1,3.49 0.5,1.3 0.75,2.63 0.75,3.97 0,1.42 -0.26,2.78 -0.78,4.07 -0.52,1.29 -1.24,2.44 -2.16,3.43 -0.92,0.99 -2.02,1.78 -3.31,2.38 -1.28,0.59 -2.68,0.89 -4.18,0.89 z m -6.2,-10.82 c 0,0.92 0.14,1.81 0.42,2.68 0.28,0.86 0.69,1.62 1.22,2.29 0.53,0.66 1.18,1.19 1.95,1.59 0.77,0.4 1.65,0.6 2.63,0.6 0.98,0 1.89,-0.21 2.66,-0.62 0.77,-0.41 1.42,-0.96 1.95,-1.64 0.53,-0.68 0.93,-1.45 1.2,-2.3 0.27,-0.85 0.41,-1.72 0.41,-2.6 0,-0.88 -0.15,-1.81 -0.44,-2.68 -0.29,-0.86 -0.7,-1.62 -1.23,-2.29 -0.53,-0.66 -1.18,-1.19 -1.95,-1.58 -0.77,-0.39 -1.64,-0.59 -2.6,-0.59 -0.96,0 -1.89,0.21 -2.68,0.62 -0.78,0.41 -1.43,0.95 -1.95,1.62 -0.52,0.67 -0.92,1.43 -1.19,2.29 -0.27,0.85 -0.41,1.72 -0.41,2.6 z"
             id="path1466" />
          <path
             class="cls-3"
             d="m 220.91,287.22 c 0.98,0 1.81,-0.2 2.48,-0.6 0.67,-0.4 1.21,-0.92 1.62,-1.56 0.41,-0.64 0.7,-1.38 0.87,-2.21 0.17,-0.83 0.26,-1.69 0.26,-2.57 V 269.4 h 4.12 v 10.88 c 0,1.46 -0.18,2.84 -0.53,4.12 -0.35,1.28 -0.9,2.41 -1.65,3.37 -0.75,0.96 -1.72,1.72 -2.9,2.29 -1.18,0.56 -2.6,0.84 -4.24,0.84 -1.64,0 -3.15,-0.3 -4.34,-0.89 -1.19,-0.59 -2.16,-1.37 -2.9,-2.35 -0.74,-0.97 -1.28,-2.1 -1.61,-3.38 -0.33,-1.28 -0.5,-2.62 -0.5,-4 V 269.4 h 4.15 v 10.88 c 0,0.9 0.09,1.77 0.26,2.6 0.17,0.83 0.46,1.57 0.87,2.21 0.41,0.64 0.95,1.16 1.61,1.55 0.66,0.39 1.47,0.59 2.44,0.59 z"
             id="path1468" />
          <path
             class="cls-3"
             d="m 234.44,290.74 v -21.35 h 9.44 c 0.98,0 1.89,0.21 2.72,0.62 0.83,0.41 1.55,0.95 2.15,1.62 0.6,0.67 1.07,1.43 1.41,2.29 0.34,0.85 0.51,1.71 0.51,2.57 0,1.38 -0.35,2.64 -1.04,3.77 -0.69,1.13 -1.63,1.95 -2.81,2.45 l 4.87,8.03 h -4.66 l -4.36,-7.16 h -4.09 v 7.16 h -4.15 z m 4.15,-10.79 h 5.2 c 0.38,0 0.74,-0.09 1.07,-0.27 0.33,-0.18 0.62,-0.43 0.86,-0.74 0.24,-0.31 0.43,-0.68 0.57,-1.1 0.14,-0.42 0.21,-0.87 0.21,-1.35 0,-0.48 -0.08,-0.96 -0.24,-1.38 -0.16,-0.42 -0.38,-0.79 -0.65,-1.1 -0.27,-0.31 -0.58,-0.55 -0.93,-0.72 -0.35,-0.17 -0.71,-0.26 -1.07,-0.26 h -5.02 z"
             id="path1470" />
        </g>
        <path
           class="cls-3"
           d="m 269.86,273.03 h -6.82 v 17.71 h -4.12 v -17.71 h -6.83 v -3.64 h 17.77 z"
           id="path1474" />
        <g
           id="g1492">
          <path
             class="cls-3"
             d="m 277.82,290.74 v -21.35 h 2.1 v 19.48 h 12.33 v 1.86 h -14.43 z"
             id="path1476" />
          <path
             class="cls-3"
             d="m 293.85,290.74 v -21.35 h 2.1 v 21.35 z"
             id="path1478" />
          <path
             class="cls-3"
             d="m 312.28,273.39 c -0.6,-0.68 -1.4,-1.23 -2.41,-1.65 -1,-0.42 -2.15,-0.63 -3.43,-0.63 -1.88,0 -3.26,0.36 -4.12,1.07 -0.86,0.71 -1.29,1.68 -1.29,2.9 0,0.64 0.12,1.17 0.35,1.58 0.23,0.41 0.59,0.77 1.07,1.07 0.48,0.3 1.1,0.56 1.85,0.78 0.75,0.22 1.64,0.44 2.66,0.66 1.14,0.24 2.17,0.51 3.08,0.81 0.91,0.3 1.69,0.68 2.33,1.13 0.64,0.45 1.13,1 1.47,1.64 0.34,0.64 0.51,1.44 0.51,2.41 0,0.97 -0.19,1.83 -0.57,2.56 -0.38,0.72 -0.91,1.32 -1.59,1.8 -0.68,0.48 -1.49,0.84 -2.44,1.07 -0.94,0.23 -1.97,0.35 -3.1,0.35 -3.31,0 -6.16,-1.03 -8.57,-3.1 l 1.05,-1.71 c 0.38,0.4 0.84,0.78 1.37,1.14 0.53,0.36 1.12,0.68 1.77,0.95 0.65,0.27 1.35,0.48 2.09,0.63 0.74,0.15 1.52,0.23 2.35,0.23 1.7,0 3.03,-0.31 3.98,-0.92 0.95,-0.61 1.43,-1.54 1.43,-2.78 0,-0.66 -0.14,-1.22 -0.41,-1.67 -0.27,-0.45 -0.68,-0.84 -1.22,-1.17 -0.54,-0.33 -1.21,-0.62 -2.01,-0.86 -0.8,-0.24 -1.73,-0.48 -2.8,-0.72 -1.12,-0.26 -2.1,-0.53 -2.95,-0.81 -0.84,-0.28 -1.55,-0.63 -2.13,-1.05 -0.58,-0.42 -1.02,-0.93 -1.31,-1.52 -0.29,-0.59 -0.44,-1.32 -0.44,-2.18 0,-0.98 0.19,-1.86 0.56,-2.63 0.37,-0.77 0.9,-1.41 1.58,-1.92 0.68,-0.51 1.48,-0.9 2.41,-1.17 0.92,-0.27 1.94,-0.41 3.07,-0.41 1.42,0 2.69,0.22 3.8,0.65 1.11,0.43 2.12,1.04 3.02,1.82 l -1.02,1.68 z"
             id="path1480" />
          <path
             class="cls-3"
             d="m 331.7,271.26 h -7.61 v 19.48 h -2.1 v -19.48 h -7.61 v -1.86 h 17.32 z"
             id="path1482" />
          <path
             class="cls-3"
             d="m 347.73,288.88 v 1.86 h -14.34 v -21.35 h 14.07 v 1.86 h -11.97 v 7.7 h 10.43 v 1.77 h -10.43 v 8.15 h 12.24 z"
             id="path1484" />
          <path
             class="cls-3"
             d="m 352.3,273.3 v 17.44 h -2.1 v -21.35 h 1.62 l 14.13,17.77 v -17.74 h 2.1 v 21.32 h -1.83 z"
             id="path1486" />
          <path
             class="cls-3"
             d="m 386.24,288.88 v 1.86 H 371.9 v -21.35 h 14.07 v 1.86 H 374 v 7.7 h 10.43 v 1.77 H 374 v 8.15 h 12.24 z"
             id="path1488" />
          <path
             class="cls-3"
             d="m 388.71,290.74 v -21.35 h 9.02 c 0.92,0 1.77,0.2 2.54,0.59 0.77,0.39 1.44,0.9 2,1.53 0.56,0.63 1,1.35 1.31,2.15 0.31,0.8 0.47,1.61 0.47,2.44 0,0.83 -0.12,1.53 -0.35,2.24 -0.23,0.71 -0.55,1.35 -0.96,1.92 -0.41,0.57 -0.91,1.05 -1.49,1.44 -0.58,0.39 -1.23,0.66 -1.95,0.8 l 5.23,8.24 h -2.38 l -5.02,-7.88 h -6.31 v 7.88 h -2.1 z m 2.1,-9.74 h 6.98 c 0.62,0 1.19,-0.14 1.7,-0.41 0.51,-0.27 0.95,-0.64 1.31,-1.1 0.36,-0.46 0.64,-0.98 0.84,-1.56 0.2,-0.58 0.3,-1.19 0.3,-1.83 0,-0.64 -0.12,-1.26 -0.35,-1.85 -0.23,-0.59 -0.54,-1.11 -0.93,-1.55 -0.39,-0.44 -0.85,-0.79 -1.38,-1.05 -0.53,-0.26 -1.09,-0.39 -1.67,-0.39 h -6.79 V 281 Z"
             id="path1490" />
        </g>
      </g>
    </g>
    <g
       id="g1526">
      <polygon
         class="cls-2"
         points="110.31,198.01 110.31,206.67 86.04,206.67 86.04,219.78 106.23,219.78 106.23,227.8 86.04,227.8 86.04,248.85 76.16,248.85 76.16,198.01 "
         id="polygon1498" />
      <path
         class="cls-2"
         d="m 117.25,248.85 v -50.83 h 22.48 c 2.34,0 4.5,0.49 6.48,1.47 1.98,0.98 3.69,2.27 5.12,3.87 1.43,1.6 2.55,3.41 3.37,5.44 0.81,2.03 1.22,4.07 1.22,6.12 0,3.29 -0.82,6.29 -2.47,8.99 -1.65,2.7 -3.88,4.64 -6.69,5.84 l 11.6,19.12 h -11.1 l -10.38,-17.04 h -9.74 v 17.04 h -9.88 z m 9.88,-25.71 h 12.39 c 0.91,0 1.75,-0.21 2.54,-0.64 0.79,-0.43 1.47,-1.01 2.04,-1.75 0.57,-0.74 1.03,-1.61 1.36,-2.61 0.33,-1 0.5,-2.08 0.5,-3.22 0,-1.14 -0.19,-2.29 -0.57,-3.29 -0.38,-1 -0.9,-1.87 -1.54,-2.61 -0.64,-0.74 -1.39,-1.31 -2.22,-1.72 -0.84,-0.41 -1.68,-0.61 -2.54,-0.61 h -11.96 v 16.47 z"
         id="path1500" />
      <polygon
         class="cls-2"
         points="164.87,248.85 164.87,198.01 199.52,198.01 199.52,206.67 174.75,206.67 174.75,218.92 196.15,218.92 196.15,226.94 174.75,226.94 174.75,240.18 200.16,240.18 200.16,248.85 "
         id="polygon1502" />
      <polygon
         class="cls-2"
         points="207.9,248.85 207.9,198.01 242.55,198.01 242.55,206.67 217.78,206.67 217.78,218.92 239.18,218.92 239.18,226.94 217.78,226.94 217.78,240.18 243.19,240.18 243.19,248.85 "
         id="polygon1504" />
      <polygon
         class="cls-2"
         points="277.99,198.01 277.99,240.18 303.91,240.18 303.91,248.85 268.11,248.85 268.11,198.01 "
         id="polygon1506" />
      <path
         class="cls-2"
         d="m 324.38,198.01 h 8.74 l 19.33,50.83 h -10.17 l -4.72,-12.67 H 319.8 l -4.65,12.67 h -10.17 z m 11.39,31.22 -7.02,-19.97 -7.3,19.97 z"
         id="path1508" />
      <polygon
         class="cls-2"
         points="381.02,214.98 386.74,198.15 395.91,198.15 387.25,221.28 393.69,237.53 408.08,198.01 418.82,198.01 398.13,248.85 389.82,248.85 381.02,227.51 372.21,248.85 363.9,248.85 343.36,198.01 353.95,198.01 368.41,237.53 374.72,221.28 366.19,198.15 375.29,198.15 "
         id="polygon1510" />
      <path
         class="cls-5"
         d="m 431.27,248.85 v -50.83 h 21.05 c 2.19,0 4.21,0.47 6.05,1.4 1.84,0.93 3.42,2.15 4.76,3.65 1.34,1.5 2.39,3.21 3.15,5.12 0.76,1.91 1.15,3.84 1.15,5.8 0,2.1 -0.36,4.12 -1.07,6.05 -0.71,1.93 -1.72,3.64 -3.01,5.12 -1.29,1.48 -2.83,2.67 -4.62,3.58 -1.79,0.91 -3.78,1.36 -5.98,1.36 h -16.47 v 18.76 h -5.01 z m 5.02,-23.2 h 16.25 c 1.48,0 2.83,-0.32 4.05,-0.97 1.22,-0.64 2.26,-1.5 3.12,-2.58 0.86,-1.07 1.53,-2.32 2,-3.72 0.48,-1.41 0.71,-2.88 0.71,-4.4 0,-1.52 -0.27,-3.07 -0.82,-4.47 -0.55,-1.41 -1.29,-2.64 -2.22,-3.69 -0.93,-1.05 -2.03,-1.87 -3.29,-2.47 -1.26,-0.6 -2.59,-0.9 -3.97,-0.9 H 436.3 v 23.2 z"
         id="path1512" />
      <path
         class="cls-7"
         d="m 472.23,248.85 v -50.83 h 21.48 c 2.19,0 4.21,0.47 6.05,1.4 1.84,0.93 3.42,2.15 4.76,3.65 1.34,1.5 2.37,3.21 3.11,5.12 0.74,1.91 1.11,3.84 1.11,5.8 0,1.96 -0.27,3.64 -0.82,5.33 -0.55,1.7 -1.31,3.22 -2.29,4.58 -0.98,1.36 -2.16,2.51 -3.54,3.44 -1.39,0.93 -2.93,1.56 -4.65,1.9 l 12.46,19.62 h -5.66 L 492.28,230.1 h -15.03 v 18.76 h -5.01 z m 5.01,-23.2 h 16.61 c 1.48,0 2.83,-0.32 4.05,-0.97 1.22,-0.64 2.25,-1.52 3.11,-2.61 0.86,-1.1 1.53,-2.34 2.01,-3.72 0.48,-1.38 0.72,-2.84 0.72,-4.37 0,-1.53 -0.28,-2.99 -0.82,-4.4 -0.55,-1.41 -1.29,-2.64 -2.22,-3.69 -0.93,-1.05 -2.03,-1.88 -3.29,-2.51 -1.26,-0.62 -2.59,-0.93 -3.97,-0.93 h -16.18 v 23.2 z"
         id="path1514" />
      <path
         class="cls-7"
         d="m 535.88,249.2 c -3.53,0 -6.77,-0.73 -9.7,-2.18 -2.94,-1.46 -5.45,-3.39 -7.55,-5.8 -2.1,-2.41 -3.72,-5.17 -4.87,-8.27 -1.15,-3.1 -1.72,-6.28 -1.72,-9.52 0,-3.24 0.61,-6.63 1.83,-9.74 1.22,-3.1 2.9,-5.85 5.05,-8.23 2.15,-2.39 4.68,-4.28 7.59,-5.69 2.91,-1.41 6.06,-2.11 9.45,-2.11 3.39,0 6.77,0.75 9.7,2.25 2.94,1.5 5.44,3.47 7.52,5.91 2.08,2.43 3.69,5.19 4.83,8.27 1.15,3.08 1.72,6.22 1.72,9.41 0,3.39 -0.61,6.64 -1.83,9.74 -1.22,3.1 -2.89,5.83 -5.01,8.2 -2.12,2.36 -4.64,4.25 -7.55,5.66 -2.91,1.41 -6.06,2.11 -9.45,2.11 m -18.84,-25.78 c 0,2.77 0.45,5.43 1.36,7.98 0.91,2.55 2.19,4.82 3.87,6.8 1.67,1.98 3.65,3.56 5.94,4.72 2.29,1.17 4.84,1.75 7.66,1.75 2.82,0 5.46,-0.62 7.8,-1.86 2.34,-1.24 4.32,-2.86 5.94,-4.87 1.62,-2 2.88,-4.27 3.76,-6.8 0.88,-2.53 1.32,-5.11 1.32,-7.73 0,-2.77 -0.47,-5.43 -1.4,-7.98 -0.93,-2.55 -2.23,-4.81 -3.9,-6.77 -1.67,-1.96 -3.65,-3.52 -5.94,-4.69 -2.29,-1.17 -4.82,-1.75 -7.59,-1.75 -2.77,0 -5.47,0.61 -7.8,1.83 -2.34,1.22 -4.32,2.83 -5.94,4.83 -1.62,2 -2.88,4.27 -3.76,6.8 -0.88,2.53 -1.32,5.11 -1.32,7.73"
         id="path1516" />
      <path
         class="cls-7"
         d="m 559.15,242.47 c 1.05,0.72 2.4,1.34 4.05,1.86 1.65,0.53 3.5,0.79 5.55,0.79 2.58,0 4.64,-0.46 6.19,-1.4 1.55,-0.94 2.73,-2.3 3.54,-4.12 0.81,-1.81 1.34,-4.05 1.58,-6.69 0.24,-2.65 0.36,-5.67 0.36,-9.06 V 198 h 5.01 v 25.85 c 0,3.87 -0.18,7.39 -0.54,10.56 -0.36,3.18 -1.11,5.88 -2.26,8.13 -1.15,2.25 -2.82,3.99 -5.01,5.23 -2.2,1.24 -5.16,1.86 -8.88,1.86 -4.3,0 -7.97,-1.05 -11.02,-3.15 z"
         id="path1518" />
      <polygon
         class="cls-7"
         points="593.95,248.85 593.95,198.01 627.45,198.01 627.45,202.45 598.96,202.45 598.96,220.78 623.8,220.78 623.8,225 598.96,225 598.96,244.41 628.1,244.41 628.1,248.85 "
         id="polygon1520" />
      <path
         class="cls-7"
         d="m 629.53,223.07 c 0,-3.05 0.54,-6.1 1.61,-9.13 1.07,-3.03 2.64,-5.74 4.69,-8.13 2.05,-2.39 4.58,-4.33 7.59,-5.83 3.01,-1.5 6.42,-2.26 10.24,-2.26 4.53,0 8.41,1.03 11.63,3.08 3.22,2.05 5.6,4.72 7.12,8.02 l -3.94,2.43 c -0.81,-1.67 -1.8,-3.08 -2.97,-4.23 -1.17,-1.15 -2.42,-2.08 -3.76,-2.79 -1.34,-0.71 -2.72,-1.23 -4.15,-1.54 -1.43,-0.31 -2.84,-0.47 -4.22,-0.47 -3.06,0 -5.75,0.62 -8.09,1.86 -2.34,1.24 -4.31,2.86 -5.91,4.87 -1.6,2 -2.81,4.26 -3.62,6.77 -0.81,2.51 -1.22,5.05 -1.22,7.62 0,2.82 0.49,5.51 1.47,8.09 0.98,2.58 2.31,4.86 4.01,6.84 1.69,1.98 3.7,3.56 6.01,4.72 2.32,1.17 4.83,1.75 7.55,1.75 1.43,0 2.9,-0.18 4.4,-0.54 1.5,-0.36 2.96,-0.93 4.37,-1.72 1.41,-0.79 2.71,-1.77 3.9,-2.94 1.19,-1.17 2.19,-2.59 3.01,-4.26 l 4.15,2.15 c -0.81,1.91 -1.96,3.59 -3.44,5.05 -1.48,1.46 -3.13,2.69 -4.94,3.69 -1.81,1 -3.74,1.77 -5.76,2.29 -2.03,0.52 -4.02,0.79 -5.98,0.79 -3.49,0 -6.68,-0.76 -9.59,-2.29 -2.91,-1.53 -5.42,-3.52 -7.52,-5.98 -2.1,-2.46 -3.74,-5.25 -4.9,-8.38 -1.17,-3.13 -1.75,-6.31 -1.75,-9.56"
         id="path1522" />
      <polygon
         class="cls-7"
         points="695.9,248.85 690.89,248.85 690.89,202.45 672.77,202.45 672.77,198.01 714.01,198.01 714.01,202.45 695.9,202.45 "
         id="polygon1524" />
    </g>
  </g>
</svg>
