<?xml version="1.0" encoding="utf-8"?>
<!-- Generator: Adobe Illustrator 28.1.0, SVG Export Plug-In . SVG Version: 6.00 Build 0)  -->
<svg version="1.1" xmlns="http://www.w3.org/2000/svg" xmlns:xlink="http://www.w3.org/1999/xlink" x="0px" y="0px"
	 viewBox="0 0 563 253" style="enable-background:new 0 0 563 253;" xml:space="preserve">
<style type="text/css">
	.st0{fill:#663367;}
	.st1{fill:#848582;}
	.st2{fill:none;stroke:#848582;stroke-width:2;}
	.st3{fill:#5064AD;}
	.st4{fill:#E99B24;}
	.st5{fill:#B53C2C;}
</style>
<g id="Layer_1">
	<polygon class="st0" points="64.72,191.85 64.72,153.1 90.76,153.1 90.76,159.7 72.25,159.7 72.25,169.69 87.65,169.69 
		87.65,175.81 72.25,175.81 72.25,191.85 	"/>
	<path class="st0" d="M96.05,191.85V153.1h17.14c1.78,0,3.43,0.37,4.94,1.12c1.51,0.75,2.81,1.73,3.9,2.95
		c1.09,1.22,1.95,2.6,2.57,4.15c0.62,1.55,0.93,3.1,0.93,4.67c0,2.51-0.63,4.79-1.88,6.85c-1.25,2.06-2.96,3.54-5.1,4.45l8.84,14.57
		h-8.46l-7.91-12.99h-7.42v12.99H96.05z M103.59,172.26h9.44c0.69,0,1.34-0.16,1.94-0.49c0.6-0.33,1.12-0.77,1.55-1.34
		c0.44-0.56,0.78-1.23,1.04-1.99c0.25-0.76,0.38-1.58,0.38-2.46c0-0.91-0.15-1.75-0.44-2.51c-0.29-0.76-0.68-1.43-1.17-1.99
		c-0.49-0.56-1.06-1-1.69-1.31c-0.64-0.31-1.28-0.46-1.94-0.46h-9.11V172.26z"/>
	<polygon class="st0" points="159.26,185.25 159.26,191.85 132.35,191.85 132.35,153.1 158.77,153.1 158.77,159.7 139.88,159.7 
		139.88,169.04 156.2,169.04 156.2,175.15 139.88,175.15 139.88,185.25 	"/>
	<polygon class="st0" points="192.06,185.25 192.06,191.85 165.16,191.85 165.16,153.1 191.57,153.1 191.57,159.7 172.69,159.7 
		172.69,169.04 189.01,169.04 189.01,175.15 172.69,175.15 172.69,185.25 	"/>
	<polygon class="st0" points="211.06,191.85 211.06,153.1 218.59,153.1 218.59,185.25 238.35,185.25 238.35,191.85 	"/>
	<path class="st0" d="M253.96,153.1h6.66l14.74,38.75h-7.75l-3.6-9.66h-13.54l-3.55,9.66h-7.75L253.96,153.1z M262.64,176.9
		l-5.35-15.23l-5.57,15.23H262.64z"/>
	<polygon class="st0" points="285.84,153.21 292.77,153.21 297.14,166.04 301.5,153.21 308.49,153.21 301.88,170.84 306.8,183.23 
		317.77,153.1 325.96,153.1 310.18,191.85 303.85,191.85 297.14,175.59 290.42,191.85 284.09,191.85 268.42,153.1 276.5,153.1 
		287.53,183.23 292.33,170.84 	"/>
	<path class="st1" d="M335.45,191.85V153.1h16.05c1.67,0,3.21,0.36,4.61,1.07c1.4,0.71,2.61,1.64,3.63,2.78
		c1.02,1.15,1.82,2.45,2.4,3.9c0.58,1.46,0.87,2.93,0.87,4.42c0,1.6-0.27,3.14-0.82,4.61s-1.31,2.78-2.29,3.9
		c-0.98,1.13-2.15,2.04-3.52,2.73c-1.37,0.69-2.89,1.04-4.56,1.04h-12.55v14.3H335.45z M339.27,174.17h12.39
		c1.13,0,2.16-0.24,3.08-0.74c0.93-0.49,1.72-1.15,2.38-1.96c0.65-0.82,1.16-1.76,1.53-2.84c0.36-1.07,0.55-2.19,0.55-3.36
		c0-1.2-0.21-2.34-0.63-3.41c-0.42-1.07-0.98-2.01-1.69-2.81c-0.71-0.8-1.55-1.43-2.51-1.88c-0.96-0.46-1.97-0.68-3.03-0.68h-12.06
		V174.17z"/>
	<path class="st1" d="M366.67,191.85V153.1h16.38c1.67,0,3.21,0.36,4.61,1.07c1.4,0.71,2.61,1.64,3.63,2.78
		c1.02,1.15,1.81,2.45,2.37,3.9c0.56,1.46,0.85,2.93,0.85,4.42c0,1.42-0.21,2.77-0.63,4.07c-0.42,1.29-1,2.46-1.75,3.49
		c-0.75,1.04-1.65,1.91-2.7,2.62c-1.06,0.71-2.24,1.19-3.55,1.45l9.5,14.96h-4.31l-9.12-14.3h-11.46v14.3H366.67z M370.49,174.17
		h12.66c1.13,0,2.16-0.24,3.08-0.74c0.93-0.49,1.72-1.15,2.37-1.99c0.66-0.84,1.17-1.78,1.53-2.84c0.36-1.05,0.55-2.17,0.55-3.33
		c0-1.16-0.21-2.28-0.63-3.36c-0.42-1.07-0.98-2.01-1.69-2.81c-0.71-0.8-1.55-1.44-2.51-1.91c-0.96-0.47-1.97-0.71-3.03-0.71h-12.34
		V174.17z"/>
	<path class="st1" d="M415.2,192.13c-2.69,0-5.16-0.55-7.4-1.67c-2.24-1.11-4.16-2.58-5.76-4.42c-1.6-1.84-2.84-3.94-3.71-6.31
		c-0.87-2.36-1.31-4.78-1.31-7.26c0-2.58,0.46-5.06,1.39-7.42c0.93-2.36,2.21-4.46,3.85-6.28c1.64-1.82,3.57-3.26,5.79-4.34
		c2.22-1.07,4.62-1.61,7.2-1.61c2.69,0,5.16,0.57,7.4,1.72c2.24,1.15,4.15,2.65,5.73,4.5c1.58,1.86,2.81,3.96,3.68,6.3
		c0.87,2.35,1.31,4.74,1.31,7.18c0,2.58-0.46,5.06-1.39,7.42c-0.93,2.37-2.2,4.45-3.82,6.25c-1.62,1.8-3.54,3.24-5.76,4.31
		S417.78,192.13,415.2,192.13 M400.84,172.48c0,2.11,0.34,4.14,1.04,6.09c0.69,1.95,1.67,3.67,2.95,5.19
		c1.27,1.51,2.78,2.71,4.53,3.6c1.75,0.89,3.69,1.34,5.84,1.34c2.18,0,4.17-0.47,5.95-1.42c1.78-0.95,3.29-2.18,4.53-3.71
		c1.24-1.53,2.19-3.26,2.87-5.18c0.67-1.93,1.01-3.89,1.01-5.9c0-2.11-0.35-4.14-1.06-6.09c-0.71-1.95-1.7-3.67-2.97-5.16
		c-1.27-1.49-2.78-2.68-4.53-3.58c-1.75-0.89-3.67-1.34-5.78-1.34c-2.18,0-4.17,0.46-5.95,1.39c-1.78,0.93-3.29,2.16-4.53,3.68
		c-1.24,1.53-2.19,3.26-2.87,5.18C401.18,168.51,400.84,170.48,400.84,172.48"/>
	<path class="st1" d="M432.94,187c0.8,0.55,1.83,1.02,3.08,1.42c1.26,0.4,2.66,0.6,4.23,0.6c1.97,0,3.54-0.35,4.72-1.06
		s2.08-1.76,2.7-3.14c0.62-1.38,1.02-3.08,1.2-5.1c0.18-2.02,0.27-4.32,0.27-6.9v-19.7h3.82v19.7c0,2.95-0.14,5.63-0.41,8.05
		c-0.27,2.42-0.85,4.49-1.72,6.2c-0.87,1.71-2.15,3.04-3.82,3.98c-1.67,0.95-3.93,1.42-6.77,1.42c-3.28,0-6.08-0.8-8.4-2.4
		L432.94,187z"/>
	<polygon class="st1" points="485.5,188.47 485.5,191.85 459.47,191.85 459.47,153.1 485.01,153.1 485.01,156.48 463.29,156.48 
		463.29,170.46 482.23,170.46 482.23,173.68 463.29,173.68 463.29,188.47 	"/>
	<path class="st1" d="M486.59,172.2c0-2.33,0.41-4.65,1.23-6.96c0.82-2.31,2.01-4.38,3.58-6.2c1.56-1.82,3.49-3.3,5.79-4.45
		c2.29-1.15,4.89-1.72,7.8-1.72c3.46,0,6.41,0.78,8.87,2.35c2.46,1.56,4.27,3.6,5.43,6.11l-3,1.86c-0.62-1.27-1.37-2.35-2.27-3.22
		c-0.89-0.87-1.85-1.58-2.87-2.13c-1.02-0.54-2.07-0.94-3.17-1.17c-1.09-0.24-2.17-0.35-3.22-0.35c-2.33,0-4.39,0.47-6.17,1.42
		c-1.78,0.95-3.28,2.18-4.5,3.71c-1.22,1.53-2.14,3.25-2.76,5.16c-0.62,1.91-0.93,3.85-0.93,5.81c0,2.15,0.37,4.2,1.12,6.17
		c0.75,1.96,1.76,3.7,3.06,5.21c1.29,1.51,2.82,2.71,4.59,3.6c1.76,0.89,3.68,1.34,5.76,1.34c1.09,0,2.21-0.14,3.36-0.41
		c1.15-0.27,2.26-0.71,3.33-1.31c1.07-0.6,2.07-1.35,2.98-2.24c0.91-0.89,1.67-1.97,2.29-3.25l3.17,1.64
		c-0.62,1.46-1.49,2.74-2.62,3.85c-1.13,1.11-2.38,2.05-3.77,2.81c-1.38,0.76-2.85,1.35-4.39,1.75c-1.55,0.4-3.07,0.6-4.56,0.6
		c-2.66,0-5.09-0.58-7.31-1.75c-2.22-1.17-4.13-2.68-5.73-4.56c-1.6-1.87-2.85-4-3.74-6.39
		C487.04,177.11,486.59,174.68,486.59,172.2"/>
	<polygon class="st1" points="551,156.48 537.19,156.48 537.19,191.85 533.37,191.85 533.37,156.48 519.56,156.48 519.56,153.1 
		551,153.1 	"/>
	<path class="st2" d="M416.52,219.62c2.18,0,3.95-1.77,3.95-3.95c0-2.18-1.77-3.95-3.95-3.95c-2.18,0-3.95,1.77-3.95,3.95
		C412.57,217.85,414.34,219.62,416.52,219.62z"/>
	
		<ellipse transform="matrix(0.3827 -0.9239 0.9239 0.3827 1.5188 433.6093)" class="st2" cx="325.23" cy="215.67" rx="3.95" ry="3.95"/>
</g>
<g id="Layer_2">
	<g>
		<path class="st1" d="M170.07,112.91h-36.38v3c0.02,3.63,2.23,5.86,5.85,5.86c7.92-0.02,15.84-0.04,23.77-0.05
			c0.72-0.02,1.47-0.04,2.18-0.23C169.85,120.33,170.66,116.72,170.07,112.91z"/>
		<path class="st1" d="M177.88,68.3c-1.32-1.33-2.95-2-4.9-2c-2.11,0-3.83,0.65-5.16,1.97c-0.65,0.63-1.14,1.37-1.46,2.19H122.4V141
			h5.71V76.16h22.09c0,2.55,0,5.09-0.04,7.64c-0.02,0.49-0.09,1.02-0.25,1.47c-2.62,7.39-5.25,14.76-7.83,22.14
			c-0.23,0.65-0.51,0.86-1.16,0.84c-2.28-0.04-4.55,0-6.81,0.02c-0.75,0-1.05,0.3-1.05,0.97c0,0.67,0.33,0.98,1.14,0.97
			c2.18,0,4.34-0.05,6.51-0.07c9.83-0.04,19.66-0.09,29.51-0.12c0.9,0,1.32-0.33,1.3-0.98c-0.02-0.65-0.39-0.93-1.26-0.93
			c-1.88,0-3.74,0-5.6,0.04c-0.54,0.02-0.79-0.16-1-0.67c-3.13-7.37-6.25-14.73-9.38-22.1c-0.11-0.23-0.16-0.47-0.16-0.72v-8.48
			h12.25c0.3,0.72,0.74,1.4,1.3,2.05c1.25,1.4,2.98,2.12,5.23,2.12c1.98,0,3.65-0.67,4.97-2.02c1.32-1.33,1.98-3,1.98-5.04
			C179.86,71.3,179.19,69.65,177.88,68.3z M160.29,108.1h-14.91c2.23-6.29,4.46-12.59,6.69-18.87h0.19
			C154.93,95.48,157.58,101.73,160.29,108.1z M174.98,75.69c-0.6,0.67-1.3,1-2.11,1c-0.84,0-1.56-0.33-2.16-1.02
			c-0.6-0.68-0.9-1.51-0.9-2.48c0-0.9,0.32-1.65,0.91-2.28c0.6-0.65,1.32-0.97,2.14-0.97c0.81,0,1.51,0.35,2.11,1.02
			c0.6,0.68,0.9,1.47,0.9,2.39C175.88,74.25,175.58,75.02,174.98,75.69z"/>
		<path class="st1" d="M58.74,128.6H22.37c0,1.09-0.02,2.04,0,2.98c0,3.63,2.23,5.86,5.83,5.86c7.92-0.02,15.85-0.04,23.77-0.05
			c0.72,0,1.47-0.04,2.18-0.23C58.51,136.01,59.32,132.4,58.74,128.6z"/>
		<path class="st1" d="M24.98,86.28c-0.33-0.93-0.86-1.77-1.58-2.51c-1.33-1.33-2.97-2-4.92-2c-2.09,0-3.81,0.65-5.14,1.97
			s-2,3.02-2,5.09c0,1.83,0.61,3.44,1.86,4.86c1.25,1.4,2.98,2.12,5.23,2.12c1.98,0,3.63-0.67,4.97-2c0.54-0.56,0.97-1.16,1.3-1.83
			h14.15c0,2.49,0,5-0.04,7.5c0,0.49-0.09,1.02-0.25,1.47c-2.6,7.39-5.23,14.75-7.83,22.14c-0.23,0.65-0.49,0.84-1.16,0.84
			c-2.26-0.04-4.55,0-6.81,0.02c-0.74,0-1.05,0.3-1.05,0.97c0.02,0.67,0.35,0.97,1.16,0.97c2.16-0.02,4.34-0.05,6.5-0.07
			c9.83-0.05,19.68-0.09,29.51-0.12c0.91-0.02,1.32-0.33,1.3-1c0-0.63-0.37-0.91-1.26-0.91c-1.86,0-3.74-0.02-5.6,0.04
			c-0.53,0-0.79-0.16-1-0.67c-3.11-7.37-6.25-14.73-9.38-22.1c-0.09-0.23-0.16-0.49-0.16-0.74c0-2.76,0-5.55,0.02-8.32h22.05V141
			h5.71V86.28H24.98z M20.51,91.16c-0.61,0.67-1.3,1-2.11,1c-0.84,0-1.56-0.33-2.16-1.02c-0.6-0.68-0.9-1.51-0.9-2.48
			c0-0.88,0.3-1.65,0.91-2.28c0.6-0.63,1.32-0.97,2.14-0.97c0.81,0,1.49,0.35,2.11,1.02c0.6,0.68,0.9,1.47,0.9,2.39
			C21.4,89.72,21.1,90.51,20.51,91.16z M48.96,123.78H34.06c2.23-6.29,4.46-12.59,6.69-18.87c0.05,0,0.12,0,0.19-0.02
			C43.59,111.14,46.24,117.4,48.96,123.78z"/>
		<path class="st1" d="M87.11,27.71c-1.32-1.33-2.95-2-4.9-2c-2.09,0-3.81,0.65-5.14,1.97c-1.35,1.32-2.02,3.02-2.02,5.09
			c0,1.83,0.63,3.44,1.88,4.86c0.63,0.72,1.4,1.26,2.3,1.6V141h5.71V39.23c0.81-0.33,1.53-0.83,2.18-1.49
			c1.33-1.33,1.98-3,1.98-5.04C89.1,30.71,88.45,29.06,87.11,27.71z M84.22,35.1c-0.6,0.67-1.3,1-2.09,1
			c-0.84,0-1.56-0.33-2.16-1.02c-0.6-0.68-0.9-1.51-0.9-2.48c0-0.9,0.3-1.65,0.9-2.28c0.6-0.65,1.32-0.97,2.16-0.97
			c0.79,0,1.49,0.35,2.09,1.02c0.61,0.68,0.91,1.47,0.91,2.39C85.13,33.66,84.83,34.43,84.22,35.1z"/>
		<path class="st1" d="M103.51,14.49c0-1.98-0.67-3.65-1.98-4.99c-1.33-1.35-2.97-2.02-4.92-2.02c-2.09,0-3.81,0.67-5.14,1.98
			s-2,3-2,5.07c0,1.84,0.61,3.46,1.86,4.86c0.67,0.77,1.49,1.32,2.46,1.67h-0.16V141h5.71V21.07h-0.19c0.9-0.32,1.69-0.84,2.39-1.54
			C102.84,18.19,103.51,16.51,103.51,14.49z M98.63,16.89c-0.61,0.67-1.32,0.98-2.11,0.98c-0.84,0-1.56-0.33-2.16-1.02
			c-0.6-0.67-0.9-1.49-0.9-2.46c0-0.9,0.3-1.65,0.9-2.3c0.61-0.63,1.32-0.95,2.16-0.95c0.79,0,1.49,0.33,2.11,1.02
			c0.6,0.68,0.9,1.47,0.9,2.37C99.53,15.45,99.23,16.23,98.63,16.89z"/>
		<path class="st1" d="M116.01,44.11c-1.32-1.33-2.97-2.02-4.92-2.02c-2.09,0-3.81,0.67-5.14,1.98c-1.33,1.32-2,3-2,5.09
			c0,1.83,0.61,3.44,1.86,4.86c0.63,0.72,1.4,1.25,2.3,1.6V141h5.71V55.62c0.81-0.33,1.54-0.84,2.19-1.49
			c1.32-1.33,1.98-3.02,1.98-5.04C117.99,47.11,117.33,45.44,116.01,44.11z M113.11,51.5c-0.6,0.67-1.3,1-2.11,1
			c-0.84,0-1.56-0.35-2.16-1.02c-0.6-0.68-0.9-1.51-0.9-2.48c0-0.9,0.3-1.65,0.91-2.28c0.6-0.65,1.32-0.97,2.14-0.97
			c0.81,0,1.51,0.33,2.11,1.02c0.6,0.68,0.9,1.47,0.9,2.39C114.01,50.06,113.71,50.83,113.11,51.5z"/>
	</g>
	<g>
		<g>
			<path class="st3" d="M334.34,223.79v-16.3h7.21c0.75,0,1.44,0.16,2.08,0.47c0.63,0.31,1.18,0.73,1.64,1.24
				c0.46,0.51,0.82,1.09,1.08,1.74c0.26,0.65,0.39,1.3,0.39,1.96c0,1.06-0.26,2.02-0.79,2.88c-0.53,0.86-1.24,1.49-2.15,1.87
				l3.72,6.13h-3.56l-3.33-5.46h-3.12v5.46H334.34z M337.5,215.55h3.97c0.29,0,0.56-0.07,0.81-0.21c0.25-0.14,0.47-0.32,0.65-0.56
				c0.18-0.24,0.33-0.52,0.44-0.84c0.11-0.32,0.16-0.67,0.16-1.03c0-0.38-0.06-0.73-0.18-1.06c-0.12-0.32-0.29-0.6-0.49-0.84
				c-0.21-0.24-0.44-0.42-0.71-0.55c-0.27-0.13-0.54-0.2-0.81-0.2h-3.83V215.55z"/>
			<path class="st3" d="M360.92,221.02v2.78H349.6v-16.3h11.11v2.78h-7.94v3.93h6.86v2.57h-6.86v4.25H360.92z"/>
		</g>
		<g>
			<path class="st3" d="M362.06,215.53c0-0.99,0.18-1.98,0.54-2.95c0.36-0.97,0.88-1.84,1.57-2.61c0.69-0.76,1.53-1.38,2.52-1.86
				c0.99-0.47,2.13-0.71,3.4-0.71c1.5,0,2.8,0.33,3.89,0.99c1.09,0.66,1.91,1.51,2.44,2.57l-2.43,1.68
				c-0.21-0.46-0.47-0.85-0.78-1.16c-0.31-0.31-0.64-0.56-0.99-0.75c-0.35-0.18-0.72-0.32-1.1-0.4c-0.38-0.08-0.76-0.13-1.12-0.13
				c-0.8,0-1.49,0.16-2.08,0.48c-0.59,0.32-1.08,0.74-1.47,1.25c-0.39,0.51-0.68,1.09-0.88,1.74c-0.2,0.65-0.3,1.3-0.3,1.94
				c0,0.72,0.11,1.41,0.34,2.08c0.23,0.67,0.55,1.25,0.98,1.76c0.42,0.5,0.93,0.91,1.51,1.22c0.59,0.31,1.24,0.46,1.94,0.46
				c0.37,0,0.75-0.05,1.15-0.14c0.4-0.09,0.78-0.24,1.14-0.44c0.36-0.2,0.69-0.46,1-0.77c0.31-0.31,0.55-0.69,0.73-1.14l2.59,1.49
				c-0.26,0.61-0.63,1.15-1.11,1.62c-0.48,0.47-1.03,0.86-1.63,1.18c-0.6,0.32-1.25,0.57-1.94,0.73s-1.36,0.25-2.02,0.25
				c-1.16,0-2.23-0.24-3.19-0.73c-0.96-0.49-1.79-1.13-2.49-1.92c-0.7-0.79-1.24-1.68-1.63-2.69
				C362.26,217.59,362.06,216.57,362.06,215.53z"/>
			<path class="st3" d="M383.2,207.5h2.8l6.2,16.3h-3.26l-1.51-4.06h-5.69l-1.49,4.06h-3.26L383.2,207.5z M386.85,217.5l-2.25-6.4
				l-2.34,6.4H386.85z"/>
		</g>
		<g>
			<path class="st3" d="M393.99,223.79v-16.3h6.91c0.75,0,1.44,0.16,2.08,0.47c0.63,0.31,1.18,0.73,1.64,1.24
				c0.46,0.51,0.82,1.09,1.08,1.74c0.26,0.65,0.39,1.3,0.39,1.96c0,0.69-0.12,1.36-0.37,2.01c-0.24,0.65-0.59,1.23-1.03,1.73
				c-0.44,0.51-0.98,0.91-1.61,1.22c-0.63,0.31-1.32,0.46-2.07,0.46h-3.86v5.46H393.99z M397.16,215.55h3.67
				c0.58,0,1.07-0.24,1.46-0.71c0.39-0.47,0.59-1.12,0.59-1.93c0-0.41-0.06-0.78-0.18-1.11c-0.12-0.33-0.28-0.61-0.48-0.84
				c-0.2-0.23-0.43-0.4-0.7-0.52c-0.27-0.11-0.54-0.17-0.81-0.17h-3.53V215.55z"/>
		</g>
	</g>
	<g>
		<path class="st4" d="M485.22,223.56c-0.36,0-0.66-0.11-0.92-0.34c-0.26-0.23-0.39-0.55-0.39-0.96c0-0.35,0.12-0.65,0.37-0.9
			c0.25-0.25,0.55-0.38,0.91-0.38c0.36,0,0.67,0.12,0.92,0.37c0.25,0.25,0.38,0.55,0.38,0.91c0,0.41-0.13,0.73-0.38,0.96
			C485.86,223.44,485.56,223.56,485.22,223.56z"/>
		<g>
			<path class="st4" d="M437.73,219.39c0,0.65-0.13,1.22-0.39,1.71c-0.26,0.49-0.62,0.9-1.07,1.23c-0.45,0.33-0.98,0.58-1.58,0.76
				c-0.6,0.17-1.24,0.26-1.91,0.26h-7.41V208h8.21c0.53,0,1.02,0.12,1.45,0.35c0.43,0.23,0.8,0.53,1.1,0.9
				c0.3,0.37,0.54,0.79,0.7,1.25c0.17,0.47,0.25,0.94,0.25,1.42c0,0.75-0.19,1.45-0.56,2.11c-0.37,0.66-0.92,1.14-1.64,1.46
				c0.88,0.26,1.57,0.72,2.09,1.39C437.48,217.54,437.73,218.38,437.73,219.39z M428.35,210.55v3.87h3.98c0.5,0,0.93-0.17,1.29-0.52
				c0.35-0.35,0.53-0.82,0.53-1.43c0-0.59-0.16-1.06-0.49-1.4c-0.32-0.35-0.72-0.52-1.2-0.52H428.35z M434.73,218.82
				c0-0.27-0.05-0.54-0.14-0.79c-0.09-0.25-0.22-0.47-0.38-0.66c-0.16-0.19-0.35-0.34-0.56-0.44c-0.22-0.11-0.45-0.16-0.71-0.16
				h-4.58v4.04h4.43c0.27,0,0.53-0.05,0.77-0.15c0.24-0.1,0.44-0.24,0.62-0.42c0.17-0.18,0.31-0.39,0.41-0.64
				C434.68,219.36,434.73,219.1,434.73,218.82z"/>
			<path class="st4" d="M447.05,223.45c-1.12,0-2.14-0.22-3.06-0.66c-0.92-0.44-1.7-1.02-2.36-1.75c-0.66-0.73-1.16-1.56-1.52-2.5
				c-0.36-0.94-0.54-1.89-0.54-2.87c0-1.02,0.19-2,0.57-2.94c0.38-0.94,0.91-1.76,1.58-2.49c0.67-0.72,1.47-1.29,2.39-1.72
				c0.92-0.42,1.92-0.64,3-0.64c1.11,0,2.12,0.23,3.04,0.68c0.91,0.45,1.7,1.05,2.34,1.78c0.65,0.73,1.15,1.57,1.51,2.51
				c0.36,0.94,0.54,1.89,0.54,2.85c0,1.02-0.19,2-0.56,2.93c-0.37,0.93-0.89,1.75-1.56,2.46c-0.66,0.71-1.46,1.28-2.38,1.71
				C449.13,223.24,448.13,223.45,447.05,223.45z M442.6,215.67c0,0.66,0.1,1.3,0.3,1.92c0.2,0.62,0.49,1.17,0.88,1.64
				c0.38,0.48,0.85,0.86,1.4,1.15c0.55,0.29,1.18,0.43,1.89,0.43c0.72,0,1.36-0.15,1.91-0.44c0.55-0.3,1.02-0.69,1.4-1.18
				c0.38-0.49,0.67-1.04,0.86-1.65c0.19-0.61,0.29-1.24,0.29-1.87c0-0.66-0.1-1.3-0.31-1.92c-0.21-0.62-0.5-1.17-0.89-1.64
				c-0.38-0.48-0.85-0.85-1.4-1.13c-0.55-0.28-1.18-0.42-1.87-0.42c-0.72,0-1.36,0.15-1.92,0.44c-0.56,0.3-1.03,0.68-1.4,1.17
				c-0.37,0.48-0.66,1.03-0.85,1.64C442.69,214.41,442.6,215.03,442.6,215.67z"/>
			<path class="st4" d="M468.04,210.61h-4.91v12.73h-2.96v-12.73h-4.91V208h12.77V210.61z"/>
			<path class="st4" d="M479.46,211.96c-0.1-0.1-0.29-0.23-0.56-0.4c-0.27-0.17-0.6-0.33-0.98-0.49c-0.38-0.16-0.8-0.3-1.25-0.4
				c-0.45-0.11-0.9-0.16-1.36-0.15c-0.82,0.01-1.43,0.17-1.83,0.48c-0.4,0.31-0.6,0.74-0.59,1.28c0,0.32,0.08,0.58,0.24,0.79
				c0.15,0.21,0.38,0.39,0.67,0.54c0.29,0.15,0.66,0.29,1.1,0.42c0.44,0.12,0.95,0.25,1.53,0.39c0.75,0.19,1.44,0.4,2.05,0.62
				c0.62,0.22,1.14,0.5,1.57,0.84c0.43,0.34,0.76,0.75,1,1.23c0.24,0.48,0.36,1.07,0.37,1.78c0.01,0.82-0.13,1.53-0.44,2.11
				c-0.3,0.59-0.71,1.07-1.23,1.43c-0.52,0.37-1.12,0.64-1.8,0.81c-0.68,0.17-1.4,0.27-2.15,0.28c-1.15,0.02-2.29-0.14-3.42-0.47
				c-1.13-0.33-2.14-0.81-3.05-1.43l1.28-2.59c0.13,0.13,0.37,0.29,0.71,0.5c0.34,0.2,0.74,0.41,1.21,0.61
				c0.46,0.2,0.98,0.37,1.54,0.51c0.56,0.14,1.14,0.2,1.73,0.19c1.64-0.02,2.46-0.56,2.44-1.61c0-0.33-0.1-0.61-0.29-0.84
				c-0.19-0.23-0.46-0.43-0.81-0.59c-0.35-0.17-0.77-0.32-1.26-0.46c-0.49-0.14-1.04-0.29-1.65-0.45c-0.74-0.19-1.38-0.4-1.92-0.63
				c-0.54-0.23-1-0.51-1.36-0.82c-0.36-0.32-0.64-0.69-0.83-1.11c-0.19-0.42-0.28-0.93-0.29-1.52c-0.01-0.78,0.12-1.47,0.4-2.08
				c0.28-0.61,0.67-1.12,1.18-1.53c0.51-0.41,1.1-0.72,1.77-0.94c0.67-0.22,1.4-0.33,2.18-0.34c1.08-0.01,2.08,0.14,2.99,0.47
				c0.91,0.33,1.71,0.72,2.39,1.17L479.46,211.96z"/>
			<path class="st4" d="M490.24,223.34V208h1.51v14h8.86v1.34H490.24z"/>
			<path class="st4" d="M508.03,208h1.28l6.38,15.34h-1.6l-1.99-4.8h-6.89l-1.97,4.8h-1.62L508.03,208z M511.74,217.35l-3.09-7.59
				l-3.13,7.59H511.74z"/>
			<path class="st4" d="M522.77,208.1h1.43l2.16,5.45l2.18-5.45h1.45l-2.68,6.55l2.94,6.94L535.8,208h1.64l-6.51,15.34h-1.34
				l-3.22-7.59l-3.24,7.59h-1.32L515.33,208h1.62l5.58,13.59l2.92-6.94L522.77,208.1z"/>
		</g>
	</g>
	<g>
		<rect x="121.73" y="205.17" class="st1" width="5.65" height="20.34"/>
		<rect x="64.72" y="205.18" class="st1" width="5.65" height="20.34"/>
		<rect x="78.97" y="205.17" class="st1" width="5.65" height="20.34"/>
		<rect x="93.23" y="205.17" class="st1" width="5.65" height="20.34"/>
		<rect x="107.58" y="205.17" class="st1" width="5.65" height="20.34"/>
	</g>
	<g>
		<g>
			<path class="st5" d="M134.16,215.54c0-0.99,0.18-1.97,0.54-2.95c0.36-0.97,0.88-1.84,1.57-2.6c0.69-0.76,1.53-1.38,2.52-1.86
				c0.99-0.47,2.12-0.71,3.39-0.71c1.5,0,2.79,0.33,3.89,0.99c1.09,0.66,1.91,1.51,2.44,2.57l-2.43,1.67
				c-0.21-0.46-0.47-0.84-0.78-1.16c-0.31-0.31-0.63-0.56-0.99-0.74c-0.35-0.18-0.72-0.32-1.1-0.4c-0.38-0.08-0.76-0.13-1.12-0.13
				c-0.79,0-1.49,0.16-2.07,0.48c-0.59,0.32-1.08,0.74-1.47,1.25c-0.39,0.51-0.68,1.09-0.88,1.74c-0.2,0.65-0.3,1.3-0.3,1.94
				c0,0.72,0.11,1.41,0.34,2.07c0.23,0.66,0.55,1.25,0.97,1.75c0.42,0.5,0.92,0.91,1.51,1.21c0.59,0.31,1.23,0.46,1.94,0.46
				c0.37,0,0.75-0.05,1.15-0.14c0.4-0.09,0.78-0.24,1.13-0.44c0.36-0.2,0.69-0.45,1-0.77c0.31-0.31,0.55-0.69,0.73-1.13l2.59,1.49
				c-0.26,0.61-0.63,1.15-1.11,1.62c-0.48,0.47-1.02,0.86-1.63,1.18c-0.6,0.32-1.25,0.57-1.94,0.73c-0.69,0.17-1.36,0.25-2.02,0.25
				c-1.16,0-2.22-0.24-3.19-0.73c-0.96-0.49-1.79-1.13-2.49-1.91c-0.7-0.79-1.24-1.68-1.63-2.68
				C134.36,217.6,134.16,216.58,134.16,215.54z"/>
			<path class="st5" d="M157.82,223.91c-1.19,0-2.27-0.23-3.24-0.7c-0.97-0.47-1.8-1.08-2.5-1.86c-0.7-0.77-1.23-1.65-1.62-2.65
				c-0.38-0.99-0.57-2.01-0.57-3.05c0-1.08,0.2-2.12,0.61-3.12c0.4-0.99,0.96-1.87,1.67-2.64c0.71-0.76,1.55-1.37,2.53-1.82
				c0.98-0.45,2.04-0.68,3.19-0.68c1.18,0,2.25,0.24,3.22,0.72c0.97,0.48,1.8,1.11,2.49,1.89c0.69,0.78,1.22,1.67,1.6,2.66
				c0.38,0.99,0.57,2,0.57,3.03c0,1.09-0.2,2.12-0.6,3.11c-0.4,0.99-0.95,1.86-1.65,2.61c-0.7,0.76-1.54,1.36-2.52,1.81
				C160.02,223.68,158.96,223.91,157.82,223.91z M153.09,215.66c0,0.7,0.11,1.38,0.32,2.04c0.21,0.66,0.52,1.24,0.93,1.74
				c0.4,0.5,0.9,0.91,1.49,1.21c0.59,0.31,1.26,0.46,2.01,0.46c0.76,0,1.44-0.16,2.03-0.47c0.59-0.31,1.08-0.73,1.49-1.25
				c0.4-0.52,0.71-1.1,0.92-1.75c0.21-0.65,0.31-1.31,0.31-1.98c0-0.7-0.11-1.38-0.33-2.04c-0.22-0.66-0.54-1.24-0.94-1.74
				c-0.41-0.5-0.9-0.91-1.49-1.2c-0.59-0.3-1.25-0.45-1.98-0.45c-0.76,0-1.44,0.16-2.04,0.47c-0.6,0.31-1.09,0.73-1.49,1.24
				c-0.4,0.51-0.7,1.09-0.91,1.74C153.2,214.32,153.09,214.98,153.09,215.66z"/>
			<path class="st5" d="M175.08,221.11c0.75,0,1.38-0.15,1.89-0.46c0.51-0.31,0.92-0.7,1.24-1.19c0.31-0.49,0.53-1.05,0.66-1.68
				c0.13-0.63,0.19-1.29,0.19-1.96v-8.3h3.14v8.3c0,1.12-0.13,2.16-0.4,3.14c-0.27,0.98-0.69,1.83-1.26,2.57
				c-0.57,0.73-1.31,1.31-2.21,1.74c-0.9,0.43-1.98,0.64-3.23,0.64c-1.3,0-2.4-0.23-3.31-0.68c-0.91-0.45-1.65-1.05-2.21-1.79
				c-0.57-0.74-0.97-1.6-1.23-2.58c-0.25-0.98-0.38-1.99-0.38-3.05v-8.3h3.16v8.3c0,0.69,0.06,1.35,0.19,1.98
				c0.13,0.63,0.35,1.2,0.66,1.68c0.31,0.49,0.72,0.88,1.23,1.18C173.72,220.96,174.34,221.11,175.08,221.11z"/>
			<path class="st5" d="M185.39,223.79v-16.27h7.2c0.75,0,1.44,0.16,2.07,0.47c0.63,0.31,1.18,0.73,1.64,1.24
				c0.46,0.51,0.82,1.09,1.08,1.74c0.26,0.65,0.39,1.3,0.39,1.96c0,1.05-0.26,2.01-0.79,2.88c-0.53,0.86-1.24,1.49-2.14,1.87
				l3.71,6.12h-3.55l-3.32-5.46h-3.12v5.46H185.39z M188.55,215.57h3.97c0.29,0,0.56-0.07,0.81-0.21c0.25-0.14,0.47-0.32,0.65-0.56
				c0.18-0.24,0.33-0.52,0.44-0.84c0.11-0.32,0.16-0.66,0.16-1.03c0-0.38-0.06-0.73-0.18-1.05c-0.12-0.32-0.29-0.6-0.49-0.84
				c-0.21-0.24-0.44-0.42-0.71-0.55c-0.27-0.13-0.54-0.19-0.81-0.19h-3.83V215.57z"/>
		</g>
		<g>
			<path class="st5" d="M212.39,210.29h-5.2v13.5h-3.14v-13.5h-5.2v-2.77h13.55V210.29z"/>
		</g>
		<g>
			<path class="st5" d="M218.46,223.79v-16.27h1.6v14.85h9.4v1.42H218.46z"/>
			<path class="st5" d="M230.68,223.79v-16.27h1.6v16.27H230.68z"/>
			<path class="st5" d="M244.73,210.57c-0.46-0.52-1.07-0.94-1.83-1.26c-0.76-0.32-1.64-0.48-2.61-0.48c-1.44,0-2.48,0.27-3.14,0.81
				c-0.66,0.54-0.99,1.28-0.99,2.21c0,0.49,0.09,0.89,0.26,1.2c0.18,0.31,0.45,0.58,0.81,0.81c0.37,0.23,0.84,0.43,1.41,0.6
				c0.57,0.17,1.25,0.34,2.03,0.5c0.87,0.18,1.65,0.39,2.35,0.62c0.7,0.23,1.29,0.52,1.78,0.86c0.49,0.34,0.86,0.76,1.12,1.25
				c0.26,0.49,0.39,1.1,0.39,1.83c0,0.75-0.15,1.4-0.44,1.95c-0.29,0.55-0.7,1.01-1.21,1.38c-0.52,0.37-1.14,0.64-1.86,0.81
				c-0.72,0.18-1.51,0.26-2.36,0.26c-2.52,0-4.7-0.79-6.53-2.36l0.8-1.31c0.29,0.31,0.64,0.6,1.04,0.87
				c0.4,0.28,0.86,0.52,1.35,0.72c0.5,0.21,1.03,0.37,1.59,0.48c0.57,0.11,1.16,0.17,1.79,0.17c1.3,0,2.31-0.23,3.04-0.7
				c0.73-0.47,1.09-1.17,1.09-2.12c0-0.5-0.1-0.93-0.31-1.27c-0.21-0.34-0.52-0.64-0.93-0.89c-0.41-0.25-0.92-0.47-1.54-0.65
				c-0.61-0.18-1.32-0.37-2.13-0.55c-0.86-0.2-1.6-0.4-2.25-0.62c-0.64-0.21-1.18-0.48-1.63-0.8c-0.44-0.32-0.78-0.71-1-1.16
				c-0.22-0.45-0.33-1-0.33-1.66c0-0.75,0.14-1.42,0.42-2.01c0.28-0.59,0.68-1.08,1.2-1.47c0.52-0.39,1.13-0.69,1.83-0.89
				c0.7-0.21,1.48-0.31,2.34-0.31c1.08,0,2.05,0.16,2.9,0.49c0.85,0.33,1.62,0.79,2.3,1.39L244.73,210.57z"/>
			<path class="st5" d="M259.54,208.94h-5.8v14.85h-1.6v-14.85h-5.8v-1.42h13.2V208.94z"/>
			<path class="st5" d="M271.76,222.37v1.42h-10.93v-16.27h10.73v1.42h-9.12v5.87h7.95v1.35h-7.95v6.21H271.76z"/>
			<path class="st5" d="M275.24,210.5v13.29h-1.6v-16.27h1.24l10.77,13.55v-13.52h1.6v16.25h-1.4L275.24,210.5z"/>
			<path class="st5" d="M301.12,222.37v1.42h-10.93v-16.27h10.73v1.42h-9.12v5.87h7.95v1.35h-7.95v6.21H301.12z"/>
			<path class="st5" d="M303,223.79v-16.27h6.88c0.7,0,1.35,0.15,1.94,0.45c0.59,0.3,1.1,0.69,1.52,1.17c0.43,0.48,0.76,1.03,1,1.64
				c0.24,0.61,0.36,1.23,0.36,1.86c0,0.6-0.09,1.17-0.26,1.71c-0.18,0.54-0.42,1.03-0.73,1.47c-0.31,0.44-0.69,0.8-1.13,1.1
				c-0.44,0.3-0.94,0.5-1.49,0.61l3.99,6.28h-1.81l-3.83-6.01h-4.81v6.01H303z M304.6,216.37h5.32c0.47,0,0.91-0.1,1.3-0.31
				c0.39-0.21,0.72-0.49,1-0.84c0.28-0.35,0.49-0.75,0.64-1.19c0.15-0.44,0.23-0.91,0.23-1.4c0-0.49-0.09-0.96-0.26-1.41
				c-0.18-0.45-0.41-0.84-0.71-1.18c-0.3-0.34-0.65-0.6-1.05-0.8c-0.41-0.2-0.83-0.3-1.27-0.3h-5.18V216.37z"/>
		</g>
	</g>
</g>
</svg>
