<?xml version="1.0" encoding="UTF-8"?>
<!-- Generated by Pixelmator Pro 3.5.11 -->
<svg width="3962" height="4898" viewBox="0 0 3962 4898" xmlns="http://www.w3.org/2000/svg">
    <g id="Layer-1">
        <clipPath id="clipPath1">
            <path d="M 67.478333 65.77832 L 3889.488098 65.77832 L 3889.488098 3072.267822 L 67.478333 3072.267822 L 67.478333 65.77832 Z"/>
        </clipPath>
        <g id="Group" clip-path="url(#clipPath1)">
            <path id="Path" fill="#000000" stroke="none" d="M 797.82019 2267.850342 L 799.388 1980.956299 L 1290.722778 1980.956299 L 1290.722778 3330.364746 L 1422.36731 3330.364746 L 1422.36731 1849.700439 L 396.991119 1849.700439 C 378.177551 1783.489014 317.836395 1734.499023 245.742691 1734.499023 C 145.842392 1734.499023 67.478333 1827.763916 92.149002 1931.5896 C 105.481621 1986.048584 148.188431 2030.711914 202.258194 2045.210693 C 273.963074 2064.413086 340.964661 2034.236084 376.609711 1980.956299 L 712.005005 1980.956299 L 710.826294 2270.195557 M 1290.722778 4861.449219 L 1422.36731 4861.449219 L 1422.36731 4243.499023 L 1290.722778 4243.499023 L 1290.722778 4861.449219 Z M 312.794403 1913.23999 C 303.964386 1942.100098 277.412567 1963.259033 245.704803 1963.259033 C 206.861771 1963.259033 175.242508 1931.664795 175.242508 1892.796143 C 175.242508 1853.952148 206.861771 1822.345703 245.704803 1822.345703 C 277.412567 1822.345703 303.964386 1843.516846 312.794403 1872.352051 L 312.794403 1913.23999 Z"/>
            <path id="path1" fill="#000000" stroke="none" d="M 1615.784058 4861.449219 L 1747.039185 4861.449219 L 1747.039185 4239.67334 L 1615.784058 4239.67334 L 1615.784058 4861.449219 Z"/>
            <path id="path2" fill="#000000" stroke="none" d="M 1637.332031 532.713867 C 1583.261475 545.64502 1538.597534 588.740723 1524.098633 642.811035 C 1501.760254 726.268066 1546.436523 803.064697 1615.784058 832.062988 L 1615.784058 3325.058838 L 1747.039185 3325.058838 L 1747.039185 826.569336 C 1798.762939 800.707031 1834.408936 747.815918 1834.408936 686.307617 C 1834.408936 586.395996 1741.558228 507.629395 1637.332031 532.713867 Z M 1676.337036 756.620605 C 1637.482056 756.620605 1605.875 725.013184 1605.875 686.182617 C 1605.875 647.313965 1637.482056 615.707031 1676.337036 615.707031 C 1715.182861 615.707031 1746.802124 647.313965 1746.802124 686.182617 C 1746.802124 725.013184 1715.182861 756.620605 1676.337036 756.620605 Z"/>
            <path id="path3" fill="#000000" stroke="none" d="M 1958.226929 4861.449219 L 2089.483643 4861.449219 L 2089.483643 4239.673828 L 1958.226929 4239.673828 L 1958.226929 4861.449219 Z M 1986.44751 89.54248 C 1929.229614 102.792969 1882.998535 149.163574 1870.066772 206.449707 C 1852.432129 284.387695 1893.571899 355.303223 1958.226929 384.914551 L 1958.226929 3325.058838 L 2089.483643 3325.058838 L 2089.483643 384.914551 C 2143.942139 360.369141 2181.958008 305.822754 2181.958008 242.295898 C 2181.958008 143.708496 2089.87207 65.773438 1986.44751 89.54248 M 2023.974487 313.774902 C 1985.105347 313.774902 1953.498779 282.16748 1953.498779 243.298828 C 1953.498779 204.430176 1985.105347 172.82959 2023.974487 172.82959 C 2062.831055 172.82959 2094.437988 204.430176 2094.437988 243.298828 C 2094.437988 282.16748 2062.831055 313.774902 2023.974487 313.774902"/>
            <path id="path4" fill="#000000" stroke="none" d="M 2314.782227 861.023682 C 2257.965088 874.242676 2211.733398 920.147705 2198.802002 976.952148 C 2180.778809 1053.586426 2220.350586 1122.832764 2282.648682 1153.561035 L 2282.648682 3325.058838 L 2413.904785 3325.058838 L 2413.904785 1158.227051 C 2470.721436 1134.509277 2510.681641 1078.482666 2510.681641 1013.513184 C 2510.681641 914.70459 2418.218994 837.293213 2314.782227 861.023682 M 2282.648682 4861.449219 L 2413.904785 4861.449219 L 2413.904785 4239.673828 L 2282.648682 4239.673828 L 2282.648682 4861.449219 Z M 2352.534424 1085.205811 C 2313.665771 1085.205811 2282.083984 1053.598633 2282.083984 1014.754883 C 2282.083984 975.898926 2313.665771 944.291748 2352.534424 944.291748 C 2391.390381 944.291748 2423.022461 975.898926 2423.022461 1014.754883 C 2423.022461 1053.598633 2391.390381 1085.205811 2352.534424 1085.205811"/>
            <path id="path5" fill="#000000" stroke="none" d="M 2579.651855 4861.449219 L 2711.296387 4861.449219 L 2711.296387 4239.673828 L 2579.651855 4239.673828 L 2579.651855 4861.449219 Z M 3291.581543 1898.239502 L 3293.136475 1628.66626 L 3571.338867 1628.66626 C 3597.577393 1678.873535 3650.080322 1713.515625 3711.210938 1713.515625 C 3810.735596 1713.515625 3889.488037 1621.266357 3864.403809 1517.72876 C 3851.4729 1463.633789 3807.988281 1419.259033 3753.918457 1405.249023 C 3670.072266 1383.061523 3592.886719 1428.214111 3564.666748 1497.874512 L 2579.651855 1497.874512 L 2579.651855 3329.963379 L 2711.296387 3329.963379 L 2711.296387 1628.66626 L 3205.766113 1628.66626 L 3204.587158 1900.584961 M 3711.022949 1628.076904 C 3672.154053 1628.076904 3640.585205 1596.469971 3640.585205 1557.614014 C 3640.585205 1518.77002 3672.154053 1487.16333 3711.022949 1487.16333 C 3749.89209 1487.16333 3781.51123 1518.77002 3781.51123 1557.614014 C 3781.51123 1596.469971 3749.89209 1628.076904 3711.022949 1628.076904"/>
            <path id="path6" fill="none" stroke="#000000" stroke-width="75" d="M 759.604065 2238.363525 L 975.482849 2746.266602 M 745.806763 2240.683838 L 561.371521 2760.827881"/>
        </g>
        <path id="path7" fill="#000000" stroke="none" d="M 966.840759 3033.072998 L 524.6474 3035.192871 C 428.121582 3035.65625 349.493317 2957.755615 349.079529 2861.22998 L 348.978821 2840.597656 L 1161.273071 2836.696533 L 1161.273071 2836.860107 C 1161.736694 2944.724365 1074.705444 3032.558594 966.840759 3033.072998"/>
        <path id="path8" fill="#000000" stroke="none" d="M 1172.598633 2773.39502 L 352.403168 2777.333984 C 342.695526 2777.384033 334.781281 2768.115234 334.730927 2756.638672 L 334.730927 2755.686035 C 334.680847 2744.209717 342.494354 2734.87793 352.21521 2734.828125 L 1172.398315 2730.889404 C 1182.105469 2730.851807 1190.032349 2740.12085 1190.083008 2751.596436 L 1190.083008 2752.550049 C 1190.132813 2764.013916 1182.306274 2773.357666 1172.598633 2773.39502"/>
        <path id="path9" fill="none" stroke="#000000" stroke-width="75" d="M 3253.17627 1880.027832 L 3469.055664 2387.930908 M 3239.380371 1882.348145 L 3054.944824 2402.49292"/>
        <path id="path10" fill="#000000" stroke="none" d="M 3460.414063 2674.75 L 3018.220459 2676.869873 C 2921.694336 2677.333252 2843.066406 2599.432617 2842.652344 2502.894287 L 2842.552002 2482.261719 L 3654.84668 2478.361328 L 3654.84668 2478.52417 C 3655.310059 2586.401367 3568.27832 2674.235596 3460.414063 2674.75"/>
        <path id="path11" fill="#000000" stroke="none" d="M 3666.171631 2415.072754 L 2845.976074 2419.010986 C 2836.268555 2419.060547 2828.35376 2409.780029 2828.303955 2398.303467 L 2828.303955 2397.362549 C 2828.253662 2385.886719 2836.080322 2376.554932 2845.788086 2376.505127 L 3665.971191 2372.56665 C 3675.678955 2372.516602 3683.605957 2381.797852 3683.65625 2393.273438 L 3683.65625 2394.214844 C 3683.706055 2405.691162 3675.879883 2415.022705 3666.171631 2415.072754"/>
        <clipPath id="clipPath2">
            <path d="M 67.478333 4364.281796 L 3889.488098 4364.281796 L 3889.488098 4847.451565 L 67.478333 4847.451565 L 67.478333 4364.281796 Z"/>
        </clipPath>
        <g id="g1" clip-path="url(#clipPath2)">
            <path id="path12" fill="#000000" stroke="none" d="M 797.82019 2432.418457 L 799.388 2145.524658 L 1290.722778 2145.524658 L 1290.722778 3494.945313 L 1422.36731 3494.945313 L 1422.36731 2014.268799 L 396.991119 2014.268799 C 378.177551 1948.057373 317.836395 1899.07959 245.742691 1899.07959 C 145.842392 1899.07959 67.478333 1992.332031 92.149002 2096.157959 C 105.481621 2150.617188 148.188431 2195.292236 202.258194 2209.791748 C 273.963074 2228.981689 340.964661 2198.804688 376.609711 2145.524658 L 712.005005 2145.524658 L 710.826294 2434.764404 M 1290.722778 5026.01709 L 1422.36731 5026.01709 L 1422.36731 4408.080078 L 1290.722778 4408.080078 L 1290.722778 5026.01709 Z M 312.794403 2077.80835 C 303.964386 2106.668701 277.412567 2127.840088 245.704803 2127.840088 C 206.861771 2127.840088 175.242508 2096.233154 175.242508 2057.364502 C 175.242508 2018.520752 206.861771 1986.913818 245.704803 1986.913818 C 277.412567 1986.913818 303.964386 2008.085449 312.794403 2036.919922 L 312.794403 2077.80835 Z"/>
            <path id="path13" fill="#000000" stroke="none" d="M 1615.783081 5026.01709 L 1747.039185 5026.01709 L 1747.039185 4404.241699 L 1615.783081 4404.241699 L 1615.783081 5026.01709 Z M 1637.331055 697.282715 C 1583.260498 710.213867 1538.597046 753.309082 1524.098633 807.379883 C 1501.760254 890.836182 1546.435913 967.633789 1615.783081 996.630859 L 1615.783081 3489.627686 L 1747.039185 3489.627686 L 1747.039185 991.137695 C 1798.763428 965.275146 1834.408936 912.384033 1834.408936 850.876465 C 1834.408936 750.963867 1741.557739 672.197754 1637.331055 697.282715 M 1676.337646 921.201172 C 1637.481079 921.201172 1605.875 889.582031 1605.875 850.751465 C 1605.875 811.88208 1637.481079 780.275391 1676.337646 780.275391 C 1715.181885 780.275391 1746.801147 811.88208 1746.801147 850.751465 C 1746.801147 889.582031 1715.181885 921.201172 1676.337646 921.201172"/>
            <path id="path14" fill="#000000" stroke="none" d="M 1958.226929 5026.01709 L 2089.483643 5026.01709 L 2089.483643 4404.241699 L 1958.226929 4404.241699 L 1958.226929 5026.01709 Z M 1986.44751 254.110352 C 1929.229614 267.367676 1882.998535 313.737305 1870.066772 371.018066 C 1852.432129 448.956543 1893.571899 519.870605 1958.226929 549.496094 L 1958.226929 3489.627686 L 2089.483643 3489.627686 L 2089.483643 549.496094 C 2143.942139 524.937988 2181.958008 470.391113 2181.958008 406.864258 C 2181.958008 308.28125 2089.87207 230.343262 1986.44751 254.110352 M 2023.974487 478.342773 C 1985.105347 478.342773 1953.498779 446.736328 1953.498779 407.867676 C 1953.498779 368.999023 1985.105347 337.404785 2023.974487 337.404785 C 2062.831055 337.404785 2094.437988 368.999023 2094.437988 407.867676 C 2094.437988 446.736328 2062.831055 478.342773 2023.974487 478.342773"/>
            <path id="path15" fill="#000000" stroke="none" d="M 2314.782227 1025.591553 C 2257.965088 1038.811279 2211.733398 1084.716309 2198.802002 1141.520752 C 2180.778809 1218.154541 2220.350586 1287.400879 2282.648682 1318.129639 L 2282.648682 3489.627686 L 2413.904785 3489.627686 L 2413.904785 1322.795654 C 2470.721436 1299.077393 2510.681641 1243.05127 2510.681641 1178.093994 C 2510.681641 1079.273193 2418.218994 1001.861084 2314.782227 1025.591553 M 2282.648682 5026.01709 L 2413.904785 5026.01709 L 2413.904785 4404.241699 L 2282.648682 4404.241699 L 2282.648682 5026.01709 Z M 2352.534424 1249.773682 C 2313.665771 1249.773682 2282.083984 1218.167236 2282.083984 1179.323486 C 2282.083984 1140.467041 2313.665771 1108.860352 2352.534424 1108.860352 C 2391.390381 1108.860352 2423.022461 1140.467041 2423.022461 1179.323486 C 2423.022461 1218.167236 2391.390381 1249.773682 2352.534424 1249.773682"/>
            <path id="path16" fill="#000000" stroke="none" d="M 2579.651855 5026.01709 L 2711.296387 5026.01709 L 2711.296387 4404.241699 L 2579.651855 4404.241699 L 2579.651855 5026.01709 Z M 3291.581543 2062.807373 L 3293.136475 1793.234619 L 3571.338867 1793.234619 C 3597.577393 1843.441895 3650.080322 1878.083984 3711.210938 1878.083984 C 3810.735596 1878.083984 3889.488037 1785.834717 3864.403809 1682.310059 C 3851.4729 1628.202148 3807.988281 1583.827393 3753.918457 1569.817139 C 3670.072266 1547.629883 3592.886719 1592.782471 3564.666748 1662.455322 L 2579.651855 1662.455322 L 2579.651855 3494.53125 L 2711.296387 3494.53125 L 2711.296387 1793.234619 L 3205.766113 1793.234619 L 3204.587158 2065.153076 M 3711.022949 1792.64502 C 3672.154053 1792.64502 3640.585205 1761.051025 3640.585205 1722.182129 C 3640.585205 1683.338623 3672.154053 1651.731445 3711.022949 1651.731445 C 3749.89209 1651.731445 3781.51123 1683.338623 3781.51123 1722.182129 C 3781.51123 1761.051025 3749.89209 1792.64502 3711.022949 1792.64502"/>
        </g>
        <g id="g2">
            <path id="path17" fill="#000000" stroke="none" d="M 1070.236816 4169.091797 L 1070.236816 3292.302002 L 1659.293579 3292.302002 L 1659.293579 3441.720215 L 1240.655151 3441.720215 L 1240.655151 3667.715576 L 1588.901733 3667.715576 L 1588.901733 3806.024658 L 1240.655151 3806.024658 L 1240.655151 4169.091797 L 1070.236816 4169.091797 Z"/>
            <path id="path18" fill="#000000" stroke="none" d="M 1779.070435 4169.091797 L 1779.070435 3292.302002 L 1949.48877 3292.302002 L 1949.48877 4019.661377 L 2396.531006 4019.661377 L 2396.531006 4169.091797 L 1779.070435 4169.091797 Z"/>
            <path id="path19" fill="#000000" stroke="none" d="M 2500.262939 4169.091797 L 2500.262939 3292.302002 L 2871.970947 3292.302002 C 2912.299072 3292.302002 2949.558838 3300.753418 2983.731934 3317.607178 C 3017.88623 3334.497559 3047.331543 3356.72876 3072.030518 3384.299805 C 3096.729492 3411.895508 3116.063232 3443.165527 3130.069336 3478.146973 C 3144.063232 3513.152832 3151.063477 3548.35498 3151.063477 3583.740723 C 3151.063477 3620.791992 3144.467529 3656.814941 3131.306885 3691.795898 C 3118.127441 3726.801758 3099.601563 3757.86377 3075.73584 3785.030762 C 3051.845215 3812.197754 3023.037109 3834.024414 2989.292725 3850.486328 C 2955.523682 3866.960449 2918.478271 3875.179199 2878.150391 3875.179199 L 2670.681152 3875.179199 L 2670.681152 4169.091797 L 2500.262939 4169.091797 Z M 2670.681152 3725.748535 L 2868.266113 3725.748535 C 2899.548828 3725.748535 2925.692627 3712.998047 2946.686768 3687.472168 C 2967.680176 3661.958984 2978.177246 3627.381592 2978.177246 3583.740723 C 2978.177246 3561.509766 2974.876221 3541.557129 2968.298828 3523.845947 C 2961.696777 3506.146973 2953.055664 3491.118164 2942.362793 3478.771973 C 2931.657715 3466.425293 2919.090576 3457.15332 2904.699219 3450.97998 C 2890.282715 3444.806641 2875.67627 3441.720215 2860.862061 3441.720215 L 2670.681152 3441.720215 L 2670.681152 3725.748535 Z"/>
        </g>
    </g>
</svg>
