<svg xmlns="http://www.w3.org/2000/svg" id="Layer_2" data-name="Layer 2" version="1.1" viewBox="0 0 210 210"><defs><style>.cls-1,.cls-2{fill:#211d21;stroke-width:0}.cls-2{fill:#231f20}</style></defs><path d="M84.96,20.44c-4.47,0-8.09,3.62-8.09,8.09,0,3.07,1.71,5.74,4.23,7.11v78.3h8.72V35.01c1.97-1.48,3.24-3.83,3.24-6.48,0-4.47-3.62-8.09-8.09-8.09ZM84.96,25.3c1.79,0,3.24,1.45,3.24,3.24s-1.45,3.24-3.24,3.24-3.24-1.45-3.24-3.24,1.45-3.24,3.24-3.24Z" class="cls-1"/><path d="M105,5c-4.47,0-8.09,3.62-8.09,8.09,0,2.87,1.49,5.38,3.74,6.82v94.04h8.72V19.91c2.25-1.44,3.74-3.95,3.74-6.82,0-4.47-3.62-8.09-8.09-8.09ZM105,9.86c1.79,0,3.24,1.45,3.24,3.24s-1.45,3.24-3.24,3.24-3.24-1.45-3.24-3.24,1.45-3.24,3.24-3.24Z" class="cls-1"/><path d="M124.79,29.45c-4.47,0-8.09,3.62-8.09,8.09,0,2.87,1.49,5.38,3.74,6.82v69.58h8.72V44.37c2.25-1.44,3.74-3.95,3.74-6.82,0-4.47-3.62-8.09-8.09-8.09ZM124.79,34.31c1.79,0,3.24,1.45,3.24,3.24s-1.45,3.24-3.24,3.24-3.24-1.45-3.24-3.24,1.45-3.24,3.24-3.24Z" class="cls-1"/><path d="M25.92,53.19c-1.44-2.25-3.95-3.74-6.82-3.74-4.47,0-8.09,3.62-8.09,8.09s3.62,8.09,8.09,8.09c2.87,0,5.38-1.49,6.82-3.74h10.37l-5.08,28.62-7.76.04c-.4,0-.72.4-.72.87v.05c0,.47.35.87.75.87h.07v1.74c.02,3.46,2.84,6.23,6.28,6.23l20.89-.1c3.86-.02,6.95-3.16,6.95-7.02v-1.02h.25c.42,0,.75-.4.75-.87v-.05c0-.47-.35-.87-.75-.87l-7.75.04-5.06-28.52h16.21v52.04h8.72v-60.76H25.92ZM19.1,60.79c-1.79,0-3.24-1.45-3.24-3.24s1.45-3.24,3.24-3.24,3.24,1.45,3.24,3.24-1.45,3.24-3.24,3.24ZM45.25,90.46l-9.12.04,4.56-25.72,4.56,25.68Z" class="cls-1"/><path d="M190.9,35.07c-2.87,0-5.38,1.49-6.82,3.74h-44.11v75.36h8.72V47.53h16.21l-5.06,28.52-7.75-.04c-.4,0-.75.4-.75.87v.05c0,.47.32.87.75.87h.25v1.02c0,3.86,3.09,7,6.95,7.02l20.89.1c3.44,0,6.25-2.76,6.28-6.23v-1.74h.07c.4,0,.75-.4.75-.87v-.05c0-.47-.32-.87-.72-.87l-7.76-.04-5.08-28.62h10.37c1.44,2.25,3.95,3.74,6.82,3.74,4.47,0,8.09-3.62,8.09-8.09s-3.62-8.09-8.09-8.09ZM173.87,76.12l-9.12-.04,4.56-25.68,4.56,25.72ZM190.9,46.41c-1.79,0-3.24-1.45-3.24-3.24s1.45-3.24,3.24-3.24,3.24,1.45,3.24,3.24-1.45,3.24-3.24,3.24Z" class="cls-1"/><g><path d="M61.19,159.75v-36.95h24.83v6.29h-17.63v9.52h14.68v5.83h-14.68v15.3h-7.2Z" class="cls-2"/><path d="M91.05,159.75v-36.95h7.18v30.66h18.84v6.29h-26.02Z" class="cls-2"/><path d="M121.44,159.75v-36.95h15.66c1.69,0,3.27.36,4.71,1.07s2.68,1.65,3.72,2.81,1.86,2.48,2.45,3.95c.59,1.47.89,2.96.89,4.45s-.28,3.08-.83,4.55c-.55,1.47-1.34,2.78-2.35,3.93s-2.22,2.07-3.64,2.75-2.99,1.04-4.68,1.04h-8.74v12.39h-7.18ZM128.62,141.08h8.33c1.32,0,2.42-.54,3.3-1.61.89-1.07,1.32-2.53,1.32-4.37s-.13-1.78-.42-2.53c-.28-.74-.64-1.38-1.09-1.9s-.98-.91-1.59-1.17-1.22-.39-1.84-.39h-8.01v11.97Z" class="cls-2"/></g><rect width="8.72" height="38.09" x="61.19" y="166.91" class="cls-2"/><rect width="8.72" height="38.09" x="120.28" y="166.91" class="cls-2"/><rect width="8.72" height="38.09" x="100.58" y="166.91" class="cls-2"/><rect width="8.72" height="38.09" x="80.89" y="166.91" class="cls-2"/><rect width="8.72" height="38.09" x="139.98" y="166.91" class="cls-2"/></svg>