<?xml version="1.0" encoding="UTF-8"?>
<svg id="Layer_1" data-name="Layer 1" xmlns="http://www.w3.org/2000/svg" version="1.1" viewBox="0 0 918.9 917.5">
  <defs>
    <style>
      .cls-1 {
        stroke-width: 29px;
      }

      .cls-1, .cls-2 {
        fill: none;
        stroke: #000;
        stroke-miterlimit: 10;
      }

      .cls-3 {
        fill: #000;
        stroke-width: 0px;
      }

      .cls-2 {
        stroke-width: 12px;
      }
    </style>
  </defs>
  <g>
    <line class="cls-1" x1="195.6" y1="300.5" x2="232" y2="428.4"/>
    <line class="cls-1" x1="193.3" y1="300.9" x2="162.1" y2="430.9"/>
  </g>
  <path class="cls-3" d="M127.1,430.6l137-.6v4.9c0,15.5-12.4,28.1-27.9,28.2l-83.9.4c-13.8,0-25.1-11.1-25.2-25v-7.9h0Z"/>
  <path class="cls-3" d="M265.2,430.8l-138.4.7c-1.6,0-3-1.6-3-3.5v-.2c0-1.9,1.3-3.5,2.9-3.5l138.4-.7c1.6,0,3,1.6,3,3.5v.2c0,1.9-1.3,3.5-3,3.5h.1Z"/>
  <line class="cls-1" x1="716.7" y1="236.8" x2="754.7" y2="384.7"/>
  <line class="cls-1" x1="714.3" y1="237.4" x2="684.1" y2="387"/>
  <path class="cls-3" d="M646.9,367.2l137-.6v4.9c0,15.5-12.4,28.1-27.9,28.2l-83.9.4c-13.8,0-25.1-11.1-25.2-25v-7.9h0Z"/>
  <path class="cls-3" d="M785,368.3l-138.4.7c-1.6,0-3-1.6-3-3.5v-.2c0-1.9,1.3-3.5,3-3.5l138.4-.7c1.6,0,3,1.6,3,3.5v.2c0,1.9-1.3,3.5-3,3.5Z"/>
  <g>
    <path class="cls-3" d="M134.4,280.8c-3.2-11.2-13.3-19.4-25.5-19.4s-30.1,15.7-25.9,33.2c2.2,9.2,9.5,16.7,18.6,19.2,12.1,3.2,23.4-1.8,29.4-10.8h56.6l-.2.8,14.7-.4.3-.4h82.9v210.1h22.2v-232.2h-173.1ZM108.1,307.9c-11.2,0-20.4-9.1-20.4-20.4s9.1-20.4,20.4-20.4,20.4,9.1,20.4,20.4-9.1,20.4-20.4,20.4Z"/>
    <path class="cls-2" d="M134.4,280.8c-3.2-11.2-13.3-19.4-25.5-19.4s-30.1,15.7-25.9,33.2c2.2,9.2,9.5,16.7,18.6,19.2,12.1,3.2,23.4-1.8,29.4-10.8h56.6l-.2.8,14.7-.4.3-.4h82.9v210.1h22.2v-232.2h-173.1ZM108.1,307.9c-11.2,0-20.4-9.1-20.4-20.4s9.1-20.4,20.4-20.4,20.4,9.1,20.4,20.4-9.1,20.4-20.4,20.4Z"/>
  </g>
  <g>
    <path class="cls-3" d="M403.3,176.3c0-16.7-15.6-29.7-33-25.7h0c-9.6,2.2-17.4,10-19.6,19.6-3,12.9,3.6,24.6,14.1,29.8l2.4,312.3h22.1l-2.4-311.5c9.6-4,16.3-13.5,16.3-24.4h.1ZM376,195.3c-11.1,0-20.1-9-20.1-20.1s9-20.1,20.1-20.1,20.1,9,20.1,20.1-9,20.1-20.1,20.1Z"/>
    <path class="cls-2" d="M403.3,176.3c0-16.7-15.6-29.7-33-25.7h0c-9.6,2.2-17.4,10-19.6,19.6-3,12.9,3.6,24.6,14.1,29.8l2.4,312.3h22.1l-2.4-311.5c9.6-4,16.3-13.5,16.3-24.4h.1ZM376,195.3c-11.1,0-20.1-9-20.1-20.1s9-20.1,20.1-20.1,20.1,9,20.1,20.1-9,20.1-20.1,20.1Z"/>
  </g>
  <g>
    <path class="cls-3" d="M485.7,114.3c0-16.7-15.6-29.7-33-25.7h0c-9.6,2.2-17.4,10-19.6,19.6-3,12.9,3.6,24.6,14.1,29.8l2.4,374.5h22.1l-2.4-373.7c9.6-4,16.3-13.5,16.3-24.4h.1ZM458.4,133.3c-11.1,0-20.1-9-20.1-20.1s9-20.1,20.1-20.1,20.1,9,20.1,20.1-9,20.1-20.1,20.1Z"/>
    <path class="cls-2" d="M485.7,114.3c0-16.7-15.6-29.7-33-25.7h0c-9.6,2.2-17.4,10-19.6,19.6-3,12.9,3.6,24.6,14.1,29.8l2.4,374.5h22.1l-2.4-373.7c9.6-4,16.3-13.5,16.3-24.4h.1ZM458.4,133.3c-11.1,0-20.1-9-20.1-20.1s9-20.1,20.1-20.1,20.1,9,20.1,20.1-9,20.1-20.1,20.1Z"/>
  </g>
  <g>
    <path class="cls-3" d="M563,212.5c0-16.7-15.6-29.7-33-25.7h0c-9.6,2.2-17.4,10-19.6,19.6-3,12.9,3.6,24.6,14.1,29.8l2.4,276.2h22.1l-2.4-275.4c9.6-4,16.3-13.5,16.3-24.4h.1ZM535.7,231.5c-11.1,0-20.1-9-20.1-20.1s9-20.1,20.1-20.1,20.1,9,20.1,20.1-9,20.1-20.1,20.1Z"/>
    <path class="cls-2" d="M563,212.5c0-16.7-15.6-29.7-33-25.7h0c-9.6,2.2-17.4,10-19.6,19.6-3,12.9,3.6,24.6,14.1,29.8l2.4,276.2h22.1l-2.4-275.4c9.6-4,16.3-13.5,16.3-24.4h.1ZM535.7,231.5c-11.1,0-20.1-9-20.1-20.1s9-20.1,20.1-20.1,20.1,9,20.1,20.1-9,20.1-20.1,20.1Z"/>
  </g>
  <g>
    <path class="cls-3" d="M817,224.8c-2.2-9.1-9.5-16.6-18.6-19-14.1-3.7-27.2,3.9-31.9,15.6h-166.2v291.6h22.2V243.5h83.4l-.2.6,14.7-.4.3-.2h46.9c4.4,8.5,13.3,14.3,23.6,14.3,16.8,0,30.1-15.6,25.8-33h0ZM791.9,251.8c-11.3,0-20.5-9.2-20.5-20.5s9.2-20.5,20.5-20.5,20.5,9.2,20.5,20.5-9.2,20.5-20.5,20.5Z"/>
    <path class="cls-2" d="M817,224.8c-2.2-9.1-9.5-16.6-18.6-19-14.1-3.7-27.2,3.9-31.9,15.6h-166.2v291.6h22.2V243.5h83.4l-.2.6,14.7-.4.3-.2h46.9c4.4,8.5,13.3,14.3,23.6,14.3,16.8,0,30.1-15.6,25.8-33h0ZM791.9,251.8c-11.3,0-20.5-9.2-20.5-20.5s9.2-20.5,20.5-20.5,20.5,9.2,20.5,20.5-9.2,20.5-20.5,20.5Z"/>
  </g>
  <g>
    <path class="cls-3" d="M182.8,796.2v-248.5h167v42.3h-118.6v64h98.7v39.2h-98.7v102.9h-48.4Z"/>
    <path class="cls-3" d="M383.6,796.2v-248.5h48.3v206.2h126.7v42.3h-175,0Z"/>
    <path class="cls-3" d="M588,796.2v-248.5h105.3c11.4,0,22,2.4,31.7,7.2s18,11.1,25,18.9,12.5,16.7,16.5,26.6c4,9.9,6,19.9,6,29.9s-1.9,20.7-5.6,30.6c-3.7,9.9-9,18.7-15.8,26.4s-14.9,13.9-24.5,18.5-20.1,7-31.5,7h-58.8v83.3h-48.3ZM636.3,670.6h56c8.9,0,16.3-3.6,22.2-10.8,6-7.2,8.9-17,8.9-29.4s-.9-12-2.8-17c-1.9-5-4.3-9.3-7.3-12.8s-6.6-6.1-10.7-7.9-8.2-2.6-12.4-2.6h-53.9v80.5Z"/>
  </g>
</svg>