<svg xmlns="http://www.w3.org/2000/svg" xmlns:svg="http://www.w3.org/2000/svg" id="Layer_1" width="720" height="720" x="0" y="0" enable-background="new 0 0 720 720" version="1.1" viewBox="0 0 720 720" xml:space="preserve"><metadata id="metadata4293"/><rect style="fill:#fff;fill-opacity:1;stroke:none" id="rect4295" width="750" height="750" x="-17.254" y="-33.051"/><path id="path4199" fill-rule="evenodd" d="M279.354,589.781c-0.005,0.032-0.008,0.062-0.014,0.093 c0.027-0.004,0.055-0.008,0.082-0.012L279.354,589.781z" clip-rule="evenodd"/><path id="path4209" fill-rule="evenodd" d="M94.886,643.041l0.091-0.078L94.886,643.041z" clip-rule="evenodd"/><path id="path4211" fill-rule="evenodd" d="M519.557,204.562l-0.109,0.097L519.557,204.562z" clip-rule="evenodd"/><path id="path4213" fill-rule="evenodd" d="M702.467,620.101l-0.1,0.098L702.467,620.101z" clip-rule="evenodd"/><path id="path4215" fill-rule="evenodd" d="M143.678,254.826l0.081,0.088L143.678,254.826z" clip-rule="evenodd"/><path id="path4217" fill-rule="evenodd" d="M216.646,287.821l-0.089,0.08L216.646,287.821z" clip-rule="evenodd"/><path id="path4219" fill="#FFF" fill-rule="evenodd" d="M521.292,204.689l0.076-0.069L521.292,204.689z" clip-rule="evenodd"/><path id="path4221" fill="#FFF" fill-rule="evenodd" d="M504.21,213.145l0.091,0.1L504.21,213.145z" clip-rule="evenodd"/><path id="path4223" fill="#FFF" fill-rule="evenodd" d="M505.902,216.938l0.085,0.094L505.902,216.938z" clip-rule="evenodd"/><path id="path4225" fill="#FFF" fill-rule="evenodd" d="M511.487,217.213l0.054,0.066L511.487,217.213z" clip-rule="evenodd"/><path id="path4231" fill="#FFF" fill-rule="evenodd" d="M170.625,233.707l0.093,0.104L170.625,233.707z" clip-rule="evenodd"/><path id="path4245" fill-rule="evenodd" d="M289.042,312.286c0,0-5.675-5.301-8.461-3.441 c-2.789,1.861-4.077,6.494-4.077,6.494l0.614,2.473c0,0,2.583-5.398,3.727-6.79C281.988,309.629,289.042,312.286,289.042,312.286z" clip-rule="evenodd" style="fill:#003478;fill-opacity:1"/><text style="font-size:267.05316161999996893px;fill:#003478;fill-opacity:0;stroke:#003478;stroke-width:4.99992036999999989;stroke-miterlimit:10;stroke-opacity:1;font-family:Rockwell-ExtraBold" id="text4253" x="300.6" y="675.987" stroke-miterlimit="10" font-size="267.057" transform="matrix(0.94031496,-0.34030541,0.34030541,0.94031496,0,0)">$</text><text style="font-size:267.05316162px;fill:#003478;fill-opacity:1;stroke:#003478;stroke-width:1;stroke-opacity:1;font-family:Rockwell-ExtraBold" id="text4255" x="291.757" y="668.372" font-size="267.057" transform="matrix(0.94031496,-0.34030541,0.34030541,0.94031496,0,0)">$</text><path style="fill:#003478;fill-opacity:1;fill-rule:evenodd" id="path4195" d="M 460.65625 82.09375 C 458.76861 82.076898 456.28837 83.089125 452.71875 85.03125 C 428.54975 98.18225 404.67975 111.87525 380.71875 125.40625 C 378.85275 126.45825 376.212 127.714 375.75 129.375 C 374.879 132.506 373.93275 137.857 375.46875 139 C 381.03275 143.137 378.60125 145.58025 375.15625 149.03125 C 369.97525 154.22125 369.30975 160.45475 372.46875 166.96875 C 375.56275 173.34375 379.67275 178.5955 387.71875 178.6875 C 389.47675 178.7065 392.40625 178.638 392.78125 179.5 C 395.22225 185.14 397.653 190.911 399 196.875 C 399.985 201.246 400.8505 204.084 406.0625 204.75 C 411.4025 205.431 411.74 208.2785 408 212.3125 C 404.041 216.5805 400.01875 221.04 397.34375 226.125 C 395.05175 230.481 392.3355 232.32275 387.6875 233.34375 C 377.3815 235.60975 369.24925 241.31225 367.03125 252.15625 C 365.90825 257.64225 363.15025 261.0065 359.03125 263.9375 C 355.75625 266.2685 352.77425 269.3005 349.15625 270.8125 C 338.14125 275.4115 329.3885 282.55975 320.9375 290.96875 C 313.5865 298.28675 304.0685 303.46075 295.4375 309.46875 C 287.4205 315.04875 287.41825 314.9585 291.78125 324.1875 C 293.92541 328.722 295.92117 333.31034 298 337.875 C 302.78013 339.74931 305.90435 336.87526 309.5625 334.375 C 323.1615 325.074 334.2195 311.78175 351.1875 307.59375 C 353.2525 307.08375 355.38175 304.8235 356.46875 302.8125 C 361.94075 292.6985 372.22075 288.448 380.96875 282.375 C 382.25275 281.482 384.5105 281.46325 386.1875 281.78125 C 398.3465 284.08225 406.06925 277.63325 412.53125 268.65625 C 413.94325 266.69525 414.98275 262.9615 416.46875 262.8125 C 421.99875 262.2575 428.18275 257.919 433.09375 263.125 C 436.54575 266.782 438.97525 271.54725 441.15625 276.15625 C 441.81325 277.54925 440.08475 280.08875 439.46875 282.09375 C 436.41575 292.05675 441.61925 304.08175 451.03125 307.46875 C 457.16325 309.67375 464.07925 309.4165 468.40625 316.0625 C 469.69725 318.0455 474.807 318.7085 477.875 318.1875 C 505.703 313.4535 530.18975 301.69275 549.96875 281.34375 C 552.72875 278.50575 552.925 273.066 554 268.75 C 554.835 265.408 554.449 261.59375 555.875 258.59375 C 562.207 245.28475 556.882 232.4435 542.875 227.4375 C 540.756 226.6805 538.59575 224.57725 537.59375 222.53125 C 535.33275 217.91225 533.90025 212.888 531.90625 208.125 C 529.77197 203.0244 526.57307 200.54408 521.375 204.625 C 520.75758 204.63855 520.12208 204.64373 519.5 204.65625 C 516.83022 208.84159 514.1708 213.03341 511.5 217.21875 L 511.53125 217.28125 C 509.67404 217.16851 507.82796 217.05024 505.96875 216.9375 C 505.39127 215.67228 504.79809 214.4224 504.21875 213.15625 L 504.3125 213.25 C 496.0905 201.337 487.75925 189.47725 479.78125 177.40625 C 478.85625 176.00725 479.01675 172.33675 480.09375 171.46875 C 484.63775 167.80175 489.38675 163.992 494.71875 161.875 C 497.76975 160.663 500.00775 160.9415 500.09375 156.6875 C 500.15875 153.5635 503.55775 149.761 502.59375 147.5 C 499.90475 141.216 496.396 134.98225 491.875 129.90625 C 489.007 126.68325 488.0795 125.3235 490.9375 121.8125 C 496.7435 114.6785 494.67625 107.27825 490.40625 100.28125 C 486.33625 93.61125 480.46275 91.66125 472.84375 93.78125 C 471.33375 94.20125 467.97325 92.75675 467.53125 91.46875 C 465.32687 85.050625 463.80232 82.121836 460.65625 82.09375 z M 519.5 204.65625 C 519.52019 204.62459 519.54231 204.59416 519.5625 204.5625 L 519.4375 204.65625 C 519.45824 204.65583 519.47927 204.65667 519.5 204.65625 z M 487.28125 104.875 C 487.78125 106.386 488.29825 107.89475 488.03125 107.09375 C 488.95325 112.81775 488.027 115.49775 485.25 117.59375 C 480.687 121.04475 478.09975 126.83675 472.09375 128.59375 C 470.54975 129.04375 469.09125 129.73175 467.53125 130.09375 C 467.00225 130.21675 465.90525 129.84375 465.78125 129.46875 C 465.49425 128.61175 465.2365 127.141 465.6875 126.75 C 469.0765 123.805 470.46725 119.75 472.28125 115.875 C 474.56925 110.985 477.369 106.52475 483.75 106.34375 C 484.938 106.30875 486.10425 105.391 487.28125 104.875 z M 494.5625 137.28125 C 494.6345 137.59825 494.69725 137.91125 494.78125 138.28125 C 493.88625 140.29525 493.51675 142.99725 491.96875 144.28125 C 487.42275 148.05025 482.4225 151.27525 477.5625 154.65625 C 477.2425 154.87825 476.2955 154.80775 476.1875 154.59375 C 475.9105 154.02975 475.591 152.9785 475.875 152.6875 C 481.042 147.3735 485.274 140.99975 492.375 137.84375 C 493.057 137.54175 493.8285 137.45725 494.5625 137.28125 z M 398.5625 143.3125 C 398.8885 143.1625 399.68475 144.06825 400.34375 144.53125 C 399.42575 146.30325 398.6875 147.72425 397.9375 149.15625 C 394.5305 155.64025 388.03575 157.39725 381.84375 159.53125 C 381.11875 159.78125 379.60875 159.22975 379.21875 158.59375 C 378.84575 157.97875 379.1315 156.45 379.6875 155.875 C 382.7305 152.725 385.54875 149.343 389.84375 147.625 C 392.83775 146.428 395.6205 144.6605 398.5625 143.3125 z M 534.34375 224.125 C 534.41575 224.443 534.4805 224.755 534.5625 225.125 C 533.6685 227.139 533.298 229.84 531.75 231.125 C 527.203 234.894 522.20375 238.12 517.34375 241.5 C 517.02375 241.722 516.0435 241.62025 515.9375 241.40625 C 515.6595 240.84225 515.37225 239.82125 515.65625 239.53125 C 520.82425 234.21825 525.024 227.81225 532.125 224.65625 C 532.806 224.35425 533.60975 224.3 534.34375 224.125 z M 553.96875 242.3125 C 554.46975 243.8265 554.9555 245.33225 554.6875 244.53125 C 555.6105 250.25425 554.7135 252.904 551.9375 255 C 547.3745 258.451 544.78725 264.27525 538.78125 266.03125 C 537.23825 266.48225 535.7475 267.138 534.1875 267.5 C 533.6575 267.623 532.59475 267.25 532.46875 266.875 C 532.18275 266.018 531.924 264.54725 532.375 264.15625 C 535.764 261.21125 537.1235 257.1885 538.9375 253.3125 C 541.2265 248.4225 544.0565 243.96225 550.4375 243.78125 C 551.6255 243.74725 552.79375 242.8285 553.96875 242.3125 z M 406.875 245.0625 C 410.95656 245.14748 409.7325 250.08688 410.90625 252.125 C 414.44525 258.255 408.7485 264.9285 406.5625 269.5625 C 402.6435 269.5625 402.09925 267.94275 400.03125 266.09375 C 399.12625 265.28275 400.0265 262.45575 400.1875 257.84375 C 400.4615 257.30675 401.96375 254.63075 403.21875 251.84375 C 404.21575 249.62075 401.502 245.68 406 245.125 C 406.32156 245.08537 406.6029 245.05683 406.875 245.0625 z M 365.03125 280.8125 C 365.74625 280.6795 366.64025 281.41025 367.53125 281.78125 C 367.14025 282.43625 366.84875 283.20675 366.34375 283.71875 C 356.95775 293.19675 346.741 301.605 335.125 308.25 C 334.67934 308.50567 333.8112 309.07513 333.25 309.40625 C 332.74234 310.24853 330.54171 312.79847 329.78125 312.25 C 327.63325 310.701 325.0075 308.25525 328.3125 305.53125 C 331.7575 302.69325 335.78475 300.55575 339.34375 297.84375 C 345.88575 292.85875 352.1945 287.53525 358.8125 282.65625 C 360.4575 281.44225 362.89625 281.2105 365.03125 280.8125 z M 475.125 288.4375 C 475.45 288.2875 476.24725 289.19325 476.90625 289.65625 C 475.98825 291.42825 475.251 292.85125 474.5 294.28125 C 471.092 300.76625 464.59725 302.52225 458.40625 304.65625 C 457.68225 304.90625 456.16925 304.35575 455.78125 303.71875 C 455.40625 303.10375 455.695 301.574 456.25 301 C 459.294 297.85 462.10925 294.468 466.40625 292.75 C 469.39925 291.553 472.183 289.7845 475.125 288.4375 z"/><path style="fill:#003478;fill-opacity:1;fill-rule:evenodd" id="path4197" d="M 647.125 537.4375 C 645.32633 537.43698 643.55225 537.474 641.78125 537.5 C 597.89425 538.138 553.958 538.38 510.125 540.375 C 500.44 540.815 491.0335 547.769 481.5625 551.875 C 480.5815 552.3 479.63925 553.662 479.40625 554.75 C 477.38525 564.258 475.4665 573.818 473.6875 583.375 C 473.4835 584.476 474.47625 585.7285 474.53125 586.9375 C 474.88025 594.6405 475.62825 602.37325 475.15625 610.03125 C 474.95625 613.30925 472.29375 616.52275 470.46875 619.59375 C 469.21175 621.70875 467.48875 623.538 465.96875 625.5 C 468.39575 627.226 470.58425 629.78825 473.28125 630.53125 C 480.41925 632.50025 487.7265 634.108 495.0625 635.125 C 549.5215 642.685 604.2155 642.94775 658.9375 639.34375 C 673.0425 638.41875 687.0245 635.171 700.9375 632.375 C 703.7765 631.806 706.05275 628.50875 708.59375 626.46875 C 706.51575 624.38175 704.454 622.2775 702.375 620.1875 L 702.46875 620.09375 C 698.21775 622.42675 694.20325 625.628 689.65625 626.875 C 682.85825 628.74 675.69425 629.37725 668.65625 630.28125 C 661.59225 631.18525 660.06225 629.37275 660.28125 622.21875 C 660.55025 613.51075 660.42525 604.80775 660.40625 596.09375 C 660.40425 595.19475 660.29575 593.9105 659.71875 593.4375 C 655.92075 590.3265 657.7555 590.35 661.1875 590 C 672.5325 588.837 683.881 587.5425 695.125 585.6875 C 697.322 585.3245 701.04775 581.05875 700.71875 580.46875 C 695.92175 571.90875 694.58275 562.3445 691.84375 553.1875 C 691.52975 552.1395 690.3565 551.0355 689.3125 550.5625 C 680.5865 546.6015 672.08175 541.92475 662.96875 539.21875 C 657.979 537.7405 652.52102 537.43905 647.125 537.4375 z M 661.875 543.75 C 662.54413 543.72262 663.01475 543.71975 663.40625 543.90625 C 664.40125 544.38225 666.46475 544.93 665.34375 546.5 C 664.58475 547.565 665.1755 550.65825 662.5625 549.53125 C 658.5055 547.78125 654.31225 548.34175 650.15625 548.09375 C 648.90025 548.02075 647.68775 547.155 646.46875 546.625 C 646.26275 546.535 645.977 546.18625 646 546.15625 C 646.229 545.84125 646.54025 545.2905 646.78125 545.3125 C 651.48725 545.7665 656.00725 544.73375 659.15625 543.84375 C 660.33925 543.84375 661.20587 543.77738 661.875 543.75 z M 660.09375 553.90625 C 662.78377 553.86055 665.463 553.9375 668.15625 553.9375 C 671.26725 553.9375 674.389 553.9335 677.5 553.9375 C 680.45 553.9375 682.77375 555.30175 684.59375 557.46875 C 684.85975 557.78575 684.31075 559.472 683.84375 559.625 C 679.99775 560.878 666.309 562.1165 662.25 561.0625 C 658.872 560.1825 655.74725 558.2885 652.53125 556.8125 C 652.21225 556.6655 652.004 556.26175 651.75 555.96875 C 652.152 555.77775 652.55275 555.55025 652.96875 555.40625 C 654.43875 554.90725 655.90625 554.088 657.40625 554 C 658.30075 553.94975 659.19708 553.92148 660.09375 553.90625 z M 511.75 613.09375 C 512.43516 613.05028 513.20575 613.08425 514.03125 613.1875 C 517.97725 613.6855 521.989 613.837 525.875 614.625 C 530.748 615.615 534.53075 625.07075 531.46875 628.84375 C 530.37375 630.18775 527.8235 630.32925 526.9375 630.65625 C 521.1565 629.95625 516.58025 629.44775 512.03125 628.84375 C 507.94125 628.29875 503.82775 627.789 504.71875 621.875 C 505.4345 617.12638 506.95385 613.39802 511.75 613.09375 z"/><path id="path4201" d="m 339.739,641.479 c -1.477,-0.273 -3.058,0.016 -4.598,0.052 -14.189,0.323 -28.377,0.74 -42.567,0.936 -12.338,0.17 -24.687,0.228 -37.025,0.066 -8.347,-0.108 -16.695,-0.563 -25.023,-1.147 -1.437,-0.1 -2.778,-1.603 -4.164,-2.457 1.442,-0.337 2.881,-0.955 4.322,-0.963 27.165,-0.134 54.332,-0.132 81.496,-0.312 7.708,-0.054 15.423,-0.436 23.108,-1.026 1.681,-0.127 3.246,-1.781 4.862,-2.733 -1.539,-0.805 -3.003,-2.081 -4.631,-2.339 -12.118,-1.936 -24.346,-3.265 -36.372,-5.646 -5.481,-1.087 -11.006,-3.466 -15.668,-6.541 -2.43,-1.601 -4.704,-6.483 -3.959,-8.952 0.653,-2.163 5.519,-3.837 8.713,-4.248 3.873,-0.497 7.952,0.844 11.93,0.776 1.286,-0.024 2.538,-1.991 3.807,-3.069 -1.31,-0.947 -2.572,-2.618 -3.938,-2.708 -4.288,-0.275 -8.693,0.608 -12.903,0 -6.813,-0.984 -8.935,-4.516 -7.789,-11.293 -6.469,1.009 -13.138,1.34 -19.353,3.191 -12.756,3.798 -19.248,0.776 -22.424,-12.035 -2.058,-8.301 -3.439,-16.764 -5.373,-25.095 -0.542,-2.337 -2.224,-4.385 -2.94,-6.705 -3.352,-10.844 -6.981,-21.636 -9.622,-32.662 -1.346,-5.615 1.272,-10.042 7.581,-11.876 4.699,-1.37 9.159,-3.617 13.624,-5.688 0.949,-0.439 1.46,-1.816 2.174,-2.762 -1.024,-0.342 -2.029,-0.765 -3.075,-1.006 -3.826,-0.891 -8.319,-0.736 -11.368,-2.766 -8.354,-5.567 -15.997,-12.194 -24.125,-18.119 -5.963,-4.347 -12.788,-7.637 -18.26,-12.488 -8.152,-7.231 -16.968,-13.998 -22.134,-24.125 -1.208,-2.365 -3.536,-4.377 -5.777,-5.936 -1.894,-1.314 -4.792,-2.831 -6.533,-2.223 -1.514,0.531 -2.535,3.829 -2.892,6.043 -0.932,5.776 -0.893,11.735 -2.129,17.428 -2.153,9.887 -5.555,19.528 -7.292,29.472 -0.993,5.682 -1.669,9.287 -8.479,6.729 -0.695,-0.258 -1.89,0.813 -2.852,1.265 0.633,0.585 1.174,1.489 1.916,1.708 7.734,2.266 6.319,6.717 3.276,12.06 -7.955,13.966 -15.577,28.12 -23.569,42.062 -3.061,5.334 -6.596,10.423 -10.235,15.39 -3.492,4.766 -7.547,5.216 -12.82,1.872 -6.761,-4.289 -14.08,-7.715 -21.229,-11.371 -0.877,-0.45 -2.2,-0.021 -3.318,-0.002 0.335,0.824 0.433,2.06 1.04,2.409 6.161,3.542 -0.22,12.441 6.676,15.744 0.208,0.1 -0.638,2.734 -1.222,4.087 -4.371,10.125 -8.868,20.198 -13.182,30.344 -1.771,4.162 -4.358,4.795 -8.056,2.584 -3.98,-2.377 -7.839,-5.055 -12.048,-6.935 -3.352,-1.501 -7.149,-2.004 -10.751,-2.951 2.139,2.886 3.957,6.088 6.47,8.593 6.564,6.537 13.5,12.695 20.144,19.158 2.316,2.253 4.207,4.943 6.293,7.439 -2.962,0.658 -6.055,0.983 -8.861,2.052 -1.184,0.451 -29.724199,0.959 -65.873199,1.498 0.21,2.455 0.204,5.04483 0,7.49983 37.013,0.25 66.531199,0.27317 67.889199,0.28317 14.779,0.102 29.564,-0.657 44.345,-1.078 l -0.091,0.078 c 3.007,-0.483 6.009,-1.002 9.023,-1.447 10.37,-1.528 20.784,-2.804 31.078,-4.723 2.231,-0.417 6.01,-3.646 5.729,-4.668 -2.471,-9.027 -1.516,-19.037 -8.964,-26.72 -7.018,-7.237 -15.423,-8.399 -24.555,-8.595 -3.971,-0.084 -8.376,0.403 -10.061,-4.609 -0.447,-1.335 -0.332,-2.859 -0.476,-4.294 1.359,0.385 2.83,0.549 4.056,1.189 9.17,4.789 9.292,4.925 15.667,-3.333 14.167,-18.358 27.969,-37.003 42.338,-55.199 9.141,-11.578 16.408,-23.916 20.135,-38.275 0.926,-3.564 2.423,-7.043 4.102,-10.333 3.169,-6.208 4.489,-6.328 8.886,-0.715 5.505,7.03 10.965,14.11 16.022,21.458 2.117,3.077 4.05,6.784 4.526,10.406 3.227,24.513 5.896,49.096 9.148,73.601 0.482,3.625 2.273,7.932 4.932,10.2 3.574,3.046 3.292,5.422 1.348,8.652 -6.249,10.383 -7.879,22.043 -8.775,33.756 -0.165,2.157 2.264,5.339 4.365,6.619 2.156,1.315 5.382,1.17 8.139,1.168 29.336,-0.008 58.674,0.002 88.007,-0.287 6.762,-0.068 13.521,-1.202 20.263,-1.998 1.004,-0.119 1.911,-1.079 2.862,-1.648 -0.973,-0.62 -1.887,-1.568 -2.941,-1.767 z" clip-rule="evenodd" style="fill:#003478;fill-opacity:1;fill-rule:evenodd"/><path id="path4203" d="m 291.663,354.359 c 1.299,-1.179 2.597,-2.353 3.898,-3.529 l -0.05,-0.08 c 0.598,1.319 1.197,2.64 1.798,3.961 l -0.094,-0.098 c -5.811,10.063 -13.891,16.572 -26.128,15.244 -3.838,-0.418 -3.378,0.454 -3.555,3.613 -0.541,9.586 -16.767,23.21 -26.704,23.078 -4.87,-0.064 -7.293,-2.335 -7.277,-7.443 0.028,-8.932 -0.056,-17.874 -0.475,-26.796 -0.413,-8.886 -0.946,-17.583 -5.27,-25.987 -3.436,-6.683 -4.431,-14.595 -6.771,-21.877 -2.812,-8.749 -6.76,-10.475 -15.123,-6.99 -0.569,0.237 -1.155,0.855 -1.653,0.774 -5.463,-0.889 -13.675,-0.057 -15.772,-3.235 -4,-6.062 3.143,-9.882 7.975,-11.857 6.389,-2.608 13.426,-3.619 20.184,-5.316 l -0.089,0.08 c 6.264,1.509 12.625,2.718 18.754,4.658 3.038,0.961 6.71,2.611 8.243,5.094 3.747,6.066 6.348,12.833 9.59,19.226 0.48,0.951 2.233,2.202 2.875,1.956 2.353,-0.903 6.189,-2.144 6.403,-3.68 0.846,-6.171 3.324,-4.916 5.608,-1.475 3.426,5.165 6.862,10.548 8.926,16.327 2.263,6.341 6.006,7.688 12.012,6.958 2.95,-0.357 6.064,0.634 9.104,1.015 l -0.096,-0.125 c -5.61,4.135 -8.499,9.298 -6.2,16.418 m -62.013,-28.377 c -0.554,9.794 1.533,12.008 9.918,14.527 8.705,2.616 13.801,-3.47 19.917,-7.148 1.559,-0.938 2.468,-2.958 3.675,-4.481 -1.905,-0.669 -4.178,-2.37 -5.651,-1.84 -8.734,3.128 -13.791,-1.539 -18.871,-7.545 -4.43,-5.236 -6.351,-4.598 -8.188,1.956 -0.495,1.762 -0.645,3.622 -0.8,4.531 z" clip-rule="evenodd" style="fill:#003478;fill-opacity:1;fill-rule:evenodd"/><path id="path4205" d="m 120.046,324.257 c -0.606,-4.189 -1.25,-8.375 -1.801,-12.571 -0.135,-1.039 0.027,-2.118 0.052,-3.178 0.891,0.168 2.123,0.021 2.614,0.555 2.44,2.653 5.055,5.26 6.923,8.303 4.666,7.597 9.356,15.229 13.291,23.211 3.657,7.42 6.507,15.255 9.405,23.022 1.513,4.06 -0.614,7.053 -4.651,7.214 -6.053,0.24 -12.471,0.575 -18.091,-1.181 -3.118,-0.973 -6.619,-5.919 -7.027,-9.415" clip-rule="evenodd" style="fill:#003478;fill-opacity:1;fill-rule:evenodd"/><path id="path4207" d="m 135.696,451.595 c -1.347,4.697 -50.759,35.747 -54.838,33.688 -2.961,-1.494 -5.665,-8.456 -6.298,-11.671 -1.128,-5.747 56.525,-47.912 62.16,-49.484 0.901,-0.25 3.101,1.328 3.418,2.426 0.571,1.983 0.172,4.245 0.178,6.392" clip-rule="evenodd" style="fill:#003478;fill-opacity:1;fill-rule:evenodd"/><path id="path4233" d="m 236.023,398.201 c 0,0 -3.095,10.395 -1.331,26.58 1.763,16.186 34.107,55.249 36.369,60.15 2.263,4.902 22.146,97.389 22.187,99.481 0.04,2.095 -10.548,5.11 -10.548,5.11 0,0 6.527,-2.965 6.558,-6.447 0.031,-3.484 -15.28,-85.453 -22.978,-95.104 -7.697,-9.648 -36.947,-47.631 -37.165,-63.439 -0.127,-9.199 0.111,-21.803 2.107,-26.392 1.434,-3.289 4.801,0.061 4.801,0.061 z" style="fill:#003478;fill-opacity:1"/><path id="path4235" d="m 311.843,601.957 c 0,0 28.935,-1.909 33.544,9.447 4.609,11.354 4.582,22.503 4.582,22.503 0,0 5.184,4.819 5.256,7.204 0.072,2.381 -3.894,4.007 -3.894,4.007 l -4.526,-0.199 c 0,0 3.215,-1.776 2.855,-4.054 -0.36,-2.28 -3.913,-3.728 -4.781,-5.323 -0.867,-1.597 -6.557,-11.467 -8.425,-21.759 -1.868,-10.293 -24.611,-11.826 -24.611,-11.826 z" clip-rule="evenodd" style="fill:#003478;fill-opacity:1;fill-rule:evenodd"/><path id="path4237" d="m 129.519,462.412 c 0,0 -4.59,24.421 -6.412,27.129 -1.822,2.712 -63.187,52.496 -64.381,58.486 -1.194,5.99 0.773,14.623 -0.697,15.765 -1.469,1.146 -35.606,27.699 -35.606,27.699 0,0 7.695,3.58 11.129,0.493 3.435,-3.09 26.396,-22.533 27.581,-24.801 1.186,-2.271 -2.099,-8.612 0.717,-16.229 2.816,-7.62 61.995,-57.045 63.516,-59.917 1.519,-2.875 4.153,-28.625 4.153,-28.625 z" style="fill:#003478;fill-opacity:1"/><path id="path4239" d="m 142.42,241.821 -0.492,11.129 c 0,0 -38.565,17.531 -38.493,29.909 0.074,12.377 12.698,74.266 12.698,74.266 l 2.229,8.463 c 0,0 -12.194,-67.445 -8.194,-80.897 4.002,-13.453 26.742,-24.528 33.33,-25.786 6.585,-1.256 21.384,0.327 21.384,0.327 0,0 -15.596,-4.562 -17.885,-8.844 -2.287,-4.284 -4.577,-8.567 -4.577,-8.567 z" clip-rule="evenodd" style="fill:#003478;fill-opacity:1;fill-rule:evenodd"/><path id="path4241" d="m 184.211,229.977 c 0.423,-0.167 0.253,8.428 2.245,10.969 1.991,2.542 26.295,8.174 31.813,10.172 5.518,1.997 26.121,30.257 26.121,30.257 l 16.362,23.866 c 0,0 -16.292,-16.011 -20.751,-22.307 -4.462,-6.296 -17.769,-26.383 -26.76,-29.234 -8.99,-2.851 -17.809,-3.841 -23.675,-3.149 -5.866,0.692 -17.302,2.04 -17.302,2.04 0,0 7.973,-4.125 9.426,-6.946 1.454,-2.823 2.098,-15.501 2.521,-15.668 z" clip-rule="evenodd" style="fill:#003478;fill-opacity:1;fill-rule:evenodd"/><path id="path4243" d="m 152.365,374.215 c 0,0 1.001,12.345 -0.642,14.531 -1.643,2.184 -10.021,12.875 -10.226,17.513 -0.206,4.636 -1.284,14.849 -0.629,14.222 0.651,-0.632 0.176,-6.935 3.49,-14.098 3.315,-7.158 10.038,-15.04 10.849,-19.343 0.809,-4.302 -2.842,-12.825 -2.842,-12.825 z" clip-rule="evenodd" style="fill:#003478;fill-opacity:1;fill-rule:evenodd"/><path id="path4247" d="m 689.721,589.512 c 0,0 7.734,-2.211 8.998,-2.73 1.266,-0.524 2.57,-2.472 2.934,-2.613 0.365,-0.142 0.678,34.108 0.678,34.108 0,0 -1.643,-28.644 -2.404,-29.198 -0.761,-0.554 -10.206,0.433 -10.206,0.433 z" clip-rule="evenodd" style="fill:#003478;fill-opacity:1;fill-rule:evenodd"/><path id="path4249" d="m 491.014,165.543 c 0,0 8.248,-4.437 9.613,-3.756 1.363,0.68 4.695,14.553 8.224,20.652 3.53,6.101 10.683,17.199 10.855,18.755 0.172,1.557 -5.229,8.132 -5.229,8.132 0,0 1.721,-7.358 1.936,-8.743 0.217,-1.383 -9.441,-10.639 -12.267,-16.803 -2.825,-6.166 -4.312,-18.58 -5.686,-18.526 -1.374,0.054 -7.446,0.289 -7.446,0.289 z" clip-rule="evenodd" style="fill:#003478;fill-opacity:1;fill-rule:evenodd"/><path id="path4257" d="M 50.637,571.934 H -17 c 0,1.108 0,2.217 0,3.326 l 65.454,0.229 2.183,-3.555 z" clip-rule="evenodd" style="fill:#003478;fill-opacity:1;fill-rule:evenodd"/><polygon id="polygon4259" points="74.042 571.934 73.967 575.832 232.965 577.966 232.959 571.934" clip-rule="evenodd" style="fill:#003478;fill-opacity:1;fill-rule:evenodd"/><path id="path4261" d="m 477.182,571.934 h -5.228 -182.092 l 0.79,6.237 180.846,-2.522 5.981,-0.044 c 0.282,-1.225 -0.081,-2.447 -0.297,-3.671 z" clip-rule="evenodd" style="fill:#003478;fill-opacity:1;fill-rule:evenodd"/><path id="path4263" d="m 732.79915,571.934 c -0.62,-0.858 -43.652,-1.038 -43.652,-1.038 0.041,0.182 -0.059,2.469 0,2.656 0,0 44.273,-0.759 43.652,-1.618 z" clip-rule="evenodd" style="fill:#003478;fill-opacity:1;fill-rule:evenodd"/><path style="fill:#003478;fill-opacity:1" id="circle4285" d="M 152.78125 111.125 C 118.9273 111.125 91.5 138.5523 91.5 172.40625 C 91.5 206.2602 118.9273 233.71875 152.78125 233.71875 C 186.6352 233.71875 214.09375 206.2602 214.09375 172.40625 C 214.09375 138.5523 186.6352 111.125 152.78125 111.125 z M 160.09375 130 C 187.11925 130 209.03125 151.912 209.03125 178.9375 C 209.03125 205.963 187.11925 227.875 160.09375 227.875 C 133.06825 227.875 111.15625 205.963 111.15625 178.9375 C 111.15625 151.912 133.06825 130 160.09375 130 z"/></svg>