<svg xmlns="http://www.w3.org/2000/svg" xmlns:svg="http://www.w3.org/2000/svg" id="Layer_1" width="720" height="720" x="0" y="0" enable-background="new 0 0 720 720" version="1.1" viewBox="0 0 720 720" xml:space="preserve"><metadata id="metadata101"/><rect style="opacity:1;fill:#000;fill-opacity:1;fill-rule:nonzero;stroke:#000;stroke-width:6.02164745;stroke-linejoin:round;stroke-miterlimit:17.10000038;stroke-dasharray:none;stroke-opacity:.97872338" id="rect4559" width="761.208" height="682.903" x="-10.437" y="18.8"/><text style="font-size:267.05316162px;line-height:0%;font-family:Rockwell-ExtraBold;fill:#fff;fill-opacity:0;stroke:#fff;stroke-width:4.99992037;stroke-miterlimit:10;stroke-opacity:1" id="text61" x="300.6" y="675.987" stroke-miterlimit="10" font-size="267.057" transform="rotate(-19.895482)">$</text><text style="font-size:267.05316162px;line-height:0%;font-family:Rockwell-ExtraBold;fill:#fff;fill-opacity:1" id="text63" x="290.434" y="675.28" font-size="267.057" transform="rotate(-19.895482)">$</text><path id="path3" d="M 460.65625 82.09375 C 458.76861 82.076898 456.28837 83.089125 452.71875 85.03125 C 428.54975 98.18225 404.67975 111.87525 380.71875 125.40625 C 378.85275 126.45825 376.212 127.714 375.75 129.375 C 374.879 132.506 373.93275 137.857 375.46875 139 C 381.03275 143.137 378.60125 145.58025 375.15625 149.03125 C 369.97525 154.22125 369.30975 160.45475 372.46875 166.96875 C 375.56275 173.34375 379.67275 178.5955 387.71875 178.6875 C 389.47675 178.7065 392.40625 178.638 392.78125 179.5 C 395.22225 185.14 397.653 190.911 399 196.875 C 399.985 201.246 400.8505 204.084 406.0625 204.75 C 411.4025 205.431 411.74 208.2785 408 212.3125 C 404.041 216.5805 400.01875 221.04 397.34375 226.125 C 395.05175 230.481 392.3355 232.32275 387.6875 233.34375 C 377.3815 235.60975 369.24925 241.31225 367.03125 252.15625 C 365.90825 257.64225 363.15025 261.0065 359.03125 263.9375 C 355.75625 266.2685 352.77425 269.3005 349.15625 270.8125 C 338.14125 275.4115 329.3885 282.55975 320.9375 290.96875 C 313.5865 298.28675 304.0685 303.46075 295.4375 309.46875 C 287.4205 315.04875 287.41825 314.9585 291.78125 324.1875 C 293.92541 328.722 295.92117 333.31034 298 337.875 C 302.78013 339.74931 305.90435 336.87526 309.5625 334.375 C 323.1615 325.074 334.2195 311.78175 351.1875 307.59375 C 353.2525 307.08375 355.38175 304.8235 356.46875 302.8125 C 361.94075 292.6985 372.22075 288.448 380.96875 282.375 C 382.25275 281.482 384.5105 281.46325 386.1875 281.78125 C 398.3465 284.08225 406.06925 277.63325 412.53125 268.65625 C 413.94325 266.69525 414.98275 262.9615 416.46875 262.8125 C 421.99875 262.2575 428.18275 257.919 433.09375 263.125 C 436.54575 266.782 438.97525 271.54725 441.15625 276.15625 C 441.81325 277.54925 440.08475 280.08875 439.46875 282.09375 C 436.41575 292.05675 441.61925 304.08175 451.03125 307.46875 C 457.16325 309.67375 464.07925 309.4165 468.40625 316.0625 C 469.69725 318.0455 474.807 318.7085 477.875 318.1875 C 505.703 313.4535 530.18975 301.69275 549.96875 281.34375 C 552.72875 278.50575 552.925 273.066 554 268.75 C 554.835 265.408 554.449 261.59375 555.875 258.59375 C 562.207 245.28475 556.882 232.4435 542.875 227.4375 C 540.756 226.6805 538.59575 224.57725 537.59375 222.53125 C 535.33275 217.91225 533.90025 212.888 531.90625 208.125 C 529.77197 203.0244 526.57307 200.54408 521.375 204.625 C 520.75758 204.63855 520.12208 204.64373 519.5 204.65625 C 516.83022 208.84159 514.1708 213.03341 511.5 217.21875 L 511.53125 217.28125 C 509.67404 217.16851 507.82796 217.05024 505.96875 216.9375 C 505.39127 215.67228 504.79809 214.4224 504.21875 213.15625 L 504.3125 213.25 C 496.0905 201.337 487.75925 189.47725 479.78125 177.40625 C 478.85625 176.00725 479.01675 172.33675 480.09375 171.46875 C 484.63775 167.80175 489.38675 163.992 494.71875 161.875 C 497.76975 160.663 500.00775 160.9415 500.09375 156.6875 C 500.15875 153.5635 503.55775 149.761 502.59375 147.5 C 499.90475 141.216 496.396 134.98225 491.875 129.90625 C 489.007 126.68325 488.0795 125.3235 490.9375 121.8125 C 496.7435 114.6785 494.67625 107.27825 490.40625 100.28125 C 486.33625 93.61125 480.46275 91.66125 472.84375 93.78125 C 471.33375 94.20125 467.97325 92.75675 467.53125 91.46875 C 465.32687 85.050625 463.80232 82.121836 460.65625 82.09375 z M 519.5 204.65625 C 519.52019 204.62459 519.54231 204.59416 519.5625 204.5625 L 519.4375 204.65625 C 519.45824 204.65583 519.47927 204.65667 519.5 204.65625 z M 487.28125 104.875 C 487.78125 106.386 488.29825 107.89475 488.03125 107.09375 C 488.95325 112.81775 488.027 115.49775 485.25 117.59375 C 480.687 121.04475 478.09975 126.83675 472.09375 128.59375 C 470.54975 129.04375 469.09125 129.73175 467.53125 130.09375 C 467.00225 130.21675 465.90525 129.84375 465.78125 129.46875 C 465.49425 128.61175 465.2365 127.141 465.6875 126.75 C 469.0765 123.805 470.46725 119.75 472.28125 115.875 C 474.56925 110.985 477.369 106.52475 483.75 106.34375 C 484.938 106.30875 486.10425 105.391 487.28125 104.875 z M 494.5625 137.28125 C 494.6345 137.59825 494.69725 137.91125 494.78125 138.28125 C 493.88625 140.29525 493.51675 142.99725 491.96875 144.28125 C 487.42275 148.05025 482.4225 151.27525 477.5625 154.65625 C 477.2425 154.87825 476.2955 154.80775 476.1875 154.59375 C 475.9105 154.02975 475.591 152.9785 475.875 152.6875 C 481.042 147.3735 485.274 140.99975 492.375 137.84375 C 493.057 137.54175 493.8285 137.45725 494.5625 137.28125 z M 398.5625 143.3125 C 398.8885 143.1625 399.68475 144.06825 400.34375 144.53125 C 399.42575 146.30325 398.6875 147.72425 397.9375 149.15625 C 394.5305 155.64025 388.03575 157.39725 381.84375 159.53125 C 381.11875 159.78125 379.60875 159.22975 379.21875 158.59375 C 378.84575 157.97875 379.1315 156.45 379.6875 155.875 C 382.7305 152.725 385.54875 149.343 389.84375 147.625 C 392.83775 146.428 395.6205 144.6605 398.5625 143.3125 z M 534.34375 224.125 C 534.41575 224.443 534.4805 224.755 534.5625 225.125 C 533.6685 227.139 533.298 229.84 531.75 231.125 C 527.203 234.894 522.20375 238.12 517.34375 241.5 C 517.02375 241.722 516.0435 241.62025 515.9375 241.40625 C 515.6595 240.84225 515.37225 239.82125 515.65625 239.53125 C 520.82425 234.21825 525.024 227.81225 532.125 224.65625 C 532.806 224.35425 533.60975 224.3 534.34375 224.125 z M 553.96875 242.3125 C 554.46975 243.8265 554.9555 245.33225 554.6875 244.53125 C 555.6105 250.25425 554.7135 252.904 551.9375 255 C 547.3745 258.451 544.78725 264.27525 538.78125 266.03125 C 537.23825 266.48225 535.7475 267.138 534.1875 267.5 C 533.6575 267.623 532.59475 267.25 532.46875 266.875 C 532.18275 266.018 531.924 264.54725 532.375 264.15625 C 535.764 261.21125 537.1235 257.1885 538.9375 253.3125 C 541.2265 248.4225 544.0565 243.96225 550.4375 243.78125 C 551.6255 243.74725 552.79375 242.8285 553.96875 242.3125 z M 406.875 245.0625 C 410.95656 245.14748 409.7325 250.08688 410.90625 252.125 C 414.44525 258.255 408.7485 264.9285 406.5625 269.5625 C 402.6435 269.5625 402.09925 267.94275 400.03125 266.09375 C 399.12625 265.28275 400.0265 262.45575 400.1875 257.84375 C 400.4615 257.30675 401.96375 254.63075 403.21875 251.84375 C 404.21575 249.62075 401.502 245.68 406 245.125 C 406.32156 245.08537 406.6029 245.05683 406.875 245.0625 z M 365.03125 280.8125 C 365.74625 280.6795 366.64025 281.41025 367.53125 281.78125 C 367.14025 282.43625 366.84875 283.20675 366.34375 283.71875 C 356.95775 293.19675 346.741 301.605 335.125 308.25 C 334.67934 308.50567 333.8112 309.07513 333.25 309.40625 C 332.74234 310.24853 330.54171 312.79847 329.78125 312.25 C 327.63325 310.701 325.0075 308.25525 328.3125 305.53125 C 331.7575 302.69325 335.78475 300.55575 339.34375 297.84375 C 345.88575 292.85875 352.1945 287.53525 358.8125 282.65625 C 360.4575 281.44225 362.89625 281.2105 365.03125 280.8125 z M 475.125 288.4375 C 475.45 288.2875 476.24725 289.19325 476.90625 289.65625 C 475.98825 291.42825 475.251 292.85125 474.5 294.28125 C 471.092 300.76625 464.59725 302.52225 458.40625 304.65625 C 457.68225 304.90625 456.16925 304.35575 455.78125 303.71875 C 455.40625 303.10375 455.695 301.574 456.25 301 C 459.294 297.85 462.10925 294.468 466.40625 292.75 C 469.39925 291.553 472.183 289.7845 475.125 288.4375 z" style="fill:#fff"/><path id="path5" d="M 647.125 537.4375 C 645.32633 537.43698 643.55225 537.474 641.78125 537.5 C 597.89425 538.138 553.958 538.38 510.125 540.375 C 500.44 540.815 491.0335 547.769 481.5625 551.875 C 480.5815 552.3 479.63925 553.662 479.40625 554.75 C 477.38525 564.258 475.4665 573.818 473.6875 583.375 C 473.4835 584.476 474.47625 585.7285 474.53125 586.9375 C 474.88025 594.6405 475.62825 602.37325 475.15625 610.03125 C 474.95625 613.30925 472.29375 616.52275 470.46875 619.59375 C 469.21175 621.70875 467.48875 623.538 465.96875 625.5 C 468.39575 627.226 470.58425 629.78825 473.28125 630.53125 C 480.41925 632.50025 487.7265 634.108 495.0625 635.125 C 549.5215 642.685 604.2155 642.94775 658.9375 639.34375 C 673.0425 638.41875 687.0245 635.171 700.9375 632.375 C 703.7765 631.806 706.05275 628.50875 708.59375 626.46875 C 706.51575 624.38175 704.454 622.2775 702.375 620.1875 L 702.46875 620.09375 C 698.21775 622.42675 694.20325 625.628 689.65625 626.875 C 682.85825 628.74 675.69425 629.37725 668.65625 630.28125 C 661.59225 631.18525 660.06225 629.37275 660.28125 622.21875 C 660.55025 613.51075 660.42525 604.80775 660.40625 596.09375 C 660.40425 595.19475 660.29575 593.9105 659.71875 593.4375 C 655.92075 590.3265 657.7555 590.35 661.1875 590 C 672.5325 588.837 683.881 587.5425 695.125 585.6875 C 697.322 585.3245 701.04775 581.05875 700.71875 580.46875 C 695.92175 571.90875 694.58275 562.3445 691.84375 553.1875 C 691.52975 552.1395 690.3565 551.0355 689.3125 550.5625 C 680.5865 546.6015 672.08175 541.92475 662.96875 539.21875 C 657.979 537.7405 652.52102 537.43905 647.125 537.4375 z M 661.875 543.75 C 662.54413 543.72262 663.01475 543.71975 663.40625 543.90625 C 664.40125 544.38225 666.46475 544.93 665.34375 546.5 C 664.58475 547.565 665.1755 550.65825 662.5625 549.53125 C 658.5055 547.78125 654.31225 548.34175 650.15625 548.09375 C 648.90025 548.02075 647.68775 547.155 646.46875 546.625 C 646.26275 546.535 645.977 546.18625 646 546.15625 C 646.229 545.84125 646.54025 545.2905 646.78125 545.3125 C 651.48725 545.7665 656.00725 544.73375 659.15625 543.84375 C 660.33925 543.84375 661.20587 543.77738 661.875 543.75 z M 660.09375 553.90625 C 662.78377 553.86055 665.463 553.9375 668.15625 553.9375 C 671.26725 553.9375 674.389 553.9335 677.5 553.9375 C 680.45 553.9375 682.77375 555.30175 684.59375 557.46875 C 684.85975 557.78575 684.31075 559.472 683.84375 559.625 C 679.99775 560.878 666.309 562.1165 662.25 561.0625 C 658.872 560.1825 655.74725 558.2885 652.53125 556.8125 C 652.21225 556.6655 652.004 556.26175 651.75 555.96875 C 652.152 555.77775 652.55275 555.55025 652.96875 555.40625 C 654.43875 554.90725 655.90625 554.088 657.40625 554 C 658.30075 553.94975 659.19708 553.92148 660.09375 553.90625 z M 511.75 613.09375 C 512.09258 613.07202 512.46698 613.07968 512.84375 613.09375 C 513.22058 613.10788 513.61844 613.13581 514.03125 613.1875 C 516.00425 613.4365 517.9875 613.60975 519.96875 613.8125 C 520.95938 613.91387 521.95353 614.02191 522.9375 614.15625 C 523.42948 614.22342 523.91702 614.29402 524.40625 614.375 C 524.89548 614.45598 525.38925 614.5265 525.875 614.625 C 530.59475 615.58406 534.30588 624.48251 531.75 628.46875 C 531.66752 628.59731 531.56444 628.72584 531.46875 628.84375 C 530.37275 630.18775 527.8235 630.32925 526.9375 630.65625 C 521.1565 629.95625 516.57925 629.44775 512.03125 628.84375 C 511.0085 628.7075 509.97831 628.59233 509.03125 628.375 C 508.7945 628.32067 508.56964 628.25353 508.34375 628.1875 C 505.85888 627.46121 504.10619 625.94088 504.71875 621.875 C 505.43205 617.13594 506.97804 613.4117 511.75 613.09375 z" style="fill:#fff"/><path id="path7" fill-rule="evenodd" d="M279.354,589.781c-0.005,0.032-0.008,0.062-0.014,0.093 c0.027-0.004,0.055-0.008,0.082-0.012L279.354,589.781z" clip-rule="evenodd" style="fill:#fff"/><path id="path9" fill-rule="evenodd" d="M339.739,641.479c-1.477-0.273-3.058,0.016-4.598,0.052 c-14.189,0.323-28.377,0.74-42.567,0.936c-12.338,0.17-24.687,0.228-37.025,0.066c-8.347-0.108-16.695-0.563-25.023-1.147 c-1.437-0.1-2.778-1.603-4.164-2.457c1.442-0.337,2.881-0.955,4.322-0.963c27.165-0.134,54.332-0.132,81.496-0.312 c7.708-0.054,15.423-0.436,23.108-1.026c1.681-0.127,3.246-1.781,4.862-2.733c-1.539-0.805-3.003-2.081-4.631-2.339 c-12.118-1.936-24.346-3.265-36.372-5.646c-5.481-1.087-11.006-3.466-15.668-6.541c-2.43-1.601-4.704-6.483-3.959-8.952 c0.653-2.163,5.519-3.837,8.713-4.248c3.873-0.497,7.952,0.844,11.93,0.776c1.286-0.024,2.538-1.991,3.807-3.069 c-1.31-0.947-2.572-2.618-3.938-2.708c-4.288-0.275-8.693,0.608-12.903,0c-6.813-0.984-8.935-4.516-7.789-11.293 c-6.469,1.009-13.138,1.34-19.353,3.191c-12.756,3.798-19.248,0.776-22.424-12.035c-2.058-8.301-3.439-16.764-5.373-25.095 c-0.542-2.337-2.224-4.385-2.94-6.705c-3.352-10.844-6.981-21.636-9.622-32.662c-1.346-5.615,1.272-10.042,7.581-11.876 c4.699-1.37,9.159-3.617,13.624-5.688c0.949-0.439,1.46-1.816,2.174-2.762c-1.024-0.342-2.029-0.765-3.075-1.006 c-3.826-0.891-8.319-0.736-11.368-2.766c-8.354-5.567-15.997-12.194-24.125-18.119c-5.963-4.347-12.788-7.637-18.26-12.488 c-8.152-7.231-16.968-13.998-22.134-24.125c-1.208-2.365-3.536-4.377-5.777-5.936c-1.894-1.314-4.792-2.831-6.533-2.223 c-1.514,0.531-2.535,3.829-2.892,6.043c-0.932,5.776-0.893,11.735-2.129,17.428c-2.153,9.887-5.555,19.528-7.292,29.472 c-0.993,5.682-1.669,9.287-8.479,6.729c-0.695-0.258-1.89,0.813-2.852,1.265c0.633,0.585,1.174,1.489,1.916,1.708 c7.734,2.266,6.319,6.717,3.276,12.06c-7.955,13.966-15.577,28.12-23.569,42.062c-3.061,5.334-6.596,10.423-10.235,15.39 c-3.492,4.766-7.547,5.216-12.82,1.872c-6.761-4.289-14.08-7.715-21.229-11.371c-0.877-0.45-2.2-0.021-3.318-0.002 c0.335,0.824,0.433,2.06,1.04,2.409c6.161,3.542-0.22,12.441,6.676,15.744c0.208,0.1-0.638,2.734-1.222,4.087 c-4.371,10.125-8.868,20.198-13.182,30.344c-1.771,4.162-4.358,4.795-8.056,2.584c-3.98-2.377-7.839-5.055-12.048-6.935 c-3.352-1.501-7.149-2.004-10.751-2.951c2.139,2.886,3.957,6.088,6.47,8.593c6.564,6.537,13.5,12.695,20.144,19.158 c2.316,2.253,4.207,4.943,6.293,7.439c-2.962,0.658-6.055,0.983-8.861,2.052c-1.184,0.451-26.398,0.959-62.547,1.498 c0.21,2.455,0.425,4.91,0.221,7.365c37.013,0.25,62.984,0.408,64.342,0.418c14.779,0.102,29.564-0.657,44.345-1.078l-0.091,0.078 c3.007-0.483,6.009-1.002,9.023-1.447c10.37-1.528,20.784-2.804,31.078-4.723c2.231-0.417,6.01-3.646,5.729-4.668 c-2.471-9.027-1.516-19.037-8.964-26.72c-7.018-7.237-15.423-8.399-24.555-8.595c-3.971-0.084-8.376,0.403-10.061-4.609 c-0.447-1.335-0.332-2.859-0.476-4.294c1.359,0.385,2.83,0.549,4.056,1.189c9.17,4.789,9.292,4.925,15.667-3.333 c14.167-18.358,27.969-37.003,42.338-55.199c9.141-11.578,16.408-23.916,20.135-38.275c0.926-3.564,2.423-7.043,4.102-10.333 c3.169-6.208,4.489-6.328,8.886-0.715c5.505,7.03,10.965,14.11,16.022,21.458c2.117,3.077,4.05,6.784,4.526,10.406 c3.227,24.513,5.896,49.096,9.148,73.601c0.482,3.625,2.273,7.932,4.932,10.2c3.574,3.046,3.292,5.422,1.348,8.652 c-6.249,10.383-7.879,22.043-8.775,33.756c-0.165,2.157,2.264,5.339,4.365,6.619c2.156,1.315,5.382,1.17,8.139,1.168 c29.336-0.008,58.674,0.002,88.007-0.287c6.762-0.068,13.521-1.202,20.263-1.998c1.004-0.119,1.911-1.079,2.862-1.648 C341.707,642.626,340.793,641.678,339.739,641.479z" clip-rule="evenodd" style="fill:#fff"/><path id="path11" d="M 216.65625 287.8125 C 209.89825 289.5095 202.85775 290.517 196.46875 293.125 C 191.63675 295.1 184.5 298.938 188.5 305 C 190.597 308.178 198.787 307.32975 204.25 308.21875 C 204.748 308.29975 205.33725 307.70575 205.90625 307.46875 C 214.26925 303.98375 218.21925 305.6885 221.03125 314.4375 C 223.37125 321.7195 224.3765 329.6295 227.8125 336.3125 C 232.1365 344.7165 232.6495 353.4265 233.0625 362.3125 C 233.4815 371.2345 233.5905 380.16175 233.5625 389.09375 C 233.5465 394.20175 235.9425 396.4985 240.8125 396.5625 C 250.7495 396.6945 266.99025 383.05475 267.53125 373.46875 C 267.70825 370.30975 267.25575 369.42575 271.09375 369.84375 C 283.33075 371.17175 291.40775 364.688 297.21875 354.625 L 297.3125 354.71875 C 296.72682 353.43143 296.1453 352.12922 295.5625 350.84375 C 294.30011 351.98485 293.04164 353.10627 291.78125 354.25 C 289.51697 347.19905 292.32494 342.05098 297.84375 337.9375 C 294.87322 337.53821 291.84811 336.6203 288.96875 336.96875 C 282.96275 337.69875 279.23175 336.341 276.96875 330 C 274.90475 324.221 271.45725 318.8525 268.03125 313.6875 C 265.74725 310.2465 263.2835 308.98525 262.4375 315.15625 C 262.2235 316.69225 258.38425 317.94075 256.03125 318.84375 C 255.38925 319.08975 253.63625 317.826 253.15625 316.875 C 249.91425 310.482 247.3095 303.72225 243.5625 297.65625 C 242.0295 295.17325 238.3505 293.5235 235.3125 292.5625 C 229.1835 290.6225 222.8265 289.41525 216.5625 287.90625 L 216.65625 287.8125 z M 297.84375 337.9375 C 297.91662 337.9473 297.98971 337.95963 298.0625 337.96875 L 297.96875 337.84375 C 297.92626 337.87507 297.88592 337.90607 297.84375 337.9375 z M 234.1875 315.90625 C 235.36816 315.94484 236.81231 317.1155 238.75 319.40625 C 243.51344 325.03781 248.26058 329.48099 256.03125 327.4375 C 256.54929 327.30127 257.07912 327.13306 257.625 326.9375 C 257.71706 326.90444 257.80822 326.89144 257.90625 326.875 C 259.37666 326.62833 261.49531 328.15406 263.28125 328.78125 C 262.07425 330.30425 261.15275 332.34425 259.59375 333.28125 C 253.47675 336.95925 248.3915 343.0545 239.6875 340.4375 C 237.06719 339.65094 235.06434 338.87423 233.5625 337.90625 C 233.26213 337.7126 232.97974 337.52494 232.71875 337.3125 C 231.93579 336.67529 231.30441 335.93825 230.84375 335.0625 C 230.6902 334.77058 230.55881 334.45111 230.4375 334.125 C 229.70962 332.16827 229.54225 329.57937 229.75 325.90625 C 229.905 324.99725 230.0675 323.138 230.5625 321.375 C 231.24738 318.93284 231.94786 317.3015 232.78125 316.5 C 232.92636 316.36045 233.06468 316.24614 233.21875 316.15625 C 233.5156 315.98306 233.85017 315.89522 234.1875 315.90625 z" style="fill:#fff"/><path id="path13" fill-rule="evenodd" d="M120.046,324.257c-0.606-4.189-1.25-8.375-1.801-12.571 c-0.135-1.039,0.027-2.118,0.052-3.178c0.891,0.168,2.123,0.021,2.614,0.555c2.44,2.653,5.055,5.26,6.923,8.303 c4.666,7.597,9.356,15.229,13.291,23.211c3.657,7.42,6.507,15.255,9.405,23.022c1.513,4.06-0.614,7.053-4.651,7.214 c-6.053,0.24-12.471,0.575-18.091-1.181c-3.118-0.973-6.619-5.919-7.027-9.415" clip-rule="evenodd" style="fill:#fff"/><path id="path15" fill-rule="evenodd" d="M135.696,451.595c-1.347,4.697-50.759,35.747-54.838,33.688 c-2.961-1.494-5.665-8.456-6.298-11.671c-1.128-5.747,56.525-47.912,62.16-49.484c0.901-0.25,3.101,1.328,3.418,2.426 c0.571,1.983,0.172,4.245,0.178,6.392" clip-rule="evenodd" style="fill:#fff"/><path id="path17" fill-rule="evenodd" d="M94.886,643.041l0.091-0.078L94.886,643.041z" clip-rule="evenodd" style="fill:#fff"/><path id="path19" fill-rule="evenodd" d="M519.557,204.562l-0.109,0.097L519.557,204.562z" clip-rule="evenodd" style="fill:#fff"/><path id="path21" fill-rule="evenodd" d="M702.467,620.101l-0.1,0.098L702.467,620.101z" clip-rule="evenodd" style="fill:#fff"/><path id="path23" fill-rule="evenodd" d="M143.678,254.826l0.081,0.088L143.678,254.826z" clip-rule="evenodd" style="fill:#fff"/><path id="path25" fill-rule="evenodd" d="M216.646,287.821l-0.089,0.08L216.646,287.821z" clip-rule="evenodd" style="fill:#fff"/><path id="path27" fill="#FFF" fill-rule="evenodd" d="M521.292,204.689l0.076-0.069L521.292,204.689z" clip-rule="evenodd" style="fill:#fff"/><path id="path29" fill="#FFF" fill-rule="evenodd" d="M504.21,213.145l0.091,0.1L504.21,213.145z" clip-rule="evenodd" style="fill:#fff"/><path id="path31" fill="#FFF" fill-rule="evenodd" d="M505.902,216.938l0.085,0.094L505.902,216.938z" clip-rule="evenodd" style="fill:#fff"/><path id="path33" fill="#FFF" fill-rule="evenodd" d="M511.487,217.213l0.054,0.066L511.487,217.213z" clip-rule="evenodd" style="fill:#fff"/><path id="path39" fill="#FFF" fill-rule="evenodd" d="M170.625,233.707l0.093,0.104L170.625,233.707z" clip-rule="evenodd" style="fill:#fff"/><path id="path41" d="M236.023,398.201c0,0-3.095,10.395-1.331,26.58c1.763,16.186,34.107,55.249,36.369,60.15 c2.263,4.902,22.146,97.389,22.187,99.481c0.04,2.095-10.548,5.11-10.548,5.11s6.527-2.965,6.558-6.447 c0.031-3.484-15.28-85.453-22.978-95.104c-7.697-9.648-36.947-47.631-37.165-63.439c-0.127-9.199,0.111-21.803,2.107-26.392 C232.656,394.851,236.023,398.201,236.023,398.201z" style="fill:#fff"/><path id="path43" fill-rule="evenodd" d="M311.843,601.957c0,0,28.935-1.909,33.544,9.447 c4.609,11.354,4.582,22.503,4.582,22.503s5.184,4.819,5.256,7.204c0.072,2.381-3.894,4.007-3.894,4.007l-4.526-0.199 c0,0,3.215-1.776,2.855-4.054c-0.36-2.28-3.913-3.728-4.781-5.323c-0.867-1.597-6.557-11.467-8.425-21.759 C334.586,603.49,311.843,601.957,311.843,601.957z" clip-rule="evenodd" style="fill:#fff"/><path id="path45" d="M129.519,462.412c0,0-4.59,24.421-6.412,27.129c-1.822,2.712-63.187,52.496-64.381,58.486s0.773,14.623-0.697,15.765 c-1.469,1.146-35.606,27.699-35.606,27.699s7.695,3.58,11.129,0.493c3.435-3.09,26.396-22.533,27.581-24.801 c1.186-2.271-2.099-8.612,0.717-16.229c2.816-7.62,61.995-57.045,63.516-59.917C126.885,488.162,129.519,462.412,129.519,462.412z" style="fill:#fff"/><path id="path47" fill-rule="evenodd" d="M142.42,241.821l-0.492,11.129c0,0-38.565,17.531-38.493,29.909 c0.074,12.377,12.698,74.266,12.698,74.266l2.229,8.463c0,0-12.194-67.445-8.194-80.897c4.002-13.453,26.742-24.528,33.33-25.786 c6.585-1.256,21.384,0.327,21.384,0.327s-15.596-4.562-17.885-8.844C144.71,246.104,142.42,241.821,142.42,241.821z" clip-rule="evenodd" style="fill:#fff"/><path id="path49" fill-rule="evenodd" d="M184.211,229.977c0.423-0.167,0.253,8.428,2.245,10.969 c1.991,2.542,26.295,8.174,31.813,10.172c5.518,1.997,26.121,30.257,26.121,30.257l16.362,23.866c0,0-16.292-16.011-20.751-22.307 c-4.462-6.296-17.769-26.383-26.76-29.234c-8.99-2.851-17.809-3.841-23.675-3.149c-5.866,0.692-17.302,2.04-17.302,2.04 s7.973-4.125,9.426-6.946C183.144,242.822,183.788,230.144,184.211,229.977z" clip-rule="evenodd" style="fill:#fff"/><path id="path51" fill-rule="evenodd" d="M152.365,374.215c0,0,1.001,12.345-0.642,14.531 c-1.643,2.184-10.021,12.875-10.226,17.513c-0.206,4.636-1.284,14.849-0.629,14.222c0.651-0.632,0.176-6.935,3.49-14.098 c3.315-7.158,10.038-15.04,10.849-19.343C156.016,382.738,152.365,374.215,152.365,374.215z" clip-rule="evenodd" style="fill:#fff"/><path id="path53" fill-rule="evenodd" d="M289.042,312.286c0,0-5.675-5.301-8.461-3.441 c-2.789,1.861-4.077,6.494-4.077,6.494l0.614,2.473c0,0,2.583-5.398,3.727-6.79C281.988,309.629,289.042,312.286,289.042,312.286z" clip-rule="evenodd" style="fill:#fff"/><path id="path55" fill-rule="evenodd" d="M689.721,589.512c0,0,7.734-2.211,8.998-2.73c1.266-0.524,2.57-2.472,2.934-2.613 c0.365-0.142,0.678,34.108,0.678,34.108s-1.643-28.644-2.404-29.198S689.721,589.512,689.721,589.512z" clip-rule="evenodd" style="fill:#fff"/><path id="path57" fill-rule="evenodd" d="M491.014,165.543c0,0,8.248-4.437,9.613-3.756 c1.363,0.68,4.695,14.553,8.224,20.652c3.53,6.101,10.683,17.199,10.855,18.755c0.172,1.557-5.229,8.132-5.229,8.132 s1.721-7.358,1.936-8.743c0.217-1.383-9.441-10.639-12.267-16.803c-2.825-6.166-4.312-18.58-5.686-18.526 S491.014,165.543,491.014,165.543z" clip-rule="evenodd" style="fill:#fff"/><path id="path65" fill-rule="evenodd" d="M50.637,571.934H-17c0,1.108,0,2.217,0,3.326l65.454,0.229L50.637,571.934z" clip-rule="evenodd" style="fill:#fff"/><polygon id="polygon67" fill-rule="evenodd" points="232.965 577.966 232.959 571.934 74.042 571.934 73.967 575.832" clip-rule="evenodd" style="fill:#fff"/><path id="path69" fill-rule="evenodd" d="M477.182,571.934h-5.228H289.862l0.79,6.237l180.846-2.522l5.981-0.044 C477.761,574.38,477.398,573.158,477.182,571.934z" clip-rule="evenodd" style="fill:#fff"/><path id="path71" fill-rule="evenodd" d="M738.125,571.934c-0.62-0.858-43.652-1.038-43.652-1.038 c0.041,0.182-0.059,2.469,0,2.656C694.473,573.552,738.746,572.793,738.125,571.934z" clip-rule="evenodd" style="fill:#fff"/><path id="circle93" d="M 152.78125 111.125 C 118.9273 111.125 91.5 138.5523 91.5 172.40625 C 91.5 206.2602 118.9273 233.71875 152.78125 233.71875 C 186.6352 233.71875 214.09375 206.2602 214.09375 172.40625 C 214.09375 138.5523 186.6352 111.125 152.78125 111.125 z M 160.09375 130 C 187.11925 130 209.03125 151.912 209.03125 178.9375 C 209.03125 205.963 187.11925 227.875 160.09375 227.875 C 133.06825 227.875 111.15625 205.963 111.15625 178.9375 C 111.15625 151.912 133.06825 130 160.09375 130 z" style="fill:#fff"/><path id="path3-6" d="m -247.41976,21.104659 c -1.88764,-0.01685 -4.36788,0.995375 -7.9375,2.9375 -24.169,13.151 -48.039,26.844 -72,40.375 -1.866,1.052 -4.50675,2.30775 -4.96875,3.96875 -0.871,3.131 -1.81725,8.482 -0.28125,9.625 5.564,4.137 3.1325,6.58025 -0.3125,10.03125 -5.181,5.19 -5.8465,11.4235 -2.6875,17.937501 3.094,6.375 7.204,11.62675 15.25,11.71875 1.758,0.019 4.6875,-0.0495 5.0625,0.8125 2.441,5.64 4.87175,11.411 6.21875,17.375 0.985,4.371 1.8505,7.209 7.0625,7.875 5.34,0.681 5.6775,3.5285 1.9375,7.5625 -3.959,4.268 -7.98125,8.7275 -10.65625,13.8125 -2.292,4.356 -5.00825,6.19775 -9.65625,7.21875 -10.306,2.266 -18.43825,7.9685 -20.65625,18.8125 -1.123,5.486 -3.881,8.85025 -8,11.78125 -3.275,2.331 -6.257,5.363 -9.875,6.875 -11.015,4.599 -19.76775,11.74725 -28.21875,20.15625 -7.351,7.318 -17.40832,14.10996 -26.03932,20.11796 -8.017,5.58 -182.48886,122.79157 -174.08097,131.21159 -9.94271,0.50554 -2.95509,14.48807 -0.79239,19.08069 4.78013,1.87431 185.87953,-124.50373 189.53768,-127.00399 13.599,-9.301 24.657,-22.59325 41.625,-26.78125 2.065,-0.51 4.19425,-2.77025 5.28125,-4.78125 5.472,-10.114 15.752,-14.3645 24.5,-20.4375 1.284,-0.893 3.54175,-0.91175 5.21875,-0.59375 12.159,2.301 19.88175,-4.148 26.34375,-13.125 1.412,-1.961 2.4515,-5.69475 3.9375,-5.84375 5.53,-0.555 11.714,-4.8935 16.625,0.3125 3.452,3.657 5.8815,8.42225 8.0625,13.03125 0.657,1.393 -1.0715,3.9325 -1.6875,5.9375 -3.053,9.963 2.1505,21.988 11.5625,25.375 6.132,2.205 13.048,1.94775 17.375,8.59375 1.291,1.983 6.40075,2.646 9.46875,2.125 27.828,-4.734 52.31475,-16.49475 72.09375,-36.84375 2.76,-2.838 2.95625,-8.27775 4.03125,-12.59375 0.835,-3.342 0.449,-7.15625 1.875,-10.15625 6.332,-13.309 1.007,-26.15025 -13,-31.15625 -2.119,-0.757 -4.27925,-2.86025 -5.28125,-4.90625 -2.261,-4.619 -3.6935,-9.64325 -5.6875,-14.40625 -2.13428,-5.1006 -5.33318,-7.58092 -10.53125,-3.5 -0.61742,0.0136 -1.25292,0.0187 -1.875,0.0312 -2.66978,4.18534 -5.3292,8.37716 -8,12.5625 l 0.0312,0.0625 c -1.85721,-0.11274 -3.70329,-0.23101 -5.5625,-0.34375 -0.57748,-1.26522 -1.17066,-2.5151 -1.75,-3.78125 l 0.0937,0.0937 c -8.222,-11.913 -16.55325,-23.77275 -24.53125,-35.84375 -0.925,-1.399 -0.7645,-5.0695 0.3125,-5.9375 4.544,-3.667 9.293,-7.47675 14.625,-9.59375 3.051,-1.212001 5.289,-0.933501 5.375,-5.187501 0.065,-3.124 3.464,-6.9265 2.5,-9.1875 -2.689,-6.284 -6.19775,-12.51775 -10.71875,-17.59375 -2.868,-3.223 -3.7955,-4.58275 -0.9375,-8.09375 5.806,-7.134 3.73875,-14.53425 -0.53125,-21.53125 -4.07,-6.67 -9.9435,-8.62 -17.5625,-6.5 -1.51,0.42 -4.8705,-1.0245 -5.3125,-2.3125 -2.20438,-6.418125 -3.72893,-9.346914 -6.875,-9.375 z m 58.84375,122.562501 c 0.0202,-0.0317 0.0423,-0.0621 0.0625,-0.0937 l -0.125,0.0937 c 0.0207,-4.2e-4 0.0418,4.2e-4 0.0625,0 z m -32.21875,-99.781251 c 0.5,1.511 1.017,3.01975 0.75,2.21875 0.922,5.724 -0.004,8.404 -2.78125,10.5 -4.563,3.451 -7.15025,9.243 -13.15625,11 -1.544,0.45 -3.0025,1.138 -4.5625,1.5 -0.529,0.123 -1.626,-0.25 -1.75,-0.625 -0.287,-0.857 -0.54475,-2.32775 -0.0937,-2.71875 3.389,-2.945 4.77975,-7 6.59375,-10.875 2.288,-4.89 5.08775,-9.35025 11.46875,-9.53125 1.188,-0.035 2.35425,-0.95275 3.53125,-1.46875 z m 7.28125,32.40625 c 0.072,0.317 0.13475,0.63 0.21875,1 -0.895,2.014 -1.2645,4.716 -2.8125,6 -4.546,3.769 -9.54625,6.994 -14.40625,10.375 -0.32,0.222 -1.267,0.1515 -1.375,-0.0625 -0.277,-0.564 -0.5965,-1.61525 -0.3125,-1.90625 5.167,-5.314 9.399,-11.68775 16.5,-14.84375 0.682,-0.302 1.4535,-0.3865 2.1875,-0.5625 z m -96,6.03125 c 0.326,-0.15 1.12225,0.75575 1.78125,1.21875 -0.918,1.772 -1.65625,3.193 -2.40625,4.625 -3.407,6.484 -9.90175,8.241 -16.09375,10.375 -0.725,0.25 -2.235,-0.3015 -2.625,-0.9375 -0.373,-0.615 -0.0872,-2.14375 0.46875,-2.71875 3.043,-3.15 5.86125,-6.532 10.15625,-8.25 2.994,-1.197 5.77675,-2.9645 8.71875,-4.3125 z m 135.78125,80.812501 c 0.072,0.318 0.13675,0.63 0.21875,1 -0.894,2.014 -1.2645,4.715 -2.8125,6 -4.547,3.769 -9.54625,6.995 -14.40625,10.375 -0.32,0.222 -1.30025,0.12025 -1.40625,-0.0937 -0.278,-0.564 -0.56525,-1.585 -0.28125,-1.875 5.168,-5.313 9.36775,-11.719 16.46875,-14.875 0.681,-0.302 1.48475,-0.35625 2.21875,-0.53125 z m 19.625,18.1875 c 0.501,1.514 0.98675,3.01975 0.71875,2.21875 0.923,5.723 0.026,8.37275 -2.75,10.46875 -4.563,3.451 -7.15025,9.27525 -13.15625,11.03125 -1.543,0.451 -3.03375,1.10675 -4.59375,1.46875 -0.53,0.123 -1.59275,-0.25 -1.71875,-0.625 -0.286,-0.857 -0.54475,-2.32775 -0.0937,-2.71875 3.389,-2.945 4.7485,-6.96775 6.5625,-10.84375 2.289,-4.89 5.119,-9.35025 11.5,-9.53125 1.188,-0.034 2.35625,-0.95275 3.53125,-1.46875 z m -147.09375,2.75 c 4.08156,0.085 2.8575,5.02438 4.03125,7.0625 3.539,6.13 -2.15775,12.8035 -4.34375,17.4375 -3.919,0 -4.46325,-1.61975 -6.53125,-3.46875 -0.905,-0.811 -0.005,-3.638 0.15625,-8.25 0.274,-0.537 1.77625,-3.213 3.03125,-6 0.997,-2.223 -1.71675,-6.16375 2.78125,-6.71875 0.32156,-0.0396 0.6029,-0.0682 0.875,-0.0625 z m -41.84375,35.75 c 0.715,-0.133 1.609,0.59775 2.5,0.96875 -0.391,0.655 -0.6825,1.4255 -1.1875,1.9375 -9.386,9.478 -19.60275,17.88625 -31.21875,24.53125 -0.44566,0.25567 -1.3138,0.82513 -1.875,1.15625 -0.50766,0.84228 -161.21948,113.40409 -161.21948,113.40409 -20.75449,14.90022 -17.44774,4.09503 -14.14274,1.37103 3.445,-2.838 177.89697,-123.62562 181.45597,-126.33762 6.542,-4.985 12.85075,-10.3085 19.46875,-15.1875 1.645,-1.214 4.08375,-1.44575 6.21875,-1.84375 z m 110.09375,7.625 c 0.325,-0.15 1.12225,0.75575 1.78125,1.21875 -0.918,1.772 -1.65525,3.195 -2.40625,4.625 -3.408,6.485 -9.90275,8.241 -16.09375,10.375 -0.724,0.25 -2.237,-0.3005 -2.625,-0.9375 -0.375,-0.615 -0.0863,-2.14475 0.46875,-2.71875 3.044,-3.15 5.85925,-6.532 10.15625,-8.25 2.993,-1.197 5.77675,-2.9655 8.71875,-4.3125 z"/><path style="fill-rule:evenodd" id="path15-0" d="m -572.38001,390.60591 c -1.347,4.697 -50.759,35.747 -54.838,33.688 -2.961,-1.494 -5.665,-8.456 -6.298,-11.671 -1.128,-5.747 56.525,-47.912 62.16,-49.484 0.901,-0.25 3.101,1.328 3.418,2.426 0.571,1.983 0.172,4.245 0.178,6.392" clip-rule="evenodd"/></svg>