<?xml version="1.0" encoding="UTF-8" standalone="no"?>
<!-- Generator: Adobe Illustrator 16.0.0, SVG Export Plug-In . SVG Version: 6.00 Build 0)  -->

<svg
   xmlns:dc="http://purl.org/dc/elements/1.1/"
   xmlns:cc="http://creativecommons.org/ns#"
   xmlns:rdf="http://www.w3.org/1999/02/22-rdf-syntax-ns#"
   xmlns:svg="http://www.w3.org/2000/svg"
   xmlns="http://www.w3.org/2000/svg"
   xmlns:sodipodi="http://sodipodi.sourceforge.net/DTD/sodipodi-0.dtd"
   xmlns:inkscape="http://www.inkscape.org/namespaces/inkscape"
   version="1.1"
   id="Layer_1"
   x="0px"
   y="0px"
   width="2160px"
   height="720px"
   viewBox="0 0 2160 720"
   enable-background="new 0 0 2160 720"
   xml:space="preserve"
   inkscape:version="0.91 r13725"
   sodipodi:docname="free-law-square-with-words.svg"><metadata
     id="metadata131"><rdf:RDF><cc:Work
         rdf:about=""><dc:format>image/svg+xml</dc:format><dc:type
           rdf:resource="http://purl.org/dc/dcmitype/StillImage" /><dc:title></dc:title></cc:Work></rdf:RDF></metadata><defs
     id="defs129" /><sodipodi:namedview
     pagecolor="#ffffff"
     bordercolor="#666666"
     borderopacity="1"
     objecttolerance="10"
     gridtolerance="10"
     guidetolerance="10"
     inkscape:pageopacity="0"
     inkscape:pageshadow="2"
     inkscape:window-width="1920"
     inkscape:window-height="1018"
     id="namedview127"
     showgrid="false"
     inkscape:zoom="0.35355339"
     inkscape:cx="752.92994"
     inkscape:cy="329.29753"
     inkscape:window-x="0"
     inkscape:window-y="27"
     inkscape:window-maximized="1"
     inkscape:current-layer="Layer_1"
     showguides="true"
     inkscape:guide-bbox="true" /><rect
     style="opacity:1;fill:#ffffff;fill-opacity:1;stroke:#353535;stroke-width:9.72140408;stroke-miterlimit:4;stroke-dasharray:none;stroke-opacity:1"
     id="rect4815"
     width="1365.2787"
     height="1365.2786"
     x="468.00858"
     y="-367.42188"
     rx="36.314941"
     ry="43.420113"
     inkscape:export-xdpi="130.90909"
     inkscape:export-ydpi="130.90909" /><text
     style="font-size:290.36898804px;font-family:Rockwell-ExtraBold;fill:#ffffff;fill-opacity:0;stroke:#000000;stroke-width:4.99992037;stroke-miterlimit:10"
     id="text61"
     font-size="290.3736"
     stroke-miterlimit="10"
     transform="matrix(0.94031496,-0.34030541,0.34030541,0.94031496,0,0)"
     x="1119.8098"
     y="1100.8444"
     inkscape:export-filename="/home/mlissner/Documents/CourtListener/Logos/v2/flp-banner-w400.png"
     inkscape:export-xdpi="130.90909"
     inkscape:export-ydpi="130.90909">$</text>
<path
     style="fill-rule:evenodd"
     d="m 1371.0134,163.39706 c -2.0532,-0.018 -4.7444,1.1072 -8.625,3.2188 -26.2798,14.3 -52.2595,29.1932 -78.3126,43.9062 -2.0292,1.145 -4.8725,2.4753 -5.375,4.2813 -0.9463,3.404 -1.9825,9.258 -0.3124,10.5 6.0489,4.498 3.4022,7.122 -0.3438,10.875 -5.633,5.643 -6.3725,12.4482 -2.9375,19.5312 3.364,6.933 7.8457,12.6188 16.5937,12.7188 1.9128,0.021 5.0924,-0.032 5.5,0.9062 2.654,6.133 5.3173,12.391 6.7813,18.875 1.072,4.753 2.0205,7.8698 7.6875,8.5938 5.805,0.74 6.1608,3.8005 2.0938,8.1875 -4.3053,4.641 -8.6858,9.5022 -11.5938,15.0312 -2.492,4.736 -5.4145,6.7338 -10.4688,7.8438 -11.2047,2.464 -20.0883,8.6787 -22.5,20.4687 -1.221,5.966 -4.2094,9.5933 -8.6874,12.7813 -3.5616,2.535 -6.7848,5.856 -10.7188,7.5 -11.976,5.001 -21.4995,12.7632 -30.6875,21.9062 -7.993,7.957 -18.3338,13.593 -27.7187,20.125 -8.7183,6.067 -8.7444,5.966 -4,16 2.3243,4.9164 4.5286,9.8952 6.7812,14.8438 5.2037,2.0492 8.5818,-1.0603 12.5625,-3.7813 14.786,-10.113 26.802,-24.5387 45.25,-29.0937 2.247,-0.555 4.567,-3.0318 5.75,-5.2188 5.95,-10.997 17.113,-15.6147 26.625,-22.2187 1.396,-0.97 3.8655,-1.0023 5.6875,-0.6563 13.222,2.503 21.6305,-4.489 28.6562,-14.25 1.5338,-2.132 2.6353,-6.1817 4.25,-6.3437 6.0145,-0.603 12.7538,-5.3475 18.0938,0.3125 3.754,3.976 6.4113,9.1755 8.7812,14.1875 0.7156,1.516 -1.1737,4.2565 -1.8437,6.4375 -3.32,10.832 2.3295,23.9107 12.5625,27.5937 6.666,2.397 14.17,2.1168 18.875,9.3438 1.404,2.156 6.9755,2.8785 10.3125,2.3125 30.257,-5.149 56.869,-17.9365 78.375,-40.0625 3,-3.086 3.2372,-8.9945 4.4063,-13.6875 0.9067,-3.635 0.4802,-7.7693 2.0312,-11.0313 6.884,-14.471 1.105,-28.4642 -14.125,-33.9062 -2.305,-0.823 -4.66,-3.1188 -5.75,-5.3438 -2.458,-5.023 -4.0205,-10.4772 -6.1875,-15.6562 -2.3251,-5.5564 -5.7994,-8.2501 -11.4687,-3.7813 -0.674,0.015 -1.3542,0.018 -2.0313,0.031 -2.9048,4.5533 -5.812,9.1019 -8.7187,13.6562 l 0.062,0.062 c -2.0309,-0.1233 -4.0601,-0.2516 -6.0937,-0.375 -0.6247,-1.3668 -1.2493,-2.7581 -1.875,-4.125 -8.9101,-12.9086 -17.9172,-25.7621 -26.5625,-38.8437 -1.006,-1.521 -0.8273,-5.5258 0.3438,-6.4688 4.9393,-3.988 10.1092,-8.1355 15.9062,-10.4375 3.318,-1.317 5.7497,-0.999 5.8438,-5.625 0.069,-3.396 3.7989,-7.542 2.75,-10 -2.9237,-6.833 -6.7735,-13.605 -11.6876,-19.125 -3.1172,-3.504 -4.1065,-4.9642 -1,-8.7812 6.3138,-7.757 4.0493,-15.8305 -0.5937,-23.4375 -4.426,-7.252 -10.8097,-9.3675 -19.0937,-7.0625 -1.6438,0.457 -5.3003,-1.1 -5.7813,-2.5 -2.3962,-6.9788 -4.048,-10.1882 -7.4687,-10.2188 z m 63.9687,133.2813 c 0.02,-0.032 0.042,-0.062 0.062,-0.094 l -0.125,0.094 c 0.021,-4e-4 0.042,4e-4 0.062,0 z m -240.8125,144.8125 c -0.01,0 -0.022,0 -0.031,0 l 0.094,0.1562 c -0.023,-0.051 -0.039,-0.1052 -0.062,-0.1562 z m 205.7812,-253.3125 c 0.5444,1.646 1.1036,3.3095 0.8126,2.4375 1.0027,6.223 0.018,9.1262 -3,11.4062 -4.962,3.751 -7.7815,10.0598 -14.3126,11.9688 -1.6786,0.49 -3.2727,1.2007 -4.9687,1.5937 -0.575,0.133 -1.739,-0.2492 -1.875,-0.6562 -0.312,-0.932 -0.614,-2.5438 -0.125,-2.9688 3.685,-3.202 5.1832,-7.5985 7.1563,-11.8125 2.4876,-5.317 5.5615,-10.1467 12.5,-10.3437 1.2915,-0.037 2.5334,-1.064 3.8124,-1.625 z m 7.9376,35.25 c 0.077,0.345 0.1287,0.6917 0.2187,1.0937 -0.972,2.189 -1.3482,5.1353 -3.0313,6.5313 -4.9429,4.098 -10.4035,7.575 -15.6874,11.25 -0.3493,0.242 -1.3841,0.1695 -1.5,-0.062 -0.3034,-0.613 -0.6215,-1.7475 -0.3126,-2.0625 5.6193,-5.778 10.1843,-12.7243 17.9063,-16.1563 0.74,-0.329 1.6072,-0.4027 2.4063,-0.5937 z m -104.25,6.5312 c 0.4164,0.085 1.1859,0.9037 1.8124,1.3438 -0.9975,1.927 -1.8094,3.4762 -2.625,5.0312 -3.7056,7.051 -10.7666,8.9593 -17.5,11.2813 -0.7865,0.271 -2.4197,-0.3403 -2.8437,-1.0313 -0.407,-0.668 -0.1352,-2.3125 0.4687,-2.9375 3.3105,-3.426 6.3925,-7.132 11.0626,-9 3.2545,-1.302 6.2697,-3.1902 9.4687,-4.6562 0.044,-0.02 0.097,-0.043 0.1563,-0.031 z m 147.4687,87.875 c 0.077,0.345 0.161,0.6908 0.25,1.0938 -0.972,2.189 -1.3795,5.1352 -3.0625,6.5312 -4.943,4.098 -10.3723,7.6063 -15.6562,11.2813 -0.3491,0.242 -1.4153,0.1382 -1.5313,-0.094 -0.303,-0.613 -0.6215,-1.7475 -0.3125,-2.0625 5.619,-5.778 10.2155,-12.7242 17.9375,-16.1562 0.74,-0.329 1.576,-0.4028 2.375,-0.5938 z m 21.3437,19.7813 c 0.5441,1.645 1.1036,3.2772 0.8126,2.4062 1.0029,6.223 0.018,9.1263 -3,11.4063 -4.962,3.751 -7.7815,10.091 -14.3126,12 -1.679,0.49 -3.2727,1.2007 -4.9687,1.5937 -0.575,0.133 -1.739,-0.2805 -1.875,-0.6875 -0.312,-0.932 -0.614,-2.5437 -0.125,-2.9687 3.685,-3.202 5.1832,-7.5985 7.1563,-11.8125 2.488,-5.317 5.5619,-10.1468 12.5,-10.3438 1.2919,-0.037 2.5334,-1.0327 3.8124,-1.5937 z m -159.9062,3 c 4.4378,0.093 3.0981,5.4722 4.375,7.6875 3.848,6.665 -2.3417,13.9297 -4.7188,18.9687 -4.2603,0 -4.8447,-1.8015 -7.0937,-3.8125 -0.985,-0.882 -0.02,-3.9225 0.1563,-8.9375 0.2989,-0.583 1.9172,-3.5012 3.2812,-6.5312 1.085,-2.417 -1.8587,-6.7085 3.0312,-7.3125 0.3503,-0.043 0.6729,-0.069 0.9688,-0.062 z m -45.5,38.875 c 0.778,-0.146 1.7205,0.6595 2.6875,1.0625 -0.425,0.712 -0.701,1.5065 -1.25,2.0625 -10.205,10.306 -21.3388,19.4937 -33.9687,26.7187 -0.4937,0.2832 -1.4559,0.8944 -2.0626,1.25 -0.5771,0.9393 -2.9298,3.685 -3.75,3.0938 -2.3353,-1.684 -5.1554,-4.3828 -1.5624,-7.3438 3.7453,-3.085 8.0987,-5.3957 11.9687,-8.3437 7.114,-5.42 13.9613,-11.194 21.1563,-16.5 1.7889,-1.32 4.4602,-1.568 6.7812,-2 z m 119.6875,8.2812 c 0.355,-0.163 1.2205,0.8095 1.9375,1.3125 -0.998,1.927 -1.7787,3.5075 -2.5938,5.0625 -3.7057,7.051 -10.7982,8.928 -17.5312,11.25 -0.787,0.271 -2.4195,-0.309 -2.8438,-1 -0.4067,-0.668 -0.1038,-2.3437 0.5,-2.9687 3.3102,-3.426 6.3925,-7.1008 11.0626,-8.9688 3.2548,-1.302 6.2697,-3.2215 9.4687,-4.6875 z"
     id="path5"
     inkscape:export-filename="/home/mlissner/Documents/CourtListener/Logos/v2/flp-banner-w400.png"
     inkscape:export-xdpi="130.90909"
     inkscape:export-ydpi="130.90909"
     inkscape:connector-curvature="0" /><path
     style="fill-rule:evenodd"
     d="m 1573.7634,658.52206 c -1.956,-6e-4 -3.8868,0.035 -5.8126,0.062 -47.7188,0.695 -95.4657,0.9258 -143.125,3.0938 -10.5327,0.479 -20.7644,8.0662 -31.0624,12.5312 -1.0652,0.463 -2.1222,1.941 -2.375,3.125 -2.1982,10.339 -4.2838,20.732 -6.2188,31.125 -0.222,1.198 0.8775,2.561 0.9375,3.875 0.379,8.375 1.1692,16.799 0.6563,25.125 -0.2172,3.565 -3.1088,7.035 -5.0938,10.375 -1.367,2.301 -3.2552,4.3045 -4.9062,6.4375 2.6397,1.877 5.0357,4.6598 7.9687,5.4688 7.761,2.14 15.7105,3.8637 23.6875,4.9687 59.212,8.22 118.6875,8.543 178.1875,4.625 15.335,-1.006 30.5273,-4.5547 45.6563,-7.5937 3.0868,-0.621 5.5807,-4.2185 8.3437,-6.4375 -2.258,-2.269 -4.5212,-4.5415 -6.7813,-6.8125 l 0.094,-0.094 c -4.621,2.537 -8.9623,6.02 -13.9062,7.375 -7.3922,2.027 -15.1918,2.7055 -22.8438,3.6875 -7.681,0.984 -9.3317,-0.971 -9.0938,-8.75 0.2923,-9.467 0.1452,-18.9625 0.125,-28.4375 0,-0.976 -0.1218,-2.3297 -0.75,-2.8437 -4.1277,-3.383 -2.1362,-3.4003 1.5938,-3.7813 12.336,-1.264 24.6802,-2.6402 36.9062,-4.6562 2.3892,-0.397 6.4206,-5.0153 6.0626,-5.6563 -5.2151,-9.307 -6.6461,-19.7637 -9.625,-29.7187 -0.341,-1.14 -1.615,-2.3298 -2.75,-2.8438 -9.4883,-4.307 -18.7473,-9.4027 -28.6563,-12.3437 -5.4255,-1.6088 -11.3515,-1.9043 -17.2187,-1.9063 z m 16.0624,6.8438 c 0.7274,-0.031 1.2308,-0.015 1.6563,0.1875 1.083,0.519 3.3117,1.1045 2.0937,2.8125 -0.8249,1.157 -0.1892,4.5385 -3.0312,3.3125 -4.41,-1.901 -8.9487,-1.2925 -13.4688,-1.5625 -1.365,-0.079 -2.6758,-1.0178 -4,-1.5938 -0.2248,-0.099 -0.5562,-0.4982 -0.5312,-0.5312 0.248,-0.344 0.5817,-0.9313 0.8438,-0.9063 5.1168,0.494 10.0437,-0.659 13.4687,-1.625 1.286,0 2.2414,-0.063 2.9687,-0.094 z m -1.9687,11.0625 c 2.9247,-0.051 5.8518,0.031 8.7813,0.031 3.3818,0 6.7742,0 10.1562,0 3.208,0 5.7388,1.4878 7.7188,3.8438 0.2889,0.346 -0.3035,2.1777 -0.8126,2.3437 -4.1808,1.361 -19.0857,2.6783 -23.5,1.5313 -3.673,-0.956 -7.0665,-2.9888 -10.5624,-4.5938 -0.3472,-0.159 -0.5688,-0.6185 -0.8438,-0.9375 0.438,-0.206 0.8595,-0.4397 1.3125,-0.5937 1.598,-0.543 3.1835,-1.4353 4.8125,-1.5313 0.9725,-0.055 1.9626,-0.077 2.9375,-0.094 z m -161.2813,64.3437 c 0.7451,-0.047 1.571,-0.019 2.4688,0.094 2.1455,0.2695 4.3145,0.4636 6.4688,0.6875 2.1539,0.2205 4.2937,0.4777 6.4062,0.9062 3.6424,0.7398 6.7268,5.8101 7.2188,10.25 0.045,0.4033 0.062,0.7987 0.062,1.1875 0,0.3996 -0.014,0.7797 -0.062,1.1563 -0.047,0.367 -0.1211,0.6936 -0.2188,1.0312 -0.1471,0.5176 -0.3509,0.9792 -0.625,1.4063 -0.09,0.1397 -0.1772,0.2781 -0.2812,0.4062 -0.5955,0.7315 -1.5959,1.1393 -2.5626,1.4063 -0.9653,0.2727 -1.894,0.4162 -2.375,0.5937 -6.287,-0.762 -11.2424,-1.341 -16.1874,-2 -1.1017,-0.1466 -2.2283,-0.299 -3.25,-0.5312 -0.01,0 -0.021,0 -0.031,0 -0.2473,-0.057 -0.4823,-0.1191 -0.7187,-0.1875 -0.01,0 -0.022,0 -0.031,0 -0.4912,-0.1434 -0.947,-0.3197 -1.375,-0.5313 -0.2058,-0.1017 -0.4063,-0.2223 -0.5937,-0.3437 -0.01,0 -0.024,0 -0.031,0 -0.3822,-0.2503 -0.7099,-0.5565 -1,-0.9063 -0.1519,-0.1831 -0.2839,-0.3786 -0.4063,-0.5937 -0.5933,-1.0427 -0.8337,-2.4594 -0.5312,-4.4688 0.097,-0.6409 0.2147,-1.2733 0.3438,-1.875 0.011,-0.053 0.019,-0.1031 0.031,-0.1562 0.097,-0.4403 0.1923,-0.8674 0.3125,-1.2813 0.065,-0.2226 0.1464,-0.442 0.2187,-0.6562 0.024,-0.072 0.037,-0.1477 0.063,-0.2188 0.03,-0.083 0.063,-0.1681 0.094,-0.25 0.1818,-0.4821 0.3944,-0.9469 0.625,-1.375 0.022,-0.041 0.04,-0.085 0.062,-0.125 0.1289,-0.2312 0.2607,-0.4432 0.4062,-0.6562 0.1671,-0.2443 0.3718,-0.469 0.5626,-0.6875 0.1414,-0.1616 0.282,-0.3223 0.4374,-0.4688 0.016,-0.015 0.046,-0.016 0.063,-0.031 0.066,-0.061 0.119,-0.1294 0.1874,-0.1875 0.1871,-0.159 0.3867,-0.3001 0.5938,-0.4375 0.2432,-0.1614 0.5085,-0.3076 0.7812,-0.4375 0.2661,-0.1267 0.5478,-0.2489 0.8438,-0.3438 0.3108,-0.1 0.6229,-0.1874 0.9688,-0.25 0.04,-0.01 0.084,-0.024 0.125,-0.031 0.2988,-0.049 0.6115,-0.073 0.9374,-0.094 z"
     id="path7"
     inkscape:export-filename="/home/mlissner/Documents/CourtListener/Logos/v2/flp-banner-w400.png"
     inkscape:export-xdpi="130.90909"
     inkscape:export-ydpi="130.90909"
     inkscape:connector-curvature="0" /><path
     style="clip-rule:evenodd;fill-rule:evenodd"
     inkscape:connector-curvature="0"
     id="path9"
     d="m 973.40359,773.25236 c -16.071,0.457 -32.147,1.283 -48.217,1.172 -5.36,-0.039 -363.199,-2.203 -368.548,-3.541 4.608,-2.121 361.627,-4.75 366.355,-6.551 3.052,-1.162 6.414,-1.516 9.635,-2.23 -2.269,-2.713 -4.324,-5.641 -6.843,-8.09 -7.224,-7.025 -14.765,-13.723 -21.902,-20.83 -2.733,-2.725 -4.71,-6.205 -7.035,-9.342 3.916,1.029 8.045,1.576 11.689,3.207 4.576,2.045 8.771,4.955 13.1,7.541 4.021,2.404 6.835,1.715 8.76,-2.811 4.69,-11.031 9.58,-21.984 14.333,-32.992 0.635,-1.471 1.554,-4.336 1.328,-4.443 -7.498,-3.592 -0.56,-13.268 -7.259,-17.119 -0.66,-0.381 -0.767,-1.725 -1.131,-2.619 1.215,-0.021 2.653,-0.486 3.607,0 7.774,3.975 15.731,7.699 23.083,12.363 5.732,3.635 10.143,3.146 13.939,-2.035 3.956,-5.4 7.8,-10.934 11.128,-16.734 8.689,-15.158 16.97801,-30.549 25.62701,-45.732 3.309,-5.811 4.848,-10.65 -3.562,-13.115 -0.807,-0.236 -1.395,-1.221 -2.083,-1.855 1.046,-0.492 2.345,-1.656 3.101,-1.375 7.405,2.779 8.141,-1.139 9.22,-7.318 1.889,-10.811 5.588,-21.293 7.929,-32.045 1.345,-6.188 1.302,-12.668 2.315,-18.947 0.389,-2.408 1.498,-5.994 3.145,-6.572 1.894,-0.66 5.045,0.988 7.104,2.416 2.438,1.695 4.969,3.883 6.282,6.455 5.617,11.012 15.203,18.369 24.066,26.23 5.95,5.277 13.371,8.854 19.854,13.58 8.838,6.441 17.147,13.646 26.231,19.701 3.315,2.207 8.201,2.037 12.36,3.006 1.138,0.264 2.23,0.723 3.344,1.094 -0.776,1.027 -1.332,2.525 -2.364,3.004 -4.854,2.252 -9.703,4.695 -14.812,6.184 -6.86,1.994 -9.707,6.809 -8.243,12.914 2.871,11.988 6.817,23.723 10.462,35.514 0.778,2.521 2.607,4.75 3.196,7.291 2.102,9.059 3.604,18.26 5.842,27.285 3.454,13.93 10.512,17.215 24.382,13.086 6.787,-2.021 14.07,-2.375 21.132,-3.484 l -0.074,-0.086 c -1.285,7.436 1.011,11.305 8.454,12.379 4.577,0.66 9.367,-0.299 14.029,0 1.485,0.098 2.857,1.916 4.282,2.945 -1.38,1.172 -2.741,3.311 -4.14,3.336 -4.325,0.074 -8.761,-1.385 -12.972,-0.844 -3.473,0.447 -8.764,2.268 -9.474,4.619 -0.811,2.684 1.662,7.994 4.305,9.734 5.069,3.344 11.077,5.93 17.036,7.111 13.075,2.588 26.371,4.033 39.547,6.139 1.77,0.281 3.362,1.668 5.036,2.543 -1.758,1.035 -3.459,2.834 -5.287,2.973 -8.356,0.641 -16.746,1.057 -25.126,1.115 -29.536,0.195 -59.075,0.193 -88.611,0.34 -1.566,0.01 -3.131,0.68 -4.699,1.045 1.507,0.93 2.965,2.564 4.527,2.674 9.056,0.633 18.133,1.129 27.208,1.246 13.416,0.176 26.843,0.113 40.258,-0.072 15.43,-0.213 30.856,-0.666 46.284,-1.018 1.674,-0.039 3.393,-0.354 4.999,-0.055 1.146,0.215 2.139,1.248 3.198,1.92 -1.035,0.621 -2.021,1.664 -3.111,1.793 -7.331,0.865 -14.68,2.1 -22.032,2.174 -31.895,0.314 -63.794,0.303 -95.691,0.312 -2.997,0 -6.505,0.16 -8.85,-1.271 -2.284,-1.391 -4.925,-4.852 -4.745,-7.197 0.975,-12.734 2.747,-25.414 9.541,-36.703 2.115,-3.512 2.421,-6.096 -1.465,-9.408 -2.891,-2.465 -4.838,-7.148 -5.362,-11.09 -3.536,-26.645 -6.438,-53.373 -9.947,-80.025 -0.518,-3.939 -2.619,-7.969 -4.922,-11.314 -5.498,-7.99 -11.436,-15.689 -17.421,-23.332 -4.781,-6.104 -6.217,-5.973 -9.662,0.777 -1.826,3.576 -3.453,7.359 -4.46,11.234 -4.053,15.613 -11.954,29.029 -21.894,41.617 -15.623,19.785 -30.63,40.059 -46.03401,60.018 -6.932,8.98 -7.064,8.832 -17.035,3.625 -1.333,-0.695 -2.933,-0.875 -4.41,-1.293 0.156,1.561 0.031,3.217 0.518,4.668 1.831,5.451 6.621,4.92 10.938,5.012 9.929,0.213 19.06801,1.477 26.69901,9.346 8.099,8.354 7.061,19.236 9.747,29.053 0.305,1.109 -3.804,4.623 -6.229,5.076 -11.192,2.086 -22.51601,3.473 -33.79101,5.135 -3.277,0.484 -6.541,1.047 -9.811,1.574 l 0.099,-0.09 z"
     inkscape:export-filename="/home/mlissner/Documents/CourtListener/Logos/v2/flp-banner-w400.png"
     inkscape:export-xdpi="130.90909"
     inkscape:export-ydpi="130.90909" /><path
     style="fill-rule:evenodd"
     d="m 1105.7008,387.11586 c -7.3469,1.845 -14.9915,2.9452 -21.9374,5.7812 -5.2541,2.148 -13.0375,6.283 -8.6876,12.875 2.2801,3.456 11.2163,2.5643 17.1563,3.5313 0.542,0.088 1.1623,-0.5858 1.7813,-0.8438 9.092,-3.789 13.4117,-1.9182 16.4687,7.5938 2.544,7.918 3.6077,16.5142 7.3437,23.7812 4.7,9.138 5.301,18.59 5.75,28.25 0.4551,9.701 0.53,19.4453 0.5,29.1563 -0.017,5.555 2.6103,8.0237 7.9063,8.0937 10.805,0.142 28.4433,-14.6717 29.0313,-25.0937 0.1919,-3.436 -0.2981,-4.3925 3.875,-3.9375 13.3049,1.444 22.0882,-5.6215 28.4062,-16.5625 l 0.094,0.094 c -0.6377,-1.4012 -1.2402,-2.8174 -1.875,-4.2187 -1.3757,1.2433 -2.7514,2.5058 -4.125,3.75 -2.4771,-7.6741 0.5989,-13.2739 6.5937,-17.75 -3.2257,-0.4355 -6.5289,-1.4731 -9.6563,-1.0938 -6.532,0.792 -10.6014,-0.6675 -13.0624,-7.5625 -2.244,-6.283 -5.9615,-12.135 -9.6876,-17.75 -2.484,-3.742 -5.1737,-5.085 -6.0937,1.625 -0.233,1.67 -4.4108,3.019 -6.9687,4 -0.6981,0.269 -2.6031,-1.092 -3.125,-2.125 -3.526,-6.951 -6.3635,-14.3102 -10.4376,-20.9062 -1.6659,-2.7 -5.6657,-4.5175 -8.9687,-5.5625 -6.665,-2.109 -13.563,-3.4215 -20.375,-5.0625 l 0.094,-0.062 z m 88.2813,54.5 c 0.082,0.011 0.1679,0.021 0.25,0.031 l -0.094,-0.1562 c -0.054,0.039 -0.1032,0.085 -0.1563,0.125 z m -69.2187,-23.9688 c 1.2838,0.042 2.8617,1.3219 4.9687,3.8125 4.4882,5.3065 8.9497,9.6316 15.5625,9.25 0.5086,-0.029 1.0275,-0.069 1.5625,-0.1562 1.07,-0.174 2.2191,-0.4811 3.4063,-0.9063 0.09,-0.032 0.1854,-0.045 0.2812,-0.062 0.1066,-0.018 0.2313,-0.03 0.3438,-0.031 1.5745,-0.022 3.6869,1.4567 5.5,2.0937 -1.312,1.656 -2.305,3.856 -4,4.875 -4.5719,2.7494 -8.6223,6.7323 -13.7813,8.0313 -0.469,0.1181 -0.9489,0.2105 -1.4375,0.2812 -1.946,0.2773 -4.0834,0.1764 -6.4375,-0.5312 -1.1398,-0.3424 -2.1603,-0.6825 -3.0937,-1.0313 -0.4668,-0.1743 -0.8945,-0.3489 -1.3126,-0.5312 -0.8361,-0.3645 -1.5967,-0.7664 -2.25,-1.1875 -0.3266,-0.2106 -0.6224,-0.4252 -0.9062,-0.6563 -0.8514,-0.6929 -1.5303,-1.4853 -2.0312,-2.4375 -0.167,-0.3174 -0.3056,-0.6453 -0.4376,-1 -0.7914,-2.1274 -0.9757,-4.9753 -0.75,-8.9687 0.1691,-0.988 0.3361,-2.9893 0.875,-4.9063 0.7493,-2.6722 1.5237,-4.4468 2.4376,-5.3125 0.3046,-0.2885 0.6252,-0.4743 0.9687,-0.5625 0.1717,-0.044 0.3478,-0.068 0.5313,-0.062 z"
     id="path11"
     inkscape:export-filename="/home/mlissner/Documents/CourtListener/Logos/v2/flp-banner-w400.png"
     inkscape:export-xdpi="130.90909"
     inkscape:export-ydpi="130.90909"
     inkscape:connector-curvature="0" /><path
     style="clip-rule:evenodd;fill-rule:evenodd"
     inkscape:connector-curvature="0"
     id="path13"
     d="m 1000.6626,426.72036 c -0.659,-4.555 -1.35801,-9.105 -1.95801,-13.669 -0.146,-1.129 0.029,-2.303 0.057,-3.455 0.969,0.183 2.30801,0.023 2.84301,0.604 2.653,2.885 5.496,5.72 7.527,9.028 5.073,8.261 10.173,16.558 14.451,25.238 3.977,8.067 7.075,16.586 10.227,25.032 1.646,4.416 -0.668,7.67 -5.058,7.844 -6.582,0.262 -13.56,0.627 -19.671,-1.283 -3.39,-1.059 -7.196,-6.436 -7.641,-10.236"
     inkscape:export-filename="/home/mlissner/Documents/CourtListener/Logos/v2/flp-banner-w400.png"
     inkscape:export-xdpi="130.90909"
     inkscape:export-ydpi="130.90909" /><path
     style="clip-rule:evenodd;fill-rule:evenodd"
     inkscape:connector-curvature="0"
     id="path15"
     d="m 1017.6786,565.17636 c -1.465,5.107 -55.19001,38.867 -59.62601,36.629 -3.22,-1.625 -6.159,-9.193 -6.848,-12.689 -1.227,-6.25 61.46001,-52.096 67.58701,-53.805 0.98,-0.273 3.371,1.443 3.717,2.637 0.621,2.156 0.188,4.615 0.194,6.949"
     inkscape:export-filename="/home/mlissner/Documents/CourtListener/Logos/v2/flp-banner-w400.png"
     inkscape:export-xdpi="130.90909"
     inkscape:export-ydpi="130.90909" /><path
     style="clip-rule:evenodd;fill-rule:evenodd"
     inkscape:connector-curvature="0"
     id="path17"
     d="m 973.30559,773.33836 0.099,-0.086 -0.099,0.086 z"
     inkscape:export-filename="/home/mlissner/Documents/CourtListener/Logos/v2/flp-banner-w400.png"
     inkscape:export-xdpi="130.90909"
     inkscape:export-ydpi="130.90909" /><path
     style="clip-rule:evenodd;fill-rule:evenodd"
     inkscape:connector-curvature="0"
     id="path19"
     d="m 1435.0536,296.57536 -0.118,0.105 0.118,-0.105 z"
     inkscape:export-filename="/home/mlissner/Documents/CourtListener/Logos/v2/flp-banner-w400.png"
     inkscape:export-xdpi="130.90909"
     inkscape:export-ydpi="130.90909" /><path
     style="clip-rule:evenodd;fill-rule:evenodd"
     inkscape:connector-curvature="0"
     id="path21"
     d="m 1633.9326,748.39336 -0.107,0.107 0.107,-0.107 z"
     inkscape:export-filename="/home/mlissner/Documents/CourtListener/Logos/v2/flp-banner-w400.png"
     inkscape:export-xdpi="130.90909"
     inkscape:export-ydpi="130.90909" /><path
     style="clip-rule:evenodd;fill-rule:evenodd"
     inkscape:connector-curvature="0"
     id="path23"
     d="m 1026.3576,351.22736 0.087,0.096 -0.087,-0.096 z"
     inkscape:export-filename="/home/mlissner/Documents/CourtListener/Logos/v2/flp-banner-w400.png"
     inkscape:export-xdpi="130.90909"
     inkscape:export-ydpi="130.90909" /><path
     style="clip-rule:evenodd;fill-rule:evenodd"
     inkscape:connector-curvature="0"
     id="path25"
     d="m 1105.6956,387.10336 -0.097,0.087 0.097,-0.087 z"
     inkscape:export-filename="/home/mlissner/Documents/CourtListener/Logos/v2/flp-banner-w400.png"
     inkscape:export-xdpi="130.90909"
     inkscape:export-ydpi="130.90909" /><path
     style="clip-rule:evenodd;fill:#ffffff;fill-rule:evenodd"
     inkscape:connector-curvature="0"
     id="path27"
     d="m 1436.9406,296.71436 0.083,-0.075 -0.083,0.075 z"
     inkscape:export-filename="/home/mlissner/Documents/CourtListener/Logos/v2/flp-banner-w400.png"
     inkscape:export-xdpi="130.90909"
     inkscape:export-ydpi="130.90909" /><path
     style="clip-rule:evenodd;fill:#ffffff;fill-rule:evenodd"
     inkscape:connector-curvature="0"
     id="path29"
     d="m 1418.3666,305.90736 0.099,0.108 -0.099,-0.108 z"
     inkscape:export-filename="/home/mlissner/Documents/CourtListener/Logos/v2/flp-banner-w400.png"
     inkscape:export-xdpi="130.90909"
     inkscape:export-ydpi="130.90909" /><path
     style="clip-rule:evenodd;fill:#ffffff;fill-rule:evenodd"
     inkscape:connector-curvature="0"
     id="path31"
     d="m 1420.2066,310.03136 0.093,0.103 -0.093,-0.103 z"
     inkscape:export-filename="/home/mlissner/Documents/CourtListener/Logos/v2/flp-banner-w400.png"
     inkscape:export-xdpi="130.90909"
     inkscape:export-ydpi="130.90909" /><path
     style="clip-rule:evenodd;fill:#ffffff;fill-rule:evenodd"
     inkscape:connector-curvature="0"
     id="path33"
     d="m 1426.2786,310.33136 0.06,0.071 -0.06,-0.071 z"
     inkscape:export-filename="/home/mlissner/Documents/CourtListener/Logos/v2/flp-banner-w400.png"
     inkscape:export-xdpi="130.90909"
     inkscape:export-ydpi="130.90909" /><path
     style="clip-rule:evenodd;fill:#ffffff;fill-rule:evenodd"
     inkscape:connector-curvature="0"
     id="path39"
     d="m 1055.6566,328.26436 0.101,0.112 -0.101,-0.112 z"
     inkscape:export-filename="/home/mlissner/Documents/CourtListener/Logos/v2/flp-banner-w400.png"
     inkscape:export-xdpi="130.90909"
     inkscape:export-ydpi="130.90909" /><path
     d="m 1126.7656,507.12136 c 0,0 -3.365,11.301 -1.447,28.9 1.917,17.598 37.086,60.072 39.545,65.402 2.46,5.33 24.079,105.891 24.124,108.166 0.043,2.277 -11.469,5.557 -11.469,5.557 0,0 7.097,-3.223 7.13,-7.01 0.033,-3.789 -16.614,-92.914 -24.983,-103.406 -8.369,-10.492 -40.173,-51.791 -40.409,-68.979 -0.139,-10.004 0.12,-23.707 2.291,-28.695 1.557,-3.579 5.218,0.065 5.218,0.065 z"
     id="path41"
     inkscape:export-filename="/home/mlissner/Documents/CourtListener/Logos/v2/flp-banner-w400.png"
     inkscape:export-xdpi="130.90909"
     inkscape:export-ydpi="130.90909"
     inkscape:connector-curvature="0" /><path
     d="m 1209.2046,728.66636 c 0,0 31.461,-2.076 36.473,10.271 5.012,12.346 4.981,24.469 4.981,24.469 0,0 5.637,5.24 5.716,7.832 0.078,2.59 -4.234,4.357 -4.234,4.357 l -4.921,-0.217 c 0,0 3.496,-1.932 3.104,-4.408 -0.392,-2.479 -4.255,-4.053 -5.198,-5.787 -0.942,-1.736 -7.13,-12.469 -9.161,-23.658 -2.031,-11.191 -26.76,-12.859 -26.76,-12.859 z"
     id="path43"
     inkscape:export-filename="/home/mlissner/Documents/CourtListener/Logos/v2/flp-banner-w400.png"
     inkscape:export-xdpi="130.90909"
     inkscape:export-ydpi="130.90909"
     inkscape:connector-curvature="0"
     style="clip-rule:evenodd;fill-rule:evenodd" /><path
     d="m 1010.9616,576.93836 c 0,0 -4.99,26.553 -6.972,29.498 -1.981,2.947 -68.70301,57.08 -70.00201,63.592 -1.299,6.514 0.841,15.9 -0.758,17.143 -1.598,1.244 -38.716,30.117 -38.716,30.117 0,0 8.367,3.893 12.101,0.535 3.735,-3.359 28.7,-24.5 29.989,-26.967 1.289,-2.467 -2.282,-9.363 0.779,-17.646 3.062,-8.283 67.40701,-62.023 69.06101,-65.148 1.655,-3.126 4.518,-31.124 4.518,-31.124 z"
     id="path45"
     inkscape:export-filename="/home/mlissner/Documents/CourtListener/Logos/v2/flp-banner-w400.png"
     inkscape:export-xdpi="130.90909"
     inkscape:export-ydpi="130.90909"
     inkscape:connector-curvature="0" /><path
     d="m 1024.9896,337.08736 -0.534,12.101 c 0,0 -41.93301,19.062 -41.85401,32.52 0.08,13.458 13.807,80.75 13.807,80.75 l 2.424,9.201 c 0,0 -13.259,-73.333 -8.909,-87.96 4.352,-14.627 29.07701,-26.67 36.23901,-28.037 7.16,-1.366 23.251,0.355 23.251,0.355 0,0 -16.958,-4.961 -19.446,-9.616 -2.487,-4.657 -4.978,-9.314 -4.978,-9.314 z"
     id="path47"
     inkscape:export-filename="/home/mlissner/Documents/CourtListener/Logos/v2/flp-banner-w400.png"
     inkscape:export-xdpi="130.90909"
     inkscape:export-ydpi="130.90909"
     inkscape:connector-curvature="0"
     style="clip-rule:evenodd;fill-rule:evenodd" /><path
     d="m 1070.4296,324.20936 c 0.46,-0.183 0.275,9.163 2.44,11.927 2.165,2.764 28.591,8.888 34.591,11.06 5.999,2.171 28.401,32.899 28.401,32.899 l 17.791,25.949 c 0,0 -17.715,-17.409 -22.562,-24.254 -4.852,-6.846 -19.32,-28.687 -29.097,-31.787 -9.774,-3.1 -19.363,-4.177 -25.741,-3.425 -6.378,0.753 -18.812,2.218 -18.812,2.218 0,0 8.669,-4.484 10.249,-7.553 1.58,-3.067 2.28,-16.853 2.74,-17.034 z"
     id="path49"
     inkscape:export-filename="/home/mlissner/Documents/CourtListener/Logos/v2/flp-banner-w400.png"
     inkscape:export-xdpi="130.90909"
     inkscape:export-ydpi="130.90909"
     inkscape:connector-curvature="0"
     style="clip-rule:evenodd;fill-rule:evenodd" /><path
     d="m 1035.8036,481.03936 c 0,0 1.088,13.424 -0.698,15.801 -1.786,2.375 -10.896,13.998 -11.119,19.041 -0.224,5.041 -1.396,16.146 -0.684,15.463 0.708,-0.686 0.191,-7.539 3.795,-15.326 3.604,-7.785 10.914,-16.354 11.796,-21.033 0.879,-4.676 -3.09,-13.946 -3.09,-13.946 z"
     id="path51"
     inkscape:export-filename="/home/mlissner/Documents/CourtListener/Logos/v2/flp-banner-w400.png"
     inkscape:export-xdpi="130.90909"
     inkscape:export-ydpi="130.90909"
     inkscape:connector-curvature="0"
     style="clip-rule:evenodd;fill-rule:evenodd" /><path
     d="m 1184.4136,413.70436 c 0,0 -6.171,-5.764 -9.2,-3.741 -3.032,2.022 -4.433,7.061 -4.433,7.061 l 0.667,2.688 c 0,0 2.809,-5.869 4.052,-7.383 1.243,-1.514 8.914,1.375 8.914,1.375 z"
     id="path53"
     inkscape:export-filename="/home/mlissner/Documents/CourtListener/Logos/v2/flp-banner-w400.png"
     inkscape:export-xdpi="130.90909"
     inkscape:export-ydpi="130.90909"
     inkscape:connector-curvature="0"
     style="clip-rule:evenodd;fill-rule:evenodd" /><path
     d="m 1620.0736,715.13536 c 0,0 8.409,-2.404 9.784,-2.971 1.375,-0.568 2.795,-2.686 3.189,-2.84 0.396,-0.154 0.736,37.086 0.736,37.086 0,0 -1.785,-31.145 -2.613,-31.748 -0.828,-0.603 -11.096,0.473 -11.096,0.473 z"
     id="path55"
     inkscape:export-filename="/home/mlissner/Documents/CourtListener/Logos/v2/flp-banner-w400.png"
     inkscape:export-xdpi="130.90909"
     inkscape:export-ydpi="130.90909"
     inkscape:connector-curvature="0"
     style="clip-rule:evenodd;fill-rule:evenodd" /><path
     d="m 1404.0186,254.14936 c 0,0 8.969,-4.824 10.452,-4.084 1.482,0.739 5.105,15.824 8.942,22.455 3.838,6.633 11.614,18.7 11.803,20.393 0.188,1.693 -5.687,8.842 -5.687,8.842 0,0 1.872,-8 2.105,-9.506 0.235,-1.504 -10.266,-11.567 -13.338,-18.271 -3.072,-6.704 -4.688,-20.202 -6.182,-20.144 -1.494,0.058 -8.095,0.315 -8.095,0.315 z"
     id="path57"
     inkscape:export-filename="/home/mlissner/Documents/CourtListener/Logos/v2/flp-banner-w400.png"
     inkscape:export-xdpi="130.90909"
     inkscape:export-ydpi="130.90909"
     inkscape:connector-curvature="0"
     style="clip-rule:evenodd;fill-rule:evenodd" /><text
     style="font-size:290.36898804px;font-family:Rockwell-ExtraBold"
     id="text63"
     font-size="290.3736"
     transform="matrix(0.94031496,-0.34030541,0.34030541,0.94031496,0,0)"
     x="1108.946"
     y="1092.662"
     inkscape:export-filename="/home/mlissner/Documents/CourtListener/Logos/v2/flp-banner-w400.png"
     inkscape:export-xdpi="130.90909"
     inkscape:export-ydpi="130.90909">$</text>
<g
     id="g65"
     transform="matrix(0.76289,0,0,0.76289,526.76422,-310.31878)"
     inkscape:export-filename="/home/mlissner/Documents/CourtListener/Logos/v2/flp-banner-w400.png"
     inkscape:export-xdpi="130.90909"
     inkscape:export-ydpi="130.90909"><path
       d="m 71,73.947 149.607,0 15.795,41.607 -9.502,0 c -5.137,-5.907 -10.874,-11.237 -17.208,-15.988 -6.336,-4.752 -12.585,-8.582 -18.749,-11.494 -6.164,-2.91 -11.987,-4.836 -17.465,-5.779 -4.966,-0.855 -10.061,-1.284 -15.282,-1.284 -8.648,0 -14.79,0.835 -18.428,2.504 -3.64,1.67 -5.929,4.623 -6.87,8.861 -0.943,4.237 -1.413,11.409 -1.413,21.51 l 0,44.176 23.372,0 c 11.814,0 20.74,-2.633 26.775,-7.897 6.036,-5.266 9.182,-13.333 9.439,-24.207 l 9.246,0 0,68.704 -9.246,0 c -0.771,-8.646 -2.312,-15.003 -4.623,-19.07 -2.312,-4.065 -5.971,-6.807 -10.98,-8.219 -5.008,-1.413 -12.222,-2.119 -21.638,-2.119 l -22.345,0 0,62.796 c 0,7.448 2.075,12.649 6.228,15.603 4.152,2.953 11.45,4.43 21.896,4.43 l 3.339,0 0,7.063 -91.177,0 0,-7.063 c 8.389,-0.257 14.467,-1.112 18.235,-2.568 3.766,-1.455 6.271,-3.917 7.513,-7.384 1.24,-3.467 1.862,-8.752 1.862,-15.859 l 0,-112.237 0,-6.164 c 0,-8.219 -1.521,-14.126 -4.559,-17.722 -3.04,-3.596 -9.868,-5.394 -20.482,-5.394 -0.6,0 -1.156,0.022 -1.669,0.064 -0.514,0.044 -1.071,0.108 -1.669,0.192 l 0,-7.062 z m 40.709,157.569 0,-120.97 c 0,-8.817 -0.279,-15.195 -0.834,-19.134 -0.558,-3.937 -2.119,-6.806 -4.688,-8.604 -2.569,-1.798 -6.85,-2.396 -12.842,-1.798 4.537,1.627 7.362,3.939 8.476,6.935 1.112,2.998 1.669,8.776 1.669,17.336 l 0,120.199 c 0,5.309 -0.193,9.246 -0.578,11.814 -0.386,2.568 -1.178,4.603 -2.376,6.1 -1.2,1.499 -3.254,3.062 -6.164,4.687 6.334,0.086 10.807,-1.134 13.42,-3.66 2.611,-2.523 3.917,-6.825 3.917,-12.905 z m 78.335,-57.403 0,-27.096 c -1.798,3.511 -4.003,6.208 -6.614,8.09 -2.612,1.884 -6.529,3.768 -11.75,5.65 5.137,1.284 9.138,2.934 12.007,4.944 2.868,2.013 4.986,4.817 6.357,8.412 z m 30.563,-71.785 -12.585,-21.318 -24.014,0 c 5.307,1.713 10.017,3.618 14.126,5.715 4.109,2.099 7.641,4.217 10.595,6.356 2.953,2.142 6.912,5.224 11.878,9.247 z"
       id="path67"
       inkscape:connector-curvature="0" /><path
       d="m 287.359,140.725 0,19.776 c 6.591,-7.448 11.642,-12.605 15.153,-15.474 3.509,-2.868 7.747,-4.302 12.713,-4.302 4.28,0 7.898,1.521 10.851,4.559 2.954,3.04 4.431,6.87 4.431,11.493 0,4.795 -1.328,8.797 -3.981,12.007 -2.655,3.211 -5.994,4.816 -10.017,4.816 -1.798,0 -3.768,-0.341 -5.907,-1.027 -2.141,-0.684 -3.939,-1.583 -5.394,-2.697 -0.857,-0.684 -1.756,-1.413 -2.697,-2.183 -0.943,-0.771 -1.778,-1.369 -2.504,-1.798 -0.729,-0.427 -1.521,-0.642 -2.376,-0.642 -1.627,0 -3.232,0.622 -4.815,1.862 -1.585,1.242 -3.403,2.976 -5.458,5.201 l 0,62.026 c 0,4.453 0.62,7.621 1.862,9.503 1.24,1.884 3.166,3.062 5.778,3.531 2.611,0.472 7.169,0.707 13.677,0.707 l 0,7.063 -68.96,0 0,-7.063 3.467,0 c 9.93,0 14.896,-3.937 14.896,-11.814 l 0,-57.66 c 0,-9.844 -6.122,-16.608 -18.364,-20.29 l 0,-4.366 41.351,-13.227 6.294,0 z m -25.042,37.883 0,58.43 c 0,2.912 -0.472,5.073 -1.413,6.485 -0.943,1.413 -2.312,2.934 -4.109,4.559 4.88,-0.427 8.389,-1.734 10.53,-3.917 2.139,-2.184 3.21,-5.972 3.21,-11.365 l 0,-54.192 c 0,-7.362 -1.284,-12.713 -3.853,-16.052 -2.569,-3.339 -6.636,-5.008 -12.2,-5.008 -0.429,0 -1.371,0.086 -2.825,0.257 -1.457,0.172 -2.44,0.257 -2.954,0.257 9.076,3.938 13.614,10.786 13.614,20.546 z m 33.646,-18.107 c 2.312,0 4.623,0.771 6.935,2.312 5.307,4.196 9.76,6.292 13.355,6.292 4.451,0 7.705,-2.867 9.76,-8.604 -2.398,1.2 -4.153,1.798 -5.265,1.798 -2.568,0 -5.137,-0.855 -7.705,-2.568 -3.254,-2.653 -5.951,-3.981 -8.09,-3.981 -2.056,0 -5.053,1.584 -8.99,4.751 z"
       id="path69"
       inkscape:connector-curvature="0" /><path
       d="m 439.663,223.297 5.137,3.981 c -3.853,7.191 -8.434,13.099 -13.741,17.722 -5.309,4.623 -11.152,8.048 -17.529,10.273 -6.379,2.225 -13.035,3.339 -19.969,3.339 -9.418,0 -18.171,-2.27 -26.261,-6.806 -8.091,-4.537 -14.491,-11.086 -19.199,-19.648 -4.709,-8.56 -7.063,-18.277 -7.063,-29.151 0,-8.56 1.433,-16.608 4.302,-24.143 2.868,-7.533 6.849,-14.168 11.943,-19.905 5.092,-5.735 11,-10.209 17.722,-13.419 6.72,-3.211 13.889,-4.816 21.51,-4.816 7.705,0 15.045,1.605 22.023,4.816 6.977,3.21 12.521,7.641 16.63,13.291 2.996,4.109 5.157,8.327 6.485,12.649 1.327,4.324 2.376,9.525 3.146,15.603 l -77.564,0 c 0.341,8.905 1.862,16.438 4.559,22.602 2.697,6.164 6.207,11.13 10.53,14.896 4.322,3.768 8.925,6.465 13.805,8.09 4.88,1.627 9.545,2.44 13.998,2.44 10.787,0.001 20.631,-3.936 29.536,-11.814 z m -70.502,-69.731 c -16.01,12.671 -24.014,29.279 -24.014,49.826 0,14.896 4.771,27.076 14.318,36.535 9.545,9.461 20.567,14.19 33.068,14.19 7.276,0 14.576,-1.477 21.895,-4.431 7.32,-2.953 13.504,-7.34 18.557,-13.163 -5.223,3.339 -10.552,6.058 -15.988,8.155 -5.438,2.099 -11.922,3.146 -19.455,3.146 -12.757,0 -23.394,-4.451 -31.912,-13.355 -8.52,-8.903 -12.777,-20.503 -12.777,-34.801 0,-9.074 1.413,-17.208 4.238,-24.399 2.825,-7.191 6.847,-14.425 12.07,-21.703 z m -1.156,25.299 44.818,0 0,-4.238 c 0,-4.964 -0.899,-9.395 -2.697,-13.292 -1.798,-3.895 -4.26,-6.89 -7.384,-8.989 -3.126,-2.097 -6.7,-3.146 -10.723,-3.146 -6.507,0 -12.029,2.889 -16.566,8.668 -4.538,5.779 -7.02,12.778 -7.448,20.997 z m 48.928,0 8.989,0 c -0.257,-9.587 -2.227,-16.672 -5.907,-21.253 -3.682,-4.579 -9.846,-7.641 -18.492,-9.182 5.478,2.484 9.417,5.714 11.814,9.696 2.396,3.98 3.596,10.039 3.596,18.171 l 0,2.568 z"
       id="path71"
       inkscape:connector-curvature="0" /><path
       d="m 557.55,223.297 5.137,3.981 c -3.853,7.191 -8.434,13.099 -13.741,17.722 -5.309,4.623 -11.152,8.048 -17.529,10.273 -6.379,2.225 -13.035,3.339 -19.969,3.339 -9.418,0 -18.171,-2.27 -26.261,-6.806 -8.091,-4.537 -14.491,-11.086 -19.199,-19.648 -4.709,-8.56 -7.063,-18.277 -7.063,-29.151 0,-8.56 1.433,-16.608 4.302,-24.143 2.868,-7.533 6.849,-14.168 11.943,-19.905 5.092,-5.735 11,-10.209 17.722,-13.419 6.72,-3.211 13.889,-4.816 21.51,-4.816 7.705,0 15.045,1.605 22.023,4.816 6.977,3.21 12.521,7.641 16.63,13.291 2.996,4.109 5.157,8.327 6.485,12.649 1.327,4.324 2.376,9.525 3.146,15.603 l -77.564,0 c 0.341,8.905 1.862,16.438 4.559,22.602 2.697,6.164 6.207,11.13 10.53,14.896 4.322,3.768 8.925,6.465 13.805,8.09 4.88,1.627 9.545,2.44 13.998,2.44 10.787,0.001 20.632,-3.936 29.536,-11.814 z m -70.501,-69.731 c -16.01,12.671 -24.014,29.279 -24.014,49.826 0,14.896 4.771,27.076 14.318,36.535 9.545,9.461 20.567,14.19 33.068,14.19 7.276,0 14.576,-1.477 21.895,-4.431 7.32,-2.953 13.504,-7.34 18.557,-13.163 -5.223,3.339 -10.552,6.058 -15.988,8.155 -5.438,2.099 -11.922,3.146 -19.455,3.146 -12.757,0 -23.394,-4.451 -31.912,-13.355 -8.52,-8.903 -12.777,-20.503 -12.777,-34.801 0,-9.074 1.413,-17.208 4.238,-24.399 2.825,-7.191 6.847,-14.425 12.07,-21.703 z m -1.156,25.299 44.818,0 0,-4.238 c 0,-4.964 -0.899,-9.395 -2.697,-13.292 -1.798,-3.895 -4.26,-6.89 -7.384,-8.989 -3.126,-2.097 -6.7,-3.146 -10.723,-3.146 -6.507,0 -12.029,2.889 -16.566,8.668 -4.538,5.779 -7.021,12.778 -7.448,20.997 z m 48.927,0 8.989,0 c -0.257,-9.587 -2.227,-16.672 -5.907,-21.253 -3.682,-4.579 -9.846,-7.641 -18.492,-9.182 5.478,2.484 9.417,5.714 11.814,9.696 2.396,3.98 3.596,10.039 3.596,18.171 l 0,2.568 z"
       id="path73"
       inkscape:connector-curvature="0" /><path
       d="m 641.921,81.01 0,-7.063 89.25,0 0,7.063 -3.981,0 c -6.678,0 -11.794,0.6 -15.346,1.798 -3.553,1.2 -6.058,3.403 -7.512,6.613 -1.457,3.211 -2.183,7.77 -2.183,13.677 l 0,125.721 c 0,4.88 0.835,8.668 2.504,11.365 1.67,2.697 4.688,4.688 9.054,5.972 4.366,1.284 10.53,1.926 18.492,1.926 6.762,0 12.97,-0.556 18.621,-1.669 5.65,-1.112 11.257,-3.082 16.823,-5.907 5.564,-2.825 11.301,-6.848 17.208,-12.071 5.907,-5.221 11.856,-11.728 17.85,-19.52 l 11.814,0 -17.08,46.23 -155.514,0 0,-7.063 1.669,0 c 7.705,0 13.397,-0.707 17.08,-2.119 3.68,-1.413 6.184,-3.638 7.512,-6.678 1.327,-3.038 1.991,-7.298 1.991,-12.778 l 0,-121.483 c 0,-6.421 -0.578,-11.257 -1.734,-14.511 -1.155,-3.252 -3.768,-5.65 -7.833,-7.191 -4.067,-1.541 -10.296,-2.312 -18.685,-2.312 z m 32.361,19.777 0,131.5 c 0,4.196 -0.75,7.448 -2.248,9.76 -1.499,2.312 -3.788,4.324 -6.87,6.036 0.341,0 1.069,0.086 2.183,0.257 1.112,0.172 1.84,0.257 2.183,0.257 8.646,0 12.97,-6.249 12.97,-18.749 l 0,-123.283 c 0,-8.646 -0.664,-15.067 -1.991,-19.263 -1.328,-4.194 -5.159,-6.292 -11.493,-6.292 l -3.853,0 c 3.509,2.055 5.907,4.282 7.191,6.678 1.286,2.398 1.928,6.764 1.928,13.099 z m 87.068,147.295 23.5,0 11.044,-25.298 c -4.88,5.823 -10.081,10.767 -15.603,14.832 -5.522,4.067 -11.836,7.556 -18.941,10.466 z"
       id="path75"
       inkscape:connector-curvature="0" /><path
       d="m 855.095,155.75 c 0,0.343 0.556,1.585 1.669,3.724 1.112,2.141 1.669,4.153 1.669,6.036 0,3.682 -1.521,6.957 -4.559,9.824 -3.04,2.869 -6.828,4.302 -11.365,4.302 -4.366,0 -7.833,-1.134 -10.402,-3.403 -2.568,-2.267 -3.853,-4.9 -3.853,-7.897 0,-4.451 2.161,-8.817 6.485,-13.099 4.322,-4.28 10.273,-7.77 17.85,-10.466 7.577,-2.697 15.944,-4.045 25.106,-4.045 6.678,0 12.906,1.156 18.685,3.467 5.778,2.312 10.379,5.823 13.805,10.53 3.423,4.709 5.137,10.402 5.137,17.08 l 0,65.236 c 0,5.223 1.497,7.833 4.495,7.833 1.798,0 3.981,-1.413 6.549,-4.238 l 4.751,5.522 c -4.196,4.196 -8.07,7.364 -11.622,9.503 -3.554,2.139 -7.77,3.21 -12.649,3.21 -5.65,0 -10.061,-1.264 -13.227,-3.789 -3.168,-2.524 -5.394,-6.441 -6.678,-11.75 -11.814,10.189 -23.5,15.282 -35.058,15.282 -8.219,0 -14.748,-2.141 -19.584,-6.421 -4.837,-4.28 -7.255,-9.716 -7.255,-16.309 0,-5.907 1.477,-10.936 4.43,-15.089 2.954,-4.152 6.849,-7.834 11.687,-11.044 4.835,-3.211 11.963,-7.276 21.381,-12.2 9.417,-4.922 17.164,-9.138 23.244,-12.649 l 0,-19.391 c 0,-5.821 -1.328,-10.229 -3.981,-13.227 -2.655,-2.996 -6.636,-4.495 -11.943,-4.495 -4.623,0 -8.241,0.835 -10.852,2.504 -2.611,1.67 -3.915,3.49 -3.915,5.459 z m 8.09,96.827 c -7.792,0 -14.02,-1.583 -18.685,-4.751 -4.667,-3.167 -6.999,-7.747 -6.999,-13.741 0,-4.366 1.134,-8.496 3.403,-12.393 2.267,-3.895 5.67,-8.239 10.209,-13.034 -6.935,4.025 -12.308,8.134 -16.116,12.328 -3.811,4.196 -5.715,9.162 -5.715,14.896 0,5.223 2.29,9.567 6.87,13.034 4.579,3.468 9.567,5.201 14.961,5.201 5.222,0.001 9.247,-0.513 12.072,-1.54 z m -12.071,-81.032 c -3.082,0.257 -5.438,-0.341 -7.063,-1.798 -1.627,-1.455 -2.44,-3.167 -2.44,-5.137 0,-2.653 0.727,-5.028 2.183,-7.127 1.455,-2.097 3.981,-5.114 7.577,-9.053 -6.08,3.082 -10.745,6.164 -13.998,9.246 -3.254,3.082 -4.88,6.549 -4.88,10.402 0,1.713 0.877,3.319 2.632,4.815 1.754,1.499 3.831,2.248 6.229,2.248 4.109,0 7.362,-1.198 9.76,-3.596 z m 34.673,63.31 0,-41.222 c -10.959,6.164 -18.601,11.73 -22.923,16.694 -4.324,4.966 -6.485,10.959 -6.485,17.979 0,4.709 1.284,8.347 3.853,10.916 2.569,2.569 5.564,3.853 8.989,3.853 5.393,-10e-4 10.915,-2.74 16.566,-8.22 z m 4.237,-60.999 0,50.725 c 0,10.017 1.069,17.487 3.21,22.409 2.139,4.924 6.334,7.384 12.585,7.384 2.825,0 5.093,-0.341 6.806,-1.027 -5.137,-0.771 -8.776,-2.825 -10.916,-6.164 -2.141,-3.339 -3.21,-8.56 -3.21,-15.667 l 0,-58.944 c 0,-8.903 -1.264,-15.045 -3.789,-18.428 -2.526,-3.381 -6.87,-5.414 -13.034,-6.1 3.339,1.713 5.564,4.196 6.678,7.448 1.113,3.255 1.67,9.375 1.67,18.364 z"
       id="path77"
       inkscape:connector-curvature="0" /><path
       d="m 1106.023,182.589 -31.59,76.023 -9.889,0 -29.023,-63.695 -26.583,63.695 -9.888,0 -40.837,-88.737 c -3.168,-7.105 -6.016,-12.071 -8.54,-14.896 -2.526,-2.825 -6.144,-4.408 -10.851,-4.751 l 0,-7.32 58.045,0 0,7.32 c -6.507,0.257 -9.76,2.869 -9.76,7.833 0,1.457 0.257,3.082 0.771,4.88 0.514,1.798 1.112,3.467 1.798,5.008 0.684,1.541 1.497,3.254 2.44,5.137 l 23.757,50.725 15.41,-37.626 -7.063,-14.64 c -2.825,-6.078 -5.522,-10.679 -8.09,-13.805 -2.568,-3.124 -5.994,-5.628 -10.273,-7.512 l 0,-7.32 63.053,0 0,7.32 c -4.709,0 -8.41,0.622 -11.107,1.862 -2.697,1.242 -4.045,3.961 -4.045,8.155 0,2.227 0.32,4.238 0.963,6.036 0.643,1.798 2.16,5.394 4.559,10.787 l 21.832,46.744 13.869,-34.159 c 0.77,-1.798 1.668,-3.831 2.695,-6.1 1.027,-2.268 1.928,-4.858 2.697,-7.77 0.771,-2.91 1.156,-5.992 1.156,-9.246 0,-4.023 -1.156,-7.555 -3.467,-10.595 -2.312,-3.038 -5.609,-4.944 -9.889,-5.714 l 0,-7.32 44.176,0 0,7.32 c -9.845,2.654 -18.62,13.441 -26.326,32.361 z m -139.333,-4.752 34.416,74.996 2.055,0 c 1.284,-2.825 1.926,-5.137 1.926,-6.935 0,-2.91 -2.312,-9.202 -6.935,-18.877 l -25.427,-55.733 c -2.741,-6.078 -4.966,-10.508 -6.678,-13.292 -1.713,-2.781 -3.746,-4.793 -6.1,-6.035 -2.355,-1.24 -5.714,-1.818 -10.081,-1.734 1.798,1.284 3.487,3.04 5.073,5.265 1.583,2.227 3.359,5.287 5.329,9.182 1.969,3.897 4.11,8.284 6.422,13.163 z m 62.283,-6.035 37.369,81.032 1.541,0 c 1.625,-2.482 2.441,-4.793 2.441,-6.935 0,-2.739 -0.473,-5.243 -1.414,-7.513 -0.943,-2.267 -2.227,-5.028 -3.852,-8.283 l -26.326,-57.018 c -3.425,-7.276 -6.122,-12.37 -8.09,-15.282 -1.97,-2.91 -4.196,-4.9 -6.678,-5.972 -2.484,-1.069 -5.907,-1.605 -10.273,-1.605 3.423,2.141 6.206,4.924 8.347,8.347 2.139,3.427 4.451,7.835 6.935,13.229 z m 88.609,-21.831 -19.135,0 c 2.738,1.798 4.623,3.833 5.65,6.1 1.027,2.269 1.754,5.416 2.184,9.438 0.77,-2.91 2.225,-5.799 4.365,-8.668 2.139,-2.867 4.452,-5.157 6.936,-6.87 z"
       id="path79"
       inkscape:connector-curvature="0" /><path
       d="m 130.843,422.829 0,54.449 c 0,5.137 0.749,9.098 2.247,11.879 1.497,2.783 3.532,4.752 6.1,5.907 2.568,1.156 6.206,1.906 10.916,2.247 4.708,0.344 9.074,0.601 13.099,0.771 l 0,7.062 -93.36,0 0,-7.062 c 6.935,-0.171 12.135,-0.557 15.603,-1.156 3.467,-0.598 6.206,-1.754 8.219,-3.467 2.01,-1.712 3.381,-3.917 4.109,-6.614 0.726,-2.696 1.091,-6.398 1.091,-11.108 l 0,-113.135 c 0,-9.417 -0.407,-16.095 -1.22,-20.034 -0.814,-3.937 -3.254,-6.848 -7.319,-8.732 -4.067,-1.882 -10.896,-2.825 -20.483,-2.825 l 0,-7.063 88.352,0 c 3.937,0 13.355,0.686 28.252,2.055 4.793,0.429 9.908,1.842 15.346,4.238 5.436,2.398 10.53,5.672 15.281,9.824 4.752,4.153 8.582,9.075 11.494,14.768 2.91,5.695 4.366,11.879 4.366,18.557 0,7.448 -1.477,14.17 -4.43,20.161 -2.954,5.994 -7.493,11.173 -13.612,15.539 -6.122,4.366 -13.827,7.749 -23.115,10.145 -9.291,2.398 -20.098,3.596 -32.426,3.596 l -28.51,0 z m -27.866,-61.768 0,120.713 c 0,8.135 -3.126,13.57 -9.375,16.31 l 3.339,0 c 9.503,0 14.254,-4.495 14.254,-13.484 l 0,-117.504 c 0,-10.53 -0.064,-17.421 -0.193,-20.675 -0.128,-3.252 -0.686,-6.036 -1.669,-8.347 -0.985,-2.312 -2.741,-4.001 -5.266,-5.073 -2.526,-1.069 -6.4,-1.818 -11.622,-2.247 3.423,1.627 5.821,3.467 7.191,5.522 1.369,2.055 2.268,4.966 2.697,8.732 0.429,3.768 0.644,9.117 0.644,16.053 z m 27.866,54.706 17.979,0 c 10.872,0 19.905,-1.305 27.096,-3.917 7.191,-2.61 12.713,-7.019 16.566,-13.227 3.853,-6.207 5.779,-14.532 5.779,-24.978 0,-15.667 -5.265,-27.396 -15.795,-35.187 -4.196,-3.082 -8.434,-5.093 -12.713,-6.036 -4.282,-0.941 -9.589,-1.413 -15.924,-1.413 -7.278,0 -12.521,1.027 -15.731,3.082 -3.211,2.055 -5.223,5.137 -6.036,9.246 -0.814,4.109 -1.22,10.189 -1.22,18.236 l 0,54.194 z m 49.184,-1.413 c 10.273,-1.541 17.935,-5.606 22.987,-12.2 5.05,-6.592 7.577,-15.924 7.577,-27.995 0,-12.756 -2.568,-22.323 -7.705,-28.702 -5.137,-6.377 -12.842,-10.637 -23.115,-12.778 4.88,2.484 9.031,5.737 12.457,9.76 3.423,4.025 5.992,8.732 7.705,14.126 1.711,5.394 2.568,11.259 2.568,17.594 -0.001,20.376 -7.493,33.774 -22.474,40.195 z"
       id="path81"
       inkscape:connector-curvature="0" /><path
       d="m 296.888,390.725 0,19.776 c 6.591,-7.448 11.642,-12.604 15.153,-15.474 3.509,-2.868 7.747,-4.303 12.713,-4.303 4.28,0 7.898,1.521 10.851,4.56 2.954,3.039 4.431,6.87 4.431,11.493 0,4.796 -1.328,8.797 -3.981,12.007 -2.655,3.211 -5.994,4.816 -10.017,4.816 -1.798,0 -3.768,-0.342 -5.907,-1.027 -2.141,-0.685 -3.939,-1.584 -5.394,-2.697 -0.857,-0.685 -1.756,-1.412 -2.697,-2.184 -0.943,-0.77 -1.778,-1.368 -2.504,-1.797 -0.729,-0.428 -1.521,-0.643 -2.376,-0.643 -1.627,0 -3.232,0.622 -4.815,1.862 -1.585,1.242 -3.403,2.976 -5.458,5.2 l 0,62.026 c 0,4.452 0.62,7.621 1.862,9.503 1.24,1.884 3.166,3.062 5.778,3.531 2.611,0.472 7.169,0.707 13.677,0.707 l 0,7.062 -68.96,0 0,-7.062 3.467,0 c 9.93,0 14.896,-3.938 14.896,-11.814 l 0,-57.66 c 0,-9.844 -6.122,-16.608 -18.364,-20.29 l 0,-4.366 41.351,-13.228 6.294,0 z m -25.042,37.883 0,58.43 c 0,2.912 -0.472,5.073 -1.413,6.485 -0.943,1.413 -2.312,2.934 -4.109,4.56 4.88,-0.428 8.389,-1.734 10.53,-3.917 2.139,-2.184 3.21,-5.972 3.21,-11.365 l 0,-54.192 c 0,-7.362 -1.284,-12.713 -3.853,-16.053 -2.568,-3.338 -6.636,-5.008 -12.2,-5.008 -0.429,0 -1.371,0.086 -2.825,0.257 -1.457,0.173 -2.44,0.257 -2.954,0.257 9.076,3.938 13.614,10.787 13.614,20.546 z m 33.646,-18.107 c 2.312,0 4.623,0.771 6.935,2.312 5.307,4.195 9.76,6.292 13.355,6.292 4.451,0 7.705,-2.867 9.76,-8.604 -2.398,1.2 -4.153,1.799 -5.265,1.799 -2.568,0 -5.137,-0.855 -7.705,-2.568 -3.254,-2.653 -5.951,-3.981 -8.09,-3.981 -2.056,-10e-4 -5.053,1.584 -8.99,4.75 z"
       id="path83"
       inkscape:connector-curvature="0" /><path
       d="m 349.924,449.926 c 0,-10.958 2.588,-20.975 7.769,-30.05 5.179,-9.073 12.242,-16.201 21.189,-21.382 8.945,-5.179 18.855,-7.77 29.729,-7.77 10.615,0 20.31,2.526 29.087,7.577 8.774,5.053 15.687,12.029 20.739,20.932 5.05,8.905 7.577,18.794 7.577,29.665 0,8.305 -1.521,16.16 -4.559,23.564 -3.04,7.406 -7.235,13.785 -12.585,19.135 -5.351,5.352 -11.493,9.482 -18.428,12.392 -6.935,2.91 -14.383,4.367 -22.345,4.367 -10.703,0 -20.482,-2.44 -29.344,-7.32 -8.86,-4.88 -15.881,-11.75 -21.061,-20.611 -5.179,-8.861 -7.768,-19.026 -7.768,-30.499 z m 45.589,53.422 c -11.13,-6.762 -19.478,-14.769 -25.042,-24.015 -5.566,-9.246 -8.347,-19.391 -8.347,-30.435 0,-8.39 1.326,-15.751 3.981,-22.088 2.653,-6.335 6.142,-11.792 10.466,-16.373 4.322,-4.579 9.737,-9.311 16.245,-14.19 -8.648,3.082 -15.882,7.406 -21.703,12.971 -5.823,5.565 -10.103,11.922 -12.842,19.069 -2.741,7.149 -4.109,14.704 -4.109,22.666 0,5.823 0.899,11.558 2.697,17.208 1.798,5.65 4.43,10.745 7.898,15.281 3.467,4.539 7.769,8.521 12.906,11.943 5.136,3.426 11.086,6.081 17.85,7.963 z m -13.741,-60.742 c 0,18.234 2.653,32.554 7.962,42.955 5.307,10.402 12.2,15.604 20.675,15.604 4.28,0 8.261,-1.776 11.943,-5.33 3.68,-3.552 6.614,-8.816 8.796,-15.795 2.184,-6.977 3.275,-15.517 3.275,-25.619 0,-17.807 -2.375,-31.697 -7.127,-41.672 -4.751,-9.973 -11.323,-14.961 -19.712,-14.961 -8.134,0 -14.469,3.746 -19.006,11.236 -4.538,7.493 -6.806,18.686 -6.806,33.582 z m 45.332,54.064 c 6.421,-3.51 11.343,-9.073 14.768,-16.694 3.423,-7.619 5.137,-16.951 5.137,-27.995 0,-27.225 -8.391,-44.988 -25.17,-53.294 5.992,5.994 10.293,13.355 12.906,22.088 2.611,8.732 3.917,20.463 3.917,35.188 0,9.332 -0.963,17.144 -2.89,23.436 -1.926,6.291 -4.816,12.05 -8.668,17.271 z"
       id="path85"
       inkscape:connector-curvature="0" /><path
       d="m 495.936,547.267 0,-107.358 c 0,-7.962 -0.237,-13.761 -0.706,-17.4 -0.472,-3.638 -1.906,-6.72 -4.302,-9.246 -2.398,-2.524 -6.593,-4.858 -12.585,-6.999 l 0,-5.009 42.121,-10.53 4.623,0 0,119.687 c 0,7.275 -0.343,13.483 -1.027,18.62 -0.686,5.137 -2.355,10.229 -5.008,15.282 -3.682,7.361 -9.204,13.204 -16.566,17.528 -7.364,4.322 -15.24,6.485 -23.629,6.485 -7.019,0 -12.627,-1.649 -16.823,-4.944 -4.194,-3.297 -6.292,-7.47 -6.292,-12.521 0,-3.682 1.264,-6.786 3.789,-9.311 2.526,-2.526 5.287,-3.788 8.283,-3.788 2.825,0 5.544,1.005 8.155,3.018 2.61,2.011 4.43,4.515 5.458,7.513 0.684,1.969 1.348,3.873 1.991,5.715 0.642,1.84 1.412,3.274 2.312,4.302 0.898,1.027 2.032,1.541 3.403,1.541 4.533,0 6.803,-4.196 6.803,-12.585 z m -22.088,-3.211 c -1.968,-1.199 -3.895,-1.797 -5.779,-1.797 -2.568,0 -4.559,0.919 -5.971,2.761 -1.413,1.84 -2.119,3.872 -2.119,6.1 0,3.423 1.435,6.271 4.302,8.54 2.87,2.268 7.043,3.66 12.521,4.174 -5.821,-3.854 -8.732,-8.091 -8.732,-12.714 -10e-4,-3.597 1.925,-5.952 5.778,-7.064 z m 34.416,-18.62 0,-95.286 c 0,-7.705 -0.963,-13.783 -2.89,-18.235 -1.926,-4.45 -6.485,-6.678 -13.676,-6.678 -2.055,0 -3.724,0.086 -5.008,0.257 5.992,2.312 9.738,5.31 11.236,8.989 1.497,3.682 2.248,9.29 2.248,16.823 l 0,103.762 c 0.084,1.368 0.128,3.124 0.128,5.265 0,2.139 -0.15,4.794 -0.449,7.962 -0.301,3.166 -0.793,6.035 -1.477,8.604 4.451,-2.911 7.211,-6.85 8.283,-11.814 1.069,-4.968 1.605,-11.517 1.605,-19.649 z m 0.77,-197.508 c 3.252,0 6.292,0.814 9.118,2.44 2.825,1.627 5.05,3.833 6.678,6.614 1.625,2.783 2.44,5.801 2.44,9.053 0,3.254 -0.814,6.25 -2.44,8.989 -1.627,2.741 -3.853,4.902 -6.678,6.485 -2.825,1.585 -5.865,2.376 -9.118,2.376 -5.052,0 -9.333,-1.712 -12.842,-5.137 -3.511,-3.423 -5.265,-7.661 -5.265,-12.713 0,-4.964 1.776,-9.224 5.33,-12.778 3.551,-3.551 7.811,-5.329 12.777,-5.329 z m 1.926,4.11 -1.926,0 c -3.939,0 -7.235,1.457 -9.888,4.366 -2.655,2.912 -3.981,6.122 -3.981,9.631 0,3.339 1.262,6.401 3.788,9.182 2.524,2.783 5.542,4.173 9.054,4.173 0.514,-0.084 1.005,-0.148 1.477,-0.193 0.47,-0.042 0.963,-0.064 1.477,-0.064 -2.398,-1.625 -4.282,-3.339 -5.65,-5.137 -1.371,-1.798 -2.055,-4.537 -2.055,-8.219 -10e-4,-5.649 2.568,-10.228 7.704,-13.739 z"
       id="path87"
       inkscape:connector-curvature="0" /><path
       d="m 651.963,473.298 5.137,3.98 c -3.853,7.191 -8.434,13.1 -13.741,17.723 -5.309,4.623 -11.152,8.048 -17.529,10.273 -6.379,2.225 -13.035,3.338 -19.969,3.338 -9.418,0 -18.171,-2.269 -26.261,-6.806 -8.091,-4.537 -14.491,-11.086 -19.199,-19.647 -4.709,-8.561 -7.063,-18.278 -7.063,-29.151 0,-8.56 1.433,-16.608 4.302,-24.143 2.868,-7.532 6.849,-14.168 11.943,-19.905 5.092,-5.734 11,-10.209 17.722,-13.419 6.72,-3.211 13.889,-4.816 21.51,-4.816 7.705,0 15.045,1.605 22.023,4.816 6.977,3.21 12.521,7.641 16.63,13.291 2.996,4.109 5.157,8.327 6.485,12.649 1.327,4.324 2.376,9.524 3.146,15.603 l -77.564,0 c 0.341,8.905 1.862,16.438 4.559,22.602 2.697,6.164 6.207,11.13 10.53,14.896 4.322,3.769 8.925,6.465 13.805,8.091 4.88,1.627 9.545,2.439 13.998,2.439 10.787,0 20.632,-3.936 29.536,-11.814 z m -70.501,-69.731 c -16.01,12.671 -24.014,29.279 -24.014,49.826 0,14.896 4.771,27.075 14.318,36.534 9.545,9.461 20.567,14.19 33.068,14.19 7.276,0 14.576,-1.477 21.895,-4.431 7.32,-2.953 13.504,-7.34 18.557,-13.163 -5.223,3.34 -10.552,6.059 -15.988,8.155 -5.438,2.099 -11.922,3.146 -19.455,3.146 -12.757,0 -23.394,-4.45 -31.912,-13.355 -8.52,-8.902 -12.777,-20.502 -12.777,-34.801 0,-9.073 1.413,-17.208 4.238,-24.399 2.825,-7.191 6.847,-14.424 12.07,-21.702 z m -1.156,25.298 44.818,0 0,-4.237 c 0,-4.965 -0.899,-9.396 -2.697,-13.292 -1.798,-3.895 -4.26,-6.891 -7.384,-8.989 -3.126,-2.097 -6.7,-3.146 -10.723,-3.146 -6.507,0 -12.029,2.89 -16.566,8.669 -4.538,5.777 -7.021,12.776 -7.448,20.995 z m 48.927,0 8.989,0 c -0.257,-9.587 -2.227,-16.672 -5.907,-21.253 -3.682,-4.579 -9.846,-7.642 -18.492,-9.183 5.478,2.484 9.417,5.715 11.814,9.696 2.396,3.98 3.596,10.038 3.596,18.171 l 0,2.569 z"
       id="path89"
       inkscape:connector-curvature="0" /><path
       d="m 747.378,406.007 c 0,-2.312 -1.2,-4.258 -3.596,-5.843 -2.398,-1.584 -5.309,-2.376 -8.732,-2.376 -6.421,0 -12.244,1.862 -17.465,5.586 -5.223,3.725 -9.31,9.076 -12.264,16.053 -2.953,6.979 -4.43,14.876 -4.43,23.693 0,8.134 1.734,15.518 5.201,22.151 3.468,6.636 8.133,11.795 13.998,15.475 5.863,3.682 12.264,5.522 19.198,5.522 5.735,0 11.75,-1.305 18.043,-3.917 6.292,-2.61 11.321,-5.972 15.089,-10.081 l 4.495,6.035 c -6.764,9.76 -14.876,17.253 -24.335,22.474 -9.46,5.221 -19.07,7.833 -28.83,7.833 -9.076,0 -17.744,-2.483 -26.004,-7.447 -8.263,-4.965 -14.854,-11.707 -19.776,-20.227 -4.924,-8.518 -7.384,-17.828 -7.384,-27.931 0,-8.219 1.497,-16.052 4.495,-23.501 2.996,-7.447 7.298,-14.104 12.906,-19.969 5.606,-5.863 12.264,-10.466 19.969,-13.805 7.705,-3.339 16.223,-5.009 25.555,-5.009 7.533,0 14.383,1.136 20.547,3.403 6.164,2.27 11.022,5.416 14.576,9.439 3.551,4.024 5.329,8.433 5.329,13.227 0,4.195 -1.541,7.663 -4.623,10.402 -3.082,2.74 -6.722,4.109 -10.916,4.109 -3.853,0 -7.043,-1.349 -9.567,-4.046 -2.526,-2.696 -3.789,-5.586 -3.789,-8.668 0,-0.598 0.385,-2.546 1.156,-5.843 0.769,-3.292 1.154,-5.539 1.154,-6.739 z m -34.159,-7.32 c -8.219,3.082 -15.175,7.32 -20.868,12.714 -5.695,5.394 -10.039,11.666 -13.035,18.813 -2.998,7.149 -4.495,14.404 -4.495,21.767 0,10.017 2.396,19.006 7.191,26.968 4.793,7.962 11.108,14.148 18.941,18.557 7.834,4.41 15.773,6.613 23.822,6.613 11.728,0 22.772,-3.853 33.132,-11.558 -11.216,3.682 -20.248,5.522 -27.096,5.522 -8.732,0 -16.738,-1.969 -24.014,-5.908 -7.278,-3.937 -13.057,-9.416 -17.336,-16.438 -4.282,-7.019 -6.421,-14.852 -6.421,-23.5 0,-10.017 2.588,-19.626 7.77,-28.83 5.179,-9.202 12.649,-17.442 22.409,-24.72 z m 36.085,19.905 c 0,2.741 1.047,4.796 3.146,6.164 2.097,1.37 4.386,2.055 6.87,2.055 0.771,0 2.867,-0.341 6.292,-1.027 -5.309,-1.111 -7.962,-3.853 -7.962,-8.219 0,-0.341 0.193,-1.326 0.578,-2.954 0.386,-1.625 0.578,-2.995 0.578,-4.109 0,-4.707 -3.339,-8.303 -10.017,-10.787 1.882,2.655 2.825,5.095 2.825,7.32 0,1.457 -0.385,3.425 -1.156,5.907 -0.769,2.484 -1.154,4.366 -1.154,5.65 z"
       id="path91"
       inkscape:connector-curvature="0" /><path
       d="m 800.928,474.068 0,-73.07 -13.741,0 0,-6.549 c 7.533,-5.65 13.183,-9.995 16.951,-13.034 3.766,-3.038 7.34,-6.441 10.723,-10.21 3.381,-3.766 6.27,-7.705 8.668,-11.814 l 6.806,0 0,33.518 31.848,0 0,8.09 -31.848,0 0,76.794 c 0,5.65 0.684,9.868 2.055,12.649 1.369,2.783 3.68,4.174 6.935,4.174 3.082,0 5.927,-0.854 8.54,-2.568 2.611,-1.712 5.799,-4.366 9.567,-7.962 l 4.751,5.008 c -6.421,6.594 -12.308,11.494 -17.658,14.704 -5.351,3.211 -11.493,4.815 -18.428,4.815 -6.593,0 -11.73,-1.456 -15.41,-4.365 -3.682,-2.91 -6.229,-6.871 -7.641,-11.879 -1.412,-5.01 -2.118,-11.109 -2.118,-18.301 z m 12.585,-94.901 -8.476,7.063 0,85.27 c 0,11.387 1.477,19.67 4.431,24.849 2.953,5.181 8.239,7.77 15.859,7.77 4.023,0 8.046,-0.643 12.071,-1.926 -7.792,0.256 -13.721,-1.562 -17.786,-5.458 -4.067,-3.895 -6.1,-10.38 -6.1,-19.456 l 0,-98.112 z"
       id="path93"
       inkscape:connector-curvature="0" /></g><polygon
     points="1363.148,599.843 259.923,599.843 1360.775,603.709 "
     id="polygon95"
     inkscape:export-filename="/home/mlissner/Documents/CourtListener/Logos/v2/flp-banner-w400.png"
     inkscape:export-xdpi="130.90909"
     inkscape:export-ydpi="130.90909"
     transform="matrix(0.39994108,0,0,1,380.0137,96.178358)"
     style="clip-rule:evenodd;fill-rule:evenodd" /><polygon
     points="1388.598,599.843 1388.516,604.081 1561.396,606.402 1561.39,599.843 "
     id="polygon97"
     inkscape:export-filename="/home/mlissner/Documents/CourtListener/Logos/v2/flp-banner-w400.png"
     inkscape:export-xdpi="130.90909"
     inkscape:export-ydpi="130.90909"
     transform="translate(-437.95541,96.178358)"
     style="clip-rule:evenodd;fill-rule:evenodd" /><path
     d="m 1388.9796,696.02136 -5.685,0 -197.989,0 0.858,6.781 196.635,-2.741 6.504,-0.049 c 0.305,-1.33 -0.088,-2.661 -0.323,-3.991 z"
     id="path99"
     inkscape:export-filename="/home/mlissner/Documents/CourtListener/Logos/v2/flp-banner-w400.png"
     inkscape:export-xdpi="130.90909"
     inkscape:export-ydpi="130.90909"
     inkscape:connector-curvature="0"
     style="clip-rule:evenodd;fill-rule:evenodd" /><path
     d="m 1672.7046,696.02136 c -0.675,-0.934 -47.463,-1.128 -47.463,-1.128 0.043,0.196 -0.065,2.683 0,2.889 0,0 48.138,-0.828 47.463,-1.761 z"
     id="path101"
     inkscape:export-filename="/home/mlissner/Documents/CourtListener/Logos/v2/flp-banner-w400.png"
     inkscape:export-xdpi="130.90909"
     inkscape:export-ydpi="130.90909"
     inkscape:connector-curvature="0"
     style="clip-rule:evenodd;fill-rule:evenodd" /><path
     d="m 1036.2634,194.95956 c -36.80931,0 -66.65631,29.8471 -66.65631,66.6563 0,36.8092 29.847,66.6562 66.65631,66.6562 36.8092,0 66.6562,-29.847 66.6562,-66.6562 0,-36.8092 -29.847,-66.6563 -66.6562,-66.6563 z m 7.9374,20.5313 c 29.3855,0 53.2188,23.8333 53.2188,53.2187 0,29.3855 -23.8333,53.1875 -53.2188,53.1875 -29.3854,0 -53.18741,-23.802 -53.18741,-53.1875 0,-29.3854 23.80201,-53.2187 53.18741,-53.2187 z"
     id="circle123"
     inkscape:export-filename="/home/mlissner/Documents/CourtListener/Logos/v2/flp-banner-w400.png"
     inkscape:export-xdpi="130.90909"
     inkscape:export-ydpi="130.90909"
     inkscape:connector-curvature="0" /></svg>